<svg viewBox="148.61250000000018 272.1794871794873 3715.3125 3117.692307692307" fill="none" xmlns="http://www.w3.org/2000/svg" xmlns:xlink="http://www.w3.org/1999/xlink" overflow="visible" width="3715.3125px" height="3117.692307692307px">
    <g id="Master/Spot Illustration/Secured">
        <ellipse id="Floor" opacity="0.5" cx="1982" cy="3206" rx="1602" ry="58" fill="#D5ECFF"/>
        <g id="Lock Copy">
            <path id="Rectangle" fill-rule="evenodd" clip-rule="evenodd" d="M2818 777.721C2818 497.314 2590.73 270 2310.38 270H1687.62C1407.27 270 1180 497.314 1180 777.721V1875.28C1180 2155.69 1407.27 2383 1687.62 2383H2310.38C2590.73 2383 2818 2155.69 2818 1875.28V777.721ZM1687.5 463H2310.5L2315.71 463.042C2487.56 465.827 2626 605.935 2626 778.365V1875.64L2625.96 1880.85C2623.17 2052.62 2483 2191 2310.5 2191H1687.5L1682.29 2190.96C1510.44 2188.17 1372 2048.06 1372 1875.64V778.365L1372.04 773.15C1374.83 601.384 1515 463 1687.5 463Z" fill="#DDB0C8"/>
            <path id="Rectangle_2" fill-rule="evenodd" clip-rule="evenodd" d="M920.85 1337H3042.15L3160 3206H803L920.85 1337Z" fill="#EECCDC"/>
            <g id="Lock Hole">
                <ellipse id="Oval" cx="1981.5" cy="2010" rx="321.5" ry="320" fill="#DDB0C8"/>
                <path id="Rectangle_3" fill-rule="evenodd" clip-rule="evenodd" d="M1875.41 2103H2087.59L2176 2852H1787L1875.41 2103Z" fill="#DDB0C8"/>
            </g>
        </g>
        <g id="Master/Character/Standing" transform="translate(-213 498) scale(1 1)">
            <g id="Master/Character/Standing">
                <g id="Lower Body/Standing" transform="translate(503 1151) scale(1 1)">
                    <g id="Lower Body/Standing/Chill Stance">
                        <g id="Group 22">
                            <path id="Fill 1" fill-rule="evenodd" clip-rule="evenodd" d="M628.687 1312.03L618.945 1385.71L679.225 1397.89L706.016 1323.6L628.687 1312.03Z" fill="#c26e5e"/>
                            <path id="Fill 2" fill-rule="evenodd" clip-rule="evenodd" d="M987.322 1117.8L1029.26 1117.53L952.007 1232.88L916.691 1192.69L987.322 1117.8Z" fill="#c26e5e"/>
                            <g id="Group 21">
                                <g id="Group 5">
                                    <path id="Fill 3" fill-rule="evenodd" clip-rule="evenodd" d="M871.23 1227.41C867.25 1227.41 855.44 1214.05 838.25 1191.31L814.61 1327.24C662.65 1350.21 599.05 1306.04 599.05 1306.04L643.72 902.288C575.32 795.628 513.471 688.01 487.07 649.368C406.855 531.961 424.001 0 424.001 0C535.411 3.04 874 0 874 0C874 0 900.22 553.328 900.22 602.248C900.22 651.178 873.04 859.568 873.04 859.568C873.04 859.568 1008.94 1087.88 999.88 1109.63C990.82 1131.37 894.78 1227.41 871.23 1227.41Z" fill="#204EB2"/>
                                </g>
                                <path id="Stroke 6" d="M676.092 202.6L676.268 202.608C677.921 202.724 679.167 204.158 679.05 205.811L678.848 208.934C678.779 210.056 678.705 211.302 678.627 212.668L678.426 216.305C678.175 220.991 677.927 226.193 677.692 231.866C675.162 292.981 675.76 359.442 681.675 421.897C688.51 494.061 701.806 551.598 722.713 588.978L747.383 633.148L775.551 683.693C793.311 715.591 811.878 748.988 830.555 782.617L873.975 860.867C874.778 862.316 874.254 864.142 872.805 864.945C871.409 865.718 869.665 865.261 868.82 863.933L827.503 789.481C808.682 755.589 789.944 721.881 772.002 689.654L744.974 641.146C735.165 623.557 725.972 607.095 717.476 591.907C696.067 553.63 682.608 495.388 675.702 422.462C669.757 359.695 669.157 292.981 671.697 231.618L671.84 228.256C672.081 222.748 672.333 217.721 672.586 213.22L672.86 208.563L673.065 205.389C673.177 203.796 674.515 202.581 676.092 202.6Z" fill="black"/>
                                <path id="Stroke 8" d="M710.641 990.215C711.994 989.37 713.76 989.734 714.673 991.017L714.775 991.169L839.212 1190.27C840.09 1191.67 839.663 1193.53 838.258 1194.4C836.905 1195.25 835.138 1194.88 834.225 1193.6L834.124 1193.45L709.687 994.349C708.809 992.944 709.236 991.093 710.641 990.215Z" fill="black"/>
                                <path id="Fill 10" fill-rule="evenodd" clip-rule="evenodd" d="M684.471 1383.98C684.471 1383.98 692.417 1382.39 692.417 1389.34C692.417 1396.29 684.471 1439.55 692.149 1473.92C699.826 1508.29 744.431 1552.89 635.479 1554.36C526.528 1555.82 551.755 1513.41 564.551 1496.95C577.347 1480.5 604.634 1441.43 610.849 1417.3C617.065 1393.17 613.543 1373.01 620.489 1369.72C620.489 1369.72 651.932 1383.25 684.471 1383.98Z" fill="#237978"/>
                                <path id="Fill 12" fill-rule="evenodd" clip-rule="evenodd" d="M556.282 1538.17C575.423 1554.07 607.866 1560.23 660.098 1554.07C712.33 1547.9 713.304 1527.79 705.193 1508.65C705.193 1508.65 613.697 1519.65 564.551 1496.96C564.551 1496.96 537.141 1522.27 556.282 1538.17Z" fill="#F9C818"/>
                                <path id="Fill 14" fill-rule="evenodd" clip-rule="evenodd" d="M941.273 1221.1C941.273 1221.1 935.007 1224.05 941.641 1232.89C948.275 1241.73 955.627 1262.74 967.899 1307.06C980.171 1351.37 983.579 1370.46 986.988 1427.73C990.397 1485 984.942 1564.76 1030.62 1540.9C1076.3 1517.04 1093.34 1439.32 1085.16 1392.28C1076.98 1345.24 1059.25 1296.83 1074.25 1237.52C1089.25 1178.21 1100.16 1140.71 1066.07 1129.12C1031.98 1117.53 1000.28 1107.4 1000.11 1119.62C1000.11 1119.62 1001.71 1193.46 941.273 1221.1Z" fill="#237978"/>
                                <path id="Fill 16" fill-rule="evenodd" clip-rule="evenodd" d="M1085.9 1448.26C1085.9 1448.26 1073 1549.37 1011.69 1546.68C1011.69 1546.68 989.097 1553.68 988.021 1468.16C988.021 1468.16 991.248 1508.5 1085.9 1448.26Z" fill="#F9C818"/>
                                <g id="Group 20">
                                    <mask id="mask0_406_14492bcaf8299-89e7-47f8-83b2-f8c5af6b677c" style="mask-type:luminance" maskUnits="userSpaceOnUse" x="1036" y="1119" width="54" height="109" fill="#ffffff">
                                        <path id="Clip 19" fill-rule="evenodd" clip-rule="evenodd" d="M1036.47 1119.71H1089.52V1227.18H1036.47V1119.71Z" fill="#ffffff"/>
                                    </mask>
                                    <g mask="url(#mask0_406_14492bcaf8299-89e7-47f8-83b2-f8c5af6b677c)">
                                        <path id="Fill 18" fill-rule="evenodd" clip-rule="evenodd" d="M1038.08 1119.71C1038.08 1119.71 1024.3 1190.74 1077.27 1227.18C1077.27 1227.18 1095.64 1168.08 1087.38 1148.49C1079.11 1128.89 1066.86 1127.97 1038.08 1119.71" fill="#F9C818"/>
                                    </g>
                                </g>
                            </g>
                        </g>
                    </g>
                </g>
                <g id="Upper Body" transform="translate(376 277) scale(1 1)">
                    <g id="Upper Body/Shrugg">
                        <path id="Neck" fill-rule="evenodd" clip-rule="evenodd" d="M724.954 220C724.954 220 721.263 301.153 673.924 329.8C630.973 355.791 721.969 506.61 819.858 497.614C873.442 492.688 886 346.158 886 346.158C886 346.158 842.734 337.797 858.716 271.819L724.954 220Z" fill="#c26e5e"/>
                        <path id="Head" fill-rule="evenodd" clip-rule="evenodd" d="M803.337 302.516C739.877 294.841 694.078 253.116 687.665 183.898C669.216 186.835 664.865 138.765 670.003 123.323C675.146 107.859 691.933 116.901 691.933 116.901C691.933 116.901 693.327 113.235 694.303 109.226C722.025 -4.48555 799.67 0.0243587 799.67 0.0243587C942.344 7.45716 908.914 153.12 900.763 191.763C892.611 230.41 864.684 309.927 803.337 302.516Z" fill="#c26e5e"/>
                        <g id="Group 63">
                            <path id="Fill 1" fill-rule="evenodd" clip-rule="evenodd" d="M1305.75 339.834C1305.75 339.834 1297.8 316.943 1352.75 282.834C1381.75 264.834 1411.26 215.343 1422.72 227.346C1434.18 239.349 1393.08 296.298 1393.08 296.298C1393.08 296.298 1427.87 276.034 1451.28 250.561C1474.7 225.087 1495.74 204.805 1495.74 204.805C1495.74 204.805 1511.3 198.898 1509.31 212.948C1507.32 226.997 1502.51 230.586 1502.51 230.586C1502.51 230.586 1513.56 230.335 1511.53 240.987C1509.5 251.64 1507.09 253.435 1507.09 253.435C1507.09 253.435 1515.18 254.245 1513.41 263.565C1511.63 272.887 1505.22 277.673 1505.22 277.673C1505.22 277.673 1510.91 280.278 1503.48 290.39C1496.06 300.502 1455.18 352.723 1431.1 367.274C1407.02 381.825 1347.75 402.834 1347.75 402.834C1347.75 402.834 1297.75 354.834 1305.75 339.834" fill="#c26e5e"/>
                            <path id="Fill 3" fill-rule="evenodd" clip-rule="evenodd" d="M1436.36 327.205L1435.14 324.464C1435.32 324.385 1453.16 316.279 1474.67 293.797C1489.55 278.234 1497.18 274.917 1500.96 274.875C1502.76 274.88 1503.6 275.557 1503.81 275.773L1501.69 277.894C1501.77 277.976 1501.82 278.004 1501.82 278.004C1501.77 277.976 1496.55 275.255 1476.83 295.871C1454.88 318.82 1437.11 326.873 1436.36 327.205" fill="black"/>
                            <path id="Fill 5" fill-rule="evenodd" clip-rule="evenodd" d="M1431.02 312.62L1429.48 310.048C1429.53 310.017 1434.65 306.948 1448.51 299.031C1457.95 293.634 1471.43 279.55 1481.27 269.266C1485.8 264.525 1489.72 260.432 1492.26 258.205C1500.7 250.823 1507.22 251.807 1507.5 251.854L1507.02 254.815C1506.96 254.812 1501.52 254.096 1494.24 260.463C1491.8 262.601 1487.92 266.65 1483.44 271.339C1473.47 281.756 1459.82 296.022 1450 301.637C1436.18 309.532 1431.07 312.59 1431.02 312.62" fill="black"/>
                            <path id="Fill 7" fill-rule="evenodd" clip-rule="evenodd" d="M1427 300.631L1425.5 298.035C1425.69 297.926 1444.55 286.963 1458.28 275.194C1471.07 264.226 1483.09 248.11 1489.54 239.453L1491.05 237.433C1497.32 229.074 1501.76 228.833 1502.25 228.833L1502.3 231.832C1502.27 231.834 1498.77 232.145 1493.45 239.234L1491.95 241.246C1485.42 249.997 1473.28 266.286 1460.23 277.472C1446.28 289.424 1427.19 300.521 1427 300.631" fill="black"/>
                            <path id="Fill 9" fill-rule="evenodd" clip-rule="evenodd" d="M1361.06 312.599L1359.45 310.068C1359.91 309.775 1370.83 302.875 1379.07 301.845C1386.44 300.923 1392.14 295.328 1392.19 295.272L1394.31 297.394C1394.05 297.654 1387.85 303.77 1379.44 304.822C1371.87 305.768 1361.16 312.531 1361.06 312.599" fill="black"/>
                            <path id="Fill 11" fill-rule="evenodd" clip-rule="evenodd" d="M1347.75 402.834C1347.75 402.834 1336.75 410.834 1317.75 449.834C1298.75 488.834 1229.75 655.834 1229.75 655.834L1180.56 482.224C1180.56 482.224 1277.16 347.867 1319.46 310.351C1361.75 272.834 1347.75 402.834 1347.75 402.834" fill="#c26e5e"/>
                            <g id="Group 15">
                                <path id="Fill 13" fill-rule="evenodd" clip-rule="evenodd" d="M234.45 313.151C234.45 313.151 246.958 292.395 200.227 247.677C175.567 224.08 156.904 169.562 143.216 178.942C129.528 188.322 157.984 252.527 157.984 252.527C157.984 252.527 128.126 225.519 110.476 195.761C92.8257 166.005 76.4167 141.814 76.4167 141.814C76.4167 141.814 62.4127 132.825 61.4607 146.982C60.5087 161.139 64.4727 165.643 64.4727 165.643C64.4727 165.643 53.7177 163.118 53.5057 173.961C53.2947 184.802 55.2757 187.055 55.2757 187.055C55.2757 187.055 47.1907 186.177 47.0047 195.665C46.8197 205.151 52.1047 211.158 52.1047 211.158C52.1047 211.158 46.0007 212.532 51.1787 223.96C56.3577 235.386 85.5807 294.921 106.138 314.129C126.696 333.337 180.351 366.126 180.351 366.126C180.351 366.126 239.182 329.48 234.45 313.151" fill="#c26e5e"/>
                            </g>
                            <path id="Fill 16" fill-rule="evenodd" clip-rule="evenodd" d="M109.258 273.836C108.596 273.357 92.864 261.809 76.122 234.822C61.083 210.58 55.421 212.157 55.364 212.184C55.365 212.183 55.417 212.165 55.512 212.103L53.875 209.589C54.13 209.424 55.1 208.91 56.845 209.298C60.536 210.119 67.318 214.94 78.672 233.24C95.104 259.729 110.859 271.291 111.016 271.404L109.258 273.836Z" fill="black"/>
                            <path id="Fill 18" fill-rule="evenodd" clip-rule="evenodd" d="M117.492 260.667C117.449 260.627 113.085 256.581 101.195 246.004C92.7421 238.483 82.3311 221.707 74.7301 209.458C71.3081 203.943 68.3531 199.182 66.4031 196.584C60.6081 188.867 55.1321 188.424 55.0781 188.422L55.2061 185.424C55.4831 185.437 62.0701 185.817 68.8021 194.783C70.8321 197.486 73.8201 202.301 77.2791 207.876C84.7841 219.969 95.0611 236.531 103.189 243.762C115.11 254.367 119.49 258.429 119.533 258.468L117.492 260.667Z" fill="black"/>
                            <path id="Fill 20" fill-rule="evenodd" clip-rule="evenodd" d="M123.901 249.767C123.737 249.62 107.349 234.821 96.1718 220.248C85.7118 206.61 77.1898 188.163 72.6108 178.253L71.5568 175.975C67.8168 167.942 64.4588 166.916 64.4258 166.908L65.0918 163.983C65.5678 164.083 69.8668 165.237 74.2758 174.709L75.3348 176.995C79.8638 186.799 88.2948 205.048 98.5528 218.422C109.563 232.779 125.745 247.391 125.908 247.537L123.901 249.767Z" fill="black"/>
                            <path id="Fill 22" fill-rule="evenodd" clip-rule="evenodd" d="M185.956 275.089C185.865 275 176.786 266.172 169.576 263.685C161.56 260.92 156.756 253.655 156.555 253.348L159.067 251.708C159.111 251.775 163.533 258.427 170.554 260.849C178.404 263.558 187.664 272.563 188.054 272.944L185.956 275.089Z" fill="black"/>
                            <path id="Fill 24" fill-rule="evenodd" clip-rule="evenodd" d="M180.352 366.126C180.352 366.126 189.464 376.225 200.005 418.307C210.546 460.388 243.591 638.034 243.591 638.034L327.558 478.316C327.558 478.316 260.767 326.913 227.126 281.475C193.486 236.036 180.352 366.126 180.352 366.126" fill="#c26e5e"/>
                            <g id="Group 28">
                                <mask id="mask0_406_3261422146873-bf72-47a1-8abd-25b4210d31ef" style="mask-type:luminance" maskUnits="userSpaceOnUse" x="205" y="322" width="1050" height="691" fill="#ffffff">
                                    <path id="Clip 27" fill-rule="evenodd" clip-rule="evenodd" d="M205.598 322.055H1254.75V1012.16H205.598V322.055Z" fill="#ffffff"/>
                                </mask>
                                <g mask="url(#mask0_406_3261422146873-bf72-47a1-8abd-25b4210d31ef)">
                                    <path id="Fill 26" fill-rule="evenodd" clip-rule="evenodd" d="M674.753 326.834C674.753 326.834 548.254 356.095 495.003 446.465C441.753 536.834 402.753 549.834 402.753 549.834C402.753 549.834 361.753 444.834 339.753 448.834C317.753 452.834 200.753 635.834 205.753 652.834C210.753 669.834 306.422 906.352 409.588 862.593C512.753 818.834 539.753 742.834 545.753 759.834C551.753 776.834 522.753 990.834 547.753 996.834C572.753 1002.83 714.967 1014.21 844.753 1011.83C953.753 1009.83 1019.75 1014.83 1024.75 968.834C1029.75 922.834 1012.75 762.834 1012.75 762.834C1012.75 762.834 1067.75 830.834 1115.75 808.834C1163.75 786.834 1254.75 713.834 1254.75 713.834L1184.75 468.834L1116.75 533.834C1116.75 533.834 1040.75 406.834 995.753 382.834C950.753 358.834 863.243 322.055 863.243 322.055C863.243 322.055 812.753 365.834 790.753 396.834C768.753 427.834 762.753 443.834 762.753 443.834C762.753 443.834 713.753 349.834 674.753 326.834" fill="#F9C818"/>
                                </g>
                            </g>
                            <g id="Pattern 1">
                                <path id="Fill 29" fill-rule="evenodd" clip-rule="evenodd" d="M581.754 612.834L644.754 692.834C644.754 692.834 653.754 657.834 635.754 629.834C617.754 601.834 581.754 612.834 581.754 612.834" fill="#FFE89D"/>
                                <path id="Fill 31" fill-rule="evenodd" clip-rule="evenodd" d="M890.754 387.834L953.754 467.834C953.754 467.834 962.754 432.834 944.754 404.834C926.754 376.834 890.754 387.834 890.754 387.834" fill="#FFE89D"/>
                                <path id="Fill 33" fill-rule="evenodd" clip-rule="evenodd" d="M605.754 893.834L668.754 973.834C668.754 973.834 677.754 938.834 659.754 910.834C641.754 882.834 605.754 893.834 605.754 893.834" fill="#FFE89D"/>
                                <path id="Fill 35" fill-rule="evenodd" clip-rule="evenodd" d="M884.754 737.834L947.754 817.834C947.754 817.834 956.754 782.834 938.754 754.834C920.754 726.834 884.754 737.834 884.754 737.834" fill="#FFE89D"/>
                                <path id="Fill 37" fill-rule="evenodd" clip-rule="evenodd" d="M770.667 905.632L838.574 829.753C838.574 829.753 802.545 826.938 778.078 849.506C753.61 872.074 770.667 905.632 770.667 905.632" fill="#FFE89D"/>
                                <path id="Fill 39" fill-rule="evenodd" clip-rule="evenodd" d="M733.667 702.632L801.574 626.753C801.574 626.753 765.545 623.938 741.078 646.506C716.61 669.074 733.667 702.632 733.667 702.632" fill="#FFE89D"/>
                                <path id="Fill 41" fill-rule="evenodd" clip-rule="evenodd" d="M877.924 563.079L853.766 662C853.766 662 886.873 647.512 897.825 616.078C908.777 584.645 877.924 563.079 877.924 563.079" fill="#FFE89D"/>
                                <path id="Fill 43" fill-rule="evenodd" clip-rule="evenodd" d="M1019.92 493.079L995.766 592C995.766 592 1028.87 577.512 1039.82 546.078C1050.78 514.645 1019.92 493.079 1019.92 493.079" fill="#FFE89D"/>
                                <path id="Fill 45" fill-rule="evenodd" clip-rule="evenodd" d="M586.949 808.488L686.698 788.014C686.698 788.014 659.441 764.286 626.344 767.831C593.247 771.376 586.949 808.488 586.949 808.488" fill="#FFE89D"/>
                                <path id="Fill 47" fill-rule="evenodd" clip-rule="evenodd" d="M509.519 680.905L409.547 661.55C409.547 661.55 425.616 693.919 457.542 703.342C489.467 712.763 509.519 680.905 509.519 680.905" fill="#FFE89D"/>
                                <path id="Fill 49" fill-rule="evenodd" clip-rule="evenodd" d="M294.785 581.219L243.168 668.995C243.168 668.995 279.045 664.654 298.583 637.704C318.122 610.755 294.785 581.219 294.785 581.219" fill="#FFE89D"/>
                                <path id="Fill 51" fill-rule="evenodd" clip-rule="evenodd" d="M315.902 775.493L401.41 830.788C401.41 830.788 398.593 794.759 372.497 774.095C346.402 753.431 315.902 775.493 315.902 775.493" fill="#FFE89D"/>
                                <path id="Fill 53" fill-rule="evenodd" clip-rule="evenodd" d="M588.73 481.956L662.362 411.618C662.362 411.618 626.663 405.995 600.506 426.582C574.349 447.168 588.73 481.956 588.73 481.956" fill="#FFE89D"/>
                                <path id="Fill 55" fill-rule="evenodd" clip-rule="evenodd" d="M449.348 564.968L544.748 529.362C544.748 529.362 514.159 510.118 482.004 518.724C449.849 527.328 449.348 564.968 449.348 564.968" fill="#FFE89D"/>
                                <path id="Fill 57" fill-rule="evenodd" clip-rule="evenodd" d="M761.348 528.968L856.748 493.362C856.748 493.362 826.159 474.118 794.004 482.724C761.849 491.328 761.348 528.968 761.348 528.968" fill="#FFE89D"/>
                                <path id="Fill 59" fill-rule="evenodd" clip-rule="evenodd" d="M1028.35 706.968L1123.75 671.362C1123.75 671.362 1093.16 652.118 1061 660.724C1028.85 669.328 1028.35 706.968 1028.35 706.968" fill="#FFE89D"/>
                                <path id="Fill 61" fill-rule="evenodd" clip-rule="evenodd" d="M867.348 976.968L962.748 941.362C962.748 941.362 932.159 922.118 900.004 930.724C867.849 939.328 867.348 976.968 867.348 976.968" fill="#FFE89D"/>
                            </g>
                        </g>
                    </g>
                </g>
                <g id="Expression" transform="translate(1098 360) scale(1 1)">
                    <g id="Expression/Wink">
                        <g id="Group 16">
                            <path id="Fill 1" fill-rule="evenodd" clip-rule="evenodd" d="M65.1191 151.577C65.1191 151.577 81.2691 176.577 103.212 162.117L65.1191 151.577Z" fill="black"/>
                            <path id="Fill 5" fill-rule="evenodd" clip-rule="evenodd" d="M152.748 87.3186C152.748 90.6316 150.062 93.3186 146.748 93.3186C143.434 93.3186 140.748 90.6316 140.748 87.3186C140.748 84.0056 143.434 81.3186 146.748 81.3186C150.062 81.3186 152.748 84.0056 152.748 87.3186" fill="black"/>
                            <g id="Group 9">
                                <path id="Fill 7" fill-rule="evenodd" clip-rule="evenodd" d="M25 52.4905C25 52.4905 40.26 43.2805 51.897 41.1855C59.082 39.8925 98.756 45.4915 97.492 53.5815C96.26 61.4635 92.346 60.4025 76.686 57.7115C61.026 55.0195 53.873 53.2245 44.82 54.2035C35.766 55.1815 25.245 57.1395 25 52.4905" fill="black"/>
                            </g>
                            <path id="Fill 10" fill-rule="evenodd" clip-rule="evenodd" d="M188.067 67.7464C188.067 67.7464 185.452 59.7454 181.149 55.9004C176.846 52.0574 144.462 43.7574 138.985 48.8904C130.283 57.0464 136.536 59.9694 154.005 61.7814C168.054 63.2394 173.604 63.7254 180.115 66.5534C189.011 70.4174 187.87 69.2364 188.067 67.7464" fill="black"/>
                        </g>
                        <g id="Group 124">
                            <path id="Stroke 114" d="M123.94 52.5156L127.749 53.7376L127.377 54.9309C127.077 55.9042 126.744 57.0178 126.384 58.2528C125.356 61.7837 124.327 65.576 123.368 69.4789C122.301 73.8175 121.387 78.0249 120.672 81.9976L120.465 83.1739C118.727 93.2775 118.482 100.993 120.034 105.142L120.126 105.377C129.004 127.34 116.948 138.478 91.6439 130.679L90.873 130.436L92.0921 126.627C114.886 133.921 124.027 125.703 116.417 106.876C114.322 101.694 114.645 92.8992 116.735 81.2889C117.466 77.2272 118.398 72.9393 119.483 68.5239C120.349 65.0027 121.269 61.5727 122.196 58.338L122.543 57.1344C122.752 56.4175 122.952 55.7405 123.143 55.1067L123.631 53.5023L123.94 52.5156Z" fill="black"/>
                            <path id="Stroke 122" d="M25.1855 205.534L27.1425 202.045L27.8567 202.435L28.5118 202.783C29.5036 203.305 30.6327 203.881 31.8877 204.498L32.4332 204.765C36.6543 206.821 41.3224 208.878 46.301 210.798C57.7489 215.212 69.0606 218.225 79.5848 219.202C84.3541 219.645 88.8741 219.656 93.1069 219.202L93.9496 219.105L94.4385 223.075C89.6635 223.663 84.5751 223.683 79.2149 223.185C68.2771 222.169 56.6257 219.066 44.8619 214.53C39.7712 212.567 35.0001 210.465 30.6815 208.361L29.0484 207.554C28.354 207.206 27.7021 206.873 27.0948 206.556L25.9633 205.958L25.1855 205.534Z" fill="black"/>
                        </g>
                        <path id="Fill 12" fill-rule="evenodd" clip-rule="evenodd" d="M78.6366 79.1288C77.9116 79.1288 77.1856 78.8679 76.6096 78.3389C76.5716 78.3049 71.6246 73.9129 64.4836 74.1789C57.0946 74.4519 52.1896 78.0668 52.1406 78.1028C50.8186 79.0928 48.9396 78.8329 47.9446 77.5169C46.9476 76.1999 47.1966 74.3309 48.5086 73.3279C48.7646 73.1319 54.8866 68.5299 64.2616 68.1829C73.9106 67.8359 80.3946 73.6699 80.6656 73.9189C81.8866 75.0389 81.9686 76.9369 80.8476 78.1569C80.2566 78.8019 79.4476 79.1288 78.6366 79.1288" fill="black"/>
                    </g>
                </g>
                <g id="Hairstyle" transform="translate(607 33) scale(1 1)">
                    <g id="Hairstyle/Short Bob">
                        <path id="Fill 50 Copy" fill-rule="evenodd" clip-rule="evenodd" d="M623.482 565.672C623.482 565.672 663.758 553.081 704.034 565.672C744.31 578.263 772 559.376 772 559.376C772 559.376 712.219 539.627 750.854 478.601C785.482 423.905 719.771 369.137 712.219 330.105C704.667 291.073 707.135 195.848 580.117 188.474C463.7 181.716 423.471 248.737 419.586 293.707C415.66 339.144 366.535 356.549 381.827 414.581C393.42 458.58 364.207 507.227 334 522.336C334 522.336 364.206 559.376 390.637 553.081C417.068 546.785 461.12 556.858 461.12 556.858C461.12 556.858 499.57 539.145 488.506 505.201C477.442 471.258 453.1 455.762 463.427 416.654C473.753 377.545 507.122 370.787 505.646 336.105C504.171 301.425 535.714 249.889 596.198 270.551C596.198 270.551 661.847 265.385 661.847 311.873C661.847 358.36 675.297 382.441 680.005 395.858L670.667 422.269C670.667 422.269 651.322 504.056 623.788 527.362C623.788 527.362 616.809 547.691 623.482 565.672" fill="#ffc943"/>
                    </g>
                </g>
                <g id="Accessories" transform="translate(1051 393) scale(234 78)">
                    <g id="Accessories/None" stroke="none" stroke-width="1" fill="none" fill-rule="evenodd" fill-opacity="0"/></g>
                <g id="Facial Hair" transform="translate(1061 394) scale(1 1)">
                    <g id="Facial Hair/Beard Lock">
                        <path id="Fill 137" fill-rule="evenodd" clip-rule="evenodd" d="M140.312 147.74L123.312 145.74C123.312 145.74 95.3123 169.74 83.3123 149.74C68.7873 125.532 96.3123 117.74 113.312 114.74C130.312 111.74 139.312 107.74 139.312 107.74C145.312 113.74 148.042 117.802 158.7 126.154C169.301 134.46 169.161 155.062 158.7 157.251C148.24 159.441 140.312 147.74 140.312 147.74ZM181.683 132.719C173.717 114.74 170.266 110.806 158.7 102.71C147.678 94.995 97.3123 83.74 82.3123 106.74C76.0308 116.372 71.8537 121.794 67.5045 123.376C61.4678 125.571 42.1801 160.538 63.5315 191.066C73.4519 205.25 93.6925 211.909 115.312 210.74C129.785 209.958 142.115 206.766 152.618 201.793C160.884 197.878 173.788 185.563 181.683 159.718" fill="#ffc943"/>
                    </g>
                </g>
            </g>
        </g>
        <g id="Master/Character/Sitting On Floor" transform="translate(1351 650) scale(1 1)">
            <g id="Master/Character/Sitting On Floor">
                <g id="Upper Body" transform="translate(911 1329) scale(1 1)">
                    <g id="Upper Body/Coffee and Phone">
                        <path id="Neck" fill-rule="evenodd" clip-rule="evenodd" d="M724.954 220C724.954 220 721.263 301.153 673.924 329.8C630.973 355.791 721.969 506.61 819.858 497.614C873.442 492.688 886 346.158 886 346.158C886 346.158 842.734 337.797 858.716 271.819L724.954 220Z" fill="#f6cbc3"/>
                        <path id="Head" fill-rule="evenodd" clip-rule="evenodd" d="M803.337 302.516C739.877 294.841 694.078 253.116 687.665 183.898C669.216 186.835 664.865 138.765 670.003 123.323C675.146 107.859 691.933 116.901 691.933 116.901C691.933 116.901 693.327 113.235 694.303 109.226C722.025 -4.48555 799.67 0.0243587 799.67 0.0243587C942.344 7.45716 908.914 153.12 900.763 191.763C892.611 230.41 864.684 309.927 803.337 302.516Z" fill="#f6cbc3"/>
                        <g id="Group 31">
                            <path id="Path" fill-rule="evenodd" clip-rule="evenodd" d="M376.227 576C376.227 576 206.738 844.505 269.287 901.819C331.836 959.134 507.933 762.377 507.933 762.377C507.933 762.377 498.858 718.445 461.074 666.513C423.29 614.58 376.227 576 376.227 576Z" fill="#f6cbc3"/>
                            <g id="Group 3">
                                <path id="Fill 1" fill-rule="evenodd" clip-rule="evenodd" d="M1088.32 703.18L1005.85 693.58C1005.85 693.58 1026.95 977.46 1019.02 977.46C1014.76 977.46 915.693 1031.17 776.867 1031.17C670.216 1031.17 539.396 995.9 533.866 995.6C533.186 995.56 532.526 995.1 531.896 994.25C533.676 974.67 535.086 940.05 536.516 901.82C537.516 875 538.536 846.41 539.706 820C540.796 795.43 542.016 772.75 543.486 755.13C549.886 678.28 545.456 608.15 545.456 608.15L513.876 693.85L313.676 620.91C313.676 620.91 380.526 523.48 460.226 438.741C539.296 354.66 666.116 333.33 668.096 333.01C668.106 333 668.116 333 668.116 333C668.116 333 660.996 449 780.966 457.91C880.716 465.32 885.886 345.76 885.886 345.76C885.886 345.76 1002.49 376.2 1035.94 404.73C1069.39 433.26 1216.96 628.05 1216.96 632.97C1216.96 637.89 1088.32 703.18 1088.32 703.18Z" fill="#F9C818"/>
                            </g>
                            <path id="Fill 4" fill-rule="evenodd" clip-rule="evenodd" d="M539.707 820C538.537 846.41 537.517 875 536.517 901.819C536.287 883.649 537.007 857.52 539.707 820" fill="#F9C818"/>
                            <path id="Fill 6" fill-rule="evenodd" clip-rule="evenodd" d="M954.269 736.572L849.392 745.095C843.071 745.609 837.529 740.901 837.015 734.579L820.253 528.343C819.74 522.021 824.448 516.479 830.77 515.966L935.646 507.442C941.968 506.928 947.51 511.636 948.024 517.959L964.785 724.194C965.299 730.516 960.591 736.057 954.269 736.572" fill="#204EB2"/>
                            <path id="Fill 8" fill-rule="evenodd" clip-rule="evenodd" d="M964.96 730.856L859.705 739.411C853.488 739.917 848.038 735.286 847.532 729.068L831.35 529.967C830.845 523.751 835.476 518.3 841.693 517.795L946.948 509.241C953.165 508.735 958.615 513.366 959.121 519.584L975.303 718.683C975.808 724.901 971.177 730.351 964.96 730.856" fill="#1F9BEB"/>
                            <path id="Fill 10" fill-rule="evenodd" clip-rule="evenodd" d="M947.255 531.94C947.74 537.912 943.293 543.146 937.321 543.631C931.35 544.117 926.115 539.669 925.63 533.697C925.145 527.726 929.592 522.492 935.564 522.006C941.535 521.521 946.77 525.968 947.255 531.94" fill="#204EB2"/>
                            <g id="Group 14">
                                <path id="Fill 12" fill-rule="evenodd" clip-rule="evenodd" d="M926.491 723.582C926.491 723.582 873.894 735.046 873.557 716.839C873.557 716.839 909.296 702.004 917.388 702.678C925.48 703.353 962.905 707.735 962.905 707.735L916.713 684.809L870.859 698.97C870.859 698.97 860.407 699.644 855.687 692.226C850.967 684.809 856.361 680.426 856.361 680.426L916.376 660.533C916.376 660.533 918.399 654.127 903.227 653.452C888.054 652.778 854.675 650.418 854.675 650.418C854.675 650.418 847.258 644.012 850.629 632.548C854.001 621.085 872.882 625.131 872.882 625.131C872.882 625.131 862.43 615.016 878.277 603.89C878.277 603.89 926.828 605.238 944.698 616.364C962.567 627.491 1084.89 702.596 1084.89 702.596L1180.09 652.587C1180.09 652.587 1360.84 873.839 1276 914.749C1191.16 955.658 926.491 723.582 926.491 723.582Z" fill="#f6cbc3"/>
                            </g>
                            <path id="Fill 15" fill-rule="evenodd" clip-rule="evenodd" d="M979.305 657.272L931.502 630.183L871.977 623.805L872.403 619.829L932.34 626.251C932.612 626.279 932.875 626.364 933.113 626.499L981.277 653.792L979.305 657.272Z" fill="black"/>
                            <path id="Fill 17" fill-rule="evenodd" clip-rule="evenodd" d="M1171.18 757.268L1056.93 685.473L1059.06 682.086L1173.31 753.881L1171.18 757.268Z" fill="black"/>
                            <path id="Fill 17_2" fill-rule="evenodd" clip-rule="evenodd" d="M454.788 675.157L340.173 746.375L338.062 742.977L452.676 671.759L454.788 675.157Z" fill="black"/>
                            <path id="Fill 19" fill-rule="evenodd" clip-rule="evenodd" d="M975.432 679.236C975.13 679.032 945.176 658.754 937.365 655.499C931.406 653.016 919.493 657.546 915.406 659.502L913.68 655.892C914.346 655.575 930.09 648.132 938.903 651.807C947.084 655.215 976.431 675.081 977.676 675.925L975.432 679.236Z" fill="black"/>
                            <path id="Fill 21" fill-rule="evenodd" clip-rule="evenodd" d="M965.141 600.124L994.655 645.264L966.588 627.613L965.141 600.124Z" fill="#f6cbc3"/>
                            <path id="Fill 23" fill-rule="evenodd" clip-rule="evenodd" d="M993.587 646.957L965.52 629.307L967.649 625.92L995.716 643.57L993.587 646.957Z" fill="black"/>
                            <path id="Fill 27" fill-rule="evenodd" clip-rule="evenodd" d="M601.7 757.014L566.555 756.325C529.55 755.599 500.139 725.011 500.865 688.006L503.062 576L662.887 579.136L660.507 700.469C659.883 732.323 633.554 757.639 601.7 757.014" fill="white"/>
                        </g>
                        <g id="Group">
                            <path id="Fill 12" fill-rule="evenodd" clip-rule="evenodd" d="M499.562 614.711C499.562 614.711 485.139 623.983 480.503 629.649C475.867 635.315 479.988 636.346 469.686 647.163C459.384 657.981 440.84 685.281 473.291 727.005C505.744 768.729 516.561 765.122 529.954 757.911C543.346 750.699 544.892 745.549 570.132 742.973C595.372 740.398 619.582 715.672 619.067 709.491L618.552 703.31C618.552 703.31 641.731 694.553 640.187 684.766C638.641 674.979 631.945 676.009 631.945 676.009C631.945 676.009 636.581 671.373 632.975 663.131C629.369 654.89 612.371 656.435 592.796 659.011C573.223 661.586 522.742 671.888 519.651 669.828C516.561 667.768 517.591 664.677 529.438 663.131C541.286 661.586 589.191 661.071 589.191 647.678C589.191 634.285 574.768 631.71 546.952 632.225C519.136 632.74 513.985 631.194 507.289 633.771L500.592 636.346L499.562 614.711Z" fill="#f6cbc3"/>
                            <path id="Fill 14" fill-rule="evenodd" clip-rule="evenodd" d="M632.349 675.951C632.349 675.951 633.829 674.883 622.806 679.092C618.792 680.624 613.132 682.223 605.158 683.735C575.281 689.401 528.407 699.704 513.984 701.764C499.56 703.825 511.408 706.915 544.375 700.219C577.342 693.522 616.587 684.539 618.349 683.951C621.349 682.951 630.349 679.951 632.349 675.951" fill="black"/>
                            <path id="Fill 16" fill-rule="evenodd" clip-rule="evenodd" d="M607.736 706.401C607.736 706.401 583.352 714.952 571.352 717.952C558.611 721.137 549.014 725.46 546.439 721.339C543.863 717.218 540.772 716.188 540.772 716.188L536.652 720.824C536.652 720.824 537.352 725.952 535.106 726.49C531.099 727.451 523.258 729.066 523.258 729.066C523.258 729.066 523.352 731.952 547.352 726.952C553.307 725.712 564.352 723.952 571.352 721.952C577.791 720.112 601.04 714.128 604.131 711.552C607.221 708.976 607.736 706.401 607.736 706.401" fill="black"/>
                            <path id="Fill 18" fill-rule="evenodd" clip-rule="evenodd" d="M532.013 703.825C532.013 703.825 531.633 724.568 537.489 724.241C543.346 723.914 545.406 723.914 546.436 722.368C547.467 720.823 544.891 715.672 544.891 710.006C544.891 704.34 544.891 701.764 540.255 702.279C535.619 702.795 532.528 702.795 532.013 703.825" fill="#F9C818"/>
                        </g>
                    </g>
                </g>
                <g id="Lower Body/Sitting on Floor" transform="matrix(-1 0 0 1 2330 1832) scale(1 1)">
                    <g id="Lower Body/Sitting on Floor/Spread Out 1">
                        <g id="Lower Body">
                            <path id="Fill 1" fill-rule="evenodd" clip-rule="evenodd" d="M2010.3 637.559L1982.3 740.416L2033.3 757.559L2065.3 656.559L2010.3 637.559Z" fill="#F8D8B8"/>
                            <path id="Fill 2" fill-rule="evenodd" clip-rule="evenodd" d="M2062.3 649.559L2026.3 763.559L2078.3 780.559L2116.3 669.559L2062.3 649.559Z" fill="#E4F9FF"/>
                            <g id="Group 44">
                                <path id="Fill 3" fill-rule="evenodd" clip-rule="evenodd" d="M2120.3 657.559C2120.3 657.559 2112.3 657.559 2102.3 662.559C2092.3 667.559 2040.3 736.559 2070.3 779.559C2070.3 779.559 2075.3 782.559 2081.3 783.559C2087.3 784.559 2098.3 802.559 2117.3 812.559C2117.3 812.559 2113.3 799.559 2128.3 760.559C2143.3 721.559 2229.3 514.559 2270.3 512.559C2270.3 512.559 2254.3 499.559 2205.3 555.559C2159.01 608.459 2120.3 657.559 2120.3 657.559" fill="#2E2C36"/>
                                <path id="Fill 5" fill-rule="evenodd" clip-rule="evenodd" d="M2117.3 812.559C2117.3 812.559 2134.3 841.559 2161.3 836.559C2188.3 831.559 2196.13 806.824 2205.22 786.192C2214.3 765.559 2306.21 538.565 2306.21 538.565C2306.21 538.565 2296.09 505.877 2268.38 512.217C2236.3 519.559 2206.3 587.559 2206.3 587.559L2119.3 767.559C2119.3 767.559 2110.3 793.559 2117.3 812.559" fill="#E4F9FF"/>
                                <g id="Group 9">
                                    <mask id="mask0_406_14360513d8c83-ff34-4975-8587-9654ce32dc10" style="mask-type:luminance" maskUnits="userSpaceOnUse" x="2141" y="530" width="169" height="295" fill="#ffffff">
                                        <path id="Clip 8" fill-rule="evenodd" clip-rule="evenodd" d="M2141.3 530.524H2309.58V824.062H2141.3V530.524Z" fill="#ffffff"/>
                                    </mask>
                                    <g mask="url(#mask0_406_14360513d8c83-ff34-4975-8587-9654ce32dc10)">
                                        <path id="Fill 7" fill-rule="evenodd" clip-rule="evenodd" d="M2141.3 802.559L2252.3 564.559C2252.3 564.559 2275.3 523.559 2298.3 531.559C2321.3 539.559 2303.3 576.559 2295.3 605.559C2287.3 634.559 2207.3 804.559 2186.3 820.559C2171.63 831.734 2142.3 813.559 2141.3 802.559" fill="#2E2C36"/>
                                    </g>
                                </g>
                                <path id="Fill 10" fill-rule="evenodd" clip-rule="evenodd" d="M2081.3 783.559C2081.3 783.559 2070.3 754.559 2083.3 719.559C2096.3 684.559 2120.3 657.559 2120.3 657.559C2120.3 657.559 2095 649.632 2073.65 700.596C2052.3 751.559 2056.3 778.559 2081.3 785.559" fill="#3B3D4A"/>
                                <path id="Stroke 12" d="M2138.33 664.111L2148.27 663.007L2148.38 664.132L2148.5 665.519C2148.54 666.009 2148.57 666.525 2148.61 667.065C2149 672.712 2149.09 678.596 2148.71 684.155C2148.43 688.083 2147.93 691.644 2147.15 694.772C2145.88 699.851 2142.31 703.842 2136.76 707.317L2136.17 707.681C2132.72 709.781 2128.91 711.532 2122.61 714.081L2116.14 716.665C2110.43 718.963 2106.94 720.535 2103.72 722.339C2099.62 724.636 2096.83 729.553 2095.34 736.54C2094.23 741.753 2093.98 747.365 2094.24 752.426L2094.29 753.221C2094.31 753.579 2094.33 753.903 2094.36 754.19L2094.41 754.75L2084.47 755.848L2084.39 755.047C2084.37 754.779 2084.35 754.47 2084.32 754.121L2084.31 753.852C2083.92 747.758 2084.17 740.981 2085.56 734.461C2087.59 724.93 2091.76 717.577 2098.83 713.615C2102.51 711.555 2106.3 709.847 2112.36 707.406L2117.22 705.467C2130.98 699.979 2136.39 696.591 2137.45 692.346C2138.07 689.849 2138.5 686.848 2138.73 683.463C2139.08 678.426 2138.99 672.976 2138.64 667.75L2138.57 666.781C2138.54 666.469 2138.52 666.169 2138.49 665.88L2138.34 664.257L2138.33 664.111Z" fill="white"/>
                                <path id="Fill 14" fill-rule="evenodd" clip-rule="evenodd" d="M850.416 776.286C850.416 776.286 861.398 820.171 866.455 828.046C871.512 835.92 965.475 878.245 995.462 875.352C1025.45 872.459 1075.86 853.374 1082.47 839.007C1089.08 824.64 1080.18 780.286 1070.69 772.124C1061.19 763.962 850.416 776.286 850.416 776.286" fill="#E4F9FF"/>
                                <g id="Group 18">
                                    <mask id="mask1_406_14360513d8c83-ff34-4975-8587-9654ce32dc10" style="mask-type:luminance" maskUnits="userSpaceOnUse" x="384" y="333" width="1641" height="419" fill="#ffffff">
                                        <path id="Clip 17" fill-rule="evenodd" clip-rule="evenodd" d="M384 333.44H2024.3V751.559H384V333.44Z" fill="#ffffff"/>
                                    </mask>
                                    <g mask="url(#mask1_406_14360513d8c83-ff34-4975-8587-9654ce32dc10)">
                                        <path id="Fill 16" fill-rule="evenodd" clip-rule="evenodd" d="M400.18 395.067C400.18 395.067 326.296 672.559 494.296 715.559C662.296 758.559 850.034 719.685 1056.3 652.559C1225.3 597.559 1218.3 534.559 1433.3 596.559C1587.14 640.923 1983.3 751.559 1983.3 751.559L2024.3 631.559C2024.3 631.559 1433.3 326.559 1198.3 333.559C1110.28 336.18 833.112 392.55 833.112 392.55L400.18 395.067Z" fill="#E93737"/>
                                    </g>
                                </g>
                                <g id="Group 21">
                                    <mask id="mask2_406_14360513d8c83-ff34-4975-8587-9654ce32dc10" style="mask-type:luminance" maskUnits="userSpaceOnUse" x="421" y="1" width="495" height="579" fill="#ffffff">
                                        <path id="Clip 20" fill-rule="evenodd" clip-rule="evenodd" d="M421.971 1H915.296V579.558H421.971V1Z" fill="#ffffff"/>
                                    </mask>
                                    <g mask="url(#mask2_406_14360513d8c83-ff34-4975-8587-9654ce32dc10)">
                                        <path id="Fill 19" fill-rule="evenodd" clip-rule="evenodd" d="M421.971 429.284C421.971 429.284 606.296 47.5584 676.296 13.5584C746.296 -20.4416 773.296 20.5584 779.296 65.5584C785.296 110.558 915.296 538.558 915.296 538.558L760.296 579.558L421.971 429.284Z" fill="#E93737"/>
                                    </g>
                                </g>
                                <path id="Stroke 22" d="M666.101 366.697L761.599 566.542L757.99 568.267L662.492 368.422L666.101 366.697Z" fill="black"/>
                                <path id="Fill 24" fill-rule="evenodd" clip-rule="evenodd" d="M892.845 538.972L904.564 577.334C857.995 577.289 821.112 598.485 811.035 603.533L800.512 565.927L892.845 538.972Z" fill="#F7C8A9"/>
                                <path id="Fill 26" fill-rule="evenodd" clip-rule="evenodd" d="M930.277 649.839L828.429 675.145L807.297 598.559C807.297 598.559 807.576 598.428 809.297 597.559C819.374 592.51 859.42 573.845 905.989 573.891" fill="#E4F9FF"/>
                                <path id="Fill 28" fill-rule="evenodd" clip-rule="evenodd" d="M896.668 801.871C896.668 801.871 968.021 831.262 1016.35 812.646C1064.68 794.03 1075.8 781.631 1075.53 780.405C1075.25 779.18 995.277 710.165 979.53 703.411C963.783 696.657 923.217 667.165 907.084 692.692C890.95 718.219 866.912 737.8 870.013 756.418C873.114 775.036 896.668 801.871 896.668 801.871" fill="#353644"/>
                                <path id="Fill 30" fill-rule="evenodd" clip-rule="evenodd" d="M830.811 689.273C830.811 689.273 834.745 755.298 852.615 786.041L899.303 803.852C899.303 803.852 885.823 768.308 896.876 754.228C907.928 740.148 914.263 724.555 914.413 715.507C914.563 706.459 954.9 696.083 954.9 696.083C954.9 696.083 961.614 711.311 973.621 711.181C985.629 711.051 1047.47 755.974 1047.47 755.974C1047.47 755.974 1032.33 740.011 1016.46 722.984C1000.59 705.956 944.959 651.963 944.959 651.963L830.811 689.273Z" fill="#2C262B"/>
                                <path id="Fill 32" fill-rule="evenodd" clip-rule="evenodd" d="M825.491 662.481C825.491 662.481 815.543 672.923 821.863 682.775C828.183 692.627 849.425 686.815 869.692 681.224C889.958 675.632 938.516 663.666 942.074 656.714C945.633 649.762 939.19 634.813 926.165 631.597C926.165 631.597 929.998 644.059 924.584 647.329C919.17 650.599 834.421 674.82 830.835 672.553C827.249 670.285 825.491 662.481 825.491 662.481" fill="#3E454F"/>
                                <path id="Fill 34" fill-rule="evenodd" clip-rule="evenodd" d="M897.995 715.849C897.995 715.849 924.377 687.353 953.794 695.076C953.794 695.076 963.453 697 959.963 690.611C956.473 684.221 951.376 684.345 951.376 684.345C951.376 684.345 952.008 678.052 946.691 677.2C946.691 677.2 948.298 670.687 941.03 670.275C941.03 670.275 938.708 655.422 923.003 663.061C907.298 670.7 876.837 676.538 880.766 684.879C884.695 693.219 886.963 689.633 886.963 689.633C886.963 689.633 885.135 695.17 889.38 700.364C893.626 705.557 892.967 702.631 892.967 702.631C892.967 702.631 888.116 712.949 897.995 715.849" fill="white"/>
                                <path id="Stroke 36 (Stroke)" fill-rule="evenodd" clip-rule="evenodd" d="M885.979 694.915C885.979 694.915 885.98 694.915 884.63 693.439C883.28 691.963 883.281 691.962 883.281 691.962L883.282 691.961L883.285 691.959L883.292 691.952L883.312 691.934C883.329 691.919 883.351 691.899 883.379 691.875C883.435 691.825 883.514 691.757 883.616 691.671C883.82 691.499 884.114 691.259 884.495 690.967C885.257 690.383 886.366 689.592 887.79 688.732C890.635 687.013 894.761 685.005 899.895 683.849L900.775 687.751C896.154 688.792 892.428 690.603 889.858 692.155C888.576 692.93 887.588 693.636 886.929 694.142C886.599 694.394 886.353 694.596 886.193 694.73C886.113 694.798 886.055 694.848 886.019 694.879C886.002 694.895 885.989 694.906 885.983 694.912L885.978 694.916L885.979 694.915Z" fill="black"/>
                                <path id="Stroke 38 (Stroke)" fill-rule="evenodd" clip-rule="evenodd" d="M945.41 668.42C945.41 668.42 945.411 668.42 945.672 670.403C945.933 672.386 945.933 672.386 945.933 672.386L945.929 672.386L945.909 672.389L945.824 672.401C945.747 672.411 945.632 672.428 945.482 672.45C945.182 672.495 944.742 672.563 944.193 672.655C943.094 672.84 941.562 673.123 939.837 673.511C936.34 674.299 932.231 675.484 929.291 677.09L927.373 673.58C930.822 671.696 935.382 670.415 938.958 669.609C940.77 669.201 942.375 668.905 943.529 668.711C944.106 668.613 944.572 668.541 944.895 668.493C945.057 668.469 945.184 668.451 945.271 668.439L945.372 668.425L945.399 668.422L945.41 668.42Z" fill="black"/>
                                <path id="Stroke 40 (Stroke)" fill-rule="evenodd" clip-rule="evenodd" d="M956.818 684.091C956.818 684.091 956.818 684.091 956.756 686.09C956.693 688.089 956.693 688.089 956.693 688.089L956.685 688.088L956.655 688.087L956.534 688.084C956.426 688.081 956.265 688.078 956.057 688.074C955.641 688.066 955.036 688.057 954.289 688.055C952.794 688.05 950.734 688.069 948.474 688.165C943.854 688.362 938.739 688.873 935.776 690L934.354 686.261C937.999 684.874 943.729 684.364 948.303 684.169C950.64 684.069 952.764 684.05 954.302 684.055C955.073 684.058 955.698 684.066 956.132 684.074C956.35 684.079 956.519 684.083 956.635 684.086L956.769 684.089L956.804 684.09L956.818 684.091Z" fill="black"/>
                                <path id="Stroke 42 (Stroke)" fill-rule="evenodd" clip-rule="evenodd" d="M891.168 709.099C891.169 709.099 891.169 709.098 889.849 707.596C888.529 706.094 888.529 706.093 888.529 706.093L888.533 706.09L888.541 706.083L888.567 706.06C888.589 706.041 888.62 706.014 888.66 705.98C888.74 705.912 888.856 705.814 889.006 705.69C889.307 705.442 889.745 705.089 890.311 704.654C891.443 703.785 893.087 702.591 895.158 701.268C899.294 698.628 905.176 695.452 912.121 693.357L913.276 697.187C906.784 699.145 901.241 702.131 897.311 704.64C895.35 705.892 893.801 707.018 892.747 707.827C892.221 708.231 891.819 708.555 891.552 708.775C891.419 708.885 891.32 708.969 891.255 709.024C891.223 709.052 891.2 709.072 891.185 709.084L891.17 709.097L891.168 709.099Z" fill="black"/>
                            </g>
                        </g>
                    </g>
                </g>
                <g id="Expression" transform="translate(1633 1412) scale(1 1)">
                    <g id="Expression/Make Up Meditating">
                        <g id="Group 19">
                            <path id="Fill 12" fill-rule="evenodd" clip-rule="evenodd" d="M59.7599 152.441C59.7599 152.441 59.5219 168.39 81.8989 171.247C104.276 174.103 114.275 171.247 113.799 161.01C113.799 161.01 110.228 149.822 104.99 149.346C99.7529 148.87 94.2779 151.726 94.2779 151.726C94.2779 151.726 89.0409 144.823 83.5659 145.537C78.0899 146.252 67.1399 152.678 59.7599 152.441" fill="#CE4129"/>
                            <g id="Group 7">
                                <mask id="mask0_406_138778e5a8814-d393-4341-913e-34dbb32be01f" style="mask-type:luminance" maskUnits="userSpaceOnUse" x="21" y="26" width="78" height="24" fill="#ffffff">
                                    <path id="Clip 6" fill-rule="evenodd" clip-rule="evenodd" d="M21 26H98.7316V49.7102H21V26Z" fill="#ffffff"/>
                                </mask>
                                <g mask="url(#mask0_406_138778e5a8814-d393-4341-913e-34dbb32be01f)">
                                    <path id="Fill 5" fill-rule="evenodd" clip-rule="evenodd" d="M96.2173 49.7101C96.2173 49.7101 67.3263 41.7031 59.7953 39.4271C52.2643 37.1491 50.6883 35.5731 41.7553 36.4491C32.8233 37.3241 22.6643 39.2511 21.0883 37.5001C19.5123 35.7481 39.4783 26.9911 46.1343 26.1151C52.7893 25.2391 92.0983 29.3362 97.1353 39.0851C101.201 46.9551 96.2173 49.7101 96.2173 49.7101" fill="black"/>
                                </g>
                            </g>
                            <path id="Fill 10" fill-rule="evenodd" clip-rule="evenodd" d="M99.1191 161.076C82.8041 158.901 63.2911 156.011 57.1681 152.95C52.7001 150.715 51.0551 151.277 51.0391 151.284C51.0401 151.284 52.4721 146.131 58.9561 149.371C65.2681 152.528 91.1441 155.978 99.6481 157.112C114.523 159.094 115.865 158.327 117.564 157.358L119.548 160.83C117.902 161.772 116.348 162.347 112.83 162.347C109.951 162.347 105.757 161.961 99.1191 161.076Z" fill="black"/>
                            <g id="Group 16">
                                <mask id="mask1_406_138778e5a8814-d393-4341-913e-34dbb32be01f" style="mask-type:luminance" maskUnits="userSpaceOnUse" x="130" y="43" width="52" height="18" fill="#ffffff">
                                    <path id="Clip 15" fill-rule="evenodd" clip-rule="evenodd" d="M130.529 43.6357H181.523V60.8241H130.529V43.6357Z" fill="#ffffff"/>
                                </mask>
                                <g mask="url(#mask1_406_138778e5a8814-d393-4341-913e-34dbb32be01f)">
                                    <path id="Fill 14" fill-rule="evenodd" clip-rule="evenodd" d="M130.573 53.5461C130.573 53.5461 131.201 47.2721 138.856 44.5111C146.511 41.7501 173.241 46.2681 175.249 47.7741C177.256 49.2791 180.896 52.9191 181.523 60.8241C181.523 60.8241 178.628 54.8021 173.358 53.7981C168.087 52.7941 151.656 57.3111 141.24 57.1861C130.824 57.0601 130.322 55.8051 130.573 53.5461" fill="black"/>
                                </g>
                            </g>
                            <path id="Fill 17" fill-rule="evenodd" clip-rule="evenodd" d="M86.4619 223.176C72.6079 223.176 58.2859 219.136 48.0139 215.404C34.8549 210.623 25.3079 205.297 25.2129 205.244L26.6809 202.627C27.0519 202.836 64.1469 223.389 93.7939 219.746L94.1609 222.723C91.6319 223.034 89.0539 223.176 86.4619 223.176" fill="black"/>
                        </g>
                        <g id="Group 124">
                            <path id="Stroke 114" d="M123.94 52.5157L127.749 53.7377L127.377 54.931C127.077 55.9043 126.744 57.0179 126.384 58.2529C125.356 61.7838 124.327 65.5761 123.368 69.479C122.301 73.8176 121.387 78.025 120.672 81.9977L120.465 83.1741C118.727 93.2777 118.482 100.993 120.034 105.142L120.126 105.377C129.004 127.34 116.948 138.478 91.6439 130.679L90.873 130.437L92.0921 126.627C114.886 133.921 124.027 125.703 116.417 106.876C114.322 101.694 114.645 92.8994 116.735 81.289C117.466 77.2273 118.398 72.9394 119.483 68.524C120.349 65.0028 121.269 61.5728 122.196 58.3382L122.543 57.1345C122.752 56.4176 122.952 55.7406 123.143 55.1069L123.631 53.5025L123.94 52.5157Z" fill="black"/>
                            <path id="Stroke 122" d="M25.1855 205.534L27.1425 202.046L27.8567 202.435L28.5118 202.783C29.5036 203.305 30.6327 203.881 31.8877 204.498L32.4332 204.765C36.6543 206.821 41.3224 208.878 46.301 210.798C57.7489 215.212 69.0606 218.225 79.5848 219.202C84.3541 219.645 88.8741 219.656 93.1069 219.202L93.9496 219.105L94.4385 223.075C89.6635 223.663 84.5751 223.683 79.2149 223.185C68.2771 222.169 56.6257 219.066 44.8619 214.53C39.7712 212.567 35.0001 210.465 30.6815 208.361L29.0484 207.554C28.354 207.206 27.7021 206.873 27.0948 206.556L25.9633 205.958L25.1855 205.534Z" fill="black"/>
                        </g>
                        <g id="Group 16_2">
                            <path id="Fill 5_2" fill-rule="evenodd" clip-rule="evenodd" d="M105.825 133.166C101.782 133.166 96.7384 132.375 90.4434 130.361L91.6614 126.551C103.385 130.302 112.045 129.996 116.046 125.687C119.449 122.02 119.428 115.313 115.987 106.801C113.652 101.026 114.229 90.0734 117.702 74.2454C120.243 62.6624 123.477 52.5414 123.51 52.4404L127.318 53.6624C123.811 64.5954 115.606 95.1874 119.695 105.302C124.893 118.16 122.174 124.964 118.977 128.408C116.697 130.866 112.718 133.166 105.825 133.166" fill="black"/>
                        </g>
                        <path id="Stroke 110" d="M129.686 72.7609C130.8 71.6261 132.595 71.565 133.783 72.5891L134.324 73.0923C134.681 73.4174 135.099 73.7831 135.575 74.1792C136.945 75.319 138.485 76.4611 140.152 77.5242C144.703 80.4259 149.296 82.1723 153.559 82.2424C157.875 82.3131 161.866 80.9074 165.438 78.4948C166.672 77.6615 167.762 76.7682 168.692 75.8803L168.993 75.5873C169.225 75.3575 169.41 75.1645 169.545 75.0167L169.735 74.8012C170.793 73.5262 172.684 73.3504 173.959 74.4084C175.234 75.4665 175.41 77.3578 174.352 78.6328L174.151 78.8673C173.848 79.2103 173.409 79.6721 172.836 80.2188C171.673 81.3296 170.324 82.435 168.796 83.4671C164.274 86.5208 159.126 88.3343 153.461 88.2416C147.91 88.1503 142.33 86.0286 136.927 82.5834C135.032 81.3756 133.291 80.0845 131.737 78.7911L131.287 78.4123C130.574 77.8048 130.046 77.3197 129.724 77.0033C128.542 75.8424 128.525 73.9429 129.686 72.7609Z" fill="black"/>
                        <path id="Stroke 120" d="M42.7659 62.9386C43.8805 61.8038 45.6756 61.7427 46.8632 62.7668L47.404 63.27L47.8615 63.679C48.1048 63.8926 48.3698 64.1193 48.6554 64.357C50.0249 65.4967 51.5649 66.6388 53.2324 67.7019C57.7835 70.6036 62.3761 72.35 66.6391 72.4202C70.955 72.4904 74.9454 71.0848 78.5178 68.6725C79.7518 67.8391 80.8421 66.9458 81.7717 66.0579L82.2068 65.6315C82.4199 65.4168 82.5851 65.2405 82.7004 65.1111L82.8147 64.9788C83.8729 63.7039 85.7642 63.5281 87.0392 64.5863C88.3141 65.6444 88.4899 67.5358 87.4318 68.8107L87.2307 69.0452C86.9281 69.3882 86.4884 69.8499 85.916 70.3966C84.7532 71.5074 83.404 72.6128 81.8755 73.6449C77.3541 76.6981 72.2059 78.5116 66.5409 78.4194C60.9899 78.328 55.4105 76.2063 50.0068 72.7612C48.1123 71.5533 46.3715 70.2623 44.8173 68.9688L44.3673 68.59C43.6541 67.9826 43.1262 67.4974 42.8041 67.1811C41.622 66.0201 41.6049 64.1207 42.7659 62.9386Z" fill="black"/>
                    </g>
                </g>
                <g id="Hairstyle" transform="translate(1142 1085) scale(1 1)">
                    <g id="Hairstyle/Fancy Bun">
                        <g id="Group 9">
                            <path id="Fill 1" fill-rule="evenodd" clip-rule="evenodd" d="M460.271 362.678C460.271 362.678 469.271 327.678 540.771 294.178C599.659 266.588 666.771 309.178 673.771 320.178C678.935 328.293 683.771 225.178 574.771 201.178C482.343 180.827 407.271 280.678 438.271 369.678C438.271 369.678 442.271 359.678 460.271 362.678" fill="#711515"/>
                            <g id="Group 5">
                                <mask id="mask0_406_140111f803168-4d60-4e15-ab54-dcb2d190c26b" style="mask-type:luminance" maskUnits="userSpaceOnUse" x="401" y="116" width="167" height="155" fill="#ffffff">
                                    <path id="Clip 4" fill-rule="evenodd" clip-rule="evenodd" d="M401 116.001H567.344V270.104H401V116.001Z" fill="#ffffff"/>
                                </mask>
                                <g mask="url(#mask0_406_140111f803168-4d60-4e15-ab54-dcb2d190c26b)">
                                    <path id="Fill 3" fill-rule="evenodd" clip-rule="evenodd" d="M556.611 140.866C579.166 172.175 565.018 220.919 525.011 249.74C485.006 278.562 434.289 276.547 411.734 245.238C389.179 213.93 403.327 165.185 443.333 136.364C483.34 107.543 534.055 109.558 556.611 140.866" fill="#711515"/>
                                </g>
                            </g>
                            <g id="Group 8">
                                <mask id="mask1_406_140111f803168-4d60-4e15-ab54-dcb2d190c26b" style="mask-type:luminance" maskUnits="userSpaceOnUse" x="455" y="287" width="88" height="285" fill="#ffffff">
                                    <path id="Clip 7" fill-rule="evenodd" clip-rule="evenodd" d="M455.588 287.178H542.771V571.027H455.588V287.178Z" fill="#ffffff"/>
                                </mask>
                                <g mask="url(#mask1_406_140111f803168-4d60-4e15-ab54-dcb2d190c26b)">
                                    <path id="Fill 6" fill-rule="evenodd" clip-rule="evenodd" d="M473.771 306.178C473.771 306.178 446.059 371.163 468.083 412.696C490.106 454.229 439.056 533.089 461.365 571.028C461.365 571.028 459.951 539.754 480.084 499.897C500.217 460.038 509.319 443.511 496.736 412.742C484.152 381.975 521.425 300.231 542.771 287.178L473.771 306.178Z" fill="#711515"/>
                                </g>
                            </g>
                        </g>
                    </g>
                </g>
                <g id="Accessories" transform="translate(1586 1445) scale(234 78)">
                    <g id="Accessories/None" stroke="none" stroke-width="1" fill="none" fill-rule="evenodd" fill-opacity="0"/></g>
                <g id="Facial Hair" transform="translate(1596 1446) scale(212 211)">
                    <g id="Facial Hair/None" stroke="none" stroke-width="1" fill="none" fill-rule="evenodd" fill-opacity="0"/></g>
            </g>
        </g>
    </g>
</svg>