<svg viewBox="346.7625000000003 24.743589743589382 3418.0874999999996 3266.1538461538476" fill="none" xmlns="http://www.w3.org/2000/svg" xmlns:xlink="http://www.w3.org/1999/xlink" overflow="visible" width="3418.0874999999996px" height="3266.1538461538476px"><g id="Master/Spot Illustration/To Do List"><ellipse id="Floor" opacity="0.5" cx="1982" cy="3206" rx="1602" ry="58" fill="#D5ECFF"/><g id="Group"><g id="Wooden board"><rect id="Board" width="2041" height="2785" rx="15" transform="matrix(-1 0 0 1 3053 419)" fill="#DDB0C8"/><g id="Paper"><rect id="Rectangle" width="1828" height="2507" transform="matrix(-1 0 0 1 2948 537)" fill="#EECCDC"/><rect id="Rectangle Copy 38" width="1828" height="2507" transform="matrix(-1 0 0 1 2948 537)" fill="#FCEBEC"/><g id="Writing"><rect id="Rectangle Copy 11" width="1458" height="40" transform="matrix(-1 0 0 1 2763 825)" fill="#EECCDC"/><rect id="Rectangle Copy 42" width="1458" height="40" transform="matrix(-1 0 0 1 2763 1905)" fill="#EECCDC"/><rect id="Rectangle Copy 39" width="1458" height="40" transform="matrix(-1 0 0 1 2763 1095)" fill="#EECCDC"/><rect id="Rectangle Copy 43" width="1458" height="40" transform="matrix(-1 0 0 1 2763 2175)" fill="#EECCDC"/><rect id="Rectangle Copy 40" width="1458" height="40" transform="matrix(-1 0 0 1 2763 1365)" fill="#EECCDC"/><rect id="Rectangle Copy 44" width="1458" height="40" transform="matrix(-1 0 0 1 2763 2445)" fill="#EECCDC"/><rect id="Rectangle Copy 41" width="1458" height="40" transform="matrix(-1 0 0 1 2763 1635)" fill="#EECCDC"/><rect id="Rectangle Copy 45" width="1458" height="40" transform="matrix(-1 0 0 1 2763 2715)" fill="#EECCDC"/></g></g><ellipse id="Oval" cx="179.5" cy="180.5" rx="179.5" ry="180.5" transform="matrix(-1 0 0 1 2214 58)" fill="#EECCDC"/><path id="Rectangle_2" d="M2486 457C2486 401.772 2441.23 357 2386 357H1683C1627.77 357 1583 401.772 1583 457V633H2486V457Z" fill="#EECCDC"/></g><g id="Pencil Copy"><path id="Triangle" fill-rule="evenodd" clip-rule="evenodd" d="M1276.23 489.033L1045.82 909.261L1149.25 1158.09L1332.45 964.977L1276.23 489.033Z" fill="white"/><path id="Rectangle_3" fill-rule="evenodd" clip-rule="evenodd" d="M1333.52 966.915L1247.43 1050.59L1194.43 939.879L1096.85 1021.32L1045.85 910.997L619.2 3105.92C608.662 3160.13 644.068 3212.62 698.281 3223.16L792.394 3241.45C846.656 3252 899.182 3216.52 909.661 3162.25L1333.52 966.915Z" fill="#EECCDC"/><rect id="Rectangle_4" width="296" height="283" transform="matrix(-0.981627 -0.190809 -0.190809 0.981627 979.543 2804.62)" fill="#DDB0C8"/><path id="Triangle_2" fill-rule="evenodd" clip-rule="evenodd" d="M1277.09 487.016L1221.06 589.202L1290.76 602.75L1277.09 487.016Z" fill="#DDB0C8"/></g></g><g id="Master/Character/Standing" transform="translate(1767 556) scale(1 1)"><g id="Master/Character/Standing"><g id="Lower Body/Standing" transform="translate(503 1151) scale(1 1)"><g id="Lower Body/Standing/Yoga Pose"><path id="Rectangle (Stroke)" fill-rule="evenodd" clip-rule="evenodd" d="M422 0L424 193H874V0H422ZM423.01 1L424.99 192H873V1H423.01Z" fill="#979797"/><g id="Group 109"><path id="Fill 96" fill-rule="evenodd" clip-rule="evenodd" d="M851.705 832.457C851.705 832.457 806.525 844.92 751.998 848.036C697.47 851.152 689.68 868.289 705.26 975.786C720.839 1083.28 719.281 1257.77 750.44 1229.73C781.598 1201.69 766.019 1050.57 837.684 971.112C909.348 891.658 900.001 921.259 900.001 921.259L851.705 832.457Z" fill="#ecafa3"/><path id="Fill 98" fill-rule="evenodd" clip-rule="evenodd" d="M551.039 1350.77C551.039 1350.77 561.898 1396.18 531.295 1411.97C500.692 1427.77 446.397 1465.28 369.395 1492.92C292.394 1520.56 275.612 1547.22 331.882 1554.13C388.152 1561.04 449.358 1555.11 502.667 1540.31C555.975 1525.5 649.758 1570.91 706.028 1524.51C762.298 1478.11 683.323 1404.07 686.284 1386.3C689.246 1368.54 551.039 1350.77 551.039 1350.77" fill="#ecafa3"/><g id="Group 102"><mask id="mask0_406_14651319788ac-01ef-43fa-b163-aa829a1ffa05" style="mask-type:luminance" maskUnits="userSpaceOnUse" x="422" y="99" width="961" height="1290" fill="#ffffff"><path id="Clip 101" fill-rule="evenodd" clip-rule="evenodd" d="M422.799 99.5342H1382.91V1388.69H422.799V99.5342Z" fill="#ffffff"/></mask><g mask="url(#mask0_406_14651319788ac-01ef-43fa-b163-aa829a1ffa05)"><path id="Fill 100" fill-rule="evenodd" clip-rule="evenodd" d="M422.819 123.78C422.819 123.78 421.02 407.85 451.197 743.569C481.374 1079.29 519.095 1347.11 519.095 1347.11C519.095 1347.11 654.891 1415.01 752.966 1377.29C752.966 1377.29 663.414 343.901 727.54 355.217C791.666 366.534 1096.02 486.231 1087.83 494.42C974.773 607.473 832.181 815.239 832.181 815.239L877.446 1022.71C877.446 1022.71 1382.91 524.786 1382.91 426.711C1382.91 328.635 873.409 99.5342 873.409 99.5342C873.409 99.5342 694.789 167.746 422.819 123.78" fill="#FC7750"/></g></g><path id="Stroke 103" d="M1211.86 423.16L1212.83 427.041C1189.31 432.919 1164.72 444.156 1140.04 459.191C1126.85 467.231 1114.47 475.847 1103.27 484.462L1101.72 485.656C1098.93 487.823 1096.38 489.869 1094.07 491.764L1092.84 492.783C1091.92 493.55 1091.1 494.242 1090.39 494.851L1089.15 495.917L1086.5 492.922L1087.28 492.247L1088.1 491.54C1088.54 491.172 1089 490.777 1089.5 490.357L1090.28 489.707C1093.34 487.167 1096.87 484.337 1100.83 481.292C1112.14 472.593 1124.64 463.895 1137.96 455.776C1162.54 440.796 1187.08 429.524 1210.68 423.459L1211.86 423.16Z" fill="black"/><path id="Stroke 105" d="M890.706 106.019L891.347 109.967L890.864 110.057L890.307 110.171C890.108 110.213 889.895 110.259 889.67 110.31L889.322 110.39C887.6 110.79 885.576 111.336 883.269 112.051C876.645 114.102 869.096 117.089 860.762 121.187C837.166 132.789 812.142 150.784 786.766 176.533L785.849 177.467L782.99 174.669C808.998 148.095 834.711 129.538 858.997 117.597C867.521 113.406 875.264 110.343 882.086 108.23C884.485 107.487 886.602 106.915 888.417 106.494L889.182 106.321C889.572 106.235 889.903 106.167 890.174 106.115L890.706 106.019Z" fill="black"/><path id="Stroke 107" d="M712.465 256.723C712.465 283.567 715.645 307.66 720.941 328.636L721.449 330.612C723.067 336.798 724.773 342.297 726.482 347.08L726.752 347.829C727.442 349.729 728.081 351.372 728.653 352.752L729.085 353.771L729.354 354.375L725.726 356.06L725.517 355.595L725.199 354.858L724.959 354.284C724.364 352.85 723.703 351.151 722.992 349.194C720.968 343.619 718.948 337.078 717.063 329.615C711.784 308.708 708.581 284.779 708.468 258.176L708.465 256.723H712.465Z" fill="black"/></g></g></g><g id="Upper Body" transform="translate(376 277) scale(1 1)"><g id="Upper Body/Relaxed"><g id="Hand1"><path id="Fill 1" fill-rule="evenodd" clip-rule="evenodd" d="M219.607 1021.89C219.607 1021.89 213.4 1045.32 148.768 1042.86C114.66 1041.57 62.5171 1066.1 59.7308 1049.74C56.9445 1033.38 122.86 1009.15 122.86 1009.15C122.86 1009.15 82.6864 1006.49 49.0326 1014.52C15.3775 1022.55 -13.4136 1027.59 -13.4136 1027.59C-13.4136 1027.59 -29.6149 1023.79 -20.1077 1013.25C-10.601 1002.72 -4.60801 1002.43 -4.60801 1002.43C-4.60801 1002.43 -13.9051 996.464 -6.26478 988.769C1.37608 981.073 4.37283 980.929 4.37283 980.929C4.37283 980.929 -1.88363 975.732 4.80125 968.999C11.4872 962.265 19.4777 961.881 19.4777 961.881C19.4777 961.881 16.218 956.54 28.029 952.31C39.84 948.079 102.934 927.647 131.033 929.048C159.133 930.45 220.016 946.175 220.016 946.175C220.016 946.175 234.627 1013.93 219.607 1021.89" fill="#ecafa3"/><path id="Path 2" d="M-5 1000.98L-4.21302 1003.88L1.48797 1002.34C36.3589 992.96 62.3903 986.929 79.5602 984.247L80.6556 984.078L80.2072 981.112L78.5422 981.37C60.489 984.234 33.0348 990.667 -3.84445 1000.67L-5 1000.98Z" fill="#995B5D"/><path id="Path 2 Copy" d="M3.91016 978.678L4.66355 981.603L10.1212 980.045C43.5039 970.571 68.4244 964.479 84.8615 961.769L85.9102 961.599L85.4808 958.603L83.8869 958.863C66.6042 961.756 40.3217 968.255 5.01639 978.361L3.91016 978.678Z" fill="#995B5D"/><path id="Path 2 Copy 2" d="M19.9102 959.678L20.5809 962.603L25.4395 961.045C55.1583 951.571 77.3436 945.479 91.9766 942.769L92.9102 942.599L92.528 939.603L91.109 939.863C75.7231 942.756 52.3253 949.255 20.895 959.361L19.9102 959.678Z" fill="#995B5D"/></g><path id="Neck" fill-rule="evenodd" clip-rule="evenodd" d="M724.954 220C724.954 220 721.263 301.153 673.924 329.8C630.973 355.791 721.969 506.61 819.858 497.614C873.442 492.688 886 346.158 886 346.158C886 346.158 842.734 337.797 858.716 271.819L724.954 220Z" fill="#ecafa3"/><path id="Head" fill-rule="evenodd" clip-rule="evenodd" d="M803.337 302.516C739.877 294.841 694.078 253.116 687.665 183.898C669.216 186.835 664.865 138.765 670.003 123.323C675.146 107.859 691.933 116.901 691.933 116.901C691.933 116.901 693.327 113.235 694.303 109.226C722.025 -4.48555 799.67 0.0243587 799.67 0.0243587C942.344 7.45716 908.914 153.12 900.763 191.763C892.611 230.41 864.684 309.927 803.337 302.516Z" fill="#ecafa3"/><g id="Group 63"><path id="Fill 3" fill-rule="evenodd" clip-rule="evenodd" d="M1509.38 983.669C1509.05 983.683 1508.73 983.696 1508.41 983.696C1508.73 983.942 1509.03 984.216 1509.31 984.489C1510.05 985.173 1510.74 985.939 1511.35 986.773L1531.23 1013.55C1536.78 1021.03 1535.22 1031.58 1527.74 1037.13C1521 1042.14 1511.75 1041.34 1505.94 1035.64C1509.46 1042.81 1507.49 1051.68 1500.86 1056.62C1494.74 1061.16 1486.52 1060.93 1480.71 1056.56C1483.4 1063.46 1481.28 1071.57 1475.05 1076.19C1468.31 1081.21 1459.05 1080.4 1453.24 1074.7C1456.77 1081.86 1454.8 1090.75 1448.17 1095.68C1440.7 1101.23 1430.15 1099.66 1424.61 1092.19L1404.73 1065.41C1403.4 1063.63 1402.5 1061.68 1401.97 1059.67L1363 993.338C1364.63 992.121 1366.3 990.698 1367.98 989.03C1382.22 974.943 1429.49 932.465 1443.3 915L1449.67 922.276C1449.66 922.194 1449.65 922.112 1449.65 922.03C1449.65 922.03 1484.98 943.501 1510.57 944.062C1536.17 944.623 1575.6 930.919 1577.9 945.676C1580.49 962.388 1533.51 982.835 1509.38 983.669" fill="#ecafa3"/><path id="Fill 5" fill-rule="evenodd" clip-rule="evenodd" d="M135.992 927.185C135.992 927.185 368.677 545.401 452.679 455.018C536.682 364.636 525.219 344.712 671.309 331.812C671.309 331.812 666.408 412.485 761.044 428.435C855.679 444.385 873.196 349.717 863.374 328.998C863.374 328.998 995.242 368.624 1049.34 412.486C1103.43 456.347 1451.45 922.185 1451.45 922.185L1370.99 1007.54C1370.99 1007.54 1002.55 580.622 996.704 611.325C991.042 641.047 1061.49 949.938 1051.05 973.794C1050.7 974.582 1050.27 975.059 1049.74 975.205C1040.22 977.837 929.167 1034.97 776.256 1034.97C623.345 1034.97 520.372 1007.54 520.372 1007.13C520.372 1007.13 591.687 631.801 571.232 615.715C550.776 599.629 309.525 969.118 224.732 998.565L135.992 927.185Z" fill="#56ACF6"/><path id="Fill 7" fill-rule="evenodd" clip-rule="evenodd" d="M450.932 518.679L450.016 509.404L498.438 504.622L499.354 513.897L450.932 518.679Z" fill="#204EB2"/><path id="Fill 9" fill-rule="evenodd" clip-rule="evenodd" d="M727.834 666.352L726.918 657.077L775.339 652.295L776.255 661.57L727.834 666.352Z" fill="#204EB2"/><path id="Fill 11" fill-rule="evenodd" clip-rule="evenodd" d="M643.67 582.952L635.434 534.997L644.62 533.419L652.857 581.375L643.67 582.952Z" fill="#204EB2"/><path id="Fill 13" fill-rule="evenodd" clip-rule="evenodd" d="M488.439 629.568L480.223 625.167L503.201 582.277L511.417 586.678L488.439 629.568Z" fill="#204EB2"/><path id="Fill 15" fill-rule="evenodd" clip-rule="evenodd" d="M911.447 861.937L910.531 852.662L958.953 847.88L959.869 857.155L911.447 861.937Z" fill="#204EB2"/><path id="Fill 17" fill-rule="evenodd" clip-rule="evenodd" d="M918.548 559.936L885.871 523.884L892.777 517.624L925.454 553.676L918.548 559.936Z" fill="#204EB2"/><path id="Fill 19" fill-rule="evenodd" clip-rule="evenodd" d="M1298.93 833.141L1298.02 823.866L1346.44 819.084L1347.35 828.359L1298.93 833.141Z" fill="#204EB2"/><path id="Fill 21" fill-rule="evenodd" clip-rule="evenodd" d="M667.963 841.182L667.047 831.907L715.468 827.125L716.384 836.4L667.963 841.182Z" fill="#204EB2"/><path id="Fill 23" fill-rule="evenodd" clip-rule="evenodd" d="M315.492 767.211L313.273 758.158L360.532 746.576L362.751 755.628L315.492 767.211Z" fill="#204EB2"/><path id="Fill 25" fill-rule="evenodd" clip-rule="evenodd" d="M254.256 905.425L229.652 863.446L237.694 858.734L262.297 900.712L254.256 905.425Z" fill="#204EB2"/><path id="Fill 27" fill-rule="evenodd" clip-rule="evenodd" d="M1075.9 600.093L1074.98 590.818L1123.4 586.036L1124.32 595.311L1075.9 600.093Z" fill="#204EB2"/><path id="Fill 29" fill-rule="evenodd" clip-rule="evenodd" d="M658.814 438.368L657.898 429.093L706.32 424.311L707.236 433.586L658.814 438.368Z" fill="#204EB2"/><path id="Fill 31" fill-rule="evenodd" clip-rule="evenodd" d="M1329.23 928.125L1319.91 927.923L1320.97 879.277L1330.29 879.479L1329.23 928.125Z" fill="#204EB2"/><path id="Fill 33" fill-rule="evenodd" clip-rule="evenodd" d="M1172.82 734.009L1148.03 692.144L1156.05 687.394L1180.84 729.259L1172.82 734.009Z" fill="#204EB2"/><path id="Fill 35" fill-rule="evenodd" clip-rule="evenodd" d="M1399.41 934.711L1374.61 892.846L1382.63 888.096L1407.43 929.961L1399.41 934.711Z" fill="#204EB2"/><path id="Fill 37" fill-rule="evenodd" clip-rule="evenodd" d="M813.093 785.156L788.297 743.291L796.316 738.541L821.113 780.406L813.093 785.156Z" fill="#204EB2"/><path id="Fill 39" fill-rule="evenodd" clip-rule="evenodd" d="M615.323 969.284L590.527 927.419L598.546 922.669L623.343 964.534L615.323 969.284Z" fill="#204EB2"/><path id="Fill 41" fill-rule="evenodd" clip-rule="evenodd" d="M576.112 478.276L551.316 436.411L559.335 431.661L584.132 473.526L576.112 478.276Z" fill="#204EB2"/><path id="Fill 43" fill-rule="evenodd" clip-rule="evenodd" d="M414.148 682.863L389.352 640.998L397.371 636.248L422.168 678.113L414.148 682.863Z" fill="#204EB2"/><path id="Fill 45" fill-rule="evenodd" clip-rule="evenodd" d="M600.892 737.555L594.52 730.753L630.03 697.488L636.402 704.29L600.892 737.555Z" fill="#204EB2"/><path id="Fill 47" fill-rule="evenodd" clip-rule="evenodd" d="M889.017 689.818L882.645 683.016L918.155 649.751L924.527 656.553L889.017 689.818Z" fill="#204EB2"/><path id="Fill 49" fill-rule="evenodd" clip-rule="evenodd" d="M771.38 950.666L765.008 943.864L800.518 910.599L806.89 917.401L771.38 950.666Z" fill="#204EB2"/><path id="Fill 51" fill-rule="evenodd" clip-rule="evenodd" d="M1221.47 804.046L1215.1 797.244L1250.61 763.979L1256.98 770.781L1221.47 804.046Z" fill="#204EB2"/><path id="Fill 53" fill-rule="evenodd" clip-rule="evenodd" d="M769.677 539.788L763.305 532.986L798.815 499.721L805.187 506.523L769.677 539.788Z" fill="#204EB2"/><path id="Fill 55" fill-rule="evenodd" clip-rule="evenodd" d="M1020.29 526.149L1013.92 519.347L1049.43 486.082L1055.8 492.884L1020.29 526.149Z" fill="#204EB2"/><path id="Fill 57" fill-rule="evenodd" clip-rule="evenodd" d="M1495.49 997.235L1495.44 997.835C1495.23 997.635 1495.01 997.435 1494.78 997.255C1495.01 997.255 1495.25 997.245 1495.49 997.235" fill="#ecafa3"/></g></g></g><g id="Expression" transform="translate(1098 360) scale(1 1)"><g id="Expression/Meditating"><g id="Group 124"><path id="Stroke 110" d="M129.686 72.7609C130.8 71.6261 132.595 71.565 133.783 72.5891L134.324 73.0923C134.681 73.4174 135.099 73.7831 135.575 74.1792C136.945 75.319 138.485 76.4611 140.152 77.5242C144.703 80.4259 149.296 82.1723 153.559 82.2424C157.875 82.3131 161.866 80.9074 165.438 78.4948C166.672 77.6615 167.762 76.7682 168.692 75.8803L168.993 75.5873C169.225 75.3575 169.41 75.1645 169.545 75.0167L169.735 74.8012C170.793 73.5262 172.684 73.3504 173.959 74.4084C175.234 75.4665 175.41 77.3578 174.352 78.6328L174.151 78.8673C173.848 79.2103 173.409 79.6721 172.836 80.2188C171.673 81.3296 170.324 82.435 168.796 83.4671C164.274 86.5208 159.126 88.3343 153.461 88.2416C147.91 88.1503 142.33 86.0286 136.927 82.5834C135.032 81.3756 133.291 80.0845 131.737 78.7911L131.287 78.4123C130.574 77.8048 130.046 77.3197 129.724 77.0033C128.542 75.8424 128.525 73.9429 129.686 72.7609Z" fill="black"/><path id="Stroke 112" d="M63.7258 148.885C64.5647 147.527 66.31 147.072 67.6967 147.819L68.3875 148.22L68.8989 148.503C69.2595 148.699 69.6589 148.909 70.0958 149.131C71.9884 150.09 74.1617 151.053 76.577 151.953C85.5564 155.301 95.2244 156.867 104.998 155.679C106.643 155.479 108.138 156.65 108.338 158.295C108.538 159.94 107.367 161.435 105.722 161.635C94.8951 162.951 84.2954 161.234 74.4811 157.575C71.847 156.593 69.4692 155.54 67.383 154.482L66.6162 154.087C65.7414 153.627 65.097 153.259 64.7005 153.014C63.2911 152.143 62.8548 150.294 63.7258 148.885Z" fill="black"/><path id="Stroke 114" d="M123.94 52.5159L127.749 53.7378L127.377 54.9311C127.077 55.9045 126.744 57.0181 126.384 58.2531C125.356 61.784 124.327 65.5763 123.368 69.4791C122.301 73.8177 121.387 78.0252 120.672 81.9978L120.465 83.1742C118.727 93.2778 118.482 100.993 120.034 105.142L120.126 105.377C129.004 127.34 116.948 138.478 91.6439 130.679L90.873 130.437L92.0921 126.627C114.886 133.921 124.027 125.703 116.417 106.876C114.322 101.694 114.645 92.8995 116.735 81.2891C117.466 77.2274 118.398 72.9395 119.483 68.5242C120.349 65.0029 121.269 61.5729 122.196 58.3383L122.543 57.1347C122.752 56.4178 122.952 55.7407 123.143 55.107L123.631 53.5026L123.94 52.5159Z" fill="black"/><path id="Stroke 116" d="M49.5914 31.5154C52.6393 31.1034 55.4711 30.9667 58.0632 31.1588C61.7116 31.4288 66.5439 32.4084 72.381 33.9478C74.1662 34.4185 76.0206 34.9359 77.9277 35.4923C81.1315 36.427 84.332 37.4264 87.3828 38.4259L89.3885 39.0906L91.381 39.7691C94.2489 40.7702 95.7622 43.9066 94.7611 46.7745C93.785 49.5706 90.779 51.0791 87.9712 50.2249L87.6829 50.1292L86.7502 49.8097C85.9248 49.5295 84.9877 49.2165 83.958 48.8792C81.0144 47.9148 77.9258 46.9503 74.8469 46.0521C73.0276 45.5212 71.2643 45.0293 69.5761 44.5841L68.4693 44.2962C63.7384 43.0833 59.866 42.3223 57.251 42.1288C55.4967 41.9988 53.4073 42.0996 51.0649 42.4162C48.2481 42.797 45.188 43.4704 42.0441 44.3533C40.4807 44.7924 38.9824 45.259 37.5893 45.7286L36.9017 45.9635C36.462 46.1158 36.0609 46.2587 35.7026 46.3898L34.9717 46.6634C32.1436 47.772 28.9524 46.3781 27.8437 43.5501C26.7351 40.7221 28.129 37.5308 30.9571 36.4222L31.5299 36.2038C31.9843 36.0343 32.5807 35.819 33.302 35.5692C35.0819 34.9528 37.0232 34.3378 39.0699 33.763C42.6715 32.7515 46.2152 31.9718 49.5914 31.5154Z" fill="black"/><path id="Stroke 118" d="M146.789 47.5879L148.114 47.553C153.556 47.4307 158.022 47.6001 161.338 48.1543C163.168 48.4602 165.074 48.9729 167.056 49.6688C169.999 50.7021 173.057 52.1186 176.174 53.8232C178.163 54.9112 180.079 56.0625 181.876 57.2226L182.639 57.7201C183.858 58.5235 184.765 59.1587 185.289 59.5435C187.679 61.2987 188.193 64.659 186.438 67.049C184.73 69.3743 181.503 69.9242 179.129 68.3355L178.388 67.8104L177.775 67.387C177.451 67.166 177.102 66.9315 176.73 66.6859C174.948 65.5115 173.018 64.3359 171.022 63.2444C168.38 61.7997 165.834 60.6203 163.499 59.8005C162.067 59.2975 160.746 58.9423 159.568 58.7454C156.847 58.2907 152.508 58.1587 147.112 58.3211C143.821 58.4201 140.289 58.6223 136.691 58.8971L135.131 59.0204C134.109 59.104 133.126 59.1899 132.192 59.2763L129.514 59.5396C126.566 59.8591 123.918 57.7284 123.598 54.7804C123.287 51.9062 125.304 49.3163 128.138 48.8924L128.931 48.8041L130.143 48.6839L130.484 48.6513C132.138 48.494 133.953 48.3369 135.873 48.1902C139.625 47.9037 143.317 47.6924 146.789 47.5879Z" fill="black"/><path id="Stroke 120" d="M42.7659 62.9389C43.8805 61.8041 45.6756 61.7429 46.8632 62.767L47.404 63.2702L47.8615 63.6792C48.1048 63.8928 48.3698 64.1195 48.6554 64.3572C50.0249 65.4969 51.5649 66.6391 53.2324 67.7022C57.7835 70.6039 62.3761 72.3503 66.6391 72.4204C70.955 72.4907 74.9454 71.085 78.5178 68.6727C79.7518 67.8394 80.8421 66.9461 81.7717 66.0581L82.2068 65.6318C82.4199 65.417 82.5851 65.2407 82.7004 65.1113L82.8147 64.9791C83.8729 63.7041 85.7642 63.5284 87.0392 64.5865C88.3141 65.6447 88.4899 67.536 87.4318 68.811L87.2307 69.0454C86.9281 69.3884 86.4884 69.8502 85.916 70.3969C84.7532 71.5076 83.404 72.6131 81.8755 73.6452C77.3541 76.6984 72.2059 78.5118 66.5409 78.4196C60.9899 78.3283 55.4105 76.2066 50.0068 72.7614C48.1123 71.5536 46.3715 70.2625 44.8173 68.9691L44.3673 68.5903C43.6541 67.9828 43.1262 67.4977 42.8041 67.1813C41.622 66.0203 41.6049 64.1209 42.7659 62.9389Z" fill="black"/><path id="Stroke 122" d="M25.1855 205.534L27.1425 202.046L27.8567 202.435L28.5118 202.783C29.5036 203.305 30.6327 203.881 31.8877 204.498L32.4332 204.765C36.6543 206.821 41.3224 208.879 46.301 210.798C57.7489 215.212 69.0606 218.225 79.5848 219.202C84.3541 219.645 88.8741 219.656 93.1069 219.202L93.9496 219.105L94.4385 223.075C89.6635 223.663 84.5751 223.683 79.2149 223.185C68.2771 222.169 56.6257 219.066 44.8619 214.53C39.7712 212.567 35.0001 210.465 30.6815 208.361L29.0484 207.554C28.354 207.206 27.7021 206.873 27.0948 206.556L25.9633 205.958L25.1855 205.534Z" fill="black"/></g></g></g><g id="Hairstyle" transform="translate(607 33) scale(1 1)"><g id="Hairstyle/Curly Bun"><g id="Group 11"><g id="Group 3"><mask id="mask0_406_1399581201d2b-cc92-4a51-9e08-a31e0e4a3cbc" style="mask-type:luminance" maskUnits="userSpaceOnUse" x="483" y="49" width="216" height="153" fill="#ffffff"><path id="Clip 2" fill-rule="evenodd" clip-rule="evenodd" d="M483.328 49H698.919V201.584H483.328V49Z" fill="#ffffff"/></mask><g mask="url(#mask0_406_1399581201d2b-cc92-4a51-9e08-a31e0e4a3cbc)"><path id="Fill 1" fill-rule="evenodd" clip-rule="evenodd" d="M660.964 199.644C660.964 199.644 656.9 190.215 679.049 189.185C701.199 188.155 709.956 142.826 678.019 122.736C646.082 102.647 680.595 81.5284 631.659 56.2884C582.724 31.0474 558.514 79.4674 558.514 79.4674C558.514 79.4674 507.004 59.3784 488.975 100.587C470.946 141.795 501.852 158.279 501.852 158.279C501.852 158.279 481.248 172.187 497.732 189.185C514.215 206.184 558.697 187.293 566.075 196.481C573.452 205.669 660.964 199.644 660.964 199.644" fill="#c38741"/></g></g><path id="Fill 4" fill-rule="evenodd" clip-rule="evenodd" d="M512.848 209.085C512.848 209.085 528.438 180.366 565.525 177.683C602.613 175 619.251 188.172 623.552 209.085C627.853 229.998 512.848 209.085 512.848 209.085" fill="white"/><g id="Group 8"><mask id="mask1_406_1399581201d2b-cc92-4a51-9e08-a31e0e4a3cbc" style="mask-type:luminance" maskUnits="userSpaceOnUse" x="434" y="197" width="251" height="222" fill="#ffffff"><path id="Clip 7" fill-rule="evenodd" clip-rule="evenodd" d="M434 197.303H684.515V418.595H434V197.303Z" fill="#ffffff"/></mask><g mask="url(#mask1_406_1399581201d2b-cc92-4a51-9e08-a31e0e4a3cbc)"><path id="Fill 6" fill-rule="evenodd" clip-rule="evenodd" d="M456.323 396.258C456.323 396.258 454.778 389.562 464.565 380.29C474.352 371.018 470.746 328.264 493.926 320.537C517.106 312.811 555.739 273.148 573.767 273.148C591.796 273.148 622.703 289.631 635.065 288.601C647.428 287.571 663.911 312.296 664.941 325.173C665.971 338.051 682.856 361.09 672.353 418.595C672.353 418.595 684.515 399.349 684.515 376.684C684.515 354.019 681.425 348.868 682.97 316.417C684.515 283.965 680.91 250.483 657.215 235.03C633.52 219.576 618.582 191.246 582.009 198.457C545.437 205.669 517.106 196.912 495.471 220.092C479.558 237.142 455.808 248.938 450.657 283.965C445.858 316.597 419.362 331.686 445.054 366.805C445.054 366.805 456.323 384.926 456.323 396.258Z" fill="#c38741"/></g></g><path id="Fill 9" fill-rule="evenodd" clip-rule="evenodd" d="M515.502 206.745C515.502 206.745 522.323 178.486 567.323 175.486C612.323 172.486 621.086 191.87 623.205 207.678C623.205 207.678 604.716 195.311 581.02 200.399C557.323 205.486 530.681 202.004 515.502 206.745" fill="#56ACF6"/></g></g></g><g id="Accessories" transform="translate(1051 393) scale(234 78)"><g id="Accessories/None" stroke="none" stroke-width="1" fill="none" fill-rule="evenodd" fill-opacity="0"/></g><g id="Facial Hair" transform="translate(1061 394) scale(212 211)"><g id="Facial Hair/None" stroke="none" stroke-width="1" fill="none" fill-rule="evenodd" fill-opacity="0"/></g></g></g></g></svg>