<svg xmlns="http://www.w3.org/2000/svg" fill="none" viewBox="0 0 622 560" width="622" height="560"><defs><clipPath id="assetClipPath_pMIToFcd"><path d="m0 0 h 3000 v 2700 h -3000 v -2700 z" id="path_1iTQ4GWs" fill="#ffffff" /></clipPath><clipPath id="clipPath_VxRsjfbs"><path d="m0 0 h 456.961 v 466.849 h -456.961 v -466.849 z" id="path_kr965pd1" /></clipPath><clipPath id="clipPath_uJapaBv-"><path d="m0 0 h 971.645 v 1485.699 h -971.645 v -1485.699 z" id="path_2-g4D0Dk" /></clipPath><clipPath id="clipPath_RZj3hPbm"><path d="m0 0 h 985.506 v 1445.266 h -985.506 v -1445.266 z" id="path_Cw4WqRIF" /></clipPath></defs><g transform="" data-asset-index="0"><g clip-path="url(#assetClipPath_pMIToFcd)" transform="scale(0.20733333333333334 0.20733333333333334)" data-asset-index="0"><defs /><g transform="translate(1167.0 87.0) rotate(6.720333613396018 348.0 355.5) scale(1.5231059105700486 1.5229763799429794)" id="XQ9ehXXvZ3w3Gz5SAZwfL"><g clip-path="url(#clipPath_VxRsjfbs)" transform="matrix(1 0 0 1 0 0)" id="SNrk6yQ3ZO32ynp0Z4872"><path d="M168.55 466.849a1.497 1.497 0 0 1-1.501-1.505l.62-168.025L5.371 340.813a1.501 1.501 0 0 1-1.32-2.625l131.754-104.277L.609 134.138a1.5 1.5 0 0 1 1.229-2.668l163.674 37.994-6.287-167.908a1.5 1.5 0 0 1 2.853-.702l72.344 151.654L361.777 42.902a1.5 1.5 0 0 1 2.328 1.793l-73.462 151.116 165.098 31.232a1.5 1.5 0 0 1 .05 2.937l-163.95 36.784 78.519 148.552a1.5 1.5 0 0 1-2.266 1.871L237.114 311.94l-67.187 154.009a1.5 1.5 0 0 1-1.374.9zm.627-172.987a1.504 1.504 0 0 1 1.5 1.506l-.601 162.73 65.07-149.156a1.503 1.503 0 0 1 2.315-.57l126.854 101.931-76.045-143.871a1.5 1.5 0 0 1 .998-2.165l158.784-35.625-159.896-30.248a1.5 1.5 0 0 1-1.071-2.129L358.233 49.91 234.891 156.062a1.5 1.5 0 0 1-2.333-.491L162.494 8.695l6.091 162.618a1.497 1.497 0 0 1-1.838 1.517L8.229 136.034l130.937 96.629a1.5 1.5 0 0 1 .04 2.383L11.604 336.037l157.185-42.124a1.51 1.51 0 0 1 .388-.051z" fill="#53BCAF" id="ndm2GX-CC_OmjOM6EqRwK" /></g></g><g transform="translate(126.0 355.5) rotate(0.0 728.25 1113.75) scale(1.4990042659613336 1.4992942715852942)" id="q4eY-tVOACuH0oNLy3R-"><g clip-path="url(#clipPath_uJapaBv-)" transform="matrix(1 0 0 1 0 0)" id="qXgbhFlPhwAQUzxEtf9wb"><path d="M336.909 535.057c28.521-42.924 313.065-30.235 329.716 26.099v34.686L523.014 668.14 327.963 587z" fill="#50B9AD" id="DeTND68y9NWdx6Yh3rrIF" /><path d="m666.625 595.842-74.153 804.333s-138.138 61.481-124.129.899c-5.861-27.377-26.237-133.91-26.237-133.91-26.657-166.122 15.829-226.587 15.081-291.294-.652-56.365-6.152-233.494 10.577-342.195 12.139-78.877 198.861-37.833 198.861-37.833z" fill="#FFA78E" id="SntLkjh1PP9gEMYc8l7nA" /><path d="m666.625 595.842-65.811 713.856-189.305-1.642c2.722-65.627 5.929-530.526 17.523-638.847 16.9-157.9 192.255-99.544 237.593-73.367z" fill="#50B9AD" id="W76qI3qmxpVPCo97HM4RL" /><path d="m590.061 1421.342 6.309-71.95c8.952-1.254 12.59-17.147.593-19.269H451.775c-10.368 0-8.261 18.041 3.33 18.597 3.809 14.17 8.273 48.514 17.295 68.272 15.905 34.832 47.597 51.248 117.661 4.35z" fill="#ABFFFF" id="h8JwauZ2vT2zHzyq6IEbm" /><path d="M518.276 1451.829c-4.927 0-9.561-.62-13.922-1.856-14.334-4.064-25.232-14.648-33.318-32.356-6.312-13.825-10.34-34.303-13.576-50.757-1.312-6.664-2.457-12.487-3.54-16.743-6.666-.923-10.476-7.087-10.337-12.872.124-5.156 3.416-8.621 8.192-8.621h145.188c.088 0 .175.008.262.022 6.659 1.179 8.95 6.121 8.874 10.354-.087 4.833-3.197 10.245-8.333 11.635l-6.211 70.838a1.494 1.494 0 0 1-.66 1.115c-29.25 19.58-53.185 29.241-72.619 29.241zm-66.501-120.206c-4.691 0-5.161 4.357-5.192 5.692-.095 3.938 2.509 9.615 8.595 9.907a1.5 1.5 0 0 1 1.376 1.108c1.188 4.421 2.422 10.69 3.85 17.949 3.206 16.301 7.196 36.586 13.361 50.09 7.698 16.859 17.972 26.906 31.408 30.717 20.272 5.744 48.347-3.2 83.457-26.593l6.246-71.232a1.5 1.5 0 0 1 1.286-1.354c4.196-.588 6.869-5.109 6.938-8.962.033-1.849-.516-6.242-6.272-7.322zm138.286 89.718h.01z" fill="#003029" id="QOQMZkrGxYAalrovWWCsi" /><path d="m597.578 1387.18 3.622 16.499s51.556 19.754 60.476 23.073c25.659 9.548 36.42 17.043 36.417 38.041h-67.689l-175.379-.177c-.544-20.873 1.133-40.668 8.139-57.881 0 0-6.129-8.078-10.957-14.079-5.855-7.277 6.78-16.277 12.805-5.745 1.776 3.104 3.96 6.955 5.768 10.152 2.281 4.033 6.161 6.94 10.714 8.034l28.638 6.885a48.846 48.846 0 0 0 27.521-1.38l32.446-11.346-2.335-9.018c-1.479-5.715 2.666-11.351 8.639-11.746l8.684-.575c5.921-.392 11.236 3.551 12.491 9.263z" fill="#FE5236" id="qgZI059F3ta9xwpCtVeHH" /><path d="M652.136 1439.348c-1.352 0-2.719-.155-4.077-.479l-58.667-13.931c-8.509-2.02-15.409-8.394-18.009-16.633l-2.713-8.599a1.5 1.5 0 0 1 2.861-.903l2.713 8.599c2.283 7.238 8.354 12.839 15.841 14.617l58.667 13.931c6.719 1.59 13.701-1.73 16.593-7.911a1.499 1.499 0 1 1 2.717 1.271c-2.904 6.212-9.219 10.038-15.926 10.038zm-159.517 13.493c-10.901 0-19.771-8.748-19.771-19.5s8.869-19.5 19.771-19.5 19.771 8.748 19.771 19.5-8.869 19.5-19.771 19.5zm0-36c-9.247 0-16.771 7.402-16.771 16.5s7.523 16.5 16.771 16.5 16.771-7.402 16.771-16.5-7.523-16.5-16.771-16.5z" fill="#003029" id="y_M3NQEzilxrbxvynFenC" /><path d="M697.505 1484.199h-67.101l-173.785-.061c-5.422-.423-9.47-5.097-9.04-10.439.43-5.342 5.174-9.329 10.596-8.906h239.329c5.439 0 9.849 4.344 9.849 9.703.001 5.359-4.408 9.703-9.848 9.703z" fill="#ABFFFF" id="lwwgoyTW2qMUTOAH8fN" /><path d="M697.506 1485.699h-67.102l-173.786-.061c-.038 0-.077-.002-.116-.005a11.32 11.32 0 0 1-7.786-3.952 11.043 11.043 0 0 1-2.632-8.103c.494-6.136 5.938-10.731 12.148-10.285h239.273c6.258 0 11.349 5.025 11.349 11.202 0 6.178-5.091 11.204-11.348 11.204zm-240.827-3.061 173.726.061h67.101c4.604 0 8.349-3.68 8.349-8.203 0-4.522-3.745-8.202-8.349-8.202h-239.33c-.039 0-.078-.002-.117-.005-4.59-.363-8.621 3.021-8.984 7.53a8.061 8.061 0 0 0 1.924 5.915 8.328 8.328 0 0 0 5.68 2.904zm-1.421-173.083-.047-.001a1.499 1.499 0 0 1-1.453-1.545l19.092-621.407c.024-.828.718-1.505 1.545-1.453a1.499 1.499 0 0 1 1.453 1.545l-19.092 621.407a1.5 1.5 0 0 1-1.498 1.454z" fill="#003029" id="BdNIrOTDd1Phnvy6bfIPE" /><path d="M284.727 827.473c-10.774 57.518-23.333 113.899-26.498 134.271-24.752 30.469-103.252 117.711-197.904 349.222 2.608 41.544 59.938 60.687 109.007 63.91 0 0 190.242-245.53 203.799-264.691 25.944-36.668 52.863-76.613 72.469-170.375 2.326-11.125 16.599-130.573 28.441-191.765 12.315-63.634-42.995-152.738-100.676-138.482-37.247 9.206-77.539 158.653-88.638 217.91z" fill="#FFA78E" id="JWAGhIwxYdvcg4dvRulu" /><path d="m149.865 1396.422 45.836-55.818c9.584 5.477 20.966-6.175 12.262-14.701l-119.825-81.985c-8.557-5.854-17.006 10.224-7.753 17.229-4.858 13.845-20.567 44.711-24.278 66.112-6.543 37.727 9.451 68.305 93.758 69.163z" fill="#ABFFFF" id="ImbmuFNnFZZU1mCsDlgXa" /><path d="M149.865 1397.922h-.016c-44.05-.448-72.284-8.855-86.313-25.701-9.328-11.2-12.241-25.991-8.906-45.219 2.597-14.975 10.836-34.15 17.457-49.559 2.681-6.239 5.023-11.691 6.532-15.814-4.98-4.525-4.644-11.764-1.262-16.461 3.014-4.186 7.688-5.186 11.628-2.489l119.825 81.985c.072.05.141.105.203.167 4.166 4.08 4.721 9.545 1.413 13.922-2.947 3.901-8.684 6.27-14.331 3.733l-45.071 54.888a1.5 1.5 0 0 1-1.159.548zm-65.49-153.766c-2.354 0-4.016 1.978-4.583 2.766-2.302 3.196-3.358 9.353 1.499 13.029a1.5 1.5 0 0 1 .51 1.693c-1.515 4.317-4.037 10.188-6.958 16.984-6.559 15.264-14.721 34.26-17.258 48.886-3.175 18.309-.475 32.304 8.256 42.787 13.358 16.039 40.616 24.093 83.321 24.613l45.38-55.263a1.504 1.504 0 0 1 1.903-.351c4.496 2.57 9.232.761 11.588-2.356 2.39-3.162 2.002-6.848-1.028-9.881l-119.713-81.908c-1.056-.722-2.035-.999-2.917-.999z" fill="#003029" id="yjxBP_WcCAjuvNujKPilO" /><path d="M179.736 1466.243 12.908 1351.848c12.451-22.749 23.065-30.959 41.358-44.176 0 0-1.281-11.255-1.719-15.953-.822-8.816 15.186-10.041 13.81 2.504-.359 3.271-.788 11.814-.788 11.814a19.97 19.97 0 0 0 5.584 15.226l21.518 22.207a40.858 40.858 0 0 0 18.707 11.017l34.667 9.346 4.619-11.64c1.73-4.359 6.881-6.226 11.002-3.986l12 6.521a10.883 10.883 0 0 1 4.812 13.835l-5.502 12.884s23.255 36.877 34.441 49.61c13.883 4.64 34.407 12.894 31.734 35.038l-38.011.148h-21.404z" fill="#FE5236" id="gCfTBm7Vn5KK_J-H8yn3M" /><path d="m5.951 1370.08 155.489 109.489a25.386 25.386 0 0 0 14.661 4.63l60.049-.104a9 9 0 0 0 9-9 9 9 0 0 0-9-9l-48.499.127a25.387 25.387 0 0 1-14.44-4.46L16.179 1353.918c-4.609-2.917-10.721-1.394-13.422 3.345a9.561 9.561 0 0 0 3.194 12.817z" fill="#ABFFFF" id="HdG4TAaSqDB1mWUQoVjiT" /><path d="M176.057 1485.699a26.75 26.75 0 0 1-15.481-4.903L5.117 1371.327a11.046 11.046 0 0 1-3.663-14.808 10.967 10.967 0 0 1 6.936-5.256 10.97 10.97 0 0 1 8.591 1.387l157.081 107.876a23.78 23.78 0 0 0 13.521 4.196h.064l48.499-.127c5.794 0 10.504 4.71 10.504 10.5s-4.71 10.5-10.5 10.5l-60.046.104h-.047zM11.095 1353.93c-.657 0-1.321.08-1.979.244a7.994 7.994 0 0 0-5.056 3.831 8.051 8.051 0 0 0 2.693 10.807l.062.041 155.488 109.489a23.767 23.767 0 0 0 13.756 4.356h.04l60.049-.104c4.139 0 7.503-3.364 7.503-7.5s-3.364-7.5-7.5-7.5l-48.495.127h-.072a26.772 26.772 0 0 1-15.221-4.724L15.329 1355.154a7.906 7.906 0 0 0-4.234-1.224zm51.795 13.706c-1.947 0-3.904-.295-5.817-.891a19.372 19.372 0 0 1-11.469-9.551c-2.423-4.61-2.904-9.889-1.356-14.862s4.939-9.046 9.551-11.469a19.352 19.352 0 0 1 14.862-1.356 19.367 19.367 0 0 1 11.469 9.55c2.423 4.61 2.904 9.89 1.356 14.863s-4.939 9.046-9.551 11.469a19.397 19.397 0 0 1-9.045 2.247zm-.043-36.017c-2.637 0-5.252.64-7.654 1.901-3.901 2.05-6.771 5.496-8.081 9.704s-.901 8.674 1.148 12.576a16.396 16.396 0 0 0 9.704 8.081c4.207 1.311 8.675.9 12.576-1.148a16.396 16.396 0 0 0 8.081-9.704 16.395 16.395 0 0 0-1.148-12.577 16.391 16.391 0 0 0-9.704-8.08 16.527 16.527 0 0 0-4.922-.753zM203.851 1442.9c-4.519 0-7.039-1.879-11.105-5.198l-45.221-41.682a1.702 1.702 0 0 1-.095-.095c-5.874-6.478-7.961-15.637-5.445-23.903l2.625-8.626a1.499 1.499 0 1 1 2.869.873l-2.625 8.626c-2.203 7.241-.381 15.269 4.754 20.966l45.104 41.576c3.672 2.995 5.626 4.463 9.14 4.463 3.277 0 5.494-1.285 7.905-4.584l1.809-2.474a1.5 1.5 0 1 1 2.422 1.77l-1.809 2.475c-2.98 4.075-6.068 5.813-10.328 5.813z" fill="#003029" id="siE3H53InorybSGwxSlo5" /><path d="m326.909 535.057-73.215 425.099c-75.094 98.274-102.687 137.973-153.347 258.973L260.83 1324.25l148.922-239.06a400.46 400.46 0 0 0 55.592-147.997l67.048-314.969s-56.615-89.385-205.483-87.167z" fill="#50B9AD" id="WTFHLBRBdCCWLclcHWDmK" /><path d="M133.69 1242.47a1.5 1.5 0 0 1-1.366-2.117C183.935 1126.025 210.222 1079 272.961 988.77c9.22-13.259 15.535-27.906 18.771-43.533l78.99-381.557a1.5 1.5 0 1 1 2.937.608l-78.99 381.556c-3.318 16.026-9.793 31.045-19.245 44.639-62.609 90.045-88.846 136.98-140.365 251.104a1.501 1.501 0 0 1-1.369.883zm267.817-142.547a1.501 1.501 0 0 1-1.236-2.35c.284-.413 28.579-41.852 43.992-86.144 16.562-47.589 69.68-307.308 70.214-309.925.081-.396.317-.742.657-.961l31.53-20.309a1.499 1.499 0 1 1 1.625 2.521l-31 19.967c-2.918 14.256-53.962 263.053-70.192 309.692-15.55 44.683-44.067 86.439-44.354 86.856a1.49 1.49 0 0 1-1.236.653z" fill="#003029" id="rI-cml3_5y1gnfxVYhqcB" /><path d="M862.631 340.174c-21.651-10.136-233.87-81.178-233.87-81.178-30.526-2.544-102.98 107.307-15.113 160.685 44.02 22.642 143.925 32.521 207.291 50.302 86.173 24.181 132.212-87.433 41.692-129.809z" fill="#FFA78E" id="rgKA8K7wbYJWJdEwBnDH" /><path d="M964.493 240.757c-4.266-20.764-106.847-34.59-119.405-18.63 0 0 129.473 67.641 119.405 18.63z" fill="#ABFFFF" id="idwNu_UPNtzI7z_URR4Mt" /><path d="M948.029 260.008c-33.224 0-100.32-34.819-103.636-36.552a1.498 1.498 0 0 1-.484-2.257c9.021-11.464 55.371-8.032 83.962-1.278 13.295 3.141 35.924 9.985 38.092 20.534 1.521 7.401.087 12.816-4.26 16.093-3.214 2.423-7.942 3.46-13.674 3.46zm-100.404-38.265c6.052 3.08 26.167 13.107 47.889 21.639 33.839 13.291 56.101 17.015 64.384 10.771 3.389-2.555 4.411-6.838 3.126-13.094-1.318-6.417-14.718-13.227-35.843-18.218-29.895-7.062-69.45-8.795-79.556-1.098z" fill="#003029" id="PazsvviEQTo8Arghfj4CI" /><path d="m837.171 180.785-33.183 193.948-5.719 71.001c47.651 36.336 129.376 38.389 138.664-34.481 1.974-15.488 19.707-199.47 21.282-224.232 1.824-28.675-114.347-43.712-121.044-6.236z" fill="#FFA78E" id="jyTeGzr9RUD447ui3XNeg" /><path d="M838.306 322.734c66.519 31.299 25.429 175.412-22.115 161.849L623.554 433.45l3.522-189.452c26.532 3.597 134.002 49.812 211.23 78.736z" fill="#E4634F" id="XLyAEG_HA_jFJSFP21Ja" /><path d="M944.112 105.694c3.855 16.3 16.841 60.607 14.103 81.327 0 0-87.169 5.339-110.439-7.196-18.072-9.735-15.32-56.072-18.963-76.964-3.643-20.891 108.511-25.868 115.299 2.833z" fill="#FFA78E" id="b7RztxiqGi6fFZtk0Epii" /><path d="M834.755 140.322s-18.085-93.923-17.334-107.12c1.457-25.6 26.564-28.509 37.549-3.655 6.124 13.858 22.916 81.31 22.916 81.31 6.182 33.016-33.258 54.075-43.131 29.465z" fill="#FFA78E" id="Ix0Dk1hO37cVh0HAcAnj_" /><path d="M900.036 116.857S883.934 38.89 877.5 21.154c-13.805-38.057-39.405-17.632-37.232 5.708 2.053 22.052 16.94 87.371 16.94 87.371 6.45 23.633 47.988 34.547 42.828 2.624z" fill="#FFA78E" id="LfX0P4lGT35yXLDxV9WxB" /><path d="M873.466 115.401c-.69 0-1.312-.479-1.465-1.182-.143-.654-14.309-65.604-21.689-86.113-1.792-4.979-4.997-9.469-9.026-12.642a1.5 1.5 0 1 1 1.857-2.356c4.463 3.517 8.012 8.482 9.991 13.983 7.447 20.692 21.656 85.835 21.799 86.491a1.501 1.501 0 0 1-1.467 1.819z" fill="#003029" id="ASjwWv1W0GgPKPm4sNzxp" /><path d="M883.111 115.779s-14.892-68.136-16.982-83.424c-5.172-37.84 30.435-42.314 39.099-2.315 3.872 17.875 18.25 85.751 18.25 85.751 3.681 16.398-36.872 12.306-40.367-.012z" fill="#FFA78E" id="mhCuvGnzaUoK-aO8eXal1" /><path d="M898.901 104.084a1.5 1.5 0 0 1-1.461-1.166c-3.482-15.229-15.142-65.882-19.004-78.258-2.101-6.731-5.171-12.239-8.879-15.93a1.5 1.5 0 0 1 2.117-2.126c4.109 4.09 7.349 9.865 9.625 17.162 3.895 12.479 15.577 63.227 19.064 78.482a1.5 1.5 0 0 1-1.462 1.836z" fill="#003029" id="Wjjd938XQDMfitw5192Jd" /><path d="M907.822 116.08s-12.738-51.377-14.558-75.873 24.197-33.301 35.619 3.904c3.094 10.077 10.831 42.502 18.116 73.831z" fill="#FFA78E" id="t2bWWdK0JsVAbF_hFjjNt" /><path d="M922.588 97.851a1.502 1.502 0 0 1-1.467-1.195c-3.969-19.056-13.169-59.542-19.586-76.376a1.5 1.5 0 0 1 2.803-1.069c8.104 21.258 19.605 76.28 19.721 76.833a1.5 1.5 0 0 1-1.471 1.807z" fill="#003029" id="A7MW3hIFwpg2sGs6Rplrv" /><path d="M862.126 209.776s-22.584-5.581-39.853-38.923c-8.846-17.078-16.032-37.285-19.865-66.745-4.338-33.338 25.575-40.154 35.455-11.295 2.381 6.954 6.494 17.572 9.978 29.809 26.826 5.681 43.234 47.122 43.234 47.122z" fill="#FFA78E" id="Vl8lro8qmL2lx_QlXTX1w" /><path d="M891.074 171.244a1.5 1.5 0 0 1-1.408-.983c-.145-.395-14.79-39.503-42.182-46.181a1.501 1.501 0 0 1-1.087-1.047c-2.57-9.03-5.469-17.125-7.798-23.63a472.213 472.213 0 0 1-2.156-6.103c-2.313-6.756-7.63-14.786-13.836-16.448a1.501 1.501 0 0 1-1.062-1.837 1.504 1.504 0 0 1 1.837-1.061c7.308 1.957 13.25 10.638 15.898 18.374.613 1.79 1.341 3.822 2.143 6.063 2.272 6.348 5.084 14.201 7.621 22.992 11.721 3.154 22.89 12.324 32.353 26.577 7.26 10.934 10.933 20.851 11.085 21.268a1.5 1.5 0 0 1-1.408 2.016zm-39.477 35.036a1.5 1.5 0 0 1-.811-.238c-9.568-6.153-16.795-14.633-20.251-19.141a1.5 1.5 0 1 1 2.381-1.825c3.337 4.352 10.307 12.536 19.493 18.442a1.5 1.5 0 0 1-.812 2.762z" fill="#003029" id="P1-9HyL94tVj041VogaHv" /><path d="M830.075 222.261c31.72 45.945 113.337 40.5 126.167 30.441 0 0-16.349 154.313-19.09 169.81-11.912 67.347-80.448 72.118-120.961 62.07-36.501-9.052-16.589-84.216-12.203-109.851l26.087-152.47z" fill="#E4634F" id="mrC7JyM8l3xF-2atE4tFk" /><path d="M804.406 375.798a1.5 1.5 0 0 1-1.481-1.749l19.27-114.624a1.493 1.493 0 0 1 1.729-1.23 1.5 1.5 0 0 1 1.23 1.728l-19.27 114.624a1.501 1.501 0 0 1-1.478 1.251z" fill="#003029" id="c7hj9n60sk0qNNgsveoZ" /><path d="M832.771 206.504c30.703 36.222 101.622 54.299 131.722 34.253l5.653 49.785c-16.045 19.741-116.183 11.478-146.471-30.867z" fill="#ABFFFF" id="lWcrWwYFn9nuAnLdtntlX" /><path d="M930.686 302.227c-1.63 0-3.291-.026-4.985-.078-36.192-1.115-83.939-14.609-103.247-41.602a1.502 1.502 0 0 1-.259-1.125l9.098-53.171a1.501 1.501 0 0 1 2.623-.717c29.868 35.236 100.196 53.654 129.746 33.974a1.499 1.499 0 0 1 2.321 1.079l5.652 49.785a1.5 1.5 0 0 1-.326 1.116c-5.542 6.818-20.545 10.739-40.623 10.739zm-105.427-42.921c18.949 25.829 65.284 38.759 100.535 39.845 20.807.642 37.07-2.832 42.787-9.09l-5.312-46.78c-14.757 8.524-38.705 9.639-64.786 2.903-26.025-6.721-49.961-20.192-64.763-36.335z" fill="#003029" id="W8-qICDBb0Pc_CrPkx0TJ" /><path d="m318.844 581.889 347.198 20.271-2.944 31.939-348.759-26.056z" fill="#E4634F" id="cqcSTEWMa67iflY_wEhiD" /><path d="M650.029 360.427c1.491 7.936 4.89 92.834 6.806 120.152s30.73 90.736 9.207 121.581l-347.199-20.271s-1.3-80.05-2.982-101.31c-8.029-101.437-50.817-205.037 13.629-236.47 25.393-12.385 76.001-10.635 104.902-11.68 35.275-1.276 124.307-4.685 192.684 11.569 30.706 7.299 21.771 110.138 22.953 116.429z" fill="#E4634F" id="QTaghRa7Wwu-p9rndEdjR" /><path d="m666.044 603.66-.089-.002-347.199-20.271a1.5 1.5 0 0 1-1.409-1.585 1.484 1.484 0 0 1 1.585-1.41l347.199 20.271a1.5 1.5 0 0 1-.087 2.997z" fill="#003029" id="caSRAgZKL87nLv6UPZ3ze" /><path d="m327.17 525.067-97.46-75.034 128.053-46.639c11.512-49.468 17.112-155.301-36.194-155.515-45.444 24.462-131.374 59.953-191.93 110.391-26.733 22.266-76.032 78.207-22.447 150.007 37.237 49.894 143.652 118.974 143.652 118.974z" fill="#FFA78E" id="AfmNFP2RCPEKdBQTb7GJ0" /><path d="M312.864 642.484c-34.2 5.497-62.019-15.233-62.019-15.233-24.462-15.881 53.092-109.927 81.396-99.977-.001.001 19.422 108.974-19.377 115.21z" fill="#FFA78E" id="Q69Fb_7o3qd-3JiYLfQuK" /><path d="M332.24 527.275c62.465-14.921 99.885.43 118.073 20.776 15.742 17.61 1.962 40.077-22.929 27.106-6.572-3.425-35.096-21.452-70.311-6.872-18.184 7.528-49.97-35.006-24.833-41.01z" fill="#FFA78E" id="PqtOXyOQc7aB-I_atTRmd" /><path d="M346.131 548.153s64.806 30.442 87.667 46.99c31.906 23.096 19.982 51.737-11.152 39.27-41.508-16.621-92.759-48.021-92.759-48.021-18.975-12.999-6.479-42.832 16.244-38.239z" fill="#FFA78E" id="ej6KX-8stz3uKImM1Kemb" /><path d="M397.959 575.534c-.237 0-.479-.057-.702-.175-24.835-13.181-51.497-25.722-51.764-25.847a1.5 1.5 0 0 1 1.275-2.716c.267.125 26.993 12.697 51.895 25.913a1.501 1.501 0 0 1-.704 2.825z" fill="#003029" id="QLXKmtUzA9UO55eUQt8d" /><path d="M336.985 570.838s69.478 40.838 83.669 51.129c31.279 22.682 16.309 52.528-13.29 38.411-44.065-21.015-89.68-51.111-89.68-51.111-21.393-11.095 6.312-45.773 19.301-38.429z" fill="#FFA78E" id="eMt585Bj7QHOG4eozH6CX" /><path d="M436.451 642.276a1.497 1.497 0 0 1-1.4-.964c-2.445-6.387-7.729-12.656-15.277-18.131-13.971-10.13-82.854-50.642-83.548-51.05a1.499 1.499 0 1 1 1.52-2.586c2.84 1.669 69.702 40.992 83.79 51.208 8.021 5.815 13.663 12.554 16.316 19.486a1.5 1.5 0 0 1-1.401 2.037z" fill="#003029" id="fHlHsZiu8bXBKexiBoIsP" /><path d="M328.927 602.16c21.397 16.665 43.44 42.636 53.927 63.527 10.486 20.892-12.389 35.136-31.981 16.464s-35.832-37.159-38.009-39.667c-12.232-14.096-6.578-57.958 16.063-40.324z" fill="#FFA78E" id="SuJegRILGy_R4RStJVAxk" /><path d="M372.278 649.729c-.474 0-.939-.224-1.23-.642-11.719-16.779-27.809-33.88-43.042-45.744a1.5 1.5 0 0 1 1.843-2.367c15.456 12.039 31.776 29.381 43.657 46.394a1.498 1.498 0 0 1-1.228 2.359z" fill="#003029" id="uo_OMYEwpQIa6Ok2DvE_r" /><path d="M329.49 244.109c53.103-23.996 61.265 143.985 28.274 159.285-24.792 11.497-119.584 53.16-119.584 53.16l88.99 68.513-93.803 97.306s-88.172-68.519-130.936-106.049c-56.994-50.018-42.107-130.845 31.26-171.255 72.206-39.771 151.207-80.81 195.799-100.96z" fill="#E4634F" id="Xi7eGBrZe3O0i9CEKHmqq" /><path d="M327.17 525.067 225.051 630.999l-43.292-35.989 101.569-103.697z" fill="#ABFFFF" id="gyy38k30Vaeys-7OnDzqT" /><path d="M225.052 632.5c-.34 0-.68-.114-.959-.347L180.8 596.164a1.499 1.499 0 0 1-.112-2.203l101.569-103.697a1.502 1.502 0 0 1 1.986-.139l43.842 33.753a1.498 1.498 0 0 1 .165 2.23L226.132 632.041a1.503 1.503 0 0 1-1.08.459zm-41.083-37.603 40.971 34.059 99.987-103.723-41.459-31.918zm472.384-121.738c-.79 0-1.451-.617-1.497-1.415l-6.325-111.232a1.5 1.5 0 0 1 1.413-1.583 1.515 1.515 0 0 1 1.583 1.413l6.325 111.232a1.5 1.5 0 0 1-1.499 1.585zm-355.965-42.558a1.5 1.5 0 0 1-.614-2.869l57.376-25.706a1.5 1.5 0 1 1 1.226 2.737L301 430.469a1.49 1.49 0 0 1-.612.132z" fill="#003029" id="T_OVsE59p2PsKgF-I0TjM" /><path d="M567.589 78.926s13.162-18.796 10.701-34.741S548.903.914 530.127.871s-94.82 30.861-107.326 47.701c-7.685 10.347-4.237 22.56-4.237 22.56l11.327 48.257 6.548-2.159z" fill="#FFBBA0" id="ZG5i4igwnJvfW8dDKmYE2" /><path d="M570.767 108.977c1.037-45.018-20.047-77.648-68.534-75.132-50.169 2.603-70.815 38.039-68.8 82.257-11.995-14.553-29.875-1.541-29.039 14.434.618 11.82 13.873 23.383 32.838 15.439 16.369 44.677 56.351 51.296 92.899 46.417 42.422-5.663 68.698-51.709 40.636-83.415z" fill="#FFA78E" id="CukiG7IiGvOCnVXsXDTRd" /><path d="M416.383 135.63a1.5 1.5 0 0 1-1.062-2.56l10.953-10.966a1.5 1.5 0 0 1 2.123 2.121l-10.953 10.966a1.501 1.501 0 0 1-1.061.439z" fill="#003029" id="VI8y8W53pysUdgk7xGiGY" /><path d="M426.753 135.091c-.378 0-.755-.142-1.047-.426l-10.951-10.673a1.5 1.5 0 1 1 2.094-2.148l10.951 10.673a1.5 1.5 0 0 1-1.047 2.574z" fill="#003029" id="CPwjcg94pvhu_2tpqBVVI" /><path d="M512.703 141.216c-1.58-11.398 22.843-14.489 23.423-2.975 2.59 4.537-.247 12.353-8.793 14.047-8.238 1.633-17.17-4.659-14.63-11.072z" fill="#FF806A" id="juN_0G-O8OPx0F2VgWN-w" /><g fill="#003029" id="Ar5jhe7gGT_2hUC_ZHD"><path d="M515.733 142.786c-7.608 0-14.288-1.203-18.354-3.325a1.5 1.5 0 0 1 1.386-2.66c8.212 4.283 28.597 4.265 43.587-2.168a1.501 1.501 0 0 1 1.184 2.757c-8.737 3.749-18.905 5.396-27.803 5.396zm-28.867-30.094a1.5 1.5 0 0 1-1.467-1.816c2.009-9.321 9.81-18.364 22.168-16.195a1.502 1.502 0 0 1 1.219 1.737 1.51 1.51 0 0 1-1.736 1.218c-7.547-1.323-16.257 2.453-18.717 13.872a1.506 1.506 0 0 1-1.467 1.184z" fill="#003029" id="cq5zMITDtNhYRfV6CCWs" /><path d="M506.609 106.581c.233 7.648-2.284 13.93-5.623 14.032-3.338.102-6.234-6.016-6.467-13.664-.111-3.644.402-6.978 1.331-9.481.156-.421 8.053-1.841 8.345-1.304 1.361 2.501 2.287 6.23 2.414 10.417zm25.631 2.97a1.5 1.5 0 0 1-1.468-1.816c2.008-9.321 9.801-18.36 22.167-16.196.816.143 1.361.921 1.219 1.737s-.923 1.358-1.736 1.218c-7.55-1.324-16.258 2.453-18.716 13.873a1.504 1.504 0 0 1-1.466 1.184z" fill="#003029" id="i8fgnwX_dEi66JgQlci6s" /><path d="M551.981 103.441c.233 7.648-2.284 13.93-5.623 14.032-3.338.102-6.234-6.016-6.467-13.664-.111-3.644.402-6.978 1.331-9.481.156-.421 8.053-1.841 8.345-1.304 1.361 2.5 2.287 6.229 2.414 10.417z" fill="#003029" id="lxZj47T62R3WppCM13mD3" /></g><path d="M445.451 92.563c14.031 45.184-3.018 49.252-12.019 23.539-9-25.714-2.012-68.723 12.019-23.539z" fill="#FFBBA0" id="QOvfFVbtLfhC-oHKlYksd" /><path d="M466.545 79.264c60.142-56.188 84.087-32.169 95.627-14.799 1.887-21.649-1.53-28.055-24.214-47.911L426.453 44.963l7.03 58.736 17.043 11.868c.911-22.524 6.714-25.854 16.019-36.303z" fill="#FFBBA0" id="ffOXqbhIBGceNjtzwreI" /><path d="M483.535 48.149a1.5 1.5 0 0 1-1.183-2.421c.097-.125 9.846-12.57 22.71-22.377 17.417-13.279 32.611-15.736 43.939-7.106a1.5 1.5 0 0 1-1.819 2.387C522.415-.241 485.093 47.09 484.72 47.57a1.5 1.5 0 0 1-1.185.579zM243.889 462.45c-.319 0-.642-.102-.914-.312l-23.22-17.877a1.5 1.5 0 1 1 1.831-2.377l23.22 17.877a1.5 1.5 0 0 1-.917 2.689z" fill="#003029" id="KwCzBg_Uj-97Mh2Xlnpg0" /><path d="M434.27 236.073c-.68 18.053 7.773 45.033 24.137 70.775l52.553-26.444 18.492 19.602 15.832-23.467 47.956 26.53c-4.898-30.561-10.174-51.502-24.422-66.061-11.237-10.137-19.086-15.221-26.877-19.578-26.245-15.635-68.249-13.746-85.238-3.545-8.176 4.909-16.587 16.544-22.433 22.188z" fill="#ABFFFF" id="o_AcJTXrhbVcmu-4Bneaz" /><path d="M458.407 308.347a1.5 1.5 0 0 1-1.267-.695c-15.762-24.795-25.1-52.244-24.37-71.636.015-.387.179-.753.457-1.022 1.844-1.78 4.001-4.229 6.285-6.823 5.007-5.685 10.682-12.127 16.418-15.572 18.233-10.948 61.008-11.81 86.778 3.542 8.229 4.603 16.008 9.734 27.113 19.753 14.257 14.562 19.741 34.751 24.899 66.937a1.501 1.501 0 0 1-2.208 1.55l-46.754-25.865-15.064 22.329a1.498 1.498 0 0 1-2.334.19l-17.726-18.79-51.556 25.942c-.213.109-.443.16-.671.16zm-22.658-71.624c-.488 18.485 8.345 44.427 23.199 68.172l51.338-25.832a1.497 1.497 0 0 1 1.765.311l17.206 18.239 14.784-21.913a1.501 1.501 0 0 1 1.97-.474l45.253 25.035c-4.92-29.809-10.333-48.732-23.519-62.204-10.83-9.768-18.449-14.795-26.536-19.319-24.952-14.863-66.197-14.099-83.733-3.567-5.337 3.205-10.849 9.462-15.711 14.983-2.152 2.442-4.193 4.76-6.016 6.569z" fill="#003029" id="Vti9b8XzrJ2ITjrndEEle" /><path d="M510.96 281.903c-.362 0-.725-.13-1.012-.393-23.472-21.459-31.647-31.488-42.963-45.367l-2.08-2.55a1.5 1.5 0 0 1 .07-1.978c2.867-3.041 17.712-5.398 33.135-5.227 11.667.12 33.386 1.792 47.753 11.639.351.24.583.618.639 1.039 1.808 13.528 1.249 22.298.477 34.438l-.197 3.127a1.499 1.499 0 1 1-2.994-.186l.197-3.133c.749-11.766 1.294-20.321-.368-33.182-22.692-14.997-67.104-11.013-75.353-7.168l1.047 1.284c11.654 14.294 19.353 23.737 42.661 45.049a1.5 1.5 0 0 1-1.012 2.608z" fill="#003029" id="W19ql2thx8tSNMzD8KAtS" /><path d="M545.013 240.765a1.5 1.5 0 0 1-1.488-1.328c-1.056-9.148-11.377-16.002-11.48-16.07a1.5 1.5 0 1 1 1.642-2.51c.474.31 11.604 7.707 12.818 18.236a1.5 1.5 0 0 1-1.492 1.672zm-78.945-6.621c-.472 0-.937-.222-1.229-.638l-6.165-8.786a1.499 1.499 0 1 1 2.455-1.722l6.165 8.785a1.498 1.498 0 0 1-1.226 2.361z" fill="#003029" id="vi2DE2T-1hR9Iv-cXQi2n" /></g></g><g transform="translate(1467.0 411.0) rotate(0.0 740.25 1086.75) scale(1.502273958758242 1.5038754111699852)" id="vrsDIZkjH2NLblph_Lje"><g clip-path="url(#clipPath_RZj3hPbm)" transform="matrix(1 0 0 1 0 0)" id="XfufES9uZUgbhwWtoua"><path d="M850.401 683.576c-11.846-36.118-21.806-61.807-21.806-61.807l-108.94 46.726s28.157 56.809 35.743 76.138c7.588 19.33 103.87-34.023 95.003-61.057z" fill="#FF8E77" id="QQZrBCIYwaE2AawVW8xe" /><path d="M784.542 706.769s4.901 10.862 11.351 31.91c3.085 10.068 4.457 25.403 3.501 34.216-1.435 13.236-2.449 21.006-4.403 26.49-13.308 37.34-38.487 17.481-36.487-5.384.636-7.272.574-9.066 2.992-21.893 1.508-8.005.967-5.444-1.609-12.762-5.559-15.796-9.833-28.583-9.833-28.583-6.635-23.051 22.554-53.323 34.488-23.994z" fill="#FF8E77" id="MNBbNEyDVdRf_yuyJYkWl" /><path d="M728.698 636.99s-17.736 15.662-16.447 53.59c.661 19.428 4.432 40.863 15.986 68.972 13.075 31.81 43.826 23.748 38.09-6.684-1.382-7.333-3.056-18.756-6.131-31.326 37.221-14.953 30.363-56.91 30.363-56.91z" fill="#FF8E77" id="QAg3f3ao7n0vYIfWwFFzB" /><path d="M760.244 778.244a1.5 1.5 0 0 1-.938-2.671c5.398-4.312 7.42-12.485 5.547-22.427l-.354-1.859c-2.067-10.819-8.359-43.743-7.383-57.241a1.507 1.507 0 0 1 1.604-1.388 1.5 1.5 0 0 1 1.388 1.604c-.629 8.695 1.84 27.692 7.337 56.461l.355 1.868c2.086 11.067-.328 20.298-6.621 25.325-.276.22-.607.328-.935.328z" fill="#003029" id="BLe5loK3PFxGVe4iSm4oo" /><path d="M807.851 696.673s7.306 18.485 13.755 39.533c3.085 10.068 3.386 24.754 2.419 33.566-6.236 56.839-42.798 41.037-40.418 8.122.526-7.28 2.15-21.011 1.978-22.212-.202-1.409-12.223-35.015-12.223-35.015-6.634-23.05 22.556-53.322 34.489-23.994z" fill="#FF8E77" id="yGsq3L9TPmUToSh1yoP9Z" /><path d="M801.798 809.037c-2.596 0-5.199-.725-7.646-2.178-8.237-4.89-12.963-16.302-12.04-29.072.241-3.339.715-8.056 1.133-12.217.424-4.214.903-8.991.853-9.713-.303-1.368-7.432-21.504-12.146-34.685a1.5 1.5 0 1 1 2.824-1.01c2.832 7.917 12.089 33.86 12.296 35.307.109.763-.144 3.458-.841 10.4-.416 4.142-.888 8.837-1.126 12.134-.689 9.543 2.313 21.369 10.579 26.276 4.089 2.427 8.533 2.354 12.515-.209a1.5 1.5 0 0 1 1.623 2.523c-2.532 1.628-5.273 2.444-8.024 2.444z" fill="#003029" id="IX11CFia10n3Fn0OAnoBQ" /><path d="M795.913 710.238s5.446 15.935 10.167 29.407c-1.687 4.045-3.66 7.764-5.949 11.786-18.497 32.501 18.018 53.275 38.979 9.787 4.413-9.155 8.554-19.507 1.326-40.882-5.651-16.713-10.763-30.655-10.763-30.655-5.268-15.591-37.107 8.474-33.76 20.557z" fill="#FF8E77" id="t5a8wL-AP5TR8FawoZzrR" /><path d="M810.649 787.408c-3.568 0-6.792-1.03-9.397-2.809-10.75-7.338-8.793-22.722-2.425-33.911 1.812-3.183 3.886-6.971 5.646-11.094a4797.04 4797.04 0 0 1-9.979-28.871 1.498 1.498 0 0 1 .934-1.904 1.494 1.494 0 0 1 1.904.934c.055.159 5.499 16.084 10.164 29.396.122.35.111.731-.031 1.073-1.868 4.478-4.097 8.554-6.03 11.951-5.709 10.031-7.672 23.683 1.509 29.948 6.321 4.317 17.165 3.158 27.134-9.156a1.499 1.499 0 1 1 2.332 1.886c-7.269 8.981-15.113 12.557-21.761 12.557z" fill="#003029" id="uKYbAsdqMvEEY-A3wCL3R" /><path d="M816.705 699.391s3.545 11.314 8.441 25.462c-23.476 16.937-13.323 56.397 27.33 22.912 12.589-10.369 9.401-28.858 6.884-36.674a5398.806 5398.806 0 0 0-10.831-33.199z" fill="#FF8E77" id="zcHM6IgXnPetz9pEvDPQM" /><path d="M825.444 762.331c-2.084 0-4.012-.346-5.762-1.043-4.596-1.834-7.626-6.082-8.313-11.657-1.252-10.153 4.994-19.858 12.003-25.32-4.665-13.529-8.063-24.36-8.099-24.471a1.5 1.5 0 0 1 2.863-.897c.035.112 3.595 11.457 8.428 25.421a1.502 1.502 0 0 1-.54 1.707c-9.223 6.652-12.511 16.442-11.678 23.192.558 4.521 2.848 7.802 6.447 9.237 4.101 1.636 13.541 2.265 30.728-11.894a1.503 1.503 0 0 1 2.112.204c.526.64.435 1.585-.204 2.112-10.693 8.808-20.377 13.408-27.985 13.409z" fill="#003029" id="s_NbSs8W16UQ3iomKUUoX" /><path d="M825.147 726.354a1.502 1.502 0 0 1-.835-2.747c4.765-3.186 13.291-6.878 13.651-7.033a1.5 1.5 0 0 1 1.19 2.754c-.086.037-8.638 3.74-13.173 6.773a1.49 1.49 0 0 1-.833.253zm-66.536-30.701a1.5 1.5 0 0 1-1.219-2.373c.114-.16 11.472-16.145 13.691-28.624a1.51 1.51 0 0 1 1.739-1.214 1.5 1.5 0 0 1 1.214 1.739c-2.339 13.152-13.722 29.169-14.205 29.845a1.496 1.496 0 0 1-1.22.627z" fill="#003029" id="GSovsx6JIhfKZjEv_brzJ" /><path d="m620.341 503.838-109.109-129.96c-.812-49.725 93.869-117.233 128.018-85.896 30.9 30.969 77.726 73.919 116.367 140.516 7.401 12.756 24.769 60.188-17.697 87.024-64.144 40.535-117.579-11.684-117.579-11.684z" fill="#FE5236" id="NfDkeifn8Z90iNO0Odpy3" /><path d="m712.66 675.709-17.593-39.148s-29.637-13.477-38.192-31.391-46.254-120.228-46.254-120.228 98.19-130.639 144.996-56.444c26.821 42.515 76.338 202.18 76.338 202.18z" fill="#FE5236" id="xL12w5GhofSLJtpp-9kgK" /><path d="M695.066 638.061a1.5 1.5 0 0 1-.534-2.902l123.103-46.885a1.5 1.5 0 0 1 1.069 2.803l-123.103 46.885a1.48 1.48 0 0 1-.535.099z" fill="#003029" id="HgQ5W0Xr_Nm9-bgOfPNWx" /><path d="M632.815 281.844c-30.17-11.082-64.569-21.919-97.829-28.319-36.872-7.095-87.807-11.334-126.132-10.538-41.175.856-92.4 8.868-120.099 19.433l71.77 127.178L555.9 402.364s117.882-105.471 76.915-120.52z" fill="#FE5236" id="R2vrHHRljUPL8pTSg6oIb" /><path d="m360.374 1211.148 17.419 150.133s-12.673 3.526-36.528 6.964c-32.113 4.628-42.2 19.859-42.217 51.589h219.151c1.643-25.881 1.031-50.652-7.359-71.601 6.762-43.878 17.274-107.194 21.608-148.38z" fill="#003029" id="kV_K0lRxLwna3_lP41q9W" /><path d="M299.048 1419.833v14.452c0 6.065 4.917 10.982 10.982 10.982h101.89c0-19.071 25.534-19.837 25.534 0h69.772c6.065 0 10.982-4.917 10.982-10.982v-14.452zm53.293-15.273c-7.038 0-13.108-5.001-14.449-11.911l-4.464-22.993a1.5 1.5 0 1 1 2.946-.572l4.464 22.993c1.07 5.517 5.966 9.495 11.545 9.483l46.552-.261a24.914 24.914 0 0 0 24.505-20.802l13.637-140.822a1.5 1.5 0 1 1 2.987.289l-13.642 140.875c-.004.034-.008.068-.014.103a27.907 27.907 0 0 1-27.457 23.357l-46.553.261h-.057z" fill="#ABFFFF" id="XchC3WBI8zfS0D4ayY_8s" /><path d="M299.048 1419.833v14.452c0 6.065 4.917 10.982 10.982 10.982h101.89c0-19.071 25.534-19.837 25.534 0h69.772c6.065 0 10.982-4.917 10.982-10.982v-14.452z" fill="#003029" id="cqF8qsV-a6f57VGpkIeJm" /><path d="m457.746 1421.333-.071-.002a1.5 1.5 0 0 1-1.428-1.568c1.619-34.322 29.854-66.005 54.18-72.974a1.5 1.5 0 0 1 .826 2.884c-23.348 6.688-50.45 37.176-52.01 70.229a1.5 1.5 0 0 1-1.497 1.431z" fill="#ABFFFF" id="xiKpIhZeP7H0J0Scf5DYu" /><path d="M518.208 1421.333h-219.16a1.5 1.5 0 0 1 0-3h219.16a1.5 1.5 0 0 1 0 3z" fill="#ABFFFF" id="i17c70YktUlVzF5o-jzYh" /><path d="m712.192 1139.083 125.619 83.469s-4.917 12.2-16.713 33.219c-15.878 28.294-9.935 45.568 15.227 64.898l133.413-173.862c-19.532-17.059-39.557-31.653-61.285-37.75-30.694-32.077-74.526-78.961-104.562-107.472z" fill="#003029" id="yPxXDslSZDNDGyiGOXTpz" /><path d="m836.325 1320.669 11.465 8.798c4.812 3.692 11.706 2.785 15.398-2.027l62.028-80.833c-15.13-11.61-.193-32.334 15.545-20.258l42.475-55.353c3.692-4.812 2.785-11.706-2.027-15.398l-11.465-8.798zm8.635-45.82c-2.219 0-4.461-.502-6.554-1.546l-20.959-10.457a1.5 1.5 0 1 1 1.34-2.684l20.959 10.457a11.73 11.73 0 0 0 14.552-3.387l28.132-37.091a24.913 24.913 0 0 0-1.584-32.104l-103.42-96.547a1.5 1.5 0 1 1 2.047-2.193l103.459 96.583c.025.023.05.048.073.073a27.908 27.908 0 0 1 1.814 36.003l-28.133 37.091a14.728 14.728 0 0 1-11.726 5.802z" fill="#ABFFFF" id="Cmbsny5FUjWA_E84WesWZ" /><path d="m836.325 1320.669 11.465 8.798c4.812 3.692 11.706 2.785 15.398-2.027l62.028-80.833c-15.13-11.61-.193-32.334 15.545-20.258l42.475-55.353c3.692-4.812 2.785-11.706-2.027-15.398l-11.465-8.798z" fill="#003029" id="ZL3J2jKq-TBuBNSCqYdTE" /><path d="M932.936 1196.267c-.342 0-.686-.116-.967-.354-26.244-22.179-34.191-63.865-24.91-87.406a1.5 1.5 0 0 1 2.791 1.099c-8.908 22.595-1.22 62.655 24.055 84.016a1.499 1.499 0 0 1-.969 2.645z" fill="#ABFFFF" id="plqK9vz6aUMeXNSCuaQgn" /><path d="M836.324 1322.169a1.501 1.501 0 0 1-1.189-2.414l133.419-173.869a1.5 1.5 0 1 1 2.381 1.827l-133.419 173.869a1.503 1.503 0 0 1-1.192.587zm38.61-248.198-87.39 142.713s-293.777-209.047-315.108-275.509-59.921-361.984-59.921-361.984 151.42-107.733 187.095-61.694c35.674 46.039 47.963 103.638 35.359 154.672l8.697 190.244c82.087 51.287 149.332 125.804 231.268 211.558z" fill="#ABFFFF" id="SypP991mtjtRd-hSgWSK6" /><path d="M787.545 1218.184a1.51 1.51 0 0 1-.87-.277c-.734-.523-74.348-52.979-149.618-112.88-101.243-80.57-157.109-135.544-166.048-163.395-21.129-65.829-59.595-359.291-59.98-362.247a1.501 1.501 0 0 1 .618-1.417c.379-.27 38.435-27.243 80.367-48.23 56.886-28.472 93.486-32.899 108.782-13.16 35.159 45.373 48.49 103.576 35.683 155.74l8.651 189.24c73.913 46.339 135.701 111.316 207.215 186.521 7.769 8.17 15.651 16.459 23.675 24.855.47.492.55 1.239.194 1.819l-87.39 142.714a1.503 1.503 0 0 1-1.279.717zM414.121 579.896c2.379 18.093 39.279 297.06 59.744 360.82 20.215 62.983 291.888 258.521 313.241 273.811l85.946-140.355c-7.75-8.113-15.369-16.125-22.882-24.026-71.588-75.281-133.412-140.296-207.299-186.46a1.5 1.5 0 0 1-.703-1.204l-8.697-190.243a1.47 1.47 0 0 1 .042-.428c12.678-51.335-.439-108.679-35.089-153.394-33.138-42.769-172.854 53.475-184.303 61.479z" fill="#003029" id="aOguMz1vxrvdz6zEeAvw4" /><path d="M803.882 1191.504c-.314 0-.631-.099-.901-.302-11.384-8.573-279.101-210.413-305.284-248.523-7.609-11.077-11.594-27.986-15.812-45.889-2.716-11.525-5.524-23.443-9.392-33.79a1.5 1.5 0 0 1 2.811-1.051c3.933 10.524 6.764 22.536 9.501 34.152 4.152 17.621 8.074 34.265 15.365 44.878 10.688 15.556 66.72 63.321 162.041 138.135 72.099 56.586 141.879 109.167 142.575 109.691a1.5 1.5 0 0 1-.904 2.699z" fill="#003029" id="vvDNJkq5MapP1Vmpgqs7O" /><path d="M324.321 493.402c-30.331 16.053-42.755 83.933-42.264 92.614 13.394 236.82 89.231 723.826 89.231 723.826l178.506-10.776s-7.227-274.392-34.041-369.129L506.37 705.25c16.52-40.138 15.074-88.59-10.857-147.084" fill="#ABFFFF" id="s_gn8NfjKEuSRu-VGCT7p" /><path d="M371.287 1311.342a1.5 1.5 0 0 1-1.481-1.27c-.758-4.87-76.001-489.787-89.247-723.972-.267-4.726 2.813-24.041 9.652-44.111 6.112-17.939 16.871-41.161 33.407-49.914a1.501 1.501 0 0 1 1.404 2.651c-30.157 15.962-41.891 83.717-41.468 91.204 12.891 227.926 84.57 693.657 89.007 722.331l175.691-10.606c-.624-21.694-8.49-277.381-33.944-367.311a1.497 1.497 0 0 1-.056-.346l-9.383-224.688a1.497 1.497 0 0 1 .112-.634c17.2-41.789 13.553-90.878-10.841-145.904a1.5 1.5 0 1 1 2.743-1.215c24.68 55.671 28.38 105.448 10.998 147.957l9.361 224.184c26.52 93.993 33.977 366.584 34.049 369.328a1.5 1.5 0 0 1-1.408 1.536l-178.505 10.776a.923.923 0 0 1-.091.004z" fill="#003029" id="ddVXakaDb65I46ZdU5ymP" /><path d="M401.396 1309.525a1.499 1.499 0 0 1-1.479-1.266c-7.609-48.03-60.593-476.601-84.37-717.721a1.501 1.501 0 0 1 1.346-1.641 1.513 1.513 0 0 1 1.641 1.346c23.772 241.077 76.74 669.534 84.347 717.547a1.5 1.5 0 0 1-1.485 1.735zm205.509-632.078c-.242 0-.487-.059-.712-.18l-56.062-30.271a1.504 1.504 0 0 1-.787-1.311c-.15-22.551-5.958-51.02-14.796-72.527a1.501 1.501 0 0 1 1.088-2.04l84.489-17.178a1.5 1.5 0 1 1 .598 2.94l-82.722 16.819c8.476 21.337 14.044 48.905 14.333 71.078l54.272 29.305c15.344-16.293 28.816-37.713 31.521-50.204.175-.81.97-1.325 1.783-1.148.81.175 1.324.974 1.148 1.783-2.899 13.393-16.808 35.459-33.071 52.471a1.488 1.488 0 0 1-1.082.463zm-170.638 36.141c-.276 0-.554-.076-.798-.229l-54.314-34.131a1.498 1.498 0 0 1-.699-1.184c-.635-10.894-4.798-55.126-10.891-73.31a1.5 1.5 0 0 1 1.168-1.955l97.097-16.649a1.495 1.495 0 0 1 1.618.854c10.382 22.687 15.355 48.713 14.384 75.267a1.52 1.52 0 0 1-.128.555c-8.057 18.13-23.734 35.13-46.599 50.526a1.493 1.493 0 0 1-.838.256zm-52.865-36.491 52.834 33.2c21.839-14.854 36.844-31.149 44.607-48.446.894-25.578-3.822-50.637-13.649-72.568l-94.255 16.162c5.766 18.919 9.708 59.852 10.463 71.652z" fill="#003029" id="smwIudGLLBPn7Eyi-FltC" /><path d="M607.132 309.133c-1.048 22.062-8.345 107.035-8.062 120.623.283 13.589 44.655 93.122 19.951 113.921-120.813 55.686-258.012 58.445-339.85 24.634-32.832-24.634-.991-82.628 2.872-151.312 0 0-9.875-50.754 28.289-105.484z" fill="#FE5236" id="gyzaTJEV_0A_ifObnh8ct" /><path d="M626.331 528.648c-.024 0-.05 0-.075-.002a1.5 1.5 0 0 1-1.424-1.572c1.065-21.648-9.389-48.277-17.79-69.673-4.316-10.995-8.044-20.49-9.442-27.346a1.507 1.507 0 0 1-.029-.348c.456-14.158 2.68-50.781 2.702-51.15a1.494 1.494 0 0 1 1.588-1.406c.827.05 1.457.761 1.406 1.588-.022.366-2.225 36.646-2.692 50.887 1.374 6.592 5.031 15.907 9.261 26.678 8.506 21.664 19.091 48.625 17.993 70.917a1.501 1.501 0 0 1-1.498 1.427z" fill="#003029" id="Dz1NliNCRqqIoOZjBWQwt" /><path d="m619.021 543.677 8.308 18.457c-46.155 53.026-213.609 83.764-344.997 51.819l-4.151-45.509z" fill="#FE5236" id="Xyte5NW5P7XTA029Y2Ifb" /><path d="M146.928 160.115s3.603-14.473 3.703-25.268c.17-18.277-5.628-40.382-10.349-62.906-6.895-32.901-42.573-28.612-37.777 1.274 1.464 9.121 4.73 29.195 3.356 41.115-34.627 18.39-21.915 66.146-21.915 66.146z" fill="#FF8B74" id="Vfj9KqaDb32hH_XoMfCg7" /><path d="M10.318 127.678c5.443 38.32 13.992 59.243 13.992 59.243l120.104-17.928s-23.18-68.862-27.826-88.619c-4.647-19.757-110.181 19.772-106.27 47.304z" fill="#FF8B74" id="U2T2L05xaiHVjfcRM-BmT" /><path d="M125.439 115.579s-19.387-89.465-25.008-100.798C89.525-7.204 66.333-.326 66.008 25.678c-.182 14.499 10.394 80.179 10.394 80.179 6.968 31.383 49.598 35.094 49.037 9.722z" fill="#FF8B74" id="LiAqi19TtM5bjvBkceK2" /><path d="M126.754 122.064a1.5 1.5 0 0 1-1.462-1.17c-.102-.45-10.243-45.312-16.231-70.7a1.5 1.5 0 0 1 2.92-.688c5.992 25.402 16.136 70.277 16.237 70.727a1.498 1.498 0 0 1-1.464 1.831z" fill="#003029" id="qDUhYbniKLeybSlJYY6F_" /><path d="M57.094 120.103S41.96 45.427 40.955 27.399C38.8-11.287 69.01-2.933 75.871 18.427c6.482 20.181 17.932 83.268 17.932 83.268 3.207 23.224-29.25 48.444-36.709 18.408z" fill="#FF8B74" id="SiG45_ZvDF8k68banaC" /><path d="M93.083 99.295a1.5 1.5 0 0 1-1.473-1.227c-2.645-14.269-11.696-62.15-17.167-79.182-1.545-4.81-4.455-9.201-8.194-12.362a1.5 1.5 0 1 1 1.937-2.291c4.162 3.52 7.398 8.398 9.112 13.736C82.824 35.17 91.907 83.208 94.56 97.521a1.502 1.502 0 0 1-1.477 1.774z" fill="#003029" id="RuTZupRRRNvEcyDYcJvq4" /><path d="M68.587 112.707S56.083 47.139 52.175 32.898C42.503-2.351 9.482 7.095 16.892 45.557c3.311 17.188 16.17 82.334 16.17 82.334 2.924 15.817 37.079-3.028 35.525-15.184z" fill="#FF8B74" id="N8a34YBXX4H_uhsKXqDmj" /><path d="M67.634 109.25a1.5 1.5 0 0 1-1.471-1.217c-2.798-14.532-12.178-62.869-15.435-74.738-2.662-9.701-7.342-16.619-13.176-19.48a1.5 1.5 0 1 1 1.32-2.693c6.618 3.245 11.855 10.838 14.748 21.38 3.286 11.974 12.686 60.406 15.487 74.964a1.5 1.5 0 0 1-1.473 1.784z" fill="#003029" id="xphTAtxtGF0iFojy3aALQ" /><path d="M45.989 122.538s-8.1-50.008-15.707-72.252S-3.532 30.071.399 67.111c1.065 10.032 6.443 41.48 11.808 71.792z" fill="#FF8B74" id="L6Omhs6vzDUdkRXU5fV4m" /><path d="M45.472 120.936a1.501 1.501 0 0 1-1.479-1.261c-.076-.468-7.652-47.036-15.13-68.904-2.476-7.239-7.329-12.307-12.669-13.225-.816-.141-1.365-.917-1.225-1.733s.923-1.36 1.732-1.224c6.52 1.122 12.127 6.808 14.999 15.211 7.561 22.109 15.177 68.926 15.253 69.396a1.5 1.5 0 0 1-1.481 1.74z" fill="#003029" id="EXPdocfEwBGN4G_19L7Ts" /><path d="m156.936 200.855 32.086 98.848 99.733-37.282c78.003-8.738 141.886 103.538 100.767 126.984-42.681 19.979-72.646 40.941-148.095 69.117-52.272 19.52-161.575 27.012-185.421-61.376-5.605-20.775-27.376-116.28-28.833-131.938-1.264-13.58 7.629-36.662 7.629-36.662 15.094-3.38 122.134-27.691 122.134-27.691zm0 0-10.008-40.74L24.31 186.921l10.491 41.623z" fill="#FE5236" id="uhzxgbEIxo0kA2Rwrx-n" /><g fill="#003029" id="axG_LV5Th_eHnLNIoP_Jx"><path d="M246.34 458.849a1.5 1.5 0 0 1-.585-2.883c37.552-15.868 68.354-30.289 113.651-53.207a1.5 1.5 0 0 1 1.354 2.677c-45.363 22.952-76.216 37.396-113.837 53.294a1.49 1.49 0 0 1-.583.119zM34.8 230.045a1.5 1.5 0 0 1-.338-2.962c8.526-1.978 115.838-26.306 122.153-27.693a1.5 1.5 0 1 1 .642 2.93c-6.312 1.387-113.594 25.708-122.118 27.686a1.52 1.52 0 0 1-.339.039zm122.137 83.152a1.502 1.502 0 0 1-.525-2.906l51.85-19.382a1.505 1.505 0 0 1 1.931.88c.29.776-.104 1.64-.88 1.931l-51.85 19.382a1.524 1.524 0 0 1-.526.095zm250.304 278.646c-48.662 0-93.582-7.661-128.643-22.146a1.499 1.499 0 1 1 1.147-2.772c41.129 16.993 96.053 24.502 154.649 21.133 63.34-3.637 126.965-19.454 183.999-45.743a1.499 1.499 0 1 1 1.256 2.724c-57.371 26.444-121.372 42.355-185.083 46.013-9.207.53-18.335.791-27.325.791zm15.289-167.147a1.5 1.5 0 0 1-.874-2.72c21.553-15.427 29.213-35.612 29.288-35.814a1.5 1.5 0 0 1 2.813 1.042c-.318.86-8.062 21.254-30.354 37.211-.265.19-.57.281-.873.281z" fill="#003029" id="xkGotLIpqDuflx24gFGRL" /></g><path d="m368.354 246.023 8.174-14.069c2.38-4.096 7.33-6.294 12.313-5.399 32.66 5.865 68.31 7.069 108.216 1.641 5.899-.802 11.628 2.659 13.338 8.047l4.443 14.002c-38.767 24.767-111.447 17.635-146.484-4.222z" fill="#FE5236" id="dO6iT3UW5YGD8b6T43uEy" /><path d="M450.195 267.38c-3.311 0-6.668-.087-10.076-.264-27.853-1.443-54.978-8.853-72.559-19.82a1.5 1.5 0 1 1 1.587-2.545c34.719 21.658 107.088 28.377 144.883 4.231a1.5 1.5 0 1 1 1.615 2.529c-16.186 10.34-39.161 15.869-65.45 15.869z" fill="#003029" id="UpY6MTzAFo6HrHyq7MH_E" /><circle cx="364.944" cy="121.225" fill="#003029" r="18.987" id="rkmDqQ2jTM3-QLWcHX9" /><path d="M386.507 39.718c-64.882 19.861-17.414 74.889-17.414 74.889 64.4.607 46.46-28.333 17.414-74.889z" fill="#003029" id="fpJtYrEPtibe7dfbSg__m" /><path d="M373.157 133.429c-1.823-44.993 18.682-77.793 67.212-76.317 80.335 2.443 83.465 86.42 69.039 122.463-11.745 29.343-47.61 41.455-85.893 37.515-49.839-5.128-77.862-51.47-50.358-83.661z" fill="#FF8E77" id="r704Z5w4yF_dQQtfPiLEh" /><path d="M438.417 83.348s4.178 53.506 25.183 54.418c1.548-13.7 3.996-52.934 3.996-52.934z" fill="#003029" id="CwGEGmThbZkHh5WkcaJH" /><path d="M516.752 84.845c19.861 34.9 6.549 95.509-16.554 109.653-19.005-.035-23.054-27.39-22.752-41.164.126-5.742-16.155-13.602-15.654-21.479-6.189-7.663-9.552-30.928-11.046-44.665-4.199-.947-8.315-2.205-12.33-3.842-22.764-6.364-45.575 1.387-61.338 15.393-63.074-77.668 98.568-86.13 139.674-13.896z" fill="#003029" id="FLXXvcA2k3F-R5_P9vfJz" /><path d="M463.148 142.597c-.079 14.343 11.569 19.679 19.601 18.633 9.858-1.283 15.748-9.967 16.026-17.935.39-11.219-7.944-20.567-18.637-20.376-12.251.219-16.953 12.996-16.99 19.678z" fill="#FF8E77" id="DlgXrF_Cs7_7Z6OQ20-Hq" /><path d="M486.85 148.597c-.376 0-.751-.14-1.043-.421l-11.143-10.774a1.5 1.5 0 1 1 2.086-2.157l11.143 10.774a1.5 1.5 0 0 1-1.043 2.578z" fill="#003029" id="ASeGPo0Fn5LILhtP82D7p" /><path d="M476.472 148.24a1.5 1.5 0 0 1-1.066-2.556l10.764-10.862a1.5 1.5 0 1 1 2.131 2.111l-10.764 10.862c-.293.296-.68.445-1.065.445zm-64.612-20.526a1.5 1.5 0 0 1-1.46-1.16c-2.65-11.377-11.436-15.004-18.947-13.556a1.5 1.5 0 0 1-.569-2.945c12.34-2.38 20.274 6.535 22.438 15.82a1.5 1.5 0 0 1-1.462 1.841z" fill="#003029" id="RMsLp-rbzh4I3xRvIWo" /><path d="M392.043 121.937c-.104 7.651 2.518 13.89 5.858 13.935 3.34.046 6.132-6.12 6.236-13.771.05-3.645-.52-6.97-1.491-9.457-.163-.418-8.083-1.705-8.366-1.164-1.317 2.524-2.18 6.268-2.237 10.457z" fill="#003029" id="yoOA4UB-_kKmBHSlE-GLj" /><path d="M398.192 161.078c7.935-11.776-9.161-17.244-13.078-6.445-9.335-14.131-23.163-.609-10.053 7.635-3.295 2.247-4.882 13.07 5.841 15.052 14.396 2.662 19.838-10.234 17.29-16.242z" fill="#E4634F" id="PQ1Nfvrcg5VI7y2UtEL2i" /><path d="M384.881 164.442c-4.233 0-8.408-.554-12.21-1.724a1.5 1.5 0 1 1 .883-2.867c12.454 3.833 29.159.631 37.237-7.141a1.5 1.5 0 1 1 2.08 2.162c-6.287 6.048-17.319 9.57-27.99 9.57zM503.771 64.43c-1.104-41.417 53.336-76.023 90.468-60.75 85.706 35.251 9.778 243.223 100.749 257.556-48.298 17.506-35.373 76.594-138.756 96.789-52.812-40.528 5.193-237.894-12.979-260.45-11.109-13.789-18.854-4.475-18.854-4.475z" fill="#003029" id="kRDl2m1geOD1-lXhxuipP" /><path d="m519.026 99.051 2.708-1.77a6.034 6.034 0 0 0 1.75-8.352l-15.436-23.617a6.034 6.034 0 0 0-8.352-1.75l-2.708 1.77a6.034 6.034 0 0 0-1.75 8.352l15.436 23.617a6.033 6.033 0 0 0 8.352 1.75z" fill="#E4634F" id="t_2LitUzCT6zZERJtoAbA" /><circle cx="691.663" cy="311.515" fill="#003029" r="50.38" id="xaUKyBCLcOTHexLvjPPC9" /><circle cx="580.172" cy="327.205" fill="#003029" r="39.035" id="RBMJlgD0x34HyuY2X0KZx" /><circle cx="628.904" cy="337.745" fill="#003029" r="28.609" id="MPw__W_kKA37nOyfAlR6I" /></g></g></g></g></svg>