<svg viewBox="860.203488372093 1117.0500000000002 1659.4476744186043 1624.8" fill="none" xmlns="http://www.w3.org/2000/svg" xmlns:xlink="http://www.w3.org/1999/xlink" overflow="visible" width="1659.4476744186043px" height="1624.8px">
    <g id="Master/Character/Sitting On Floor">
        <g id="Upper Body" transform="translate(911 1329) scale(1 1)">
            <g id="Upper Body/Relaxed">
                <g id="Hand1">
                    <path id="Fill 1" fill-rule="evenodd" clip-rule="evenodd" d="M219.607 1021.89C219.607 1021.89 213.4 1045.32 148.768 1042.86C114.66 1041.57 62.5171 1066.1 59.7308 1049.74C56.9445 1033.38 122.86 1009.15 122.86 1009.15C122.86 1009.15 82.6864 1006.49 49.0326 1014.52C15.3775 1022.55 -13.4136 1027.59 -13.4136 1027.59C-13.4136 1027.59 -29.6149 1023.79 -20.1077 1013.25C-10.601 1002.72 -4.60801 1002.43 -4.60801 1002.43C-4.60801 1002.43 -13.9051 996.464 -6.26478 988.769C1.37608 981.073 4.37283 980.929 4.37283 980.929C4.37283 980.929 -1.88363 975.732 4.80125 968.999C11.4872 962.265 19.4777 961.881 19.4777 961.881C19.4777 961.881 16.218 956.54 28.029 952.31C39.84 948.079 102.934 927.647 131.033 929.048C159.133 930.45 220.016 946.175 220.016 946.175C220.016 946.175 234.627 1013.93 219.607 1021.89" fill="#c26e5e"/>
                    <path id="Path 2" d="M-5 1000.98L-4.21302 1003.88L1.48797 1002.34C36.3589 992.96 62.3903 986.929 79.5602 984.247L80.6556 984.078L80.2072 981.112L78.5422 981.37C60.489 984.234 33.0348 990.667 -3.84445 1000.67L-5 1000.98Z" fill="#995B5D"/>
                    <path id="Path 2 Copy" d="M3.91016 978.678L4.66355 981.603L10.1212 980.045C43.5039 970.571 68.4244 964.479 84.8615 961.769L85.9102 961.599L85.4808 958.603L83.8869 958.863C66.6042 961.756 40.3217 968.255 5.01639 978.361L3.91016 978.678Z" fill="#995B5D"/>
                    <path id="Path 2 Copy 2" d="M19.9102 959.678L20.5809 962.603L25.4395 961.045C55.1583 951.571 77.3436 945.479 91.9766 942.769L92.9102 942.599L92.528 939.603L91.109 939.863C75.7231 942.756 52.3253 949.255 20.895 959.361L19.9102 959.678Z" fill="#995B5D"/>
                </g>
                <path id="Neck" fill-rule="evenodd" clip-rule="evenodd" d="M724.954 220C724.954 220 721.263 301.153 673.924 329.8C630.973 355.791 721.969 506.61 819.858 497.614C873.442 492.688 886 346.158 886 346.158C886 346.158 842.734 337.797 858.716 271.819L724.954 220Z" fill="#c26e5e"/>
                <path id="Head" fill-rule="evenodd" clip-rule="evenodd" d="M803.337 302.516C739.877 294.841 694.078 253.116 687.665 183.898C669.216 186.835 664.865 138.765 670.003 123.323C675.146 107.859 691.933 116.901 691.933 116.901C691.933 116.901 693.327 113.235 694.303 109.226C722.025 -4.48555 799.67 0.0243587 799.67 0.0243587C942.344 7.45716 908.914 153.12 900.763 191.763C892.611 230.41 864.684 309.927 803.337 302.516Z" fill="#c26e5e"/>
                <g id="Group 63">
                    <path id="Fill 3" fill-rule="evenodd" clip-rule="evenodd" d="M1509.38 983.669C1509.05 983.683 1508.73 983.696 1508.41 983.696C1508.73 983.942 1509.03 984.216 1509.31 984.489C1510.05 985.173 1510.74 985.939 1511.35 986.773L1531.23 1013.55C1536.78 1021.03 1535.22 1031.58 1527.74 1037.13C1521 1042.14 1511.75 1041.34 1505.94 1035.64C1509.46 1042.81 1507.49 1051.68 1500.86 1056.62C1494.74 1061.16 1486.52 1060.93 1480.71 1056.56C1483.4 1063.46 1481.28 1071.57 1475.05 1076.19C1468.31 1081.21 1459.05 1080.4 1453.24 1074.7C1456.77 1081.86 1454.8 1090.75 1448.17 1095.68C1440.7 1101.23 1430.15 1099.66 1424.61 1092.19L1404.73 1065.41C1403.4 1063.63 1402.5 1061.68 1401.97 1059.67L1363 993.338C1364.63 992.121 1366.3 990.698 1367.98 989.03C1382.22 974.943 1429.49 932.465 1443.3 915L1449.67 922.276C1449.66 922.194 1449.65 922.112 1449.65 922.03C1449.65 922.03 1484.98 943.501 1510.57 944.062C1536.17 944.623 1575.6 930.919 1577.9 945.676C1580.49 962.388 1533.51 982.835 1509.38 983.669" fill="#c26e5e"/>
                    <path id="Fill 5" fill-rule="evenodd" clip-rule="evenodd" d="M135.992 927.185C135.992 927.185 368.677 545.401 452.679 455.018C536.682 364.636 525.219 344.712 671.309 331.812C671.309 331.812 666.408 412.485 761.044 428.435C855.679 444.385 873.196 349.717 863.374 328.998C863.374 328.998 995.242 368.624 1049.34 412.486C1103.43 456.347 1451.45 922.185 1451.45 922.185L1370.99 1007.54C1370.99 1007.54 1002.55 580.622 996.704 611.325C991.042 641.047 1061.49 949.938 1051.05 973.794C1050.7 974.582 1050.27 975.059 1049.74 975.205C1040.22 977.837 929.167 1034.97 776.256 1034.97C623.345 1034.97 520.372 1007.54 520.372 1007.13C520.372 1007.13 591.687 631.801 571.232 615.715C550.776 599.629 309.525 969.118 224.732 998.565L135.992 927.185Z" fill="#56ACF6"/>
                    <path id="Fill 7" fill-rule="evenodd" clip-rule="evenodd" d="M450.932 518.679L450.016 509.404L498.438 504.622L499.354 513.897L450.932 518.679Z" fill="#204EB2"/>
                    <path id="Fill 9" fill-rule="evenodd" clip-rule="evenodd" d="M727.834 666.352L726.918 657.077L775.339 652.295L776.255 661.57L727.834 666.352Z" fill="#204EB2"/>
                    <path id="Fill 11" fill-rule="evenodd" clip-rule="evenodd" d="M643.67 582.952L635.434 534.997L644.62 533.419L652.857 581.375L643.67 582.952Z" fill="#204EB2"/>
                    <path id="Fill 13" fill-rule="evenodd" clip-rule="evenodd" d="M488.439 629.568L480.223 625.167L503.201 582.277L511.417 586.678L488.439 629.568Z" fill="#204EB2"/>
                    <path id="Fill 15" fill-rule="evenodd" clip-rule="evenodd" d="M911.447 861.937L910.531 852.662L958.953 847.88L959.869 857.155L911.447 861.937Z" fill="#204EB2"/>
                    <path id="Fill 17" fill-rule="evenodd" clip-rule="evenodd" d="M918.548 559.936L885.871 523.884L892.777 517.624L925.454 553.676L918.548 559.936Z" fill="#204EB2"/>
                    <path id="Fill 19" fill-rule="evenodd" clip-rule="evenodd" d="M1298.93 833.141L1298.02 823.866L1346.44 819.084L1347.35 828.359L1298.93 833.141Z" fill="#204EB2"/>
                    <path id="Fill 21" fill-rule="evenodd" clip-rule="evenodd" d="M667.963 841.182L667.047 831.907L715.468 827.125L716.384 836.4L667.963 841.182Z" fill="#204EB2"/>
                    <path id="Fill 23" fill-rule="evenodd" clip-rule="evenodd" d="M315.492 767.211L313.273 758.158L360.532 746.576L362.751 755.628L315.492 767.211Z" fill="#204EB2"/>
                    <path id="Fill 25" fill-rule="evenodd" clip-rule="evenodd" d="M254.256 905.425L229.652 863.446L237.694 858.734L262.297 900.712L254.256 905.425Z" fill="#204EB2"/>
                    <path id="Fill 27" fill-rule="evenodd" clip-rule="evenodd" d="M1075.9 600.093L1074.98 590.818L1123.4 586.036L1124.32 595.311L1075.9 600.093Z" fill="#204EB2"/>
                    <path id="Fill 29" fill-rule="evenodd" clip-rule="evenodd" d="M658.814 438.368L657.898 429.093L706.32 424.311L707.236 433.586L658.814 438.368Z" fill="#204EB2"/>
                    <path id="Fill 31" fill-rule="evenodd" clip-rule="evenodd" d="M1329.23 928.125L1319.91 927.923L1320.97 879.277L1330.29 879.479L1329.23 928.125Z" fill="#204EB2"/>
                    <path id="Fill 33" fill-rule="evenodd" clip-rule="evenodd" d="M1172.82 734.009L1148.03 692.144L1156.05 687.394L1180.84 729.259L1172.82 734.009Z" fill="#204EB2"/>
                    <path id="Fill 35" fill-rule="evenodd" clip-rule="evenodd" d="M1399.41 934.711L1374.61 892.846L1382.63 888.096L1407.43 929.961L1399.41 934.711Z" fill="#204EB2"/>
                    <path id="Fill 37" fill-rule="evenodd" clip-rule="evenodd" d="M813.093 785.156L788.297 743.291L796.316 738.541L821.113 780.406L813.093 785.156Z" fill="#204EB2"/>
                    <path id="Fill 39" fill-rule="evenodd" clip-rule="evenodd" d="M615.323 969.284L590.527 927.419L598.546 922.669L623.343 964.534L615.323 969.284Z" fill="#204EB2"/>
                    <path id="Fill 41" fill-rule="evenodd" clip-rule="evenodd" d="M576.112 478.276L551.316 436.411L559.335 431.661L584.132 473.526L576.112 478.276Z" fill="#204EB2"/>
                    <path id="Fill 43" fill-rule="evenodd" clip-rule="evenodd" d="M414.148 682.863L389.352 640.998L397.371 636.248L422.168 678.113L414.148 682.863Z" fill="#204EB2"/>
                    <path id="Fill 45" fill-rule="evenodd" clip-rule="evenodd" d="M600.892 737.555L594.52 730.753L630.03 697.488L636.402 704.29L600.892 737.555Z" fill="#204EB2"/>
                    <path id="Fill 47" fill-rule="evenodd" clip-rule="evenodd" d="M889.017 689.818L882.645 683.016L918.155 649.751L924.527 656.553L889.017 689.818Z" fill="#204EB2"/>
                    <path id="Fill 49" fill-rule="evenodd" clip-rule="evenodd" d="M771.38 950.666L765.008 943.864L800.518 910.599L806.89 917.401L771.38 950.666Z" fill="#204EB2"/>
                    <path id="Fill 51" fill-rule="evenodd" clip-rule="evenodd" d="M1221.47 804.046L1215.1 797.244L1250.61 763.979L1256.98 770.781L1221.47 804.046Z" fill="#204EB2"/>
                    <path id="Fill 53" fill-rule="evenodd" clip-rule="evenodd" d="M769.677 539.788L763.305 532.986L798.815 499.721L805.187 506.523L769.677 539.788Z" fill="#204EB2"/>
                    <path id="Fill 55" fill-rule="evenodd" clip-rule="evenodd" d="M1020.29 526.149L1013.92 519.347L1049.43 486.082L1055.8 492.884L1020.29 526.149Z" fill="#204EB2"/>
                    <path id="Fill 57" fill-rule="evenodd" clip-rule="evenodd" d="M1495.49 997.235L1495.44 997.835C1495.23 997.635 1495.01 997.435 1494.78 997.255C1495.01 997.255 1495.25 997.245 1495.49 997.235" fill="#c26e5e"/>
                </g>
            </g>
        </g>
        <g id="Lower Body/Sitting on Floor" transform="matrix(-1 0 0 1 2330 1832) scale(1 1)">
            <g id="Lower Body/Sitting on Floor/Legs Crossed 3">
                <g id="Group 46">
                    <path id="Fill 1" fill-rule="evenodd" clip-rule="evenodd" d="M652.882 663.558C652.882 663.558 610.128 682.102 604.977 674.89C599.826 667.679 644.125 712.494 644.125 712.494L676.062 694.464L652.882 663.558Z" fill="#c26e5e"/>
                    <path id="Stroke 3 (Stroke)" fill-rule="evenodd" clip-rule="evenodd" d="M654.872 663.558L679.787 696.778L645.364 716.211L644.559 715.396L645.625 714.341C644.559 715.396 644.559 715.396 644.559 715.396L644.063 714.895C643.74 714.569 643.267 714.091 642.667 713.486C641.466 712.275 639.757 710.554 637.721 708.51C633.65 704.423 628.277 699.05 623.066 693.903C617.851 688.752 612.81 683.84 609.4 680.67C608.93 680.233 608.496 679.834 608.1 679.475C606.962 679.14 605.941 678.567 605.257 677.609M609.545 676.738C608.72 676.002 608.048 675.431 607.577 675.08C607.383 674.936 607.159 674.779 606.94 674.667C606.847 674.619 606.638 674.517 606.372 674.473C606.158 674.438 605.291 674.366 604.788 675.189C604.587 675.518 604.558 675.838 604.561 676.024C604.563 676.215 604.599 676.37 604.626 676.465C604.679 676.654 604.758 676.813 604.811 676.914C604.926 677.129 605.084 677.368 605.257 677.609M609.545 676.738C609.738 676.774 609.949 676.805 610.179 676.83C611.653 676.993 613.598 676.88 615.909 676.527C620.516 675.821 626.249 674.211 631.892 672.351C637.52 670.497 642.995 668.416 647.067 666.796C649.102 665.987 650.784 665.294 651.957 664.804C652.543 664.559 653.001 664.365 653.313 664.232C653.468 664.166 653.587 664.115 653.667 664.08L653.756 664.042L653.785 664.029C653.785 664.029 653.785 664.029 654.382 665.405L653.785 664.029L654.872 663.558M653.888 667.247C653.662 667.342 653.403 667.451 653.114 667.572C651.928 668.068 650.229 668.767 648.176 669.584C644.071 671.216 638.536 673.321 632.831 675.201C627.141 677.076 621.22 678.749 616.362 679.492C615.165 679.675 614.012 679.806 612.928 679.866C616.265 683.018 620.664 687.314 625.174 691.768C630.393 696.923 635.773 702.303 639.847 706.393C641.884 708.438 643.595 710.162 644.797 711.374C645.228 711.808 645.594 712.178 645.886 712.472L675.337 695.845L653.888 667.247ZM607.462 675.508C607.462 675.508 607.462 675.508 607.462 675.508C607.458 675.5 607.457 675.5 607.462 675.508Z" fill="black"/>
                    <path id="Fill 5" fill-rule="evenodd" clip-rule="evenodd" d="M310.336 686.223C310.336 686.223 247.493 722.795 297.458 779.972C347.423 837.149 524.105 798.001 524.105 798.001L528.741 775.336C528.741 775.336 351.029 689.314 310.336 686.223" fill="#F0ECEC"/>
                    <path id="Fill 7" fill-rule="evenodd" clip-rule="evenodd" d="M310.336 686.223C310.336 686.223 285.611 691.373 277.884 719.704C270.158 748.036 287.189 781.029 312.155 792.09C312.155 792.09 280.291 721.375 336.264 692.209L310.336 686.223Z" fill="#E0D3CC"/>
                    <path id="Fill 9" fill-rule="evenodd" clip-rule="evenodd" d="M330.523 800.127C330.523 800.127 353.089 754.218 363.391 755.248C373.693 756.278 485.214 762.067 496.418 759.945L533.376 774.821L526.841 798.405C526.841 798.405 389.344 830.584 330.523 800.127" fill="#E7DADA"/>
                    <path id="Fill 11" fill-rule="evenodd" clip-rule="evenodd" d="M360.818 713.524C360.818 713.524 352.576 773.276 364.423 773.276C376.271 773.276 379.362 706.312 381.422 729.492C383.483 752.671 385.028 782.033 392.755 773.276C400.481 764.519 384.513 699.616 391.209 717.644C397.905 735.673 402.026 769.67 412.844 769.155C423.661 768.64 408.723 734.128 414.389 733.097C420.055 732.067 431.387 777.912 441.174 772.246C450.962 766.58 432.933 728.977 443.235 742.884C453.537 756.793 456.628 773.276 465.9 771.215C475.172 769.155 464.869 751.127 459.203 742.37C453.537 733.613 366.484 700.13 363.908 704.252C361.333 708.373 360.818 713.524 360.818 713.524" fill="#F9F9F9"/>
                    <g id="Group 15">
                        <path id="Fill 13" fill-rule="evenodd" clip-rule="evenodd" d="M493.714 772.246C493.714 772.246 285.611 711.978 188.771 635.227C91.9312 558.476 35.7842 483.786 90.3852 399.824C144.986 315.861 273.248 379.734 335.061 407.035C396.874 434.336 599.57 472.945 696.28 472.7C792.991 472.454 922.798 465.242 990.277 445.153C1057.76 425.064 1165.41 394.673 1198.38 476.575C1231.35 558.476 1192.71 638.834 1136.05 666.134C1079.39 693.434 904.769 752.157 815.141 746.491L725.512 740.824C725.512 740.824 686.879 698.071 697.181 635.743L643.095 674.891C643.095 674.891 612.189 674.376 600.856 670.255C589.524 666.134 526.681 817.06 493.714 772.246" fill="#E93737"/>
                    </g>
                    <path id="Fill 16" fill-rule="evenodd" clip-rule="evenodd" d="M548.83 779.458C548.83 779.458 639.489 812.939 661.123 826.848C682.758 840.756 727.572 852.603 749.207 837.665C770.841 822.727 757.964 748.552 757.964 748.552C757.964 748.552 685.333 732.067 677.092 720.735C668.85 709.403 602.916 671.801 602.916 671.801L548.83 779.458Z" fill="#c26e5e"/>
                    <path id="Fill 18" fill-rule="evenodd" clip-rule="evenodd" d="M750.197 754.419C750.197 754.419 754.874 742.369 769.297 744.944C783.72 747.521 918.163 732.582 956.796 721.765C995.428 710.947 1077.33 787.698 1041.79 841.784C1006.25 895.871 957.826 870.115 914.042 866.51C870.258 862.904 785.265 875.267 766.206 869.085C747.147 862.904 728.088 851.571 727.573 838.179C727.058 824.786 750.197 754.419 750.197 754.419" fill="#F0ECEC"/>
                    <path id="Fill 20" fill-rule="evenodd" clip-rule="evenodd" d="M946.766 728.819C946.766 728.819 1003.67 756.793 1013.97 795.425C1024.27 834.058 1019.49 864.984 1019.49 864.984C1019.49 864.984 1073.49 839.54 1042.7 779.107C1011.91 718.674 963.523 713.708 946.766 722.63C930.009 731.552 946.766 728.819 946.766 728.819" fill="#E0D3CC"/>
                    <path id="Fill 22" fill-rule="evenodd" clip-rule="evenodd" d="M940.464 727.512C940.464 727.512 917.131 764.519 914.041 791.304C914.041 791.304 916.101 796.455 890.346 795.941C864.59 795.425 744.517 769.076 744.517 769.076C744.517 769.076 718.688 830.95 728.024 846.927C737.359 862.905 914.041 832.513 914.041 832.513C914.041 832.513 921.252 828.392 925.888 831.998C930.524 835.604 954.46 868.63 987.306 875.296C987.306 875.296 936.19 847.966 932.069 811.908C927.948 775.851 940.464 727.512 940.464 727.512" fill="#EEDFD9"/>
                    <path id="Fill 24" fill-rule="evenodd" clip-rule="evenodd" d="M770.842 765.035C770.842 765.035 772.387 800.061 765.691 819.636C758.994 839.21 753.433 856.283 764.97 854.185C776.508 852.088 788.871 774.306 782.175 767.61C775.478 760.914 771.357 758.853 770.842 765.035" fill="white"/>
                    <path id="Fill 26" fill-rule="evenodd" clip-rule="evenodd" d="M789.9 769.155C789.9 769.155 791.445 804.182 784.749 823.757C778.052 843.331 772.491 860.403 784.028 858.305C795.566 856.209 807.929 778.427 801.232 771.731C794.536 765.035 790.415 762.974 789.9 769.155" fill="white"/>
                    <path id="Fill 28" fill-rule="evenodd" clip-rule="evenodd" d="M857.379 770.385C857.379 770.385 858.924 802.423 852.228 820.326C845.531 838.23 839.97 853.846 851.507 851.927C863.045 850.008 875.408 778.865 868.711 772.74C862.015 766.615 857.894 764.731 857.379 770.385" fill="white"/>
                    <path id="Fill 30" fill-rule="evenodd" clip-rule="evenodd" d="M883.135 774.281C883.135 774.281 884.68 804.185 877.984 820.896C871.287 837.608 865.726 852.183 877.263 850.393C888.801 848.602 901.164 782.197 894.467 776.48C887.771 770.762 883.65 769.004 883.135 774.281" fill="white"/>
                    <path id="Fill 32" fill-rule="evenodd" clip-rule="evenodd" d="M901.643 772.124C901.643 772.124 907.419 801.505 903.164 818.998C898.909 836.491 895.474 851.709 906.64 848.298C917.806 844.887 920.613 777.398 913.173 772.69C905.732 767.982 901.403 766.826 901.643 772.124" fill="white"/>
                    <path id="Fill 34" fill-rule="evenodd" clip-rule="evenodd" d="M813.854 771.405C813.854 771.405 811.809 806.407 803.146 825.194C794.482 843.98 787.204 860.394 798.896 859.488C810.587 858.582 830.84 782.472 824.864 775.127C818.887 767.78 814.999 765.309 813.854 771.405" fill="white"/>
                    <path id="Fill 36" fill-rule="evenodd" clip-rule="evenodd" d="M823.955 770.756C823.955 770.756 830.916 805.119 827.338 825.495C823.759 845.871 820.914 863.601 831.987 859.738C843.059 855.876 843.204 777.118 835.55 771.542C827.895 765.966 823.505 764.569 823.955 770.756" fill="white"/>
                    <path id="Fill 38" fill-rule="evenodd" clip-rule="evenodd" d="M746.711 766.726C746.711 766.726 779.083 773.791 772.387 812.939C765.69 852.087 725.013 841.055 725.013 841.055C725.013 841.055 715.37 776.66 746.711 766.726" fill="white"/>
                    <path id="Stroke 40" d="M291.065 424.357L575.396 648.638L636.95 674.564L702.127 633.966L925.942 492.37L928.081 495.75L704.254 637.354L637.307 679.054L573.345 652.114L288.588 427.497L291.065 424.357Z" fill="black"/>
                    <path id="Fill 42" fill-rule="evenodd" clip-rule="evenodd" d="M709.028 612.563C709.028 612.563 662.669 625.44 649.791 647.59C636.913 669.74 641.034 707.857 679.152 723.826C717.27 739.794 732.723 753.187 722.936 727.947C713.149 702.707 695.12 656.346 709.028 612.563" fill="#F0ECEC"/>
                    <path id="Fill 44" fill-rule="evenodd" clip-rule="evenodd" d="M574.07 641.923C574.07 641.923 569.434 693.434 541.103 733.612C512.773 773.791 487.532 777.911 496.804 787.698C506.076 797.485 520.499 802.121 529.771 814.485C539.043 826.847 538.528 826.331 560.162 800.576C581.797 774.82 629.187 717.644 630.217 666.649C630.217 666.649 578.191 624.925 574.07 641.923" fill="#F0ECEC"/>
                </g>
            </g>
        </g>
        <g id="Expression" transform="translate(1633 1412) scale(1 1)">
            <g id="Expression/Make Up Holding Laughter">
                <g id="Group 19">
                    <path id="Fill 12" fill-rule="evenodd" clip-rule="evenodd" d="M60.907 148.95C60.907 148.95 58.4517 164.71 80.2133 170.654C101.975 176.596 112.274 175.16 113.228 164.956C113.228 164.956 111.248 153.38 106.128 152.18C101.008 150.979 95.1886 153.046 95.1886 153.046C95.1886 153.046 90.9633 145.481 85.4422 145.426C79.92 145.372 68.1822 150.211 60.907 148.95" fill="#CE4129"/>
                    <path id="Fill 10" fill-rule="evenodd" clip-rule="evenodd" d="M98.6818 162.979C82.8283 158.554 63.9074 152.977 58.27 149.093C54.1566 146.258 52.4494 146.586 52.4325 146.591C52.4335 146.591 54.5687 141.687 60.5387 145.798C66.3499 149.803 91.494 156.82 99.7574 159.127C114.212 163.16 115.647 162.587 117.465 161.864L118.946 165.578C117.185 166.282 115.566 166.635 112.083 166.146C109.232 165.745 105.132 164.779 98.6818 162.979Z" fill="black"/>
                    <path id="Fill 17" fill-rule="evenodd" clip-rule="evenodd" d="M86.4619 223.176C72.6079 223.176 58.2859 219.136 48.0139 215.404C34.8549 210.623 25.3079 205.297 25.2129 205.244L26.6809 202.627C27.0519 202.836 64.1469 223.389 93.7939 219.746L94.1609 222.723C91.6319 223.034 89.0539 223.176 86.4619 223.176" fill="black"/>
                </g>
                <g id="Group 124">
                    <path id="Stroke 114" d="M123.94 52.5157L127.749 53.7377L127.377 54.931C127.077 55.9043 126.744 57.0179 126.384 58.2529C125.356 61.7838 124.327 65.5761 123.368 69.479C122.301 73.8176 121.387 78.025 120.672 81.9977L120.465 83.1741C118.727 93.2777 118.482 100.993 120.034 105.142L120.126 105.377C129.004 127.34 116.948 138.478 91.6439 130.679L90.873 130.437L92.0921 126.627C114.886 133.921 124.027 125.703 116.417 106.876C114.322 101.694 114.645 92.8994 116.735 81.289C117.466 77.2273 118.398 72.9394 119.483 68.524C120.349 65.0028 121.269 61.5728 122.196 58.3382L122.543 57.1345C122.752 56.4176 122.952 55.7406 123.143 55.1069L123.631 53.5025L123.94 52.5157Z" fill="black"/>
                    <path id="Stroke 122" d="M25.1855 205.534L27.1425 202.046L27.8567 202.435L28.5118 202.783C29.5036 203.305 30.6327 203.881 31.8877 204.498L32.4332 204.765C36.6543 206.821 41.3224 208.878 46.301 210.798C57.7489 215.212 69.0606 218.225 79.5848 219.202C84.3541 219.645 88.8741 219.656 93.1069 219.202L93.9496 219.105L94.4385 223.075C89.6635 223.663 84.5751 223.683 79.2149 223.185C68.2771 222.169 56.6257 219.066 44.8619 214.53C39.7712 212.567 35.0001 210.465 30.6815 208.361L29.0484 207.554C28.354 207.206 27.7021 206.873 27.0948 206.556L25.9633 205.958L25.1855 205.534Z" fill="black"/>
                </g>
                <g id="Group 16">
                    <path id="Fill 5" fill-rule="evenodd" clip-rule="evenodd" d="M105.825 133.166C101.782 133.166 96.7384 132.375 90.4434 130.361L91.6614 126.551C103.385 130.302 112.045 129.996 116.046 125.687C119.449 122.02 119.428 115.313 115.987 106.801C113.652 101.026 114.229 90.0734 117.702 74.2454C120.243 62.6624 123.477 52.5414 123.51 52.4404L127.318 53.6624C123.811 64.5954 115.606 95.1874 119.695 105.302C124.893 118.16 122.174 124.964 118.977 128.408C116.697 130.866 112.718 133.166 105.825 133.166" fill="black"/>
                </g>
                <path id="Fill 12_2" fill-rule="evenodd" clip-rule="evenodd" d="M78.6366 79.1288C77.9116 79.1288 77.1856 78.8679 76.6096 78.3389C76.5716 78.3049 71.6246 73.9129 64.4836 74.1789C57.0946 74.4519 52.1896 78.0668 52.1406 78.1028C50.8186 79.0928 48.9396 78.8329 47.9446 77.5169C46.9476 76.1999 47.1966 74.3309 48.5086 73.3279C48.7646 73.1319 54.8866 68.5299 64.2616 68.1829C73.9106 67.8359 80.3946 73.6699 80.6656 73.9189C81.8866 75.0389 81.9686 76.9369 80.8476 78.1569C80.2566 78.8019 79.4476 79.1288 78.6366 79.1288" fill="black"/>
                <path id="Fill 7" fill-rule="evenodd" clip-rule="evenodd" d="M27.6727 64.1793C27.6727 64.1793 39.1028 50.5029 49.4237 44.7334C55.7963 41.1716 95.1317 33.549 96.5704 41.6098C97.9716 49.4634 93.9254 49.7345 78.2425 52.2885C62.5593 54.8416 55.2116 55.4732 46.9705 59.3462C38.7282 63.2186 29.4179 68.4952 27.6727 64.1793" fill="black"/>
                <path id="Fill 10_2" fill-rule="evenodd" clip-rule="evenodd" d="M179.399 73.8038C179.399 73.8038 180.847 65.5116 178.853 60.0966C176.857 54.6832 152.161 32.1514 144.915 34.1123C133.403 37.2283 137.551 42.7447 152.125 52.5458C163.845 60.4288 168.517 63.4635 172.938 69.0172C178.979 76.6053 178.526 75.0269 179.399 73.8038" fill="black"/>
                <path id="Fill 14" fill-rule="evenodd" clip-rule="evenodd" d="M162.754 88.2724C162.029 88.2724 161.303 88.0114 160.727 87.4824C160.689 87.4484 155.742 83.0504 148.6 83.3224C141.231 83.5944 136.317 87.2014 136.27 87.2374C134.953 88.2444 133.07 87.9924 132.064 86.6764C131.058 85.3604 131.309 83.4774 132.625 82.4714C132.881 82.2754 139.004 77.6724 148.379 77.3264C158.024 76.9814 164.512 82.8134 164.783 83.0624C166.004 84.1824 166.086 86.0804 164.965 87.3004C164.374 87.9454 163.565 88.2724 162.754 88.2724" fill="black"/>
            </g>
        </g>
        <g id="Hairstyle" transform="translate(1142 1085) scale(1 1)">
            <g id="Hairstyle/Curly Bun">
                <g id="Group 11">
                    <g id="Group 3">
                        <mask id="mask0_406_1399581201d2b-cc92-4a51-9e08-a31e0e4a3cbc" style="mask-type:luminance" maskUnits="userSpaceOnUse" x="483" y="49" width="216" height="153" fill="#ffffff">
                            <path id="Clip 2" fill-rule="evenodd" clip-rule="evenodd" d="M483.328 49H698.919V201.584H483.328V49Z" fill="#ffffff"/>
                        </mask>
                        <g mask="url(#mask0_406_1399581201d2b-cc92-4a51-9e08-a31e0e4a3cbc)">
                            <path id="Fill 1" fill-rule="evenodd" clip-rule="evenodd" d="M660.964 199.644C660.964 199.644 656.9 190.215 679.049 189.185C701.199 188.155 709.956 142.826 678.019 122.736C646.082 102.647 680.595 81.5284 631.659 56.2884C582.724 31.0474 558.514 79.4674 558.514 79.4674C558.514 79.4674 507.004 59.3784 488.975 100.587C470.946 141.795 501.852 158.279 501.852 158.279C501.852 158.279 481.248 172.187 497.732 189.185C514.215 206.184 558.697 187.293 566.075 196.481C573.452 205.669 660.964 199.644 660.964 199.644" fill="#c38741"/>
                        </g>
                    </g>
                    <path id="Fill 4" fill-rule="evenodd" clip-rule="evenodd" d="M512.848 209.085C512.848 209.085 528.438 180.366 565.525 177.683C602.613 175 619.251 188.172 623.552 209.085C627.853 229.998 512.848 209.085 512.848 209.085" fill="white"/>
                    <g id="Group 8">
                        <mask id="mask1_406_1399581201d2b-cc92-4a51-9e08-a31e0e4a3cbc" style="mask-type:luminance" maskUnits="userSpaceOnUse" x="434" y="197" width="251" height="222" fill="#ffffff">
                            <path id="Clip 7" fill-rule="evenodd" clip-rule="evenodd" d="M434 197.303H684.515V418.595H434V197.303Z" fill="#ffffff"/>
                        </mask>
                        <g mask="url(#mask1_406_1399581201d2b-cc92-4a51-9e08-a31e0e4a3cbc)">
                            <path id="Fill 6" fill-rule="evenodd" clip-rule="evenodd" d="M456.323 396.258C456.323 396.258 454.778 389.562 464.565 380.29C474.352 371.018 470.746 328.264 493.926 320.537C517.106 312.811 555.739 273.148 573.767 273.148C591.796 273.148 622.703 289.631 635.065 288.601C647.428 287.571 663.911 312.296 664.941 325.173C665.971 338.051 682.856 361.09 672.353 418.595C672.353 418.595 684.515 399.349 684.515 376.684C684.515 354.019 681.425 348.868 682.97 316.417C684.515 283.965 680.91 250.483 657.215 235.03C633.52 219.576 618.582 191.246 582.009 198.457C545.437 205.669 517.106 196.912 495.471 220.092C479.558 237.142 455.808 248.938 450.657 283.965C445.858 316.597 419.362 331.686 445.054 366.805C445.054 366.805 456.323 384.926 456.323 396.258Z" fill="#c38741"/>
                        </g>
                    </g>
                    <path id="Fill 9" fill-rule="evenodd" clip-rule="evenodd" d="M515.502 206.745C515.502 206.745 522.323 178.486 567.323 175.486C612.323 172.486 621.086 191.87 623.205 207.678C623.205 207.678 604.716 195.311 581.02 200.399C557.323 205.486 530.681 202.004 515.502 206.745" fill="#56ACF6"/>
                </g>
            </g>
        </g>
        <g id="Accessories" transform="translate(1586 1445) scale(234 78)">
            <g id="Accessories/None" stroke="none" stroke-width="1" fill="none" fill-rule="evenodd" fill-opacity="0"/></g>
        <g id="Facial Hair" transform="translate(1596 1446) scale(212 211)">
            <g id="Facial Hair/None" stroke="none" stroke-width="1" fill="none" fill-rule="evenodd" fill-opacity="0"/></g>
    </g>
</svg>