<svg xmlns="http://www.w3.org/2000/svg" fill="none" viewBox="0 0 640 560" width="640" height="560"><defs><clipPath id="assetClipPath_2UaO62ZA"><path d="m0 0 h 1600 v 1400 h -1600 v -1400 z" id="path_GteO1j5t" fill="#ffffff" /></clipPath><clipPath id="clipPath_h8XZ877O"><path d="m0 0 h 456.961 v 466.849 h -456.961 v -466.849 z" id="path_xtb0dW6i" /></clipPath><clipPath id="clipPath_BRK8QU2u"><path d="m0 0 h 2115.127 v 234.347 h -2115.127 v -234.347 z" id="path_cM67Nvnq" /></clipPath><clipPath id="clipPath_6cpQ61VY"><path d="m0 0 h 1006.627 v 840.871 h -1006.627 v -840.871 z" id="path_-og1K2JF" /></clipPath><clipPath id="clipPath_o3IwzkKi"><path d="m0 0 h 74.021 v 106.33 h -74.021 v -106.33 z" id="path_0KbbWvpq" /></clipPath><clipPath id="clipPath_ByRgHnIK"><path d="m0 0 h 74.021 v 106.33 h -74.021 v -106.33 z" id="path_GEvQoxaC" /></clipPath><clipPath id="clipPath_W71O-Hef"><path d="m0 0 h 154.394 v 192.068 h -154.394 v -192.068 z" id="path_e1rb3ASN" /></clipPath></defs><g transform="" data-asset-index="0"><g clip-path="url(#assetClipPath_2UaO62ZA)" transform="scale(0.4 0.4)" data-asset-index="0"><defs /><g transform="translate(457.0 204.0) rotate(0.0 233.5 238.5) scale(1.021969052063524 1.021743647303518)" id="j2N0Ie7-TVKUP6qQbUrC"><g clip-path="url(#clipPath_h8XZ877O)" transform="matrix(1 0 0 1 0 0)" id="a1BolPSOSiUjas9-_DDGZ"><path d="M168.55 466.849a1.497 1.497 0 0 1-1.501-1.505l.62-168.025L5.371 340.813a1.501 1.501 0 0 1-1.32-2.625l131.754-104.277L.609 134.138a1.5 1.5 0 0 1 1.229-2.668l163.674 37.994-6.287-167.908a1.5 1.5 0 0 1 2.853-.702l72.344 151.654L361.777 42.902a1.5 1.5 0 0 1 2.328 1.793l-73.462 151.116 165.098 31.232a1.5 1.5 0 0 1 .05 2.937l-163.95 36.784 78.519 148.552a1.5 1.5 0 0 1-2.266 1.871L237.114 311.94l-67.187 154.009a1.5 1.5 0 0 1-1.374.9zm.627-172.987a1.504 1.504 0 0 1 1.5 1.506l-.601 162.73 65.07-149.156a1.503 1.503 0 0 1 2.315-.57l126.854 101.931-76.045-143.871a1.5 1.5 0 0 1 .998-2.165l158.784-35.625-159.896-30.248a1.5 1.5 0 0 1-1.071-2.129L358.233 49.91 234.891 156.062a1.5 1.5 0 0 1-2.333-.491L162.494 8.695l6.091 162.618a1.497 1.497 0 0 1-1.838 1.517L8.229 136.034l130.937 96.629a1.5 1.5 0 0 1 .04 2.383L11.604 336.037l157.185-42.124a1.51 1.51 0 0 1 .388-.051z" fill="#53BCAF" id="WiIHnq7Fz865bo8AmSq" /></g></g><g transform="translate(63.0 1028.0) rotate(0.0 738.5 82.5) scale(0.6983032224542546 0.7040841145822221)" id="jsSOqmnZSTUy0xo9o1lp5"><g clip-path="url(#clipPath_BRK8QU2u)" transform="matrix(1 0 0 1 0 0)" id="jxONpiE6VXaTjBD8w9n9d"><circle cx="1876.663" cy="47.874" fill="#25968A" r="8.744" id="VmIoFiDjMYDwxomVl8qt" /><path d="M1879.047 48.384c4.17-15.572 24.376-39.041 52.914-48.357 20.946-1.388 37.234 50.832 7.418 60.681-18.244 3.742-44.733 1.95-60.332-12.324z" fill="#25968A" id="qD7DYyJ-dQ0ojeEIDrpLh" /><path d="M1908.526 47.993a1.5 1.5 0 0 1-.173-2.99c9.691-1.139 34.582-7.418 46.759-12.279a1.5 1.5 0 1 1 1.111 2.786c-12.362 4.935-37.66 11.313-47.521 12.472a1.3 1.3 0 0 1-.176.011zm10.555-11.077a1.501 1.501 0 0 1-.277-2.974c3.097-.586 11.466-3.264 15.462-5.097a1.497 1.497 0 0 1 1.989.738 1.5 1.5 0 0 1-.737 1.989c-4.242 1.946-12.838 4.69-16.157 5.318a1.577 1.577 0 0 1-.28.026zm-36.251 18.657a1.5 1.5 0 0 1-1.057-2.563c2.832-2.816 2.844-7.412.027-10.244a1.5 1.5 0 1 1 2.127-2.115 10.17 10.17 0 0 1 2.98 7.251 10.17 10.17 0 0 1-3.02 7.235 1.491 1.491 0 0 1-1.057.436z" fill="#003029" id="z51wVImeGa3IfnvGnV8Ne" /><path d="M2011.781 195.53H103.346l140-146.184h1628.435z" fill="#25968A" id="hu7oHzJ5BPWgVg9ZCuwi" /><path d="M1881.088 60.564c-.395 0-.789-.155-1.083-.462l-8.864-9.256h-10.045a1.5 1.5 0 1 1 0-3h10.686c.409 0 .801.167 1.083.462l9.307 9.718a1.5 1.5 0 0 1-1.084 2.538z" fill="#003029" id="jQEbBVFcx1h9Wp10jMtTs" /><circle cx="2011.781" cy="195.53" fill="#25968A" r="8.744" id="DcJD_2mbvUWfiFfg2JyNU" /><path d="M2007.336 204.562c-.259 0-.521-.067-.761-.208a10.208 10.208 0 0 1-3.999-4.329 10.278 10.278 0 0 1 .721-10.238 1.5 1.5 0 0 1 2.486 1.68 7.271 7.271 0 0 0-.512 7.242 7.218 7.218 0 0 0 2.827 3.061 1.501 1.501 0 0 1-.762 2.792z" fill="#003029" id="LQzHynmxGYwZIFtTN6T2" /><path d="M2013.873 196.782c25.521-19.212 57.778-24.153 87.796-23.765 20.274 5.443 18.847 60.125-12.551 59.831-18.478-2.344-56.337-13.1-75.245-36.066z" fill="#25968A" id="tXkgocexYKRGjSC-4qawc" /><g fill="#003029" id="WqB1jwtgAyiozCAvYdHJ"><path d="M2089.116 234.347c-.271 0-.545-.073-.792-.227-9.466-5.892-17.038-21.078-11.295-40.496 4.095-13.841 13.543-22.32 24.667-22.107a1.5 1.5 0 0 1-.026 2.999h-.028a20.86 20.86 0 0 0-.353-.003c-11.403 0-18.517 10.272-21.383 19.962-3.832 12.956-1.627 29.859 10.004 37.098a1.5 1.5 0 0 1-.794 2.774zm-57.298-20.549c-.268 0-.537-.071-.781-.22a73.567 73.567 0 0 1-18.318-15.839 1.499 1.499 0 0 1 .25-2.153c5.217-3.945 11.138-7.59 18.102-11.143a1.5 1.5 0 0 1 1.364 2.672c-6.242 3.186-11.618 6.439-16.382 9.917a70.68 70.68 0 0 0 16.55 13.987 1.499 1.499 0 0 1-.785 2.779zm8.715-22.213a1.501 1.501 0 0 1-.66-2.848c6.856-3.349 18.636-5.331 26.238-5.495h.033a1.5 1.5 0 0 1 .031 3c-6.237.135-18.113 1.835-24.986 5.191a1.506 1.506 0 0 1-.656.152z" fill="#003029" id="glUSjZ010HkD4nTTQGWU" /><path d="M2074.28 213.687c-6.131 0-15.019-.758-18.662-1.522a1.499 1.499 0 1 1 .615-2.936c3.999.839 15.166 1.697 20.684 1.396.819-.067 1.534.589 1.58 1.416a1.501 1.501 0 0 1-1.416 1.58c-.832.045-1.779.066-2.801.066z" fill="#003029" id="OGewBQC-sVmvqxtJCM6go" /></g><circle cx="103.346" cy="195.53" fill="#25968A" r="8.744" id="DQamfiLAYnXH6nFv0wZEB" /><path d="M107.792 204.562a1.5 1.5 0 0 1-.763-2.793 7.213 7.213 0 0 0 2.827-3.061 7.271 7.271 0 0 0-.511-7.242 1.5 1.5 0 1 1 2.486-1.68 10.278 10.278 0 0 1 .721 10.238 10.192 10.192 0 0 1-4 4.329c-.24.142-.502.209-.76.209z" fill="#003029" id="fv9mCR53-OMkNvP7Pw2r" /><path d="M101.254 196.782c-25.521-19.212-57.778-24.153-87.796-23.765-20.274 5.443-18.847 60.125 12.551 59.831 18.477-2.344 56.337-13.1 75.245-36.066z" fill="#25968A" id="ce7m7_YNa1mB2Wckspgsw" /><path d="M26.011 234.347a1.5 1.5 0 0 1-.794-2.774c11.63-7.239 13.836-24.142 10.003-37.099-2.895-9.789-10.098-20.143-21.734-19.959h-.028a1.5 1.5 0 0 1-.027-2.999c11.163-.208 20.573 8.266 24.667 22.107 5.744 19.418-1.829 34.604-11.295 40.496a1.484 1.484 0 0 1-.792.228zm57.298-20.549a1.5 1.5 0 0 1-.783-2.78 70.664 70.664 0 0 0 16.55-13.987c-4.765-3.479-10.14-6.732-16.382-9.917a1.5 1.5 0 1 1 1.364-2.672c6.963 3.553 12.885 7.198 18.103 11.143a1.498 1.498 0 0 1 .25 2.153 73.595 73.595 0 0 1-18.319 15.839c-.246.15-.516.221-.783.221zm-8.715-22.213c-.221 0-.445-.049-.657-.153-6.873-3.356-18.749-5.056-24.987-5.191a1.5 1.5 0 0 1 .032-3h.033c7.603.164 19.382 2.146 26.239 5.495a1.499 1.499 0 0 1 .689 2.006 1.5 1.5 0 0 1-1.349.843z" fill="#003029" id="tp388kw1RiHZAq-oyP3Sj" /><path d="M40.847 213.687c-1.023 0-1.969-.021-2.801-.067-.827-.045-1.461-.752-1.416-1.58s.767-1.475 1.58-1.416c5.519.299 16.685-.558 20.684-1.396a1.5 1.5 0 0 1 .616 2.936c-3.644.765-12.532 1.523-18.663 1.523z" fill="#003029" id="FZQetzRhPq2S6FTGTevax" /><circle cx="238.942" cy="47.874" fill="#25968A" r="8.744" id="if37Y3ATS-LrK4-0wv5d" /><path d="M236.558 48.384c-4.17-15.572-24.376-39.041-52.914-48.357-20.946-1.388-37.234 50.832-7.418 60.681 18.245 3.742 44.733 1.95 60.332-12.324z" fill="#25968A" id="colTF6ciocbbJdRq9_IZs" /><path d="M207.079 47.993a1.5 1.5 0 0 1-.177-.01c-9.86-1.159-35.158-7.538-47.521-12.472a1.5 1.5 0 1 1 1.112-2.786c12.176 4.86 37.067 11.14 46.759 12.279a1.5 1.5 0 0 1-.173 2.989zm-10.555-11.077c-.092 0-.186-.009-.28-.027-3.319-.627-11.915-3.372-16.156-5.318a1.5 1.5 0 0 1 1.251-2.727c3.997 1.833 12.366 4.511 15.463 5.097a1.5 1.5 0 0 1-.278 2.975zm36.252 18.657c-.382 0-.765-.146-1.058-.437-1.94-1.93-3.013-4.499-3.02-7.235s1.051-5.312 2.981-7.251a1.5 1.5 0 1 1 2.127 2.115c-1.365 1.372-2.113 3.193-2.108 5.128s.764 3.752 2.135 5.116a1.5 1.5 0 0 1-1.057 2.564zm-2.965 9.407a1.5 1.5 0 0 1-1.084-2.538l13.536-14.134a1.5 1.5 0 0 1 1.083-.462h.002l14.122.017a1.5 1.5 0 0 1-.002 3h-.002l-13.48-.016-13.092 13.67a1.495 1.495 0 0 1-1.083.463z" fill="#003029" id="C5tkUdgcVwaDI5qiiYP8Y" /></g></g><g transform="translate(310.0 306.0) rotate(0.0 503.5 420.5) scale(1.0003705444022464 1.0001534123545706)" id="M_CFQqXI8XwSpM7rswkN"><g clip-path="url(#clipPath_6cpQ61VY)" transform="matrix(1 0 0 1 0 0)" id="orlI8ZPdEaKUJv2_XBMw_"><path d="M509.948 469.22c49.111 76.701 63.255 179.06-55.965 235.401-99.436 46.991-260.649 171.212-343.724 97.763-48.34-42.739-39.757-120.894 35.485-171.442 70.058-47.066 224.824-103.491 224.824-103.491s90.269-134.932 139.38-58.231z" fill="#FFA78E" id="kDCiEuhjtAMHFfWD0QpHb" /><path d="M496.399 469.22c-49.111 76.701-63.255 179.06 55.965 235.401C651.8 751.612 838.338 839.889 869.863 826.1c84.624-37.014 82.212-133.707-9.26-195.158-70.058-47.067-224.824-103.492-224.824-103.492s-90.269-134.931-139.38-58.23z" fill="#FFA78E" id="CnSQoRH_7EXO9yxtMM_Ki" /><path d="M509.948 469.22c49.111 76.701 63.255 179.06-55.965 235.401-23.386 11.052-63.673 33.955-92.074 49.975-21.974-73.013-81.643-147.868-121.355-173.865 51.205-24.302 130.014-53.281 130.014-53.281s90.269-134.931 139.38-58.23z" fill="#50B9AD" id="hfH84tond6baEkQhlpEfg" /><path d="M496.399 469.22c-49.111 76.701-63.255 179.06 55.965 235.401 30.06 14.206 68.081 32.185 107.372 49.976 42.899-102.519 103.607-149.474 125.313-164.919-70.565-33.533-149.27-62.228-149.27-62.228s-90.269-134.931-139.38-58.23z" fill="#50B9AD" id="SW6hdJjnrJhFjclAndUOr" /><circle cx="718.27" cy="116.047" fill="#FFBBA0" r="39.404" id="rxmgBzPDSEdI5v3xWJJq8" /><circle cx="670.305" cy="153.065" fill="#FFBBA0" r="27.386" id="r9HNNDIWCt8OjGgPGBDXX" /><circle cx="604.206" cy="182.258" fill="#FFBBA0" r="50.401" id="q1eRGtUfjGh2j3UDIpZEV" /><path d="M711.11 79.304c-19.904-.661-26.535 21.177-43.904 21.181-45.447.008-21.447-105.886-106.213-100.269-42.555 2.82-62.405 42.894-62.405 76.734 0 0 3.262 104.169 58.802 123.995 59.989 21.415 187.816-85.708 153.72-121.641z" fill="#FFBBA0" id="dH3FgaV9ewpyIxvmoggHl" /><path d="M564.082 181.158c19.752 5.714 31.592-7.294 30.849-19.106-1.004-15.966-20.259-26.839-30.504-11.005z" fill="#FFA78E" id="AyyuHEytNxZrK1Jko235P" /><path d="M583.432 168.498c-.327 0-.656-.106-.932-.325l-12.14-9.637a1.5 1.5 0 1 1 1.865-2.349l12.14 9.637a1.5 1.5 0 0 1-.933 2.674z" fill="#003029" id="ucHbD7aw0ZfmfbA3RUkKt" /><path d="M573.068 169.154a1.498 1.498 0 0 1-1.162-2.447l9.654-11.859a1.5 1.5 0 1 1 2.326 1.894l-9.654 11.859a1.496 1.496 0 0 1-1.164.553z" fill="#003029" id="uBbsqmlEnu0dppD0Ie2JE" /><path d="m441.918 151.047.344 30.112c-19.752 5.714-31.592-7.294-30.849-19.106 1.005-15.967 20.26-26.84 30.505-11.006" fill="#FFA78E" id="pBMr1DOxFNCmc77TwGBSy" /><path d="M422.913 168.498a1.5 1.5 0 0 1-.934-2.674l12.14-9.637a1.5 1.5 0 1 1 1.865 2.349l-12.14 9.637a1.5 1.5 0 0 1-.931.325z" fill="#003029" id="XKljISzbdSzYV4ddZ5rLY" /><path d="M433.276 169.154c-.436 0-.868-.189-1.164-.553l-9.654-11.859a1.5 1.5 0 0 1 2.326-1.894l9.654 11.859a1.5 1.5 0 0 1-1.162 2.447z" fill="#003029" id="b1WwOVO-SYTt3wl2ORdx" /><path d="M441.255 159.733c-17.635 43.206 16.738 78.219 61.919 78.219s79.55-35.013 61.919-78.219c8.009-38.752-9.826-82.784-61.423-82.784s-70.424 44.033-62.415 82.784z" fill="#FFA78E" id="Y9Xh356q5llJ0PIpxKMbn" /><path d="M514.29 188.342c11.852-13.041-7.041-20.126-10.773-7.41-6.353-15.014-21.608-2.057-10.22 7.41-4.048 5.278-.684 15.61 10.22 15.61 10.324 0 14.978-8.252 10.773-15.61z" fill="#FE5236" id="HcSs_zUg6vwrlzDKb8MSg" /><path d="M504.528 190.765c-.34 0-.684-.002-1.033-.007-4.006-.055-13.386-.185-22.578-7.007a1.502 1.502 0 0 1 1.788-2.41c8.414 6.246 16.8 6.361 20.831 6.417 9.804.154 15.858-1.726 21.633-6.642a1.5 1.5 0 1 1 1.944 2.284c-6.181 5.262-12.579 7.365-22.585 7.365zm30.319-21.621c-5.633 0-11.058-1.787-15.773-5.359a1.501 1.501 0 0 1 1.812-2.392c8.356 6.331 19.294 6.306 29.259-.068a1.5 1.5 0 0 1 1.616 2.528c-5.516 3.528-11.318 5.291-16.914 5.291zm-63.761 0c-5.597 0-11.397-1.763-16.914-5.291a1.5 1.5 0 0 1 1.616-2.528c9.966 6.374 20.904 6.399 29.259.068a1.5 1.5 0 1 1 1.812 2.392c-4.714 3.572-10.14 5.359-15.773 5.359z" fill="#003029" id="rsevrtYSdQuD2D91I8dio" /><path d="M440.174 131.858c3.879-29.326 24.168-54.908 63.496-54.908s59.041 25.582 62.646 54.908c-74.259-25.713-103.365-2.961-126.142 0zm120.331 1.64s-2.747 28.681 1.532 28.681 5.617-25.362 5.617-25.362z" fill="#FFBBA0" id="p5J4nppP7SwwKDSyzsHOq" /><path d="M566.314 133.357a1.5 1.5 0 0 1-1.487-1.317c-1.871-15.222-7.918-28.21-17.487-37.562-10.883-10.635-25.576-16.028-43.67-16.028-3.402 0-6.739.198-9.92.588a1.5 1.5 0 1 1-.365-2.977 84.844 84.844 0 0 1 10.286-.61c18.64 0 34.466 5.838 45.768 16.884 10.061 9.833 16.412 23.437 18.367 39.341a1.5 1.5 0 0 1-1.492 1.681z" fill="#003029" id="YiW2BRYSDMKKdIDX0syke" /><path d="M564.427 118.047c-39.527-24.022-80.435-22.802-122.508 0-4.752 2.823-6.867 25.261-2 23 42.074-22.802 86.981-24.022 126.508 0 4.866 3.047 3.373-20.201-2-23z" fill="#50B9AD" id="u33mo-rwhgAJ4Z6Nj6e" /><path d="M454.299 143.284c-44.691 19.26-73.763-37.376-52.299-67.433 18.415-25.789 48.507-23.778 73.266 7.777 21.643-1.753 23.426 2.321 18.471 17.183-4.959 14.881-13.707 31.384-39.438 42.473z" fill="#FFBBA0" id="acVku1Vsljof_n7sBlDP" /><path d="M445.786 133.498s2.747 28.681-1.532 28.681-5.617-25.362-5.617-25.362z" fill="#FFBBA0" id="kig8xCohK4qFpTRK0nO-b" /><path d="M438.037 148.734c-.54 0-1.067-.016-1.582-.047-.827-.051-1.456-.762-1.405-1.589s.779-1.46 1.589-1.405c4.349.265 11.273-.787 16.971-3.74a1.499 1.499 0 1 1 1.381 2.663c-4.891 2.534-11.5 4.118-16.954 4.118z" fill="#003029" id="fLfM1GCtCy2ObrcC36oz5" /><path d="M865.014 684.67c-66.742-23.102-156.191-49.309-391.085-38.085l-143.218 53.83s253.26 119.12 408.445 137.298c242.235 28.373 181.413-143.498 125.858-153.043z" fill="#FFA78E" id="hyWziTijGZjSdl3OMv14P" /><path d="M595.844 643.904c-31.26.004-83.36.838-121.915 2.681-26.722-28.538-43.678-34.622-86.634-24.788-26.619 6.095-65.961 13.244-121.125 26.283-15.003 3.546-26.998 8.481-36.026 13.16-7.446 3.859-5.213 15.043 3.147 15.713l25.351 2.032 72.068 21.431c.01.005 101.318 47.026 206.651 84.33z" fill="#FFFFFF" id="FhyKjegrzcvvyCZ4tx136" /><path d="m506.65 772.944 68.97-139.418 7.171 3.547-68.97 139.418zm-17.489-7.278 66.244-133.907 7.17 3.547-66.243 133.907z" fill="#FFA99B" id="yPGOImVRv7jiYgfc_JXvx" /><path d="M537.362 786.245c-.167 0-.335-.028-.501-.086-102.325-36.239-202.448-82.355-206.686-84.338l-71.81-21.354-25.194-2.019c-4.486-.359-7.96-3.438-8.849-7.844-.892-4.419 1.122-8.618 5.131-10.695 11.042-5.723 23.279-10.193 36.371-13.288 34.463-8.146 62.828-14.01 85.62-18.721 13.7-2.832 25.532-5.278 35.515-7.564 41.916-9.595 60.058-4.52 87.589 24.719 38.362-1.813 89.675-2.645 121.294-2.649a1.501 1.501 0 0 1 1.386 2.075l-58.48 140.839a1.503 1.503 0 0 1-1.386.925zM419.146 618.862c-8.921 0-19.108 1.556-31.515 4.396-10.015 2.292-21.861 4.742-35.578 7.577-22.773 4.708-51.115 10.566-85.537 18.703-12.853 3.038-24.858 7.422-35.681 13.032-3.389 1.756-4.042 5.104-3.571 7.438.469 2.323 2.36 5.144 6.147 5.447l25.351 2.032c.104.008.208.027.308.057l72.068 21.431c.07.021.139.047.205.078 1.004.466 101.135 46.86 205.179 83.801l57.074-137.45c-31.923.042-82.102.886-119.595 2.678a1.533 1.533 0 0 1-1.167-.473c-19.015-20.306-32.913-28.747-53.688-28.747z" fill="#003029" id="rfd-73jrV0QFne03F7w0j" /><path d="M134.649 687.833c36.982-20.724 170.77-75.107 380.387-76.388l143.218 53.83S485.059 767.757 280.101 822.392c-71.367 19.024-127.363 18.809-166.865-17.499-43.4-39.889-9.977-94.933 21.413-117.06z" fill="#FFA78E" id="PeiDsm7JSN0AcqZdNaGG2" /><path d="M758.82 626.1c-9.028-4.679-21.022-9.613-36.026-13.16-55.164-13.039-94.505-20.188-121.125-26.282-42.956-9.835-60.008-3.75-86.73 24.788-52.578 1.467-113.074 4.345-153.933 11.119l71.032 149.763c121.677-48.154 197.627-90.803 226.215-107.052l72.068-21.431 25.351-2.032c8.361-.67 10.594-11.854 3.148-15.713z" fill="#FFFFFF" id="HUFZgfVyoi2azd_8fQsp9" /><path d="m390.769 620.052 7.218-3.449 67.877 142.067-7.218 3.45zm20.195-1.789 7.22-3.445 65.151 136.551-7.22 3.445z" fill="#FFA99B" id="iMwzPY0NTnG66R47fTuI" /><path d="M432.039 773.828a1.5 1.5 0 0 1-1.356-.858l-71.032-149.763a1.5 1.5 0 0 1 1.11-2.123c33.261-5.514 83.484-9.152 153.512-11.121 27.573-29.302 45.727-34.385 87.73-24.768 9.98 2.285 21.808 4.729 35.503 7.561 22.794 4.712 51.163 10.576 85.632 18.724 13.092 3.095 25.329 7.565 36.371 13.288 4.009 2.078 6.023 6.276 5.131 10.695-.889 4.406-4.362 7.485-8.849 7.844l-25.193 2.019-71.753 21.337c-25.282 14.371-101.702 57.766-226.255 107.058-.18.073-.367.107-.551.107zm-68.823-150.104 69.576 146.692c123.833-49.099 199.722-92.235 224.72-106.445.099-.056.204-.101.313-.134l72.068-21.431c.101-.03.204-.049.308-.057l25.351-2.032c3.787-.304 5.679-3.124 6.147-5.447.471-2.334-.182-5.682-3.571-7.439-10.823-5.609-22.828-9.994-35.681-13.032-34.428-8.138-62.773-13.998-85.548-18.706-13.712-2.834-25.554-5.282-35.566-7.574-41.363-9.472-58.105-4.691-85.3 24.351a1.5 1.5 0 0 1-1.053.474c-68.847 1.923-118.533 5.451-151.764 10.78z" fill="#003029" id="Mug8Gwvs2y9Ai74fL8duS" /><path d="M503.516 265.248c-21.57-.091-42.961 1.082-61.117 2.864-55.562 5.455-107.619 18.572-160.04 91.799l126.807 54.782h188.699l126.807-54.782c-45.807-67.1-104.477-86.344-160.04-91.799-18.155-1.782-39.546-2.773-61.116-2.864z" fill="#FFA78E" id="dLkoOOt0uU-Nukp57yvqZ" /><path d="M614.951 392.514c-2.281-14.441-28.184-121.441-28.184-121.441-8.646-1.552-17.199-2.528-25.772-3.303 6.892 76.489-19.237 81.212-57.018 81.212-38.731 0 113.447 59.189 110.974 43.532z" fill="#003029" id="U2H38q78g7RmPDwQZLvIl" /><path d="m200.15 717.585 196.03-288.828c27.154-73.644-81.213-103.158-113.82-68.845-27.786 42.195-221.151 337.194-221.151 337.194s5.256 44.541 47.448 53.928c53.834 11.978 74.253-8.048 91.493-33.449z" fill="#FFA78E" id="H5ZOufa6eBHGX279yo-8Q" /><path d="M147.041 669.681s-6.109-23.381-41.276-39.672c-18.013-8.345-50.259-14.601-78.835-2.485-32.337 13.71-23.759 45.023 7.254 38.823 7.473-1.494 37.683-6.488 37.745 14.454 15.689 37.843 21.427 32.539 21.427 32.539z" fill="#FFA78E" id="c4acpiXTyKTGDsEy4B6FH" /><path d="M170.349 759.043c22.979-31.289 38.412-54.817 38.412-54.817l-103.508-62.781s-30.488 57.126-42.046 74.907 89.942 66.11 107.142 42.691z" fill="#FFA78E" id="ARb3BFleF-f-_sk_4isZQ" /><path d="M61.209 697.106s-5.221 9.45-11.908 8.832c-6.075-.561-10.415-3.297-9.904-18.047.816-23.568-28.085-32.229-37.277-2.101-9.188 30.118 13.05 54.68 36.511 57.957 34.723 4.851 46.96-11.825 55.43-26.043 10.953-18.382-8.502-31.096-32.852-20.598z" fill="#FFA78E" id="eQqlIl-BQ-47CoBUi4lu8" /><path d="M128.075 728.728s-45.438 65.373-58.321 79.155c-27.646 29.574-43.164.734-31.996-19.876 10.551-19.472 49.903-73.692 49.903-73.692 15.213-19.198 57.699-12.916 40.414 14.413z" fill="#FFA78E" id="zT0P9_Jo_ybCAzgOC-S8Y" /><path d="M34.156 805.467a1.5 1.5 0 0 1-1.496-1.408c-.349-5.671.993-11.626 3.778-16.766 10.477-19.335 49.614-73.314 50.008-73.857a1.499 1.499 0 1 1 2.428 1.762c-.393.542-39.414 54.362-49.798 73.525-2.521 4.653-3.736 10.034-3.421 15.152a1.499 1.499 0 0 1-1.499 1.592z" fill="#003029" id="ZQt5O8JK2JOSpFv1znVAC" /><path d="M113.874 724.471s-40.463 56.808-48.39 70.045c-19.622 32.766 11.365 50.869 35.046 17.489 10.583-14.917 50.47-71.687 50.47-71.687 9.827-13.633-29.073-25.802-37.126-15.847z" fill="#FFA78E" id="fkVCUo8pm5aabqdq-KG" /><path d="M60.147 821.316a1.5 1.5 0 0 1-1.429-1.046c-2.325-7.322-.379-16.742 5.479-26.523 6.725-11.23 36.797-53.728 45.854-66.486a1.5 1.5 0 0 1 2.446 1.736c-9.041 12.735-39.058 55.154-45.726 66.291-5.41 9.034-7.254 17.583-5.194 24.074a1.5 1.5 0 0 1-1.43 1.954z" fill="#003029" id="gMkAvFFAC7642sYbbjCKp" /><path d="M141.056 735.235s-31.898 42.242-43.194 64.053c-11.296 21.812 9.169 40.13 34.289 10.404 6.804-8.051 26.657-34.83 45.664-60.778z" fill="#FFA78E" id="e6z_YGY3hmVXiGAOHhu_Y" /><path d="M107.075 690.55h-.015a1.5 1.5 0 0 1 .001-3h.002c.242 0 20.245-.058 31.927-5.622a1.501 1.501 0 0 1 1.291 2.709c-12.246 5.832-32.157 5.913-33.206 5.913zm.306 136.182c-3.108 0-5.78-.864-7.908-2.289-7.14-4.778-8.35-15.406-2.943-25.845 10.4-17.682 23.286-36.97 39.431-59.038a1.5 1.5 0 0 1 2.421 1.771c-16.086 21.986-28.917 41.192-39.227 58.717-4.642 8.966-3.84 18.002 1.987 21.901 8.81 5.895 21.594-3.44 29.864-13.227 5.679-6.72 21.021-27.141 45.6-60.696l59.468-86.044a1.5 1.5 0 0 1 2.468 1.706l-59.492 86.078c-24.644 33.645-40.029 54.121-45.753 60.894-9.99 11.821-19.023 16.072-25.916 16.072z" fill="#003029" id="byjKredHCosTtiCDbYazi" /><path d="m806.883 717.585-196.03-288.828c-27.154-73.644 81.213-103.158 113.82-68.845 27.786 42.196 221.151 337.195 221.151 337.195s-5.256 44.541-47.448 53.928c-53.834 11.977-74.253-8.049-91.493-33.45z" fill="#FFA78E" id="bPfsNUEDUIXUWeN48Lo_U" /><path d="M859.586 669.76s6.109-23.381 41.276-39.672c18.013-8.345 50.259-14.601 78.835-2.485 32.337 13.71 23.759 45.023-7.254 38.823-7.474-1.494-37.313-6.662-37.375 14.28-15.689 37.843-21.797 32.714-21.797 32.714z" fill="#FFA78E" id="silHjFYO5l1hAtTBEPBYu" /><path d="M836.278 759.122c-22.979-31.289-38.412-54.817-38.412-54.817l103.508-62.781s30.488 57.126 42.046 74.907-89.942 66.11-107.142 42.691z" fill="#FFA78E" id="YJfTGLbrZGcBHGkBHZdX4" /><path d="M945.824 697.106s5.294 8.166 11.502 8.911c6.058.727 10.415-3.297 9.904-18.047-.816-23.568 28.085-32.229 37.277-2.101 9.188 30.118-13.05 54.68-36.511 57.957-34.723 4.851-46.96-11.825-55.43-26.043-10.953-18.382 8.907-31.175 33.258-20.677z" fill="#FFA78E" id="BIdePm5RhuYFpF_A9Y2_U" /><path d="M878.552 728.807s45.438 65.373 58.321 79.155c27.646 29.574 43.164.734 31.996-19.876-10.551-19.472-49.903-73.692-49.903-73.692-15.213-19.198-57.699-12.916-40.414 14.413z" fill="#FFA78E" id="eMpdA3EwDTOPTE4ywgRX1" /><path d="M972.471 805.545a1.5 1.5 0 0 1-1.499-1.592c.315-5.118-.9-10.499-3.421-15.152-10.385-19.164-49.405-72.983-49.798-73.525a1.5 1.5 0 1 1 2.428-1.762c.394.543 39.53 54.522 50.008 73.857 2.785 5.141 4.126 11.095 3.777 16.766a1.499 1.499 0 0 1-1.495 1.408z" fill="#003029" id="A9VgTwdFZYD0lIMtgCMWB" /><path d="M892.753 724.55s40.463 56.808 48.39 70.045c19.622 32.766-11.365 50.869-35.046 17.489-10.583-14.917-50.47-71.687-50.47-71.687-9.828-13.633 29.073-25.802 37.126-15.847z" fill="#FFA78E" id="cHnRfjx4cWFPrJPEIwgTf" /><path d="M946.48 821.394a1.5 1.5 0 0 1-1.431-1.955c2.061-6.49.217-15.04-5.193-24.074-6.68-11.154-36.688-53.56-45.727-66.291a1.5 1.5 0 1 1 2.446-1.736c9.054 12.753 39.119 55.238 45.854 66.486 5.858 9.782 7.804 19.202 5.479 26.523a1.498 1.498 0 0 1-1.428 1.047z" fill="#003029" id="do3SO2rM5E0omslSApThh" /><path d="M865.571 735.314s31.898 42.242 43.194 64.053c11.296 21.812-9.169 40.13-34.289 10.404-6.804-8.051-26.657-34.83-45.664-60.778z" fill="#FFA78E" id="gOVKaGnV7g1eXNEG6r1Q2" /><path d="M899.551 690.629c-1.039 0-20.957-.081-33.205-5.913a1.5 1.5 0 0 1 1.291-2.709c11.682 5.563 31.685 5.622 31.927 5.622h.001a1.5 1.5 0 0 1 .001 3h-.015zm-.306 136.182c-6.892 0-15.925-4.25-25.915-16.072-7.283-8.618-80.491-108.967-100.139-140.126a1.5 1.5 0 0 1 2.538-1.6c19.607 31.095 92.63 131.197 99.892 139.79 8.271 9.787 21.054 19.121 29.864 13.227 5.827-3.899 6.628-12.935 1.948-21.972-11.108-21.448-38.895-58.257-39.174-58.627a1.5 1.5 0 1 1 2.393-1.809c.281.371 28.22 37.383 39.445 59.057 5.407 10.44 4.196 21.068-2.943 25.846-2.128 1.422-4.802 2.286-7.909 2.286zm80.89-158.083c-2.533 0-5.207-.276-7.986-.832a1.5 1.5 0 0 1 .588-2.942c7.097 1.418 13.357.884 18.105-1.547a1.5 1.5 0 0 1 1.367 2.671c-3.439 1.761-7.53 2.65-12.074 2.65z" fill="#003029" id="aRgZdjYS5Plmu-KaUzmfa" /><path d="M709.538 339.97c-84.205 31.48-213.589 15.139-267.139-71.858-55.562 5.455-107.619 18.572-160.04 91.8L121.986 604.394l143.347 92.332 6.638-31.451c46.213-15.783 31.19-49.544 41.72-66.271 10.531-16.727 79.535-158.108 79.535-158.108l219.892.49s74.701 145.47 83.347 158.892c8.396 13.034-6.026 58.638 43.761 67.309l3.794 35.015 147.087-88.96-138.861-211.749s-34.359-54.188-42.708-61.923z" fill="#FE5236" id="dH_jgjk7hSsnj_ym7ANj6" /><path d="M368.398 440.003c-3.298 21.447 139.483 10.349 139.483 10.349s-100.654-53.243-139.483-10.349z" fill="#FE5236" id="HhE6lLo2SIaBU9M7EqF9M" /><path d="M435.767 454.726c-30.262 0-60.058-2.056-67.094-9.641-1.445-1.558-2.053-3.394-1.758-5.31.044-.29.173-.561.371-.779 16.277-17.98 45.945-21.908 85.798-11.354 29.838 7.901 55.245 21.25 55.498 21.384a1.501 1.501 0 0 1-.585 2.821c-2.699.21-37.765 2.879-72.23 2.879zm-65.925-14.079c-.022.852.312 1.623 1.031 2.398 11.098 11.964 93.954 8.83 131.426 6.213-20.434-9.79-99.473-44.229-132.457-8.611z" fill="#003029" id="F_IOLqQitJg3wOWqQJZ2i" /><path d="M615.779 495.592s1.645-87.422-.828-103.079c-2.281-14.441-202.206-67.211-202.206-67.211s-19.068 52.771-21.349 67.211c-2.473 15.657-.828 103.079-.828 103.079z" fill="#FFA78E" id="aQX1WiVFwaggfo3kxjcPg" /><path d="M615.779 494.426H390.568l-20 33.024h265.211z" fill="#50B9AD" id="aFrM7fVrvCJ6_IQ1RjacL" /><path d="M640.879 452.685c-2.045-25.07-4.562-53.87-5.96-62.211-.951-5.671-4.917-17.438-9.382-29.631-66.841 1.032-141.141-36.792-141.141-36.792l-84.312 1.251s-23.814 54.548-26.734 69.054c-1.099 5.462-2.974 29.537-4.952 45.647 28.68-22.596 175.744 45.354 272.481 12.682z" fill="#FE5236" id="EsQh0Pceu6mt1SksY8LZv" /><g fill="#003029" id="DnUcPDdmtuOZrXJM3rkhw"><path d="M607.692 461.527a1.5 1.5 0 0 1-.181-2.988c11.853-1.46 22.918-3.907 32.888-7.274a1.499 1.499 0 1 1 .96 2.842c-10.162 3.432-21.427 5.924-33.482 7.409a1.446 1.446 0 0 1-.185.011zm-239.293-20.024a1.499 1.499 0 0 1-.929-2.678c5.858-4.616 16.4-5.999 33.18-4.348a1.5 1.5 0 0 1-.294 2.986c-15.957-1.567-25.818-.387-31.03 3.719a1.496 1.496 0 0 1-.927.321z" fill="#003029" id="DpVRAQu_SHyA92V7LkYV9" /><path d="M368.4 441.503a1.5 1.5 0 0 1-1.491-1.683c.905-7.364 1.798-16.506 2.586-24.572.952-9.742 1.774-18.155 2.384-21.188 2.918-14.497 25.854-67.125 26.83-69.358a1.5 1.5 0 1 1 2.749 1.201c-.237.544-23.783 54.566-26.637 68.75-.581 2.884-1.396 11.228-2.34 20.888-.79 8.083-1.686 17.244-2.595 24.646a1.5 1.5 0 0 1-1.486 1.316zm272.477 12.682a1.5 1.5 0 0 1-1.494-1.378c-2.768-33.932-4.824-55.4-5.944-62.084a1.502 1.502 0 0 1 1.231-1.728 1.504 1.504 0 0 1 1.728 1.231c1.433 8.549 4.041 38.618 5.976 62.336a1.5 1.5 0 0 1-1.497 1.623zm-240.374 74.766a1.502 1.502 0 0 1-1.451-1.888l4.416-16.512 4.416-16.512a1.5 1.5 0 0 1 2.899.775l-4.416 16.512-4.416 16.512a1.5 1.5 0 0 1-1.448 1.113zm40.174-35.974a1.472 1.472 0 0 1 1.191 1.708l-2.944 16.512-2.944 16.512a1.473 1.473 0 0 1-2.899-.517l2.944-16.512 2.944-16.512c.144-.8.908-1.334 1.708-1.191zm30.956 0a1.455 1.455 0 0 1 1.32 1.578l-1.472 16.512-1.472 16.512a1.454 1.454 0 0 1-2.898-.258l1.472-16.512 1.472-16.512c.071-.8.777-1.391 1.578-1.32zm30.956 0c.802 0 1.449.649 1.449 1.449v33.024a1.449 1.449 0 0 1-2.898 0v-33.024c0-.8.648-1.449 1.449-1.449zm30.956 0a1.454 1.454 0 0 1 1.578 1.32l1.472 16.512 1.472 16.512a1.455 1.455 0 0 1-2.898.258l-1.472-16.512-1.472-16.512a1.456 1.456 0 0 1 1.32-1.578zm30.956 0a1.472 1.472 0 0 1 1.708 1.191l2.944 16.512 2.944 16.512a1.473 1.473 0 0 1-2.898.517l-2.944-16.512-2.944-16.512a1.472 1.472 0 0 1 1.19-1.708zm40.173 35.974a1.5 1.5 0 0 1-1.448-1.113l-4.416-16.512-4.416-16.512a1.5 1.5 0 1 1 2.899-.775l4.416 16.512 4.416 16.512a1.5 1.5 0 0 1-1.451 1.888z" fill="#003029" id="LizApCb8vICVPFYY0JEDF" /><path d="M635.779 528.95H370.568a1.5 1.5 0 1 1 0-3h265.211a1.5 1.5 0 1 1 0 3zM532.913 633.882c-.423 0-.845-.179-1.141-.526l-17.877-20.937a1.5 1.5 0 0 1 1.36-2.458l15.574 2.303a1.5 1.5 0 0 1-.438 2.968l-11.616-1.717 15.278 17.894a1.5 1.5 0 0 1-1.14 2.473zm-260.942 32.894a1.5 1.5 0 0 1-1.43-1.049l-6.746-21.372a1.5 1.5 0 0 1 2.861-.903l6.746 21.372a1.5 1.5 0 0 1-1.431 1.952zm485.766 2.311h-17.51a1.5 1.5 0 1 1 0-3h17.51a1.5 1.5 0 1 1 0 3zm-731.228-.441c-4.038 0-7.728-.699-10.908-2.086a1.5 1.5 0 0 1 1.2-2.75c4.611 2.011 10.521 2.378 17.091 1.066a1.496 1.496 0 0 1 1.765 1.177 1.5 1.5 0 0 1-1.177 1.765c-2.767.552-5.438.828-7.971.828z" fill="#003029" id="RNWFqRs2teIRIh1J6hH4s" /></g></g></g><g transform="translate(1101.0 215.0) rotate(0.0 37.0 52.5) scale(0.9997162967266046 0.9874917709019092)" id="daQ3U70i226x_JgM2PFZ"><g clip-path="url(#clipPath_o3IwzkKi)" transform="matrix(1 0 0 1 0 0)" id="kucyKcTtngmkyXa5FQeIg"><path d="M28.574 55.776 37.005 0l7.91 55.776 29.106 6.284-29.106 8.525-7.91 35.745-8.431-35.745L0 62.06z" fill="#FE5236" id="SEjJwLTZ0GMv9YmQnmRmW" /></g></g><g transform="translate(324.0 736.0) rotate(0.0 34.0 48.0) scale(0.9186582186136366 0.9028496191103169)" id="oKxwpHc0PfvABNIGPt-X"><g clip-path="url(#clipPath_ByRgHnIK)" transform="matrix(1 0 0 1 0 0)" id="Hpo3SGKamvPrje77gbnmj"><path d="M28.574 55.776 37.005 0l7.91 55.776 29.106 6.284-29.106 8.525-7.91 35.745-8.431-35.745L0 62.06z" fill="#FFBBA0" id="LiGUvotu8v9cvsd61hD" /></g></g><g transform="translate(1166.0 671.0) rotate(0.0 78.5 97.5) scale(1.0168788942575488 1.0152654268279984)" id="UK3-yTei4J2UIL7CcnW0g"><g clip-path="url(#clipPath_W71O-Hef)" transform="matrix(1 0 0 1 0 0)" id="CC1s620g2rtbrPcUtQo6s"><path d="m71.896 192.068-13.541-85.302L0 117.649l47.746-34.982L3.037 41.573l56.208 27.673L122.342 0 95.345 84.847l59.049 35.928-68.208-10.235zm-11.062-88.815 11.208 70.604 11.695-66.717 56.377 8.46-48.343-29.416 23.556-74.031-55.383 60.781-39.525-19.46 32.045 29.454-40.068 29.357z" fill="#FFA99B" id="rZwUrqtffx4DY72Uir5e" /></g></g></g></g></svg>