<svg xmlns="http://www.w3.org/2000/svg" fill="none" viewBox="0 0 560 560" width="560" height="560"><defs><clipPath id="assetClipPath_y-ofSwJ8"><path d="m0 0 h 1800 v 1800 h -1800 v -1800 z" id="path_sv1NKlc9" fill="#ffffff" /></clipPath><clipPath id="clipPath_NJeGdHT6"><path d="m0 0 h 953.996 v 1615.186 h -953.996 v -1615.186 z" id="path_j51PwCL2" /></clipPath><clipPath id="clipPath_h55gl4-W"><path d="m0 0 h 645.278 v 265.288 h -645.278 v -265.288 z" id="path_jsEra77-" /></clipPath><clipPath id="clipPath_wabqGP5-"><path d="m0 0 h 902.596 v 1483.859 h -902.596 v -1483.859 z" id="path_erTHAS8J" /></clipPath><clipPath id="clipPath_EPNuBcOZ"><path d="m0 0 h 585.786 v 576.55 h -585.786 v -576.55 z" id="path_RZlTyN7e" /></clipPath><clipPath id="clipPath_WM4tNymm"><path d="m0 0 h 156.967 v 80.761 h -156.967 v -80.761 z" id="path_kGpIgI4V" /></clipPath><clipPath id="clipPath_nmDthidE"><path d="m0 0 h 139.164 v 168.993 h -139.164 v -168.993 z" id="path_ukFTzK1n" /></clipPath></defs><g transform="" data-asset-index="0"><g clip-path="url(#assetClipPath_y-ofSwJ8)" transform="scale(0.3111111111111111 0.3111111111111111)" data-asset-index="0"><defs /><g transform="translate(744.0 91.0) rotate(0.0 475.5 804.5) scale(0.9968595256164596 0.9961701005333132)" id="S3o45FLIjZECXzsjfic1B"><g clip-path="url(#clipPath_NJeGdHT6)" transform="matrix(1 0 0 1 0 0)" id="DS48B_7QA3VVsMuAeDl6F"><path d="M458.889 0h41.362v1615.186h-41.362z" fill="#FF7964" id="mtMcmMzmPnxvr1u68nKhM" /><path d="M883.996 299.116H330.804V149.575h553.192l70 74.788zM70 530.963h573.191V372.027H70L0 451.513z" fill="#FFEAE6" id="sdgW3MwmdYXsTg866g7nQ" /><path d="M451.23 0h56.681v85.083H451.23z" fill="#FF7964" id="Sqpqj8bIzEAFPpxY6miG_" /><path d="M153.272 530.963V372.027H70L0 451.513l70 79.45z" fill="#FE5236" id="B0SDYkrF6RcPOYUfKdAqb" /><path d="M802.421 299.116V149.575h81.575l70 74.788-70 74.753z" fill="#FFBBA0" id="czPtMIdYAiDPhW1ncsfcY" /><g fill="#003029" id="v9bIBSn8WKLxUr2VNd41k"><path d="M507.911 86.583H451.23a1.5 1.5 0 1 1 0-3h56.681a1.5 1.5 0 1 1 0 3zM843.4 300.616H330.804a1.5 1.5 0 0 1-1.5-1.5V149.575a1.5 1.5 0 0 1 1.5-1.5h488.851a1.5 1.5 0 1 1 0 3H332.304v146.541H843.4a1.5 1.5 0 1 1 0 3zM643.191 532.463H112.859a1.5 1.5 0 1 1 0-3h528.832V373.526H123.637a1.5 1.5 0 1 1 0-3h519.554a1.5 1.5 0 0 1 1.5 1.5v158.937a1.5 1.5 0 0 1-1.5 1.5zm240.805-231.847h-16.468a1.5 1.5 0 1 1 0-3h16.468a1.5 1.5 0 1 1 0 3zM93.528 532.463H70a1.5 1.5 0 1 1 0-3h23.528a1.5 1.5 0 1 1 0 3z" fill="#003029" id="odI-7wPQAdKOP8abU4-gf" /></g></g></g><g transform="translate(949.0 1438.0) rotate(0.0 322.5 132.5) scale(0.9995691779357114 0.9989143873827688)" id="nDG4mJ5_X_bUflrtVftR0"><g clip-path="url(#clipPath_h55gl4-W)" transform="matrix(1 0 0 1 0 0)" id="qFMq78ghOF0G-I-MrPUHG"><path d="M644.805 222.701c-3.896-21.857-30.827-35.375-60.424-30.524 7.772-19.127 6.284-38.862-5.804-51.403-12.5-12.968-33.103-14.888-53.135-6.932 15.407-35.771 14.641-72.926-5.771-99.901-35.032-46.299-114.648-45.077-177.828 2.729-37.123 28.089-60.302 66.011-66.008 101.905-13.122-32.658-43.024-51.504-67.377-42.186-18.014 6.894-27.996 27.293-27.108 50.831-37.896-47.159-99.743-62.055-142.489-32.719-44.383 30.458-51.686 97.284-17.062 150.686 8.869 0 174.125 0 184.175.101l.033-.102h359.021v-.058c18.51-.033 47.115.059 53.78.063 18.053-9.604 28.92-26.089 25.997-42.491z" fill="#25968A" id="Py73KadqHUDpqV_DGau4M" /><g fill="#003029" id="BNZ0OSLnbevhhPJdN-v8k"><path d="M202.62 176.533c-.475 0-.942-.225-1.233-.644-.096-.139-9.759-14.016-21.188-27.708a1.5 1.5 0 1 1 2.303-1.923c11.517 13.798 21.252 27.779 21.349 27.919a1.5 1.5 0 0 1-1.23 2.356zm10.862 15.821c-.462 0-.917-.212-1.211-.613l-4.75-6.478a1.5 1.5 0 0 1 2.42-1.775l4.75 6.478a1.5 1.5 0 0 1-1.209 2.388zm266.796-26.163a1.5 1.5 0 0 1-1.147-2.465c.667-.793 16.66-19.546 45.751-31.276a1.5 1.5 0 1 1 1.122 2.782c-28.362 11.437-44.418 30.237-44.577 30.425a1.495 1.495 0 0 1-1.148.534z" fill="#003029" id="cS6BrkdsYDRrlfBgJfPvD" /></g></g></g><g transform="translate(148.0 223.0) rotate(0.0 452.5 744.0) scale(1.0026634285992848 1.0027906964206168)" id="EdBjjEP3yoXJqFlqdeGMc"><g clip-path="url(#clipPath_wabqGP5-)" transform="matrix(1 0 0 1 0 0)" id="ZqsOj4EWXpKAQ_hPN2sE_"><path d="m454.042 238.744 70.128-31.054c27.971-12.386 58.239-19.386 89.062-20.597l85.136-3.345c45.399-1.784 85.879 27.017 96.942 68.973l42.004 159.289c11 41.715-7.073 85.472-44.971 108.882l-27.626 17.065c-15.495 9.572-33.686 14.421-52.149 13.903l-120.411-3.382c-34.811-.978-64.654-23.959-72.933-56.165l-65.182-253.57z" fill="#003029" id="M7fOQd4L9DROn9PKdt-vE" /><path d="m641.659 1231.537 14.086 158.015c-5.672 31.6 139.316 46.612 125.66-34.215 4.286-27.667 12.808-107.607 12.808-107.607 17.112-167.375-152.555-16.192-152.555-16.192zm-193.433 40.045c-12.507 26.02-24.019 52.13-40.361 83.313-20.15 83.304-65.529 100.376-133.522 32.101l36.8-161.131s222.189-131.336 137.083 45.718z" fill="#FFA78E" id="u7NMzUzBTfkI-kA-xbR4F" /><path d="m439.537 148.588 363.403-17.01 5.85 124.968-363.403 17.01z" fill="#25968A" id="Cx5da7s7UrIFxGBWMQ4g1" /><ellipse cx="805.864" cy="194.065" fill="#25968A" rx="46.615" ry="62.553" transform="matrix(.99890626 -.04675777 .04675777 .99890626 -8.192 37.889)" id="ZKYV64G9Odxavx_SUgdyh" /><ellipse cx="442.461" cy="211.075" fill="#25968A" rx="46.615" ry="62.553" transform="matrix(.99890626 -.04675777 .04675777 .99890626 -9.385 20.918)" id="t8uOBhrbF0h_X36pU1h-C" /><path d="M807.146 258.089c-25.769 0-47.728-27.256-49.344-61.774-.796-17.011 3.403-33.252 11.825-45.731 8.514-12.616 20.32-19.897 33.242-20.502.821-.024 1.53.601 1.568 1.428a1.5 1.5 0 0 1-1.428 1.569c-11.953.559-22.925 7.372-30.896 19.183-8.063 11.947-12.081 27.542-11.315 43.912 1.574 33.628 23.067 60.044 47.92 58.877.82-.026 1.53.601 1.568 1.428s-.601 1.53-1.428 1.569c-.573.027-1.144.04-1.713.04z" fill="#003029" id="Ks5iWN6Oha2zHs1Wnou57" /><path d="M87.367 531.868c-8.637-3.315-51.748-19.596-62.838-29.177-8.535-7.374 4.395-75.172 44.082-120.869l76.55 28.786c34.367 43.656 4.781 89.897-57.793 121.26z" fill="#FFA78E" id="eXqoZZIT0tPTTx0QiXJi" /><path d="M132.309 404.403c-16.79-18.326-42.399-44.225-62.499-56.159-20.1-11.935-35.923 9.879-18.68 30.74 17.243 20.86 34.537 38.365 36.886 40.714 13.197 13.196 63.679 5.866 44.292-15.294z" fill="#FFA78E" id="kkudan5KsUv6Hy3l0qnLU" /><path d="M40.273 405.432c-8.608 16.249-16.714 24.463-24.892 19.821C9.624 421.985 2.819 413.574.89 403.261c-3.573-19.098 4.241-36.18 12.455-45.769 21.968-25.647 38.178-18.068 41.948-12.609 5.773 8.359 1.417 22.738-15.436 39.227l.417 21.322z" fill="#FFA78E" id="Y_VY4YWXrshO3QpLyouud" /><path d="M40.272 406.932a1.5 1.5 0 0 1-1.499-1.471l-.417-21.322a1.501 1.501 0 0 1 .451-1.102c15.097-14.771 20.941-29.064 15.251-37.302a1.5 1.5 0 1 1 2.469-1.705c6.613 9.575.945 24.76-15.158 40.696l.405 20.676a1.5 1.5 0 0 1-1.47 1.529h-.03z" fill="#003029" id="itC1u2_-onZug0Nf0TbPc" /><path d="M23.721 454.865c-9.802-.59-21.225-10.78-23.236-28.868-1.027-9.236 3.919-20.645 14.201-28.965 11.778-9.53 26.944-13.85 33.34-14.951 18.985-3.268 27.51 5.829 28.295 12.416 1.202 10.087-8.36 22.423-33.458 27.674l.551 21.089-19.693 11.604z" fill="#FFA78E" id="zz0Jhs4RqIweX3OrEU4md" /><path d="M42.861 423.672a1.501 1.501 0 0 1-.306-2.968c23.844-4.989 33.391-16.667 32.276-26.028-.328-2.753-2.201-5.647-5.009-7.742-3.519-2.625-10.113-5.34-21.542-3.375-6.869 1.183-21.476 5.597-32.65 14.639-5.187 4.197-9.171 9.363-11.523 14.94a1.5 1.5 0 1 1-2.764-1.165c2.543-6.031 6.831-11.601 12.4-16.107 11.654-9.43 26.873-14.031 34.028-15.263 12.478-2.149 19.854.949 23.845 3.926 3.506 2.615 5.764 6.184 6.194 9.791 1.184 9.935-7.177 23.574-34.641 29.32a1.56 1.56 0 0 1-.309.032z" fill="#003029" id="Zgihz0avzKFMjSFKGVTSr" /><path d="M42.174 480.934c-18.548-.919-31.305-10.537-34.838-27.658-3.736-18.109 14.852-32.224 25.803-37.491 33.317-16.022 45.216-2.898 46.868 3.527 2.529 9.839-2.619 21.417-26.8 29.948l-11.034 31.674z" fill="#FFA78E" id="h4y_wg705fSnBgSvV8-o4" /><path d="M42.174 482.435a1.5 1.5 0 0 1-1.416-1.994l11.034-31.674c.15-.43.488-.769.917-.921 19.844-7 28.781-16.738 25.846-28.16-.635-2.473-2.954-5.878-7.557-8.02-5.989-2.787-17.305-4.099-37.208 5.471-9.674 4.652-25.917 16.644-25.431 32.079a1.499 1.499 0 0 1-1.452 1.546c-.833.055-1.52-.624-1.546-1.452-.534-16.976 16.802-29.911 27.129-34.877 20.959-10.079 33.198-8.547 39.773-5.487 5.552 2.583 8.391 6.855 9.197 9.993 1.916 7.455.909 21.405-27.072 31.493L43.59 481.429a1.501 1.501 0 0 1-1.417 1.007z" fill="#003029" id="keZdvnDaKnF4q7OrqQ3V" /><path d="M24.528 502.691c-4.719-4.349-9.137-8.478-11.672-20.784-2.487-12.073 9.61-27.277 26.719-35.102 34.429-15.748 45.878-3.191 47.342 3.279C90.424 465.58 73 479.18 49.727 486.169z" fill="#FFA78E" id="L9fiB9fvyw3Xti1leJrHI" /><path d="M58.602 484.568a1.5 1.5 0 0 1-.561-2.892c19.79-7.976 30.038-19.663 27.413-31.261-.519-2.294-2.56-5.481-6.731-7.545-5.902-2.922-17.377-4.374-38.524 5.299-16.707 7.642-28.071 22.333-25.871 33.446a1.5 1.5 0 1 1-2.943.583c-2.499-12.624 9.352-28.426 27.566-36.758 22.22-10.164 34.617-8.47 41.102-5.259 6.437 3.186 8.001 8.132 8.326 9.572 2.978 13.158-7.945 26.132-29.218 34.706a1.5 1.5 0 0 1-.56.109z" fill="#003029" id="R6ApM1vmSB3XfYqFUFCac" /><path d="m134.631 407.362 142.833 44.043 45.629-112.429c48.752-61.514 186.824-24.027 174.494 21.674-12.279 42.842-17.617 72.148-60.036 160.339-15.081 31.353-60.225 133.466-178.673 99.241-24.655-7.124-70.999-23.473-96.586-34.048-20.933-8.652-26.277-24.313-37.592-38.565-23.436-9.614-37.333-15.748-37.333-15.748l47.265-124.506z" fill="#FFBBA0" id="zKf9GbQZOLPQMH0zYIWLV" /><path d="M309.643 461.447c-.127 0-.257-.017-.386-.051l-32.178-8.542a1.499 1.499 0 1 1 .769-2.899l32.178 8.542a1.499 1.499 0 0 1-.384 2.95z" fill="#003029" id="qK9RMEVD1WBR9Qjru4HSi" /><path d="M688.282 655.285c-39.306 132.543-119.531 411.845-214.28 649.504l-168.839-52.745 57.05-249.799 38.709-158.077 67.448-275.439s1.673-28.645 3.769-68.712c60.439-17.476 244.367 60.09 216.141 155.269z" fill="#FE5236" id="wQDyRZADpYZznRaZ_VB4" /><path d="M564.656 616.643c26.127 270.948 45.176 476.608 70.452 673.842l185.862-7.83c13.172-274.425-12.221-588.281-30.579-693.021-22.764-129.882-97.796-152.586-187.06-134.504s-38.676 161.513-38.676 161.513z" fill="#FE5236" id="PFDnkaNpgI7GS7RT0ycG7" /><path d="M750.848 1287.53a1.5 1.5 0 0 1-1.499-1.469c-.121-5.882-12.306-589.329-30.434-692.759-9.989-56.991-31.056-96.805-62.618-118.338-30.271-20.652-70.396-25.544-122.667-14.955a1.5 1.5 0 0 1-.596-2.94c53.107-10.759 93.979-5.715 124.953 15.417 32.255 22.006 53.748 62.48 63.882 120.298 18.167 103.653 30.358 687.331 30.479 693.214a1.5 1.5 0 0 1-1.469 1.531h-.031z" fill="#003029" id="yJWdeBXtfVWIK1ZqNTGW7" /><path d="M707.108 305.557s78.894 171.177 53.804 200.439l-299.145 89.7c-21.595-18.701-38.139-45.843-44.191-89.552-15.971-115.343-19.691-177.215-19.915-183.83-.171-5.07 209.407-29.874 209.407-29.874z" fill="#FFBBA0" id="EqdJaYjw6pxS34Loa1wu2" /><path d="M323.093 338.976c28.866-69.768 97.35-101.995 152.151-112.661 43.943-8.553 101.375-18.066 139.655-16.034 41.126 2.183 99.622 13.481 131.134 45.239L667.5 358.164l-218.638 9.896-125.768-29.083z" fill="#FFBBA0" id="n64X1zaK4fwiynoZMUma" /><path d="M750.768 522.23c-29.137-25.847-126.605-131.084-126.605-131.084-35.613-69.946 85.46-165.873 121.869-135.627 33.832 29.01 57.917 54.707 111.579 114.86 15.708 17.608 25.788 37.581 30.441 57.487 16.336 69.89-42.305 178.619-137.284 94.364z" fill="#FFBBA0" id="VvUqkJmK5UpubSRjnmbSf" /><path d="M640.016 212.568c-48.834 35.91-60.293 145.432-20.54 198.687 3.937 13.118 39.241 35.939 27.795-7.125-23.108-86.945-5.675-148.465 40.043-181.349 10.915-7.851-33.702-20.21-47.298-10.213z" fill="#003029" id="IIxN3IZxKcEk8V51r535" /><path d="M522.886 479.074s16.88 39.884 63.614 44.74c41.436-19.221 26.432-129.491 26.432-129.491s-20.745-14.78-57.37-36.323l-32.677 121.074z" fill="#FFA78E" id="YtiVFQ0EiHkms9IKa6vV8" /><path d="M612.932 394.322 756 408.984s99.473-41.112 109.146-29.411c77.622 93.892 25.627 197.55-74.11 189.38-28.72-2.353-94.685-6.928-120.971-13.256-18.034-4.341-31.798-18.44-43.403-26.564-17.723-2.292-40.161-5.319-40.161-5.319l26.432-129.491z" fill="#FFBBA0" id="Dm0SBNV2m_HsnU62t_H3R" /><path d="M661.637 554.387c-.22 0-.444-.049-.656-.152-10.012-4.875-21.122-12.401-34.939-23.671l-39.739-5.263c-.821-.108-1.399-.862-1.29-1.684s.863-1.404 1.684-1.29l40.161 5.319c.276.036.537.149.752.326 13.785 11.269 24.807 18.757 34.684 23.566a1.5 1.5 0 0 1-.658 2.849zm129.244-140.05c-54.245-7.081-114.428-13.416-169.004-19.085-1.868-.215-1.741-3.135.311-2.984l10.58 1.024c43.281 4.554 114.525 13.078 158.424 18.061 1.911.188 1.798 3.16-.311 2.984zm-7.305 497.56a1.5 1.5 0 0 1-.081-2.998l35.787-1.957c.83-.02 1.534.59 1.58 1.416a1.501 1.501 0 0 1-1.416 1.58l-35.787 1.957-.083.002zm-189.452 10.362a1.5 1.5 0 0 1-.081-2.998l160.531-8.779c.825-.023 1.534.59 1.58 1.416a1.501 1.501 0 0 1-1.416 1.58l-160.53 8.779-.083.002zm2.214 22.179c-.162 0-.327-.026-.489-.082l-131.762-45.424a1.5 1.5 0 0 1 .978-2.836l131.762 45.424a1.5 1.5 0 0 1-.489 2.918zm-166.623-57.442c-.162 0-.327-.026-.489-.082l-35.883-12.371a1.5 1.5 0 0 1 .978-2.836l35.883 12.371a1.5 1.5 0 0 1-.489 2.918z" fill="#003029" id="SMmS0Yd8ppldzso6A_T5W" /><path d="M598.026 961.252a1.5 1.5 0 0 1-1.49-1.351l-29.688-295.849-29.426-5.443a1.5 1.5 0 0 1 .546-2.95l30.533 5.648a1.5 1.5 0 0 1 1.219 1.325l29.8 296.97a1.499 1.499 0 0 1-1.495 1.65z" fill="#003029" id="MuAekIIW5Uvv7ZVo3y9Ta" /><path d="M568.668 215.944c.989 26.827-21.656 65.6-76.547 64.291-43.829-1.045-58.435-31.446-47.886-52.623 4.346-8.702 16.301-10.932 19.871-4.29-10.047 13.141-5.324 39.382 29.657 40.216 41.842.998 55.18-31.932 54.781-47.604-.252-7.741 19.831-9.036 20.125.011z" fill="#FFBBA0" id="Lz99oUNuk2Wq5zshNPRFM" /><path d="M494.823 281.767c-.902 0-1.814-.011-2.739-.033-21.961-.523-39.324-8.734-47.636-22.525-6.044-10.028-6.626-22.09-1.556-32.266 3.051-6.109 9.15-8.915 13.841-8.985 3.893-.074 7.073 1.637 8.694 4.654a1.501 1.501 0 0 1-.13 1.622c-4.784 6.257-5.671 15.315-2.207 22.54 4.546 9.48 15.451 14.901 30.708 15.265 16.38.384 29.659-4.385 39.452-14.193 9.838-9.854 14.017-23.109 13.794-31.874-.073-2.241 1.151-4.267 3.446-5.694 4.242-2.636 11.228-2.891 15.573-.568 2.561 1.37 4.018 3.565 4.104 6.183.574 15.591-6.273 32.182-18.317 44.383-9.769 9.897-27.518 21.491-57.027 21.491zm-37.903-60.811h-.143c-3.783.057-8.714 2.344-11.201 7.325-4.608 9.25-4.07 20.234 1.441 29.378 7.771 12.895 24.224 20.576 45.138 21.075 30.082.717 47.906-10.789 57.559-20.567 11.474-11.624 17.999-27.388 17.454-42.168v-.006c-.05-1.546-.899-2.77-2.521-3.638-3.384-1.81-9.26-1.59-12.574.471-1.386.861-2.069 1.89-2.031 3.059.24 9.416-4.204 23.597-14.669 34.08-10.249 10.265-24.652 15.47-41.646 15.072-22.185-.529-30.412-10.857-33.341-16.967-3.846-8.021-3.078-17.639 1.905-24.805-1.51-1.971-3.905-2.309-5.37-2.309z" fill="#003029" id="IrC_Q9oTtSD32ccYEs4_X" /><ellipse cx="492.109" cy="97.25" fill="#E4634F" rx="106.777" ry="20.921" transform="matrix(.9971074 -.07600553 .07600553 .9971074 -5.969 37.688)" id="C2aEYvmkXD2ekQMz8W0" /><path d="m545.484 65.568 17.617 31.94 7.405-26.886z" fill="#003029" id="HmrV_fbarpdUFKyyNX3U" /><path d="M426.663 119.248c-14.334-42.688-3.87-80.1 43.184-92.07 48.686-12.385 78.908 15.339 90.09 58.167 7.143-17.455 28.075-10.327 32.013 5.178 2.913 11.472-6.318 26.444-26.786 24.479-3.077 41.632-38.367 67.381-74.966 71.868-44.808 5.492-80.938-29.023-63.536-67.621z" fill="#FFA78E" id="p2rBmzO3IUKhHhztGRh50" /><path d="M581.563 99.009c-.236 0-.475-.056-.698-.173l-13.711-7.227a1.499 1.499 0 0 1-.627-2.026 1.499 1.499 0 0 1 2.026-.628l13.711 7.227a1.499 1.499 0 0 1-.701 2.827z" fill="#003029" id="MQs4Lzgz5EJ_2_o8M-Iy1" /><path d="M571.5 101.569a1.5 1.5 0 0 1-1.317-2.216l7.296-13.439a1.501 1.501 0 0 1 2.637 1.431l-7.296 13.439c-.272.5-.787.785-1.32.785zm-76.179-6.912a1.5 1.5 0 0 1-1.309-.765c-4.127-7.336-12.524-12.566-21.982-7.715a1.5 1.5 0 0 1-1.369-2.669c11.171-5.732 21.292.602 25.966 8.913a1.499 1.499 0 0 1-1.306 2.235z" fill="#003029" id="HvuEoVj4vrjRcu96C2mCU" /><path d="M475.096 94.594c2.04 7.375 6.303 12.631 9.522 11.741s4.175-7.59 2.135-14.965c-.972-3.514-2.449-6.547-4.077-8.663-.274-.356-8.237.624-8.357 1.223-.559 2.791-.341 6.626.776 10.665zm-24.046 10.485a1.5 1.5 0 0 1-1.309-.765c-4.126-7.336-12.524-12.567-21.982-7.715a1.5 1.5 0 0 1-1.369-2.669c11.172-5.733 21.292.603 25.966 8.913a1.5 1.5 0 0 1-1.306 2.236z" fill="#003029" id="OQM7vMdNIzS9Mg0dC9pR9" /><path d="M430.825 105.015c2.04 7.375 6.303 12.631 9.522 11.741s4.175-7.59 2.135-14.965c-.972-3.514-2.449-6.547-4.077-8.663-.274-.356-8.237.624-8.357 1.223-.559 2.791-.341 6.626.776 10.665zm97.479-39.032s4.622 10.368 8.346 22.047c5.611 17.595 24.674 11.905 23.288-2.685-1.387-14.59-9.717-25.037-9.717-25.037l-21.916 5.675z" fill="#003029" id="NzooFUOwcwtl4vP9BO7zs" /><path d="M477.662 133.191c-1.099-11.455-25.574-8.812-23.476 2.523-1.47 5.013 3.097 11.961 11.804 11.632 8.392-.316 15.626-8.504 11.672-14.156z" fill="#FF806A" id="auIcZItsKRWhAx_beaNNu" /><path d="M461.694 138.348c-2.776 0-5.472-.365-7.987-1.213a1.5 1.5 0 1 1 .959-2.842c11.608 3.912 28.427-4.008 35.698-8.744a1.5 1.5 0 0 1 1.638 2.513c-6.622 4.312-19.094 10.286-30.307 10.286z" fill="#003029" id="S7SZHiRjXRgYCWEpw9Ani" /><path d="M549.091 44.009 532.978 3.832c-31.372-7.431-70.719-4.757-102.2 14.25l-6.512 40.035z" fill="#E4634F" id="B-IitPVbuX41nHteZMvwQ" /><path d="M549.091 44.009c-20.483-7.093-94.013-8.193-124.825 14.108l-37.406 43.654c17.428-13.465 54.563-25.329 100.278-28.814 47.89-3.651 93.246 2.909 111.319 14.608L549.09 44.009z" fill="#E4634F" id="x8jyKGoG4hiPmQEbl_grZ" /><g fill="#003029" id="NMXfP-6pcPnrVnV-Mg-xz"><path d="M424.267 59.617a1.5 1.5 0 0 1-.88-2.716c18.454-13.356 49.941-17.235 67.067-18.358 23.484-1.538 47.798.125 59.128 4.048a1.5 1.5 0 1 1-.981 2.835c-20.447-7.08-93.423-7.831-123.455 13.906a1.495 1.495 0 0 1-.878.285zm-37.406 43.654a1.5 1.5 0 0 1-.946-2.665c17.712-14.368 58.407-25.882 103.677-29.333 48.251-3.677 91.321 2.234 109.724 15.062a1.501 1.501 0 0 1-1.715 2.461c-17.595-12.265-60.909-18.104-107.78-14.532-44.702 3.408-84.745 14.663-102.015 28.672a1.496 1.496 0 0 1-.944.335zm74.906 493.925c-.348 0-.698-.121-.981-.366-24.594-21.297-39.213-50.894-44.695-90.48-15.058-108.748-19.55-172.788-19.928-183.985a1.5 1.5 0 0 1 1.448-1.55c.837-.005 1.522.621 1.55 1.448.018.529 2.851 60.538 19.902 183.675 5.377 38.834 19.667 67.823 43.687 88.624a1.5 1.5 0 0 1-.983 2.634zm228.034 33.657c-13 0-24.054-2.476-33.18-8.908-15.514-10.935-24.84-32.628-31.184-72.536a1.5 1.5 0 0 1 2.963-.471c6.205 39.03 15.162 60.131 29.95 70.554 15.579 10.981 37.609 9.701 65.894 4.402a1.5 1.5 0 1 1 .552 2.948c-12.914 2.42-24.58 4.01-34.995 4.01zm-288.229 652.809a1.5 1.5 0 0 1-1.442-1.918l170.006-586.013a1.5 1.5 0 0 1 2.882.836L403.012 1282.58a1.5 1.5 0 0 1-1.44 1.082zM808.083 243a1.5 1.5 0 0 1-.069-2.999c5.742-.269 11.325-2.53 16.145-6.539a1.5 1.5 0 0 1 1.918 2.307c-5.325 4.43-11.523 6.93-17.923 7.229l-.071.001zm26.737-19.032a1.5 1.5 0 0 1-1.32-2.21c4.499-8.376 6.705-18.774 6.214-29.276-1.186-25.329-17.327-45.222-35.999-44.352-18.665.874-32.885 22.191-31.699 47.52a1.5 1.5 0 0 1-1.428 1.569 1.508 1.508 0 0 1-1.568-1.428c-1.263-26.981 14.239-49.706 34.556-50.657 20.309-.946 37.873 20.227 39.136 47.208.524 11.197-1.747 21.86-6.567 30.836a1.5 1.5 0 0 1-1.323.791z" fill="#003029" id="zf9e_nXhVatSkewyDv4mj" /><path d="M806.248 214.877c-4.112 0-8.025-2.021-11.074-5.737-3.09-3.766-4.934-8.855-5.19-14.331-.192-4.101.527-8.107 2.08-11.587a1.5 1.5 0 0 1 2.74 1.223c-1.363 3.054-1.993 6.589-1.823 10.224.226 4.835 1.829 9.298 4.512 12.568 2.579 3.143 5.842 4.787 9.205 4.629a1.51 1.51 0 0 1 1.568 1.428 1.5 1.5 0 0 1-1.428 1.569 12.94 12.94 0 0 1-.59.014zM638.755 474.943a1.5 1.5 0 0 1-1.467-1.819l16.229-74.747a1.5 1.5 0 0 1 2.931.637l-16.229 74.747a1.5 1.5 0 0 1-1.464 1.182zm-6.205 27.189a1.5 1.5 0 0 1-1.465-1.829l3.447-15.319a1.5 1.5 0 1 1 2.927.658l-3.447 15.319a1.501 1.501 0 0 1-1.462 1.171z" fill="#003029" id="OWkK0GFjOAJ4-HsXrcpKY" /></g><path d="M174.928 1453.424c-3.912 24.314 20.482 28.935 31.067 28.935s20.118-1.246 35.36-8.615c11.123 4.463 19.5 8.615 41.507 8.615 23.456 0 36.951-8.615 36.951-8.615s15.629 8.615 37.781 8.615c23.039 0 35.232-12.04 35.232-12.04s4.949 12.04 36.085 12.04c31.137 0 41.311-14.531 37.781-28.855-4.666-18.938-17.645-48.991-35.85-50.445-14.342-1.145-252.723 30.525-255.915 50.364z" fill="#FFEAE6" id="T_MU9pjTnstBCC1HOOTpC" /><path d="M428.912 1483.859c-25.025 0-33.74-7.716-36.419-11.253-3.864 3.154-15.657 11.253-34.898 11.253-19.783 0-34.275-6.654-37.734-8.398-3.206 1.823-16.209 8.398-36.998 8.398-20.611 0-29.388-3.57-39.552-7.705-.628-.256-1.261-.513-1.902-.771-14.758 7.049-24.519 8.477-35.413 8.477-3.132 0-19.193-.515-27.843-10.667-4.423-5.191-6.006-11.923-4.705-20.007.542-3.369 5.323-8.861 40.435-17.617 20.695-5.161 49.941-10.927 84.577-16.675 61.576-10.221 125.186-17.929 132.504-17.329 19.711 1.573 32.649 33.163 37.187 51.581 1.66 6.736.361 13.271-3.658 18.4-4.402 5.617-14.147 12.313-35.58 12.313zm-36.085-15.04a1.5 1.5 0 0 1 1.387.929c.042.095 5.231 11.11 34.698 11.11 20.226 0 29.228-6.071 33.219-11.164 3.488-4.451 4.562-9.926 3.106-15.833-4.047-16.424-16.468-47.867-34.513-49.308-7.172-.56-70.394 7.111-131.774 17.298-111.945 18.579-122.096 29.045-122.541 31.81l-1.481-.238 1.481.238c-1.155 7.177.2 13.093 4.027 17.585 6.045 7.095 17.547 9.612 25.559 9.612 10.892 0 20.063-1.385 34.707-8.466.38-.185.82-.197 1.211-.042.856.344 1.696.686 2.527 1.023 9.872 4.017 18.397 7.484 38.421 7.484 22.684 0 36.014-8.297 36.146-8.381a1.511 1.511 0 0 1 1.529-.049c.153.085 15.586 8.43 37.058 8.43 22.167 0 34.061-11.491 34.178-11.607a1.5 1.5 0 0 1 1.054-.433z" fill="#003029" id="LuBs9a-9jRGD-H8pHd9ZM" /><path d="m265.454 1394.626-86.965 41.448c-5.98 3.666-7.612 11.618-3.56 17.35s205.018-15.93 215.279-17.175c46.723-5.67 30.213-31.404 40.763-33.218-8.401-23.463-23.107-48.136-23.107-48.136l13.924-15.298c5.688-7.198-.245-18.149-9.302-16.627-2.7.453-5.259 1.909-7.283 4.984-2.835 4.306-9.131 19.284-11.735 27.01-6.652 19.735-10.089 46.263-35.826 53.329-11.855 3.254-38.616-6.996-54.81-5.347l1.618-7.726c1.865-8.744-3.992-17.273-12.832-18.687l-10.834-1.734c-6.01-.962-11.708 2.967-12.938 8.919l-2.394 10.909z" fill="#003029" id="KzzxdIUi6hb4vqBR5msbD" /><path d="M197.9 1436.804c-2.026 0-4.051-1.138-5.102-2.932-1.17-1.997-.949-4.323.608-6.382a1.5 1.5 0 1 1 2.393 1.809c-.812 1.074-.954 2.131-.412 3.057.57.973 1.759 1.573 2.824 1.427l87.44-12.013a16.708 16.708 0 0 0 14.005-12.571l1.621-6.502a1.5 1.5 0 0 1 2.911.726l-1.621 6.502c-1.968 7.894-8.448 13.71-16.508 14.817l-87.44 12.013a5.406 5.406 0 0 1-.719.049z" fill="#FFEAE6" id="NK0Q_MeHmKUcLrKO5zo76" /><path d="M174.927 1454.924a1.5 1.5 0 0 1-.114-2.995c2.019-.156 202.069-15.586 219.222-17.726 26.583-3.315 29.149-15.649 30.847-23.812.88-4.229 1.711-8.225 5.868-8.845.817-.13 1.583.442 1.705 1.262s-.443 1.583-1.262 1.705c-1.908.285-2.44 2.006-3.373 6.489-1.759 8.451-4.701 22.596-33.413 26.177-17.222 2.148-217.343 17.584-219.363 17.739a1.145 1.145 0 0 1-.117.005z" fill="#003029" id="T1o3dp--Lypg0IlYQ9Stf" /><path d="M554.928 1453.424c-3.912 24.314 20.482 28.935 31.067 28.935s20.118-1.246 35.36-8.615c11.123 4.463 19.5 8.615 41.507 8.615 23.456 0 36.951-8.615 36.951-8.615s15.629 8.615 37.781 8.615c23.039 0 35.232-12.04 35.232-12.04s4.949 12.04 36.085 12.04c31.137 0 41.311-14.531 37.781-28.855-4.666-18.938-17.645-48.991-35.85-50.445-14.342-1.145-252.723 30.525-255.915 50.364z" fill="#FFEAE6" id="D239aQueirDerpkkJenOy" /><path d="M808.912 1483.859c-25.025 0-33.74-7.716-36.419-11.253-3.864 3.154-15.657 11.253-34.898 11.253-19.783 0-34.275-6.654-37.734-8.398-3.206 1.823-16.209 8.398-36.998 8.398-20.611 0-29.388-3.57-39.552-7.705-.628-.256-1.261-.513-1.902-.771-14.758 7.049-24.519 8.477-35.413 8.477-3.132 0-19.193-.515-27.843-10.667-4.423-5.191-6.006-11.923-4.705-20.007.542-3.369 5.323-8.861 40.435-17.617 20.695-5.161 49.941-10.927 84.577-16.675 61.576-10.221 125.188-17.929 132.504-17.329 19.711 1.573 32.649 33.163 37.187 51.581 1.66 6.736.361 13.271-3.658 18.4-4.402 5.617-14.147 12.313-35.58 12.313zm-36.085-15.04a1.5 1.5 0 0 1 1.387.929c.042.095 5.231 11.11 34.698 11.11 20.226 0 29.228-6.071 33.219-11.164 3.488-4.451 4.562-9.926 3.106-15.833-4.047-16.424-16.468-47.867-34.513-49.308-7.169-.56-70.394 7.111-131.774 17.298-111.945 18.579-122.096 29.045-122.541 31.81l-1.481-.238 1.481.238c-1.155 7.177.2 13.093 4.027 17.585 6.045 7.095 17.547 9.612 25.559 9.612 10.892 0 20.063-1.385 34.707-8.466.38-.185.819-.197 1.211-.042.856.344 1.696.686 2.527 1.023 9.872 4.017 18.397 7.484 38.421 7.484 22.684 0 36.014-8.297 36.146-8.381a1.511 1.511 0 0 1 1.529-.049c.153.085 15.586 8.43 37.058 8.43 22.167 0 34.061-11.491 34.178-11.607a1.5 1.5 0 0 1 1.054-.433z" fill="#003029" id="tlTL3aZ8fYkJUJiyvh2ie" /><path d="m645.454 1394.626-86.965 41.448c-5.98 3.666-7.612 11.618-3.56 17.35s205.018-15.93 215.279-17.175c46.723-5.67 30.213-31.404 40.763-33.218-8.401-23.463-23.107-48.136-23.107-48.136l13.924-15.298c5.688-7.198-.245-18.149-9.302-16.627-2.7.453-5.259 1.909-7.283 4.984-2.835 4.306-9.131 19.284-11.735 27.01-6.652 19.735-10.089 46.263-35.826 53.329-11.855 3.254-38.616-6.996-54.81-5.347l1.618-7.726c1.865-8.744-3.992-17.273-12.832-18.687l-10.834-1.734c-6.01-.962-11.708 2.967-12.938 8.919l-2.394 10.909z" fill="#003029" id="SeQsPMOMuiLzId72LSh_m" /><path d="M577.958 1436.8c-1.839 0-3.628-1.036-4.691-2.766-1.256-2.043-1.184-4.548.19-6.534a1.501 1.501 0 0 1 2.468 1.705c-1.005 1.455-.406 2.764-.102 3.258.567.923 1.507 1.437 2.388 1.319l87.44-12.013a16.708 16.708 0 0 0 14.005-12.571l1.621-6.502a1.5 1.5 0 0 1 2.911.726l-1.621 6.502c-1.968 7.894-8.448 13.71-16.508 14.817l-87.44 12.013a4.89 4.89 0 0 1-.66.045z" fill="#FFEAE6" id="n6pKZ9LAuMt8tfUHFG5P" /><path d="M554.927 1454.924a1.5 1.5 0 0 1-.114-2.995c2.019-.156 202.069-15.586 219.222-17.726 26.583-3.315 29.149-15.649 30.847-23.812.88-4.229 1.711-8.225 5.868-8.845a1.495 1.495 0 0 1 1.705 1.262 1.5 1.5 0 0 1-1.262 1.705c-1.908.285-2.44 2.006-3.373 6.489-1.759 8.451-4.701 22.596-33.413 26.177-17.222 2.148-217.343 17.584-219.363 17.739a1.145 1.145 0 0 1-.117.005z" fill="#003029" id="jOMKCe6v9kEv8YOu6C6X" /><path d="M565.18 362.413c-42.263-29.753-83.151-23.615-106.338-9.222-20.069 12.456-13.182 37.897 14.356 32.472 7.271-1.433 26.918-14.822 56.594 9.095 15.324 12.35 56.521-17.467 35.389-32.344z" fill="#FFA78E" id="OnSKlvV_vPvKpGLmm7ww" /><path d="M535.962 431.536c17.757-4.778 21.822-28.285 19.116-37.291-1.905-6.34-53.897-21.558-98.638 2.552-29.728 16.02-25.87 32.995-21.625 38.092 7.645 9.178 20.259 11.162 53.387-3.215 9.024-3.917 33.894-1.516 47.76-.138z" fill="#FFA78E" id="oZM51iuXTfXg8he0rRZnq" /><path d="M535.458 462.339c17.757-4.778 20.383-27.202 12.062-36.635-8.123-7.806-45.957-17.52-81.069 2.172-29.453 16.519-26.108 33.203-21.625 38.092 6.865 7.488 17.909 11.488 47.398-5.363 9.041-5.166 30.303 2.618 43.234 1.733z" fill="#FFA78E" id="e12tSL1JgOwKsyCH6MMS" /><path d="M538.009 490.77c19.028-1.505 26.272-32.701 9.511-37.665-20.426-6.049-40.085-2.554-60.766 13.848-28.965 22.973-19.139 36.564-13.837 40.552 8.119 6.106 23.243 1.645 39.005-10.708 7.894-6.187 19.814-5.745 26.088-6.027z" fill="#FFA78E" id="xrCPGCSFmB-xIKMj9Uw2X" /><path d="M551.101 392.491c-.229 0-.462-.053-.68-.164-8.319-4.242-26.66-8.218-47.28-6.927-.822.046-1.539-.577-1.591-1.403s.576-1.539 1.403-1.591c21.179-1.33 40.159 2.827 48.83 7.249a1.5 1.5 0 0 1-.682 2.837zm-106.303 56.066a1.5 1.5 0 0 1-1.308-2.233c3.944-7.049 11.422-13.696 22.227-19.756 35.358-19.832 74.095-10.354 82.843-1.946a1.5 1.5 0 0 1-2.079 2.163c-3.843-3.693-15.199-7.906-29.469-8.811-12.23-.776-30.802.54-49.827 11.209-10.315 5.786-17.406 12.045-21.076 18.604a1.5 1.5 0 0 1-1.311.768zm41.957 19.896a1.5 1.5 0 0 1-.933-2.675c20.083-15.927 40.404-20.543 62.124-14.112a1.5 1.5 0 1 1-.852 2.877c-21.003-6.218-39.88-1.902-59.408 13.585a1.493 1.493 0 0 1-.931.325z" fill="#003029" id="I8K4G6up8WWTlnQSC5UbT" /></g></g><g transform="translate(99.0 419.0) rotate(0.0 292.5 288.0) scale(0.9986582130675709 0.999046049778857)" id="C0SAx09RQyTayQLN6jiwm"><g clip-path="url(#clipPath_EPNuBcOZ)" transform="matrix(1 0 0 1 0 0)" id="HipKqkEqocRdKYHvpw"><path d="m1.5 37.405 198.043 493.963 68.826 43.682 95.733-45.374 88.753 34.632 131.431-76.414L552.54 1.5 370.619 46.151 253.486 21.999l-138.58 49.364z" fill="#FFEAE6" id="EvHkGZIp9KOM0Hw0uD500" /><g fill="#003029" id="RxoxBUCeBgIDe3Lf_cpeN"><path d="M268.369 576.55c-.28 0-.56-.079-.804-.233l-68.826-43.683a1.51 1.51 0 0 1-.589-.708L.108 37.963c-.214-.535-.104-1.145.285-1.57s.986-.591 1.538-.425l112.935 33.817 138.117-49.2c.259-.092.538-.111.806-.056L370.59 44.613 552.182.043a1.5 1.5 0 0 1 1.854 1.359l31.747 486.394a1.502 1.502 0 0 1-.743 1.395l-131.431 76.414a1.506 1.506 0 0 1-1.299.101l-88.151-34.396-95.148 45.097a1.493 1.493 0 0 1-.642.145zm-67.614-46.19 67.719 42.98 94.986-45.02a1.505 1.505 0 0 1 1.188-.042l88.08 34.369 130.002-75.583L551.159 3.383 370.976 47.608a1.52 1.52 0 0 1-.661.012L253.593 23.552 115.409 72.776a1.506 1.506 0 0 1-.934.024L4.05 39.734z" fill="#003029" id="Fxib2Sx7aEgdrEa6xb6cr" /><path d="M268.368 576.551a1.5 1.5 0 0 1-1.434-1.063L235.03 470.775a1.5 1.5 0 0 1 2.87-.874l31.904 104.713a1.5 1.5 0 0 1-1.436 1.937zm-35.729-117.27a1.5 1.5 0 0 1-1.434-1.063l-7.127-23.393a1.5 1.5 0 0 1 2.87-.874l7.127 23.393a1.5 1.5 0 0 1-1.436 1.937zm-28.071-92.131a1.5 1.5 0 0 1-1.434-1.063L113.471 71.8a1.5 1.5 0 0 1 2.87-.874l89.663 294.287a1.5 1.5 0 0 1-1.436 1.937zm150.8 123.948a1.5 1.5 0 0 1-1.464-1.181L296.827 227.96a1.5 1.5 0 1 1 2.931-.639l57.077 261.957a1.5 1.5 0 0 1-1.467 1.82zm-63.486-291.374a1.5 1.5 0 0 1-1.464-1.181L266.904 90.624a1.5 1.5 0 1 1 2.931-.639l23.514 107.919a1.5 1.5 0 0 1-1.467 1.82zm160.972 366.084a1.5 1.5 0 0 1-1.48-1.265l-29.785-187.668a1.5 1.5 0 0 1 2.963-.471l29.785 187.668a1.5 1.5 0 0 1-1.483 1.736zm-41.119-259.079a1.499 1.499 0 0 1-1.479-1.265l-3.384-21.321a1.5 1.5 0 0 1 2.963-.471l3.384 21.321a1.5 1.5 0 0 1-1.483 1.736zm-5.604-35.313a1.5 1.5 0 0 1-1.48-1.265L369.137 46.387a1.5 1.5 0 0 1 2.963-.471l35.514 223.764a1.5 1.5 0 0 1-1.483 1.736z" fill="#003029" id="uyZrXWkGXx077QuzorK" /></g></g></g><g transform="translate(109.0 603.0) rotate(78.93759723246963 78.5 40.5) scale(1.000210235272382 1.0029593491908224)" id="qTkT7-3PZXkBBc4QKr9LR"><g clip-path="url(#clipPath_WM4tNymm)" transform="matrix(1 0 0 1 0 0)" id="kcWnE48eEdJwu1COWE-g6"><path d="M64.619 37.512c14.267 11.601 20.75 21.147 14.608 28.268-4.324 5.013-13.897 10.054-24.388 9.944-19.428-.205-34.667-11.188-42.478-21.108-20.891-26.531-10.307-40.96-4.22-43.598 9.321-4.039 22.58 3.026 35.482 22.762z" fill="#FFA78E" id="uoPqNNsIBljhhikG94Kk" /><path d="M109.896 63.351c-2.483 9.501-14.697 18.727-32.831 17.186-9.259-.787-19.491-7.855-25.655-19.557-7.061-13.405-8.352-29.121-8.19-35.609C43.702 6.113 54.281-.482 60.896.027c10.129.78 20.372 12.557 20.648 38.196l20.794 3.556z" fill="#FFA78E" id="gy9yjaxuGUowbdJnVwMWu" /><path d="M64.313 77.23c-.289 0-.581-.083-.839-.258-5.422-3.666-10.053-8.954-13.391-15.292-6.988-13.266-8.544-29.088-8.362-36.345.021-.828.705-1.449 1.537-1.463a1.5 1.5 0 0 1 1.462 1.537c-.175 6.968 1.317 22.152 8.017 34.872 3.109 5.902 7.403 10.814 12.418 14.206a1.5 1.5 0 0 1-.842 2.743z" fill="#003029" id="Kzse565IVL4HmUpF0xDS" /><path d="M139.053 50.313c-4.504 18.016-16.418 28.662-33.898 28.802-18.49.147-28.726-20.829-31.765-32.595-9.245-35.794 5.94-44.918 12.564-45.29 10.143-.569 20.501 6.73 24.172 32.107z" fill="#FFA78E" id="Q0iIS4dAiSxbXcBlqQy7g" /><path d="M101.127 80.303c-.081 0-.164-.007-.247-.021-16.756-2.773-26.077-22.291-28.943-33.387-6.217-24.073-1.49-35.913 3.571-41.606a1.5 1.5 0 1 1 2.243 1.992c-4.576 5.148-8.796 16.07-2.909 38.864C77.526 56.539 86.134 74.8 101.37 77.323a1.5 1.5 0 0 1-.243 2.98z" fill="#003029" id="HgvnwXxim1ufQGAZQTyMX" /><path d="M156.967 71.849c-5.183 3.784-10.092 7.316-22.655 7.413-12.327.095-24.89-14.725-29.243-33.028C96.308 9.401 110.85.61 117.482.43c15.882-.43 25.838 19.303 28.174 43.49z" fill="#FFA78E" id="a2-Mdhga_5ejua_BbvaBF" /><path d="M134.312 80.762c-12.869-.001-26.068-14.695-30.703-34.182-5.619-23.626-1.624-35.444 2.717-41.199a1.5 1.5 0 0 1 2.395 1.807c-3.953 5.24-7.542 16.208-2.193 38.699 4.251 17.873 16.455 31.874 27.784 31.875a1.5 1.5 0 1 1 0 3z" fill="#003029" id="GBDOzUF76Uw25jBndI7UP" /></g></g><g transform="translate(581.0 565.0) rotate(0.0 69.5 84.5) scale(0.9988215343048491 1.0000414218340405)" id="ab7j-NAFe6z9ZUFXJp4Lw"><g clip-path="url(#clipPath_nmDthidE)" transform="matrix(1 0 0 1 0 0)" id="k65rAhIfBEMQ7u07yHlym"><g fill="#FFA78E" id="r26ly8q6krSOaN1x2F_Fj"><path d="M133.257 21.186C90.994-8.567 50.106-2.429 26.919 11.964 6.85 24.42 13.737 49.861 41.275 44.436c7.271-1.433 26.918-14.822 56.594 9.095 15.324 12.35 56.521-17.467 35.389-32.344z" fill="#FFA78E" id="t7cM0_phO0lAKao_5jKQS" /><path d="M104.039 90.309c17.757-4.778 21.822-28.285 19.116-37.291-1.905-6.34-53.897-21.558-98.638 2.552C-5.211 71.591-1.353 88.566 2.893 93.663c7.645 9.178 20.259 11.162 53.387-3.215 9.024-3.917 33.894-1.516 47.76-.138z" fill="#FFA78E" id="Wn0WVZeUO7VsCn-tGAEWA" /><path d="M103.535 121.112c17.757-4.778 20.383-27.202 12.062-36.635-8.123-7.806-45.957-17.52-81.069 2.172-29.454 16.519-26.108 33.203-21.625 38.093 6.865 7.488 17.909 11.488 47.398-5.363 9.041-5.166 30.303 2.618 43.234 1.733z" fill="#FFA78E" id="F2T7OcdceBV9ZP9ASuBa_" /><path d="M106.086 149.543c19.028-1.505 26.272-32.701 9.511-37.665-20.426-6.049-40.085-2.554-60.766 13.848-28.965 22.973-19.139 36.564-13.837 40.552 8.119 6.106 23.243 1.645 39.005-10.708 7.894-6.187 19.814-5.745 26.088-6.027z" fill="#FFA78E" id="kzbnlP8tQTAxVg8veb-Aa" /></g><path d="M119.178 51.264c-.229 0-.462-.053-.68-.164-8.318-4.241-26.659-8.217-47.28-6.927a1.5 1.5 0 0 1-.188-2.994c21.18-1.326 40.16 2.828 48.83 7.249a1.5 1.5 0 0 1-.682 2.837zM12.875 107.33a1.5 1.5 0 0 1-1.308-2.233c3.944-7.049 11.422-13.696 22.227-19.756 35.358-19.83 74.094-10.353 82.842-1.946a1.5 1.5 0 0 1-2.079 2.163c-3.843-3.693-15.199-7.905-29.469-8.811-12.23-.773-30.802.54-49.827 11.209-10.315 5.786-17.406 12.045-21.076 18.604a1.5 1.5 0 0 1-1.311.768zm41.957 19.897a1.5 1.5 0 0 1-.933-2.675c20.083-15.928 40.402-20.544 62.124-14.112a1.5 1.5 0 1 1-.852 2.877c-21.001-6.221-39.879-1.903-59.408 13.585a1.493 1.493 0 0 1-.931.325z" fill="#003029" id="sfnLFV_d1xJZDxUDQNR7" /></g></g></g></g></svg>