<svg viewBox="695.2750000000005 -9.948453608247291 6654.775 3481.9587628865984" fill="none" xmlns="http://www.w3.org/2000/svg" xmlns:xlink="http://www.w3.org/1999/xlink" overflow="visible" width="6654.775px" height="3481.9587628865984px">
    <g id="Master/Scene/Relax at Home">
        <g id="Master/Scene/Alone Time 1" transform="scale(1 1)">
            <g id="Master/Scene/Alone Time 1">
                <g id="Background">
                    <g id="Painting">
                        <g id="Painting_2">
                            <path id="Fill 2" fill-rule="evenodd" clip-rule="evenodd" d="M3933.31 1641.92H4958.31V432.92H3933.31V1641.92Z" fill="#E93737"/>
                            <path id="Fill 3" fill-rule="evenodd" clip-rule="evenodd" d="M3961.31 1612.92H4933.31V460.92H3961.31V1612.92Z" fill="#EECCDC"/>
                            <path id="Fill 4" fill-rule="evenodd" clip-rule="evenodd" d="M4550.31 1208.92H4933.31V754.92H4550.31V1208.92Z" fill="#EC7070"/>
                            <path id="Fill 5" fill-rule="evenodd" clip-rule="evenodd" d="M4628.38 1169.92H4680.31V806.92H4628.38V1169.92Z" fill="#E93737"/>
                            <path id="Fill 7" fill-rule="evenodd" clip-rule="evenodd" d="M4550.31 754.92L4465.31 911.92L4466.76 1207.4L4550.31 1208.92V754.92Z" fill="#E93737"/>
                            <path id="Fill 8" fill-rule="evenodd" clip-rule="evenodd" d="M3960.31 1612.92H4297.31V1162.92H3960.31V1612.92Z" fill="#EC7070"/>
                            <path id="Fill 9" fill-rule="evenodd" clip-rule="evenodd" d="M4057.31 1365.92H4297.31V1253.92H4057.31V1365.92Z" fill="#E93737"/>
                            <path id="Fill 10" fill-rule="evenodd" clip-rule="evenodd" d="M4057.31 1536.92H4297.31V1417.92H4057.31V1536.92Z" fill="#E93737"/>
                            <path id="Fill 11" fill-rule="evenodd" clip-rule="evenodd" d="M4467.31 1612.92H4933.31V1158.92H4467.31V1612.92Z" fill="#EC7070"/>
                            <path id="Fill 12" fill-rule="evenodd" clip-rule="evenodd" d="M4555.38 1367.92H4933.54V1253.92H4555.38V1367.92Z" fill="#E93737"/>
                            <path id="Fill 13" fill-rule="evenodd" clip-rule="evenodd" d="M4556.38 1539.92H4934.54V1425.92H4556.38V1539.92Z" fill="#E93737"/>
                            <path id="Fill 14" fill-rule="evenodd" clip-rule="evenodd" d="M4467.31 1158.92L4382.31 1315.92L4383.76 1611.4L4467.31 1612.92V1158.92Z" fill="#E93737"/>
                            <path id="Fill 16" fill-rule="evenodd" clip-rule="evenodd" d="M4286.31 702.92C4286.31 762.567 4237.95 810.92 4178.31 810.92C4118.66 810.92 4070.31 762.567 4070.31 702.92C4070.31 643.273 4118.66 594.92 4178.31 594.92C4237.95 594.92 4286.31 643.273 4286.31 702.92" fill="#FC7750"/>
                            <path id="Fill 6" fill-rule="evenodd" clip-rule="evenodd" d="M4753.38 1169.92H4805.31V806.92H4753.38V1169.92Z" fill="#E93737"/>
                            <path id="Fill 15" fill-rule="evenodd" clip-rule="evenodd" d="M4881.38 1171.92H4933.31V806.92H4881.38V1171.92Z" fill="#E93737"/>
                        </g>
                    </g>
                    <g id="Painting/Horizontal" transform="translate(3074 431) scale(1 1)">
                        <g id="Painting/Horizontal/Painting 1">
                            <g id="Painting">
                                <path id="Fill 45" fill-rule="evenodd" clip-rule="evenodd" d="M0 507H768V0H0V507Z" fill="#E93737"/>
                                <path id="Fill 46" fill-rule="evenodd" clip-rule="evenodd" d="M23.9805 482H741.001V28.742H23.9805V482Z" fill="#EECCDC"/>
                                <path id="Fill 47" fill-rule="evenodd" clip-rule="evenodd" d="M302.811 275.195C299.154 261.488 288.527 250.307 275.613 244.762C261.853 238.854 246.187 239.724 232.865 246.431C225.517 250.131 219.166 255.651 214.629 262.519C213.467 264.278 214.966 267.309 217.219 267.033C224.358 266.156 231.957 265.1 238.978 267.222C244.19 268.798 249.165 272.46 250.155 278.082C251.12 276.815 252.084 275.549 253.048 274.284C244.784 273.476 236.52 272.669 228.257 271.861C221.043 271.157 212.957 269.506 206.636 274.078C203.823 276.112 201.68 278.825 199.492 281.483C196.973 284.544 194.492 287.634 192.049 290.756C187.181 296.977 182.457 303.308 177.887 309.754C175.914 312.536 180.311 315.879 182.599 313.388C194.5 300.433 213.626 295.131 230.628 299.237C230.389 297.41 230.15 295.582 229.911 293.754C214.787 300.845 199.411 307.563 184.52 315.133C178.28 318.304 172.061 322.106 167.486 327.501C163.016 332.771 160.187 339.126 158.644 345.832C156.894 353.437 156.583 361.293 156.399 369.065C156.34 371.592 159.77 373.12 161.52 371.187C171.503 360.161 181.627 348.926 194.049 340.574C205.954 332.569 219.901 327.344 234.4 328.082C233.895 326.218 233.391 324.355 232.886 322.491C224.438 328.674 215.991 334.858 207.543 341.041C200.162 346.444 192.682 351.765 185.777 357.779C173.349 368.603 162.722 382.691 162.57 399.854C162.492 408.677 165.478 417.228 171.59 423.662C172.817 424.953 175.503 424.813 176.302 423.054C184.63 404.711 199.306 390.008 217.197 380.889C215.986 379.318 214.774 377.748 213.562 376.177C206.103 384.396 199.258 393.183 193.183 402.474C190.273 406.924 187.323 411.487 184.976 416.263C183.189 419.898 181.814 423.955 181.832 428.049C181.85 432.027 183.424 435.816 186.801 438.073C190.608 440.617 195.387 440.309 199.372 438.371C203.644 436.293 206.54 432.556 208.233 428.204C210.099 423.408 210.436 418.194 212.147 413.352C215.509 403.837 223.989 396.61 233.477 393.638C232.247 392.408 231.017 391.178 229.787 389.948C222.619 407 214.451 423.626 205.426 439.77C204.27 441.838 206.25 445.216 208.814 444.177C216.188 441.188 222.832 437.031 229.11 432.168C235.298 427.375 241.359 422.196 246.954 416.718C252.031 411.748 255.426 406.006 256.836 399.026C258.065 392.941 258.139 386.715 258.831 380.563C259.498 374.624 261.045 368.216 266.033 364.389L261.626 362.596C265.401 376.898 264.208 392.241 258.149 405.756C256.859 408.633 260.378 412.108 262.861 409.39C270.521 401.007 282.457 396.886 293.69 398.56C296.033 398.909 297.82 397.278 297.38 394.87C295.714 385.742 289.042 379.007 284.112 371.533C280.262 365.699 276.661 356.475 282.253 350.554C280.682 350.352 279.112 350.15 277.541 349.947C285.752 363.596 292.19 378.177 296.65 393.47C297.396 396.03 300.731 396.324 302.133 394.187C305.355 389.277 312.642 388.824 317.663 386.826C323.155 384.641 329.37 380.4 329.081 373.734C328.922 370.072 326.697 367.074 324.694 364.178C322.204 360.58 319.714 356.982 317.225 353.383L302.753 332.468C301.385 333.837 300.017 335.205 298.649 336.573C315.987 347.46 324.674 366.849 332.471 384.953C333.555 387.467 337.273 386.472 337.955 384.236C339.995 377.538 343.519 371.345 348.242 366.172C350.623 363.563 353.259 361.234 356.103 359.146C358.886 357.104 361.837 355.123 364.131 352.513C369.034 346.936 369.225 339.747 365.162 333.603C361.071 327.419 354.509 322.959 348.074 319.495C340.381 315.353 331.983 312.611 323.336 311.39V317.175C338.317 314.386 354.199 318.121 366.349 327.304C367.934 328.502 370.286 327.197 370.756 325.511C373.768 314.711 373.809 302.495 368.908 292.233C363.449 280.802 351.391 275.086 339.002 276.733C324.354 278.681 311.758 288.229 300.26 296.839C289.103 305.194 278.314 314.229 269.225 324.845C259.458 336.252 251.701 349.528 248.932 364.432C248.426 367.153 251.767 369.75 253.946 367.351C261.918 358.574 269.891 349.797 277.864 341.02C285.331 332.799 292.596 324.317 300.416 316.428C307.206 309.58 314.962 303.518 324.553 301.351C333.545 299.32 343.105 300.787 351.561 304.242C369.81 311.7 381.243 328.648 388.662 346.188C396.959 365.802 402.24 386.966 404.68 408.102C407.49 432.443 406.534 457.174 401.723 481.202H407.509C397.875 449.197 397.993 415.574 399.927 382.508C401.89 348.953 405.689 315.307 403.22 281.673C401.945 264.3 398.377 247.428 394.564 230.471C390.825 213.84 387.325 196.998 387.962 179.854C388.521 164.804 392.535 149.622 401.926 137.606C410.23 126.98 422.082 119.116 435.505 116.949C439.165 116.359 442.996 116.191 446.264 118.191C449.341 120.075 451.808 123.054 454.173 125.73C459.181 131.396 463.571 137.584 467.315 144.154C474.656 157.032 479.48 171.471 480.976 186.241C481.349 189.93 481.516 193.634 481.507 197.343C483.37 196.839 485.233 196.334 487.097 195.829C475.269 175.461 463.441 155.092 451.613 134.724C442.804 119.554 429.687 98.19 443.551 81.919C453.357 70.41 470.293 66.78 484.767 67.68C501.252 68.705 517.458 76.355 529.774 87.169C543.509 99.226 553.509 116.025 555.265 134.423C556.972 133.716 558.679 133.008 560.386 132.3C539.111 115.715 509.747 110.58 484.018 118.646C481.416 119.463 480.919 123.899 484.018 124.432C503.034 127.703 523.089 131.409 539.759 141.672C547.367 146.355 554.088 152.62 558.353 160.547C562.574 168.395 563.936 177.779 562.448 186.547C560.699 196.86 555.482 206.142 547.464 212.874C549.034 213.076 550.605 213.278 552.175 213.481C541.558 196.659 528.08 181.769 512.473 169.444C511.261 171.015 510.05 172.586 508.838 174.156C519.241 179.749 530.758 190.431 530.396 203.261C530.208 209.945 525.934 215.038 521.54 219.651C516.458 224.986 511.693 230.444 507.942 236.824C503.784 243.897 500.795 251.665 499.177 259.708C500.849 259.266 502.52 258.825 504.192 258.384C486.75 240.136 457.683 235.318 434.788 245.225C436.156 245.585 437.524 245.943 438.892 246.302C428.484 228.818 442.375 208.761 449.112 192.739C451.071 188.079 452.815 183.245 453.594 178.231C454.256 173.97 453.783 169.403 450.317 166.431C444.348 161.315 434.731 163.236 429.721 168.71C423.295 175.729 422.283 186.732 421.252 195.748C420.01 206.6 420.104 217.594 421.512 228.426C421.795 230.6 422.676 233.164 422.431 235.352C422.334 236.218 422.523 236.089 421.574 236.075C420.468 236.059 419.215 235.402 418.172 235.063C412.681 233.277 407.19 231.49 401.699 229.704C398.208 228.568 391.94 227.741 391.527 223.183C391.332 221.029 391.966 218.816 392.426 216.735C392.993 214.167 393.622 211.612 394.31 209.074C400.132 187.598 410.23 167.49 423.626 149.746C425.138 147.744 422.591 144.364 420.238 145.34C398.055 154.53 383.803 174.09 373.176 194.843C370.179 200.695 367.423 206.665 364.723 212.658C365.587 212.163 366.45 211.668 367.314 211.173C353.528 209.944 345.58 194.332 348.744 181.8C352.94 165.181 368.964 154.721 382.71 146.426C391.774 140.958 400.961 135.686 409.115 128.883C411.185 127.155 409.428 123.775 406.994 123.76C381.11 123.607 355.17 133.637 336.823 152.038H341.066C332.301 144.826 331.554 132.861 335.611 122.852C340.425 110.975 351.94 103.649 363.172 98.614C370.407 95.37 377.996 92.957 385.541 90.553C389.207 89.385 387.64 83.591 383.946 84.767C369.532 89.359 354.656 94.2 342.77 103.911C332.708 112.131 325.903 124.883 327.376 138.139C328.16 145.194 331.292 151.729 336.823 156.281C338.073 157.309 339.831 157.519 341.066 156.281C358.323 138.973 382.656 129.616 406.994 129.76C406.287 128.053 405.58 126.346 404.873 124.639C389.635 137.354 370.35 144.367 356.199 158.519C349.898 164.821 344.559 172.592 342.674 181.424C341.071 188.932 342.43 196.814 346.298 203.439C350.798 211.146 358.376 216.376 367.314 217.173C368.258 217.257 369.511 216.56 369.904 215.686C378.885 195.748 388.781 174.8 406.044 160.631C410.788 156.736 416.161 153.475 421.833 151.125C420.704 149.656 419.575 148.187 418.446 146.717C406.198 162.941 396.683 181.198 390.548 200.587C389.032 205.378 387.725 210.234 386.64 215.139C385.676 219.5 384.508 224.519 387.122 228.556C389.78 232.661 394.968 233.819 399.32 235.234C404.811 237.021 410.301 238.807 415.792 240.593C418.067 241.334 420.429 242.298 422.865 242.025C425.326 241.749 427.408 240.137 428.11 237.723C428.699 235.697 428.304 233.618 427.983 231.587C427.525 228.691 427.16 225.785 426.903 222.865C425.922 211.732 426.29 200.442 428.154 189.419C429.382 182.159 431.126 170.942 440.078 169.584C442.863 169.161 446.541 169.788 447.601 172.774C448.345 174.873 447.741 177.337 447.264 179.425C446.672 182.024 445.87 184.572 444.947 187.071C441.013 197.724 434.781 207.428 431.552 218.361C428.533 228.588 428.097 239.899 433.712 249.331C434.613 250.844 436.315 251.056 437.816 250.407C458.245 241.566 484.523 246.488 499.949 262.627C501.437 264.183 504.516 263.526 504.963 261.303C506.486 253.731 509.207 246.512 513.123 239.852C517.115 233.062 522.385 227.686 527.64 221.907C532.45 216.617 536.181 210.596 536.396 203.261C536.589 196.685 533.95 190.199 530.19 184.91C525.451 178.243 519.057 172.841 511.866 168.975C509.018 167.444 505.443 171.485 508.231 173.687C523.444 185.701 536.642 200.107 546.994 216.509C548.093 218.249 550.204 218.378 551.706 217.116C567.09 204.202 573.299 181.493 565.894 162.678C558.286 143.347 539.254 132.633 520.407 126.57C509.067 122.923 497.334 120.663 485.613 118.646V124.432C509.126 117.06 536.573 121.286 556.144 136.544C557.931 137.937 561.541 137.318 561.265 134.423C557.829 98.42 526.933 68.098 491.617 62.454C475.262 59.84 456.668 62.743 443.595 73.486C437.249 78.701 432.94 86.011 431.831 94.176C430.301 105.439 434.72 116.394 439.878 126.171C446.335 138.409 453.678 150.229 460.626 162.194C467.722 174.416 474.819 186.636 481.916 198.857C483.414 201.437 487.498 200.312 487.507 197.343C487.548 181.645 484.144 166.167 477.859 151.802C474.748 144.691 470.899 137.899 466.403 131.572C461.95 125.304 456.887 118.526 450.644 113.933C444.149 109.153 435.729 110.324 428.42 112.374C421.543 114.302 415.07 117.622 409.389 121.935C397.565 130.913 389.314 143.599 385.274 157.841C375.264 193.125 389.779 228.583 395.166 263.28C400.509 297.697 397.301 332.751 394.913 367.276C392.54 401.591 390.755 436.531 398.433 470.349C399.384 474.536 400.485 478.685 401.723 482.797C402.528 485.47 406.901 485.832 407.509 482.797C416.461 438.084 412.65 390.771 395.944 348.275C388.647 329.715 377.862 311.346 359.785 301.546C351.16 296.869 341.255 294.107 331.4 294.474C321.051 294.86 311.785 298.924 303.746 305.314C294.147 312.944 286.281 322.84 278.071 331.879C268.615 342.289 259.159 352.698 249.703 363.108C251.374 364.081 253.046 365.054 254.717 366.027C259.384 340.914 278.198 321.793 297.482 306.491C302.554 302.466 307.778 298.618 313.097 294.927C318.723 291.024 324.669 287.302 331.114 284.908C337.219 282.639 343.86 281.48 350.229 283.351C354.838 284.705 358.903 287.586 361.612 291.566C367.934 300.857 367.889 313.45 364.971 323.916L369.378 322.123C355.918 311.95 338.226 308.32 321.74 311.39C318.938 311.912 318.816 316.763 321.74 317.175C328.807 318.174 335.758 320.131 342.199 323.226C348.241 326.129 354.498 329.866 358.83 335.08C360.727 337.363 362.436 340.343 362.148 343.42C361.874 346.338 359.829 348.562 357.718 350.405C355.414 352.416 352.829 354.079 350.428 355.968C347.775 358.054 345.318 360.38 343.108 362.931C338.127 368.684 334.387 375.357 332.169 382.64C333.997 382.402 335.824 382.163 337.652 381.924C329.393 362.749 319.996 342.895 301.677 331.392C299.218 329.848 295.844 333 297.572 335.497C302.085 342.019 306.598 348.541 311.11 355.062C313.444 358.436 315.778 361.809 318.112 365.182C319.774 367.585 322.792 370.671 323.081 373.734C323.584 379.074 315.336 381.392 311.528 382.532C305.982 384.192 300.281 386.086 296.952 391.159C298.78 391.398 300.608 391.636 302.436 391.876C297.839 376.113 291.185 360.987 282.722 346.919C281.751 345.305 279.357 344.886 278.01 346.312C271.357 353.356 272.917 363.503 277.07 371.426C281.553 379.982 289.795 386.604 291.594 396.465C292.825 395.234 294.055 394.005 295.285 392.774C281.943 390.787 267.828 395.068 258.618 405.148C260.189 406.36 261.759 407.572 263.33 408.784C270.069 393.754 271.624 376.963 267.412 361.002C266.966 359.313 264.567 358.009 263.005 359.209C252.712 367.106 253.037 379.885 251.877 391.644C251.288 397.62 250.077 403.638 246.337 408.499C243.916 411.644 240.842 414.267 237.892 416.896C235.061 419.418 232.224 421.932 229.31 424.356C222.603 429.938 215.349 435.095 207.218 438.391C208.348 439.86 209.477 441.33 210.606 442.799C219.89 426.193 228.201 409.08 235.572 391.543C236.472 389.403 233.877 387.228 231.882 387.852C223.665 390.426 216.504 395.438 211.353 402.342C208.844 405.706 206.949 409.538 205.783 413.57C204.487 418.053 204.166 422.919 202.191 427.19C200.688 430.44 197.737 433.34 194.063 433.891C190.904 434.366 188.274 432.333 187.879 429.207C187.481 426.049 188.595 422.592 189.924 419.775C191.903 415.584 194.47 411.596 196.953 407.69C203.105 398.009 210.097 388.912 217.804 380.42C220.116 377.874 217.231 374.147 214.169 375.708C195.477 385.235 179.824 400.856 171.121 420.026C172.691 419.824 174.262 419.622 175.832 419.419C165.894 408.958 167.12 392.601 173.855 380.766C182.009 366.439 196.225 356.722 209.238 347.198C218.13 340.689 227.022 334.18 235.914 327.673C238.282 325.939 237.528 322.241 234.4 322.082C219.17 321.307 204.194 326.681 191.607 335.003C178.47 343.687 167.778 355.346 157.278 366.944C158.985 367.651 160.692 368.358 162.399 369.065C162.692 356.656 163.093 342.677 171.136 332.464C175.345 327.119 181.265 323.529 187.239 320.471C193.972 317.026 200.909 313.955 207.757 310.744C216.151 306.807 224.545 302.871 232.939 298.934C235.298 297.829 234.612 294.029 232.223 293.452C213.217 288.861 191.701 294.619 178.356 309.146C179.926 310.358 181.497 311.57 183.068 312.782C187.341 306.755 191.739 300.816 196.292 294.998C198.571 292.085 200.885 289.198 203.231 286.339C205.242 283.887 207.211 281.125 209.757 279.188C212.416 277.166 215.573 276.856 218.811 277.006C222.515 277.176 226.219 277.663 229.909 278.023C237.622 278.777 245.335 279.53 253.048 280.284C255.16 280.49 256.245 278.213 255.941 276.486C254.699 269.438 248.695 264.5 242.321 262.04C234.361 258.966 225.467 260.02 217.219 261.033C218.083 262.538 218.946 264.043 219.81 265.548C226.785 254.989 239.132 248.241 251.627 246.981C264.457 245.688 277.286 250.115 286.521 259.149C291.51 264.029 295.222 270.03 297.025 276.79C298.02 280.517 303.809 278.936 302.811 275.195" fill="white"/>
                            </g>
                        </g>
                    </g>
                    <g id="Painting/Vertical" transform="translate(3358 1059) scale(1 1)">
                        <g id="Painting/Vertical/Painting 3">
                            <g id="Frame">
                                <path id="Fill 1" fill-rule="evenodd" clip-rule="evenodd" d="M0 584H482.999V0H0V584Z" fill="#E93737"/>
                                <path id="Fill 2" fill-rule="evenodd" clip-rule="evenodd" d="M27 553.968H459.847V325H27V553.968Z" fill="#204EB2"/>
                                <path id="Fill 3" fill-rule="evenodd" clip-rule="evenodd" d="M27.1914 345.903H460.038V29H27.1914V345.903Z" fill="#FC7750"/>
                                <g id="Group 8">
                                    <path id="Fill 4" fill-rule="evenodd" clip-rule="evenodd" d="M321 344.678C321 345.114 321 345.564 320.987 346H165.014C165 345.564 165 345.114 165 344.678C165 301.606 199.929 266.678 243 266.678C286.072 266.678 321 301.606 321 344.678" fill="#F9C818"/>
                                    <path id="Fill 6" fill-rule="evenodd" clip-rule="evenodd" d="M320.986 346C320.285 388.464 285.634 422.678 242.999 422.678C200.364 422.678 165.714 388.464 165.012 346H320.986Z" fill="#56ACF6"/>
                                </g>
                            </g>
                        </g>
                    </g>
                    <rect id="Rectangle" x="2176" y="1463" width="696" height="79" rx="39.5" fill="#EECCDC"/>
                    <g id="Small Objects" transform="translate(2275 533) scale(1 1)">
                        <g id="Small Objects/Plant 5">
                            <g id="Tall Vase Plant 3">
                                <path id="Fill 29" fill-rule="evenodd" clip-rule="evenodd" d="M323 531C323 531 490.705 497.593 551.369 361.406C612.032 225.219 502.321 235.523 431.434 304.456C360.547 373.39 327.538 450.54 323 531" fill="#F9C818"/>
                                <path id="Fill 30" fill-rule="evenodd" clip-rule="evenodd" d="M284.172 708C284.158 707.787 282.8 686.334 287.953 651.711C292.702 619.806 304.111 569.797 331.497 512.735C358.855 455.735 388.937 412.097 409.355 385.526C431.499 356.711 447.407 341.154 447.565 341L450 343.506C449.843 343.658 434.074 359.086 412.072 387.726C391.769 414.153 361.856 457.555 334.647 514.248C307.476 570.86 296.146 620.459 291.427 652.098C286.313 686.385 287.643 707.556 287.657 707.765L284.172 708Z" fill="#0A4343"/>
                                <path id="Fill 31" fill-rule="evenodd" clip-rule="evenodd" d="M283.158 400C283.158 400 431.224 327.667 443.043 180.378C454.862 33.0889 354.113 69.1345 309.963 153.206C265.813 237.277 260.408 320.396 283.158 400" fill="#237978"/>
                                <path id="Fill 32" fill-rule="evenodd" clip-rule="evenodd" d="M256.44 443C256.44 443 97.3466 314.141 119.031 146.845C140.716 -20.4523 252.168 52.6135 284.42 160.383C316.672 268.153 302.927 362.147 256.44 443" fill="#F9C818"/>
                                <path id="Fill 33" fill-rule="evenodd" clip-rule="evenodd" d="M240.676 457C240.676 457 40.207 416.088 -17.7514 257.241C-75.7103 98.3939 56.7901 111.75 135.097 192.665C213.404 273.58 244.582 363.551 240.676 457" fill="#237978"/>
                                <path id="Fill 34" fill-rule="evenodd" clip-rule="evenodd" d="M265.418 729C265.337 728.101 257.42 637.762 265.963 524.306C270.981 457.652 280.615 396.165 294.596 341.552C312.09 273.216 336.483 215.498 367.097 170L370 171.943C339.613 217.103 315.386 274.447 297.991 342.383C284.061 396.791 274.459 458.067 269.453 524.509C260.926 637.69 268.82 727.791 268.901 728.688L265.418 729Z" fill="#0A4343"/>
                                <path id="Fill 35" fill-rule="evenodd" clip-rule="evenodd" d="M195.678 842L192.383 840.894C192.701 839.937 224.309 743.657 239.45 607.906C248.341 528.202 249.899 450.687 244.082 377.516C236.813 286.091 217.945 201.23 188 125.289L191.23 124C221.308 200.279 240.256 285.497 247.549 377.288C253.381 450.693 251.815 528.444 242.894 608.381C227.705 744.477 195.997 841.04 195.678 842" fill="#0A4343"/>
                                <path id="Fill 36" fill-rule="evenodd" clip-rule="evenodd" d="M131 801.5C131 872.469 188.531 930 259.5 930V930C330.469 930 388 872.469 388 801.5V651H131V801.5Z" fill="#204EB2"/>
                                <path id="Fill 38" fill-rule="evenodd" clip-rule="evenodd" d="M247.51 499C245.808 470.787 234.635 438.335 214.304 402.546C197.757 373.42 175.087 341.949 146.922 309.007C102.525 257.081 56.1881 215.299 38.3268 199.746C37.6293 199.139 37.1805 198.748 37 198.583L39.352 196C39.5251 196.157 39.9555 196.532 40.6242 197.114C58.5441 212.718 105.033 254.637 149.581 306.74C177.89 339.85 200.689 371.504 217.345 400.823C237.942 437.08 249.265 470.04 251 498.79L247.51 499Z" fill="#0A4343"/>
                            </g>
                        </g>
                    </g>
                    <g id="Tall Vase Plant" transform="translate(5164 1081) scale(1 1)">
                        <g id="Tall Vase Plant/Plant 5">
                            <g id="Group 31">
                                <g id="Group 3">
                                    <mask id="mask0_406_32353cf0cd013-6017-4f67-a2ec-ea9ad8dc0963" style="mask-type:luminance" maskUnits="userSpaceOnUse" x="434" y="-52" width="425" height="792" fill="#ffffff">
                                        <path id="Clip 2" fill-rule="evenodd" clip-rule="evenodd" d="M434.199 -51.9951H858.323V739.428H434.199V-51.9951Z" fill="#ffffff"/>
                                    </mask>
                                    <g mask="url(#mask0_406_32353cf0cd013-6017-4f67-a2ec-ea9ad8dc0963)">
                                        <path id="Fill 1" fill-rule="evenodd" clip-rule="evenodd" d="M707.341 739.044C707.341 739.044 553.193 754.518 499.151 589.058C499.151 589.058 474.273 527.121 500.009 522.697C525.743 518.273 564.345 515.619 564.345 507.655C564.345 499.692 432.984 476.352 434.208 389.258C435.431 302.164 431.928 -21.2264 501.99 -50.1334C572.052 -79.0394 799.752 237.125 794.498 298.55C789.243 359.977 733.194 405.143 757.715 410.563C782.237 415.982 808.511 320.231 827.778 379.85C847.045 439.469 928.455 653.802 707.341 739.044" fill="#1BC0D7"/>
                                    </g>
                                </g>
                                <path id="Fill 4" fill-rule="evenodd" clip-rule="evenodd" d="M855.115 719.257C855.115 719.257 958.059 798.464 1067.54 699.981C1067.54 699.981 1111.82 665.159 1095.43 650.575C1079.03 635.992 1052.73 617.058 1056.15 611.175C1059.57 605.292 1162.98 645.804 1199.52 580.919C1236.05 516.034 1377.43 278.649 1340.03 226.488C1302.64 174.327 1004.98 307.799 982.331 355.492C959.685 403.185 980.136 461.198 960.375 454.421C940.613 447.644 963.058 365.349 923.756 400.925C884.453 436.502 734.526 559.061 855.115 719.257" fill="#237978"/>
                                <g id="Group 8">
                                    <mask id="mask1_406_32353cf0cd013-6017-4f67-a2ec-ea9ad8dc0963" style="mask-type:luminance" maskUnits="userSpaceOnUse" x="-12" y="414" width="517" height="359" fill="#ffffff">
                                        <path id="Clip 7" fill-rule="evenodd" clip-rule="evenodd" d="M-11.6328 414.322H504.058V772.722H-11.6328V414.322Z" fill="#ffffff"/>
                                    </mask>
                                    <g mask="url(#mask1_406_32353cf0cd013-6017-4f67-a2ec-ea9ad8dc0963)">
                                        <path id="Fill 6" fill-rule="evenodd" clip-rule="evenodd" d="M480.841 730.832C480.841 730.832 461.981 811.639 340.116 748.789C218.25 685.939 231.307 663.493 247.266 650.025C263.225 636.558 321.255 597.651 279.183 605.133C237.111 612.615 231.307 654.515 176.178 630.572C121.049 606.629 -31.2825 465.966 -9.5211 430.052C12.2403 394.138 276.281 419.577 398.146 507.866C520.011 596.154 520.011 691.925 480.841 730.832" fill="#237978"/>
                                    </g>
                                </g>
                                <path id="Fill 9" fill-rule="evenodd" clip-rule="evenodd" d="M757.989 1008.12C757.989 1008.12 775.584 1088.93 889.277 1026.08C1002.97 963.227 990.79 940.781 975.901 927.313C961.012 913.846 906.873 874.939 946.124 882.421C985.376 889.903 990.79 931.803 1042.22 907.86C1093.65 883.917 1235.77 743.254 1215.47 707.34C1195.17 671.426 948.831 696.865 835.138 785.154C721.444 873.442 721.444 969.213 757.989 1008.12" fill="#1BC0D7"/>
                                <path id="Fill 11" fill-rule="evenodd" clip-rule="evenodd" d="M819.885 1100.87C819.885 1100.87 737.251 1153.39 819.05 1211.93C900.85 1270.48 953.434 1499.49 1022.71 1493.46C1091.99 1487.43 1074.46 1235.18 1067.79 1205.04C1061.11 1174.91 1016.87 1209.35 1013.53 1189.55C1010.19 1169.75 1059.44 1172.33 1059.44 1158.55C1059.44 1144.78 1014.37 999.279 819.885 1100.87" fill="#237978"/>
                                <path id="Fill 13" fill-rule="evenodd" clip-rule="evenodd" d="M256.465 1244.03C256.465 1244.03 271.966 1117.72 385.129 1029.78C498.292 941.834 651.759 916.251 681.212 1007.39C710.665 1098.53 526.195 1200.86 493.641 1181.68C461.087 1162.49 409.932 1151.3 420.783 1189.67C431.634 1228.05 358.776 1276.01 256.465 1244.03" fill="#1BC0D7"/>
                                <path id="Fill 15" fill-rule="evenodd" clip-rule="evenodd" d="M540.143 879.476C540.143 879.476 248.711 1008.99 124.697 1002.59C0.683307 996.199 157.251 869.882 310.717 829.909C464.185 789.935 540.143 821.914 540.143 879.476" fill="#1BC0D7"/>
                                <path id="Fill 17" fill-rule="evenodd" clip-rule="evenodd" d="M619.512 1513.04C619.093 1508.85 609.537 1408.88 634.137 1257.45C648.562 1168.66 671.841 1080.67 703.325 995.943C742.68 890.036 795.04 788.944 858.95 695.473C922.653 602.307 986.221 521.797 1047.89 456.18C1097.42 403.476 1145.89 360.16 1191.96 327.436C1271.72 270.774 1317.2 265.198 1319.09 264.988L1321.57 288.851C1321.22 288.896 1278.26 294.698 1202.49 349.102C1157.89 381.13 1110.86 423.455 1062.7 474.904C1002.47 539.251 940.317 618.116 877.965 709.305C815.165 801.153 763.717 900.481 725.052 1004.53C694.122 1087.77 671.254 1174.2 657.085 1261.41C633.001 1409.67 642.558 1509.58 642.657 1510.57L619.512 1513.04Z" fill="#0A4343"/>
                                <path id="Fill 19" fill-rule="evenodd" clip-rule="evenodd" d="M838.212 1664.65L815.088 1661.98C815.169 1661.24 822.955 1585.37 804.833 1460.43C794.19 1387.06 776.829 1311.36 753.228 1235.44C723.725 1140.54 684.334 1045.02 636.146 951.526C588.533 859.151 527.723 775.805 455.404 703.804C397.027 645.683 331.043 594.759 259.288 552.447C137.867 480.848 37.2813 456.36 26.3008 455.14C26.6178 455.175 26.8612 455.172 27.0289 455.172V431.172C32.554 431.172 62.2915 438.197 101.879 452.194C139.821 465.61 199.145 489.817 266.292 528.948C340.488 572.187 408.743 624.405 469.16 684.152C544.305 758.461 607.399 844.629 656.69 940.26C705.653 1035.25 745.665 1132.35 775.617 1228.86C799.6 1306.14 817.226 1383.23 828.004 1457.98C846.418 1585.7 838.555 1661.49 838.212 1664.65" fill="#0A4343"/>
                                <path id="Fill 21" fill-rule="evenodd" clip-rule="evenodd" d="M830.314 1609.64C829.947 1606.17 792.844 1258.62 733.603 885.222C698.835 666.082 663.364 481.083 628.175 335.364C584.484 154.435 541.397 34.5966 500.113 -20.8194L518.563 -35.4424C561.811 22.6106 606.291 145.431 650.764 329.605C686.108 475.972 721.71 661.637 756.581 881.442C815.916 1255.45 853.076 1603.55 853.443 1607.03L830.314 1609.64Z" fill="#0A4343"/>
                                <path id="Fill 23" fill-rule="evenodd" clip-rule="evenodd" d="M754.51 1632.18L731.249 1631.62C733.546 1529.7 704.305 1359.67 654.935 1187.9C632.04 1108.24 607.18 1036.7 583.043 981.025C549.748 904.223 528.117 881.478 518.187 874.757C502.046 863.831 474.499 860.783 436.309 865.696C404.23 869.822 365.176 879.587 320.231 894.718C243.108 920.682 174.831 953.794 174.15 954.125L164.215 932.423C164.907 932.086 234.323 898.412 312.802 871.973C359.197 856.343 399.747 846.223 433.328 841.893C477.821 836.158 509.756 840.343 530.953 854.691C552.375 869.192 577.048 908.401 604.285 971.228C628.833 1027.85 654.062 1100.42 677.245 1181.08C727.254 1355.08 756.861 1527.93 754.51 1632.18" fill="#0A4343"/>
                                <path id="Fill 25" fill-rule="evenodd" clip-rule="evenodd" d="M311.498 1216.65L295.941 1198.8C296.638 1198.16 366.615 1133.47 446.605 1077.05C493.937 1043.67 535.59 1019.58 570.406 1005.46C616.633 986.713 652.042 985.321 675.65 1001.32L662.872 1021.38C631.265 999.957 559.125 1026.76 459.739 1096.86C381.008 1152.39 312.184 1216.01 311.498 1216.65" fill="#0A4343"/>
                                <path id="Fill 27" fill-rule="evenodd" clip-rule="evenodd" d="M703.745 1524.55H680.477C680.477 1509.5 697.724 1422.44 722.301 1337.96C746.136 1256.03 784.83 1147.99 833.814 1098.55C852.998 1079.19 872.872 1069.6 892.902 1070.05C947.42 1071.27 987.672 1132.05 1012.54 1250.68C1030.32 1335.5 1033.61 1418.48 1033.74 1421.97L1010.49 1422.9C1010.46 1422.06 1007.13 1338.28 989.744 1255.49C979.672 1207.53 966.962 1169.4 951.968 1142.16C934.667 1110.73 914.625 1094.54 892.397 1094.04C878.871 1093.75 864.647 1101.02 850.115 1115.68C764.124 1202.42 703.757 1503.3 703.745 1524.55" fill="#0A4343"/>
                                <mask id="mask2_406_32353cf0cd013-6017-4f67-a2ec-ea9ad8dc0963" style="mask-type:luminance" maskUnits="userSpaceOnUse" x="-12" y="-52" width="1359" height="2399" fill="#ffffff">
                                    <path id="Clip 30" fill-rule="evenodd" clip-rule="evenodd" d="M-11.6328 2346.63H1346.27V-51.9951H-11.6328V2346.63Z" fill="#ffffff"/>
                                </mask>
                                <g mask="url(#mask2_406_32353cf0cd013-6017-4f67-a2ec-ea9ad8dc0963)">
                                    <path id="Fill 29" fill-rule="evenodd" clip-rule="evenodd" d="M304.113 2346.63H1182.48V1505.63H304.113V2346.63Z" fill="#EC7070"/>
                                </g>
                            </g>
                        </g>
                    </g>
                    <g id="Tall Vase Plant" transform="translate(1152 1081) scale(1 1)">
                        <g id="Tall Vase Plant/Plant 3">
                            <g id="Tall Vase Plant 1">
                                <path id="Fill 39" fill-rule="evenodd" clip-rule="evenodd" d="M647.163 1607.39C647.108 1606.33 641.372 1500.06 618.321 1364.73C604.791 1285.29 588.032 1211.54 568.508 1145.51C544.139 1063.09 515.377 992.575 483.023 935.924L489.706 931.864C522.377 989.07 551.392 1060.18 575.943 1143.23C595.56 1209.58 612.393 1283.67 625.977 1363.45C649.099 1499.23 654.853 1605.9 654.909 1606.96L647.163 1607.39Z" fill="#0A4343"/>
                                <path id="Fill 40" fill-rule="evenodd" clip-rule="evenodd" d="M564.194 881.81C563.048 930.949 523.499 969.826 475.858 968.643C428.217 967.461 390.527 926.667 391.674 877.528C392.82 828.389 432.37 789.512 480.01 790.695C527.65 791.877 565.34 832.671 564.194 881.81" fill="#F9C818"/>
                                <path id="Fill 41" fill-rule="evenodd" clip-rule="evenodd" d="M582.13 990.395C582.13 990.395 440.151 701.183 575.572 473.568C710.995 245.953 821.261 423.705 798.779 600.277C776.297 776.848 698.023 903.719 582.13 990.395" fill="#237978"/>
                                <path id="Fill 42" fill-rule="evenodd" clip-rule="evenodd" d="M540.962 1044.67L535.793 1038.7C567.992 1009.01 596.321 963.44 619.991 903.26C639.282 854.212 655.578 795.272 668.427 728.076C688.689 622.112 694.906 523.698 696.639 486.304C696.706 484.829 696.751 483.88 696.777 483.491L704.515 484.039C704.491 484.405 704.45 485.298 704.386 486.686C702.645 524.256 696.398 623.139 676.037 729.624C663.092 797.318 646.654 856.749 627.178 906.267C603.059 967.589 574.051 1014.15 540.962 1044.67" fill="#0A4343"/>
                                <path id="Fill 43" fill-rule="evenodd" clip-rule="evenodd" d="M772.497 1146.97C772.497 1146.97 622.578 1379.32 568.362 1669.16C514.147 1959.01 587.862 2086.97 587.862 2086.97L648.814 2056.06C648.814 2056.06 612.552 1882.2 648.176 1680.8C683.801 1479.4 826.898 1186.05 826.898 1186.05L772.497 1146.97Z" fill="#0A4343"/>
                                <path id="Fill 44" fill-rule="evenodd" clip-rule="evenodd" d="M671.028 819.379C671.028 819.379 617.216 891.997 693.18 973.91C769.143 1055.82 670.191 1171.73 779.181 1221.24C779.181 1221.24 837.26 1252.21 890.309 1176.72C943.359 1101.23 949.677 1090.38 1023.09 1102.52C1096.5 1114.65 1132.82 1034.5 1132.82 1034.5C1132.82 1034.5 1043.37 951.012 882.539 899.507C721.71 848.003 671.028 819.379 671.028 819.379" fill="#FC7750"/>
                                <path id="Fill 45" fill-rule="evenodd" clip-rule="evenodd" d="M671.027 819.379C671.027 819.379 784.947 931.215 938.455 977.02C1091.96 1022.83 1132.82 1034.5 1132.82 1034.5C1132.82 1034.5 1070.05 954.88 944.114 898.065C818.179 841.249 734.026 852.463 671.027 819.379" fill="#FEA78D"/>
                                <path id="Fill 46" fill-rule="evenodd" clip-rule="evenodd" d="M512.113 1333.2C512.113 1333.2 557.999 1493.04 666.077 1629.63C774.155 1766.22 859.249 1780.34 859.249 1780.34L868.843 1739.68C868.843 1739.68 777.685 1690.28 701.802 1596.34C625.919 1502.4 550.308 1322.44 550.308 1322.44L512.113 1333.2Z" fill="#0A4343"/>
                                <path id="Fill 47" fill-rule="evenodd" clip-rule="evenodd" d="M319.902 1256.79C319.902 1256.79 331.581 1310.03 397.069 1305.47C462.555 1300.9 476.195 1392.06 539.923 1359.47C539.923 1359.47 575.919 1343.86 562.672 1289.88C549.424 1235.89 547.023 1228.76 580.518 1198.69C614.013 1168.62 592.289 1120.76 592.289 1120.76C592.289 1120.76 520.94 1131.1 436.483 1187.44C352.026 1243.78 319.902 1256.79 319.902 1256.79" fill="#EC7070"/>
                                <path id="Fill 48" fill-rule="evenodd" clip-rule="evenodd" d="M319.902 1256.79C319.902 1256.79 413.22 1245.73 492.34 1190.67C571.462 1135.61 592.289 1120.76 592.289 1120.76C592.289 1120.76 532.872 1119.96 459.412 1157.77C385.952 1195.57 358.723 1239.66 319.902 1256.79" fill="#EECCDC"/>
                                <path id="Fill 49" fill-rule="evenodd" clip-rule="evenodd" d="M201.656 2026.7C201.656 2203.43 344.925 2346.7 521.656 2346.7H760.022C936.753 2346.7 1080.02 2203.43 1080.02 2026.7V1505.7H201.656V2026.7Z" fill="#EC7070"/>
                            </g>
                        </g>
                    </g>
                    <path id="Object 1" fill-rule="evenodd" clip-rule="evenodd" d="M7099 3428H6096C6049.61 3428 6012 3390.39 6012 3344V3316C6012 3269.61 6049.61 3232 6096 3232H7099C7145.39 3232 7183 3269.61 7183 3316V3344C7183 3390.39 7145.39 3428 7099 3428" fill="#E93737"/>
                    <g id="Sofa">
                        <path id="Fill 50" fill-rule="evenodd" clip-rule="evenodd" d="M5593.5 2811.92H2220.13C2172.18 2811.92 2133.31 2773.05 2133.31 2725.1V1904.74C2133.31 1856.79 2172.18 1817.92 2220.13 1817.92H5593.5C5641.44 1817.92 5680.31 1856.79 5680.31 1904.74V2725.1C5680.31 2773.05 5641.44 2811.92 5593.5 2811.92" fill="#0A4343"/>
                        <path id="Fill 51" fill-rule="evenodd" clip-rule="evenodd" d="M2349.31 2930.92H5402.31V2605.92H2349.31V2930.92Z" fill="#237978"/>
                        <path id="Fill 52" fill-rule="evenodd" clip-rule="evenodd" d="M2245.84 3172.46L2168.84 3427.46L2229.84 3423.46L2416.12 3171.92L2245.84 3172.46Z" fill="#0A4343"/>
                        <path id="Fill 53" fill-rule="evenodd" clip-rule="evenodd" d="M5562.12 3172.46L5639.12 3427.46L5578.12 3423.46L5391.84 3171.92L5562.12 3172.46Z" fill="#0A4343"/>
                        <path id="Fill 54" fill-rule="evenodd" clip-rule="evenodd" d="M2434.31 2223.92C2434.31 2223.92 2444.31 2212.92 2558.31 2235.92C2672.31 2258.92 2843.15 2200.56 2867.73 2218.24C2892.31 2235.92 2888.31 2575.92 2953.31 2662.92C3018.31 2749.92 2790.31 2622.92 2580.31 2711.92C2370.31 2800.92 2540.31 2450.92 2540.31 2450.92L2434.31 2223.92Z" fill="#1BC0D7"/>
                        <path id="Fill 55" fill-rule="evenodd" clip-rule="evenodd" d="M2312.69 2124.06C2312.69 2124.06 2278.14 2393.61 2487.44 2648.23C2696.74 2902.86 2613.23 2450.58 2491.94 2277.66C2370.66 2104.75 2314.74 2056.25 2312.69 2124.06" fill="#EECCDC"/>
                        <path id="Fill 56" fill-rule="evenodd" clip-rule="evenodd" d="M5447.31 2511.92C5445.29 2506.27 5437.31 2424.92 5442.31 2322.92C5447.31 2220.92 5295.92 2338.44 5086.31 2300.92C4967.96 2279.73 4785.77 2238.71 4818.31 2334.92C4852.3 2435.39 4767.31 2610.92 4827.31 2619.92C4887.31 2628.92 5204.31 2570.92 5343.31 2632.92C5482.31 2694.92 5476.31 2592.92 5447.31 2511.92" fill="#1BC0D7"/>
                        <path id="Fill 57" fill-rule="evenodd" clip-rule="evenodd" d="M1975.88 2434.7L2234.42 3145.23C2241.56 3164.87 2260.2 3177.96 2281.1 3178.02L5526.61 3187.81C5547.96 3187.88 5566.97 3174.34 5573.9 3154.16L5828.67 2411.95C5839.48 2380.47 5816.98 2347.45 5783.73 2345.98L5542.74 2335.35C5523.03 2334.48 5504.66 2345.32 5495.89 2363L5287.01 2784.29C5278.62 2801.22 5261.37 2811.95 5242.47 2811.99L2566.01 2817.85C2546.67 2817.89 2529.05 2806.74 2520.81 2789.23L2332.23 2388.5C2323.78 2370.54 2305.48 2359.31 2285.64 2359.9L2021.22 2367.85C1987.28 2368.87 1964.27 2402.79 1975.88 2434.7" fill="#165C5D"/>
                    </g>
                </g>
                <g id="Pet" transform="translate(5768.21 2258.42) scale(1 1)">
                    <g id="Pet/Cat 2">
                        <g id="Animal">
                            <path id="Fill 1" fill-rule="evenodd" clip-rule="evenodd" d="M980.203 787.82C980.203 787.82 990.464 753.346 1038.07 727.902L1036.02 775.098L980.203 787.82Z" fill="#EECCDC"/>
                            <path id="Fill 3" fill-rule="evenodd" clip-rule="evenodd" d="M1035.92 731.362C1000.5 751.275 987.227 776.143 983.41 785.038L1034.09 773.487L1035.92 731.362ZM977.312 790.531L978.289 787.249C978.718 785.809 989.338 751.682 1037.13 726.137L1040.22 724.484L1037.95 776.708L977.312 790.531Z" fill="#EC7070"/>
                            <path id="Fill 5" fill-rule="evenodd" clip-rule="evenodd" d="M1010.57 785.768C1010.57 785.768 1018.54 749.426 1036.6 730.137L1034.65 781.761L1010.57 785.768Z" fill="#EC7070"/>
                            <path id="Fill 7" fill-rule="evenodd" clip-rule="evenodd" d="M1048.34 801.63C1048.34 801.63 1058.6 767.157 1106.2 741.712L1103.73 802.116L1048.34 801.63Z" fill="#EECCDC"/>
                            <path id="Fill 9" fill-rule="evenodd" clip-rule="evenodd" d="M1051.21 799.655L1101.81 800.099L1104.06 745.167C1067.59 765.676 1054.55 791.545 1051.21 799.655V799.655ZM1105.65 804.133L1045.66 803.606L1046.42 801.059C1046.85 799.619 1057.47 765.492 1105.26 739.948L1108.34 738.299L1105.65 804.133Z" fill="#EC7070"/>
                            <path id="Fill 11" fill-rule="evenodd" clip-rule="evenodd" d="M1078.7 799.578C1078.7 799.578 1086.67 763.236 1104.73 743.947L1102.78 795.571L1078.7 799.578Z" fill="#EC7070"/>
                            <path id="Fill 13" fill-rule="evenodd" clip-rule="evenodd" d="M1159.18 936.877C1151.74 957.454 1135.74 960.313 1135.74 960.313L1026.57 963.171L950.092 872.491L931.562 986.7H416.14L406.397 949.885C406.397 949.885 321.932 710.581 442.129 633.694C562.318 556.816 682.516 612.043 757.229 695.417C821.632 767.297 927.071 802.158 954.947 810.404C967.523 792.196 988.962 775.12 1025.41 772.828C1107.16 767.677 1138.6 829.983 1135.74 877.429C1135.74 877.429 1134.03 886.005 1143.74 893.431C1153.46 900.865 1166.61 916.3 1159.18 936.877" fill="#EECCDC"/>
                            <path id="Fill 15" fill-rule="evenodd" clip-rule="evenodd" d="M877.941 846.452C877.941 846.452 972.927 845.457 1013.21 893.199C1053.49 940.941 1053.31 940.505 1063.11 940.505C1072.92 940.505 1103.65 940.069 1103.65 940.069L1093.63 988.945L903.243 986.606L877.941 846.452Z" fill="#EECCDC"/>
                            <path id="Fill 17" fill-rule="evenodd" clip-rule="evenodd" d="M1198.81 989.609H1173.66C1159.94 989.609 1148.82 978.485 1148.82 964.763C1148.82 951.041 1159.94 939.917 1173.66 939.917H1198.81C1212.53 939.917 1223.66 951.041 1223.66 964.763C1223.66 978.485 1212.53 989.609 1198.81 989.609" fill="#FCEBEC"/>
                            <path id="Fill 19" fill-rule="evenodd" clip-rule="evenodd" d="M1173.66 941.917C1161.07 941.917 1150.82 952.166 1150.82 964.763C1150.82 977.361 1161.07 987.609 1173.66 987.609H1198.81C1211.41 987.609 1221.66 977.361 1221.66 964.763C1221.66 952.166 1211.41 941.917 1198.81 941.917H1173.66ZM1198.81 991.609H1173.66C1158.86 991.609 1146.82 979.566 1146.82 964.763C1146.82 949.96 1158.86 937.917 1173.66 937.917H1198.81C1213.61 937.917 1225.66 949.96 1225.66 964.763C1225.66 979.566 1213.61 991.609 1198.81 991.609V991.609Z" fill="#EC7070"/>
                            <path id="Fill 21" fill-rule="evenodd" clip-rule="evenodd" d="M1188.73 956.289C1188.73 956.289 1196.47 959.706 1197.76 968.592C1199.05 977.477 1198.42 989.563 1198.42 989.563" fill="#FCEBEC"/>
                            <path id="Fill 23" fill-rule="evenodd" clip-rule="evenodd" d="M1200.42 989.666L1196.42 989.459C1196.43 989.34 1197.02 977.462 1195.78 968.879C1194.67 961.249 1188.19 958.239 1187.91 958.115L1189.54 954.459C1189.9 954.617 1198.3 958.437 1199.74 968.304C1201.04 977.281 1200.44 989.165 1200.42 989.666" fill="#EC7070"/>
                            <path id="Fill 25" fill-rule="evenodd" clip-rule="evenodd" d="M882.453 847.374C882.453 847.374 967.943 844.752 1006.75 886.186C1045.57 927.619 1051.86 941.256 1070.22 939.682C1088.57 938.109 1117.94 940.731 1117.94 940.731L1100.11 957.514" fill="#EECCDC"/>
                            <path id="Fill 27" fill-rule="evenodd" clip-rule="evenodd" d="M1101.48 958.97L1098.74 956.057L1113.28 942.369C1104.38 941.717 1084.12 940.497 1070.39 941.674C1055.23 942.969 1047.67 934.493 1027.42 911.84C1021.53 905.255 1014.2 897.061 1005.29 887.552C967.556 847.264 883.36 849.347 882.514 849.372L882.391 845.374C882.61 845.367 904.267 844.764 930.389 849.271C954.617 853.45 987.786 863.01 1008.21 884.818C1017.15 894.36 1024.5 902.574 1030.4 909.173C1050.22 931.345 1056.91 938.816 1070.04 937.689C1088.36 936.118 1116.91 938.631 1118.12 938.738L1122.56 939.135L1101.48 958.97Z" fill="#EC7070"/>
                            <path id="Fill 29" fill-rule="evenodd" clip-rule="evenodd" d="M1008.58 908.462L1008.51 904.462L1070.62 903.398L1014.61 869.508L1016.68 866.085L1084.56 907.16L1008.58 908.462Z" fill="#EC7070"/>
                            <path id="Fill 31" fill-rule="evenodd" clip-rule="evenodd" d="M1026.21 936.955C1026.39 936.796 1026.72 936.32 1026.72 935.659H1022.72C1022.72 934.079 1022.72 933.751 1050.18 918.283C1063.25 910.917 1076.49 903.601 1076.62 903.528L1078.56 907.03C1059.44 917.586 1028.33 935.044 1026.21 936.955" fill="#EC7070"/>
                            <path id="Fill 33" fill-rule="evenodd" clip-rule="evenodd" d="M1152.93 949.191C1138.54 969.878 1105.33 942.772 1105.33 942.772C1105.33 942.772 1100.33 937.52 1105.06 924.115C1109.79 910.71 1126.35 908.875 1126.35 908.875L1157.36 909.399L1148.7 914.955L1159.05 916.088C1159.05 916.088 1167.33 928.496 1152.93 949.191" fill="#EC7070"/>
                            <path id="Fill 35" fill-rule="evenodd" clip-rule="evenodd" d="M1123.28 988.945H1093.64C1079.91 988.945 1068.79 977.821 1068.79 964.099C1068.79 950.377 1079.91 939.253 1093.64 939.253H1123.28C1137 939.253 1148.12 950.377 1148.12 964.099C1148.12 977.821 1137 988.945 1123.28 988.945" fill="#FCEBEC"/>
                            <path id="Fill 37" fill-rule="evenodd" clip-rule="evenodd" d="M1093.64 941.253C1081.04 941.253 1070.79 951.502 1070.79 964.099C1070.79 976.697 1081.04 986.945 1093.64 986.945H1123.28C1135.87 986.945 1146.12 976.697 1146.12 964.099C1146.12 951.502 1135.87 941.253 1123.28 941.253H1093.64ZM1123.28 990.945H1093.64C1078.83 990.945 1066.79 978.902 1066.79 964.099C1066.79 949.296 1078.83 937.253 1093.64 937.253H1123.28C1138.08 937.253 1150.12 949.296 1150.12 964.099C1150.12 978.902 1138.08 990.945 1123.28 990.945V990.945Z" fill="#EC7070"/>
                            <path id="Fill 39" fill-rule="evenodd" clip-rule="evenodd" d="M1111.1 955.626C1111.1 955.626 1119.3 959.043 1120.67 967.929C1122.03 976.814 1121.37 988.9 1121.37 988.9" fill="#FCEBEC"/>
                            <path id="Fill 41" fill-rule="evenodd" clip-rule="evenodd" d="M1123.37 989.009L1119.37 988.79C1119.38 988.671 1120.01 976.804 1118.69 968.233C1117.52 960.612 1110.61 957.594 1110.32 957.469L1111.87 953.78C1112.24 953.937 1121.12 957.743 1122.64 967.624C1124.03 976.613 1123.39 988.507 1123.37 989.009" fill="#EC7070"/>
                            <path id="Fill 43" fill-rule="evenodd" clip-rule="evenodd" d="M1136.27 908.758C1136.27 908.758 1134.57 928.582 1160.56 932.471C1160.56 932.471 1163.12 926.401 1160.46 917.39C1157.8 908.379 1157.05 908.948 1157.05 908.948L1136.27 908.758Z" fill="black"/>
                            <path id="Fill 45" fill-rule="evenodd" clip-rule="evenodd" d="M816.703 940.535C816.255 940.528 771.664 939.819 750.191 938.434C737.985 937.646 718.448 903.905 687.722 848.428C667.162 811.306 645.901 772.92 628.551 752.472C590.391 707.498 491.78 698.724 490.789 698.641L491.123 694.655C491.375 694.676 516.633 696.857 546.344 704.676C573.89 711.925 611.041 725.652 631.601 749.884C649.208 770.635 670.566 809.197 691.221 846.49C714.978 889.384 739.544 933.739 750.449 934.442C771.824 935.821 816.318 936.528 816.765 936.535L816.703 940.535Z" fill="#EC7070"/>
                            <path id="Fill 47" fill-rule="evenodd" clip-rule="evenodd" d="M734.588 930.5C722.696 942.594 704.15 952.168 682.939 959.72L655.113 893.938C670.709 889.524 679.961 886.293 679.961 886.293C680.46 866.41 702.103 857.216 702.103 857.216C727.923 842.221 782.888 881.362 734.588 930.5" fill="#FCEBEC"/>
                            <path id="Fill 49" fill-rule="evenodd" clip-rule="evenodd" d="M657.834 895.243L684.041 957.198C706.257 949.108 722.776 939.659 733.16 929.099H733.159C761.638 900.127 750.635 878.864 744.583 871.067C734.081 857.538 715.087 851.988 703.105 858.947L702.883 859.058C702.68 859.145 682.418 868.012 681.958 886.344L681.924 887.726L680.618 888.182C680.529 888.213 672.008 891.178 657.834 895.243V895.243ZM681.83 962.238L652.387 892.632L654.566 892.015C666.658 888.592 674.993 885.859 678.029 884.838C678.635 876.667 682.718 869.072 689.9 862.793C695.164 858.193 700.33 855.812 701.198 855.429C714.825 847.607 736.108 853.626 747.742 868.614C761.689 886.582 757.305 910.241 736.013 931.903H736.012C724.926 943.178 707.295 953.171 683.607 961.605L681.83 962.238Z" fill="#EC7070"/>
                            <path id="Fill 51" fill-rule="evenodd" clip-rule="evenodd" d="M682.937 959.721C617.975 982.869 528.046 987.132 528.046 987.132L350.652 986.303C350.652 986.303 334 981.304 334 957.15C334 933.004 358.982 927.168 358.982 927.168C358.982 927.168 435.819 922.297 519.615 917.671C574.275 914.651 625.857 902.219 655.112 893.939L682.937 959.721Z" fill="#EECCDC"/>
                            <path id="Fill 53" fill-rule="evenodd" clip-rule="evenodd" d="M350.983 984.304L528.003 985.131C530.555 985.004 617.113 980.492 680.266 958.541L653.957 896.342C626.727 903.967 574.588 916.637 519.725 919.668C438.828 924.133 363.471 928.888 359.286 929.153C357.099 929.706 336 935.61 336 957.15C336 978.092 348.93 983.568 350.983 984.304V984.304ZM528.089 989.132L350.354 988.301L350.077 988.218C349.886 988.161 345.367 986.767 340.894 982.18C336.837 978.02 332 970.3 332 957.15C332 931.711 358.261 925.283 358.527 925.221L358.855 925.172C359.624 925.123 436.659 920.247 519.504 915.674C575.146 912.6 628.008 899.531 654.567 892.014L656.266 891.533L685.605 960.893L683.608 961.605C619.113 984.587 529.044 989.086 528.141 989.129L528.089 989.132Z" fill="#EC7070"/>
                            <path id="Fill 55" fill-rule="evenodd" clip-rule="evenodd" d="M824.495 984.39H794.853C781.132 984.39 770.008 973.266 770.008 959.544C770.008 945.822 781.132 934.698 794.853 934.698H824.495C838.217 934.698 849.341 945.822 849.341 959.544C849.341 973.266 838.217 984.39 824.495 984.39" fill="#FCEBEC"/>
                            <path id="Fill 57" fill-rule="evenodd" clip-rule="evenodd" d="M794.854 936.697C782.257 936.697 772.008 946.946 772.008 959.543C772.008 972.141 782.257 982.389 794.854 982.389H824.496C837.092 982.389 847.341 972.141 847.341 959.543C847.341 946.946 837.092 936.697 824.496 936.697H794.854ZM824.496 986.389H794.854C780.051 986.389 768.008 974.346 768.008 959.543C768.008 944.74 780.051 932.697 794.854 932.697H824.496C839.298 932.697 851.341 944.74 851.341 959.543C851.341 974.346 839.298 986.389 824.496 986.389V986.389Z" fill="#EC7070"/>
                            <path id="Fill 59" fill-rule="evenodd" clip-rule="evenodd" d="M812.312 951.07C812.312 951.07 820.515 954.487 821.882 963.373C823.249 972.258 822.585 984.344 822.585 984.344" fill="#FCEBEC"/>
                            <path id="Fill 61" fill-rule="evenodd" clip-rule="evenodd" d="M824.586 984.453L820.592 984.234C820.599 984.116 821.226 972.248 819.908 963.677C818.735 956.056 811.833 953.038 811.539 952.913L813.085 949.224C813.462 949.381 822.341 953.187 823.861 963.069C825.243 972.057 824.613 983.951 824.586 984.453" fill="#EC7070"/>
                        </g>
                    </g>
                </g>
                <g id="Master/Character/Sitting On Floor" transform="translate(3128 85) scale(1 1)">
                    <g id="Master/Character/Sitting On Floor">
                        <g id="Upper Body" transform="translate(911 1329) scale(1 1)">
                            <g id="Upper Body/With Laptop">
                                <path id="Neck" fill-rule="evenodd" clip-rule="evenodd" d="M724.954 220C724.954 220 721.263 301.153 673.924 329.8C630.973 355.791 721.969 506.61 819.858 497.614C873.442 492.688 886 346.158 886 346.158C886 346.158 842.734 337.797 858.716 271.819L724.954 220Z" fill="#f6cbc3"/>
                                <path id="Head" fill-rule="evenodd" clip-rule="evenodd" d="M803.337 302.516C739.877 294.841 694.078 253.116 687.665 183.898C669.216 186.835 664.865 138.765 670.003 123.323C675.146 107.859 691.933 116.901 691.933 116.901C691.933 116.901 693.327 113.235 694.303 109.226C722.025 -4.48555 799.67 0.0243587 799.67 0.0243587C942.344 7.45716 908.914 153.12 900.763 191.763C892.611 230.41 864.684 309.927 803.337 302.516Z" fill="#f6cbc3"/>
                                <g id="Group 25">
                                    <g id="Group 19">
                                        <path id="Path" fill-rule="evenodd" clip-rule="evenodd" d="M355.167 622.26C355.167 622.26 272.104 769.102 318.966 841.798C365.828 914.494 432.305 818.432 459.628 711.139C486.95 603.847 543.449 539.781 543.449 539.781L355.167 622.26Z" fill="#f6cbc3"/>
                                        <path id="Fill 4" fill-rule="evenodd" clip-rule="evenodd" d="M546.853 361.719C629.753 336.083 655.299 334.639 655.299 334.639L742.806 353.497C742.806 353.497 790.767 416.531 794.877 472.713C794.877 472.713 796.247 398.717 827.765 348.016C827.765 348.016 966.477 346.741 1018.77 401.343C1101.37 487.586 1099.81 638.913 1099.81 638.913L963.52 652.929L1018.77 576C1018.77 576 1022.26 889.417 1014.04 970.265C909.998 1085.03 535.998 996.203 535.998 996.203C535.998 996.203 544.113 736.864 545.483 665.926C546.853 594.987 520.618 604.569 484.451 692.503C454.884 764.394 360.883 615.342 360.883 615.342C360.883 615.342 418.579 401.385 546.853 361.719Z" fill="#1BC0D7"/>
                                        <path id="Fill 6" fill-rule="evenodd" clip-rule="evenodd" d="M970.042 752.324C970.042 752.324 1037.34 728.192 1105.77 742.442C1105.77 742.442 1104.88 720.104 1105.59 690.608C1106.16 666.383 1119.43 628.891 1071.56 632.929C1015.84 637.628 991.959 638.12 967.734 649.079C967.734 649.079 961.967 729.253 970.042 752.324" fill="#FCEBEC"/>
                                        <path id="Fill 10" fill-rule="evenodd" clip-rule="evenodd" d="M329.938 662.404L359.283 570.059C359.283 570.059 467.903 547.37 510.938 641.254L478.683 724.849C478.683 724.849 418.369 635.909 329.938 662.404" fill="#237978"/>
                                        <g id="Group 14">
                                            <mask id="mask0_406_32652b925195f-0bb5-4973-8b20-43c3bd039d74" style="mask-type:luminance" maskUnits="userSpaceOnUse" x="604" y="321" width="142" height="92" fill="#ffffff">
                                                <path id="Clip 13" fill-rule="evenodd" clip-rule="evenodd" d="M604.551 321H745.312V412.701H604.551V321Z" fill="#ffffff"/>
                                            </mask>
                                            <g mask="url(#mask0_406_32652b925195f-0bb5-4973-8b20-43c3bd039d74)">
                                                <path id="Fill 12" fill-rule="evenodd" clip-rule="evenodd" d="M656.699 321.099C656.699 321.099 601.292 339.853 604.702 344.967C608.111 350.081 706.477 415.503 713.851 412.607C721.225 409.71 748.878 357.302 744.928 352.035C740.977 346.768 661.435 319.133 656.699 321.099" fill="#237978"/>
                                            </g>
                                        </g>
                                        <path id="Fill 15" fill-rule="evenodd" clip-rule="evenodd" d="M916.609 343.895C916.609 343.895 964.299 377.765 959.565 381.685C954.831 385.605 841.824 420.035 835.591 415.143C829.36 410.251 817.917 352.111 823.212 348.2C828.509 344.289 912.636 340.652 916.609 343.895" fill="#237978"/>
                                        <path id="Fill 8" fill-rule="evenodd" clip-rule="evenodd" d="M395.846 718.513C423.148 758.491 406.954 759.221 418.844 781.21C430.733 803.199 441.92 849.091 455.568 847.941C469.216 846.791 469.931 839.206 464.614 825.02C459.299 810.834 443.721 765.412 449.558 763.253C455.396 761.095 474.247 850.882 495.875 849.438C517.503 847.993 499.354 801.975 489.57 781.388C479.786 760.802 476.461 745.55 482.643 746.876C488.824 748.204 512.649 848.691 530.244 845.667C547.84 842.645 538.897 807.343 529.146 786.496C519.396 765.649 504.843 732.801 504.843 732.801C504.843 732.801 529.559 764.843 540.77 803.085C551.981 841.327 558.876 843.276 565.176 839.589C571.475 835.902 563.123 790.875 563.123 790.875C563.123 790.875 584.217 756.359 557.683 725.599C531.149 694.84 516.318 662.421 479.74 645.023C443.164 627.624 420.439 642.107 420.439 642.107C420.439 642.107 368.544 678.535 395.846 718.513Z" fill="#f6cbc3"/>
                                        <path id="Fill 17" fill-rule="evenodd" clip-rule="evenodd" d="M928.985 530.492H838.163C834.466 530.492 831.469 527.496 831.469 523.8V515.931C831.469 512.236 834.466 509.239 838.163 509.239H928.985C932.681 509.239 935.677 512.236 935.677 515.931V523.8C935.677 527.496 932.681 530.492 928.985 530.492" fill="#237978"/>
                                    </g>
                                    <g id="Group 24">
                                        <path id="Fill 20" fill-rule="evenodd" clip-rule="evenodd" d="M848.288 867.428L665.573 816.781C665.573 816.781 654.214 804.79 687.66 801.635C721.105 798.48 1070.56 789.143 1070.56 789.143L848.288 867.428Z" fill="#204EB2"/>
                                        <path id="Fill 22" fill-rule="evenodd" clip-rule="evenodd" d="M1366.31 866.879H853.827C844.334 866.879 836.637 859.184 836.637 849.69L883.161 512.203C883.161 502.71 890.856 495.014 900.349 495.014H1412.83C1422.33 495.014 1430.02 502.71 1430.02 512.203L1383.5 849.69C1383.5 859.184 1375.81 866.879 1366.31 866.879" fill="#3267C8"/>
                                    </g>
                                    <g id="Group 2">
                                        <path id="Fill 12" fill-rule="evenodd" clip-rule="evenodd" d="M1245.01 866.879C1245.01 866.879 1242.12 872.72 1238.17 878.88C1234.21 885.04 1231.96 881.44 1224.85 894.58C1217.75 907.721 1197.52 933.793 1147.81 915.824C1098.1 897.853 1098.18 886.451 1100.9 871.485C1103.62 856.52 1108.04 853.458 1102.69 828.657C1097.34 803.857 1113.38 773.191 1119.42 771.771L1125.45 770.35C1125.45 770.35 1126.62 745.6 1136.4 744.044C1146.19 742.49 1147.28 749.176 1147.28 749.176C1147.28 749.176 1150.26 743.335 1159.21 744.217C1168.16 745.1 1171.94 761.744 1175.54 781.157C1179.14 800.567 1184.94 851.761 1187.86 854.064C1190.77 856.367 1193.39 854.432 1191.2 842.687C1189.01 830.941 1174.7 785.222 1187.44 781.083C1200.17 776.944 1207.08 789.866 1215.18 816.48C1223.29 843.093 1226.35 847.514 1225.97 854.679L1228.42 866.879L1245.01 866.879Z" fill="#f6cbc3"/>
                                        <path id="Fill 14" fill-rule="evenodd" clip-rule="evenodd" d="M1147.21 748.773C1147.21 748.773 1147.77 747.035 1147.17 758.819C1146.95 763.11 1147.18 768.987 1148.21 777.038C1152.05 807.204 1156.74 854.968 1159.24 869.321C1161.73 883.676 1155.13 873.363 1151.31 839.94C1147.49 806.517 1143.91 766.417 1143.93 764.56C1143.95 761.397 1144.02 751.911 1147.21 748.773" fill="black"/>
                                        <path id="Fill 16" fill-rule="evenodd" clip-rule="evenodd" d="M1126.11 819.767C1127.02 832.868 1129.01 854.575 1129.19 856.877C1129.52 860.985 1130.41 868.941 1130.41 868.941C1130.41 868.941 1127.63 869.744 1124.97 845.373C1124.31 839.327 1122.57 828.278 1122.31 821.003C1122.07 814.31 1120.58 790.35 1122.07 786.614C1123.57 782.88 1125.86 781.594 1125.86 781.594C1125.86 781.594 1125.26 807.427 1126.11 819.767Z" fill="black"/>
                                    </g>
                                </g>
                            </g>
                        </g>
                        <g id="Lower Body/Sitting on Floor" transform="matrix(-1 0 0 1 2330 1832) scale(1 1)">
                            <g id="Lower Body/Sitting on Floor/Legs Crossed 1">
                                <g id="Group 46">
                                    <path id="Fill 1" fill-rule="evenodd" clip-rule="evenodd" d="M652.882 663.558C652.882 663.558 610.128 682.102 604.977 674.89C599.826 667.679 644.125 712.494 644.125 712.494L676.062 694.464L652.882 663.558Z" fill="#f6cbc3"/>
                                    <path id="Stroke 3 (Stroke)" fill-rule="evenodd" clip-rule="evenodd" d="M654.872 663.558L679.787 696.778L645.364 716.211L644.559 715.396L645.625 714.342C644.559 715.396 644.559 715.396 644.559 715.396L644.063 714.895C643.74 714.569 643.267 714.092 642.667 713.486C641.466 712.276 639.757 710.554 637.721 708.51C633.65 704.423 628.277 699.05 623.066 693.903C617.851 688.752 612.81 683.84 609.4 680.67C608.93 680.233 608.496 679.834 608.1 679.475C606.962 679.141 605.941 678.567 605.257 677.609M609.545 676.738C608.72 676.002 608.048 675.431 607.577 675.08C607.383 674.936 607.159 674.779 606.94 674.667C606.847 674.619 606.638 674.517 606.372 674.474C606.158 674.438 605.291 674.366 604.788 675.189C604.587 675.518 604.558 675.838 604.561 676.024C604.563 676.215 604.599 676.37 604.626 676.465C604.679 676.654 604.758 676.813 604.811 676.914C604.926 677.13 605.084 677.368 605.257 677.609M609.545 676.738C609.738 676.774 609.949 676.805 610.179 676.83C611.653 676.993 613.598 676.88 615.909 676.527C620.516 675.822 626.249 674.211 631.892 672.351C637.52 670.497 642.995 668.416 647.067 666.797C649.102 665.987 650.784 665.294 651.957 664.804C652.543 664.559 653.001 664.365 653.313 664.232C653.468 664.166 653.587 664.115 653.667 664.081L653.756 664.042L653.785 664.03C653.785 664.029 653.785 664.029 654.382 665.406L653.785 664.03L654.872 663.558M653.888 667.247C653.662 667.342 653.403 667.451 653.114 667.572C651.928 668.068 650.229 668.768 648.176 669.584C644.071 671.216 638.536 673.321 632.831 675.201C627.141 677.076 621.22 678.749 616.362 679.492C615.165 679.676 614.012 679.806 612.928 679.866C616.265 683.018 620.664 687.314 625.174 691.768C630.393 696.923 635.773 702.303 639.847 706.393C641.884 708.439 643.595 710.162 644.797 711.374C645.228 711.809 645.594 712.178 645.886 712.472L675.337 695.845L653.888 667.247ZM607.462 675.508C607.462 675.509 607.462 675.508 607.462 675.508C607.458 675.5 607.457 675.5 607.462 675.508Z" fill="black"/>
                                    <path id="Fill 5" fill-rule="evenodd" clip-rule="evenodd" d="M310.336 686.223C310.336 686.223 247.493 722.795 297.458 779.972C347.423 837.149 524.105 798.001 524.105 798.001L528.741 775.336C528.741 775.336 351.029 689.314 310.336 686.223" fill="#F0ECEC"/>
                                    <path id="Fill 7" fill-rule="evenodd" clip-rule="evenodd" d="M310.336 686.223C310.336 686.223 285.611 691.373 277.884 719.704C270.158 748.036 287.189 781.029 312.155 792.09C312.155 792.09 280.291 721.375 336.264 692.209L310.336 686.223Z" fill="#E0D3CC"/>
                                    <path id="Fill 9" fill-rule="evenodd" clip-rule="evenodd" d="M330.523 800.127C330.523 800.127 353.089 754.218 363.391 755.248C373.693 756.278 485.214 762.067 496.418 759.945L533.376 774.821L526.841 798.405C526.841 798.405 389.344 830.584 330.523 800.127" fill="#E7DADA"/>
                                    <path id="Fill 11" fill-rule="evenodd" clip-rule="evenodd" d="M360.818 713.524C360.818 713.524 352.576 773.276 364.423 773.276C376.271 773.276 379.362 706.312 381.422 729.492C383.483 752.671 385.028 782.033 392.755 773.276C400.481 764.519 384.513 699.616 391.209 717.644C397.905 735.673 402.026 769.67 412.844 769.155C423.661 768.64 408.723 734.128 414.389 733.097C420.055 732.067 431.387 777.912 441.174 772.246C450.962 766.58 432.933 728.977 443.235 742.884C453.537 756.793 456.628 773.276 465.9 771.215C475.172 769.155 464.869 751.127 459.203 742.37C453.537 733.613 366.484 700.13 363.908 704.252C361.333 708.373 360.818 713.524 360.818 713.524" fill="#F9F9F9"/>
                                    <g id="Group 15">
                                        <mask id="mask0_406_14281ff98ea2d-5d78-4645-be40-29831c9aafd0" style="mask-type:luminance" maskUnits="userSpaceOnUse" x="69" y="358" width="1142" height="423" fill="#ffffff">
                                            <path id="Clip 14" fill-rule="evenodd" clip-rule="evenodd" d="M69 358H1210.52V780.57H69V358Z" fill="#ffffff"/>
                                        </mask>
                                        <g mask="url(#mask0_406_14281ff98ea2d-5d78-4645-be40-29831c9aafd0)">
                                            <path id="Fill 13" fill-rule="evenodd" clip-rule="evenodd" d="M493.714 772.246C493.714 772.246 285.611 711.978 188.771 635.227C91.9312 558.476 35.7842 483.786 90.3852 399.824C144.986 315.861 273.248 379.734 335.061 407.035C396.874 434.336 599.57 472.945 696.28 472.7C792.991 472.454 922.798 465.242 990.277 445.153C1057.76 425.064 1165.41 394.673 1198.38 476.575C1231.35 558.476 1192.71 638.834 1136.05 666.134C1079.39 693.434 904.769 752.157 815.141 746.491L725.512 740.824C725.512 740.824 686.879 698.071 697.181 635.743L643.095 674.891C643.095 674.891 612.189 674.376 600.856 670.255C589.524 666.134 526.681 817.06 493.714 772.246" fill="#56ACF6"/>
                                        </g>
                                    </g>
                                    <path id="Fill 16" fill-rule="evenodd" clip-rule="evenodd" d="M548.83 779.458C548.83 779.458 639.489 812.939 661.123 826.848C682.758 840.756 727.572 852.603 749.207 837.665C770.841 822.727 757.964 748.552 757.964 748.552C757.964 748.552 685.333 732.067 677.092 720.735C668.85 709.403 602.916 671.801 602.916 671.801L548.83 779.458Z" fill="#f6cbc3"/>
                                    <path id="Fill 18" fill-rule="evenodd" clip-rule="evenodd" d="M750.197 754.42C750.197 754.42 754.874 742.37 769.297 744.945C783.72 747.522 918.163 732.583 956.796 721.766C995.428 710.948 1077.33 787.699 1041.79 841.785C1006.25 895.872 957.826 870.116 914.042 866.511C870.258 862.905 785.265 875.268 766.206 869.086C747.147 862.905 728.088 851.572 727.573 838.18C727.058 824.787 750.197 754.42 750.197 754.42" fill="#F0ECEC"/>
                                    <path id="Fill 20" fill-rule="evenodd" clip-rule="evenodd" d="M946.766 728.819C946.766 728.819 1003.67 756.793 1013.97 795.425C1024.27 834.058 1019.49 864.984 1019.49 864.984C1019.49 864.984 1073.49 839.54 1042.7 779.107C1011.91 718.674 963.523 713.708 946.766 722.63C930.009 731.552 946.766 728.819 946.766 728.819" fill="#E0D3CC"/>
                                    <path id="Fill 22" fill-rule="evenodd" clip-rule="evenodd" d="M940.464 727.512C940.464 727.512 917.131 764.519 914.041 791.304C914.041 791.304 916.101 796.455 890.346 795.941C864.59 795.425 744.517 769.076 744.517 769.076C744.517 769.076 718.688 830.95 728.024 846.927C737.359 862.905 914.041 832.513 914.041 832.513C914.041 832.513 921.252 828.392 925.888 831.998C930.524 835.604 954.46 868.63 987.306 875.296C987.306 875.296 936.19 847.966 932.069 811.908C927.948 775.851 940.464 727.512 940.464 727.512" fill="#EEDFD9"/>
                                    <path id="Fill 24" fill-rule="evenodd" clip-rule="evenodd" d="M770.842 765.035C770.842 765.035 772.387 800.061 765.691 819.636C758.994 839.21 753.433 856.283 764.97 854.185C776.508 852.088 788.871 774.306 782.175 767.61C775.478 760.914 771.357 758.853 770.842 765.035" fill="white"/>
                                    <path id="Fill 26" fill-rule="evenodd" clip-rule="evenodd" d="M789.9 769.155C789.9 769.155 791.445 804.182 784.749 823.757C778.052 843.331 772.491 860.403 784.028 858.305C795.566 856.209 807.929 778.427 801.232 771.731C794.536 765.035 790.415 762.974 789.9 769.155" fill="white"/>
                                    <path id="Fill 28" fill-rule="evenodd" clip-rule="evenodd" d="M857.379 770.385C857.379 770.385 858.924 802.423 852.228 820.326C845.531 838.23 839.97 853.846 851.507 851.927C863.045 850.008 875.408 778.865 868.711 772.74C862.015 766.615 857.894 764.731 857.379 770.385" fill="white"/>
                                    <path id="Fill 30" fill-rule="evenodd" clip-rule="evenodd" d="M883.135 774.281C883.135 774.281 884.68 804.185 877.984 820.896C871.287 837.608 865.726 852.183 877.263 850.393C888.801 848.602 901.164 782.197 894.467 776.48C887.771 770.762 883.65 769.004 883.135 774.281" fill="white"/>
                                    <path id="Fill 32" fill-rule="evenodd" clip-rule="evenodd" d="M901.643 772.125C901.643 772.125 907.419 801.506 903.164 818.999C898.909 836.492 895.474 851.71 906.64 848.299C917.806 844.888 920.613 777.399 913.173 772.691C905.732 767.983 901.403 766.827 901.643 772.125" fill="white"/>
                                    <path id="Fill 34" fill-rule="evenodd" clip-rule="evenodd" d="M813.854 771.405C813.854 771.405 811.809 806.407 803.146 825.194C794.482 843.98 787.204 860.394 798.896 859.488C810.587 858.582 830.84 782.472 824.864 775.127C818.887 767.78 814.999 765.309 813.854 771.405" fill="white"/>
                                    <path id="Fill 36" fill-rule="evenodd" clip-rule="evenodd" d="M823.955 770.756C823.955 770.756 830.916 805.119 827.338 825.495C823.759 845.871 820.914 863.601 831.987 859.738C843.059 855.876 843.204 777.118 835.55 771.542C827.895 765.966 823.505 764.569 823.955 770.756" fill="white"/>
                                    <path id="Fill 38" fill-rule="evenodd" clip-rule="evenodd" d="M746.711 766.726C746.711 766.726 779.083 773.791 772.387 812.939C765.69 852.087 725.013 841.055 725.013 841.055C725.013 841.055 715.37 776.66 746.711 766.726" fill="white"/>
                                    <path id="Stroke 40" d="M291.065 424.357L575.396 648.638L636.95 674.564L702.127 633.966L925.942 492.37L928.081 495.75L704.254 637.354L637.307 679.055L573.345 652.114L288.588 427.498L291.065 424.357Z" fill="black"/>
                                    <path id="Fill 42" fill-rule="evenodd" clip-rule="evenodd" d="M709.028 612.563C709.028 612.563 662.669 625.44 649.791 647.59C636.913 669.74 641.034 707.857 679.152 723.826C717.27 739.794 732.723 753.187 722.936 727.947C713.149 702.707 695.12 656.346 709.028 612.563" fill="#AFDEFF"/>
                                    <path id="Fill 44" fill-rule="evenodd" clip-rule="evenodd" d="M574.07 641.923C574.07 641.923 569.434 693.434 541.103 733.612C512.773 773.791 487.532 777.911 496.804 787.698C506.076 797.485 520.499 802.121 529.771 814.485C539.043 826.847 538.528 826.331 560.162 800.576C581.797 774.82 629.187 717.644 630.217 666.649C630.217 666.649 578.191 624.925 574.07 641.923" fill="#AFDEFF"/>
                                </g>
                            </g>
                        </g>
                        <g id="Expression" transform="translate(1633 1412) scale(1 1)">
                            <g id="Expression/Smile">
                                <g id="Group 124">
                                    <path id="Stroke 114" d="M123.94 52.5156L127.749 53.7376L127.377 54.9309C127.077 55.9042 126.744 57.0178 126.384 58.2528C125.356 61.7837 124.327 65.576 123.368 69.4789C122.301 73.8175 121.387 78.0249 120.672 81.9976L120.465 83.1739C118.727 93.2775 118.482 100.993 120.034 105.142L120.126 105.377C129.004 127.34 116.948 138.478 91.6439 130.679L90.873 130.436L92.0921 126.627C114.886 133.921 124.027 125.703 116.417 106.876C114.322 101.694 114.645 92.8992 116.735 81.2889C117.466 77.2272 118.398 72.9393 119.483 68.5239C120.349 65.0027 121.269 61.5727 122.196 58.338L122.543 57.1344C122.752 56.4175 122.952 55.7405 123.143 55.1067L123.631 53.5023L123.94 52.5156Z" fill="black"/>
                                    <path id="Stroke 122" d="M25.1855 205.534L27.1425 202.045L27.8567 202.435L28.5118 202.783C29.5036 203.305 30.6327 203.881 31.8877 204.498L32.4332 204.765C36.6543 206.821 41.3224 208.878 46.301 210.798C57.7489 215.212 69.0606 218.225 79.5848 219.202C84.3541 219.645 88.8741 219.656 93.1069 219.202L93.9496 219.105L94.4385 223.075C89.6635 223.663 84.5751 223.683 79.2149 223.185C68.2771 222.169 56.6257 219.066 44.8619 214.53C39.7712 212.567 35.0001 210.465 30.6815 208.361L29.0484 207.554C28.354 207.206 27.7021 206.873 27.0948 206.556L25.9633 205.958L25.1855 205.534Z" fill="black"/>
                                </g>
                                <g id="Group 16">
                                    <path id="Fill 3" fill-rule="evenodd" clip-rule="evenodd" d="M98.0372 161.995C79.1662 161.995 64.9382 153.351 64.2702 152.938C62.8612 152.068 62.4252 150.219 63.2962 148.809C64.1652 147.401 66.0142 146.963 67.4242 147.834C67.7062 148.006 84.4192 158.048 104.568 155.603C106.201 155.405 107.707 156.575 107.908 158.22C108.108 159.864 106.936 161.36 105.291 161.559C102.814 161.861 100.388 161.995 98.0372 161.995" fill="black"/>
                                    <path id="Fill 5" fill-rule="evenodd" clip-rule="evenodd" d="M105.825 133.166C101.782 133.166 96.7384 132.375 90.4434 130.361L91.6614 126.551C103.385 130.302 112.045 129.996 116.046 125.687C119.449 122.02 119.428 115.313 115.987 106.801C113.652 101.026 114.229 90.0734 117.702 74.2454C120.243 62.6624 123.477 52.5414 123.51 52.4404L127.318 53.6624C123.811 64.5954 115.606 95.1874 119.695 105.302C124.893 118.16 122.174 124.964 118.977 128.408C116.697 130.866 112.718 133.166 105.825 133.166" fill="black"/>
                                    <g id="Group 9">
                                        <mask id="mask0_406_13922a2851756-14dd-40a1-997e-7dc3add1d5eb" style="mask-type:luminance" maskUnits="userSpaceOnUse" x="27" y="31" width="68" height="20" fill="#ffffff">
                                            <path id="Clip 8" fill-rule="evenodd" clip-rule="evenodd" d="M27.0352 31H94.6405V50.3876H27.0352V31Z" fill="#ffffff"/>
                                        </mask>
                                        <g mask="url(#mask0_406_13922a2851756-14dd-40a1-997e-7dc3add1d5eb)">
                                            <path id="Fill 7" fill-rule="evenodd" clip-rule="evenodd" d="M89.1393 50.3877C88.5383 50.3877 87.9263 50.2877 87.3273 50.0787C81.4913 48.0427 64.6343 42.6307 56.8223 42.0527C49.4663 41.5077 38.2433 45.1417 34.5393 46.5887C31.7103 47.6927 28.5213 46.2977 27.4153 43.4707C26.3083 40.6427 27.7013 37.4547 30.5283 36.3457C31.1643 36.0967 46.2603 30.2397 57.6343 31.0827C68.4893 31.8867 90.0393 39.3747 90.9513 39.6937C93.8193 40.6947 95.3323 43.8307 94.3323 46.6987C93.5403 48.9667 91.4133 50.3877 89.1393 50.3877" fill="black"/>
                                        </g>
                                    </g>
                                    <path id="Fill 10" fill-rule="evenodd" clip-rule="evenodd" d="M181.678 69.1645C180.576 69.1645 179.464 68.8265 178.507 68.1245C175.448 65.8845 166.003 59.8175 159.138 58.6695C151.813 57.4455 134.961 58.8295 129.085 59.4645C126.138 59.7795 123.489 57.6525 123.17 54.7055C122.85 51.7575 124.981 49.1085 127.928 48.7895C128.85 48.6895 150.629 46.3615 160.908 48.0795C171.716 49.8855 184.329 59.0775 184.861 59.4685C187.25 61.2235 187.765 64.5835 186.01 66.9735C184.958 68.4055 183.329 69.1645 181.678 69.1645" fill="black"/>
                                </g>
                                <g id="Group 19">
                                    <path id="Fill 10_2" fill-rule="evenodd" clip-rule="evenodd" d="M75.5217 74.6586C75.5217 77.9056 72.8887 80.5386 69.6417 80.5386C66.3947 80.5386 63.7617 77.9056 63.7617 74.6586C63.7617 71.4106 66.3947 68.7786 69.6417 68.7786C72.8887 68.7786 75.5217 71.4106 75.5217 74.6586" fill="black"/>
                                    <path id="Fill 12" fill-rule="evenodd" clip-rule="evenodd" d="M150.762 81.3383C150.762 84.5863 148.129 87.2183 144.882 87.2183C141.635 87.2183 139.002 84.5863 139.002 81.3383C139.002 78.0913 141.635 75.4583 144.882 75.4583C148.129 75.4583 150.762 78.0913 150.762 81.3383" fill="black"/>
                                </g>
                            </g>
                        </g>
                        <g id="Hairstyle" transform="translate(1142 1085) scale(1 1)">
                            <g id="Hairstyle/Long Hair">
                                <g id="Group 3">
                                    <mask id="mask0_406_140206345bed2-a334-4e47-91c7-2b69ddd79046" style="mask-type:luminance" maskUnits="userSpaceOnUse" x="281" y="219" width="486" height="528" fill="#ffffff">
                                        <path id="Clip 2" fill-rule="evenodd" clip-rule="evenodd" d="M281 219H766.023V746.3H281V219Z" fill="#ffffff"/>
                                    </mask>
                                    <g mask="url(#mask0_406_140206345bed2-a334-4e47-91c7-2b69ddd79046)">
                                        <path id="Fill 1" fill-rule="evenodd" clip-rule="evenodd" d="M610.116 267.999C610.116 267.999 554.199 350.84 503.804 386.047C422.189 443.064 523.511 486.846 494.698 635.715C494.698 635.715 456.28 711.35 494.698 738.962C494.698 738.962 435.871 700.544 398.654 718.553C361.437 736.561 353.033 692.141 321.819 699.344C290.604 706.547 281 684.937 281 684.937C281 684.937 326.621 642.918 326.621 594.895C326.621 546.874 314.615 519.261 343.429 483.244C372.242 447.228 347.03 416.014 390.25 377.596C433.47 339.179 459.882 147.09 621.957 247.937C621.957 247.937 715.589 263.198 698.781 373.648C681.974 484.1 722.803 526.464 718.001 598.497C713.198 670.53 766.023 701.745 766.023 701.745C766.023 701.745 745.613 708.948 725.204 728.157C704.795 747.366 666.377 714.951 655.572 735.36C644.767 755.77 611.152 741.363 611.152 741.363C611.152 741.363 632.762 670.53 625.558 626.11C618.355 581.689 601.537 564.091 611.081 537.715C611.081 537.715 646.144 518.49 663.49 455.729C680.836 392.969 674.317 283.877 610.116 267.999" fill="#711515"/>
                                    </g>
                                </g>
                            </g>
                        </g>
                        <g id="Accessories" transform="translate(1586 1445) scale(234 78)">
                            <g id="Accessories/None" stroke="none" stroke-width="1" fill="none" fill-rule="evenodd" fill-opacity="0"/></g>
                        <g id="Facial Hair" transform="translate(1596 1446) scale(212 211)">
                            <g id="Facial Hair/None" stroke="none" stroke-width="1" fill="none" fill-rule="evenodd" fill-opacity="0"/></g>
                    </g>
                </g>
                <g id="Big Lamp">
                    <mask id="mask0_406_1519065fa0ae3-b2a0-46f5-99ec-782e3c7b7f6f" style="mask-type:luminance" maskUnits="userSpaceOnUse" x="749" y="996" width="809" height="2432" fill="#ffffff">
                        <path id="Clip 2" fill-rule="evenodd" clip-rule="evenodd" d="M749 996H1557.19V3427.88H749V996Z" fill="#ffffff"/>
                    </mask>
                    <g mask="url(#mask0_406_1519065fa0ae3-b2a0-46f5-99ec-782e3c7b7f6f)">
                        <path id="Fill 1" fill-rule="evenodd" clip-rule="evenodd" d="M1172.35 1264.34L1234.02 1203.31L1154.22 1122.65L857.26 1418.7C857.26 1418.7 825.87 1449 814.96 1479.36C804.05 1509.72 804.05 1542.5 804.05 1542.5L803.27 3363.69L1247.15 3363.93C1264.63 3363.93 1278.79 3378.1 1278.79 3395.57V3396.24C1278.79 3413.71 1264.63 3427.88 1247.15 3427.88H780.64C763.17 3427.88 749 3413.71 749 3396.24V3395.57C749 3381.08 759.96 3368.7 773.31 3364.96L773.07 1542.5C773.07 1542.5 773.93 1497.79 788.35 1462.17C800.68 1431.72 825.44 1405.95 837.7 1394.42C837.89 1394.23 838.08 1394.06 838.27 1393.88L1132.43 1100.63L1095.36 1063.17C1089.42 1057.18 1089.47 1047.5 1095.47 1041.57L1137.06 1000.41C1143.06 994.484 1152.73 994.534 1158.67 1000.53L1287.36 1130.58C1291.88 1135.15 1292.93 1141.86 1290.5 1147.42L1358.56 1080.08L1557.19 1280.8L1370.98 1465.07L1172.35 1264.34Z" fill="#0A4343"/>
                    </g>
                </g>
            </g>
        </g>
    </g>
</svg>