<svg xmlns="http://www.w3.org/2000/svg" fill="none" viewBox="0 0 560 560" width="560" height="560"><defs><clipPath id="assetClipPath_-NKJEl5A"><path d="m0 0 h 3000 v 3000 h -3000 v -3000 z" id="path_Gexv5zgY" fill="#ffffff" /></clipPath><clipPath id="clipPath_9U_Ns3af"><path d="m0 0 h 704.302 v 1028.605 h -704.302 v -1028.605 z" id="path_AOJeJ0zM" /></clipPath><clipPath id="clipPath_ZAlzKUWK"><path d="m0 0 h 484.762 v 569.476 h -484.762 v -569.476 z" id="path_hScqwhVQ" /></clipPath><clipPath id="clipPath_jZLOvwEN"><path d="m0 0 h 306.301 v 339.003 h -306.301 v -339.003 z" id="path_0q4lGu1-" /></clipPath><clipPath id="clipPath_P2HgWayZ"><path d="m0 0 h 560.573 v 443.222 h -560.573 v -443.222 z" id="path_SY0z_Mm3" /></clipPath></defs><g transform="" data-asset-index="0"><g clip-path="url(#assetClipPath_-NKJEl5A)" transform="scale(0.18666666666666668 0.18666666666666668)" data-asset-index="0"><defs /><g transform="translate(1006.875 534.375) rotate(0.0 660.9375 964.6875) scale(1.8768582227510358 1.8757200285824005)" id="UmM0nWWV2Ft2NUd1SNIbx"><g clip-path="url(#clipPath_9U_Ns3af)" transform="matrix(1 0 0 1 0 0)" id="Vrgsg5yoAwKtMJiiDU-p_"><path d="M687.047 1028.605H17.255C7.726 1028.605 0 1020.88 0 1011.35V99.687c0-9.529 7.725-17.255 17.255-17.255h669.793c9.529 0 17.255 7.725 17.255 17.255v911.664c-.001 9.529-7.726 17.254-17.256 17.254z" fill="#FF806A" id="wakW-ItkZt_BW_uOumx-" /><path d="M28.459 131.536h647.384v869.709H28.459z" fill="#FFFFFF" id="wWolC_IA4KpoosQP5J-Au" /><path d="M675.843 1002.745H28.459a1.5 1.5 0 0 1-1.5-1.5V131.536a1.5 1.5 0 0 1 1.5-1.5h647.384a1.5 1.5 0 0 1 1.5 1.5v869.709a1.5 1.5 0 0 1-1.5 1.5zm-645.884-3h644.384V133.036H29.959z" fill="#630000" id="zDgqyxWHHEF29YonKXijp" /><path d="M451.711 97.869h-41.842l.001-41.88C409.87 25.067 384.804 0 353.882 0h-1.449c-32.16 0-58.001 25.847-58.001 57.724v40.145H252.59c-42.524 0-76.996 34.472-76.996 76.996h353.112c.001-42.524-34.471-76.996-76.995-76.996zm-99.56-66.026c9.439 0 17.091 7.652 17.091 17.091s-7.652 17.092-17.091 17.092-17.091-7.652-17.091-17.092c0-9.438 7.652-17.091 17.091-17.091z" fill="#FFB298" id="UB2dg3IGvnIrCwd2xp-QW" /></g></g><g transform="translate(1213.125 1072.5) rotate(0.0 454.6875 534.375) scale(1.8759205548289677 1.876725270248439)" id="BPAC1SdGEuAjDK4-AnlWH"><g clip-path="url(#clipPath_ZAlzKUWK)" transform="matrix(1 0 0 1 0 0)" id="KeuA8pg1eggz4q_J2xHs3"><path d="M483.262 21.745H141.155a1.5 1.5 0 1 1 0-3h342.106a1.5 1.5 0 0 1 .001 3zm0 41.385H141.155a1.5 1.5 0 1 1 0-3h342.106a1.5 1.5 0 0 1 .001 3zM80.374 81.874H1.5a1.5 1.5 0 0 1-1.5-1.5V1.5A1.5 1.5 0 0 1 1.5 0h78.874a1.5 1.5 0 0 1 1.5 1.5v78.875a1.5 1.5 0 0 1-1.5 1.499zM3 78.874h75.874V3H3z" fill="#630000" id="GR1rQpFzITcrn_HKgKnyv" /><path d="M43.396 69.022a3.998 3.998 0 0 1-2.69-1.04L9.354 39.491a4 4 0 0 1 5.38-5.921l28.172 25.602L86.019 4.318a4 4 0 1 1 6.289 4.944L46.541 67.494a3.996 3.996 0 0 1-3.145 1.528z" fill="#24968B" id="XmE9oVy57korbzLBNMdW" /><path d="M483.262 162.936H141.155a1.5 1.5 0 1 1 0-3h342.106a1.5 1.5 0 0 1 .001 3zm0 41.386H141.155a1.5 1.5 0 1 1 0-3h342.106a1.5 1.5 0 0 1 .001 3zm0 41.385H141.155a1.5 1.5 0 0 1 0-3h342.106a1.5 1.5 0 0 1 .001 3zm-402.888-1.948H1.5a1.5 1.5 0 0 1-1.5-1.5v-78.875a1.5 1.5 0 0 1 1.5-1.5h78.874a1.5 1.5 0 0 1 1.5 1.5v78.875a1.5 1.5 0 0 1-1.5 1.5zm-77.374-3h75.874v-75.875H3z" fill="#630000" id="Kp3MaG3J_5e1cLxkqC2qM" /><path d="M43.396 230.908a3.998 3.998 0 0 1-2.69-1.04L9.354 201.375a4 4 0 1 1 5.38-5.92l28.172 25.602 43.112-54.854a4 4 0 1 1 6.289 4.944L46.539 229.38a4 4 0 0 1-3.143 1.528z" fill="#24968B" id="akc8Mschv0PFZ4iAqiuA3" /><g fill="#630000" id="WwvW8FRhvD5Jhn1oHDi_"><path d="M483.262 486.705H141.155a1.5 1.5 0 0 1 0-3h342.106a1.5 1.5 0 0 1 .001 3zm0 41.385H141.155a1.5 1.5 0 0 1 0-3h342.106a1.5 1.5 0 0 1 .001 3zm0 41.386H141.155a1.5 1.5 0 0 1 0-3h342.106a1.5 1.5 0 0 1 .001 3zm-402.888-1.948H1.5a1.5 1.5 0 0 1-1.5-1.5v-78.874a1.5 1.5 0 0 1 1.5-1.5h78.874a1.5 1.5 0 0 1 1.5 1.5v78.874a1.5 1.5 0 0 1-1.5 1.5zm-77.374-3h75.874v-75.874H3zm480.262-219.015H141.155a1.5 1.5 0 0 1 0-3h342.106a1.5 1.5 0 0 1 .001 3zm0 41.386H141.155a1.5 1.5 0 0 1 0-3h342.106a1.5 1.5 0 0 1 .001 3zM80.374 405.643H1.5a1.5 1.5 0 0 1-1.5-1.5v-78.874a1.5 1.5 0 0 1 1.5-1.5h78.874a1.5 1.5 0 0 1 1.5 1.5v78.874a1.5 1.5 0 0 1-1.5 1.5zm-77.374-3h75.874v-75.874H3z" fill="#630000" id="mLCwFCSqFSo7lAvm3i07w" /></g><path d="M43.396 392.791a3.998 3.998 0 0 1-2.69-1.04L9.354 363.259a4 4 0 1 1 5.38-5.92l28.172 25.603 43.112-54.854a4 4 0 1 1 6.289 4.943l-45.768 58.232a4 4 0 0 1-3.143 1.528z" fill="#24968B" id="l_2zfP47r83dMIRstq7rW" /></g></g><g transform="translate(2030.625 1822.5) rotate(0.0 289.6875 320.625) scale(1.891521738420704 1.8915761807417635)" id="WnMA3NE4pWXlf6ewkE03V"><g clip-path="url(#clipPath_jZLOvwEN)" transform="matrix(1 0 0 1 0 0)" id="oHjq9dUJgbHPcZRNQpJ-1"><path d="M198.51 35.962h-90.718V14.101C107.792 6.313 114.105 0 121.893 0h62.515c7.788 0 14.101 6.313 14.101 14.101v21.861z" fill="#24968B" id="q3R033piTAsZTW4wg64oo" /><circle cx="153.151" cy="178.842" fill="#24968B" r="153.151" id="qIirbotIdQTs7athPUPOK" /><path d="M262.963 336.754c-7.317 4.225-16.634 2.349-21.747-4.379l-26.398-34.739 38.341-22.136 16.885 40.231c3.27 7.792.236 16.799-7.081 21.023zm-219.625 0c7.317 4.225 16.634 2.349 21.747-4.379l26.398-34.739L53.142 275.5l-16.885 40.231c-3.27 7.792-.236 16.799 7.081 21.023z" fill="#24968B" id="s9bKR87OD_sGg953HmmNO" /><circle cx="153.151" cy="178.842" fill="#FFFFFF" r="132.976" id="G4Lr6PMbgmVrAhgFYZwXE" /><path d="M153.15 313.319c-74.15 0-134.477-60.326-134.477-134.477 0-74.15 60.326-134.476 134.477-134.476s134.477 60.326 134.477 134.476c0 74.151-60.326 134.477-134.477 134.477zm0-265.953c-72.496 0-131.477 58.98-131.477 131.476 0 72.497 58.98 131.477 131.477 131.477s131.477-58.98 131.477-131.477c0-72.496-58.981-131.476-131.477-131.476z" fill="#630000" id="QcNJCDR1x_D_elFyV1R6U" /><path d="M189.88 291.203a1.502 1.502 0 0 1-1.424-1.029l-36.618-110.523-50.357-50.358a1.5 1.5 0 1 1 2.121-2.121l50.609 50.609c.165.165.29.367.363.589l36.729 110.861a1.5 1.5 0 0 1-1.423 1.972z" fill="#630000" id="xMow1mQ32M78HzzDFfuRq" /><circle cx="153.151" cy="178.842" fill="#24968B" r="8.309" id="iSTuGigvbGyVosng51SE" /><g fill="#630000" id="ZqnRW-UOYs1Bf8iRWJCUP"><path d="M153.15 74.141a1.5 1.5 0 0 1-1.5-1.5V53.929a1.5 1.5 0 1 1 3 0v18.712a1.5 1.5 0 0 1-1.5 1.5zm0 231.114a1.5 1.5 0 0 1-1.5-1.5v-18.712a1.5 1.5 0 1 1 3 0v18.712a1.5 1.5 0 0 1-1.5 1.5zm124.913-124.913h-18.712a1.5 1.5 0 1 1 0-3h18.712a1.5 1.5 0 1 1 0 3zm-231.114 0H28.237a1.5 1.5 0 1 1 0-3h18.712a1.5 1.5 0 1 1 0 3zm41.129 138.68c-.214 0-.431-.046-.637-.143a154.618 154.618 0 0 1-40.991-28.09 1.5 1.5 0 1 1 2.07-2.171 151.649 151.649 0 0 0 40.196 27.546 1.5 1.5 0 0 1-.638 2.858zM98.817 37.11a1.5 1.5 0 0 1-.532-2.903c17.51-6.646 35.969-10.015 54.865-10.015 2.646 0 5.324.068 7.957.201.827.042 1.464.747 1.422 1.574s-.729 1.478-1.574 1.422a154.733 154.733 0 0 0-7.805-.197c-18.531 0-36.632 3.304-53.801 9.82a1.502 1.502 0 0 1-.532.098zm105.061-1.317c-.165 0-.332-.027-.497-.085a150.888 150.888 0 0 0-22.743-6.032 1.5 1.5 0 0 1 .541-2.952 153.915 153.915 0 0 1 23.196 6.152 1.5 1.5 0 0 1-.497 2.917zm17.622 281.64a1.5 1.5 0 0 1-.671-2.842c15.497-7.742 29.472-18.015 41.536-30.534a1.5 1.5 0 1 1 2.16 2.082c-12.302 12.766-26.553 23.241-42.356 31.136a1.496 1.496 0 0 1-.669.158z" fill="#630000" id="zhJG6aQ3yMBVOqPVvvkyc" /></g></g></g><g transform="translate(303.75 1631.25) rotate(0.0 525.9375 416.25) scale(1.8764282261186322 1.8782912400557734)" id="t3voUzdf0WPyLwIM2Jcw"><g clip-path="url(#clipPath_P2HgWayZ)" transform="matrix(1 0 0 1 0 0)" id="KuVIEaTiYd2Y3eBNybKF"><path d="M0 441.722h457.486l50.793-401.028H50.793z" fill="#1E9086" id="JhDdSCOrqQEPObZaWYxYA" /><path d="M197.794 45.373a1.502 1.502 0 0 1-1.462-1.167 59.109 59.109 0 0 1-.992-5.617c-1.194-9.395-.096-18.532 3.096-25.729C201.739 5.412 206.895.884 212.955.114c.826-.098 1.573.477 1.678 1.299s-.478 1.573-1.299 1.678c-4.978.633-9.295 4.534-12.155 10.985-2.973 6.704-3.988 15.274-2.861 24.134.229 1.798.545 3.591.941 5.33a1.5 1.5 0 0 1-1.465 1.833zm-106.749 0a1.502 1.502 0 0 1-1.462-1.167 59.109 59.109 0 0 1-.992-5.617c-1.194-9.395-.096-18.532 3.096-25.729C94.99 5.412 100.146.884 106.206.114c.82-.098 1.573.477 1.678 1.299s-.478 1.573-1.299 1.678c-4.978.633-9.295 4.534-12.155 10.985-2.973 6.704-3.988 15.274-2.861 24.134.229 1.798.545 3.591.941 5.33a1.5 1.5 0 0 1-1.465 1.833zm213.695 0a1.502 1.502 0 0 1-1.462-1.167 59.109 59.109 0 0 1-.992-5.617c-1.194-9.395-.096-18.532 3.096-25.729C308.685 5.412 313.841.884 319.901.114c.821-.098 1.573.477 1.678 1.299s-.478 1.573-1.299 1.678c-4.978.633-9.295 4.534-12.155 10.985-2.973 6.704-3.988 15.274-2.861 24.134.229 1.798.545 3.591.941 5.33a1.5 1.5 0 0 1-1.465 1.833zm106.915 0a1.502 1.502 0 0 1-1.462-1.167 59.109 59.109 0 0 1-.992-5.617c-1.194-9.395-.096-18.532 3.096-25.729C415.6 5.412 420.756.884 426.816.114c.822-.098 1.573.477 1.678 1.299s-.478 1.573-1.299 1.678c-4.978.633-9.295 4.534-12.155 10.985-2.973 6.704-3.988 15.274-2.861 24.134.229 1.798.545 3.591.941 5.33a1.5 1.5 0 0 1-1.465 1.833z" fill="#630000" id="UuF_D3S7zDUbTqiu77AN0" /><path d="M559.073 441.722H101.587L50.793 40.694h457.486z" fill="#FFFFFF" id="onCFvR60jBJ_YG42xRTEq" /><path d="M559.073 443.222H101.587a1.499 1.499 0 0 1-1.488-1.312L49.305 40.882a1.501 1.501 0 0 1 1.488-1.689H508.28c.756 0 1.394.562 1.488 1.312l50.793 401.028a1.503 1.503 0 0 1-1.488 1.689zm-456.163-3h454.461L506.957 42.194H52.496z" fill="#630000" id="MLqisJZpvI3s8VEUrgpvU" /><path d="M109.558 258.821h98.703l10.34 81.635h-98.704zM286.285 95.55h98.704l10.34 81.635h-98.704z" fill="#FFBBA0" id="YBZnhwGXtW83L58E-J7L" /><ellipse cx="122.4" cy="68.122" fill="#1E9086" rx="9.135" ry="11.696" transform="matrix(.992 -.1262 .1262 .992 -7.6165 15.9869)" id="tQK2NoZf-fU91dfmXGALP" /><ellipse cx="229.282" cy="68.122" fill="#1E9086" rx="9.135" ry="11.696" transform="matrix(.992 -.1262 .1262 .992 -6.7625 29.4715)" id="dbVonI3AREj4suZfNW7BB" /><ellipse cx="336.163" cy="68.122" fill="#1E9086" rx="9.135" ry="11.696" transform="matrix(.992 -.1262 .1262 .992 -5.9084 42.9562)" id="HLRc4QlH94s1s3XauJniT" /><ellipse cx="443.045" cy="68.122" fill="#1E9086" rx="9.135" ry="11.696" transform="matrix(.992 -.1262 .1262 .992 -5.0544 56.4408)" id="H9sQ96tjRPiYOxFIVZiQS" /><path d="M115.083 71.443a1.5 1.5 0 0 1-.187-2.989c4.979-.633 9.295-4.534 12.155-10.985 2.973-6.704 3.988-15.275 2.861-24.135-1.126-8.859-4.256-16.903-8.812-22.649-4.384-5.531-9.544-8.226-14.517-7.594a1.506 1.506 0 0 1-1.678-1.299 1.502 1.502 0 0 1 1.299-1.678c6.062-.771 12.185 2.321 17.247 8.707 4.891 6.169 8.242 14.739 9.437 24.134 1.194 9.396.096 18.532-3.096 25.729-3.303 7.448-8.459 11.976-14.519 12.746a1.338 1.338 0 0 1-.19.013zm106.749 0a1.5 1.5 0 0 1-.187-2.989c4.979-.633 9.295-4.534 12.155-10.985 2.973-6.704 3.988-15.275 2.861-24.135-1.126-8.859-4.256-16.903-8.812-22.649-4.384-5.531-9.54-8.226-14.517-7.594a1.508 1.508 0 0 1-1.678-1.299 1.502 1.502 0 0 1 1.299-1.678c6.06-.771 12.184 2.321 17.247 8.707 4.891 6.169 8.242 14.739 9.437 24.134 1.194 9.396.096 18.532-3.096 25.729-3.303 7.448-8.459 11.976-14.519 12.746a1.338 1.338 0 0 1-.19.013zm106.947 0a1.5 1.5 0 0 1-.187-2.989c10.571-1.345 17.308-17.1 15.017-35.12s-12.767-31.583-23.33-30.243a1.506 1.506 0 0 1-1.678-1.299A1.502 1.502 0 0 1 319.9.114c12.216-1.544 24.184 13.179 26.685 32.841 2.5 19.662-5.402 36.922-17.614 38.476a1.57 1.57 0 0 1-.192.012zm106.914 0a1.5 1.5 0 0 1-.187-2.989c4.979-.633 9.295-4.534 12.155-10.985 2.973-6.704 3.988-15.275 2.861-24.135-1.126-8.859-4.256-16.903-8.812-22.649-4.384-5.531-9.543-8.226-14.517-7.594-.817.101-1.573-.477-1.678-1.299s.478-1.573 1.299-1.678c6.062-.771 12.185 2.321 17.247 8.707 4.891 6.169 8.242 14.739 9.437 24.134 1.194 9.396.096 18.532-3.096 25.729-3.303 7.448-8.459 11.976-14.519 12.746a1.348 1.348 0 0 1-.19.013z" fill="#630000" id="WJpJbHnoVcrc64FKEax" /><path d="M197.922 177.185h98.703l10.34 81.636h-98.704z" fill="#FFBBA0" id="veYM8Fs1e8PqvKJ2PdfA" /><path d="M296.625 177.185h98.704l10.34 81.636h-98.704z" fill="#FFBBA0" id="fXxb_AC1ncP8l8ju1jbpk" /><g fill="#630000" id="l9inyeYpz1huSndBq9"><path d="M228.939 423.591a1.5 1.5 0 0 1-1.486-1.312l-41.36-326.54a1.501 1.501 0 0 1 1.3-1.677 1.507 1.507 0 0 1 1.677 1.3l41.359 326.541a1.501 1.501 0 0 1-1.49 1.688zm98.704 0a1.5 1.5 0 0 1-1.486-1.312l-41.36-326.54a1.501 1.501 0 0 1 1.3-1.677 1.506 1.506 0 0 1 1.677 1.3l41.359 326.541a1.501 1.501 0 0 1-1.49 1.688zm98.703 0a1.5 1.5 0 0 1-1.486-1.312L383.5 95.739a1.501 1.501 0 0 1 1.3-1.677 1.508 1.508 0 0 1 1.677 1.3l41.359 326.541a1.501 1.501 0 0 1-1.49 1.688z" fill="#630000" id="OJy2KYA86mWiTtiy24fDQ" /><path d="M493.997 178.685H99.218a1.5 1.5 0 0 1 0-3h394.778a1.5 1.5 0 0 1 .001 3zm10.303 81.636H109.681a1.5 1.5 0 0 1 0-3H504.3a1.5 1.5 0 0 1 0 3zm10.303 81.635H119.898a1.5 1.5 0 0 1 0-3h394.705a1.5 1.5 0 0 1 0 3z" fill="#630000" id="ZPQu5LMnytcmqD3UAWBo2" /></g></g></g></g></g></svg>