<svg xmlns="http://www.w3.org/2000/svg" fill="none" viewBox="0 0 560 560" width="560" height="560"><defs><clipPath id="assetClipPath_i8ZDWts2"><path d="m0 0 h 1700 v 1700 h -1700 v -1700 z" id="path_Imp4uAY7" fill="#ffffff" /></clipPath><clipPath id="clipPath__a63qHmY"><path d="m0 0 h 90.458 v 85.573 h -90.458 v -85.573 z" id="path_m8rDfOyR" /></clipPath><clipPath id="clipPath_JqfxCBYJ"><path d="m0 0 h 1137.499 v 1387.664 h -1137.499 v -1387.664 z" id="path_xMCYKEbS" /></clipPath><clipPath id="clipPath_5yiyQY7P"><path d="m0 0 h 263.605 v 391.934 h -263.605 v -391.934 z" id="path_BQs7huj-" /></clipPath><clipPath id="clipPath_5FZkmqYW"><path d="m0 0 h 417.097 v 404.895 h -417.097 v -404.895 z" id="path_dYvIjLRZ" /></clipPath><clipPath id="clipPath_0lCqk6JG"><path d="m0 0 h 268.597 v 391.934 h -268.597 v -391.934 z" id="path_smCz27KJ" /></clipPath><clipPath id="clipPath_F_UK6z2B"><path d="m0 0 h 90.458 v 52.737 h -90.458 v -52.737 z" id="path_bImo4rFN" /></clipPath><clipPath id="clipPath_WY4oV2hy"><path d="m0 0 h 139.004 v 129.565 h -139.004 v -129.565 z" id="path_RZQ_nH9b" /></clipPath><clipPath id="clipPath_U0w53phx"><path d="m0 0 h 179.419 v 174.474 h -179.419 v -174.474 z" id="path_B44zeRjF" /></clipPath><clipPath id="clipPath_i8BYZhLu"><path d="m0 0 h 417.097 v 404.895 h -417.097 v -404.895 z" id="path_uPzYog45" /></clipPath></defs><g transform="" data-asset-index="0"><g clip-path="url(#assetClipPath_i8ZDWts2)" transform="scale(0.32941176470588235 0.32941176470588235)" data-asset-index="0"><defs /><g transform="translate(1309.0 259.0) rotate(0.0 45.5 43.0) translate(0.0 0.0) scale(1.0059917309690685 1.0049898916714386)" id="oWoMY_hzqH4qkuKX4cEBh"><g clip-path="url(#clipPath__a63qHmY)" transform="matrix(1 0 0 1 0 0)" id="vTT_bQy86dL-VoqdDyCYu"><g fill="#003029" id="cliS23zy2Gd_F4rMly8jP"><path d="M58.334 51.275c-.34 0-.682-.115-.963-.351L6.282 8.103a1.502 1.502 0 0 1-.186-2.114 1.504 1.504 0 0 1 2.114-.185l51.088 42.821a1.5 1.5 0 0 1-.964 2.65zm5.348 34.298a1.5 1.5 0 0 1-1.139-.523L3.536 16.3a1.5 1.5 0 1 1 2.276-1.953l59.008 68.75a1.5 1.5 0 0 1-1.138 2.476zm-19.914 0c-.481 0-.953-.23-1.243-.658L.258 22.565a1.5 1.5 0 1 1 2.483-1.684l42.267 62.351a1.5 1.5 0 0 1-1.24 2.341zm45.189-42.127a1.5 1.5 0 0 1-.67-.158L7.486 2.842A1.5 1.5 0 0 1 8.829.158L89.63 40.604a1.5 1.5 0 0 1-.673 2.842z" fill="#003029" id="sInhaDQAkrgx9yyQz-74D" /></g></g></g><g transform="translate(177.0 197.0) rotate(0.0 570.0 695.0) scale(1.0021986832515897 1.0016834046282097)" id="i3u4Prd4hMkTJvED8GJKv"><g clip-path="url(#clipPath_JqfxCBYJ)" transform="matrix(1 0 0 1 0 0)" id="BZrMBjrXVUNaN4x3FNQbB"><path d="M416.891 612.177c-15.958 30.511 224.256 72.247 408.319 69.966-164.245-51.934-361.587-98.246-408.319-69.966z" fill="#50B9AD" id="KhQHgoLWOHyiJzDMhGixa" /><path d="M533.437 124.768c-8.093 14.761 43.522 75.002 112.526 102.234-77.476 118.182-287.246-49.685-324.267-5.983 17.617-58.531 116.681-38.808 137.274-110.639 9.465-33.016 88.652-11.487 74.467 14.388z" fill="#FE5236" id="nFYeoIRTonl-xOc-ZytxF" /><path d="M424.01 247.951c28.422-15.008 61.068-30.336 93.177-41.116 35.596-11.95 85.51-22.946 123.599-27.269 40.921-4.644 98.373-1.37 121.618 3.238L708.241 318.42l-191.927 38.714c.001 0-130.898-88.804-92.304-109.183z" fill="#FFBBA0" id="iKoKbpvTaJFjKXbn0C5SW" /><path d="m762.371 1308.537 69.959-644.686s-187.857-73.776-190.718-26.887c-5.86 96.031-9.2 198.093-11.654 235.889-5.138 79.118-29.601 150.359 7.241 422.643-18.592 59.335 5.877 72.207 49.908 74.013 27.285 1.12 74.071 1.781 130.754 1.667 15.416-.029-55.49-62.639-55.49-62.639z" fill="#FFA78E" id="tejxTF0b3Spmzj9zOHmRJ" /><path d="m784.176 1213.834-178.098 12.121s16.424 14.674 18.383 17.362c-16.085 8.936-12.511 30.894 4.085 33.447-14.553 3.319-9.191 24 8.651 18.734-18.592 59.335 5.878 72.207 49.908 74.013 27.285 1.12 67.122 4.567 123.773 6.491 15.408.523 28.278-1.083 38.218-3.224 8.199-1.766 8.985-13.143 1.095-15.987l-23.924-8.626-63.897-39.627c8.899-5.987 17.325-22.455 8.133-35.859 10.511-2.26 13.906-14.285 1.532-18.383z" fill="#FFFFFF" id="jfqihcMYONI2lJFASZmt8" /><path d="M816.737 1377.601c-1.959 0-3.929-.033-5.91-.101-35.393-1.202-64.301-3.004-87.53-4.45-13.963-.87-26.021-1.621-36.254-2.041-27.757-1.14-43.091-6.589-51.274-18.221-8.161-11.601-8.417-29.687-.77-55.239-5.2.894-9.821-.286-12.939-3.378-2.942-2.916-4.087-7.112-2.99-10.951.741-2.592 2.419-4.722 4.799-6.185-5.779-2.327-9.844-7.264-10.987-13.646-1.417-7.915 2.194-15.752 9.271-20.427-3.13-3.259-11.458-10.873-17.073-15.891a1.498 1.498 0 0 1 .898-2.614l178.098-12.121a1.48 1.48 0 0 1 1.274.561c.307.385.406.896.264 1.366l-11.737 39.115c4.992 2.072 7.793 5.761 7.56 10.069-.24 4.429-3.677 8.379-8.602 10.125 2.897 5.073 3.82 10.88 2.666 16.919-1.316 6.887-5.332 13.686-10.472 17.928l61.896 38.386 23.776 8.572c4.234 1.526 6.775 5.411 6.475 9.896-.302 4.498-3.349 8.019-7.763 8.97-10.367 2.233-21.335 3.358-32.676 3.358zm-179.54-83.604a1.499 1.499 0 0 1 1.431 1.948c-8.124 25.928-8.257 43.957-.406 55.117 7.485 10.641 22.58 15.868 48.944 16.949 10.265.421 22.338 1.174 36.318 2.044 23.209 1.446 52.095 3.246 87.445 4.447 13.197.45 25.934-.626 37.852-3.192 3.732-.803 5.242-3.862 5.401-6.237.158-2.364-.925-5.583-4.499-6.872l-23.924-8.626a1.44 1.44 0 0 1-.282-.137l-63.897-39.627a1.498 1.498 0 0 1-.046-2.519c4.4-2.959 9.514-9.476 11.021-17.362 1.135-5.939-.002-11.611-3.287-16.402a1.499 1.499 0 0 1 .922-2.315c4.661-1.002 8.054-4.261 8.252-7.925.179-3.303-2.328-6.062-6.877-7.568a1.499 1.499 0 0 1-.965-1.854l11.518-38.387-172.396 11.733c4.835 4.36 14.384 13.07 15.953 15.222.253.348.345.787.253 1.207a1.505 1.505 0 0 1-.736.988c-6.973 3.874-10.645 11.031-9.355 18.233 1.185 6.615 6.143 11.374 12.939 12.42a1.5 1.5 0 0 1 .105 2.946c-3.63.827-6.089 2.894-6.925 5.818-.797 2.787.053 5.851 2.218 7.997 2.833 2.81 7.426 3.543 12.6 2.017.139-.043.281-.063.423-.063z" fill="#003029" id="Yta8BWxoM8-kfU3C8NQvi" /><path d="M624.46 1244.816a1.5 1.5 0 0 1-.055-2.999l58.811-2.184c.836-.036 1.524.615 1.555 1.443s-.615 1.523-1.443 1.555l-58.811 2.184-.057.001zm146.044 29.362h-76.816a1.5 1.5 0 0 1 0-3h76.816a1.5 1.5 0 0 1 0 3zm1.532-18.383h-34.878a1.5 1.5 0 0 1 0-3h34.878a1.5 1.5 0 0 1 0 3zm-119.582 22.468h-23.907a1.5 1.5 0 0 1 0-3h23.907a1.5 1.5 0 0 1 0 3z" fill="#003029" id="r66LgN7N2RnorVznguShS" /><path d="M366.489 466.75c19.595-10.236 106.615-63.759 106.615-63.759 51.157-59.529-7.874-175.347-50.408-154.578-38.295 21.726-112.703 62.166-170.058 100.699-35.99 24.179-57.539 66.57-42.223 108.738 21.681 59.694 91.223 42.777 156.074 8.9z" fill="#FFBBA0" id="DSKcMQhyxKLxuOGgI358d" /><path d="M408.537 580.841c40.521 24.264 81.223 49.576 81.223 49.576 61.641 21.2 70.937-34.962 81.963-91.941L467.621 470.65z" fill="#FFA78E" id="qnAiZ_vWg96fPcjQnpwq4" /><path d="M499.013 492.113c23.781-1.569 58.692-2.541 80.529 2.512 21.838 5.053 18.343 30.656-7.431 33.681s-49.36 3.692-52.545 3.762c-17.891.396-48.012-38.143-20.553-39.955z" fill="#FFA78E" id="KkT5aeYane9qQbsxwYLZz" /><path d="M488.456 556.127a24.97 24.97 0 0 1-4.394-.383c-.816-.145-1.359-.924-1.214-1.739s.923-1.364 1.74-1.214c6.779 1.207 14.363-.854 21.352-5.801 7.096-5.022 11.554-11.562 12.146-15.165a1.5 1.5 0 0 1 1.447-1.256c1.029-.023 25.515-.597 52.403-3.753a1.5 1.5 0 1 1 .35 2.98c-24.058 2.824-46.211 3.591-51.518 3.742-1.426 4.963-6.607 11.31-13.094 15.901-6.198 4.385-12.877 6.688-19.218 6.688z" fill="#003029" id="hgqZ58xS2G4-oC9WkQMnn" /><path d="M546.878 560.456c34.495 22.86 46.674 14.751 51.922 7.142 10.826-15.697-10.74-34.862-21.521-41.291-17.088-10.19-28.679-4.583-31.878 1.475-4.9 9.277-2.505 22.143 19.739 36.512z" fill="#FFA78E" id="a9va32BvKzcIc6G8N8Pli" /><path d="M565.14 565.795c-.102 0-.206-.01-.309-.032l-18.261-3.839a1.499 1.499 0 1 1 .618-2.935l11.128 2.339c-10.427-8.007-21.494-20.511-14.241-34.245 1.746-3.306 5.235-5.9 9.572-7.117 4.941-1.387 13.185-1.635 24.401 5.054a58.768 58.768 0 0 1 4.273 2.83 1.5 1.5 0 0 1-1.757 2.431 55.568 55.568 0 0 0-4.052-2.685c-10.302-6.144-17.679-5.972-22.054-4.742-3.497.981-6.386 3.085-7.73 5.629-5.701 10.795.947 22.743 19.227 34.551a1.5 1.5 0 0 1-.815 2.761z" fill="#003029" id="yKQW9ALcpELPj06UT-MHL" /><path d="M529.3 585.484c34.495 22.86 46.674 14.751 51.922 7.142 10.826-15.697-10.74-34.862-21.521-41.291-17.088-10.19-28.679-4.583-31.878 1.475-4.9 9.277-2.505 22.143 19.739 36.512z" fill="#FFA78E" id="Rwaq04ePmSxZ_7Ka6Nkm" /><path d="M547.56 590.823c-.279 0-.561-.078-.812-.24-11.298-7.297-28.952-22-20.251-38.472 1.746-3.306 5.234-5.899 9.571-7.116 4.94-1.387 13.185-1.636 24.402 5.054 4.957 2.956 10.463 7.447 14.73 12.015 5.76 6.167 9.295 12.444 10.224 18.153a1.5 1.5 0 0 1-2.961.481c-1.856-11.41-15.088-23.04-23.53-28.074-10.302-6.144-17.68-5.97-22.055-4.742-3.496.981-6.386 3.085-7.729 5.629-5.702 10.796.947 22.743 19.227 34.551a1.5 1.5 0 0 1-.816 2.761z" fill="#003029" id="yG32D0Eb7AiqM87dGmGJs" /><path d="M508.761 608.66c34.495 22.86 46.674 14.751 51.922 7.142 10.826-15.697-10.74-34.862-21.521-41.291-17.088-10.19-28.679-4.583-31.878 1.475-4.9 9.277-2.505 22.143 19.739 36.512z" fill="#FFA78E" id="DkEjD1HiVhdIGnT1xZIhO" /><path d="M527.021 613.999c-.279 0-.561-.078-.812-.24-11.298-7.297-28.952-22-20.251-38.472 1.746-3.306 5.234-5.899 9.571-7.116 4.94-1.386 13.185-1.636 24.402 5.054 7.444 4.438 26.474 19.347 25.147 34.817a1.5 1.5 0 1 1-2.989-.256c1.061-12.376-13.97-26.187-23.694-31.985-10.302-6.144-17.68-5.97-22.055-4.742-3.496.981-6.386 3.085-7.729 5.629-5.702 10.796.947 22.743 19.227 34.551a1.5 1.5 0 0 1-.817 2.76z" fill="#003029" id="DsOp2fOZE-l8U-hwLHqa" /><path d="M489.76 630.417c34.495 22.86 46.627 14.806 51.875 7.198 10.826-15.697-10.74-34.862-21.521-41.291-17.088-10.19-28.679-4.583-31.878 1.475-4.9 9.277-2.505 22.143 19.739 36.512z" fill="#FFA78E" id="WEKUTV2s4j9xTMvWxaDZM" /><path d="M507.973 635.811c-.279 0-.561-.078-.812-.24-11.298-7.297-28.951-22-20.251-38.472 1.746-3.306 5.234-5.899 9.571-7.116 4.941-1.387 13.185-1.635 24.402 5.054 10.281 6.13 25.478 20.152 25.208 33.653a1.5 1.5 0 0 1-1.499 1.47h-.031a1.5 1.5 0 0 1-1.47-1.529c.243-12.137-14.436-25.466-23.745-31.017-10.302-6.144-17.68-5.97-22.055-4.742-3.496.981-6.386 3.085-7.729 5.629-5.702 10.795.947 22.743 19.227 34.551a1.5 1.5 0 0 1-.816 2.759z" fill="#003029" id="OIGh78Jx8rI4_N7twH5p" /><path d="M476.175 477.146S393 422.707 363.644 403.469c-72.628-47.595-145.398-17.668-154.111 4.422-11.433 28.984.49 71.664 39.118 97.467 23.467 15.676 57.534 36.338 65.757 41.054 10.244 5.875 39.485 86.917 86.926 31.592z" fill="#FFBBA0" id="fPzlu6U-ah1yhbC0SnYg8" /><path d="M419.896 441.808a1.49 1.49 0 0 1-.82-.245c-11.9-7.791-26.387-17.185-39.168-25.474-10.338-6.704-19.266-12.494-24.84-16.146a1.5 1.5 0 0 1 1.645-2.509c5.568 3.648 14.493 9.437 24.827 16.138 12.784 8.291 27.273 17.687 39.179 25.481a1.5 1.5 0 0 1-.823 2.755z" fill="#003029" id="SYbzKhnWpjbT5VmE_kZ" /><path d="M499.013 492.113c-7.245 13.624-55.683 96.7-60.429 104.818-7.915 13.538-43.146-9.078-36.932-20.268 9.935-17.889 56.134-94.881 63.303-106.86 7.17-11.979 40.152 10.849 34.058 22.31z" fill="#FFBBA0" id="SrVjxq5QSqrQ5ZMVI0k0G" /><path d="M401.654 584.409c-.528 0-1.04-.28-1.314-.774-2.064-3.731-.096-7.517-.012-7.676 9.09-16.369 47.869-81.1 60.613-102.371l2.728-4.555c3.283-5.483 11.354-5.485 21.065-.002 10.681 6.031 19.438 16.577 15.604 23.786a1.499 1.499 0 1 1-2.649-1.408c2.294-4.315-2.957-13.287-14.43-19.766-6.087-3.438-14.196-5.779-17.015-1.069l-2.729 4.556c-12.737 21.261-51.497 85.96-60.551 102.262.001 0-1.262 2.508.001 4.792a1.501 1.501 0 0 1-1.311 2.225z" fill="#003029" id="e2XiWnFfW4eGIHAunFvHg" /><path d="M483.212 522.18c-.273 0-.549-.074-.798-.23l-34.883-21.953a1.5 1.5 0 1 1 1.598-2.539l34.883 21.953a1.499 1.499 0 0 1-.8 2.769zm-26.71 46.835a1.49 1.49 0 0 1-.774-.216l-35.913-21.673a1.5 1.5 0 0 1 1.55-2.568l35.913 21.673a1.5 1.5 0 0 1-.776 2.784z" fill="#003029" id="tuLoU2XgH4KIo4dRDca5i" /><path d="M722.979 400.058c-80.914-41.809-184.141-46.428-229.218 77.49-30.769 84.587-64.635 210.761-87.027 289.827-114.511 26.425-213.44 100.382-323.67 166.772l40.288 119.228s205.196-69.22 266.043-90.717c124.113-43.85 156.321-43.949 188.224-134.479 28.89-81.979 100.266-283.954 100.266-283.954s126.007-102.359 45.094-144.167z" fill="#FFA78E" id="qcwK1yI-j9mTPi3rUyfG3" /><path d="m213.557 1039.87-77.073-161.014-9.34 23.497c-18.878-13.115-33.876 5.72-29.57 16.155-11.521-7.44-19.563 3.666-14.211 14.961-55.994 4.742-63.123 29.526-51.304 70.477l49.153 163.738c3.064 10.208 17.948 8.772 19.004-1.834l21.235-107.267c15.304 4.531 26.518-.579 32.375-9.674 7.93 11.138 20.332 3.504 17.648-5.369z" fill="#FFFFFF" id="FF2xSlD7HllWSGrMUMxy5" /><path d="M90.505 1176.119c-4.308 0-9.044-2.385-10.731-8.003l-49.153-163.738c-6.97-24.15-6.569-40.01 1.295-51.439 7.958-11.565 24.094-18.372 49.289-20.781-2.031-5.836-.982-11.873 2.807-15.196 3-2.629 7.1-3.057 11.37-1.299-.422-5.183 2.298-11.174 7.17-15.094 6.727-5.412 15.542-5.549 23.874-.472l8.663-21.794a1.499 1.499 0 0 1 2.747-.093l77.073 161.014a1.5 1.5 0 0 1-1.222 2.142l-40.406 3.523c.481 4.124-1.659 8.074-5.604 10.01-3.568 1.751-9.124 1.744-13.773-3.481-6.841 9.056-18.309 12.385-31.296 9.044L101.7 1166.073c-.662 6.293-5.536 9.554-10.089 9.993a11.57 11.57 0 0 1-1.106.053zm-.1-258.526c-1.673 0-3.177.54-4.414 1.624-3.212 2.817-3.736 8.414-1.273 13.61a1.499 1.499 0 0 1-1.229 2.137c-25.411 2.152-41.472 8.588-49.101 19.675-7.308 10.621-7.582 25.7-.889 48.892l49.148 163.722c1.435 4.779 5.568 6.129 8.675 5.827 3.105-.3 6.906-2.412 7.4-7.378.005-.048.012-.096.021-.143l21.235-107.267a1.498 1.498 0 0 1 1.897-1.147c18.844 5.578 27.739-4.469 30.688-9.049.27-.418.729-.676 1.226-.688.504.006.969.225 1.257.63 3.779 5.308 8.319 5.632 11.308 4.165 2.588-1.271 4.844-4.388 3.682-8.229a1.496 1.496 0 0 1 1.306-1.928l39.926-3.482-74.658-155.967-8.073 20.311a1.5 1.5 0 0 1-2.249.678c-10.995-7.639-18.947-3.02-21.855-.68-4.916 3.955-7.319 10.558-5.473 15.031a1.5 1.5 0 0 1-2.201 1.832c-2.241-1.448-4.411-2.176-6.354-2.176z" fill="#003029" id="UFXdcPhGncRSzqh-jPOAM" /><path d="M81.694 1180.392a27.888 27.888 0 0 0 22.543-24.724l1.731-17.987a96.983 96.983 0 0 1 3.893-19.395l13.865-45.396c-5.48-10.57-13.068-20.038-22.397-28.596-1.845-1.692-4.835-.79-5.48 1.629l-3.444 12.91-51.544-33.363 4.007 61.929z" fill="#003029" id="xwFthYzvCW3omwWemJXb6" /><path d="M21.912 957.485c9.649 30.706 20.045 90.632 19.11 132.069l32.718 93.618c1.863 5.33 9.816 2.55 7.954-2.78l-32.718-93.618c.935-41.437-9.46-101.362-19.11-132.068-1.909-5.463-9.863-2.684-7.954 2.779z" fill="#003029" id="nQyU2srngFCJ5R4Z25Ak" /><path d="M104.382 1155.645c-.258 0-.52-.066-.758-.207a28.907 28.907 0 0 1-14.248-25.525l1.528-71.112c.018-.828.71-1.48 1.532-1.468a1.502 1.502 0 0 1 1.468 1.532l-1.528 71.112a25.909 25.909 0 0 0 12.768 22.875 1.5 1.5 0 0 1-.762 2.793z" fill="#FFFFFF" id="IGn0icV28omzpN88mMJwI" /><path d="m0 972.175 23.194 66.367 18.559-6.486c-3.245-25.898-10.148-55.351-17.323-75.146z" fill="#003029" id="H1Ug-0aJURUzC1y2Wntp5" /><path d="M69.745 1147.704a1.5 1.5 0 0 1-1.416-1.005l-20.77-59.43a1.5 1.5 0 0 1 2.832-.99l20.77 59.43a1.5 1.5 0 0 1-1.416 1.995zm11.949 34.188a1.5 1.5 0 0 1-1.416-1.005l-6.452-18.461a1.5 1.5 0 0 1 2.832-.99l6.452 18.461a1.5 1.5 0 0 1-1.416 1.995zm-48.223-172.851a1.501 1.501 0 0 1-1.476-1.241c-3.365-19.239-7.455-36.948-11.513-49.864a1.5 1.5 0 1 1 2.862-.9c4.097 13.038 8.219 30.882 11.607 50.246a1.5 1.5 0 0 1-1.48 1.759z" fill="#FFFFFF" id="TdWW5zS94rQBE-JQiu_cb" /><path d="M862.354 1379.239a27.887 27.887 0 0 0-15.903-29.438l-16.409-7.568a96.985 96.985 0 0 1-17.025-10.074l-38.28-28.065c-11.786 1.686-23.228 5.725-34.384 11.709-2.206 1.183-2.34 4.304-.27 5.711l11.051 7.511-48.501 37.651 59.784 16.649z" fill="#003029" id="dVDql04XhHcxHiwwgsngU" /><path d="M632.205 1362.132c32.17 1.021 92.17 10.979 130.979 25.532h99.17c5.646 0 5.646-8.425 0-8.425h-99.17c-38.808-14.553-98.808-24.511-130.979-25.532-5.787 0-5.787 8.425 0 8.425z" fill="#003029" id="W-f78pLltl-LubvkqG4Yy" /><path d="M827.335 1357.159c-3.398 0-6.818-.6-10.1-1.825l-66.626-24.904a1.5 1.5 0 0 1 1.05-2.811l66.626 24.904a25.906 25.906 0 0 0 25.806-4.507 1.5 1.5 0 0 1 1.941 2.287 28.895 28.895 0 0 1-18.697 6.856z" fill="#FFFFFF" id="D3M1ZyR0jTknefEXyjXkX" /><path d="M638.844 1387.664h70.303v-19.66c-25.519-5.481-55.6-8.682-76.654-8.438z" fill="#003029" id="J09uhPc-pYvzcxH2XTLLd" /><path d="M862.354 1380.739h-53.723a1.5 1.5 0 0 1 0-3h53.723a1.5 1.5 0 0 1 0 3zm-179.08-11.505c-.081 0-.163-.006-.245-.02-19.268-3.171-37.334-5.153-50.871-5.583a1.5 1.5 0 0 1 .095-2.998c13.664.434 31.869 2.43 51.262 5.62a1.5 1.5 0 0 1-.241 2.981zm101.629 11.505h-21.719a1.5 1.5 0 0 1 0-3h21.719a1.5 1.5 0 0 1 0 3z" fill="#FFFFFF" id="YwNhoWqsbvlJSh1CvMLCN" /><path d="M532.849 399.747c-39.613 55.18-89.143 139.055-115.958 212.43 113.745-20.808 193.19 135.319 430.83 79.404 0 0-7.949-206.079-37.513-254.334-16.784-27.395-40.41-52.68-40.41-52.68z" fill="#50B9AD" id="yIrfFUh_VpClxX-DR0PTf" /><path d="M787.903 703.245a1.5 1.5 0 0 1-1.499-1.468c-1.627-75.784-7.251-146.261-15.044-188.527a1.5 1.5 0 0 1 2.95-.544c7.821 42.415 13.463 113.072 15.094 189.007a1.5 1.5 0 0 1-1.468 1.532h-.033z" fill="#003029" id="YluuEJ-fKmy29RUb7z4gu" /><path d="M446.222 237.725c3.982 21.725 29.431 138.81 30.963 152.315s-31.66 40.32 4.168 87.029c127.162 39.072 275.423 19.157 352.019-25.268 38.678-56.557 13.793-92.657-11.489-118.723 0 0-1.676-61.044-49.745-120.255z" fill="#FFBBA0" id="XRfYTQKldPkyG7vk50kKh" /><path d="M471.898 408.647a1.5 1.5 0 0 1-1.364-2.123c.324-.71.645-1.405.959-2.086 2.683-5.81 4.802-10.399 4.209-14.164-2.709-17.207-4.987-28.286-7.399-40.016-1.251-6.086-2.545-12.379-3.996-19.955a1.499 1.499 0 0 1 1.191-1.755c.814-.157 1.6.377 1.755 1.191 1.447 7.556 2.739 13.839 3.988 19.915 2.419 11.765 4.704 22.877 7.424 40.153.734 4.664-1.667 9.865-4.448 15.888a492.85 492.85 0 0 0-.954 2.074 1.5 1.5 0 0 1-1.365.878z" fill="#003029" id="r2lFLbrp_6z6B50BDhW" /><path d="M540.917 490.991c97.26 30.041 195.288 39.084 294.689 6.969 9.745-3.521 12.56-42.585-1.234-46.159zM945.328 86.82 887.89 208.429l-125.485-25.625c-78.423 3.264-124.43 123.972-80.214 140.87 45.229 13.234 77.662 20.413 156.527 36.748 54.638 11.317 137.523 6.351 172.34-72.766 10.094-22.937 9.949-26.495 18.954-48.462 6.276-15.31 65.106-45.234 31.746-111.648-14.602-5.106-116.43-40.726-116.43-40.726z" fill="#FFBBA0" id="SVoRkYl4U6MIIiTTEU7" /><path d="M945.328 86.82c-9.02-3.115 3.7-45.494 17.206-40.822 6.774 2.343 107.229 36.062 115.085 38.998 9.537 3.564-5.689 46.198-15.862 42.551-8.486-3.043-110.688-38.744-116.429-40.727z" fill="#FFBBA0" id="tVWuA7mhnjdl106teFe3H" /><path d="M863.48 365.592c-.045 0-.091-.002-.137-.006a221.887 221.887 0 0 1-24.931-3.695c-76.898-15.927-110.326-23.224-156.644-36.777a1.5 1.5 0 1 1 .842-2.879c46.212 13.521 79.597 20.809 156.41 36.718a218.96 218.96 0 0 0 24.593 3.645 1.5 1.5 0 0 1-.133 2.994zm198.277-236.544c-.168 0-.339-.028-.506-.088-8.283-2.97-110.761-38.77-116.412-40.721a1.501 1.501 0 0 1 .979-2.836c5.652 1.952 108.158 37.761 116.445 40.732a1.5 1.5 0 0 1-.506 2.913zM876.125 234.837a1.5 1.5 0 0 1-1.356-2.141l18.63-39.443a1.5 1.5 0 0 1 2.713 1.281l-18.63 39.443a1.5 1.5 0 0 1-1.357.86z" fill="#003029" id="RHfPz3YPjGsGHifdu40ho" /><path d="M974.792 98.618a1.5 1.5 0 0 1-1.414-2l14.81-41.871a1.5 1.5 0 1 1 2.828 1l-14.81 41.871a1.5 1.5 0 0 1-1.414 1zm52.469 18.324a1.5 1.5 0 0 1-1.414-2l15.04-42.522a1.499 1.499 0 1 1 2.828 1l-15.04 42.522a1.5 1.5 0 0 1-1.414 1z" fill="#003029" id="WW_yMie6bysWNR0upaEET" /><path d="M558.352 184.031c28.423 6.971 96.593-6.714 109.614-16.868 16.219-12.648 68.403-1.501 58.979 11.488-50.043 62.301-181.787 67.301-229.198 35.22-10.567-8.137 28.505-37.713 60.605-29.84z" fill="#FFBBA0" id="DLDKS-CBA1OFx3aa5nHfD" /><path d="M715.859 191.874c-.219 0-.442-.048-.653-.151l-47.894-23.21a1.5 1.5 0 1 1 1.308-2.699l47.894 23.21a1.5 1.5 0 0 1-.655 2.85zm-55.022 30.553a1.5 1.5 0 0 1-1.292-.735l-25.183-42.456a1.499 1.499 0 1 1 2.58-1.53l25.183 42.456a1.499 1.499 0 0 1-1.288 2.265zm-66.906 12.088h-.033a1.5 1.5 0 0 1-1.467-1.532l1.039-47.867c.018-.828.719-1.513 1.532-1.467a1.5 1.5 0 0 1 1.467 1.532l-1.039 47.867a1.5 1.5 0 0 1-1.499 1.467zm-69.52-7.126a1.5 1.5 0 0 1-1.164-2.445l33.94-41.858a1.5 1.5 0 0 1 2.33 1.89l-33.94 41.858a1.497 1.497 0 0 1-1.166.555z" fill="#003029" id="csVNM7elV9FIjabxEIn10" /><path d="M582.138 234.837c-34.67 0-66.379-6.967-85.232-19.724a1.5 1.5 0 1 1 1.681-2.484c23.188 15.69 67.388 22.573 112.605 17.535 50.57-5.635 92.334-24.753 114.583-52.452a1.5 1.5 0 1 1 2.339 1.879c-30.779 38.318-91.96 55.246-145.976 55.246z" fill="#003029" id="ITmB51R807arRprxUu-" /><path d="M999.467 71.845s-18.112-9.252-21.188-16.502c-5.891-13.886 4.95-29.977 34.262-26.64 44.614 5.078 103.701 33.859 103.701 33.859l-24.162 25.932c-44.743-.962-72.819-7.314-92.613-16.649z" fill="#FFA78E" id="cKUqIsOIYjwOH7kcNveT3" /><path d="M999.467 71.845c-54.22-2.292-59.337-24.403-56.812-34.521 7.597-30.433 46.557-19.145 51.785-17.936 30.13 6.968 26.739 43.846-14.064 34.424z" fill="#FFA78E" id="ln9y01IS99Dk5diL8Y9Pq" /><path d="M992.687 56.834c-3.895 0-8.141-.519-12.647-1.56a1.5 1.5 0 1 1 .675-2.923c13.958 3.224 29.226 1.345 31.874-10.118 1.819-7.873-4.041-18.043-18.486-21.383a1.5 1.5 0 0 1 .675-2.923c16.343 3.779 22.88 15.692 20.733 24.981-1.22 5.282-5.06 9.481-10.811 11.825-3.434 1.4-7.487 2.101-12.013 2.101z" fill="#003029" id="nFd0r4Yq7QIlOcCXdLQJO" /><path d="M1078.962 76.137c4.772 13.227 14.816 19.591 25.168 20.778 27.206 3.122 32.607-26.921 33.231-33.294 2.439-24.904-28.297-34.919-35.271.144z" fill="#FFA78E" id="rykfodR_FGKq6mmTyk7c" /><path d="M1059.333 77.942c4.5 14.739 14.475 21.414 24.811 22.766 28.027 3.666 33.127-32.254 34.094-38.095 4.601-27.793-32.325-37.342-37.045.512z" fill="#FFA78E" id="kxCrSvcXmYRpRa3Jm5o4s" /><path d="M1100.46 99.07a1.5 1.5 0 0 1-.787-2.778c5.866-3.602 13.578-12.326 17.004-33.43l.081-.496c1.14-6.888-.301-15.893-7.764-20.512a1.5 1.5 0 1 1 1.579-2.55c7.299 4.516 10.803 13.541 9.146 23.553l-.079.486c-2.896 17.843-9.085 29.789-18.395 35.506-.246.15-.517.221-.785.221z" fill="#003029" id="e13u6scv6hepxjJC3iLmV" /><path d="M1028.994 77.153c4.262 16.062 14.135 23.348 24.498 24.504 31.173 3.479 34.162-36.974 34.849-42.295 3.963-30.67-31.787-40.336-37.167 1.193z" fill="#FFA78E" id="eNUJ4bwnCbyi3A2sMWcW_" /><path d="M1069.913 100.116a1.5 1.5 0 0 1-.752-2.799c9.482-5.483 15.394-17.968 17.571-37.109.048-.424.088-.773.122-1.038 1.088-8.419-1.013-14.047-2.967-17.286a1.5 1.5 0 1 1 2.569-1.55c3.156 5.231 4.322 11.877 3.373 19.221-.032.252-.071.586-.117.992-2.29 20.137-8.699 33.382-19.05 39.367a1.497 1.497 0 0 1-.749.202z" fill="#003029" id="DqLZii-U5CE5BeLN-f8rw" /><path d="M999.467 71.845c4.263 16.062 14.135 23.348 24.498 24.504 31.173 3.479 34.162-36.974 34.849-42.295 3.963-30.67-31.787-40.336-37.167 1.193z" fill="#FFA78E" id="pjH49L8sTZKZZDZfFHXDq" /><g fill="#003029" id="IaHee3I1WIbAOBAvuWIln"><path d="M1034.384 97.249a1.5 1.5 0 0 1-.37-2.954c15.927-4.07 21.403-23.67 23.191-39.396.048-.425.088-.774.122-1.039 1.9-14.704-5.592-23.74-13.606-24.776-11.666-1.516-18.745 12.149-20.586 26.354a1.5 1.5 0 1 1-2.975-.386c1.285-9.917 4.43-17.845 9.096-22.928 4.2-4.576 9.473-6.71 14.849-6.016 9.456 1.224 18.346 11.5 16.196 28.137-.032.252-.071.586-.117.993-1.895 16.663-7.845 37.47-25.429 41.963a1.431 1.431 0 0 1-.371.048zM416.889 613.678a1.5 1.5 0 0 1-.268-2.976c12.71-2.325 25.135-2.841 37.985-1.578a1.5 1.5 0 0 1-.294 2.986c-12.567-1.235-24.72-.73-37.151 1.543a1.48 1.48 0 0 1-.272.025zm-10.157 155.197a1.5 1.5 0 0 1-.291-2.972c16.476-3.283 30.014-3.321 30.148-3.321a1.5 1.5 0 1 1 0 3c-.132 0-13.392.041-29.562 3.264a1.568 1.568 0 0 1-.295.029zm-286.348 201.51a1.5 1.5 0 0 1-1.367-.882l-22.809-50.376a1.5 1.5 0 1 1 2.733-1.237l22.809 50.376a1.5 1.5 0 0 1-1.366 2.119zm14.684-49.022a1.502 1.502 0 0 1-1.368-.882l-7.923-17.51a1.5 1.5 0 0 1 2.733-1.236l7.923 17.51a1.501 1.501 0 0 1-1.365 2.118zm36.405 123.677a1.5 1.5 0 0 1-1.417-1.008l-12.509-35.999a1.5 1.5 0 1 1 2.834-.984l12.509 35.999a1.5 1.5 0 0 1-1.417 1.992zm636.291-537.636a1.5 1.5 0 0 1-1.5-1.5V464.6a1.5 1.5 0 1 1 3 0v41.303a1.5 1.5 0 0 1-1.5 1.501zm-67.663 10.94a1.5 1.5 0 0 1-1.499-1.462l-.776-30.715a1.5 1.5 0 0 1 1.462-1.538 1.491 1.491 0 0 1 1.537 1.461l.776 30.715a1.5 1.5 0 0 1-1.462 1.538l-.038.001zm-78.006-.775a1.5 1.5 0 0 1-1.5-1.5v-19.226a1.5 1.5 0 1 1 3 0v19.226a1.5 1.5 0 0 1-1.5 1.5z" fill="#003029" id="VYzCr-UaA2Yx8vxkIod3K" /><path d="M626.628 499.493c-50.882 0-100.496-7.096-145.716-20.99a1.507 1.507 0 0 1-.75-.521c-4.028-5.251-7.38-10.514-9.964-15.642a1.499 1.499 0 0 1 .665-2.014 1.499 1.499 0 0 1 2.015.665c2.438 4.837 5.59 9.81 9.375 14.786 59.411 18.181 126.459 24.571 193.937 18.476 60.97-5.506 117.987-21.453 156.429-43.749a1.5 1.5 0 1 1 1.505 2.595c-38.807 22.508-96.274 38.598-157.665 44.142a554.9 554.9 0 0 1-49.831 2.252zM513.473 85.065c-.525 0-1.03-.276-1.304-.758-5.136-9.018-8.229-18.378-9.454-28.616a1.499 1.499 0 1 1 2.978-.356c1.124 9.388 3.884 18.011 8.427 26.312l13.843-6.025a1.499 1.499 0 1 1 1.197 2.751l-15.089 6.567a1.486 1.486 0 0 1-.598.125zm235.111 600.249c-38.994 0-76.172-6.251-113.834-18.929a1.5 1.5 0 0 1 .957-2.843c57.477 19.347 113.84 23.601 177.378 13.39a1.5 1.5 0 1 1 .476 2.962c-22.423 3.604-43.965 5.42-64.977 5.42zm-154.67-35.109c-.204 0-.411-.042-.609-.13-15.772-7.021-30.496-14.377-44.735-21.491-2.797-1.397-5.569-2.782-8.32-4.15a1.5 1.5 0 0 1 1.335-2.686c2.752 1.369 5.527 2.754 8.325 4.153 14.21 7.099 28.903 14.439 44.615 21.435a1.5 1.5 0 0 1-.611 2.869zm57.357-288.717a1.5 1.5 0 0 1-.701-.175c-24.222-12.84-34.616-32.019-35.047-32.829a1.5 1.5 0 0 1 2.649-1.409c.102.191 10.433 19.198 33.804 31.588a1.5 1.5 0 0 1-.705 2.825z" fill="#003029" id="Yx9rA4jpp_ePjtuCrWz6i" /></g><path d="M524.874 78.602c.382 2.188-15.489 4.935-29.675 30.81-8.093 14.761-3.571 125.103 35.389 201.165-34.092 6.678-63.053 7.358-87.6 3.898-2.767-4.668-4.186-18.046-2.138-29.936-7.669 5.382-12.687 13.074-16.84 26.254a163.167 163.167 0 0 1-19.307-6.109c.712-6.023 2.652-13.836 5.078-18.177-5.077 2.553-10.851 12.255-12.383 15.128-21.237-9.521-37.415-22.698-49.585-36.796 8.078-17.054 28.963-34.073 34.707-38.094-7.905 1.997-26.629 4.085-44.56 25.299a149.172 149.172 0 0 1-16.264-31.026c16.66-58.531 120.19-46.77 137.041-122.176 7.491-33.519 6.48-40.632 21.864-62.874 21.603-31.234 62.582-43.66 98.82-28.976z" fill="#FE5236" id="oqJANjujsJndobauhacD9" /><path d="M500.56 221.06a1.5 1.5 0 0 1-1.469-1.208c-5.826-29.293-9.014-60.006-8.747-84.263a1.489 1.489 0 0 1 1.517-1.483 1.5 1.5 0 0 1 1.483 1.517c-.265 24.059 2.903 54.546 8.689 83.645a1.5 1.5 0 0 1-1.473 1.792z" fill="#003029" id="Uc7tnNJ0hAinpWeHqGZkb" /><path d="M623.351 59.525C610.2 16.458 576.511-5.906 534.692 9.713c-45.073 16.834-55.289 58.351-39.492 99.7-15.958-10.05-28.848 7.917-23.038 22.822 4.298 11.028 20.513 17.844 36.025 4.347 32.009 32.102 69.608 31.007 102.776 14.899 38.497-18.697 48.986-70.665 12.388-91.956z" fill="#FFA78E" id="DX9jEj6XRIuv8teSSrCGZ" /><path d="M484.671 133.383a1.501 1.501 0 0 1-1.339-2.174l6.956-13.851a1.501 1.501 0 0 1 2.681 1.347l-6.956 13.851a1.502 1.502 0 0 1-1.342.827z" fill="#003029" id="pqnTvYZcVpJay62AOAOZV" /><path d="M494.348 129.615c-.22 0-.444-.049-.656-.152l-13.749-6.694a1.5 1.5 0 0 1 1.313-2.697l13.749 6.694a1.5 1.5 0 0 1-.657 2.849z" fill="#003029" id="M8uPMbYwf-cHI_FPBg0FV" /><path d="M524.874 78.602c3.255 18.646-13.223 34.425-29.781 30.852-7.792-11.127-12.019-43.09-.744-67.672C510.205 7.211 555.395-4.244 579.42 6.993z" fill="#FE5236" id="VV1dnUww5BV3pHr7bZq5b" /><path d="M570.058 4.157c26.832-12.614 55.517 5.369 60.253 28.558l-32.413 14.106c-4.021-7.333-11.352-13.674-21.082-19.296 4.585 8.216 7.679 16.544 7.738 25.103l-17.761 7.73c-1.908-5.04-4.521-10.478-10.35-14.078 2.117 4.394 4.365 12.081 3.275 17.157l-46.246 20.127c-7.741-13.921-14.884-36.174-3.623-51.321z" fill="#FE5236" id="k8kFP1-5cQwA_4UtRog_f" /><path d="M600.724 66.787a1.5 1.5 0 0 1-1.496-1.414c-.504-8.784 3.768-18.714 14.448-21.099a1.5 1.5 0 0 1 .654 2.928c-8.961 2.001-12.537 10.482-12.106 17.999a1.5 1.5 0 0 1-1.5 1.586z" fill="#003029" id="fiH03cMl2S5q_zR75YoF1" /><path d="M614.406 59.133c2.212 7.133 1.419 13.717-1.771 14.706s-7.568-3.992-9.78-11.125c-.884-2.852-1.288-5.616-1.251-7.969 2.179-3.171 5.987-6.337 6.645-5.839 3.83 2.893 5.434 7.897 6.157 10.227zm-61.67 35.333a1.5 1.5 0 0 1-1.249-2.329c7.018-10.579 20.172-15.731 30.599-11.986a1.5 1.5 0 1 1-1.014 2.823c-9.165-3.291-20.808 1.359-27.085 10.821a1.495 1.495 0 0 1-1.251.671z" fill="#003029" id="qOnmwjmr_oGsZWy-MYURT" /><path d="M574.544 81.942a1.5 1.5 0 0 1-1.4-.961c-1.392-3.61-5.473-9.724-9.809-11.38a1.5 1.5 0 1 1 1.071-2.803c5.541 2.116 10.018 9.16 11.538 13.104a1.5 1.5 0 0 1-1.4 2.04z" fill="#003029" id="RECRHvDOJb7P3Aq-Oke" /><path d="M610.559 98.843c4.216 3.475 12.866 14.246 6.958 19.856-9.455 8.978-22.417-2.984-26.795-9.729 0 0 12.708 10.902 21.552 3.912 6.403-5.06-1.715-14.039-1.715-14.039zm-17.973.91c-10.758-4.862.231-16.661 9.042-9.931 2.916-16.683 18.03-5.754 9.967 1.106-5.961 4.505-12.288 7.484-19.009 8.825z" fill="#FE5236" id="dV2FBfAZPnJ6e_09In75z" /><path d="M605.633 94.77c9.785 6.385 10.589 14.269 6.642 18.112-4.586 4.466-16.305 3.854-29.879-12.103 8.056.427 15.849-1.205 23.237-6.009z" fill="#FFFFFF" id="zF2eNj-CouDk1jodIGaM" /><path d="M605.59 116.775c-.235 0-.472-.005-.711-.017-4.224-.198-12.91-2.411-23.626-15.008a1.5 1.5 0 1 1 2.286-1.944c9.981 11.733 17.743 13.78 21.481 13.955 2.583.119 4.79-.573 6.208-1.955 1.31-1.275 1.924-3.081 1.729-5.083-.355-3.653-3.324-7.553-8.144-10.698a1.5 1.5 0 1 1 1.64-2.513c5.669 3.7 9.04 8.288 9.49 12.92.285 2.927-.646 5.599-2.622 7.523-1.879 1.831-4.604 2.82-7.731 2.82z" fill="#003029" id="EfZqDx8JtSXO4IG6yG-Tr" /><path d="M584.562 102.376c-.779 0-1.548-.033-2.303-.103-.825-.076-1.432-.806-1.356-1.631s.805-1.439 1.631-1.356c10.362.957 23.427-5.732 28.118-9.524a1.5 1.5 0 1 1 1.885 2.333c-5.403 4.367-17.584 10.281-27.975 10.281zm-71.088-17.312a1.5 1.5 0 0 1-1.31-.768c-5.516-9.854-8.764-20.076-9.652-30.378a1.501 1.501 0 0 1 1.365-1.624c.83-.065 1.552.54 1.623 1.366.816 9.463 3.718 18.871 8.628 27.982l17.17-7.473a1.5 1.5 0 1 1 1.197 2.751l-18.425 8.019a1.476 1.476 0 0 1-.596.125z" fill="#003029" id="DfYc9RLWEHFN-C-QlvV" /></g></g><g transform="translate(1193.0 310.0) rotate(0.0 183.0 196.0) translate(0.0 0.0) scale(1.0014995129319308 1.0001683956992757)" id="sgRw4tVf5ji3-2m3HyvD"><g clip-path="url(#clipPath_5yiyQY7P)" transform="matrix(1 0 0 1 0 0)" id="HJCUKG0QW47lOkYUWTiRJ"><path d="M365.452 278.06 81.718 391.934 0 90.005l18.403-.114 15.581-13.525L224.261 0z" fill="#FE5236" id="JQYd4DD9qiE2cXiNxnksz" /><g fill="#003029" id="k6zCboGAD1Mt-RKgZSR"><path d="M81.161 313.029a1.501 1.501 0 0 1-1.443-1.092l-12.06-42.691a1.5 1.5 0 0 1 2.887-.817l12.06 42.691a1.5 1.5 0 0 1-1.444 1.909zm-20.148-71.323a1.501 1.501 0 0 1-1.443-1.092L27.039 125.456a1.5 1.5 0 0 1 2.887-.817l32.531 115.158a1.5 1.5 0 0 1-1.444 1.909zm51.902 123.842c-.374 0-.748-.139-1.039-.418l-22.549-21.656-1.906 19.75a1.495 1.495 0 0 1-1.637 1.349 1.5 1.5 0 0 1-1.349-1.638l2.204-22.833a1.5 1.5 0 0 1 2.532-.938l24.783 23.802a1.5 1.5 0 0 1-1.039 2.582zm11.283 10.837a1.5 1.5 0 0 1-1.435-1.066L32.549 76.8a1.5 1.5 0 1 1 2.872-.867l90.214 298.519a1.499 1.499 0 0 1-1.437 1.933z" fill="#003029" id="bGw1F9ONiFzN-JXbvOIXo" /></g></g></g><g transform="translate(1253.0 252.0) rotate(-95.76418495308545 210.5 203.5) scale(1.0093575355372972 1.005198878721644)" id="O4qmD542xzGmZJQGeoe3b"><g clip-path="url(#clipPath_5FZkmqYW)" transform="matrix(1 0 0 1 0 0)" id="MkP8Nqul-LGywayP1zu1H"><path d="M193.767 404.895.49 168.006 264.333 0l5.595 17.532 17.554 10.842 129.615 158.861z" fill="#50B9AD" id="FdL1pf7iEQ202eBoi964c" /><g fill="#003029" id="UmdDSDT0vPr32bHzFuBSG"><path d="M77.076 145.007a1.5 1.5 0 0 1-.821-2.757L212.07 53.654a1.5 1.5 0 1 1 1.639 2.513L77.894 144.763a1.493 1.493 0 0 1-.818.244zM244.019 36.011a1.501 1.501 0 0 1-.824-2.755l25.91-16.979a1.501 1.501 0 0 1 1.645 2.509l-25.91 16.979a1.488 1.488 0 0 1-.821.246zM43.611 176.525a1.5 1.5 0 0 1-1.341-2.17l6.746-13.53-47.208 9.888a1.5 1.5 0 0 1-.615-2.937l50.24-10.522a1.5 1.5 0 0 1 1.65 2.138l-8.129 16.303c-.262.525-.793.83-1.343.83zm-14.182 28.448a1.499 1.499 0 0 1-.844-2.741L286.64 27.133a1.5 1.5 0 0 1 1.684 2.482L30.27 204.714a1.494 1.494 0 0 1-.841.259z" fill="#003029" id="R_JcfdloRsYPE-TIFun2D" /></g></g></g><g transform="translate(27.0 516.0) rotate(99.58146386239461 183.0 196.0) translate(0.0 0.0) scale(1.0014995129319308 1.0001683956992757)" id="dwH6YjFUS_o79Bps062E4"><g clip-path="url(#clipPath_0lCqk6JG)" transform="matrix(1 0 0 1 0 0)" id="B_atNlBuwFWMYlPxXZ2IM"><path d="M365.452 278.06 81.718 391.934 0 90.005l18.403-.114 15.581-13.525L224.261 0z" fill="#FE5236" id="W_mDRUJJVvCCODXMW2anC" /><g fill="#003029" id="YvV5wX30oenEfK_ik1tKo"><path d="M81.161 313.029a1.501 1.501 0 0 1-1.443-1.092l-12.06-42.691a1.5 1.5 0 0 1 2.887-.817l12.06 42.691a1.5 1.5 0 0 1-1.444 1.909zm-20.148-71.323a1.501 1.501 0 0 1-1.443-1.092L27.039 125.456a1.5 1.5 0 0 1 2.887-.817l32.531 115.158a1.5 1.5 0 0 1-1.444 1.909zm51.902 123.842c-.374 0-.748-.139-1.039-.418l-22.549-21.656-1.906 19.75a1.495 1.495 0 0 1-1.637 1.349 1.5 1.5 0 0 1-1.349-1.638l2.204-22.833a1.5 1.5 0 0 1 2.532-.938l24.783 23.802a1.5 1.5 0 0 1-1.039 2.582zm11.283 10.837a1.5 1.5 0 0 1-1.435-1.066L32.549 76.8a1.5 1.5 0 1 1 2.872-.867l90.214 298.519a1.499 1.499 0 0 1-1.437 1.933z" fill="#003029" id="qkr8xrYMeXvkYPIzN_XuQ" /></g></g></g><g transform="translate(1309.0 259.0) rotate(0.0 45.5 43.0) translate(0.0 0.0) scale(1.0059917309690685 1.0049898916714386)" id="WGdirc30jLAimYTlez9u"><g clip-path="url(#clipPath_F_UK6z2B)" transform="matrix(1 0 0 1 0 0)" id="etubAF4H_lbsa4s2AvmD_"><g fill="#003029" id="uPngs7hezb8P9lVe0h5uU"><path d="M58.334 51.275c-.34 0-.682-.115-.963-.351L6.282 8.103a1.502 1.502 0 0 1-.186-2.114 1.504 1.504 0 0 1 2.114-.185l51.088 42.821a1.5 1.5 0 0 1-.964 2.65zm5.348 34.298a1.5 1.5 0 0 1-1.139-.523L3.536 16.3a1.5 1.5 0 1 1 2.276-1.953l59.008 68.75a1.5 1.5 0 0 1-1.138 2.476zm-19.914 0c-.481 0-.953-.23-1.243-.658L.258 22.565a1.5 1.5 0 1 1 2.483-1.684l42.267 62.351a1.5 1.5 0 0 1-1.24 2.341zm45.189-42.127a1.5 1.5 0 0 1-.67-.158L7.486 2.842A1.5 1.5 0 0 1 8.829.158L89.63 40.604a1.5 1.5 0 0 1-.673 2.842z" fill="#003029" id="Xn9avVgJgoHP1sE4DoxXr" /></g></g></g><g transform="translate(1199.0 252.0) rotate(0.0 70.0 64.5) scale(1.0071652614313258 0.9956392544282793)" id="FMErkWAZp-HPC7T0zJin"><g clip-path="url(#clipPath_WY4oV2hy)" transform="matrix(1 0 0 1 0 0)" id="Rtka1XKPrajyH5QQ6YA2R"><g fill="#003029" id="Ob60s8BQqU9DLJdDl6TvH"><path d="M88.084 129.565c-.479 0-.949-.229-1.24-.653L.262 2.347A1.5 1.5 0 1 1 2.738.654l86.583 126.564a1.5 1.5 0 0 1-1.237 2.347z" fill="#003029" id="Q39kdmRMMk-3guJ4gC_6y" /><path d="M47.597 127.58a1.5 1.5 0 0 1-1.407-.979L.093 2.021A1.5 1.5 0 1 1 2.906.98l46.097 124.58a1.5 1.5 0 0 1-1.406 2.02z" fill="#003029" id="mDHwg9w70xxFHnVTh5WN3" /><path d="M137.504 116.299a1.49 1.49 0 0 1-.959-.348L.54 2.653A1.5 1.5 0 1 1 2.461.349l136.004 113.299a1.5 1.5 0 0 1-.961 2.651z" fill="#003029" id="FmDM7fEws3xXaC5CNyBjT" /><path d="M107.978 119.187c-.406 0-.811-.164-1.106-.486L.394 2.514A1.5 1.5 0 1 1 2.606.487l106.478 116.187a1.5 1.5 0 0 1-1.106 2.513z" fill="#003029" id="wr0BAT8qN-VyCs3dOqAIT" /></g></g></g><g transform="translate(354.0 594.0) rotate(0.0 90.5 88.0) scale(1.0088117757874027 1.0087462888453294)" id="rf_6vPGui8pvFNTK1b9_b"><g clip-path="url(#clipPath_U0w53phx)" transform="matrix(1 0 0 1 0 0)" id="dBjW6o9Ld8xx-4fLbqD2g"><g fill="#003029" id="WBs_alD5sOMHMdWgKPkTE"><path d="M80.446 174.474a1.499 1.499 0 0 1-1.029-2.591c11.057-10.432 23.861-22.743 34.983-34.969a1.501 1.501 0 0 1 2.219 2.019c-11.19 12.299-24.045 24.661-35.143 35.131-.29.274-.66.41-1.03.41zm.001-23.176a1.5 1.5 0 0 1-.993-2.625l22.358-19.73a1.5 1.5 0 1 1 1.985 2.25l-22.358 19.73a1.5 1.5 0 0 1-.992.375zm-62.212-48.865a1.5 1.5 0 0 1-1.111-2.507c.223-.246 22.653-24.913 53.462-49.248 28.531-22.536 70.313-49.4 107.333-49.4a1.5 1.5 0 0 1 0 3c-69.364 0-157.687 96.686-158.571 97.662a1.497 1.497 0 0 1-1.113.493z" fill="#003029" id="kGDuHVliB4bER9TOz1i" /><path d="M1.502 55.784a1.499 1.499 0 0 1-.807-2.765c12.942-8.237 46.246-23.57 82.477-35.76 54.617-18.375 81.843-18.814 95.065-15.946a1.5 1.5 0 1 1-.636 2.931C135.489-4.889 28.397 38.94 2.306 55.549c-.25.158-.529.235-.804.235z" fill="#003029" id="Jj6kqXOrq8nmO0IAaoNyx" /><path d="M14.743 72.013a1.5 1.5 0 0 1-.983-2.634C55.398 33.293 130.05-2.996 178.052 1.284a1.502 1.502 0 0 1 1.361 1.628c-.074.824-.807 1.421-1.627 1.36C141.022.987 68.608 25.816 15.724 71.647a1.49 1.49 0 0 1-.981.366z" fill="#003029" id="OfMBXyYiSZuxzfw0Rw08" /><path d="M6.706 29.392a1.5 1.5 0 0 1-.511-2.91c54.156-19.59 116.78-28.773 171.82-25.201a1.501 1.501 0 0 1 1.4 1.595 1.509 1.509 0 0 1-1.594 1.399C123.18.72 60.998 9.848 7.217 29.302c-.169.062-.341.09-.511.09z" fill="#003029" id="VdNqx4HZ2FBDf2SK0JmC" /></g></g></g><g transform="translate(64.0 617.0) rotate(0.0 209.0 202.5) scale(1.0021649640251549 1.0002593264920536)" id="nskVPq5ctqJTc48LG3FZ"><g clip-path="url(#clipPath_i8BYZhLu)" transform="matrix(1 0 0 1 0 0)" id="R5rhII03PaEgHHNT76CKh"><path d="M193.767 404.895.49 168.006 264.333 0l5.595 17.532 17.554 10.842 129.615 158.861z" fill="#25968A" id="xNO6L5JGey9PWq9zMd4tv" /><g fill="#003029" id="AcaiTY3oalHjj8t9S2aHH"><path d="M77.076 145.007a1.5 1.5 0 0 1-.821-2.757L212.07 53.654a1.5 1.5 0 1 1 1.639 2.513L77.894 144.763a1.493 1.493 0 0 1-.818.244zM244.019 36.011a1.501 1.501 0 0 1-.824-2.755l25.91-16.979a1.501 1.501 0 0 1 1.645 2.509l-25.91 16.979a1.488 1.488 0 0 1-.821.246zM43.611 176.525a1.5 1.5 0 0 1-1.341-2.17l6.746-13.53-47.208 9.888a1.5 1.5 0 0 1-.615-2.937l50.24-10.522a1.5 1.5 0 0 1 1.65 2.138l-8.129 16.303c-.262.525-.793.83-1.343.83zm-14.182 28.448a1.499 1.499 0 0 1-.844-2.741L286.64 27.133a1.5 1.5 0 0 1 1.684 2.482L30.27 204.714a1.494 1.494 0 0 1-.841.259z" fill="#003029" id="FzOUALW4lUDpbpM8uO2H0" /></g></g></g></g></g></svg>