<svg xmlns="http://www.w3.org/2000/svg" fill="none" viewBox="0 0 2000 1600" width="2000" height="1600"><defs><clipPath id="assetClipPath_WuXn9utu"><path d="m0 0 h 456.961 v 466.849 h -456.961 v -466.849 z" id="path_XLKW8yF0" fill="#ffffff" /></clipPath><clipPath id="assetClipPath_vqrQVGEs"><path d="m0 0 h 456.961 v 466.849 h -456.961 v -466.849 z" id="path_wZYWYWHk" fill="#ffffff" /></clipPath><clipPath id="assetClipPath_uwui5tjv"><path d="m0 0 h 524.2 v 493.828 h -524.2 v -493.828 z" id="path_hRs47tuy" fill="#ffffff" /></clipPath><clipPath id="assetClipPath_TlEdswgL"><path d="m0 0 h 524.2 v 493.828 h -524.2 v -493.828 z" id="path_hYMInVdX" fill="#ffffff" /></clipPath><clipPath id="assetClipPath_O6bNrYjm"><path d="m0 0 h 832.427 v 655.862 h -832.427 v -655.862 z" id="path_Dxmvk0_r" fill="#ffffff" /></clipPath><clipPath id="assetClipPath_fCeHUfQ7"><path d="m0 0 h 695.396 v 562.399 h -695.396 v -562.399 z" id="path_yR3CSR6P" fill="#ffffff" /></clipPath><clipPath id="assetClipPath_vTmaLPLx"><path d="m0 0 h 635 v 426.6 h -635 v -426.6 z" id="path_JIPA7G33" fill="#ffffff" /></clipPath><clipPath id="assetClipPath_fNd515gO"><path d="m0 0 h 138.802 v 28.802 h -138.802 v -28.802 z" id="path_LErAV4vU" fill="#ffffff" /></clipPath></defs><g transform="translate(1441 639)" data-asset-index="0"><g clip-path="url(#assetClipPath_WuXn9utu)" transform="scale(1.0613597221644735 1.0613597221644735)" data-asset-index="0"><path d="m168.55 466.849c-.102 0-.206-.01-.31-.032-.696-.146-1.194-.762-1.191-1.473l.62-168.025-162.298 43.494c-.688.184-1.409-.14-1.729-.775-.319-.636-.148-1.408.409-1.85l131.754-104.277-135.196-99.773c-.573-.422-.769-1.189-.472-1.835.298-.646 1.01-.994 1.701-.833l163.674 37.994-6.287-167.908c-.027-.711.45-1.343 1.141-1.513.69-.17 1.406.168 1.712.811l72.344 151.654 127.355-109.606c.539-.464 1.331-.485 1.894-.051.564.434.745 1.204.434 1.844l-73.462 151.116 165.098 31.232c.699.132 1.209.737 1.221 1.448s-.477 1.333-1.171 1.489l-163.95 36.784 78.519 148.552c.333.629.177 1.405-.371 1.858-.549.453-1.34.458-1.895.013l-130.98-105.247-67.187 154.009c-.242.555-.788.9-1.374.9zm.627-172.987c.328 0 .65.107.915.312.37.285.586.727.585 1.194l-.601 162.73 65.07-149.156c.187-.428.563-.745 1.017-.857.453-.112.934-.006 1.298.287l126.854 101.931-76.045-143.871c-.218-.413-.232-.904-.036-1.329.196-.424.578-.733 1.034-.836l158.784-35.625-159.896-30.248c-.459-.087-.852-.383-1.062-.8-.21-.418-.213-.909-.009-1.329l71.148-146.355-123.342 106.152c-.354.305-.83.427-1.288.331-.457-.096-.844-.4-1.045-.822l-70.064-146.876 6.091 162.618c.017.467-.184.915-.544 1.213-.361.298-.838.41-1.294.304l-158.518-36.796 130.937 96.629c.376.277.601.714.609 1.182.008.467-.202.911-.569 1.201l-127.602 100.991 157.185-42.124c.128-.034.258-.051.388-.051z" fill="#5FB3ED" id="oO5VglEWqmjzVb2Pn_d0" /></g></g><g transform="translate(578 58)" data-asset-index="1"><g clip-path="url(#assetClipPath_vqrQVGEs)" transform="scale(1.0613597221644735 1.0613597221644735)" data-asset-index="1"><path d="m168.55 466.849c-.102 0-.206-.01-.31-.032-.696-.146-1.194-.762-1.191-1.473l.62-168.025-162.298 43.494c-.688.184-1.409-.14-1.729-.775-.319-.636-.148-1.408.409-1.85l131.754-104.277-135.196-99.773c-.573-.422-.769-1.189-.472-1.835.298-.646 1.01-.994 1.701-.833l163.674 37.994-6.287-167.908c-.027-.711.45-1.343 1.141-1.513.69-.17 1.406.168 1.712.811l72.344 151.654 127.355-109.606c.539-.464 1.331-.485 1.894-.051.564.434.745 1.204.434 1.844l-73.462 151.116 165.098 31.232c.699.132 1.209.737 1.221 1.448s-.477 1.333-1.171 1.489l-163.95 36.784 78.519 148.552c.333.629.177 1.405-.371 1.858-.549.453-1.34.458-1.895.013l-130.98-105.247-67.187 154.009c-.242.555-.788.9-1.374.9zm.627-172.987c.328 0 .65.107.915.312.37.285.586.727.585 1.194l-.601 162.73 65.07-149.156c.187-.428.563-.745 1.017-.857.453-.112.934-.006 1.298.287l126.854 101.931-76.045-143.871c-.218-.413-.232-.904-.036-1.329.196-.424.578-.733 1.034-.836l158.784-35.625-159.896-30.248c-.459-.087-.852-.383-1.062-.8-.21-.418-.213-.909-.009-1.329l71.148-146.355-123.342 106.152c-.354.305-.83.427-1.288.331-.457-.096-.844-.4-1.045-.822l-70.064-146.876 6.091 162.618c.017.467-.184.915-.544 1.213-.361.298-.838.41-1.294.304l-158.518-36.796 130.937 96.629c.376.277.601.714.609 1.182.008.467-.202.911-.569 1.201l-127.602 100.991 157.185-42.124c.128-.034.258-.051.388-.051z" fill="#5FB3ED" id="DLDXxGv_wrtmlma4Tpej" /></g></g><g transform="translate(153 288)" data-asset-index="2"><g clip-path="url(#assetClipPath_uwui5tjv)" transform="scale(1.192293017932087 1.192293017932087)" data-asset-index="2"><rect fill="#FFFFFF" height="490.828" rx="20.193" width="521.2" x="1.5" y="1.5" id="Zbr0lgmf1tksfZvrAE6L" /><g fill="#25242E" id="c0-TssYrOhbolyIqOIt_"><path d="m522.7 46.339h-521.2c-.828 0-1.5-.672-1.5-1.5s.672-1.5 1.5-1.5h521.2c.828 0 1.5.672 1.5 1.5s-.672 1.5-1.5 1.5z" fill="#25242E" id="Uo9BmrYQI5T4MjvG1qXxH" /><path d="m502.508 493.828h-480.815c-11.962 0-21.693-9.731-21.693-21.692v-450.444c0-11.961 9.731-21.692 21.693-21.692h480.815c11.961 0 21.693 9.731 21.693 21.692v450.444c0 11.961-9.731 21.692-21.693 21.692zm-480.815-490.828c-10.308 0-18.693 8.386-18.693 18.692v450.444c0 10.307 8.385 18.692 18.693 18.692h480.815c10.307 0 18.693-8.386 18.693-18.692v-450.444c0-10.307-8.385-18.692-18.693-18.692z" fill="#25242E" id="Ja98vEL0f1V8w_DtcpA5H" /><path d="m40.83 35.902c-.377 0-.755-.142-1.047-.426l-19.915-19.404c-.593-.578-.606-1.527-.028-2.121.579-.594 1.528-.605 2.121-.027l19.915 19.404c.593.578.606 1.527.028 2.121-.294.302-.684.453-1.074.453z" fill="#25242E" id="qGNzM3O02lzbbaC0f4VRa" /><path d="m20.915 35.902c-.39 0-.78-.151-1.074-.453-.578-.594-.566-1.543.028-2.121l19.914-19.404c.594-.578 1.543-.566 2.121.027.578.594.566 1.543-.028 2.121l-19.915 19.404c-.292.284-.669.426-1.047.426z" fill="#25242E" id="VaI8vS_roS5iHCGQwN6FD" /></g></g></g><g transform="translate(1703 889) scale(-1 1)" data-asset-index="3"><g clip-path="url(#assetClipPath_TlEdswgL)" transform="scale(1.1942006867607782 1.1942006867607782)" data-asset-index="3"><rect fill="#FFFFFF" height="490.828" rx="20.193" width="521.2" x="1.5" y="1.5" id="DtPBtM_2S4_BMt7MMUyHm" /><g fill="#25242E" id="sgk432vLGYxvVOO4bBZgq"><path d="m522.7 46.339h-521.2c-.828 0-1.5-.672-1.5-1.5s.672-1.5 1.5-1.5h521.2c.828 0 1.5.672 1.5 1.5s-.672 1.5-1.5 1.5z" fill="#25242E" id="e2sdUnNZNxoMTFMLk5gLr" /><path d="m502.508 493.828h-480.815c-11.962 0-21.693-9.731-21.693-21.692v-450.444c0-11.961 9.731-21.692 21.693-21.692h480.815c11.961 0 21.693 9.731 21.693 21.692v450.444c0 11.961-9.731 21.692-21.693 21.692zm-480.815-490.828c-10.308 0-18.693 8.386-18.693 18.692v450.444c0 10.307 8.385 18.692 18.693 18.692h480.815c10.307 0 18.693-8.386 18.693-18.692v-450.444c0-10.307-8.385-18.692-18.693-18.692z" fill="#25242E" id="Syb0mPmYy-UpZ5-itgINZ" /><path d="m40.83 35.902c-.377 0-.755-.142-1.047-.426l-19.915-19.404c-.593-.578-.606-1.527-.028-2.121.579-.594 1.528-.605 2.121-.027l19.915 19.404c.593.578.606 1.527.028 2.121-.294.302-.684.453-1.074.453z" fill="#25242E" id="gT1eicjRmnL6vRQueuh5" /><path d="m20.915 35.902c-.39 0-.78-.151-1.074-.453-.578-.594-.566-1.543.028-2.121l19.914-19.404c.594-.578 1.543-.566 2.121.027.578.594.566 1.543-.028 2.121l-19.915 19.404c-.292.284-.669.426-1.047.426z" fill="#25242E" id="eb5UavIE85K42bu0nh0Rq" /></g></g></g><g transform="translate(1881 789) scale(-1 1)" data-asset-index="4"><g clip-path="url(#assetClipPath_O6bNrYjm)" transform="scale(1.195300008289015 1.195300008289015)" data-asset-index="4"><path d="m796.674 323.483c-1.858-49.018-3.648-139.389-3.648-139.389-15.296-57.241-62.596-76.344-101.153-42.174-9.808 8.692-26.132 24.204-25.608 53.539.285 15.952 1.304 51.889 1.304 51.889l129.104 76.134z" fill="#DE5D4A" id="bebN_w32v0AOta2JJnrM" /><path d="m691.874 141.921c17.87-17.274 45.003-41.572 65.789-52.266s35.258 12.039 16.781 31.816c-18.476 19.776-36.8 36.201-39.287 38.402-13.973 12.372-63.918 1.994-43.283-17.952z" fill="#DE5D4A" id="z-Drjet21mrkrSsgQnIeY" /><path d="m722.069 202.791c-.517 0-1.02-.267-1.298-.747-.416-.716-.173-1.634.543-2.051 6.224-3.617 10.882-10.381 13.116-19.045 2.268-8.796 1.405-17.027-.559-20.305-.371-.62-.248-1.415.292-1.894.803-.711 19.895-17.656 39.186-38.303.565-.605 1.515-.637 2.12-.072.605.566.638 1.515.072 2.12-17.305 18.523-34.457 34.085-38.515 37.722 2.224 4.89 2.381 13.443.309 21.481-2.436 9.448-7.59 16.867-14.513 20.89-.237.138-.496.203-.752.203z" fill="#630000" id="qR_wikdpu3dL9mSg72ddT" /><path d="m667.57 247.349 1.675 115.035-74.378-55.949c-74.86-23.595-134.581 69.268-98.746 100.194 34.191 28.587 90.302 70.366 169.162 114.819 46.599 26.268 121.934 19.119 140.187-61.444 6.672-29.45 26.949-39.33 26.957-61.722.008-23.554-31.233-27.476-27.164-45.064 7.277-31.456 10.596-42.945 10.596-42.945l-148.29-62.923z" fill="#FF7964" id="U21Gewq2m1rbj_-7GUgF" /><path d="m606.239 314.989-11.189-8.417-75.193 102.635-7.831 10.688 1.95 1.429c.024-.045.05-.094.074-.139 1.206.952 2.435 1.916 3.678 2.888l5.591 4.097z" fill="#FFD7BC" id="OQKCumm22QLpM7FNxj7Hc" /><path d="m660.884 356.095-11.188-8.416-82.521 112.638c3.763 2.597 7.62 5.226 11.577 7.886z" fill="#FFD7BC" id="I3DoM1h9WTRfKUNmV_t-Y" /><path d="m672.219 421.434-5.656-10.73 3.211-1.693-3.793-2 3.264-14.105 1.593.84-2.371-7.348-36.089 115.889c4.054 2.438 8.178 4.888 12.375 7.35l27.467-88.202z" fill="#FFD7BC" id="M89Nu71sphSkbsZ_ARDUO" /><path d="m669.774 409.011-3.211 1.693 5.656 10.73 59.378 112.645c4.778-.695 9.508-1.753 14.134-3.209l-59.722-113.299-16.235-8.561z" fill="#FFD7BC" id="Lq68Czu-QNAk1z5_psPCY" /><path d="m665.981 407.01 3.793 2 16.235 8.561 114.106 60.17c1.64-4.246 3.088-8.76 4.33-13.543l-133.607-70.454-1.593-.84-3.264 14.105z" fill="#FFD7BC" id="rUoc4PtZpE5hef9DYVc73" /><path d="m668.609 318.732.23 15.802 159.431 80.57c2.08-4.222 3.557-8.64 4.004-13.663z" fill="#FFD7BC" id="j7QAc6sGm3aO5zomvL4ex" /><path d="m669.245 408.939c-.828 0-1.5-.672-1.5-1.5v-69.585c0-.828.672-1.5 1.5-1.5s1.5.672 1.5 1.5v69.585c0 .828-.672 1.5-1.5 1.5z" fill="#630000" id="yHrPxvIjmhZE2_ApmTKVy" /><path d="m776.025 164.064c42.86-5.049 47.09-19.711 46.139-29.303-1.961-19.789-32.04-20.511-44.954-18.363-20.468 3.404-25.915 15.678-24.379 22.656 2.352 10.686 12.927 19.313 40.315 15.76l-17.122 9.25z" fill="#DE5D4A" id="qZCXFVLlJyyIvPTEYjddG" /><path d="m781.651 157.115c-22.652.001-28.735-10.7-30.284-17.739-.834-3.791.191-8.188 2.813-12.064 2.991-4.423 9.373-10.163 22.785-12.393 5.345-.889 14.069-1.352 22.521.017.818.132 1.373.903 1.241 1.72-.132.818-.903 1.374-1.72 1.241-8.094-1.311-16.439-.869-21.55-.019-12.362 2.056-18.13 7.179-20.792 11.115-2.131 3.151-3.017 6.792-2.368 9.739 2.745 12.472 16.112 17.519 38.657 14.594.821-.105 1.574.473 1.68 1.295s-.473 1.574-1.295 1.681c-4.317.56-8.201.814-11.689.814z" fill="#630000" id="yfKDcxjI2PX2glWx4P8ej" /><path d="m778.9 195.83c42.86-5.049 47.09-19.711 46.139-29.303-1.961-19.789-32.04-20.511-44.954-18.363-20.468 3.404-25.915 15.678-24.379 22.656 2.352 10.686 12.927 19.313 40.315 15.76l-17.122 9.25z" fill="#DE5D4A" id="HpYGc-WxBgDdpz4hXDdEX" /><path d="m784.526 188.881c-22.652.001-28.735-10.7-30.284-17.739-.834-3.79.191-8.188 2.813-12.064 2.991-4.423 9.372-10.163 22.785-12.394 9.187-1.528 29.398-1.993 40.139 7.182.63.538.704 1.485.166 2.115s-1.484.704-2.115.166c-9.182-7.845-27.575-8.188-37.698-6.504-12.362 2.056-18.13 7.179-20.792 11.115-2.131 3.151-3.017 6.792-2.368 9.739 2.745 12.473 16.112 17.519 38.657 14.595.819-.105 1.574.473 1.68 1.295s-.473 1.574-1.295 1.681c-4.317.56-8.201.814-11.689.814z" fill="#630000" id="rrLFxpVwC_QShUoR4ZYSa" /><path d="m778.169 228.117c42.86-5.049 47.09-19.711 46.139-29.303-1.961-19.789-32.04-20.511-44.954-18.363-20.468 3.404-25.915 15.678-24.379 22.656 2.352 10.686 12.927 19.313 40.315 15.76l-17.122 9.25z" fill="#DE5D4A" id="j2GHLPj7FLUeendxgW8nU" /><path d="m783.795 221.168c-22.652.001-28.735-10.7-30.283-17.739-.834-3.79.191-8.188 2.813-12.064 2.991-4.423 9.372-10.163 22.785-12.394 8.906-1.482 34.065-2.439 43.415 10.741.479.676.32 1.612-.355 2.091-.676.479-1.612.32-2.091-.355-7.512-10.589-28.814-11.458-40.476-9.518-12.362 2.056-18.13 7.179-20.792 11.115-2.131 3.151-3.017 6.792-2.368 9.739 2.745 12.473 16.112 17.519 38.657 14.594.819-.106 1.574.473 1.68 1.295s-.473 1.574-1.295 1.681c-4.317.56-8.201.814-11.689.814z" fill="#630000" id="unyPXwNGEb765YABpa-q" /><path d="m777.707 258.238c42.86-5.049 47.09-19.635 46.139-29.227-1.961-19.789-32.04-20.511-44.954-18.363-20.468 3.404-25.915 15.678-24.379 22.656 2.352 10.686 12.927 19.313 40.315 15.76l-17.121 9.175z" fill="#DE5D4A" id="Q6DgATUTZ50qQOXVT8rQz" /><g fill="#630000" id="acv2WpAgSh-SAV6sDWyi5"><path d="m783.333 251.365c-22.652.001-28.735-10.7-30.284-17.739-.834-3.791.191-8.188 2.813-12.065 2.991-4.423 9.373-10.163 22.785-12.393 12.3-2.046 33.816-1.13 42.682 9.776.522.643.425 1.588-.218 2.11s-1.587.425-2.11-.218c-8.001-9.844-28.697-10.567-39.862-8.709-12.362 2.056-18.13 7.179-20.792 11.115-2.132 3.151-3.017 6.792-2.369 9.739 2.745 12.473 16.112 17.52 38.657 14.594.82-.106 1.574.473 1.68 1.295s-.473 1.574-1.295 1.681c-4.317.56-8.201.814-11.689.814z" fill="#630000" id="MPq2yx_TUVFCWrLaVD_x" /><circle cx="355.724" cy="55.014" r="26.276" fill="#630000" id="AKvJDyo8PHqvP2smV2Gtt" /><circle cx="359.311" cy="88.907" r="26.276" fill="#630000" id="ylYA35PeezB8DsOSlvoEu" /><circle cx="388.786" cy="108.024" r="26.276" fill="#630000" id="Q17qRGZZA0rH3-0iGzful" /><circle cx="380.967" cy="27.744" r="26.276" fill="#630000" id="DPu7rZkk_l0fX62ssqYc" /><circle cx="400.64" cy="70.431" r="26.276" fill="#630000" id="e_1kuVHsHwezlq7lvuRxj" /><circle cx="418.96" cy="26.277" r="26.276" fill="#630000" id="ooL0mSEriGgpWSBNpaJXX" /><circle cx="439.332" cy="55.026" r="26.276" fill="#630000" id="NaeRBpjLOoi_r67sUcLC" /><circle cx="444.681" cy="50.972" r="26.276" fill="#630000" id="y9gn8-LwZJah-alUd0Jm" /><circle cx="491.094" cy="45.653" r="26.276" fill="#630000" id="ulowsnkfxzwt8sh0zTU35" /><circle cx="406.346" cy="76.186" r="26.276" fill="#630000" id="F43OE-QC-z9vVA436t-kB" /><circle cx="382.382" cy="118.074" r="26.276" fill="#630000" id="eZy_m6EMv0QgCXpIQgzr5" /><circle cx="392.683" cy="161.38" r="26.276" fill="#630000" id="d3wj2ZabtTsI6G8XUvIwi" /><circle cx="426.066" cy="191.436" r="26.276" fill="#630000" id="VVFtQSFWho9S_MWGSfQnB" /><circle cx="474.843" cy="187.391" r="26.276" fill="#630000" id="xmiT3lt0hy8QnUWrLwFk" /><path d="m439.332 102.462-50.546 17.797 11.854 49.27 38.692 13.757z" fill="#630000" id="TNC5AYtPD3XinqtgZxZTn" /></g><path d="m545.931 90.541c-15.221-42.379-47.482-65.137-90.968-45.46-45.769 20.71-52.399 60.96-34.617 101.496-16.426-9.266-28.43 9.305-21.906 23.911 4.827 10.807 21.353 16.83 36.193 2.597 27.195 30.368 67.445 30.507 99.355 12.032 39.431-22.83 49.529-75.083 11.943-94.576z" fill="#DE5D4A" id="hlFK2UeMgVYCF15LZCGJQ" /><path d="m410.92 171.03c-.203 0-.409-.041-.607-.129-.758-.335-1.1-1.221-.764-1.979l6.277-14.172c.336-.758 1.222-1.1 1.979-.764.758.335 1.1 1.221.764 1.979l-6.277 14.172c-.248.56-.797.893-1.372.893z" fill="#630000" id="Gi_GD01fFeHyy_wDQ3qWX" /><path d="m420.403 166.798c-.197 0-.397-.039-.59-.121l-14.057-6.021c-.761-.326-1.115-1.208-.788-1.969.326-.761 1.207-1.114 1.969-.788l14.057 6.021c.761.326 1.115 1.208.788 1.969-.244.569-.798.91-1.38.91z" fill="#630000" id="V2um5l1unM1ut2DF6U9ZZ" /><path d="m506.557 140.322c-12.495-6.747.109-19.526 8.592-11.779 1.709-16.85 20.234-11.292 12.448 2.096 3.962.461 10.391 9.31 1.814 16.044-11.515 9.039-22.322.143-22.854-6.361z" fill="#FFA189" id="ZBdsd2i_zCKNFp2IeqT_P" /><path d="m498.564 142.676c-2.802 0-5.471-.334-7.889-1.038-.795-.232-1.253-1.064-1.021-1.859.231-.795 1.066-1.252 1.859-1.021 10.764 3.133 27.046-1.784 36.298-10.96.588-.583 1.538-.58 2.121.009s.58 1.538-.009 2.121c-7.888 7.825-20.601 12.749-31.36 12.749z" fill="#630000" id="kc9g5gFJlJ7uvhLp0Z9jO" /><path d="m518.383 49.39c-8.403-18.561-41.107-19.812-66.441-8.348-45.769 20.71-62.259 66.319-31.596 105.534 7.251 8.781 13.762 1.763 12.276-5.403-10.573-50.979 6.691-73.726 32.641-88.132 17.015-9.445 38.458-10.516 53.12-3.652z" fill="#630000" id="R53cW-Jh_36OU0KyC1arY" /><path d="m471.196 117.641c-.733 0-1.375-.538-1.483-1.286-1.365-9.437 2.791-20.629 15.14-22.901.815-.15 1.597.389 1.747 1.204s-.389 1.597-1.204 1.747c-10.455 1.924-13.919 11.191-12.714 19.521.118.82-.45 1.581-1.27 1.699-.073.011-.145.016-.217.016z" fill="#630000" id="IAl1dfKByauKxJpZWFaEm" /><path d="m488.101 104.945c2.882 7.088 2.709 13.854-.385 15.112s-7.938-3.468-10.82-10.557c-1.373-3.377-2.053-6.681-2.053-9.351 0-.449 6.908-4.53 7.369-4.128 2.145 1.87 4.312 5.043 5.89 8.925z" fill="#630000" id="T0EaGzf6gf1_tZQcd20qF" /><path d="m512.635 98.897c-.733 0-1.375-.538-1.483-1.286-1.365-9.437 2.791-20.629 15.141-22.901.814-.15 1.597.389 1.747 1.204s-.389 1.597-1.204 1.747c-10.455 1.924-13.919 11.191-12.714 19.521.118.82-.45 1.581-1.27 1.699-.073.01-.145.016-.217.016z" fill="#630000" id="ICj6BJFSILrHQzZMH2NV" /><path d="m529.54 86.201c2.882 7.088 2.709 13.854-.385 15.112s-7.938-3.468-10.82-10.557c-1.373-3.377-2.053-6.681-2.053-9.351 0-.449 6.908-4.53 7.369-4.128 2.145 1.87 4.312 5.043 5.89 8.925z" fill="#630000" id="Ddhm--UJtEgRQOTeva5pv" /><path d="m356.105 119.574c-.828 0-1.5-.672-1.5-1.5 0-15.327 12.453-27.803 27.81-27.776-2.524-4.259-3.846-9.082-3.846-14.112 0-15.316 12.46-27.776 27.776-27.776 3.618 0 7.225.717 10.563 2.088.253-15.099 12.615-27.302 27.772-27.302.828 0 1.5.672 1.5 1.5s-.672 1.5-1.5 1.5c-13.662 0-24.776 11.115-24.776 24.776 0 .543.023 1.116.072 1.802.039.542-.219 1.063-.673 1.362-.455.298-1.035.327-1.517.076-3.563-1.859-7.412-2.802-11.441-2.802-13.662 0-24.776 11.115-24.776 24.776 0 5.417 1.717 10.562 4.966 14.88.36.479.401 1.125.104 1.645s-.875.813-1.47.747c-.951-.107-1.889-.161-2.789-.161-13.662 0-24.776 11.115-24.776 24.776 0 .828-.672 1.5-1.5 1.5z" fill="#FFD7BC" id="vwnWNKSSfnyo8_ls6E8yu" /><path d="m345.963 204.527c-9.919 10.507-58.046 75.602-82.73 125.131l-50.068 85.971 250.697 85.418s44.764-67.035 52.42-84.397 7.656-110.298-3.886-157.406" fill="#FF7964" id="pVK9o1Raj8MCalrtMf" /><path d="m594.867 306.435c-37.056-26.719-63.587-43.374-98.953-61.582-29.127-14.996-75.817-30.846-110.84-39.142-37.627-8.913-88.349-14.31-114.231-11.094l37.803 145.108 187.133 63.202 99.087-96.492z" fill="#FF7964" id="kMkPoKi9crpxU0yySVS2G" /><path d="m490.046 460.912c-.331-.182-.675-.346-1.042-.476l-250.366-88.548-7.171 12.314 250.857 88.721c2.5-3.862 5.107-7.913 7.722-12.012z" fill="#FFD7BC" id="oLYn60QEFHK1YUBGR9FTz" /><path d="m519.857 409.208.076-.223c-31.966-10.904-104.875-36.957-163.458-57.89-14.536-5.194-28.164-10.063-40.025-14.294-15.301-5.457-27.136-17.388-32.473-32.736l-37.105-106.717c-4.675.558-9.41 1.139-14.213 1.749l38.095 109.565c6.735 19.374 21.677 34.436 40.992 41.325 11.858 4.229 25.484 9.098 40.018 14.291 57.657 20.602 129.176 46.158 162.024 57.401.063-.118.127-.239.189-.355l-1.95-1.429 7.831-10.688z" fill="#FFD7BC" id="R3JhMrSbg1dyXTcu3jtZn" /><path d="m370.697 206.186c-9.876 9.397 45.299 51.938 64.915 60.486 26.112 11.379 86.866 6.523 81.759-7.257-.759-2.048-5.518-11.889-10.908-20.373-5.562-8.756-20.851-24.895-45.379-36.926-23.94-11.742-51.481-11.19-58.408-10.21s-27.383 9.907-31.979 14.28z" fill="#FF7964" id="K7M5B4LWKKASxXt0jud4c" /><path d="m466.627 258.228c-8.416 0-18.377-1.76-28.444-6.147-16.545-7.21-29.663-18.744-33.418-29.384-1.543-4.373-1.421-8.481.354-11.88 5.349-10.245 29.512-10.747 51.708-1.074 22.238 9.691 38.471 28.063 34.059 38.545-1.298 3.083-4.298 5.638-8.677 7.391-3.952 1.582-9.343 2.549-15.583 2.549zm-60.178-46.716 1.33.694c-1.399 2.68-1.461 5.874-.184 9.493 3.492 9.892 15.969 20.739 31.788 27.632 16.738 7.294 33.011 7.045 41.713 3.563 3.617-1.448 6.047-3.443 7.026-5.769 3.298-7.835-10.46-25.029-32.492-34.631-22.022-9.597-43.805-8.035-47.851-.287l-1.33-.694z" fill="#630000" id="BH_1V27L6IF-Lq8qrkbS6" /><path d="m508.279 432.932c-.258 0-.52-.067-.759-.207-.714-.42-.952-1.339-.532-2.053 3.903-6.635 6.568-11.557 7.921-14.626 4.236-9.607 6.215-44.207 4.705-82.271-.033-.828.612-1.525 1.439-1.558.837-.034 1.526.612 1.558 1.439 1.551 39.087-.488 73.465-4.957 83.601-1.401 3.176-4.119 8.202-8.081 14.937-.28.475-.78.74-1.294.74z" fill="#630000" id="YnCe0nMppJCmfm0UuT_Ba" /><path d="m562.867 304.223c-.069 0-.138-.005-.208-.014-.821-.114-1.394-.871-1.28-1.692.951-6.865-.951-16.371-4.072-20.343-.512-.651-.399-1.594.253-2.106.651-.512 1.594-.399 2.106.253 3.603 4.585 5.748 14.938 4.685 22.608-.104.751-.747 1.294-1.484 1.294z" fill="#630000" id="fzzBJNBkVdbnbUFVKpY7" /><path d="m213.165 415.629c-91.404 44.936-85.616 129.308-70.66 160.684l354.575-.089-20.425-21.508-12.792-53.67-250.698-85.418z" fill="#FFD7BC" id="l6bQEmksLWDA5tiWL1pQ" /><path d="m142.505 577.814c-.579 0-1.106-.332-1.354-.855-7.369-15.459-13.009-44.715-4.651-76.286 6.806-25.711 25.517-61.569 76.003-86.39.357-.176.769-.202 1.146-.074l250.697 85.418c.488.166.856.571.975 1.072l12.699 53.277 20.147 21.215c.413.435.527 1.074.291 1.625s-.778.908-1.378.908l-354.575.089zm70.765-160.564c-49.05 24.31-67.249 59.177-73.871 84.19-7.998 30.211-2.891 58.164 4.06 73.373l350.128-.088-18.021-18.976c-.182-.192-.31-.428-.372-.685l-12.6-52.864-249.325-84.951z" fill="#630000" id="zutHOyx03pYqMo3mZP1Q" /><path d="m218.952 488.138-13.919-26.446-139.335 5.067 44.849 85.211c46.276-16.188 84.009-36.663 108.405-63.832z" fill="#DE5D4A" id="HnuhzfUWG6-xcYOOVdMu" /><path d="m205.033 461.692-54.435-103.424 140.956-27.252c72.309-30.531 26.14-139.579-20.711-136.399-56.486 6.15-124.376 15.289-198.188 34.491-85.501 22.242-83.156 94.457-55.571 158.944 9.377 21.922-11.304 50.669-4.383 69.561 8.426 22.999 37.447 15.971 39.106 27.716 6.529 46.205 8.344 61.673 8.344 61.673z" fill="#FF7964" id="EJcnri_jz_cXAji6qXPaR" /><path d="m177.047 207.167c-4.634.764-9.312 1.562-14.028 2.392l49.737 136.691 13.919-2.691z" fill="#FFD7BC" id="SltMwmOmQh9Tgpqagbod1" /><path d="m108.103 220.526c-4.58 1.029-9.187 2.094-13.821 3.198l43.986 106.975 11.149 4.521-4.612 11.376 6.487 15.778 1.207-.497-1.9-3.61 13.1-2.533-55.595-135.208z" fill="#FFD7BC" id="olzrl5xSNQhb_Gh64KHRk" /><path d="m168.634 392.535-149.589 74.917c4.401 4.211 9.917 6.429 15.172 8.059l140.938-70.585-6.522-12.391z" fill="#FFD7BC" id="QOyX0kGMHETu8SV5Lp2UM" /><path d="m126.618 341.082-109 48.366c1.687 4.602 2.143 9.479 1.864 14.489l125.826-55.832-.583-1.314-.568 1.402z" fill="#FFD7BC" id="rRIgXAHSEYR3dxetYkCNj" /><path d="m138.267 330.699-130.776-53.025c-1.911 4.259-3.426 8.685-4.581 13.249l123.707 50.16 17.539 7.111.568-1.402.079-.195 4.612-11.376-11.149-4.521z" fill="#FFD7BC" id="Sa7kDmhHVPnhveKYIRwAf" /><path d="m228.592 545.117s22.988 19.004 25.283 23.457 4.192 18.921 7.298 27.494c2.264 6.249 10.148 16.673 20.705 14.007 8.383-2.117 14.39-10.938 15.51-25.063.78-9.83.334-21.657-10.454-38.809-12.42-19.747-33.398-33.076-33.398-33.076l-24.944 31.991z" fill="#DE5D4A" id="Jk7dmJqVlnyQS73kXudZy" /><path d="m197.278 566.982s22.988 19.004 25.283 23.457 4.192 18.921 7.298 27.494c2.264 6.249 10.148 16.673 20.705 14.007 8.383-2.117 17.114-10.984 15.51-25.063-1.473-12.933-1.81-28.797-9.88-42.761-13.803-23.886-30.383-33.191-30.383-33.191l-28.534 36.059z" fill="#DE5D4A" id="wWH3EjvDxMojL5DT0WAK" /><path d="m154.17 597.422c-14.234-5.358-36.215-18.379-43.623-45.453l108.405-63.832 34.584 24.989c9.641 57.88-34.397 78.376-99.366 84.296z" fill="#DE5D4A" id="IQNSMmQkYj0By_N9-nRYf" /><path d="m265.661 612.002c-.828 0-1.5-.672-1.5-1.5 0-13.323-1.609-32.057-9.273-45.65-12.004-21.29-29.695-32.546-29.873-32.657-.702-.44-.914-1.366-.474-2.067.439-.702 1.364-.915 2.067-.475.75.469 18.498 11.742 30.894 33.726 7.984 14.16 9.66 33.442 9.66 47.124 0 .828-.672 1.5-1.5 1.5z" fill="#630000" id="TSAI5v8GGTol-kyskQqBE" /><path d="m143.397 589.697s20 19.967 21.77 24.371 2.276 18.221 4.446 26.584c1.581 6.096 8.094 16.629 18.29 15.051 8.096-1.253 14.545-9.042 16.855-22.268 1.608-9.204 1.896-20.233-6.419-37.538-11.321-23.561-34.128-34.688-34.128-34.688z" fill="#DE5D4A" id="Eem2_Usi13_tcD2enhC0R" /><path d="m170.676 579.37s22.988 19.004 25.283 23.457 4.192 18.921 7.298 27.494c2.264 6.249 10.148 16.673 20.705 14.007 8.383-2.117 14.39-10.938 15.51-25.063.78-9.83.159-22.741-9.075-41.154-12.366-24.66-34.509-32.889-34.509-32.889l-25.212 34.149z" fill="#DE5D4A" id="Us_wlqy0UG1fKYmQntc2p" /><path d="m236.489 633.869c-.196 0-.395-.038-.586-.12-.762-.324-1.118-1.205-.794-1.967 1.522-3.581 2.487-7.832 2.868-12.637.414-5.218.998-23.543-8.871-40.273-11.302-19.159-29.515-32.3-29.698-32.43-.674-.482-.83-1.418-.349-2.092s1.417-.831 2.092-.349c.767.547 18.904 13.624 30.539 33.348 10.316 17.487 9.709 36.595 9.278 42.034-.407 5.127-1.449 9.694-3.098 13.573-.243.571-.798.914-1.381.914z" fill="#630000" id="wJTS1WgR85M9FA_6mTq6G" /><path d="m203.774 639.38c-.086 0-.173-.007-.26-.023-.816-.143-1.362-.92-1.219-1.736 1.009-5.777 4.08-23.359-3.659-42.28-9.171-22.424-25.571-31.281-25.736-31.368-.732-.386-1.014-1.293-.628-2.026s1.291-1.015 2.023-.63c.71.373 17.51 9.398 27.117 32.888 8.066 19.722 4.883 37.944 3.837 43.932-.127.729-.76 1.242-1.476 1.242z" fill="#630000" id="R-QADYMIX4Sn7NjoIMe3c" /><path d="m304.038 330.461c-9.231-6.357-16.278-15.518-20.061-26.396l-37.105-106.717c-4.675.558-9.41 1.139-14.213 1.749l38.095 109.565c3.523 10.135 9.292 19.09 16.758 26.312 6.806 6.584 20.318-1.901 16.525-4.513z" fill="#FFD7BC" id="UjMsAYLQAa-hHHXmWCrx" /><path d="m299.818 244.128c-.748 0-1.395-.558-1.487-1.319-2.021-16.656-8.297-44.872-27.629-46.698-.825-.078-1.43-.81-1.352-1.635s.808-1.432 1.635-1.352c15.878 1.5 26.648 19.017 30.325 49.323.1.822-.486 1.57-1.308 1.67-.061.007-.122.011-.183.011z" fill="#630000" id="qJqtlfwYWnjiqKRnwg1zA" /><path d="m241.853 342.752c-.72 0-1.355-.519-1.478-1.253-.137-.817.415-1.59 1.232-1.727l56.802-9.51c.817-.137 1.59.415 1.727 1.232s-.415 1.59-1.232 1.727l-56.802 9.51c-.084.014-.167.021-.249.021z" fill="#630000" id="Cc1q7aOOG-zHIdIGBSYV" /><path d="m159.951 378.818c-.554 0-1.087-.308-1.348-.839l-21.359-43.51c-.365-.744-.058-1.642.686-2.008.743-.365 1.642-.058 2.007.686l21.359 43.51c.365.744.058 1.642-.686 2.008-.212.104-.438.154-.66.154z" fill="#630000" id="rts-XTDXBn0AjrnfQWBoy" /></g></g><g transform="translate(884 244) scale(-1 1)" data-asset-index="5"><g clip-path="url(#assetClipPath_fCeHUfQ7)" transform="scale(1.2007546779101406 1.2007546779101406)" data-asset-index="5"><path d="m29.049 422.897c14.294-19.162 142.874-173.656 142.874-173.656 58.669-52.141 127.24 48.61 107.182 91.484-28.1 40.752-81.523 104.106-137.715 167.352-61.788 69.544-173.615-3.037-112.341-85.18z" fill="#24968B" id="nSTnrINxW9qVLKeDcnszm" /><path d="m171.922 249.241c13.855-13.63 57.519-38.426 116.701-47.627 37.103-5.768 141.272-11.476 179.31-6.721 52.554 6.57 94.261 25.699 142.076 80.868l-120.383 66.395-195.75 4.044z" fill="#24968B" id="bEmUD0hjoeTzpVh6H_D3k" /><path d="m529.652 338.897 18.971 123.789s-272.468 46.696-298.883 46.696c0 0-13.328-165.45-15.1-174.05-16.145-78.393 186.35-44.262 186.35-44.262z" fill="#24968B" id="Stq4iLmyMc6KqC13RwNze" /><path d="m242.201 419.318c-.759 0-1.411-.575-1.49-1.346-2.195-21.31-3.91-42.001-5.163-57.109-1.103-13.302-1.899-22.914-2.376-25.227-.168-.811.354-1.605 1.166-1.772.808-.167 1.604.355 1.771 1.167.514 2.49 1.275 11.678 2.429 25.585 1.251 15.096 2.965 35.77 5.157 57.05.085.824-.515 1.561-1.339 1.646-.051.003-.103.006-.155.006z" fill="#630000" id="oLB-yP4TeRaunPdqnLZGU" /><path d="m460.202 543.426c8.049-8.8-25.172-48.19-57.359-48.804 0 0-27.385-.91-35.528-.403-11.595.721-29.027 4.708-30.425 19.124-1.17 12.069 13.187 16.955 26.422 21.77 19.478 7.085 60.457 9.409 92.876 8.458z" fill="#FFA78E" id="e6WlYFohI7ICRUQkDVp72" /><path d="m298.164 448.448c17.772-10.568 67.404-22.857 138.619-27.361 50.535 7.083 55.66 96.863 27.691 122.29-29.636 0-81.765 3.596-110.971-16.318-12.326-8.405-64.608-73.099-55.339-78.611z" fill="#FFA78E" id="fJaJqyHeLraSe0M6hYKW" /><path d="m322.885 484.274c14.331-12.901 10.892-45.609 0-44.054-31.851 4.548-58.428 32.662-65.409 43.911-24.407 39.332-13.672 65.385 1.002 66.189 20.118 1.102 25.521-25.585 35.835-40.65 10.14-14.81 28.572-25.396 28.572-25.396z" fill="#FFA78E" id="saadzxIaM7b-tCAmAEykf" /><path d="m304.534 463.533c-4.01 3.654-9.17 9.977-18.875 26.82-12.6 21.867-22.861 66.539 3.647 68.698 19.237 1.567 17.316-26.281 22.707-43.481 3.991-12.734 16.66-26.426 23.936-34.66 7.278-8.234-12.446-31.979-31.415-17.377z" fill="#FFA78E" id="YW8Is4mg3SwQ1oLOSFzH" /><path d="m277.333 554.12c-.436 0-.867-.188-1.163-.552-12.303-15.082.468-50.232 8.182-63.951 6.427-11.428 12.671-20.296 19.091-27.113.568-.604 1.517-.631 2.12-.064.604.568.632 1.517.063 2.12-6.25 6.637-12.354 15.313-18.659 26.526-8.237 14.65-19.179 47.46-8.473 60.585.523.642.428 1.587-.214 2.111-.278.228-.614.338-.947.338z" fill="#630000" id="o-oLv3rPx2o_oCjUYzMHr" /><path d="m368.312 488.25c2.842-13.303-15.064-35.717-35.927-20.417-6.3 4.62-13.001 14.2-20.683 27.426-17.432 30.012-19.31 63.524.528 66.819 21.4 3.554 23.146-23.224 28.507-41.402 5.155-17.477 27.575-32.426 27.575-32.426z" fill="#FFA78E" id="my4DWFSQ1hxr3e0FThGzX" /><path d="m304.481 559.492c-.396 0-.79-.155-1.084-.464-11.33-11.853-8.717-35.962 6.989-64.492 3.848-6.987 11.364-17.947 20.924-27.75.58-.594 1.531-.604 2.121-.027.594.578.605 1.528.027 2.121-9.36 9.599-16.863 20.599-20.443 27.102-14.817 26.915-17.672 50.278-7.45 60.973.573.599.552 1.548-.048 2.121-.29.278-.663.416-1.036.416z" fill="#630000" id="mg8Jl4mFxWRj9pTJRe" /><path d="m401.554 531.803c2.892-3.993-30.18-66.175-40.408-57.065-.88.784-16.393 13.414-26.041 38.543-14.794 38.531 3.057 47.496 10.209 48.574 15.331 2.313 20.585-14.034 26.984-35.382 6.737 7.096 20.333 9.394 29.256 5.33z" fill="#FFA78E" id="Sz9zB-iVNb0zroOiySes" /><path d="m367.722 542.239c-.171 0-.345-.03-.514-.091-.778-.284-1.18-1.145-.896-1.923 1.54-4.22 2.971-8.919 4.548-14.182.238-.794 1.076-1.244 1.867-1.006.794.238 1.244 1.074 1.006 1.867-1.591 5.308-3.035 10.052-4.603 14.349-.221.608-.796.986-1.408.986z" fill="#630000" id="xKMwL69rNmQS0WUGqM6k9" /><path d="m333.45 555.324c-.49 0-.972-.241-1.259-.683-4.136-6.368-7.231-18.804 1.511-41.891 5.862-15.483 15.259-29.384 26.458-39.143.624-.545 1.571-.479 2.116.146.544.625.479 1.572-.146 2.116-10.833 9.439-19.934 22.915-25.624 37.943-8.296 21.912-5.558 33.408-1.8 39.195.451.695.254 1.624-.44 2.075-.252.164-.536.242-.816.242z" fill="#630000" id="rL_0qfaLT9swo2wz-cLl4" /><path d="m438.734 421.087 84.449-7.616c-11.491-8.214-5.108-15.793 4.879-15.793l-77.071-106.607c-24.078-74.706 127.862-50.945 159.018-15.31 11.933 15.942 23.4 30.707 64.242 105.376 42.068 76.91 20.74 152.469-58.381 157.176-92.58 5.508-151.396 5.064-151.396 5.064 6.432-42.928 5.895-100.504-25.74-122.29z" fill="#24968B" id="Q8G6uBfcVS07MfhWpzPQ-" /><path d="m412.976 424.446c-.776 0-1.434-.599-1.494-1.386-.062-.826.557-1.547 1.382-1.609 28.554-2.174 90.857-7.739 106.547-9.146-4.328-4.177-4.15-7.693-3.546-9.579 1.074-3.35 4.64-5.701 9.402-6.36l-45.117-62.61c-.484-.672-.332-1.61.34-2.094.674-.484 1.61-.332 2.094.34l46.695 64.8c.329.457.375 1.059.118 1.561s-.771.816-1.335.816c-4.656 0-8.497 1.835-9.341 4.464-.795 2.48 1.149 5.618 5.334 8.609.511.365.74 1.008.575 1.614-.164.605-.688 1.044-1.312 1.101-.771.07-77.56 6.99-110.226 9.477-.038 0-.077.002-.116.002z" fill="#630000" id="Z3FWcgukNeeeJRT5hjUA3" /><path d="m544.803 402.197c-.089 0-.178-.008-.269-.024l-16.738-3.02c-.815-.147-1.356-.927-1.21-1.742.147-.815.927-1.356 1.743-1.21l16.738 3.02c.815.147 1.356.927 1.21 1.742-.131.726-.762 1.234-1.474 1.234z" fill="#630000" id="sIfx192ETCGhUcdaR93_F" /><path d="m542.119 427.091c-.277 0-.558-.077-.808-.237l-18.937-12.12c-.698-.447-.901-1.374-.455-2.072.447-.698 1.377-.9 2.072-.455l18.937 12.12c.698.447.901 1.374.455 2.072-.285.448-.77.692-1.264.692z" fill="#630000" id="AJshrzMRCxRiIosb5MBZJ" /><path d="m263.642 85.034-23.117 9.308c-4.723-29.721 4.963-51.511 36.541-61.252z" fill="#2A9C90" id="C6jjlYU2qR4HUWSszcyKo" /><path d="m269.875 111.292c-15.244-42.371-5.583-79.999 41.204-92.973 48.41-13.424 79.218 13.647 91.314 56.226 6.768-17.603 27.848-10.925 32.116 4.492 3.158 11.407-5.751 26.573-26.256 25.046-2.185 41.689-36.917 68.187-73.411 73.455-44.679 6.45-81.54-27.284-64.967-66.246z" fill="#FFA78E" id="xZWbT7OkCsCVE5xSvtpyA" /><path d="m363.704 44.503s6.968 15.359 14.852 29.625c11.052 19.998 26.285 12.359 23.837.418-5.091-19.688-15.026-34.781-28.508-46.51z" fill="#2A9C90" id="BMGDo4Zit1iwq5xe8baQ-" /><g fill="#630000" id="rQnr__U1um5CXpbndquCb"><path d="m424.275 87.744c-.226 0-.454-.051-.67-.159l-13.863-6.932c-.741-.37-1.041-1.271-.671-2.012s1.273-1.041 2.013-.671l13.863 6.932c.741.37 1.041 1.271.671 2.012-.263.526-.793.83-1.343.83z" fill="#630000" id="KRWNES-4HB_KQEsMWoNcJ" /><path d="m414.268 90.518c-.231 0-.467-.054-.687-.167-.736-.38-1.025-1.284-.646-2.021l7.007-13.593c.38-.737 1.286-1.025 2.021-.646.736.38 1.025 1.284.646 2.021l-7.007 13.593c-.265.517-.791.813-1.334.813z" fill="#630000" id="AmMDwfPE1OdqoJpy21uIO" /><path d="m340.683 89.636c-.513 0-1.013-.263-1.292-.737-5.944-10.057-15.404-10.883-22.144-7.243-.727.394-1.64.123-2.032-.606-.395-.729-.122-1.639.606-2.033 11.041-5.967 21.3.146 26.151 8.356.422.713.186 1.633-.527 2.054-.24.142-.503.209-.762.209z" fill="#630000" id="OmNfbmFmXuq-EcukLLHn" /><path d="m320.493 90.005c2.197 7.329 6.572 12.493 9.771 11.534s4.012-7.678 1.815-15.007c-1.047-3.492-2.588-6.493-4.261-8.574-.281-.35-8.222.8-8.329 1.401-.5 2.803-.199 6.633 1.004 10.646z" fill="#630000" id="IhkLusMqUexbut89nKa7-" /><path d="m296.644 101.002c-.513 0-1.013-.263-1.292-.737-5.942-10.055-15.402-10.884-22.143-7.243-.729.393-1.64.123-2.032-.606-.395-.729-.122-1.639.606-2.033 11.045-5.968 21.301.147 26.15 8.356.422.713.186 1.633-.527 2.054-.239.142-.502.209-.762.209z" fill="#630000" id="nweQ9eQSox03hRzKkHV7h" /><path d="m276.455 101.371c2.197 7.329 6.572 12.493 9.771 11.534s4.012-7.678 1.815-15.007c-1.047-3.492-2.588-6.493-4.261-8.574-.281-.35-8.222.8-8.329 1.401-.499 2.803-.199 6.633 1.004 10.646z" fill="#630000" id="Rf5ljR6-Pktrm3gsR5wc" /></g><path d="m282.911 27.726c41.257-45.222 98.093-30.827 135.286 12.276l-78.294 19.736c-7.692-4.518-16.07-8.923-20.584-10.812l11.656 13.799-10.769 2.805c-9.752-4.706-18.91-11.132-27.763-18.443 1.482 8.927 5.518 16.466 12.447 22.433l-22.852 5.954c-11.811-6.714-16.356-17.791-13.634-33.23-22.767 10.527-28.502 33.081-24.07 50.563l-6.579 2.649c-14.355-27.631-6.093-70.42 45.156-67.73z" fill="#2A9C90" id="yWzUTbg80UsFtC1ht-_IX" /><path d="m363.935 55.639c-.666 0-1.274-.448-1.45-1.122-.209-.802.271-1.621 1.073-1.83l32.621-8.499c.802-.209 1.62.272 1.829 1.073.209.802-.271 1.621-1.073 1.83l-32.621 8.499c-.127.033-.254.049-.379.049z" fill="#630000" id="vURDyJ_HZXCDAHKGuUai" /><path d="m244.333 94.308c-.67 0-1.28-.452-1.453-1.132-4.606-18.17 1.304-41.386 24.894-52.293.752-.347 1.644-.021 1.991.732.348.752.021 1.643-.731 1.991-22.028 10.185-27.548 31.865-23.245 48.833.203.803-.282 1.619-1.085 1.823-.125.032-.249.046-.371.046z" fill="#630000" id="FDsKj7ZihGPvC8uIwLzk" /><path d="m324.391 127.97c-1.344-11.429-25.757-8.263-23.416 3.025-1.363 5.043 3.352 11.892 12.05 11.377 8.384-.495 15.441-8.836 11.366-14.402z" fill="#FF806A" id="jI_vv7Z7DCXo8Fmb7wH7i" /><path d="m307.875 133.475c-2.543 0-5.019-.319-7.348-1.049-.791-.248-1.23-1.09-.983-1.88.247-.791 1.085-1.231 1.88-.983 11.688 3.663 28.334-4.616 35.503-9.506.684-.466 1.618-.291 2.085.394.467.684.29 1.618-.395 2.084-6.657 4.542-19.358 10.94-30.742 10.94z" fill="#630000" id="ui_EMTBn-RMNl-44279c7" /><path d="m202.787 359.929c34.662-54.564 74.433-117.048 83.238-130.368 25.558-38.666-10.768-52.154-28.292-21.865-10.43 18.028-24.613 26.133-32.449 19.341s-.545-47.982 11.424-29.096c13.315 21.01 29.918 28.524 41.788 18.383 7.969-6.807 11.817-31.031-15.178-49.407-25.049-17.051-56.003-3.78-86.504 26.206-27.88 27.409-58.178 61.121-80.627 90.553-26.67 34.967 80.021 118.094 106.6 76.253z" fill="#FFA78E" id="hBzNxudFENUwoa-Btbr3" /><path d="m225.911 227.893c-.348 0-.697-.121-.981-.366-4.976-4.313-4.27-18.377-1.88-26.449 1.231-4.158 3.531-9.23 7.496-9.782 2.714-.376 5.379 1.476 7.935 5.51 8.044 12.691 17.283 20.405 26.016 21.721 4.823.727 9.228-.575 13.086-3.871 4.277-3.654 7.098-13.068 3.899-23.317-.247-.791.194-1.632.984-1.879.795-.247 1.633.195 1.879.985 3.62 11.599.318 22.107-4.813 26.492-4.484 3.831-9.837 5.407-15.481 4.557-9.606-1.447-19.587-9.644-28.103-23.081-1.817-2.866-3.584-4.341-4.987-4.144-1.778.248-3.707 3.184-5.033 7.663-2.675 9.033-2.195 20.589.968 23.331.626.543.693 1.49.151 2.116-.298.339-.716.514-1.136.514z" fill="#630000" id="Am_3One2ncPIgLA39CAZM" /><path d="m146.047 449.34c7.029-11.081 30.698-48.412 56.74-89.411-48.132-.351-107.873-46.342-106.6-76.253-25.532 29.098-49.747 59.447-58.997 71.811-76.562 102.333-21.717 180.985 45.925 180.481 0 0 46.453-60.649 62.932-86.628z" fill="#24968B" id="NRJOHGNRPrdgUNXJcfYux" /><path d="m129.267 475.328c-.275 0-.553-.075-.803-.234-.699-.444-.906-1.37-.463-2.07 2.468-3.891 10.409-16.163 20.463-31.701 19.438-30.039 46.059-71.178 62.967-97.797.444-.7 1.371-.906 2.071-.462.699.444.905 1.371.462 2.07-16.915 26.63-43.54 67.775-62.98 97.819-10.051 15.531-17.988 27.799-20.449 31.678-.286.45-.772.697-1.268.697z" fill="#630000" id="BG8J11LaqykvzlwJx9TYB" /><path d="m197.75 192.373c54.521-24.764 66.138 24.214 34.959 53.292-26.101 24.343-41.853-4.829-28.832-19.906z" fill="#FFA78E" id="McWXIYTtfoSZJ21UFKrEd" /><path d="m214.032 256.532c-5.622 0-9.271-2.814-10.767-4.254-6.401-6.161-8.139-18.682-.522-27.5.54-.626 1.489-.697 2.115-.155.627.542.696 1.489.154 2.116-6.504 7.531-5.079 18.168.333 23.377 6.285 6.049 16.133 3.973 26.341-5.549 15.47-14.427 21.034-35.55 12.667-48.087-3.637-5.452-15.402-16.632-45.983-2.742-.755.343-1.643.008-1.986-.745-.342-.754-.009-1.644.746-1.986 32.677-14.843 45.655-2.281 49.72 3.808 9.312 13.955 3.674 36.287-13.116 51.946-8.058 7.515-14.67 9.77-19.702 9.771z" fill="#630000" id="VhjJu7RZK6MX9-Suzj3A1" /><path d="m179.209 209.407c57.798-15.655 61.372 34.554 25.916 58.228-29.683 19.819-40.845-10.696-24.694-25.112z" fill="#FFA78E" id="r4slbRdQnmODtEe-lOtAe" /><path d="m187.627 275.664c-7.169 0-11.098-3.996-12.522-5.837-5.407-6.986-5.29-19.839 4.327-28.424.618-.552 1.565-.497 2.118.12.552.618.498 1.566-.12 2.118-6.512 5.812-9.654 16.983-3.953 24.349 5.21 6.729 15.234 6.13 26.814-1.603 17.592-11.746 26.487-31.696 20.25-45.418-5.731-12.612-22.114-16.298-44.939-10.115-.803.217-1.623-.256-1.841-1.056-.216-.8.257-1.623 1.056-1.84 34.645-9.383 45.428 5.105 48.456 11.77 6.942 15.274-2.222 36.405-21.315 49.154-7.62 5.088-13.663 6.782-18.331 6.782z" fill="#630000" id="YmGcSgLrxz53vKObx9irk" /><path d="m165.812 226.042c59.851 1.894 48.617 50.961 7.794 63.257-34.174 10.294-33.831-23.169-17.076-31.703z" fill="#FFA78E" id="EVXz2ppJMqgXjSYGaWZbM" /><path d="m162.002 292.7c-8.245 0-14.242-3.362-16.814-9.768-3.772-9.394 1.211-21.858 10.663-26.673.735-.375 1.64-.083 2.018.656.376.738.082 1.642-.656 2.018-8.007 4.079-12.411 14.985-9.24 22.882 3.105 7.733 12.292 9.937 25.202 6.048 20.254-6.101 34.584-22.586 32.623-37.531-.853-6.499-6.46-21.728-40.032-22.79-.827-.026-1.478-.719-1.451-1.547.025-.829.719-1.476 1.547-1.452 35.871 1.135 41.959 18.14 42.911 25.398 2.183 16.635-12.749 34.172-34.732 40.794-4.38 1.319-8.426 1.965-12.039 1.965z" fill="#630000" id="Hhh5mj56rR5RzKQs8GYJC" /><path d="m426.272 195.621c-.249 26.844-20.787 66.6-74.969 64.766-43.816-1.483-47.659-42.209-31.142-61.702 7.962-7.698 17.019-7.423 20.279-.623-14.066 11.198-21.658 43.668 13.272 45.721 40.028 2.353 52.133-33.426 52.457-49.1.105-7.745 20.226-8.113 20.103.938z" fill="#24968B" id="k4LSRHIjCwG-eZROppwu" /><path d="m354.804 261.946c-1.175 0-2.358-.02-3.552-.06-18.719-.634-32.362-8.511-38.418-22.18-5.942-13.414-3.4-30.682 6.183-41.991.032-.038.066-.074.102-.109 4.829-4.668 10.353-6.851 15.161-5.989 3.34.599 6.009 2.657 7.514 5.795.303.631.129 1.387-.418 1.822-7.59 6.042-13.552 19.338-10.332 29.502 2.579 8.14 10.448 12.824 22.757 13.548 13.899.816 25.483-2.975 34.462-11.268 12.6-11.638 16.242-28.334 16.407-36.365.066-4.89 5.881-7.376 11.647-7.298 7.99.109 11.511 4.241 11.456 8.287-.163 17.326-7.887 34.975-20.663 47.212-13.081 12.528-31.108 19.094-52.306 19.094zm-33.547-62.235c-8.826 10.465-11.164 26.4-5.68 38.78 5.563 12.56 18.27 19.804 35.776 20.396 21.929.746 40.474-5.552 53.681-18.201 12.206-11.691 19.585-28.543 19.738-45.079 0-.002 0-.004 0-.007.048-3.525-4.371-5.191-8.497-5.247-4.162-.057-8.568 1.554-8.606 4.35-.176 8.515-4.031 26.197-17.371 38.518-9.603 8.868-21.946 12.926-36.674 12.059-17.254-1.014-23.358-9.063-25.44-15.637-3.563-11.248 2.475-24.985 10.342-31.932-1.116-1.699-2.749-2.777-4.776-3.141-3.768-.677-8.439 1.244-12.493 5.141z" fill="#24968B" id="tIGIfnbzkIkzFLX7ntz55" /></g></g><g transform="translate(887 554)" data-asset-index="6"><g clip-path="url(#assetClipPath_vTmaLPLx)" transform="scale(0.6645669291338583 0.6645669291338583)" data-asset-index="6"><path d="m160.9 2.5c-87.5 0-158.4 70.9-158.4 158.4v3.2c0 87.5 70.9 158.4 158.4 158.4h192.5l110.1 101.6-20.9-101.6h31.5c87.5 0 158.4-70.9 158.4-158.4v-3.2c0-87.5-70.9-158.4-158.4-158.4z" fill="#FFFFFF" id="pcyZ1vuiCV54GTfDYeVvb" /><path d="m463.5 426.6c-.6 0-1.2-.2-1.7-.7l-109.3-100.9h-191.6c-88.7 0-160.9-72.2-160.9-160.9v-3.2c0-88.7 72.2-160.9 160.9-160.9h313.2c88.7 0 160.9 72.2 160.9 160.9v3.2c0 88.7-72.2 160.9-160.9 160.9h-28.4l20.3 98.6c.2 1.1-.3 2.1-1.2 2.7-.4.2-.8.3-1.3.3zm-302.6-421.6c-86 0-155.9 69.9-155.9 155.9v3.2c0 86 69.9 155.9 155.9 155.9h192.5c.6 0 1.2.2 1.7.7l104.4 96.3-19.4-94c-.2-.7 0-1.5.5-2.1s1.2-.9 1.9-.9h31.5c86 0 155.9-69.9 155.9-155.9v-3.2c.1-86-69.8-155.9-155.8-155.9z" fill="#000000" id="CxQ6qGwMGVwhpbB-5JnQr" /></g></g><g transform="translate(1005 645)" data-asset-index="7"><g clip-path="url(#assetClipPath_fNd515gO)" transform="scale(1.3688563565366494 1.3688563565366494)" data-asset-index="7"><g fill="#000000" id="KdlsuX1FbHf6NVB3Ik5Ow"><circle cx="14.401" cy="14.401" r="14.401" fill="#000000" id="ZrCFSQR2LCX_0aBEKcln" /><circle cx="69.401" cy="14.401" r="14.401" fill="#000000" id="evkrz06lQ1llcBb6OFfJg" /><circle cx="124.401" cy="14.401" r="14.401" fill="#000000" id="vA7xXnptgsz8Tf85VxfKT" /></g></g></g></svg>