<svg xmlns="http://www.w3.org/2000/svg" fill="none" viewBox="0 0 560 560" width="560" height="560"><defs><clipPath id="assetClipPath_7pGGGT4h"><path d="m0 0 h 3000 v 3000 h -3000 v -3000 z" id="path_YvmI8bF-" fill="#ffffff" /></clipPath><clipPath id="clipPath_X_6tEiFY"><path d="m0 0 h 231.825 v 342.896 h -231.825 v -342.896 z" id="path_0zTKBYtr" /></clipPath><clipPath id="clipPath__skIfxz_"><path d="m0 0 h 1555.092 v 1419.558 h -1555.092 v -1419.558 z" id="path_skUBrHI-" /></clipPath><clipPath id="clipPath_6C9hJd8n"><path d="m0 0 h 231.825 v 342.896 h -231.825 v -342.896 z" id="path_m-cTkj0e" /></clipPath></defs><g transform="" data-asset-index="0"><g clip-path="url(#assetClipPath_7pGGGT4h)" transform="scale(0.18666666666666668 0.18666666666666668)" data-asset-index="0"><defs /><g transform="translate(2283.3333333333335 100.0) rotate(0.0 192.5 285.0) scale(1.66073546856465 1.6623116046848023)" id="TdIQxp3pGSCKntdPETbpL"><g clip-path="url(#clipPath_X_6tEiFY)" transform="matrix(1 0 0 1 0 0)" id="J8d03md9CekZTi3_UGzc4"><g fill="#FFBBA0" id="lbjE3UgyoY_SKm1MrTdGm"><path d="M112.149 83.909c-.2 0-.401-.04-.593-.122L65.712 64.054l3.728 6.893a1.5 1.5 0 1 1-2.638 1.427L61.02 61.683a1.5 1.5 0 0 1 1.912-2.092l48.824 21.017 14.369-15.903a1.5 1.5 0 0 1 2.226 2.011l-15.089 16.7a1.5 1.5 0 0 1-1.113.495zM74.83 135.633c-.189 0-.382-.036-.567-.112l-31.724-12.994a1.5 1.5 0 0 1 .072-2.804l41.854-14.683-5.403-9.992a1.5 1.5 0 1 1 2.638-1.427l6.24 11.539a1.5 1.5 0 0 1-.823 2.129l-39.788 13.958 28.069 11.498a1.5 1.5 0 0 1-.57 2.889zm9.942 50.492a1.502 1.502 0 0 1-1.491-1.667l4.972-44.385a1.5 1.5 0 1 1 2.98.334l-4.57 40.806 15.09-11.951a1.5 1.5 0 1 1 1.863 2.352l-17.913 14.187a1.498 1.498 0 0 1-.932.324zm72.79-1.628c-.35 0-.701-.122-.985-.37l-19.487-17.003a1.5 1.5 0 1 1 1.972-2.261l19.487 17.003a1.501 1.501 0 0 1-.987 2.631zm1.79-12.332c-.81 0-1.478-.646-1.498-1.461l-.965-36.835a1.499 1.499 0 0 1 .949-1.435l37.837-14.907a1.5 1.5 0 1 1 1.099 2.791l-36.859 14.522.937 35.786a1.5 1.5 0 0 1-1.46 1.539h-.04zm10.124-65.683c-.234 0-.471-.055-.692-.17l-15.825-8.249a1.501 1.501 0 0 1-.805-1.406l3.022-59.631-15.802 17.488a1.5 1.5 0 1 1-2.226-2.012l18.626-20.614a1.5 1.5 0 0 1 2.612 1.081l-3.187 62.877 14.972 7.804a1.5 1.5 0 0 1-.694 2.83z" fill="#FFBBA0" id="DOqyCmuu-YX9c3LNwrSCE" /></g><path d="M123.908 342.896a1.5 1.5 0 0 1-1.5-1.5v-223.66a1.5 1.5 0 1 1 3 0v223.66a1.5 1.5 0 0 1-1.5 1.5z" fill="#003029" id="dLjPrR5kvxn7Eaa-m7z2p" /><path d="M123.908 246.671a4 4 0 0 1-4-4V117.736a4 4 0 0 1 8 0v124.935a4 4 0 0 1-4 4z" fill="#003029" id="v1mPOUvmKSE385KSMV4bi" /><path d="M105.533 56.052a1.501 1.501 0 0 1-1.455-1.139L90.887 1.862A1.5 1.5 0 0 1 91.981.045a1.495 1.495 0 0 1 1.818 1.094l13.19 53.052a1.5 1.5 0 0 1-1.457 1.862zm73.495 26.76a1.5 1.5 0 0 1-.793-2.774l46.426-28.863a1.5 1.5 0 0 1 1.584 2.548l-46.426 28.863a1.496 1.496 0 0 1-.791.226zm51.297 91.989a1.49 1.49 0 0 1-.682-.165l-48.671-24.894a1.5 1.5 0 1 1 1.366-2.671l48.671 24.894a1.5 1.5 0 0 1-.684 2.836zM52.355 92.279c-.184 0-.37-.034-.551-.105L.95 72.118a1.5 1.5 0 0 1 1.101-2.791l50.854 20.055a1.5 1.5 0 0 1-.551 2.896zm-33.121 92.793a1.5 1.5 0 0 1-.879-2.717l44.335-31.983a1.501 1.501 0 0 1 1.756 2.433l-44.335 31.983a1.498 1.498 0 0 1-.877.284z" fill="#FFBBA0" id="cqq3gmLnnUzB1oWmuFKI0" /></g></g><g transform="translate(208.33333333333334 538.3333333333334) rotate(0.0 1292.5 1180.0) scale(1.6622810740457798 1.6624893100528475)" id="DEss3c0JKN3vuejDbV"><g clip-path="url(#clipPath__skIfxz_)" transform="matrix(1 0 0 1 0 0)" id="PaTSsuCDLAa3rIret6eZs"><path d="m974.016 220.67-93.679 90.164s-229.009-7.69-195.947 26.184c31.623 31.404 69.146 56.961 101.382 78.023 77.674 50.752 120.581 31.571 153.671 2.303 69.596-61.555 113.573-106.617 113.573-106.617l-79-90.058z" fill="#FFA78E" id="Bpl9ewoGmfutjuKCUPWcX" /><path d="M718.153 210.855c17.467 2.572 30.262 10.756 46.979 22.063l115.205 77.917 77.735-75.038 89.976 194.102s-99.253 42.659-124.16 50.571c-38.746 12.308-78.876 11.488-127.304-26.411-28.215-22.081-114.469-102.379-114.469-102.379s5.914-145.261 36.038-140.826z" fill="#FE5236" id="k4wF078Xm0sSnF03sWhhg" /><path d="M968.192 251.949s-9.247-22.326 8.951-56.546c9.321-17.528 22.397-35.503 45.608-56.109 26.266-23.319 50.862-2.128 31.948 23.22-4.558 6.108-11.218 15.837-19.679 25.991 27.441 30.417 2.327 65.834 2.327 65.834l-69.156-2.39z" fill="#FFA78E" id="XfN7b0cGmUCW4dTftlMaF" /><path d="M1100.751 263.804c-27.072 27.823-47.734 46.924-47.734 46.924l-78.988-91.741s51.318-39.49 66.95-53.82c15.632-14.331 80.034 77.812 59.772 98.637z" fill="#FFA78E" id="MCaZzgQ_uNOzGCiDQk9mu" /><path d="M1012.631 190.366s69.356-65.866 80.876-72.348c22.347-12.574 38.332 7.005 23.321 29.655-8.37 12.629-56.129 63.135-56.129 63.135-24.474 23.006-63.474 1.14-48.068-20.442z" fill="#FFA78E" id="ZudbRGI3Zhl_-C4kP9Yo8" /><path d="M1011 193.083a1.5 1.5 0 0 1-1.018-2.602c.364-.336 36.648-33.817 56.759-52.229a1.5 1.5 0 0 1 2.025 2.213c-20.105 18.408-56.385 51.886-56.749 52.222a1.496 1.496 0 0 1-1.018.397z" fill="#003029" id="m5S7jILuzpJ5WAPzLPZg-" /><path d="M1067.587 232.699s56.987-55.594 68.456-70.574c24.611-32.143-6.393-42.694-24.879-28.282-17.466 13.617-64.456 61.369-64.456 61.369-16.428 18.172-3.227 59.041 20.878 37.486z" fill="#FFA78E" id="XrxrWAokWOE0GZX4HvrhY" /><path d="M1046.709 196.713a1.5 1.5 0 0 1-1.07-2.552c.471-.479 47.259-47.979 64.604-61.5 4.609-3.596 10.262-5.9 15.913-6.491a1.5 1.5 0 0 1 .312 2.984c-5.101.532-10.208 2.618-14.381 5.872-17.19 13.401-63.841 60.762-64.31 61.238a1.495 1.495 0 0 1-1.069.448z" fill="#003029" id="Exa3bhyTbifmq7BhGM5Gg" /><path d="M1059.371 217.863s49.359-49.275 61.109-59.276c29.083-24.755 52.046 2.822 23.028 31.683-12.968 12.897-62.385 61.599-62.385 61.599-11.827 11.941-30.243-24.421-21.752-34.005z" fill="#FFA78E" id="NNDG7RLCB4Qf2779xkEYe" /><path d="M1062.549 216.196a1.501 1.501 0 0 1-1.058-2.563c11.082-11.028 48.014-47.673 58.016-56.188 8.685-7.39 17.653-10.857 25.258-9.776.82.117 1.391.877 1.273 1.697s-.887 1.382-1.697 1.273c-6.734-.97-14.87 2.266-22.889 9.091-9.92 8.444-46.782 45.021-57.844 56.03a1.499 1.499 0 0 1-1.059.437z" fill="#003029" id="DcjXyeSo_YVxJnvpLjJE" /><path d="M1072.439 238.837s36.405-38.426 56.055-53.164c19.651-14.738 41.092 2.427 15.915 32.105-6.819 8.038-29.958 32.035-52.417 55.06l-19.552-34.001z" fill="#FFA78E" id="e205CWhjbyW4fZX_niCnn" /><path d="M1076.939 235.647a1.5 1.5 0 0 1-1.078-2.543c10.388-10.746 36.223-36.997 51.732-48.631 5.935-4.45 12.588-6.42 18.252-5.411 3.902.696 7.159 2.791 9.17 5.898a1.5 1.5 0 0 1-2.519 1.629c-1.576-2.436-4.058-4.018-7.178-4.574-4.848-.867-10.654.906-15.924 4.858-15.338 11.504-41.039 37.621-51.377 48.316a1.496 1.496 0 0 1-1.078.457zm-31.158 66.789c-3.233 0-6.427-.437-9.553-1.319-.798-.225-1.262-1.054-1.036-1.851s1.057-1.266 1.851-1.036c17.348 4.897 32.655-5.51 42.444-15.104 8.134-7.972 24.71-24.986 24.877-25.157a1.5 1.5 0 0 1 2.148 2.094c-.166.171-16.768 17.21-24.926 25.206-11.506 11.276-23.923 17.168-35.806 17.168zm-24.817-54.934a1.5 1.5 0 0 1-1.443-1.913c3.567-12.464.313-32.22.28-32.417a1.502 1.502 0 0 1 1.23-1.729 1.507 1.507 0 0 1 1.729 1.23c.141.837 3.397 20.631-.354 33.741a1.5 1.5 0 0 1-1.441 1.087z" fill="#003029" id="N7qkemiB8Wovy9NxHD-4D" /><rect fill="#FFFFFF" height="40.097" rx="20.049" transform="matrix(.44730646 .89438075 -.89438075 .44730646 845.981 -711.27)" width="252.525" x="872.228" y="308.813" id="znkkPNNcOluCleeLZYSa1" /><path d="M1046.036 445.403c-7.909 0-15.535-4.365-19.308-11.907l-95.021-189.99c-5.313-10.627-.992-23.597 9.635-28.912a21.402 21.402 0 0 1 16.45-1.171 21.4 21.4 0 0 1 12.461 10.805l95.021 189.991a21.41 21.41 0 0 1 1.171 16.45 21.4 21.4 0 0 1-10.805 12.461 21.42 21.42 0 0 1-9.604 2.273zm-16.624-13.249a18.426 18.426 0 0 0 10.726 9.301 18.416 18.416 0 0 0 14.161-1.009 18.423 18.423 0 0 0 9.301-10.726 18.428 18.428 0 0 0-1.009-14.16L967.57 225.569a18.423 18.423 0 0 0-10.726-9.301 18.424 18.424 0 0 0-14.16 1.009c-9.147 4.575-12.867 15.739-8.293 24.887z" fill="#003029" id="U-SRwtvrmaZgtHsf_R5QY" /><path d="M856.062 1219.066c194.213-98.574 342.362-271.35 460.892-491.839l-353.036 71.331z" fill="#24968B" id="Pq1hLxhIjwSzYUtY7wpl" /><path d="m879.11 526.078-25.977 781.067s79.236 4.039 125.762 4.722c7.625-26.939 32.917-127.696 32.917-127.696 37.38-164.043 28.843-225.19 33.789-289.712 4.308-56.204 26.726-253.61 29.275-363.561 3.056-131.827-94.788-165.05-185.365-155.517 6.42 39.379-10.401 150.696-10.401 150.696z" fill="#DE5D4A" id="Ayp8uCF095p4T-moFZGfJ" /><path d="M814.359 59.496C826.695 6.26 878.333-4.533 924.172 9.821c57.989 18.16 57.217 74.5 45.983 98.889-12.44 27.007-15.342 50.705-4.331 111.471-42.383 13.574-128.592 12.766-128.592 12.766s16.952-87.83-22.873-173.451z" fill="#003029" id="vcgqD6NiIHFxVTy-B_HE7" /><path d="M809.321 84.01c4.35-44.819 30.035-74.802 77.021-66.404 49.453 8.838 65.763 46.228 58.478 89.889 13.648-13.015 29.845 2.04 27.107 17.801-2.026 11.661-16.567 21.557-34.448 11.404-18.906 36.115-57.89 46.133-93.359 36.059-43.83-12.449-66.448-60.624-34.799-88.749z" fill="#DE5D4A" id="lwRIsiaeytrPb7SD_zXFt" /><path d="M959.595 128.93a1.5 1.5 0 0 1-1.182-.574l-9.564-12.196a1.501 1.501 0 0 1 2.361-1.851l9.564 12.196a1.501 1.501 0 0 1-1.18 2.425z" fill="#003029" id="RHBnjnE77FZEC2OQptxN" /><path d="M949.363 127.157a1.5 1.5 0 0 1-.912-2.692l12.149-9.287a1.501 1.501 0 0 1 1.823 2.383l-12.149 9.287a1.495 1.495 0 0 1-.91.309z" fill="#003029" id="jSE0hfXryFuuXPKr7cptl" /><path d="M858.924 125.494c10.456-9.609-4.901-18.902-11.221-9.309-5.794-15.914-22.387-5.978-11.553 5.089-3.728 1.419-7.787 11.577 2.181 15.998 13.382 5.935 21.673-5.342 20.592-11.778z" fill="#B93D2F" id="j7OJwqI0ohhX-Up4OaagY" /><path d="M856.833 127.041c-8.046 0-16.519-1.994-23.112-5.886a1.501 1.501 0 0 1-.529-2.055 1.505 1.505 0 0 1 2.055-.529c11.222 6.625 28.214 7.392 37.878 1.713a1.5 1.5 0 0 1 1.52 2.586c-4.762 2.799-11.14 4.171-17.811 4.171zm-42.474-67.545c7.88-44.66 57.771-49.048 76.513-43.937 35.696 9.736 69.867 45.52 53.949 91.936-8.244 5.786-39.321-22.88-41.104-63.484-28.211 19.404-64.022-11.869-89.358 15.485zm76.522 52.372a1.5 1.5 0 0 1-1.396-.951c-2.287-5.813-6.439-10.371-11.392-12.503-4.517-1.945-9.49-1.848-14.783.285a1.5 1.5 0 1 1-1.121-2.783c5.978-2.408 11.889-2.498 17.091-.257 5.682 2.445 10.419 7.606 12.996 14.16a1.497 1.497 0 0 1-1.396 2.048zm-47.49-15.754a1.501 1.501 0 0 1-1.419-1.013c-1.927-5.615-5.598-9.94-10.071-11.866-4.083-1.758-8.664-1.506-13.619.748a1.5 1.5 0 1 1-1.242-2.73c5.676-2.583 11.227-2.847 16.048-.773 5.249 2.26 9.521 7.234 11.723 13.647a1.5 1.5 0 0 1-1.419 1.987z" fill="#003029" id="kygmux476cVP3tmp56ZZA" /><path d="M868.478 97.203a1.5 1.5 0 0 1-1.494-1.65c.641-6.396 3.236-12.106 7.309-16.078a1.5 1.5 0 0 1 2.094 2.148c-3.567 3.479-5.847 8.533-6.418 14.229a1.5 1.5 0 0 1-1.49 1.351zm-45.573-14.892c-.038 0-.076 0-.114-.004a1.502 1.502 0 0 1-1.384-1.608c.587-7.822 2.593-10.887 6.712-16.54a1.498 1.498 0 0 1 2.095-.329c.67.487.817 1.426.329 2.095-3.98 5.464-5.616 7.962-6.144 14.999a1.5 1.5 0 0 1-1.494 1.388z" fill="#003029" id="ncaNzDHJhWZWlyhvQFDXP" /><path d="M740.343 292.015c30.861-61.948 76.545-78.589 122.245-92.182 35.99-10.705 86.075-20.724 124.264-24.059 41.028-3.583 122.396-2.622 170.643 61.415l-106.807 79.139-192.865 33.731s-122.756-47.453-117.481-58.043zm299.035 252.572S961.989 728.89 930.063 802.124c-68.186 156.413 61.14 180.223 126.774 160.434 87.045-26.245 378.001-144.18 378.001-144.18l70.655 8.253c39.131-5.696-97.816-122.569-133.109-124.404-27.861 2.752-69.226 5.919-110.021 13.417-40.796 7.498-86.037 19.539-106.02 30.228 17.225-33.563 24.236-51.321 57.133-123.093 54.943-119.87 8.426-203.954-123.915-235.628-88.575-21.199-50.182 157.435-50.182 157.435z" fill="#DE5D4A" id="YZEKXLaNeVXw4A3oScFE" /><path d="M1014.358 970.005c-8.006 0-16.009-.592-23.742-1.791-18.191-2.823-43.604-10.387-61.369-30.388-12.345-13.897-19.036-31.653-19.891-52.775-.962-23.792 5.542-51.895 19.332-83.527 31.556-72.387 108.532-255.675 109.307-257.519a1.5 1.5 0 1 1 2.766 1.162c-.773 1.843-77.759 185.15-109.322 257.556-25.453 58.388-25.436 104.417.052 133.111 28.644 32.25 85.736 37.1 124.914 25.287a1.5 1.5 0 0 1 .865 2.873c-13.171 3.971-28.046 6.011-42.911 6.011zm75.201-92.049a1.5 1.5 0 0 1-1.335-2.183l66.782-130.584a1.502 1.502 0 0 1 2.672 1.366l-66.782 130.584a1.5 1.5 0 0 1-1.337.817z" fill="#003029" id="FUEsKrw1tf3Rc4c4wHY0" /><path d="m853.133 1307.145-25.708 73.967s-12.487 33.3 2.233 28.715c54.119-16.857 130.999-88.877 154.38-116.989-28.243-.914-130.905 14.308-130.905 14.308zM1304.97 129.627l-77.456 109.191-143.888-53.605c-78.071-8.109-55.929 115.436-14.622 138.549 24.531 11.946 21.82 8.99 97.111 37.786 32.496 12.429 105.492 35.815 155.245-32.149 53.4-72.946 91.308-137.337 91.308-137.337l-107.698-62.434zM514.391 438.949l154.255-26.814 86.935-145.637c57.95-52.939 122.491 33.733 103.022 76.878-18.963 40.331-43.447 69.634-88.34 136.871-23.633 35.395-37.21 54.48-84.853 61.986-89.928 14.168-164.3 20.801-164.3 20.801l-6.719-124.084z" fill="#DE5D4A" id="wVsc8rZRa_lu7bdq6aHXN" /><path d="M823.48 285.951c28.741-1.093 54.914 11.907 80.166 29.956 26.598-36.203 71.761-54.515 120.96-68.936l47.04 65.438 27.574 72.994s74.553 19.226 114.017 69.112c59.33 74.996 9.813 172.636-56.895 291.357 47.452-25.561 107.326-33.413 165.026-39.722-6.403 172.75-66.893 309.858-175.681 413.246l-64.34-476.479S978.722 786.966 960.657 817.61c-49.895 84.637-11.822 379.913-11.822 379.913s-50.275 21.541-93.773 21.541l23.048-692.988-10.854-71.795s-43.231-63.826-49.434-88.207-.437-49.133 5.658-80.124z" fill="#24968B" id="BQp-cB9Dnp5gGikT1uIbX" /><path d="M910.762 353.95c35.937 24.128 83.08 24.975 133.819 14.809-63.739 35.872-153.192 51.702-201.339 47.887 27.721-12.015 54.358-31.242 67.52-62.696z" fill="#DE5D4A" id="hVvCm9YFNtm_5q8gwcNN" /><path d="M986.143 1291.078c-.104.008-.202.022-.309.029-33.038 2.127-57.038 12.219-76.281 39.278-8.009 11.262-16.977 24.092-26.39 37.508-5.522 7.871-13.497 12.454-21.929 12.606l-33.81.612-44.378 26.731c-4.152 2.502-2.71 10.215 1.909 10.215h89.405c6.684 0 13.047-3.538 17.479-9.717l24.482-34.141c8.876-12.378 21.13-20.135 34.302-21.912 11.446-.376 18.264 12.365 18.264 39.997 0 6.563-.007 12.18-.017 25.772h7.49v-25.97c0-26.48 4.34-29.581 11.341-40.193 11.688-15.242 14.943-33.816-1.56-60.816z" fill="#FFFFFF" id="eSQ7hwTNWqyBHWxVCuAK" /><path d="M976.362 1419.558h-7.49a1.503 1.503 0 0 1-1.5-1.501l.01-11.91c.005-5.812.008-9.641.008-13.861 0-17.762-2.922-29.978-8.449-35.327-2.296-2.222-4.957-3.26-8.19-3.173-12.827 1.754-24.619 9.312-33.208 21.289l-24.482 34.141c-4.714 6.573-11.529 10.343-18.697 10.343h-89.405c-2.582 0-4.764-1.845-5.558-4.699-.753-2.71-.175-6.463 2.874-8.301l44.378-26.731c.227-.136.483-.21.747-.215l33.81-.612c7.938-.145 15.492-4.507 20.729-11.968l5.506-7.853c7.434-10.602 14.455-20.616 20.889-29.663 18.243-25.653 41.393-37.588 77.407-39.906l.279-.027a1.512 1.512 0 0 1 1.406.713c14.938 24.44 15.415 44.292 1.502 62.469a221.996 221.996 0 0 1-2.175 3.216c-5.543 8.091-8.889 12.974-8.889 36.107v25.971a1.5 1.5 0 0 1-1.5 1.5zm-5.989-3h4.489v-24.471c0-24.063 3.543-29.234 9.414-37.803.692-1.01 1.418-2.069 2.175-3.217.02-.029.04-.059.062-.087 12.945-16.882 12.579-35.437-1.175-58.338-34.676 2.347-56.999 13.915-74.562 38.611-6.429 9.039-13.447 19.05-20.877 29.647l-5.508 7.853c-5.792 8.256-14.223 13.083-23.129 13.245l-33.407.604-44.033 26.524c-1.708 1.028-1.991 3.275-1.532 4.928.163.587.838 2.502 2.667 2.502h89.405c6.189 0 12.116-3.313 16.26-9.091l24.482-34.141c9.093-12.68 21.637-20.679 35.321-22.524.05-.007.101-.011.151-.013 4.04-.145 7.561 1.218 10.449 4.014 6.213 6.012 9.363 18.623 9.363 37.482 0 4.222-.003 8.052-.008 13.864l-.009 10.408z" fill="#003029" id="JEi_k-UmwaCIFgClU8yg" /><path d="m1553.413 856.165-26.634-85.346c-1.991-6.38-7.264-11.4-14.483-13.79l-39.884-13.2c-14.46-4.786-25.516-14.173-31.135-26.218-3.769-10.814 6.363-21.118 32.74-29.35 6.266-1.955 11.629-3.621 24.607-7.662l-2.231-7.149-24.792 7.737c-25.278 7.888-29.53 4.668-41.747 1.147-18.032-6.617-36.733-4.19-57.59 19.606.039.097.081.186.119.286 11.873 30.904 28.656 50.809 60.219 61.116 13.137 4.291 28.055 9.029 43.667 14.018 9.158 2.927 15.909 9.174 18.566 17.177l10.657 32.092 38.738 34.399c3.625 3.219 10.558-.456 9.182-4.865z" fill="#FFFFFF" id="lDQDDl40JxDY6dVoYUe1" /><path d="M1547.56 863.748c-1.51 0-3.044-.459-4.325-1.596l-38.738-34.399a1.508 1.508 0 0 1-.428-.649l-10.656-32.093c-2.501-7.533-8.916-13.445-17.6-16.221l-9.124-2.914c-12.339-3.938-23.994-7.659-34.552-11.107-29.921-9.771-48.21-28.314-61.153-62.004l-.109-.262a1.5 1.5 0 0 1 .263-1.55c18.88-21.543 37.69-27.911 59.184-20.045 1.32.381 2.548.758 3.72 1.118 9.375 2.88 15.033 4.619 37.114-2.271l24.791-7.737a1.495 1.495 0 0 1 1.879.984l2.231 7.149a1.5 1.5 0 0 1-.986 1.88l-11.112 3.458c-5.695 1.772-9.402 2.926-13.494 4.202-16.956 5.292-27.747 11.721-31.206 18.591-1.438 2.855-1.631 5.723-.59 8.763 5.496 11.723 16.224 20.728 30.216 25.358l39.884 13.2c7.678 2.542 13.307 7.924 15.442 14.767l26.635 85.347c.77 2.466-.342 5.098-2.83 6.705-1.226.792-2.826 1.325-4.455 1.325zm-40.771-37.972 38.438 34.132c1.488 1.324 3.719.925 5.16-.005.512-.331 2.14-1.546 1.595-3.291l-26.635-85.347c-1.845-5.909-6.772-10.579-13.522-12.813l-39.884-13.2c-14.812-4.902-26.185-14.493-32.023-27.008a1.73 1.73 0 0 1-.057-.141c-1.332-3.82-1.091-7.578.718-11.169 3.888-7.723 14.988-14.486 32.991-20.105 4.094-1.277 7.801-2.431 13.498-4.204l9.678-3.012-1.338-4.284-23.358 7.29c-22.972 7.167-28.964 5.323-38.89 2.275a215.22 215.22 0 0 0-3.72-1.118 2.014 2.014 0 0 1-.102-.033c-19.971-7.324-37.574-1.451-55.34 18.501 12.57 32.401 30.265 50.266 59.07 59.673 10.548 3.445 22.198 7.164 34.532 11.102l9.126 2.914c9.606 3.07 16.727 9.68 19.533 18.133l10.529 31.711z" fill="#003029" id="SyWRAnZrnnsT01ZPDNRo9" /><path d="M824.753 289.173a1.5 1.5 0 0 1-1.466-1.818l17.703-81.504a1.5 1.5 0 1 1 2.931.637l-17.703 81.504a1.5 1.5 0 0 1-1.465 1.182zm198.766-39.463a1.5 1.5 0 0 1-1.302-.753l-41.376-71.997a1.5 1.5 0 0 1 2.602-1.494l41.376 71.997a1.5 1.5 0 0 1-1.3 2.247z" fill="#24968B" id="QdkVZSM_SGrQBeKPhfy-B" /><path d="M915.837 844.362a1.5 1.5 0 0 1-1.456-1.866c3.226-12.808 8.039-26.593 14.308-40.972 31.566-72.411 83.88-185.391 84.404-186.523a1.501 1.501 0 0 1 2.722 1.262c-.524 1.132-52.824 114.081-84.377 186.461-6.203 14.229-10.963 27.856-14.147 40.505a1.501 1.501 0 0 1-1.454 1.134z" fill="#003029" id="ZZ1QZo9tHlxuj6r57qvV" /><path d="M1304.97 129.627s4.384-9.11 16.889-37.402c15.574-35.234 21.06-49.521 32.877-60.712 31.76-30.079 41.408 24.035 9.369 48.115-16.65 12.513-14.423 20.165-4.112 21.262s24.942-31.677 11.558-49.588c-14.464-19.357-18.722-32.653-5.924-41.266 6.165-4.149 19.77-5.466 42.469 25.644 10.621 14.557 24.162 41.108 23.039 83.866-1.027 39.083-15.319 67.131-18.468 72.517-27.681 32.71-121.066-14.702-107.698-62.434z" fill="#DE5D4A" id="w3AT8g6R1lG3Gen3OCwiN" /><path d="M1360.508 102.416a6.28 6.28 0 0 1-.673-.036 1.499 1.499 0 0 1-1.333-1.649 1.493 1.493 0 0 1 1.649-1.333c2.763.279 6.396-2.888 9.48-8.307 6.399-11.24 8.7-28.21.718-38.894-7.646-10.23-11.869-18.007-13.294-24.475a1.499 1.499 0 0 1 1.143-1.787 1.493 1.493 0 0 1 1.787 1.143c1.329 6.035 5.387 13.447 12.767 23.324 8.755 11.716 6.369 30.084-.513 42.173-3.588 6.302-7.825 9.841-11.731 9.841z" fill="#003029" id="gvk7cO0_rGY8IJSftoBTA" /><path d="M1403.837 98.933c-17.588-55.003-60.119-31.606-60.724 9.504-.507 34.415 30.543 26.793 32.892 7.725z" fill="#DE5D4A" id="BKcPCCSw9tC7P5OXiWv7p" /><path d="M1358.47 133.854c-.346 0-.688-.012-1.03-.035-3.797-.261-16.159-2.864-15.827-25.404.326-22.164 12.66-40.672 28.689-43.052 7.007-1.043 24.411.109 34.964 33.113a1.5 1.5 0 0 1-2.858.914c-6.938-21.697-18.472-33.018-31.666-31.061-14.353 2.131-25.83 19.758-26.13 40.13-.198 13.431 4.675 21.792 13.033 22.367 7.201.48 15.701-5.353 16.871-14.848a1.5 1.5 0 0 1 2.977.367c-1.322 10.736-10.691 17.507-19.023 17.508z" fill="#003029" id="EW87xHMbProjMJemulOh3" /><path d="M1402.217 117.636c-26.22-51.45-64.426-21.506-58.399 19.164 5.045 34.047 34.084 22.275 33.935 1.398z" fill="#DE5D4A" id="mI8XAJ09D78MC7Y4dcc7l" /><path d="M1360.683 159.769c-4.555 0-15.313-2.251-18.35-22.749-3.249-21.927 5.941-42.181 21.377-47.112 6.74-2.153 24.107-3.827 39.843 27.048a1.502 1.502 0 0 1-.656 2.018 1.504 1.504 0 0 1-2.018-.656c-10.343-20.295-23.557-29.611-36.256-25.551-13.821 4.415-22.31 23.661-19.323 43.814 1.964 13.253 8.003 20.788 16.153 20.16 7.206-.557 14.873-8.137 14.799-18.532a1.5 1.5 0 0 1 1.489-1.511h.011a1.5 1.5 0 0 1 1.5 1.489c.089 12.463-9.05 20.887-17.567 21.545-.286.021-.623.037-1.002.037z" fill="#003029" id="hI0azwkAopKRaSxvjT9EF" /><path d="M1399.379 135.346c-40.094-41.559-67.898-1.768-50.264 35.373 14.762 31.093 38.46 9.187 33.716-8.314l16.549-27.059z" fill="#DE5D4A" id="VpVPczZkO-BuTMV--iqW" /><path d="M1367.083 187.882c-7.282 0-14.256-5.848-19.323-16.52-9.506-20.025-6.626-42.079 6.699-51.301 5.816-4.025 21.943-10.693 46 14.243a1.498 1.498 0 0 1-.038 2.12 1.496 1.496 0 0 1-2.12-.038c-15.815-16.392-31.171-21.447-42.135-13.858-11.932 8.257-14.434 29.142-5.695 47.547 5.563 11.719 13.059 16.848 20.569 14.074 7.674-2.836 12.604-13.014 10.343-21.353a1.501 1.501 0 0 1 2.896-.785c2.684 9.898-3.017 21.559-12.198 24.951-1.669.617-3.341.919-4.997.919zm-154.63 73.666a1.5 1.5 0 0 1-1.222-2.368l15.06-21.23a1.5 1.5 0 1 1 2.447 1.737l-15.06 21.23a1.5 1.5 0 0 1-1.225.632zM632.046 1308.96c-.108 0-.219-.012-.328-.036-.774-.173-77.968-17.461-122.489-29.129a1.501 1.501 0 0 1-1.12-1.444c-.134-27.698 2.443-130.854 2.47-131.892 6.034-128.404 21.814-191.91 34.494-242.938 3.896-15.677 7.575-30.483 10.533-45.498 3-15.228 7.468-40.714 13.125-72.98 14.517-82.804 36.455-207.938 56.011-285.227 8.78-34.701 18.372-52.308 30.185-55.409 13.333-3.507 27.664 11.529 44.251 28.937 9.056 9.503 19.319 20.273 30.385 28.959 11.551 8.924 28.719 9.567 45.321 10.189 16.574.621 32.229 1.208 39.604 10.63 4.42 5.646 5.431 13.866 3.089 25.13-7.463 35.896-182.309 752.332-184.074 759.564a1.5 1.5 0 0 1-1.456 1.145zm-120.941-31.775c41.23 10.761 109.121 26.082 119.832 28.489 8.831-36.187 176.409-722.955 183.702-758.034l1.469.306-1.469-.306c2.151-10.346 1.329-17.761-2.514-22.669-6.518-8.326-21.496-8.888-37.354-9.481-16.279-.61-34.731-1.302-47.052-10.821-11.245-8.825-21.588-19.68-30.714-29.256-15.931-16.718-29.686-31.158-41.317-28.104-10.499 2.757-19.67 20.173-28.038 53.244-19.528 77.181-41.455 202.248-55.964 285.009-5.66 32.283-10.131 57.783-13.137 73.042-2.972 15.086-6.66 29.929-10.564 45.642-12.648 50.9-28.39 114.247-34.409 242.322-.024.992-2.531 101.367-2.471 130.618z" fill="#003029" id="NBkzy6qTEsLnPESiWggKx" /><path d="M650.158 643s-66.644 159.241-96.609 229.181-56.473 99.721-99.722 139.719c-36.85 34.08-297.981 263.247-297.981 263.247s-48.47-53.596-79.25-88.492c15.503-23.313 75.588-108.057 75.588-108.057 100.294-135.087 152.293-168.373 198.087-214.094 37.566-92.03 76.364-198.213 120.102-299.122 13.051-30.111 29.22-52.058 47.352-67.321 54.723-46.066 127.329-31.254 186.108 3.744 78.255 46.595-53.675 141.197-53.675 141.197z" fill="#FFA78E" id="nRsJq0wf3ac_ZtVeQgm5u" /><path d="m816.108 547.946-87.472 787.369-264.203-69.514L596.28 564.465c83.454-26.821 159.562-38.255 219.828-16.519z" fill="#FE5236" id="ABF45It7HmEm6tj91zsQ3" /><path d="M660.946 642.918s-94.304 293.008-154.331 384.805c-27.47 42.009-233.289 340.982-233.289 340.982s-153.561-165.284-184.34-200.181c15.503-23.313 63.198-89.928 63.198-89.928 100.294-135.087 152.293-168.373 198.087-214.094 37.566-92.03 76.364-198.213 120.102-299.122 13.051-30.111 190.573 77.538 190.573 77.538z" fill="#FE5236" id="M3hqZDYZnK6AhvA0HxeWR" /><path d="M506.615 1029.223a1.5 1.5 0 0 1-1.255-2.321c59.229-90.578 153.216-381.515 154.158-384.443a1.5 1.5 0 1 1 2.856.92c-.943 2.932-95.053 294.251-154.502 385.166a1.502 1.502 0 0 1-1.257.679zm-16.279 312.169a5 5 0 0 0 4.975 4.502h33.733c15.29 0 29.85 8.065 40.017 22.161.069.096.136.195.2.295l25.281 39.823c.071.112.145.222.223.329 4.426 6.079 10.737 9.555 17.362 9.555h84.405a5 5 0 0 0 0-10h-78.405c-6.625 0-12.935-3.476-17.362-9.555a6.552 6.552 0 0 1-.223-.329l-25.281-39.823c-.064-.1-.13-.199-.2-.295-10.168-14.095-24.727-22.161-40.017-22.161h-39.733a5 5 0 0 0-4.975 5.498z" fill="#003029" id="gPAGCf4hSDtYowS4ZSECG" /><path d="M496.786 1335.894h38.258c15.342 0 29.949 8.121 40.122 22.306l25.482 40.141c4.432 6.179 10.795 9.717 17.479 9.717h68.599a7.806 7.806 0 0 0 1.372-15.49l-21.452-3.83-34.6-81.277c-41.667-19.054-82.523-29.251-122.436-29.117-11.857 12.734-18.471 29.555-12.823 57.551z" fill="#FFA78E" id="NYpDfICvkoNUgYVXKI3Eu" /><path d="m499.539 1345.894 10.065 72.164h7.339l3.022-72.164zm10.07-67.551c22.001 3.67 43.766 38.905 43.492 61.421l8.903 5.115c-2.218-31.586-13.422-58.861-50.466-73.743zm157.036 110.394c-21.255.885-39.424 7.624-55.722 17.913-7.696-1.412-10.285-4.448-10.275-8.31 22.521-11.049 43.8-18.491 62.379-18.103zM40.031 1206.953a5 5 0 0 0 .389 6.699l24.047 23.657c10.9 10.723 15.622 26.683 12.985 43.862a5.83 5.83 0 0 1-.065.35l-9.906 46.118c-.028.129-.052.26-.072.391-1.108 7.438.953 14.341 5.675 18.987l60.169 59.194a5 5 0 0 0 7.071-.058 5 5 0 0 0-.058-7.071l-55.892-54.986c-4.723-4.646-6.784-11.549-5.675-18.987a5.72 5.72 0 0 1 .072-.391l9.906-46.118a5.98 5.98 0 0 0 .065-.35c2.637-17.179-2.086-33.139-12.985-43.862l-28.324-27.865a5 5 0 0 0-7.402.43z" fill="#003029" id="Lq646toCnqzW3P_OXR7__" /><path d="m48.484 1207.557 27.273 26.83c10.937 10.76 15.655 26.792 12.958 44.038l-9.985 46.486c-1.175 7.513.881 14.497 5.645 19.185l48.902 48.109a7.807 7.807 0 0 0 11.842-10.08l-12.606-17.775 32.335-82.205c-16.34-42.804-38.314-78.726-66.86-106.621-17.383.762-33.894 8.115-49.502 32.033z" fill="#FFA78E" id="G2MNF1t2yyRlPElcuw4" /><path d="M43.434 1216.617 0 1275.118l5.232 5.147 52.762-49.324zm54.552-41.092c13.109 18.046 3.915 58.427-12.071 74.286l2.76 9.89c20.57-24.072 31.711-51.373 15.741-87.961l-6.429 3.785zm34.525 188.825c-15.773-14.275-33.451-22.214-52.285-26.309-4.496-6.403-4.213-10.384-1.497-13.13 23.803 7.918 44.192 17.536 57.163 30.842l-3.381 8.596z" fill="#003029" id="d8q8WhFJmd2QwFHl9_OKz" /><rect fill="#FFFFFF" height="40.097" rx="20.049" transform="matrix(.96708592 .25445004 -.25445004 .96708592 349.376 -108.643)" width="306.766" x="441.253" y="1276.102" id="GQXY6EyGzgG8_oM7P_vD" /><path d="M723.618 1351.635c-1.841 0-3.692-.237-5.52-.719l-257.892-67.854c-11.49-3.022-18.379-14.831-15.355-26.322 3.022-11.491 14.831-18.383 26.322-15.355l257.891 67.854c5.566 1.464 10.229 5.009 13.13 9.98s3.691 10.775 2.227 16.342a21.405 21.405 0 0 1-9.98 13.129 21.417 21.417 0 0 1-10.822 2.945zm-257.924-107.962c-8.223 0-15.754 5.516-17.942 13.831-2.602 9.891 3.327 20.056 13.219 22.658l257.892 67.854a18.432 18.432 0 0 0 14.066-1.917 18.428 18.428 0 0 0 8.592-11.302 18.432 18.432 0 0 0-1.917-14.066 18.433 18.433 0 0 0-11.303-8.592l-257.891-67.854a18.534 18.534 0 0 0-4.716-.612z" fill="#003029" id="MNmwbt8E_nXBTu5n_pv2z" /><rect fill="#FFFFFF" height="40.097" rx="20.049" transform="matrix(.67937727 .73378915 -.73378915 .67937727 985.888 271.836)" width="306.766" x="28.494" y="1244.039" id="kvatX6zOKuNpjXrP5jdiW" /><path d="M272.482 1383.476c-.282 0-.565-.005-.85-.017a21.406 21.406 0 0 1-14.983-6.893L75.481 1180.888c-8.072-8.72-7.547-22.38 1.172-30.452 8.72-8.072 22.382-7.546 30.452 1.172l181.169 195.678a21.415 21.415 0 0 1 5.721 15.47 21.411 21.411 0 0 1-6.894 14.982 21.392 21.392 0 0 1-14.619 5.737zM91.276 1147.7a18.413 18.413 0 0 0-12.584 4.938 18.427 18.427 0 0 0-5.934 12.897 18.426 18.426 0 0 0 4.924 13.314l181.168 195.678a18.432 18.432 0 0 0 12.897 5.935 18.434 18.434 0 0 0 13.314-4.924c7.506-6.949 7.959-18.709 1.011-26.213l-181.169-195.678a18.427 18.427 0 0 0-12.897-5.934 17.85 17.85 0 0 0-.73-.015z" fill="#003029" id="BLsA2O2l32hUFqEbBS2IW" /><path d="M89.848 288.093c-4.778-10.695-9.175-18.88-17.112-28.526 14.783-7.467 33.408-24.762 25.64-39.845-4.551-8.838-18.484-15.885-44.894 1.992-19.981 13.525-38.074 37.554-9.296 82.448 6.474 25.916 47.446-12.076 45.662-16.068z" fill="#FFA78E" id="VV2d-vhAjb-J2OSJwkYcS" /><path d="M165.721 325.456 63.126 261.895c-8.384 12.666-30.434 73.573-44.049 114.096 17.152 13.731 44.024 30.607 78.333 53.584 37.44-16.681 75.433-67.328 68.311-104.12z" fill="#FFA78E" id="TqNzAOw6QX4PJT41_gc_5" /><path d="M35.074 322.925c-27.834-50.596 18.402-65.38 48.662-37.547 25.332 23.301-1.555 40.599-17.013 29.191z" fill="#FFA78E" id="W6VNTS9jl0q4EMq8uJl28" /><path d="M35.075 324.425c-.529 0-1.042-.28-1.315-.777-16.702-30.36-5.56-43.79.007-48.155 12.749-9.997 34.669-6.225 50.984 8.781 16.591 15.261 9.979 26.025 7.558 28.961-5.466 6.629-17.408 9.234-26.477 2.542a1.499 1.499 0 1 1 1.782-2.414c7.697 5.681 17.788 3.534 22.381-2.036 5.331-6.464 2.612-15.751-7.274-24.844-14.993-13.793-35.685-17.582-47.102-8.629-10.49 8.226-10.209 24.391.771 44.349a1.5 1.5 0 0 1-1.314 2.223z" fill="#003029" id="FojNN-tjCik4u68KU4h-m" /><path d="M24.207 347.092c-27.388-50.838 18.976-65.216 48.99-37.118 25.127 23.523-1.078 40.703-18.161 28.701z" fill="#FFA78E" id="trQAEeNW51aRSTMUZ792g" /><path d="M24.208 348.592a1.497 1.497 0 0 1-1.321-.789c-16.435-30.506-5.174-43.837.43-48.153 12.84-9.886 34.723-5.92 50.906 9.229 16.389 15.343 10.01 25.951 7.664 28.837-5.388 6.629-17.516 9.349-27.712 2.187a1.5 1.5 0 0 1 1.725-2.455c8.505 5.977 19.101 3.984 23.659-1.623 5.156-6.345 2.395-15.599-7.387-24.756-14.874-13.924-35.529-17.896-47.024-9.042-10.562 8.134-10.423 24.3.38 44.354a1.498 1.498 0 0 1-1.319 2.211z" fill="#003029" id="ssSx3kvP9AAilbY0BYyRg" /><path d="M19.076 375.992c-31.366-48.485 13.699-66.525 45.865-40.917 26.927 21.438.212 39.542-15.755 30.946z" fill="#FFA78E" id="rG64_t9JisW0w6c5ix7pu" /><path d="M19.078 377.492c-.491 0-.974-.241-1.261-.686-18.821-29.094-8.663-43.283-3.422-48.033 12.006-10.883 34.138-8.678 51.48 5.128 11.344 9.032 14.959 19.211 9.67 27.229-5.39 8.17-18.039 11.075-27.07 6.212a1.498 1.498 0 1 1 1.422-2.64c7.609 4.094 18.639 1.606 23.144-5.224 4.408-6.682 1.115-15.148-9.034-23.229-15.938-12.691-36.847-14.996-47.597-5.253-9.878 8.952-8.446 25.056 3.927 44.182a1.5 1.5 0 0 1-1.258 2.314z" fill="#003029" id="nie7bBhpuEoD2CQm_Zp0" /><path d="M116.152 344.584c-8.639-23.305-25.772-67.64-27.213-90.971s25.19-27.45 35.877-2.584c10.687 24.865 24.148 57.97 25.165 61.132 5.715 17.766-23.855 59.333-33.829 32.424zm493.841-142.62c-37.077 5.931-86.563 18.582-122.431 32.108-38.535 14.532 3.303 154.336 3.303 154.336l188.458-53.088s-22.25-140.887-69.33-133.356z" fill="#FFA78E" id="o8gzErDJCFpplqdqEyY00" /><path d="m501.924 396.546 29.72 83.315c55.862 5.369 198.935-46.72 221.617-67.726-2.99-28.53-16.584-92.64-19.575-100.671-4.905-13.17-42.08-60.33-97.032-104.96-39.847 5.715-105.953 33.938-146.12 57.472l11.391 132.57z" fill="#FFA78E" id="GbGSdil4zocx_ISsBxXTg" /><path d="M502.608 544.179a1.5 1.5 0 0 1-1.44-1.92l17.545-60.094a1.5 1.5 0 0 1 2.879.839l-16.845 57.698 288.265-59.791-41.037-68.003a1.5 1.5 0 0 1 2.569-1.551l42.132 69.816a1.502 1.502 0 0 1-.979 2.244l-292.783 60.729a1.503 1.503 0 0 1-.305.031zm-216.093-10.182c-20.479 0-40.709-6.093-60.473-18.255-76.156-46.863-128.981-84.571-129.506-84.947a1.501 1.501 0 0 1-.374-2.054l68.311-102.119a1.502 1.502 0 0 1 2.052-.432l111.993 71.24 136.354-123.207c.091-.082.191-.152.299-.21 27.701-14.802 45.483-3.529 55.524 8.535 11.328 13.612 18.868 36.183 20.169 60.376 1.287 23.932-3.619 45.332-13.125 57.248-16.995 20.633-26.215 28.541-42.952 42.898-11.211 9.616-26.565 22.786-50.293 45.004-20.729 19.411-40.838 32.343-61.475 39.535-12.221 4.259-24.408 6.387-36.505 6.387zm-187.048-104.8c8.223 5.823 58.376 41.057 128.147 83.99 50.322 30.966 102.413 21.78 154.829-27.302 23.775-22.263 39.158-35.458 50.391-45.092 17.151-14.712 25.76-22.096 42.574-42.511 19.649-24.629 15.853-86.333-7.019-113.815-9.307-11.184-25.814-21.615-51.644-7.894L279.681 400.422c-.5.453-1.24.515-1.811.152l-111.72-71.066-66.685 99.688z" fill="#003029" id="xWo-70ZHvDxTb00cIUaup" /><path d="m752.424 405.206-205.812 30.173-71.825 154.848 332.716-30.162z" fill="#FE5236" id="jDVXNXJeBBLKYgQGlQ0zL" /><path d="M517.063 224.044 641.971 353.95l-31.977-151.986c14.454-2.258 70.575-7.952 121.422 12.969 0 0-15.338 55.243.805 75.422 27.574 34.468 33.432 123.367 33.432 123.367s8.547 7.401 24.651 24.571c16.104 17.169 32.979 57.476 32.127 91.161l-2.871 113.465-98.53-10.181-18.298-200.681-31.157 205.831-271.357 39.172s37.308-157.684 113.205-228.438l-37.319-69.945-70.941-96.216c30.563-28.979 79.075-48.945 111.901-58.417z" fill="#FE5236" id="PpCjqbfYltL7U6KxQYr4Z" /><path d="M822.431 530.953h-.039a1.5 1.5 0 0 1-1.461-1.538c.814-32.185-11.647-67.562-31.748-90.125-15.077-16.925-24.368-24.318-24.46-24.391a1.497 1.497 0 0 1-.57-1.138c-.021-.759-2.383-76.379-33.181-122.576a1.5 1.5 0 1 1 2.496-1.664c29.685 44.526 33.344 115.658 33.658 123.465 2.214 1.826 10.917 9.289 24.297 24.308 20.58 23.103 33.339 59.292 32.507 92.197a1.5 1.5 0 0 1-1.499 1.462z" fill="#003029" id="RKBZOEl96mEwoF8gf_PH" /><path d="m165.721 325.456 112.956 71.854 137.202-123.973c69.227-36.992 108.779 86.124 87.256 128.282-31.883 36.672-49.824 51.287-108.665 106.384-25.396 23.78-88.882 74.538-176.033 59.076-89.012-15.793-179.479-77.675-179.479-77.675l126.763-163.95z" fill="#FE5236" id="dlu0X2kSEDhpRAR72a10m" /><rect fill="#FFFFFF" height="40.097" rx="20.049" transform="matrix(-.61622521 .78756999 -.78756999 -.61622521 485.254 576.654)" width="252.525" x="-24.135" y="386.508" id="CKJ1YIWKKxFjCPACF1MH" /><path d="M36.653 511.747a21.449 21.449 0 0 1-13.256-4.568 21.411 21.411 0 0 1-8.111-14.36 21.41 21.41 0 0 1 4.419-15.89l130.903-167.303c7.321-9.355 20.89-11.013 30.251-3.692a21.411 21.411 0 0 1 8.111 14.36 21.41 21.41 0 0 1-4.419 15.89L53.648 503.487c-4.244 5.424-10.589 8.261-16.995 8.261zm-15.767-33.895 1.182.925c-6.303 8.055-4.877 19.735 3.179 26.038 8.054 6.305 19.736 4.879 26.038-3.179l130.903-167.302c6.303-8.055 4.877-19.735-3.178-26.038-8.054-6.303-19.736-4.877-26.039 3.179L22.068 478.778l-1.182-.925zM400.214 678.56a1.499 1.499 0 0 1-.211-2.984l270.254-39.013 30.99-204.731c.114-.751.783-1.311 1.528-1.274a1.5 1.5 0 0 1 1.449 1.363l18.187 199.452 97.303 10.054a1.5 1.5 0 0 1 1.338 1.646 1.512 1.512 0 0 1-1.646 1.338l-98.53-10.181a1.502 1.502 0 0 1-1.34-1.356L702.361 444.52l-29.304 193.593a1.5 1.5 0 0 1-1.27 1.26l-271.356 39.172a1.437 1.437 0 0 1-.216.016zm75.345-245.864a1.498 1.498 0 0 1-1.096-2.522l27.575-29.576a1.499 1.499 0 1 1 2.193 2.045l-27.575 29.576a1.494 1.494 0 0 1-1.097.478zm-1.271-117.695c-.466 0-.926-.217-1.219-.625-.315-.438-31.815-43.802-56.94-39.561a1.496 1.496 0 0 1-1.729-1.229 1.499 1.499 0 0 1 1.229-1.729c26.958-4.577 58.545 38.915 59.876 40.768a1.5 1.5 0 0 1-1.217 2.375zm253.497-57.191a1.5 1.5 0 0 1-1.494-1.391c-.821-11.24-4.658-41.441-12.443-46.146a1.501 1.501 0 0 1 1.551-2.569c10.519 6.355 13.571 44.201 13.885 48.495a1.5 1.5 0 0 1-1.498 1.609z" fill="#003029" id="yHuFzoJg01dPEVloX_n5U" /><path d="M598.353 77.498c-20.606-50.613-60.001-75.622-92.619-68.426-28.007 6.179-35.078 29.09-41.147 43.774-47.209 14.498-40.88 77.156-30.26 99.317 13.185 27.513 18.709 38.796 7.082 51.92-.636.718-.195 1.859.761 1.942 30.395 2.647 67.204-28.343 70.396-53.862 3.073-24.569 60.014 16.18 85.787-74.665z" fill="#FFBBA0" id="CdvPUVzhKSJbE7govvLVu" /><path d="M602.341 92.286c-11.388-43.566-41.494-69.106-86.559-53.378-47.431 16.553-57.618 56.053-43.516 98.01-15.536-10.691-29.146 6.737-23.948 21.866 3.846 11.194 19.77 18.664 35.818 5.809 24.383 32.668 64.461 36.391 97.889 20.83 41.307-19.228 56.017-70.375 20.315-93.138z" fill="#FFA78E" id="tp-v9i8dngDs78Te-WbmN" /><path d="M587.73 92.878a1.5 1.5 0 0 1-1.477-1.25c-1.178-6.956-3.038-9.292-7.508-14.363a1.5 1.5 0 0 1 2.25-1.984c4.626 5.248 6.907 8.114 8.215 15.848a1.499 1.499 0 0 1-1.481 1.75zm-126.897 67.563a1.499 1.499 0 0 1-1.311-2.227l7.514-13.557a1.499 1.499 0 1 1 2.623 1.455l-7.514 13.557a1.497 1.497 0 0 1-1.313.772z" fill="#003029" id="qZwBH04YvZ-UfoLvjrsKw" /><path d="M470.655 157.071c-.24 0-.483-.058-.71-.179l-13.466-7.248a1.5 1.5 0 0 1 1.422-2.642l13.466 7.248a1.5 1.5 0 0 1-.712 2.821z" fill="#003029" id="gc0S_Whad5wtqEIujLJHS" /><path d="M614.483 65.502c-6.86-9.365 5.106-44.685-35.82-61.026-20.832-8.318-60.912-.926-88.676 44.332-30.874 15.378-40.784 44.798-17.722 88.109 9.056 4.408 35.204-28.815 30.539-69.189 22.21-38.742 62.038 4.367 88.351 18.118 25.631 13.394 43.804-4.143 52.483-26.058.526-1.328-1.219-2.397-2.15-1.313-9.499 11.072-20.12 16.426-27.006 7.025z" fill="#FFBBA0" id="kVUePxi6Y2oNO4sc2D4VG" /><path d="M472.267 138.418a1.5 1.5 0 0 1-1.325-.795c-8.524-16.008-12.846-30.679-12.845-43.605a1.5 1.5 0 0 1 3 0c0 12.43 4.202 26.627 12.493 42.195a1.5 1.5 0 0 1-1.323 2.205zm2.75-78.075a1.5 1.5 0 0 1-1.008-2.61c4.173-3.792 9.192-7.18 14.926-10.073 15.91-25.76 34.561-37.329 47.432-42.5 14.999-6.024 31.018-6.801 42.854-2.076a1.502 1.502 0 0 1 .837 1.95 1.499 1.499 0 0 1-1.95.836c-18.638-7.438-58.698-2.151-86.841 43.724a1.499 1.499 0 0 1-.609.559c-5.646 2.813-10.569 6.11-14.631 9.802-.287.261-.648.39-1.009.39z" fill="#003029" id="z1K54Bx5n5aMPpz-rXFum" /><path d="M583.792 128.929c4.3 3.371 13.21 13.927 7.441 19.68-9.233 9.206-22.483-2.436-27.024-9.072 0 0 12.971 10.588 21.641 3.385 6.277-5.215-2.058-13.993-2.058-13.993zm-17.946 1.348c-10.873-4.598-.176-16.662 8.797-10.149 2.507-16.75 17.885-6.192 9.991.862-5.849 4.65-12.101 7.782-18.788 9.286z" fill="#E4634F" id="pnjsyskftCNi4QiuxxCqP" /><path d="M578.767 124.977c9.938 6.145 10.934 14.006 7.082 17.945-4.476 4.577-16.206 4.25-30.166-11.37 8.065.23 15.816-1.592 23.084-6.575z" fill="#FFFFFF" id="s1PBMHzIv32b0R4l7hjtg" /><path d="M578.895 146.982c-.114 0-.229-.002-.346-.004-4.228-.096-12.965-2.096-23.983-14.426a1.5 1.5 0 1 1 2.236-2c10.265 11.486 18.073 13.342 21.814 13.426 2.581.084 4.775-.689 6.16-2.104 1.278-1.308 1.848-3.127 1.604-5.125-.444-3.644-3.507-7.469-8.402-10.496a1.498 1.498 0 1 1 1.578-2.55c5.758 3.56 9.238 8.064 9.803 12.684.356 2.92-.51 5.614-2.438 7.586-1.904 1.947-4.745 3.011-8.026 3.011z" fill="#003029" id="Bo61BY2rkCCd9FjxmzVTX" /><path d="M557.235 133.103c-.557 0-1.107-.018-1.652-.054a1.5 1.5 0 1 1 .203-2.995c10.369.707 23.279-6.302 27.877-10.208a1.5 1.5 0 0 1 1.941 2.287c-5.406 4.592-17.837 10.969-28.369 10.969zm-32.344-2.121a1.498 1.498 0 0 1-1.441-1.917c1.959-6.764 6.196-12.342 11.627-15.304 4.974-2.712 10.867-3.171 17.042-1.327a1.501 1.501 0 0 1-.859 2.875c-5.47-1.634-10.431-1.269-14.746 1.086-4.733 2.582-8.444 7.504-10.183 13.504a1.5 1.5 0 0 1-1.439 1.083zm43.721-22.462a1.5 1.5 0 0 1-1.458-1.854c1.597-6.589 5.389-11.938 10.406-14.674 4.609-2.518 10.16-2.765 16.052-.718.782.271 1.196 1.127.925 1.909s-1.127 1.193-1.909.925c-5.14-1.786-9.728-1.612-13.631.517-4.275 2.333-7.529 6.979-8.927 12.748a1.499 1.499 0 0 1-1.457 1.146z" fill="#003029" id="USH5MOauMd0CIDQL0430" /><path d="M545.838 114.304a1.501 1.501 0 0 1-1.471-1.213c-1.096-5.618-3.833-10.438-7.708-13.573a1.499 1.499 0 0 1-.223-2.109 1.498 1.498 0 0 1 2.109-.223c4.422 3.577 7.535 9.021 8.767 15.331a1.501 1.501 0 0 1-1.475 1.787z" fill="#003029" id="oXl3iYnkaMYwUZqFiSlxt" /><path d="M488.678 543.18c-31.016-27.866-44.35-21.577-50.701-14.766-13.103 14.052 5.57 36.33 15.37 44.327 15.532 12.674 27.911 8.792 31.992 3.225 6.25-8.526 5.759-21.702-14.297-39.3l17.637 6.516z" fill="#DE5D4A" id="IATsYiN5MRtYxLlUzMiQk" /><path d="M499.758 508.011c-36.561-24.918-49.261-16.937-54.491-9.588-11.53 16.202 5.57 37.633 15.67 45.962 16.008 13.201 28.841 9.25 33.096 3.509 6.515-8.791 6.077-22.431-14.587-40.754l20.313.87z" fill="#DE5D4A" id="azXgLNCO6no5JXz46pJe_" /><path d="M481.666 554.744c-5.3 0-12.781-1.862-21.683-9.203-7.26-5.986-20.796-21.255-20.063-36.19a1.499 1.499 0 1 1 2.996.146c-.674 13.747 12.118 28.074 18.976 33.729 9.669 7.973 17.32 8.963 22.035 8.383 3.776-.462 7.104-2.185 8.901-4.609a1.5 1.5 0 0 1 2.411 1.787c-2.312 3.118-6.302 5.232-10.947 5.8a21.47 21.47 0 0 1-2.625.157z" fill="#003029" id="sdCC0XYLi5H1H8aYW8c-8" /><path d="M510.393 484.108c-30.2-30.2-44.086-21.21-51.381-14.909-15.05 12.998 1.681 38.006 10.873 47.327 14.569 14.774 27.74 12.159 32.561 6.885 7.382-8.076 8.345-21.69-10.33-42.035z" fill="#DE5D4A" id="mcJHfXbjQBdLFR0H_BsJX" /><path d="M491.677 529.074c-5.352 0-13.544-2.049-22.859-11.496-7.41-7.514-20.321-25.663-16.142-40.571a1.5 1.5 0 0 1 2.889.811c-3.532 12.597 7.269 29.42 15.39 37.654 8.799 8.925 16.306 10.655 21.061 10.6 3.804-.072 7.289-1.445 9.324-3.672a1.501 1.501 0 0 1 2.215 2.023c-2.618 2.865-6.804 4.559-11.482 4.647-.13.003-.262.004-.395.004z" fill="#003029" id="uyltjzxHeRzj23Rne-xQc" /><path d="M513.862 448.37c-13.273-10.85-27.152-14.155-35.518-8.749-17.258 11.154-3.707 39.136 4.37 49.988 12.801 17.2 26.653 16.405 32.34 11.696 8.708-7.211 11.638-21.006-4.57-44.495 2.035-2.036 3.002-4.984 3.377-8.44z" fill="#DE5D4A" id="wU-k2-GAN5OSEjk4ttVVM" /><g fill="#003029" id="JsfHMqeSn-ZAjik9_5RmE"><path d="M513.855 463.499a1.498 1.498 0 0 1-1.283-.722 104.908 104.908 0 0 0-3.322-5.114l-3.538-5.496a1.5 1.5 0 0 1 2.523-1.623l3.511 5.455a106.88 106.88 0 0 1 3.391 5.222 1.5 1.5 0 0 1-1.281 2.279zm-7.795 42.213c-.798 0-1.609-.049-2.429-.147-5.468-.657-13.744-3.805-22.121-15.061-5.741-7.713-15.712-26.049-12.36-40.237a1.495 1.495 0 0 1 1.805-1.115 1.5 1.5 0 0 1 1.115 1.805c-2.873 12.163 5.511 29.243 11.847 37.757 7.741 10.402 15.189 13.286 20.073 13.873 3.919.472 7.695-.438 10.107-2.437a1.501 1.501 0 0 1 1.914 2.31c-2.553 2.113-6.089 3.252-9.951 3.252zm178.303-67.884c-6.33 0-11.479-5.149-11.479-11.479s5.149-11.479 11.479-11.479 11.479 5.149 11.479 11.479-5.149 11.479-11.479 11.479zm0-19.959c-4.676 0-8.479 3.804-8.479 8.479s3.804 8.479 8.479 8.479 8.479-3.804 8.479-8.479-3.804-8.479-8.479-8.479z" fill="#003029" id="wmQZNrjLzgXUx90yun-a_" /><path d="M702.731 433.556c-.025 0-.051 0-.076-.002a1.5 1.5 0 0 1-1.423-1.573l.677-13.529-76.733-79.805a1.5 1.5 0 0 1 2.162-2.08l77.183 80.272a1.5 1.5 0 0 1 .417 1.115l-.709 14.177a1.5 1.5 0 0 1-1.497 1.425zm-405.724-23.084c-.276 0-.555-.075-.804-.234l-18.332-11.662a1.5 1.5 0 0 1 1.609-2.531l18.332 11.662a1.5 1.5 0 0 1-.806 2.765zm774.029 23.084a1.5 1.5 0 0 1-1.289-2.266l22.751-38.309-16.823 9.354a1.498 1.498 0 1 1-1.457-2.621l21.679-12.054a1.499 1.499 0 0 1 2.019 2.077l-25.588 43.085c-.28.473-.779.734-1.291.734zm60.189 580.248a1.5 1.5 0 0 1-1.484-1.299l-11.587-85.809a1.5 1.5 0 0 1 1.285-1.688 1.494 1.494 0 0 1 1.688 1.285l11.587 85.809a1.5 1.5 0 0 1-1.488 1.702zm10.074-237.019a1.5 1.5 0 0 1-1.335-2.183l15.042-29.412a1.502 1.502 0 0 1 2.672 1.366l-15.042 29.412a1.5 1.5 0 0 1-1.337.817z" fill="#003029" id="RwL1xU-hvbegS5HATqRYP" /></g><path d="M468.347 164.737c8.091 30.06 9.083 61.785 1.641 95.489l42.577-13.305c-4.602-27.525-19.561-54.917-44.218-82.184z" fill="#50B9AD" id="GbDZlJx2brdLhsMaa42In" /><path d="M498.978 252.667a1.5 1.5 0 0 1-1.498-1.456c-.007-.215-.759-21.701-11.319-42.388a1.5 1.5 0 1 1 2.672-1.364c10.879 21.311 11.62 42.761 11.646 43.663a1.5 1.5 0 0 1-1.455 1.543h-.045zm-13.49 4.216a1.5 1.5 0 0 1-1.405-2.025c.032-.087 3.204-8.862 1.219-22.695a1.499 1.499 0 1 1 2.968-.426c2.104 14.651-1.234 23.79-1.378 24.172a1.5 1.5 0 0 1-1.404.974z" fill="#003029" id="UxykSjdvNpUVcToorObQ" /><path d="M904.912 273.072c-5.98 0-11.97-1.594-17.523-4.804-18.657-10.781-28.097-36.528-25.251-68.875a1.5 1.5 0 0 1 2.988.264c-2.741 31.153 6.143 55.832 23.764 66.015 11.078 6.401 24.062 5.769 34.728-1.696 19.082-13.354 26.486-43.963 19.807-81.88a1.5 1.5 0 1 1 2.955-.519c6.887 39.095-.979 70.817-21.041 84.857-6.308 4.414-13.361 6.639-20.426 6.639z" fill="#FFFFFF" id="SInAW-xN3Nh6fJJdjWrcC" /><path d="M902.415 240.926c-7.313 0-14.623-1.824-21.046-5.482-12.577-7.164-19.737-19.933-19.646-35.031a4.001 4.001 0 0 1 3.999-3.976h.025a4 4 0 0 1 3.976 4.024c-.073 12.123 5.615 22.34 15.606 28.031 10.675 6.079 24.381 5.919 34.914-.412 13.097-7.872 19.967-23.815 19.345-44.893a4 4 0 0 1 3.88-4.116c2.197-.051 4.051 1.672 4.116 3.88.96 32.511-14.136 46.525-23.22 51.985-6.634 3.988-14.292 5.988-21.949 5.989z" fill="#FFFFFF" id="ow1hAkMMmcZLLM0EwHyKj" /></g></g><g transform="translate(248.33333333333334 456.6666666666667) rotate(24.881227332406592 192.5 285.0) scale(1.66073546856465 1.6623116046848023)" id="vUzy7Ij6L9fJiLKvQUCdV"><g clip-path="url(#clipPath_6C9hJd8n)" transform="matrix(1 0 0 1 0 0)" id="VJxTc2yJSAHyl8mD8DyYj"><g fill="#FFBBA0" id="uOY8ZyLFXWwCJ2f2Q8IJQ"><path d="M112.149 83.909c-.2 0-.401-.04-.593-.122L65.712 64.054l3.728 6.893a1.5 1.5 0 1 1-2.638 1.427L61.02 61.683a1.5 1.5 0 0 1 1.912-2.092l48.824 21.017 14.369-15.903a1.5 1.5 0 0 1 2.226 2.011l-15.089 16.7a1.5 1.5 0 0 1-1.113.495zM74.83 135.633c-.189 0-.382-.036-.567-.112l-31.724-12.994a1.5 1.5 0 0 1 .072-2.804l41.854-14.683-5.403-9.992a1.5 1.5 0 1 1 2.638-1.427l6.24 11.539a1.5 1.5 0 0 1-.823 2.129l-39.788 13.958 28.069 11.498a1.5 1.5 0 0 1-.57 2.889zm9.942 50.492a1.502 1.502 0 0 1-1.491-1.667l4.972-44.385a1.5 1.5 0 1 1 2.98.334l-4.57 40.806 15.09-11.951a1.5 1.5 0 1 1 1.863 2.352l-17.913 14.187a1.498 1.498 0 0 1-.932.324zm72.79-1.628c-.35 0-.701-.122-.985-.37l-19.487-17.003a1.5 1.5 0 1 1 1.972-2.261l19.487 17.003a1.501 1.501 0 0 1-.987 2.631zm1.79-12.332c-.81 0-1.478-.646-1.498-1.461l-.965-36.835a1.499 1.499 0 0 1 .949-1.435l37.837-14.907a1.5 1.5 0 1 1 1.099 2.791l-36.859 14.522.937 35.786a1.5 1.5 0 0 1-1.46 1.539h-.04zm10.124-65.683c-.234 0-.471-.055-.692-.17l-15.825-8.249a1.501 1.501 0 0 1-.805-1.406l3.022-59.631-15.802 17.488a1.5 1.5 0 1 1-2.226-2.012l18.626-20.614a1.5 1.5 0 0 1 2.612 1.081l-3.187 62.877 14.972 7.804a1.5 1.5 0 0 1-.694 2.83z" fill="#FFBBA0" id="xgquoEkm4Sfr4mFt9ZwHm" /></g><path d="M123.908 342.896a1.5 1.5 0 0 1-1.5-1.5v-223.66a1.5 1.5 0 1 1 3 0v223.66a1.5 1.5 0 0 1-1.5 1.5z" fill="#003029" id="gHGYO7epOCw4VMkbdT8F2" /><path d="M123.908 246.671a4 4 0 0 1-4-4V117.736a4 4 0 0 1 8 0v124.935a4 4 0 0 1-4 4z" fill="#003029" id="NUk5FX_3jYLzkOG0Vj5Yo" /><path d="M105.533 56.052a1.501 1.501 0 0 1-1.455-1.139L90.887 1.862A1.5 1.5 0 0 1 91.981.045a1.495 1.495 0 0 1 1.818 1.094l13.19 53.052a1.5 1.5 0 0 1-1.457 1.862zm73.495 26.76a1.5 1.5 0 0 1-.793-2.774l46.426-28.863a1.5 1.5 0 0 1 1.584 2.548l-46.426 28.863a1.496 1.496 0 0 1-.791.226zm51.297 91.989a1.49 1.49 0 0 1-.682-.165l-48.671-24.894a1.5 1.5 0 1 1 1.366-2.671l48.671 24.894a1.5 1.5 0 0 1-.684 2.836zM52.355 92.279c-.184 0-.37-.034-.551-.105L.95 72.118a1.5 1.5 0 0 1 1.101-2.791l50.854 20.055a1.5 1.5 0 0 1-.551 2.896zm-33.121 92.793a1.5 1.5 0 0 1-.879-2.717l44.335-31.983a1.501 1.501 0 0 1 1.756 2.433l-44.335 31.983a1.498 1.498 0 0 1-.877.284z" fill="#FFBBA0" id="cyS7niiyzC1vvxCnVtiTR" /></g></g></g></g></svg>