<svg xmlns="http://www.w3.org/2000/svg" fill="none" viewBox="0 0 761 609" width="761" height="609"><defs><clipPath id="assetClipPath_8fYTOmfP"><path d="m0 0 h 1021.277 v 1122.894 h -1021.277 v -1122.894 z" id="path_hxYtKNUw" fill="#ffffff" /></clipPath><clipPath id="assetClipPath_4-uosAD7"><path d="m0 0 h 560.573 v 443.222 h -560.573 v -443.222 z" id="path_b5DiEcfh" fill="#ffffff" /></clipPath><clipPath id="assetClipPath_ifyUf4VX"><path d="m0 0 h 74.021 v 106.33 h -74.021 v -106.33 z" id="path_qg-_Avoi" fill="#ffffff" /></clipPath></defs><g transform="" data-asset-index="0"><g clip-path="url(#assetClipPath_8fYTOmfP)" transform="scale(0.4905623058190873 0.4905623058190873)" data-asset-index="0"><path d="m661.087 134.011-294.24-.304.073-70.907c.026-25.261 20.523-45.716 45.783-45.69l202.765.21c25.26.026 45.715 20.524 45.689 45.785l-.073 70.907h.003z" fill="#E4634F" id="lldNFnMPRoCooFLi-iv7" /><ellipse cx="513.488" cy="597.297" fill="#E4634F" rx="496.753" ry="496.739" transform="matrix(.00102974 -.99999947 .99999947 .00102974 -84.341 1110.167)" id="VoUtQKpDPTZkz6cvv6dMo" /><path d="m869.128 1109.861c-23.747 13.679-53.96 7.563-70.521-14.276l-85.504-112.766 124.432-71.67 54.631 130.548c10.58 25.285.709 54.489-23.037 68.165zm-712.344-.737c23.718 13.729 53.944 7.675 70.55-14.131l85.737-112.589-124.283-71.928-54.901 130.434c-10.632 25.263-.822 54.488 22.896 68.213z" fill="#E4634F" id="L-Oxzj7WS_s-SPl1XFh59" /><ellipse cx="513.488" cy="597.297" fill="#FFD7BC" rx="431.302" ry="431.314" id="Svs5fpxd6-YYCTaDMgWGj" /><path d="m513.502 1031.094h-.463c-58.56-.061-115.356-11.59-168.813-34.266-51.633-21.902-97.99-53.229-137.786-93.108s-71.025-86.304-92.82-137.982c-22.565-53.506-33.976-110.328-33.915-168.89.061-58.561 11.589-115.359 34.265-168.818 21.901-51.634 53.227-97.993 93.105-137.79s86.301-71.027 137.979-92.823c53.36-22.505 110.029-33.917 168.421-33.917h.463c58.56.061 115.356 11.589 168.813 34.266 51.632 21.902 97.991 53.228 137.787 93.108 39.795 39.879 71.025 86.303 92.819 137.982 22.565 53.505 33.976 110.328 33.915 168.889s-11.589 115.359-34.264 168.818c-21.902 51.634-53.227 97.993-93.105 137.79s-86.301 71.027-137.979 92.822c-53.36 22.505-110.028 33.917-168.421 33.917zm-.021-862.629c-236.254 0-428.569 192.074-428.813 428.389-.119 114.545 44.375 222.28 125.285 303.36 80.91 81.079 188.549 125.797 303.091 125.915h.456c114.378 0 221.923-44.48 302.896-125.289 81.077-80.912 125.794-188.555 125.912-303.101.245-236.458-191.924-429.031-428.375-429.275h-.45z" fill="#630000" id="AB5YvbnJ_FQJkpK4HUJoP" /><path d="m340.577 133.538c-1.033 0-1.997-.649-2.349-1.681-.443-1.297.25-2.708 1.547-3.151 109.418-37.355 195.972-30.308 196.833-30.231 1.365.12 2.375 1.324 2.255 2.689-.119 1.366-1.336 2.371-2.688 2.256-.852-.074-86.429-7.013-194.796 29.984-.266.09-.536.134-.802.134z" fill="#630000" id="RqwSxJNWPdxnsULHi3oWL" /><path d="m680.072 131.324c-.323 0-.651-.063-.967-.198-.218-.092-22.397-9.359-75.815-20.61-1.341-.283-2.2-1.599-1.917-2.94.282-1.341 1.598-2.199 2.94-1.917 53.994 11.372 75.829 20.515 76.731 20.898 1.262.536 1.85 1.992 1.314 3.254-.401.945-1.32 1.513-2.286 1.513z" fill="#630000" id="Owguud2mSTA0A4_WLnwJY" /><path d="m624.602 931.878c-1.038 0-2.006-.656-2.354-1.695l-110.928-331.542-164.532-164.116c-.97-.968-.972-2.54-.004-3.51.968-.971 2.54-.973 3.51-.004l164.947 164.53c.273.271.479.604.601.97l111.114 332.099c.435 1.3-.267 2.706-1.566 3.141-.261.088-.527.129-.788.129z" fill="#630000" id="YN7NiWBN40brwvp9aTL3b" /><circle cx="513.488" cy="597.297" fill="#E4634F" r="26.951" transform="matrix(.00102974 -.99999947 .99999947 .00102974 -84.341 1110.167)" id="cJ-mVlLaBD7rW6aVnE2lh" /><g fill="#630000" id="MPp5uPm87NL4ZR_XVRM0S"><path d="m107.208 599.735c-1.366 0-2.476-1.104-2.482-2.472-.006-1.371 1.101-2.487 2.472-2.493l63.091-.265h.01c1.366 0 2.476 1.104 2.482 2.472.006 1.371-1.101 2.487-2.472 2.493l-63.091.265z" fill="#630000" id="f1mY0FqZQHmaPNOQJ_VL-" /><path d="m856.743 600.3c-1.366 0-2.476-1.104-2.482-2.472-.006-1.371 1.101-2.487 2.472-2.493l63.091-.265h.01c1.366 0 2.476 1.104 2.482 2.472.006 1.371-1.101 2.487-2.472 2.493l-63.091.265z" fill="#630000" id="jAHc6r5amyxx5lo7z_rDb" /><path d="m513.997 256.51c-1.367 0-2.477-1.104-2.482-2.472l-.249-63.091c-.005-1.371 1.102-2.486 2.472-2.492h.01c1.367 0 2.477 1.104 2.482 2.472l.249 63.091c.005 1.371-1.102 2.486-2.472 2.492z" fill="#630000" id="fCPvSnqXgOIyJj_qyx1LM" /><path d="m513.066 1005.074c-1.371 0-2.482-1.112-2.481-2.483l.014-61.877c0-1.37 1.111-2.481 2.482-2.481 1.371 0 2.482 1.112 2.481 2.483l-.014 61.877c0 1.37-1.111 2.481-2.482 2.481z" fill="#630000" id="eZ6qBlpO6TaLDNNxnSlHM" /><path d="m270.214 357.762c-.632 0-1.264-.24-1.748-.72l-44.8-44.425c-.974-.965-.98-2.537-.015-3.51.964-.974 2.536-.98 3.51-.015l44.8 44.425c.974.965.98 2.537.015 3.51-.485.489-1.124.734-1.762.734z" fill="#630000" id="pyNnZSEJIlDBnikuzD3" /><path d="m799.815 888.164c-.632 0-1.264-.24-1.748-.72l-44.8-44.425c-.974-.966-.98-2.537-.015-3.511.964-.974 2.536-.979 3.51-.015l44.8 44.425c.974.966.98 2.537.015 3.511-.485.489-1.124.734-1.762.734z" fill="#630000" id="ENImPRjdRse0shMKiF7RG" /><path d="m755.753 358.285c-.632 0-1.264-.24-1.748-.72-.973-.965-.979-2.537-.014-3.51l44.437-44.788c.964-.974 2.537-.98 3.51-.014.973.965.979 2.537.014 3.51l-44.437 44.788c-.485.489-1.124.734-1.762.734z" fill="#630000" id="zzoaBDxadDMff8sriZNsC" /><path d="m225.78 886.942c-.635 0-1.271-.243-1.755-.728-.969-.97-.969-2.541 0-3.511l43.763-43.743c.97-.97 2.541-.967 3.51 0 .969.97.969 2.541 0 3.511l-43.764 43.743c-.484.484-1.12.727-1.754.727z" fill="#630000" id="JMXq9L9k3-omLqFCI5H13" /><path d="m305.974 1051.242c-.328 0-.661-.065-.981-.203-.632-.272-64.034-27.986-137.025-93.507-1.02-.915-1.104-2.484-.189-3.505s2.485-1.105 3.505-.188c72.342 64.938 135.048 92.372 135.673 92.642 1.259.543 1.839 2.003 1.297 3.262-.405.938-1.32 1.5-2.281 1.5z" fill="#630000" id="jrt4qiX83VTESuunXvLbc" /><path d="m730.355 1046.816c-.935 0-1.83-.53-2.251-1.434-.579-1.242-.042-2.719 1.201-3.298.783-.365 79.016-37.27 139.384-101.09.942-.996 2.513-1.039 3.509-.097.996.941 1.04 2.513.098 3.509-61.039 64.528-140.102 101.808-140.893 102.177-.339.157-.696.232-1.047.232z" fill="#630000" id="OX0yWE-sjve5b0585nDIC" /></g></g></g><g transform="translate(734 268) rotate(11.834867521729514 -192.5 152.5) scale(-1 1)" data-asset-index="1"><g clip-path="url(#assetClipPath_4-uosAD7)" transform="scale(0.6867972592329634 0.6867972592329634)" data-asset-index="1"><path d="m0 441.722h457.486l50.793-401.028h-457.486z" fill="#24968B" id="Y3q5wuYgSRGww_a4ymgca" /><path d="m197.794 45.373c-.685 0-1.303-.472-1.462-1.167-.417-1.834-.751-3.724-.992-5.617-1.194-9.395-.096-18.532 3.096-25.729 3.303-7.448 8.459-11.976 14.519-12.746.826-.098 1.573.477 1.678 1.299s-.478 1.573-1.299 1.678c-4.978.633-9.295 4.534-12.155 10.985-2.973 6.704-3.988 15.274-2.861 24.134.229 1.798.545 3.591.941 5.33.184.808-.322 1.611-1.13 1.796-.113.026-.224.037-.335.037z" fill="#25242E" id="MVBtZLiBDUO612KDJV6zz" /><path d="m91.045 45.373c-.685 0-1.303-.472-1.462-1.167-.417-1.834-.751-3.724-.992-5.617-1.194-9.395-.096-18.532 3.096-25.729 3.303-7.448 8.459-11.976 14.519-12.746.82-.098 1.573.477 1.678 1.299s-.478 1.573-1.299 1.678c-4.978.633-9.295 4.534-12.155 10.985-2.973 6.704-3.988 15.274-2.861 24.134.229 1.798.545 3.591.941 5.33.184.808-.322 1.611-1.13 1.796-.113.026-.224.037-.335.037z" fill="#25242E" id="mmIQBi-2M6zqUznIObrw" /><path d="m304.74 45.373c-.685 0-1.303-.472-1.462-1.167-.417-1.834-.751-3.724-.992-5.617-1.194-9.395-.096-18.532 3.096-25.729 3.303-7.448 8.459-11.976 14.519-12.746.821-.098 1.573.477 1.678 1.299s-.478 1.573-1.299 1.678c-4.978.633-9.295 4.534-12.155 10.985-2.973 6.704-3.988 15.274-2.861 24.134.229 1.798.545 3.591.941 5.33.184.808-.322 1.611-1.13 1.796-.114.026-.225.037-.335.037z" fill="#25242E" id="CBGjI80tZGgXOPlTlgKE4" /><path d="m411.655 45.373c-.685 0-1.303-.472-1.462-1.167-.417-1.834-.751-3.724-.992-5.617-1.194-9.395-.096-18.532 3.096-25.729 3.303-7.448 8.459-11.976 14.519-12.746.822-.098 1.573.477 1.678 1.299s-.478 1.573-1.299 1.678c-4.978.633-9.295 4.534-12.155 10.985-2.973 6.704-3.988 15.274-2.861 24.134.229 1.798.545 3.591.941 5.33.184.808-.322 1.611-1.13 1.796-.114.026-.225.037-.335.037z" fill="#25242E" id="nXoJRqvESro7yyAy1u_7E" /><path d="m559.073 441.722h-457.486l-50.794-401.028h457.486z" fill="#FFFFFF" id="p1-L03bkPsDQl68AGaJAM" /><path d="m559.073 443.222h-457.486c-.756 0-1.394-.562-1.488-1.312l-50.794-401.028c-.054-.428.078-.857.363-1.181.284-.322.694-.508 1.125-.508h457.487c.756 0 1.394.562 1.488 1.312l50.793 401.028c.054.427-.078.857-.363 1.181-.284.322-.695.508-1.125.508zm-456.163-3h454.461l-50.414-398.028h-454.461z" fill="#25242E" id="Z3vKIPfwbY3Q9zubZfDDH" /><path d="m109.558 258.821h98.703l10.34 81.635h-98.704z" fill="#FF7964" id="U6zXwGKRJfuhVqiKuf0LB" /><path d="m286.285 95.55h98.704l10.34 81.635h-98.704z" fill="#FF7964" id="gfFguaK4RCwXLnPNrVAw4" /><ellipse cx="122.4" cy="68.122" fill="#24968B" rx="9.135" ry="11.696" transform="matrix(.992 -.1262 .1262 .992 -7.6165 15.9869)" id="NZs_5xeLRbhocjqsaVdQx" /><ellipse cx="229.282" cy="68.122" fill="#24968B" rx="9.135" ry="11.696" transform="matrix(.992 -.1262 .1262 .992 -6.7625 29.4715)" id="tUJTm6WqHnwA9GJzOr0ek" /><ellipse cx="336.163" cy="68.122" fill="#24968B" rx="9.135" ry="11.696" transform="matrix(.992 -.1262 .1262 .992 -5.9084 42.9562)" id="LrJ9kaZ2TT9XxtwNND111" /><ellipse cx="443.045" cy="68.122" fill="#24968B" rx="9.135" ry="11.696" transform="matrix(.992 -.1262 .1262 .992 -5.0544 56.4408)" id="iT3vLCccZCge8OcXKal7j" /><path d="m115.083 71.443c-.744 0-1.39-.553-1.486-1.311-.104-.822.478-1.573 1.299-1.678 4.979-.633 9.295-4.534 12.155-10.985 2.973-6.704 3.988-15.275 2.861-24.135-1.126-8.859-4.256-16.903-8.812-22.649-4.384-5.531-9.544-8.226-14.517-7.594-.819.101-1.572-.477-1.678-1.299-.104-.822.478-1.573 1.299-1.678 6.062-.771 12.185 2.321 17.247 8.707 4.891 6.169 8.242 14.739 9.437 24.134 1.194 9.396.096 18.532-3.096 25.729-3.303 7.448-8.459 11.976-14.519 12.746-.063.009-.126.013-.19.013z" fill="#25242E" id="W_pr_hiDrhwiyrkHXY6jA" /><path d="m221.832 71.443c-.744 0-1.39-.553-1.486-1.311-.104-.822.478-1.573 1.299-1.678 4.979-.633 9.295-4.534 12.155-10.985 2.973-6.704 3.988-15.275 2.861-24.135-1.126-8.859-4.256-16.903-8.812-22.649-4.384-5.531-9.54-8.226-14.517-7.594-.814.101-1.572-.477-1.678-1.299-.104-.822.478-1.573 1.299-1.678 6.06-.771 12.184 2.321 17.247 8.707 4.891 6.169 8.242 14.739 9.437 24.134 1.194 9.396.096 18.532-3.096 25.729-3.303 7.448-8.459 11.976-14.519 12.746-.063.009-.126.013-.19.013z" fill="#25242E" id="rhJnM9Qhz0gmhFyG7UDFo" /><path d="m328.779 71.443c-.744 0-1.39-.553-1.486-1.311-.104-.822.478-1.573 1.299-1.678 10.571-1.345 17.308-17.1 15.017-35.12s-12.767-31.583-23.33-30.243c-.818.101-1.572-.477-1.678-1.299-.104-.822.478-1.573 1.299-1.678 12.216-1.544 24.184 13.179 26.685 32.841 2.5 19.662-5.402 36.922-17.614 38.476-.065.008-.129.012-.192.012z" fill="#25242E" id="eEgqDtyHRxNQBJh6zov9q" /><path d="m435.693 71.443c-.744 0-1.39-.553-1.486-1.311-.104-.822.478-1.573 1.299-1.678 4.979-.633 9.295-4.534 12.155-10.985 2.973-6.704 3.988-15.275 2.861-24.135-1.126-8.859-4.256-16.903-8.812-22.649-4.384-5.531-9.543-8.226-14.517-7.594-.817.101-1.573-.477-1.678-1.299s.478-1.573 1.299-1.678c6.062-.771 12.185 2.321 17.247 8.707 4.891 6.169 8.242 14.739 9.437 24.134 1.194 9.396.096 18.532-3.096 25.729-3.303 7.448-8.459 11.976-14.519 12.746-.063.009-.127.013-.19.013z" fill="#25242E" id="JOaeCuEv5HbbDK2I5BFlf" /><path d="m197.922 177.185h98.703l10.34 81.636h-98.704z" fill="#FF7964" id="hh_1ydB0NU_4u7RXY60VX" /><path d="m296.625 177.185h98.704l10.34 81.636h-98.704z" fill="#FF7964" id="sROLZ571jpLRP8Hkfoak" /><g fill="#25242E" id="IKwlWiUFi_8s7ZK9bvVPi"><path d="m228.939 423.591c-.744 0-1.391-.554-1.486-1.312l-41.36-326.54c-.104-.822.478-1.572 1.3-1.677.82-.097 1.573.479 1.677 1.3l41.359 326.541c.104.822-.478 1.572-1.3 1.677-.063.007-.128.011-.19.011z" fill="#25242E" id="TM1Owwgob2MdONDybSxVq" /><path d="m327.643 423.591c-.744 0-1.391-.554-1.486-1.312l-41.36-326.54c-.104-.822.478-1.572 1.3-1.677.822-.097 1.573.479 1.677 1.3l41.359 326.541c.104.822-.478 1.572-1.3 1.677-.063.007-.127.011-.19.011z" fill="#25242E" id="aX5y-6LZ8RXvuu1Mmg" /><path d="m426.346 423.591c-.744 0-1.391-.554-1.486-1.312l-41.36-326.54c-.104-.822.478-1.572 1.3-1.677.819-.097 1.573.479 1.677 1.3l41.359 326.541c.104.822-.478 1.572-1.3 1.677-.063.007-.127.011-.19.011z" fill="#25242E" id="LJapLSOUdMQrl_DG4u7Mw" /><path d="m493.997 178.685h-394.779c-.828 0-1.5-.672-1.5-1.5s.672-1.5 1.5-1.5h394.778c.828 0 1.5.672 1.5 1.5s-.671 1.5-1.499 1.5z" fill="#25242E" id="ZWXOarUdKJV0RQQ8ab2w3" /><path d="m504.3 260.321h-394.619c-.828 0-1.5-.672-1.5-1.5s.672-1.5 1.5-1.5h394.619c.828 0 1.5.672 1.5 1.5s-.672 1.5-1.5 1.5z" fill="#25242E" id="V4rXCb6RUcuNR1hZ2Rq3" /><path d="m514.603 341.956h-394.705c-.828 0-1.5-.672-1.5-1.5s.672-1.5 1.5-1.5h394.705c.828 0 1.5.672 1.5 1.5s-.672 1.5-1.5 1.5z" fill="#25242E" id="GeXhck-WZhNyKnJeu8J4u" /></g></g></g><g transform="translate(520 90)" data-asset-index="2"><g clip-path="url(#assetClipPath_ifyUf4VX)" transform="scale(1.3509679685494658 1.3509679685494658)" data-asset-index="2"><path d="m28.574 55.776 8.431-55.776 7.91 55.776 29.106 6.284-29.106 8.525-7.91 35.745-8.431-35.745-28.574-8.525z" fill="#56B1F0" id="cF2YnMzGZYT1BIu_Dz0jB" /></g></g></svg>