<svg xmlns="http://www.w3.org/2000/svg" fill="none" viewBox="0 0 1700 1600" width="1700" height="1600"><defs><clipPath id="assetClipPath_NovQlZ_6"><path d="m0 0 h 210.319 v 199.89 h -210.319 v -199.89 z" id="path_OstOzQHG" fill="#ffffff" /></clipPath><clipPath id="assetClipPath_u9boal_Q"><path d="m0 0 h 266.489 v 279.511 h -266.489 v -279.511 z" id="path_bsih27Vq" fill="#ffffff" /></clipPath><clipPath id="assetClipPath_XzqRoo8_"><path d="m0 0 h 360.374 v 413.835 h -360.374 v -413.835 z" id="path_DkPEstIk" fill="#ffffff" /></clipPath><clipPath id="assetClipPath_V0Jq8X2u"><path d="m0 0 h 250.331 v 266.758 h -250.331 v -266.758 z" id="path_pK41M1Rt" fill="#ffffff" /></clipPath><clipPath id="assetClipPath_iiiwDqpM"><path d="m0 0 h 228.811 v 194.227 h -228.811 v -194.227 z" id="path_1-wuBFiP" fill="#ffffff" /></clipPath><clipPath id="assetClipPath_2aJaE3NC"><path d="m0 0 h 64.53 v 84.794 h -64.53 v -84.794 z" id="path_jMcmRbUw" fill="#ffffff" /></clipPath><clipPath id="assetClipPath_wvLZMdCX"><path d="m0 0 h 64.53 v 84.794 h -64.53 v -84.794 z" id="path_ssHKgQGw" fill="#ffffff" /></clipPath><clipPath id="assetClipPath_6EB3Bfn9"><path d="m0 0 h 64.53 v 84.794 h -64.53 v -84.794 z" id="path_k3M8GwFX" fill="#ffffff" /></clipPath><clipPath id="assetClipPath_VkdHpGVO"><path d="m0 0 h 64.53 v 84.794 h -64.53 v -84.794 z" id="path_xFqzZphM" fill="#ffffff" /></clipPath></defs><g transform="translate(963 1149)" data-asset-index="0"><g clip-path="url(#assetClipPath_NovQlZ_6)" transform="scale(1.592818528045493 1.592818528045493)" data-asset-index="0"><path d="m176.824 176.732-34.963 21.658-36.701-21.658-35.586 21.658-35.042-21.658-33.032 21.658v-196.89h207.319v196.89z" fill="#FFD7BC" id="HsOibT3oeT6KU6q13UgYq" /><path d="m1.5 199.89c-.245 0-.49-.06-.713-.18-.485-.262-.787-.769-.787-1.32v-196.89c0-.828.672-1.5 1.5-1.5h207.319c.398 0 .779.158 1.061.439s.439.663.439 1.061v196.89c0 .555-.307 1.065-.797 1.325-.491.26-1.084.228-1.544-.083l-31.19-21.113-34.136 21.146c-.475.294-1.073.3-1.552.017l-35.928-21.201-34.817 21.191c-.482.293-1.088.291-1.568-.005l-34.23-21.156-32.235 21.134c-.248.163-.535.245-.822.245zm103.659-24.658c.264 0 .527.069.762.208l35.921 21.197 34.191-21.18c.503-.312 1.142-.298 1.631.033l29.654 20.073v-192.564h-204.318v192.613l30.709-20.135c.486-.32 1.116-.328 1.611-.022l34.26 21.174 34.799-21.18c.24-.144.51-.217.78-.217z" fill="#630000" id="U8VoE0mzaU2JjZ-UuE-Fz" /><path d="m24.989 28.17h160.34v88.019h-160.34z" fill="#E4634F" id="XjUJH4uEK4dgh4fjtkN5k" /><path d="m185.33 141.015h-160.341c-.829 0-1.5-.672-1.5-1.5s.671-1.5 1.5-1.5h160.34c.829 0 1.5.672 1.5 1.5s-.671 1.5-1.499 1.5z" fill="#630000" id="im4Bh_JOgWgoaYh7viNde" /></g></g><g transform="translate(247 163)" data-asset-index="1"><g clip-path="url(#assetClipPath_u9boal_Q)" transform="scale(1.5910600437541513 1.5910600437541513)" data-asset-index="1"><path d="m1.5 1.5h263.489v276.511h-263.489z" fill="#FFD7BC" id="VHg4rzqXJ_i_GlkYvxar" /><path d="m27.415 26.312h122.553v139.308h-122.553z" fill="#FF806A" id="IzUQghG9n3agkx4ij9zxp" /><g fill="#630000" id="o4oyxr-uORvRzk16YrKFI"><path d="m239.074 27.787h-66c-.829 0-1.5-.672-1.5-1.5s.671-1.5 1.5-1.5h66c.829 0 1.5.672 1.5 1.5s-.671 1.5-1.5 1.5z" fill="#630000" id="YDRIg8Kln_f9i23yf6qUI" /><path d="m239.074 62.62h-66c-.829 0-1.5-.672-1.5-1.5s.671-1.5 1.5-1.5h66c.829 0 1.5.672 1.5 1.5s-.671 1.5-1.5 1.5z" fill="#630000" id="OegMuH_7fI7-dg2i9V_pH" /><path d="m239.074 97.453h-66c-.829 0-1.5-.672-1.5-1.5s.671-1.5 1.5-1.5h66c.829 0 1.5.672 1.5 1.5s-.671 1.5-1.5 1.5z" fill="#630000" id="OxLngyz_HUZB8spFEj3UM" /><path d="m239.074 132.287h-66c-.829 0-1.5-.672-1.5-1.5s.671-1.5 1.5-1.5h66c.829 0 1.5.672 1.5 1.5s-.671 1.5-1.5 1.5z" fill="#630000" id="fYtw9qB9nMfY15P4JRIIP" /><path d="m239.074 167.12h-66c-.829 0-1.5-.672-1.5-1.5s.671-1.5 1.5-1.5h66c.829 0 1.5.672 1.5 1.5s-.671 1.5-1.5 1.5z" fill="#630000" id="EIO5vA8dMvors-5PrtUK" /><path d="m239.074 201.953h-211.659c-.829 0-1.5-.672-1.5-1.5s.671-1.5 1.5-1.5h211.66c.829 0 1.5.672 1.5 1.5s-.672 1.5-1.501 1.5z" fill="#630000" id="wTjP-J_aI06aVR2bV0EmV" /><path d="m239.074 236.787h-211.659c-.829 0-1.5-.672-1.5-1.5s.671-1.5 1.5-1.5h211.66c.829 0 1.5.672 1.5 1.5s-.672 1.5-1.501 1.5z" fill="#630000" id="Z1t0_BmXyQAyUjfQumr" /><path d="m264.99 279.511h-263.49c-.829 0-1.5-.672-1.5-1.5v-276.511c0-.828.671-1.5 1.5-1.5h263.49c.829 0 1.5.672 1.5 1.5v276.511c0 .828-.672 1.5-1.5 1.5zm-261.99-3h260.49v-273.511h-260.49z" fill="#630000" id="WX8KmdZP2nairei54aW" /></g></g></g><g transform="translate(583 456)" data-asset-index="2"><g clip-path="url(#assetClipPath_XzqRoo8_)" transform="scale(1.590014817939141 1.590014817939141)" data-asset-index="2"><path d="m1.5 1.5h357.374v410.835h-357.374z" fill="#FFD7BC" id="TtX-pn2Iokm6DAT-tKoiQ" /><path d="m358.874 413.835h-357.374c-.829 0-1.5-.672-1.5-1.5v-410.835c0-.828.671-1.5 1.5-1.5h357.374c.829 0 1.5.672 1.5 1.5v410.835c0 .828-.671 1.5-1.5 1.5zm-355.874-3h354.374v-407.835h-354.374z" fill="#630000" id="xBo7tQMQPkjD_ZyluMSSu" /><g fill="#E4634F" id="L8-BmjfCTTKf6KJPYi8_6"><path d="m203.687 283.315h-47v-76.335h23.5c30.698 0 55.673-24.975 55.673-55.673s-24.975-55.673-55.673-55.673-55.673 24.975-55.673 55.673h-47c0-56.614 46.059-102.673 102.673-102.673s102.673 46.059 102.673 102.673c0 48.532-33.845 89.307-79.173 99.96z" fill="#E4634F" id="GCkFUk08lof2b8JhT0N2U" /><circle cx="180.187" cy="340.264" r="26.085" fill="#E4634F" id="E2imvJpEwkXnrK5uscIPq" /></g></g></g><g transform="translate(1069 276)" data-asset-index="3"><g clip-path="url(#assetClipPath_V0Jq8X2u)" transform="scale(1.5898949790477408 1.5898949790477408)" data-asset-index="3"><path d="m78.788 121.258h170.043v144h-170.043z" fill="#FFD7BC" id="R44e4Yv4peMQTlxw2bnBe" /><path d="m248.831 266.758h-170.043c-.829 0-1.5-.672-1.5-1.5v-144c0-.828.671-1.5 1.5-1.5h170.043c.829 0 1.5.672 1.5 1.5v144c-0 .828-.671 1.5-1.5 1.5zm-168.543-3h167.043v-141h-167.043z" fill="#630000" id="mVutJOmiosInRpFw78Cgn" /><path d="m91.044 135.811h145.532v97.277h-145.532z" fill="#24968B" id="nbM7PkaA5jPw6doW9wkT" /><path d="m1.5 1.5h179.087v151.66h-179.087z" fill="#FFD7BC" id="Gh-Z7FM05v_95_paVdqoX" /><path d="m180.588 154.66h-179.088c-.829 0-1.5-.672-1.5-1.5v-151.66c0-.828.671-1.5 1.5-1.5h179.087c.829 0 1.5.672 1.5 1.5v151.66c.001.828-.671 1.5-1.499 1.5zm-177.588-3h176.087v-148.66h-176.087z" fill="#630000" id="W-9KQ3itcOENsr0db2uXh" /><path d="m14.407 16.827h153.273v102.451h-153.273z" fill="#249F93" id="S3_O2vJOvXXUFwXXsWOXE" /></g></g><g transform="translate(275 882)" data-asset-index="4"><g clip-path="url(#assetClipPath_iiiwDqpM)" transform="scale(1.5908326085721403 1.5908326085721403)" data-asset-index="4"><path d="m1.5 1.5h225.811v191.227h-225.811z" fill="#FFD7BC" id="FlkHc2Bav9rszcd4jZGNH" /><path d="m227.311 194.227h-225.811c-.829 0-1.5-.672-1.5-1.5v-191.227c0-.828.672-1.5 1.5-1.5h225.811c.829 0 1.5.672 1.5 1.5v191.227c0 .829-.672 1.5-1.5 1.5zm-224.311-3h222.811v-188.227h-222.811z" fill="#003029" id="aYSk84SBe4tGNPA03VZuq" /><path d="m17.775 20.826h193.261v151.61h-193.261z" fill="#25968A" id="fHrOO3bxQd589SDtlMkGX" /></g></g><g transform="translate(1245 1084) rotate(9.222758610424785 -51.5 68.5) scale(-1 1)" data-asset-index="5"><g clip-path="url(#assetClipPath_2aJaE3NC)" transform="scale(1.5961568262823493 1.5961568262823493)" data-asset-index="5"><path d="m53.204 83.294-29.947-33.582 20.873-10.489z" fill="#FFFFFF" id="HmEBYUWVD3v6-AFCszDxK" /><path d="m53.205 84.794c-.417 0-.828-.174-1.12-.502l-29.948-33.582c-.311-.348-.441-.821-.354-1.279s.383-.85.8-1.059l20.874-10.489c.416-.209.907-.213 1.327-.01s.721.591.815 1.047l9.074 44.071c.137.665-.189 1.338-.796 1.643-.213.108-.444.16-.672.16zm-27.526-34.62 24.931 27.957-7.554-36.689z" fill="#25242E" id="mPdrgeqx1uz5tWWE9hUTk" /><ellipse cx="34.119" cy="45.313" fill="#56B1F0" rx="15.086" ry="10.649" transform="matrix(.8935 -.449 .449 .8935 -16.7133 20.1441)" id="gEq4dGBH-GEaxeZZ3kCwk" /><g fill="#56B1F0" id="g7gteWVOj6Kma55J6yk2I"><ellipse cx="35.679" cy="48.419" rx="30.423" ry="21.475" transform="matrix(.8935 -.449 .449 .8935 -17.9416 21.1755)" fill="#56B1F0" id="kiq8V075OqZKprCCcf0_d" /><path d="m47.598 38.54-26.959 13.547-19.139-28.205 34.888-17.532z" fill="#56B1F0" id="E13oz6zpKEptskFlGy6r" /><ellipse cx="18.944" cy="15.116" rx="19.523" ry="13.781" transform="matrix(.8935 -.449 .449 .8935 -4.7703 10.1156)" fill="#56B1F0" id="djtHpra_ZCrWmebXhX0_w" /></g><path d="m13.936 31.71c-6.146 0-11.437-2.499-13.776-7.154-.372-.74-.073-1.642.667-2.014.738-.371 1.641-.074 2.014.667 3.041 6.051 12.738 7.343 21.618 2.881 4.385-2.204 7.891-5.461 9.873-9.171 1.89-3.539 2.145-7.053.717-9.894-.372-.74-.073-1.642.667-2.014.739-.371 1.642-.074 2.014.667 1.878 3.737 1.611 8.231-.751 12.655-2.271 4.252-6.238 7.959-11.172 10.439-3.955 1.985-8.077 2.938-11.871 2.938z" fill="#25242E" id="X08ZSEE-Ua6PBeMVNCh6O" /><path d="m30.257 58.473c-4.847 0-9.034-1.971-10.92-5.637l-9.348-14.473c-.449-.696-.25-1.625.446-2.074s1.625-.25 2.074.446l9.389 14.538c.029.045.056.092.08.14 2.266 4.507 9.553 5.438 16.248 2.075 3.326-1.671 5.983-4.137 7.481-6.943 1.407-2.634 1.602-5.238.55-7.332-.024-.048-.046-.098-.064-.148l-6.065-16.219c-.291-.776.104-1.64.879-1.93.775-.289 1.64.103 1.93.88l6.039 16.147c1.461 2.974 1.241 6.527-.622 10.016-1.787 3.347-4.906 6.263-8.781 8.21-3.1 1.557-6.333 2.304-9.316 2.304z" fill="#25242E" id="PqO2m9HcHqqheC4q769ip" /></g></g><g transform="translate(224 138)" data-asset-index="6"><g clip-path="url(#assetClipPath_wvLZMdCX)" transform="scale(1.5806601580660158 1.5806601580660158)" data-asset-index="6"><path d="m53.204 83.294-29.947-33.582 20.873-10.489z" fill="#FFFFFF" id="OUjPX4aMA2Jqdsymdg-TU" /><path d="m53.205 84.794c-.417 0-.828-.174-1.12-.502l-29.948-33.582c-.311-.348-.441-.821-.354-1.279s.383-.85.8-1.059l20.874-10.489c.416-.209.907-.213 1.327-.01s.721.591.815 1.047l9.074 44.071c.137.665-.189 1.338-.796 1.643-.213.108-.444.16-.672.16zm-27.526-34.62 24.931 27.957-7.554-36.689z" fill="#25242E" id="IY-lVx5ZBDVnh4yZrpCpi" /><ellipse cx="34.119" cy="45.313" fill="#56B1F0" rx="15.086" ry="10.649" transform="matrix(.8935 -.449 .449 .8935 -16.7133 20.1441)" id="mSlqbalvOGr4hPuf2M6DD" /><g fill="#24968B" id="U-fTPVcJyUASiFxog_Vmf"><ellipse cx="35.679" cy="48.419" rx="30.423" ry="21.475" transform="matrix(.8935 -.449 .449 .8935 -17.9416 21.1755)" fill="#24968B" id="pBpAH4VSaclHJEfEyc7Ig" /><path d="m47.598 38.54-26.959 13.547-19.139-28.205 34.888-17.532z" fill="#24968B" id="u55lLBs_wz_7N_WdId2Xq" /><ellipse cx="18.944" cy="15.116" rx="19.523" ry="13.781" transform="matrix(.8935 -.449 .449 .8935 -4.7703 10.1156)" fill="#24968B" id="FGbRu8IIiHgt-DvrzFr6e" /></g><path d="m13.936 31.71c-6.146 0-11.437-2.499-13.776-7.154-.372-.74-.073-1.642.667-2.014.738-.371 1.641-.074 2.014.667 3.041 6.051 12.738 7.343 21.618 2.881 4.385-2.204 7.891-5.461 9.873-9.171 1.89-3.539 2.145-7.053.717-9.894-.372-.74-.073-1.642.667-2.014.739-.371 1.642-.074 2.014.667 1.878 3.737 1.611 8.231-.751 12.655-2.271 4.252-6.238 7.959-11.172 10.439-3.955 1.985-8.077 2.938-11.871 2.938z" fill="#25242E" id="yd8zY979wzdiaf4JXo82S" /><path d="m30.257 58.473c-4.847 0-9.034-1.971-10.92-5.637l-9.348-14.473c-.449-.696-.25-1.625.446-2.074s1.625-.25 2.074.446l9.389 14.538c.029.045.056.092.08.14 2.266 4.507 9.553 5.438 16.248 2.075 3.326-1.671 5.983-4.137 7.481-6.943 1.407-2.634 1.602-5.238.55-7.332-.024-.048-.046-.098-.064-.148l-6.065-16.219c-.291-.776.104-1.64.879-1.93.775-.289 1.64.103 1.93.88l6.039 16.147c1.461 2.974 1.241 6.527-.622 10.016-1.787 3.347-4.906 6.263-8.781 8.21-3.1 1.557-6.333 2.304-9.316 2.304z" fill="#25242E" id="Va5DR6s-yCFNXyKCdl98T" /></g></g><g transform="translate(516 801) rotate(-9.791636284024326 -53 69.5) scale(-1 1)" data-asset-index="7"><g clip-path="url(#assetClipPath_6EB3Bfn9)" transform="scale(1.6426468309313498 1.6426468309313498)" data-asset-index="7"><path d="m53.204 83.294-29.947-33.582 20.873-10.489z" fill="#FFFFFF" id="SsRezeFoCu8cHdN6EtkuX" /><path d="m53.205 84.794c-.417 0-.828-.174-1.12-.502l-29.948-33.582c-.311-.348-.441-.821-.354-1.279s.383-.85.8-1.059l20.874-10.489c.416-.209.907-.213 1.327-.01s.721.591.815 1.047l9.074 44.071c.137.665-.189 1.338-.796 1.643-.213.108-.444.16-.672.16zm-27.526-34.62 24.931 27.957-7.554-36.689z" fill="#25242E" id="NxiiRHpCBTSDkbkqvuEYO" /><ellipse cx="34.119" cy="45.313" fill="#56B1F0" rx="15.086" ry="10.649" transform="matrix(.8935 -.449 .449 .8935 -16.7133 20.1441)" id="skGnHddINc5F8S-AHe3kA" /><g fill="#F0E760" id="HfTGgTKG7_XbV-1Wb6Hp1"><ellipse cx="35.679" cy="48.419" rx="30.423" ry="21.475" transform="matrix(.8935 -.449 .449 .8935 -17.9416 21.1755)" fill="#F0E760" id="e-kO0yg1SzskApohjv0WE" /><path d="m47.598 38.54-26.959 13.547-19.139-28.205 34.888-17.532z" fill="#F0E760" id="ojk343Yfg1ykLd4_rRaJ" /><ellipse cx="18.944" cy="15.116" rx="19.523" ry="13.781" transform="matrix(.8935 -.449 .449 .8935 -4.7703 10.1156)" fill="#F0E760" id="gRFrO-sp7Lqser0uAtnKT" /></g><path d="m13.936 31.71c-6.146 0-11.437-2.499-13.776-7.154-.372-.74-.073-1.642.667-2.014.738-.371 1.641-.074 2.014.667 3.041 6.051 12.738 7.343 21.618 2.881 4.385-2.204 7.891-5.461 9.873-9.171 1.89-3.539 2.145-7.053.717-9.894-.372-.74-.073-1.642.667-2.014.739-.371 1.642-.074 2.014.667 1.878 3.737 1.611 8.231-.751 12.655-2.271 4.252-6.238 7.959-11.172 10.439-3.955 1.985-8.077 2.938-11.871 2.938z" fill="#25242E" id="l6wAUpg44vSTmGDC-O0" /><path d="m30.257 58.473c-4.847 0-9.034-1.971-10.92-5.637l-9.348-14.473c-.449-.696-.25-1.625.446-2.074s1.625-.25 2.074.446l9.389 14.538c.029.045.056.092.08.14 2.266 4.507 9.553 5.438 16.248 2.075 3.326-1.671 5.983-4.137 7.481-6.943 1.407-2.634 1.602-5.238.55-7.332-.024-.048-.046-.098-.064-.148l-6.065-16.219c-.291-.776.104-1.64.879-1.93.775-.289 1.64.103 1.93.88l6.039 16.147c1.461 2.974 1.241 6.527-.622 10.016-1.787 3.347-4.906 6.263-8.781 8.21-3.1 1.557-6.333 2.304-9.316 2.304z" fill="#25242E" id="PRnqYTrdvPD6UFyn6LS9k" /></g></g><g transform="translate(1424 356) rotate(19.028489159576516 -52.5 69) scale(-1 1)" data-asset-index="8"><g clip-path="url(#assetClipPath_VkdHpGVO)" transform="scale(1.6271501627150162 1.6271501627150162)" data-asset-index="8"><path d="m53.204 83.294-29.947-33.582 20.873-10.489z" fill="#FFFFFF" id="bvEIsfwelbnozC8yhipak" /><path d="m53.205 84.794c-.417 0-.828-.174-1.12-.502l-29.948-33.582c-.311-.348-.441-.821-.354-1.279s.383-.85.8-1.059l20.874-10.489c.416-.209.907-.213 1.327-.01s.721.591.815 1.047l9.074 44.071c.137.665-.189 1.338-.796 1.643-.213.108-.444.16-.672.16zm-27.526-34.62 24.931 27.957-7.554-36.689z" fill="#25242E" id="r6LPFdfjj_51V4-03bpwe" /><ellipse cx="34.119" cy="45.313" fill="#56B1F0" rx="15.086" ry="10.649" transform="matrix(.8935 -.449 .449 .8935 -16.7133 20.1441)" id="YDo0yh9TSOxvpABI9HJRx" /><g fill="#F05467" id="NUI1hNXyluIHLvs6xZH_O"><ellipse cx="35.679" cy="48.419" rx="30.423" ry="21.475" transform="matrix(.8935 -.449 .449 .8935 -17.9416 21.1755)" fill="#F05467" id="a_-ddHYMQ0yDsFps7DqSb" /><path d="m47.598 38.54-26.959 13.547-19.139-28.205 34.888-17.532z" fill="#F05467" id="K6drGd1SzxP2fGOZNrho" /><ellipse cx="18.944" cy="15.116" rx="19.523" ry="13.781" transform="matrix(.8935 -.449 .449 .8935 -4.7703 10.1156)" fill="#F05467" id="qAXKQ2ZXFm48WS9TMqdMM" /></g><path d="m13.936 31.71c-6.146 0-11.437-2.499-13.776-7.154-.372-.74-.073-1.642.667-2.014.738-.371 1.641-.074 2.014.667 3.041 6.051 12.738 7.343 21.618 2.881 4.385-2.204 7.891-5.461 9.873-9.171 1.89-3.539 2.145-7.053.717-9.894-.372-.74-.073-1.642.667-2.014.739-.371 1.642-.074 2.014.667 1.878 3.737 1.611 8.231-.751 12.655-2.271 4.252-6.238 7.959-11.172 10.439-3.955 1.985-8.077 2.938-11.871 2.938z" fill="#25242E" id="TkNhMAdK8sp4eBhYJWHw7" /><path d="m30.257 58.473c-4.847 0-9.034-1.971-10.92-5.637l-9.348-14.473c-.449-.696-.25-1.625.446-2.074s1.625-.25 2.074.446l9.389 14.538c.029.045.056.092.08.14 2.266 4.507 9.553 5.438 16.248 2.075 3.326-1.671 5.983-4.137 7.481-6.943 1.407-2.634 1.602-5.238.55-7.332-.024-.048-.046-.098-.064-.148l-6.065-16.219c-.291-.776.104-1.64.879-1.93.775-.289 1.64.103 1.93.88l6.039 16.147c1.461 2.974 1.241 6.527-.622 10.016-1.787 3.347-4.906 6.263-8.781 8.21-3.1 1.557-6.333 2.304-9.316 2.304z" fill="#25242E" id="bs_Y9o1cVlj0B-CShibxI" /></g></g></svg>