<svg xmlns="http://www.w3.org/2000/svg" fill="none" viewBox="0 0 314 392" width="314" height="392"><defs><clipPath id="assetClipPath_jleeMs_6"><path d="m0 0 h 228.537 v 222.672 h -228.537 v -222.672 z" id="path_lcLZd5Bf" fill="#ffffff" /></clipPath><clipPath id="assetClipPath_H84Ujm0d"><path d="m0 0 h 799.349 v 1491.662 h -799.349 v -1491.662 z" id="path_U4zRdRdQ" fill="#ffffff" /></clipPath><clipPath id="assetClipPath_ln9Df-_5"><path d="m0 0 h 457.447 v 97.277 h -457.447 v -97.277 z" id="path_nJt-pA2_" fill="#ffffff" /></clipPath></defs><g transform="translate(7 91)" data-asset-index="0"><g clip-path="url(#assetClipPath_jleeMs_6)" transform="scale(0.9976502710720802 0.9976502710720802)" data-asset-index="0"><path d="m102.677 222.672-12.56-79.185-90.117-33.373 90.47-31.186-3.356-78.928 35.184 70.819 106.239-35.861-75.928 80.236 42.725 61.151-62.723-17.177zm-93.765-112.457 83.894 31.068 11.31 71.303 26.857-56.978 57.148 15.651-39.371-56.352 69.316-73.249-97.29 32.84-30.064-60.515 2.85 67.052z" fill="#24968B" id="iZLxGiNRbhotd1IWeHELt" /></g></g><g transform="translate(104 0)" data-asset-index="1"><g clip-path="url(#assetClipPath_H84Ujm0d)" transform="scale(0.2627137833411939 0.2627137833411939)" data-asset-index="1"><path d="m272.621 1456.751 24.162-7.936 69.154-34.541s.094-.094.268-.264l-6.997-50.458s61.246-183.06 135.658-2.66c-1.127 12.13-2.372 24.697-3.742 37.726l-.199.027c18.991 59.155-4.816 73.701-48.82 75.825-27.276 1.317-74.056 2.316-130.739 2.614-15.417.081-28.235-1.895-38.11-4.32-8.145-2.001-8.604-13.396-.635-16.013z" fill="#FF8E77" id="UX4s1r2ZyaVnHIBI4PI_s" /><path d="m539.84 616.399c-8.872 111.378-36.791 314.321.868 566.009 5.717 38.207 19.531 68.39 19.532 105.447.001 22.979-47.489 61.277-65.331 73.038l-135.702 2.66s-42.031-36.379-46.106-61.655c-5.248-32.552 9.329-695.705 9.329-695.705s227.881-121.24 217.41 10.206z" fill="#85ECDE" id="CHU8crN1aR7Qx28PnuLun" /><path d="m500.489 1384.542-146.557 2.873 5.276-23.863 135.701-2.66z" fill="#85ECDE" id="fF_cfDylRhOvqYn4iEsUY" /><path d="m435.064 1363.723c-.488 0-.966-.237-1.254-.675-.456-.691-.265-1.622.427-2.077 17.772-11.716 34.504-51.123 34.503-73.116-.001-22.251-4.996-41.895-10.285-62.691-3.424-13.464-6.964-27.386-9.23-42.533-33.423-223.374-20.073-340.046-8.293-442.984 1.507-13.174 2.931-25.616 4.248-38.197.087-.823.824-1.415 1.648-1.336.824.087 1.422.824 1.336 1.648-1.318 12.595-2.743 25.045-4.251 38.226-11.758 102.754-25.084 219.218 8.28 442.2 2.244 14.997 5.765 28.845 9.171 42.236 5.336 20.985 10.377 40.806 10.377 63.432 0 11.31-4.125 27.018-11.036 42.018-7.25 15.737-16.295 27.985-24.816 33.603-.255.166-.542.246-.825.246z" fill="#003029" id="styGRp2pYG6bGAqtmMlNp" /><path d="m249.356 1478.436c-1.852 6.659 3.279 13.226 10.191 13.226h232.055c14.153-.104 14.719-21.409.575-21.934-.42-.016-105.281.743-105.281.743-.142-19.404-14.096-53.64-29.887-65.78-66.766 15.747-99.988 46.181-107.653 73.745z" fill="#50B9AD" id="a0yGkpHSpY1NkL1lzOGr7" /><path d="m386.897 1471.971h-107.753c-.828 0-1.5-.672-1.5-1.5s.672-1.5 1.5-1.5h107.753c.828 0 1.5.672 1.5 1.5s-.672 1.5-1.5 1.5z" fill="#003029" id="cox91hzcenruxesi3AE" /><path d="m359.207 1365.053c-.815 0-1.483-.652-1.499-1.471-.016-.828.642-1.513 1.47-1.529l135.702-2.66c.831-.034 1.513.643 1.529 1.471s-.642 1.513-1.47 1.529l-135.702 2.66c-.01 0-.02 0-.03 0z" fill="#003029" id="uf6YLvQ4170oXBrQyaOAg" /><path d="m630.56 1320.36c1.027 23.422 12.964 50.081 20.5 93.03-2.023 30.718-1.393 49.907 8.509 57.082 9.13 6.615 101.466 7.513 112.455 0 8.88-6.071 3.717-33.643-3.04-65.78-2.48-11.798-10.154-38.522-14.71-58.949-18.022-80.789-126.467-88.186-123.714-25.383z" fill="#FF8E77" id="DmkyZDqPPMv4aTU480tS9" /><path d="m768.828 1359.525c-20.51 23.839-72.745 33.236-133.836 31.466v-23.16l124.392-27.03z" fill="#85ECDE" id="IuSWd4mZjaBjsXgVyCsa" /><path d="m474.052 535.936c52.785-23.185 109.621-32.208 156.545-2.684 25.701 26.626 63.114 113.637 69.825 173.588 12.499 111.65 39.942 284.343 46.186 331.531 18.466 139.564 60.528 210.618 51.482 255.641-4.101 20.411-26.746 39.415-37.828 48.53-26.26 21.599-106.75 32.774-125.271 28.21-16.053-3.955-47.465-14.637-56.557-28.058-29.991-44.271-50.724-285.38-70.613-381.042-8.149-39.195-39.127-244.857-39.127-244.857s-78.029-144.232 5.358-180.859z" fill="#85ECDE" id="k9a2xnaJ62G82hVcd7D3d" /><path d="m635.998 1372.254c-.337 0-.67 0-1.008-.001-.828-.001-1.499-.674-1.498-1.502s.673-1.498 1.5-1.498h.002c.335 0 .672.001 1.005.001 60.347 0 94.997-7.856 123.397-27.936.676-.48 1.612-.317 2.091.358.478.677.318 1.612-.359 2.091-28.958 20.475-64.101 28.487-125.13 28.487z" fill="#003029" id="lT2ORwFDNagYfzhFlcZYU" /><path d="m773.636 1491.662h-120.576c-6.057 0-10.967-4.91-10.967-10.967 0-6.057 4.91-10.967 10.967-10.967h120.576c6.057 0 10.967 4.91 10.967 10.967.001 6.057-4.91 10.967-10.967 10.967z" fill="#50B9AD" id="q3xR1ep99gF9cFuSdU1Ky" /><path d="m650.117 1480.835c-11.156-26.448 7.351-76.144 60.725-76.144s75.905 42.886 66.499 76.144c-3.28 11.597-121.306 14.03-127.224 0z" fill="#50B9AD" id="dCh8exTyRTrRpLVYdHUf7" /><path d="m779.216 1471.971h-131.819c-.828 0-1.5-.672-1.5-1.5s.672-1.5 1.5-1.5h131.818c.828 0 1.5.672 1.5 1.5s-.671 1.5-1.499 1.5z" fill="#003029" id="UwlUdozxW8p5nMf3Yfyco" /><path d="m393.252 231.426c29.466-21.247 155.68-16.547 184.914-1.511 15.819 8.136 15.549 31.23 2.113 49.159s-98.94 17.01-117.28 13.358c-18.342-3.653-98.699-40.13-69.747-61.006z" fill="#FFBBA0" id="MGvg476ATQ7UzWUFIMC-" /><path d="m269.441 339.775c24.924-79.007 84.475-89.362 139.839-96.557 37.236-4.839 88.196-5.218 126.509-3.97 61.104 1.99 123.626 18.386 149.234 82.587l-108.588 66.338-195.775 2.597z" fill="#FFBBA0" id="z9gk172yxpC_UKWHgjVxs" /><path d="m121.386 339.734 46.266 42.576s-48.192 115.664-69.574 102.909c-54.472-32.494-59.809-48.811-59.809-48.811z" fill="#FF8E77" id="N-dIYLRo5uGHSrNoCH7p" /><path d="m150.01 366.595c-9.266-23.063-24.122-56.317-38.735-74.563-14.613-18.245-37.101-3.396-28.303 22.199s18.825 48.066 20.197 51.091c7.708 16.997 57.54 27.903 46.841 1.273z" fill="#FF8E77" id="T9Ya_8PW02v45ql8_iNA" /><path d="m103.17 366.822c-.571 0-1.116-.327-1.367-.881-.446-.982-11.019-24.369-20.25-51.224-5.219-15.182.08-26.181 7.646-30.346 7.53-4.146 16.655-1.507 23.246 6.723.518.646.414 1.591-.233 2.108-.646.518-1.591.413-2.108-.233-5.719-7.141-13.175-9.429-19.458-5.97-6.466 3.56-10.908 13.209-6.256 26.743 9.186 26.721 19.701 49.982 20.145 50.96.342.754.008 1.643-.746 1.985-.201.092-.412.135-.619.135z" fill="#003029" id="biEX7VCkEfhPpt9lYcaMY" /><path d="m98.22 409.976c-.466 0-.925-.217-1.219-.623-4.679-6.499-6.357-15.375-4.726-24.994 1.388-8.184 5.022-15.928 9.047-19.484-2.221-4.977-11.53-26.186-19.77-50.156-.269-.783.147-1.637.931-1.906.784-.266 1.637.148 1.906.932 9.186 26.721 19.701 49.982 20.145 50.96.298.657.086 1.434-.506 1.848-3.13 2.191-7.277 9.354-8.796 18.31-1.496 8.821-.004 16.897 4.202 22.738.484.673.332 1.61-.341 2.095-.263.188-.57.28-.873.28z" fill="#003029" id="eZeFKsFt0qcjorxASK1Ry" /><path d="m130.712 408.705-59.94 29.76c-4.129 2.05-9.102-.183-10.313-4.631l-44.511-163.469c-.918-3.371.676-6.921 3.806-8.475l59.94-29.76c4.129-2.05 9.102.183 10.313 4.631l44.511 163.469c.918 3.371-.676 6.921-3.806 8.475z" fill="#ABFFFF" id="g3aOP2NCQb6-FTx4ML40M" /><path d="m67.519 440.731c-1.228 0-2.457-.258-3.612-.776-2.416-1.084-4.2-3.172-4.896-5.727l-44.51-163.468c-1.103-4.052.826-8.347 4.586-10.214l59.94-29.761c2.372-1.177 5.117-1.229 7.532-.146 2.415 1.084 4.2 3.172 4.895 5.726l44.511 163.47c1.103 4.051-.826 8.346-4.586 10.214l-59.94 29.76c-1.238.614-2.578.922-3.92.922zm15.428-207.868c-.885 0-1.769.204-2.585.609l-59.94 29.761c-2.481 1.231-3.753 4.065-3.025 6.738l44.51 163.468c.459 1.687 1.636 3.063 3.23 3.779 1.593.716 3.404.681 4.969-.098l59.94-29.76c2.48-1.232 3.753-4.066 3.026-6.737l-44.512-163.469c-.459-1.686-1.636-3.062-3.23-3.778-.761-.342-1.573-.513-2.383-.513zm47.765 175.842h.01z" fill="#003029" id="GmAaCV4X8TjMWd1eLlOMQ" /><path d="m141.619 403.299-59.94 29.76c-4.129 2.05-9.102-.183-10.313-4.631l-44.51-163.469c-.918-3.371.676-6.921 3.806-8.475l59.94-29.76c4.129-2.05 9.102.183 10.313 4.631l44.511 163.469c.917 3.371-.677 6.921-3.807 8.475z" fill="#003029" id="mJrzsdBf0fY7_2gdfCpXm" /><path d="m78.426 435.325c-1.228 0-2.457-.258-3.612-.776-2.416-1.084-4.2-3.172-4.896-5.727l-44.51-163.469c-1.103-4.052.825-8.347 4.586-10.214l59.94-29.76c2.371-1.177 5.116-1.231 7.531-.146 2.416 1.084 4.2 3.172 4.896 5.727l44.511 163.469c1.103 4.052-.826 8.347-4.586 10.214l-59.94 29.76c-1.238.614-2.578.922-3.92.922zm15.429-207.867c-.885 0-1.769.203-2.586.609l-59.94 29.76c-2.481 1.231-3.753 4.065-3.025 6.737l44.51 163.469c.459 1.687 1.636 3.063 3.23 3.779 1.594.717 3.404.682 4.969-.098l59.94-29.76c2.481-1.231 3.753-4.065 3.026-6.737l-44.512-163.468c-.459-1.687-1.636-3.063-3.23-3.779-.761-.342-1.572-.512-2.382-.512z" fill="#003029" id="oGbuoLP9jLAz4Fn5y6JCy" /><path d="m136.948 400.666-53.261 26.444c-3.669 1.822-8.088-.163-9.164-4.115l-42.345-155.514c-.816-2.996.601-6.15 3.382-7.531l53.261-26.444c3.669-1.822 8.088.163 9.164 4.115l42.345 155.515c.815 2.995-.601 6.15-3.382 7.53z" fill="#ABFFFF" id="LFlx-BddzzCfg9USlOIiT" /><path d="m27.023 369.431c-7.975-10.329-19.663-21.435-25.073-37.918-6.031-18.376 2.828-31.088 14.256-40.593 15.952-13.268 28.72-9.207 32.857-3.381 6.334 8.922 4.065 22.749-8.802 34.145 3.528 4.502 11.68 13.863 13.607 15.914z" fill="#FF8E77" id="NN3qWK3HLD387kIXDCNFX" /><path d="m33.153 398.898c-7.976-10.328-19.663-21.434-25.073-37.917-6.031-18.376 2.828-31.088 14.256-40.593 15.952-13.268 28.72-9.207 32.857-3.381 6.334 8.922 4.065 22.749-8.802 34.145 3.528 4.502 11.68 13.863 13.607 15.914z" fill="#FF8E77" id="Pp_wVIl6CpiI2j_YJZjT" /><path d="m42.155 431.812c-7.976-10.328-19.664-21.434-25.073-37.918-6.031-18.376 2.828-31.088 14.256-40.593 15.952-13.268 28.72-9.207 32.857-3.381 6.335 8.922 4.065 22.749-8.802 34.145 3.528 4.502 11.68 13.863 13.607 15.914z" fill="#FF8E77" id="MLEikynYJqvPuCvR9tbC_" /><path d="m6.205 348.865c-.035 0-.07-.001-.105-.004-.826-.057-1.45-.773-1.393-1.6.699-10.11 6.152-19.278 16.67-28.027 10.47-8.708 18.955-9.706 24.229-9.026 4.622.604 8.562 2.766 10.809 5.931.479.675.321 1.611-.355 2.091-.675.48-1.612.321-2.092-.354-1.739-2.449-5.011-4.203-8.751-4.691-4.682-.613-12.286.343-21.923 8.357-9.854 8.197-14.956 16.678-15.595 25.928-.054.79-.713 1.395-1.494 1.395z" fill="#003029" id="CH3RaZ_vWOzchLdEDRk2a" /><path d="m56.308 456.081c-51.923-24.269-30.173-61.893-16.651-73.107 15.972-13.245 28.72-9.207 32.857-3.381 6.335 8.922 5.219 23.959-13.949 42.007z" fill="#FF8E77" id="D6jk531ebO_AKb-ARfQXE" /><path d="m15.137 384.499c-.816 0-1.484-.653-1.499-1.473-.208-11.235 5.268-21.336 16.741-30.878 14.217-11.825 24.842-9.433 28.749-7.855.768.31 1.14 1.184.83 1.952-.31.769-1.185 1.142-1.952.829-3.408-1.375-12.735-3.41-25.708 7.381-10.876 9.046-15.852 18.107-15.66 28.517.015.828-.644 1.512-1.472 1.527-.01 0-.02 0-.029 0z" fill="#003029" id="iC-PRkFSNqD5JpCq485NO" /><path d="m23.476 415.509c-.032 0-.064-.001-.097-.003-.827-.053-1.454-.766-1.401-1.593.849-13.295 9.01-25.698 16.722-32.093 14.332-11.883 24.974-9.41 28.884-7.797.766.316 1.13 1.193.814 1.959-.316.767-1.194 1.13-1.959.814-3.408-1.407-12.748-3.51-25.824 7.332-5.384 4.465-14.737 15.803-15.643 29.976-.051.794-.711 1.405-1.496 1.405z" fill="#003029" id="J8BZjJH3jwH7TzZU0mTZG" /><path d="m215.315 502.5 54.126-162.726c44.276-64.811 136.324 39.491 127.261 85.95-9.216 43.604-2.51 57.254-29.205 133.316-3.726 10.616-8.518 15.759-16.208 26.642-39.895 46.349-160.65-19.087-135.974-83.182z" fill="#FFBBA0" id="iQ3ChDqoYKVpeZAA2EIrw" /><path d="m167.652 382.31 42.58 24.41-71.562 106.646-40.591-28.147z" fill="#FFBBA0" id="ccXZC8Y9f_iE_3JvIG2s9" /><path d="m321.348 623.047c-37.423 1.622-84.561-14.376-117.714-33.702-17.659-10.294-38.042-23-54.912-34.555-10.479-7.177-10.052-41.425-10.052-41.425l71.561-106.645 86.301 49.474c69.199 37.199 94.073 163.851 24.816 166.853z" fill="#FFBBA0" id="iEl0OLcXFS1v0Az_jh2wJ" /><path d="m138.669 514.865c-.287 0-.578-.082-.834-.255-.688-.461-.872-1.393-.41-2.081l71.561-106.646c.462-.688 1.393-.873 2.081-.409.688.461.872 1.393.41 2.081l-71.561 106.646c-.29.432-.764.664-1.247.664z" fill="#003029" id="EcPGyPIM6g7pI-behnPI0" /><path d="m624.42 346.592c1.196 15.949 38.033 183.5 38.033 183.5l-348.805 77.642c-19.806-12.979-28.176-46.762-26.804-63.286 2.415-29.092 11.526-54.229 12.308-63.677.245-2.966 9.067-27.81 1.411-72.606-3.76-21.999 24.813-72.43 21.58-88.955 20.39-17.018 103.896-51.936 133.682-50.417 17.724.904 166.509 49.977 168.595 77.799z" fill="#FFBBA0" id="uEnfEYIRYP5MGtl-cBVfj" /><path d="m309.703 587.294 11.199 58.016 360.254-44.027-16.583-45.351z" fill="#FFBBA0" id="CAaU7W13L8ZRcOu-2ED0x" /><path d="m316.485 623.936c-.704 0-1.333-.498-1.471-1.216l-2.724-14.109c-22.35-16.077-27.065-52.572-26.946-64.178.203-19.803 5.271-37.325 8.971-50.119 1.731-5.984 3.098-10.711 3.342-13.667.041-.497.199-1.208.46-2.385 1.376-6.195 5.562-25.05 1.552-60.536-2.897-25.635 4.847-44.896 11.68-61.889 2.331-5.796 4.532-11.271 6.063-16.485.234-.794 1.069-1.249 1.862-1.017.795.233 1.25 1.067 1.017 1.862-1.572 5.353-3.8 10.894-6.158 16.759-6.7 16.664-14.294 35.551-11.482 60.434 4.066 35.983-.202 55.206-1.604 61.522-.201.905-.375 1.688-.399 1.982-.269 3.254-1.673 8.107-3.45 14.252-3.652 12.629-8.654 29.924-8.853 49.317-.116 11.28 4.442 46.893 26.163 62.04.32.224.541.562.615.946l2.838 14.701c.157.813-.375 1.6-1.188 1.757-.098.02-.194.029-.288.029z" fill="#003029" id="HrTsveyi5UJomf6DjbEvJ" /><path d="m313.647 609.234c-.732 0-1.372-.536-1.482-1.281-.121-.819.445-1.582 1.265-1.703l350.924-51.802c.817-.121 1.582.444 1.703 1.266.121.819-.445 1.582-1.265 1.703l-350.924 51.802c-.075.011-.149.015-.221.015z" fill="#003029" id="ZPFE0lGzso53YG-rP6n-3" /><path d="m479.527 315.978 113.671-69.264c-2.088-9.219-16.565-29.332-46.78-10.945-19.473 11.85-98.989 78.492-98.989 78.492s-19.312-57.964-23.534-74.354c-6.573-25.519-48.205-10.122-35.133 13.846 8.566 15.705 34.654 61.241 34.654 61.241z" fill="#FFBBA0" id="uSJ869tskcEIWqiJNZtvx" /><path d="m427.24 326.078c-.532 0-1.048-.284-1.32-.784-.299-.552-30.009-55.3-38.476-70.824-5.827-10.683-1.29-19.524 4.898-24.237.659-.503 1.601-.373 2.102.284.502.659.375 1.601-.285 2.103-6.732 5.126-8.258 12.758-4.082 20.415 8.469 15.526 38.179 70.277 38.479 70.828.395.729.125 1.639-.603 2.034-.226.123-.471.181-.713.181z" fill="#003029" id="iCsJIv9qX87nG66M4dstG" /><path d="m447.428 315.761c-.136 0-.274-.019-.408-.057-.478-.135-.858-.498-1.015-.969-.193-.581-19.377-58.202-23.563-74.455-.207-.802.276-1.62 1.079-1.826.803-.213 1.62.275 1.827 1.078 3.707 14.392 19.314 61.627 22.81 72.163 11.14-9.309 73.959-61.645 94.6-75.364.69-.459 1.621-.271 2.08.419s.271 1.621-.419 2.079c-22.43 14.908-95.292 75.966-96.025 76.581-.275.23-.617.351-.966.351z" fill="#003029" id="DBQB_fZaXalPH3MZFMmwC" /><path d="m467.632 327.41c-.498 0-.985-.247-1.27-.7-.442-.7-.232-1.627.469-2.068l124.632-78.606c-1.293-4.183-5.424-11.48-13.836-14.721-.773-.298-1.158-1.166-.86-1.938s1.166-1.155 1.939-.86c8.964 3.453 14.555 11.682 15.956 17.867.14.619-.125 1.261-.663 1.6l-125.567 79.196c-.25.156-.526.23-.8.23z" fill="#003029" id="px972NI4sdTv0hCdTGpQz" /><path d="m490.456 532.545-74.797 2.448c-34.113 45.934-19.117 131.5 13.489 130.21l31.263-3.924c15.429 5.106 36.114 2.842 48.63-6.104 32.143-45.587 13.15-86.399-18.585-122.63" fill="#FF8E77" id="Hoso8NGSqmQvnK2_I-b" /><path d="m432.46 582.065s-31.361-2.082-59.747-4.591c-15.009 5.105-26.123 10.237-31.124 11.788-25.299 7.85-30.584-19.683-10.284-35.929 11.318-9.057 26.022-16.026 45.31-18.448 19.781-2.484 39.044.107 39.044.107 32.059 2.293 41.975 43.91 16.801 47.073z" fill="#FF8E77" id="IELO45kT3Rk2VzmLEuZrI" /><path d="m443 609.493s-31.428-.261-59.913-1.121c-14.688 5.966-25.486 11.733-30.388 13.572-24.801 9.302-31.673-17.878-12.348-35.272 10.774-9.698 25.05-17.507 44.165-21.043 19.604-3.626 38.985-2.156 38.985-2.156 32.136.432 44.448 41.404 19.499 46.02z" fill="#FF8E77" id="c2hbsturVi5LqBebFpLyK" /><path d="m448.737 637.076s-29.868.307-56.95-.006c-13.852 5.929-24.01 11.6-28.635 13.434-23.402 9.278-30.413-16.428-12.357-33.298 10.066-9.405 23.493-17.079 41.594-20.776 18.564-3.792 37.006-2.738 37.006-2.738 30.544-.158 42.967 38.557 19.342 43.384z" fill="#FF8E77" id="Enk6XwrgpVdtChv03aQZm" /><path d="m460.411 661.279s-21.73 2.817-41.741 5.021c-11.727 4.573-27.525 10.323-31.997 11.765-19.308 6.223-28.282-18.904-15.159-29.915 9.965-8.362 13.978-12.213 30.564-17.62 17.01-5.546 34.424-6.532 34.424-6.532 28.639-3.42 45.557 30.222 23.909 37.281z" fill="#FF8E77" id="HUETNKY_psqJfFunwv63U" /><path d="m336.267 591.943c-.328 0-.659-.107-.935-.328-.647-.517-.753-1.461-.236-2.108 9.258-11.588 39.771-32.287 88.989-27.65.825.077 1.431.809 1.353 1.634-.077.824-.809 1.435-1.634 1.353-47.944-4.504-77.456 15.388-86.364 26.537-.297.369-.733.562-1.173.562z" fill="#003029" id="H9xSuuvSZhLd6sniOagFX" /><path d="m346.159 623.936c-.394 0-.786-.153-1.081-.46-.574-.597-.557-1.546.04-2.12 9.627-9.271 32.178-30.991 86.074-29.772.828.019 1.485.705 1.466 1.533-.018.829-.721 1.458-1.533 1.467-52.653-1.2-73.776 19.159-83.927 28.933-.29.279-.665.419-1.039.419z" fill="#003029" id="vCFs19qBti0q0DErPGYz6" /><path d="m371.515 649.65c-.438 0-.872-.191-1.169-.559-.52-.645-.419-1.589.226-2.109 18.202-14.672 33.254-19.981 70.025-24.7.818-.1 1.573.475 1.679 1.298.105.821-.475 1.573-1.297 1.679-36.11 4.633-50.84 9.805-68.524 24.06-.277.223-.61.331-.94.331z" fill="#003029" id="gQHYSTcYlzglrRPROxJj" /><path d="m536.158 520.19 73.365-18.993-52.703-140.052c-3.772-78.4 87.856-68.366 127.816-40.165 23.025 50.878 48.612 117.301 62.373 166.045 10.521 37.267 43.144 127.181-57.205 152.104-31.805 7.899-62.162 16.289-94.666 24.023-6.751 1.606-35.866-20.009-35.866-20.009z" fill="#FFBBA0" id="DnJ-ddiGiL4TT4eDiMk" /><path d="m595.693 665.442c-8.312 0-31.572-16.236-36.356-19.64-.675-.48-.833-1.417-.353-2.092.48-.677 1.417-.834 2.092-.354 21.11 15.021 32.681 19.654 35.017 19.05.801-.209 1.621.272 1.829 1.075.208.802-.273 1.621-1.075 1.829-.342.09-.729.132-1.154.132z" fill="#003029" id="sUPcbKSuoRVi77gCD0Ov" /><path d="m536.157 521.69c-.667 0-1.276-.448-1.451-1.124-.208-.802.274-1.62 1.076-1.828l71.75-18.575-45.128-120.073c-.292-.775.101-1.64.876-1.932.775-.293 1.64.101 1.932.877l45.715 121.634c.15.397.123.841-.073 1.219s-.543.654-.955.761l-73.365 18.993c-.126.032-.253.048-.377.048z" fill="#003029" id="ZlAYudEvQTPaXKdVP9w7X" /><path d="m490.456 532.545 48.732-13.175s12.798 85.016 21.019 125.21c-31.336 7.007-51.165 10.595-51.165 10.595z" fill="#FFBBA0" id="iVuLV52vb9wx3gPpWX00P" /><path d="m509.041 656.676c-.678 0-1.293-.462-1.458-1.15-.193-.806.304-1.615 1.109-1.809.125-.03 12.714-3.043 25.255-5.842 14.765-3.295 21.383-4.56 24.482-4.827l-20.446-121.798-47.135 12.743c-.798.215-1.623-.257-1.839-1.057s.257-1.623 1.057-1.84l48.732-13.175c.407-.108.845-.043 1.201.186s.599.597.669 1.015l21.019 125.21c.118.7-.273 1.388-.935 1.646-.38.148-.79.131-1.143-.022-3.529-.101-32.489 6.433-50.217 10.68-.118.027-.236.04-.351.04z" fill="#003029" id="rPmmizFyRlAOgBvpBFjcY" /><path d="m609.521 502.696c-.658 0-1.261-.436-1.445-1.101-.221-.799.248-1.625 1.047-1.846l54.115-14.941c.797-.218 1.625.248 1.845 1.047.221.799-.248 1.625-1.047 1.846l-54.115 14.941c-.133.037-.267.054-.4.054z" fill="#003029" id="EqeJDUjVEQ2djTzVFpEow" /><path d="m289.273 453.534c-.253 0-.509-.063-.745-.198l-48.017-27.527c-.719-.412-.967-1.329-.555-2.048.412-.718 1.329-.967 2.047-.556l48.017 27.527c.719.412.967 1.329.555 2.048-.276.484-.782.754-1.302.754z" fill="#003029" id="TFKpeI4FhqhmeBUtkHGbl" /><path d="m593.015 318.665c-.345 0-.691-.118-.974-.36-.63-.538-.704-1.484-.166-2.114.325-.38 8.099-9.413 20.225-18.089 16.163-11.564 32.3-16.778 46.665-15.087.823.097 1.411.842 1.314 1.665-.097.822-.842 1.424-1.666 1.313-33.006-3.894-63.949 31.786-64.258 32.146-.296.347-.717.526-1.14.526z" fill="#003029" id="nLGqDztz64NDQKZNtue-V" /><path d="m560.239 1291.529c-.719 0-1.355-.519-1.478-1.252-.88-5.256-87.611-523.452-91.509-572.653l-38.254-26.39c-.682-.47-.853-1.404-.383-2.086.471-.682 1.405-.853 2.087-.383l38.845 26.797c.376.259.614.676.645 1.132 3.045 44.426 90.644 567.806 91.528 573.087.137.817-.414 1.591-1.231 1.728-.085.013-.168.02-.25.02z" fill="#003029" id="NteYVZlVQOfs4s1klr2-r" /><path d="m477.43 31.15c25.924-.633 47.86 9.372 63.25 27.768 10.197 12.189 22.04 35.6 14.905 59.921-10.414 35.494-84.799 14.353-117.199 11.385-21.569-1.976-33.087-52.475-10.638-79.181 15.445-18.375 33.92-19.509 49.682-19.893z" fill="#003029" id="AyFBcdLG2YByZ7_oPze3u" /><path d="m408.711 120.005c-1.844-44.992 19.483-78.217 67.176-76.348 50.198 1.966 71.486 36.763 70.264 81.01 11.733-14.766 29.842-2.076 29.294 13.911-.406 11.829-13.451 23.627-32.556 16.025-13.769 38.369-51.009 53.643-87.525 48.533-45.125-6.314-74.142-50.927-46.653-83.131z" fill="#FF8E77" id="dDSJ45_a2eS3rcS15sDo" /><path d="m563.521 143.887c-.375 0-.751-.14-1.042-.421l-11.148-10.769c-.596-.576-.612-1.525-.037-2.121.575-.595 1.525-.611 2.121-.037l11.148 10.769c.596.576.612 1.525.037 2.121-.294.304-.686.458-1.079.458z" fill="#003029" id="M_jrGwegH7avtbVvOBZq" /><path d="m553.143 143.534c-.381 0-.763-.145-1.055-.434-.589-.583-.594-1.533-.01-2.122l10.759-10.867c.583-.588 1.533-.593 2.121-.011.589.583.594 1.533.01 2.122l-10.759 10.867c-.293.297-.68.445-1.066.445z" fill="#003029" id="PxeKexfeeipjdeCQt_XMl" /><path d="m445.839 151.697c-2.472 4.873-6.087 18.205 1.572 20.981 12.259 4.442 19.347-11.709 20.659-19.642 0 0-7.281 15.077-18.183 12.213-7.892-2.073-4.048-13.552-4.048-13.552z" fill="#E4634F" id="BJzl2tR6ZLVIVhq12rFMj" /><path d="m462.673 145.336c7.911-8.762-6.882-15.176-12.261-5.481-9.351-14.121-18.826 1.946-8.691 5.004 7.266 1.742 14.257 1.939 20.952.477z" fill="#E4634F" id="OXUerYE8SY0iKu-WxzL8" /><path d="m448.723 145.993c-6.41 9.769-3.991 17.314 1.165 19.257 5.991 2.257 16.484-2.996 22.535-23.052-7.213 3.616-15.007 5.24-23.7 3.795z" fill="#FFFFFF" id="bw5wW0iO3ydIkRUiDcAD" /><g fill="#003029" id="f9lpnD5plWS6Rwh8AdYpR"><path d="m452.649 167.233c-1.151 0-2.26-.192-3.291-.581-2.581-.972-4.503-3.048-5.415-5.844-1.441-4.426-.19-9.979 3.524-15.64.455-.691 1.384-.887 2.077-.431.693.454.885 1.384.431 2.077-3.158 4.812-4.317 9.573-3.18 13.063.623 1.913 1.909 3.322 3.62 3.967 1.853.696 4.151.45 6.472-.695 3.355-1.657 9.649-6.64 14.098-21.388.239-.793 1.075-1.238 1.869-1.003.793.239 1.242 1.076 1.003 1.87-4.777 15.832-11.85 21.338-15.642 23.211-1.871.927-3.771 1.394-5.566 1.394z" fill="#003029" id="LhttoZHB0vy32AmRwzGvZ" /><path d="m453.433 147.69c-4.756 0-9.114-.563-12.108-1.386-.799-.219-1.269-1.045-1.049-1.844.219-.799 1.044-1.27 1.844-1.049 5.818 1.597 20.466 2.496 29.579-2.529.726-.4 1.638-.135 2.038.589.4.726.136 1.639-.589 2.038-5.567 3.069-13.033 4.181-19.715 4.181z" fill="#003029" id="sdQ6j9uMu4LM9Ceod4R3P" /><path d="m491.732 117.763c-.642 0-1.236-.415-1.434-1.061-3.426-11.166-12.43-14.187-19.833-12.222-.802.213-1.622-.264-1.834-1.065s.265-1.622 1.065-1.835c12.139-3.217 20.675 5.127 23.471 14.243.243.792-.202 1.631-.994 1.873-.147.045-.295.067-.441.067z" fill="#003029" id="O-5rkeiMQimhy52a9GPq2" /><path d="m471.667 113.357c.422 7.64 3.467 13.684 6.802 13.5s5.697-6.527 5.275-14.166c-.201-3.64-.997-6.918-2.137-9.333-.192-.406-8.181-1.146-8.426-.586-1.141 2.607-1.745 6.402-1.514 10.585z" fill="#003029" id="uozJf8DAeRqM97ZvkzOj-" /><path d="m446.257 118.511c-.642 0-1.236-.415-1.434-1.06-3.426-11.168-12.43-14.183-19.834-12.222-.802.211-1.622-.265-1.834-1.065-.212-.801.265-1.622 1.065-1.835 12.136-3.221 20.674 5.127 23.471 14.241.243.792-.202 1.632-.994 1.874-.146.045-.294.067-.44.067z" fill="#003029" id="BJTtoktEQlXFn-CaOlJP4" /><path d="m426.192 114.106c.422 7.64 3.467 13.684 6.802 13.5s5.697-6.527 5.275-14.166c-.201-3.64-.997-6.918-2.137-9.333-.192-.406-8.181-1.146-8.426-.586-1.141 2.607-1.745 6.401-1.514 10.585z" fill="#003029" id="jXnCeVNlEM5omBx0ey9wV" /><circle cx="538.468" cy="31.643" r="31.64" fill="#003029" id="IWBWs9KQYqW2f8jPHyn4e" /><path d="m522.216 55.562c-37.039-26.909-80.38-20.393-94.469-4.519-10.786 12.153-15.393 20.915-17.413 43.984 12.258-5.577 34.161-19.186 48.5-40.492 7.562 25.682 60.938 78.178 87.317 70.132 3.303-13.897-4.666-55.106-23.935-69.105z" fill="#003029" id="NGYBcaoytpwK5KPdLVWbj" /><path d="m540.679 58.918c17.991 4.163 29.211.441 38.071-4.882 0 0-2.793 13.657-23.67 12.894-20.494-.749-14.401-8.012-14.401-8.012z" fill="#003029" id="vYTDmhG9zMyZC24RapHM" /></g><path d="m544.666 65.678c-.529 0-1.042-.28-1.315-.776-8.302-15.072-30.312-25.207-36.86-27.955-.764-.32-1.123-1.199-.803-1.963s1.2-1.126 1.964-.803c6.774 2.842 29.558 13.353 38.327 29.273.4.726.135 1.638-.59 2.037-.23.127-.478.187-.723.187z" fill="#ABFFFF" id="WHC6-OjYUbYlMTtVbNOd" /><path d="m455.371 409.676c-.02 0-.039 0-.059-.001-.828-.032-1.473-.729-1.441-1.557l3.275-84.993c.032-.827.731-1.456 1.557-1.441.828.032 1.473.729 1.441 1.557l-3.275 84.993c-.032.808-.697 1.442-1.498 1.442z" fill="#003029" id="ps6QV1c1V_2L1SSTYeDpV" /><path d="m420.226 400.352c-.103 0-.208-.011-.312-.032-.811-.172-1.328-.969-1.156-1.779l16.497-77.82c.172-.81.966-1.324 1.778-1.156.811.172 1.328.969 1.156 1.779l-16.497 77.82c-.15.704-.773 1.188-1.466 1.188z" fill="#003029" id="F6rvCjVm3IXrcKXDxku4" /></g></g><g transform="translate(0 10)" data-asset-index="2"><g clip-path="url(#assetClipPath_ln9Df-_5)" transform="scale(0.4109765721493419 0.4109765721493419)" data-asset-index="2"><path d="m457.447 0h-408.809c-26.862 0-48.638 21.776-48.638 48.638 0 26.862 21.776 48.638 48.638 48.638h317.277c26.862 0 48.638-21.776 48.638-48.638v-23.075z" fill="#FF9360" id="iCTZ7mqYGlWnlSXMm6C" /><path d="m359.935 50.138h-306.423c-.828 0-1.5-.672-1.5-1.5s.672-1.5 1.5-1.5h306.423c.828 0 1.5.672 1.5 1.5s-.672 1.5-1.5 1.5z" fill="#FFBA82" id="ZU-vBoE-k09gun0d88-_l" /></g></g></svg>