<svg xmlns="http://www.w3.org/2000/svg" fill="none" viewBox="0 0 435 299" width="435" height="299"><defs><clipPath id="assetClipPath_SbqLcE3h"><path d="m0 0 h 3000 v 2062 h -3000 v -2062 z" id="path_nW0RA1k8" fill="#ffffff" /></clipPath><clipPath id="clipPath_7u2PJt_U"><path d="m0 0 h 456.961 v 466.849 h -456.961 v -466.849 z" id="path_n4ccM6dA" /></clipPath><clipPath id="clipPath_L6hiB35r"><path d="m0 0 h 980.787 v 753.481 h -980.787 v -753.481 z" id="path_AuKbQ2FL" /></clipPath><clipPath id="clipPath_o8eApaqf"><path d="m0 0 h 616 v 799 h -616 v -799 z" id="path_V7_istQE" /></clipPath><clipPath id="clipPath_YL9w5IJn"><path d="m0 0 h 616 v 100 h -616 v -100 z" id="path_auMpAsCS" /></clipPath><clipPath id="clipPath_2PrnxQXr"><path d="m0 0 h 302.4 v 253.6 h -302.4 v -253.6 z" id="path_8ozu-ML_" /></clipPath><clipPath id="clipPath_CmvBLHFF"><path d="m0 0 h 302.4 v 11.7 h -302.4 v -11.7 z" id="path_5wKkseVA" /></clipPath><clipPath id="clipPath_sJTVz8Tu"><path d="m0 0 h 1216.34 v 644.591 h -1216.34 v -644.591 z" id="path_Gwol6VAx" /></clipPath><clipPath id="clipPath_Y3rusWUc"><path d="m0 0 h 74.021 v 106.33 h -74.021 v -106.33 z" id="path_wltwQMIr" /></clipPath><clipPath id="clipPath_WTnS3pie"><path stroke="#E00000" stroke-width="0" d="M0 0h616v799H0z" /></clipPath><clipPath id="clipPath_ObtXfLJx"><path stroke="#007AD1" stroke-width="0" d="M0 0h616v100H0z" /></clipPath></defs><g transform="" data-asset-index="0"><g clip-path="url(#assetClipPath_SbqLcE3h)" transform="scale(0.145 0.145)" data-asset-index="0"><defs /><g transform="translate(60.0 -26.25) rotate(-66.40172730135288 520.3125 531.5625) scale(2.2772731152111447 2.277235251655246)" id="N2-hOA2nUvqmjrh9i0EzR"><g clip-path="url(#clipPath_7u2PJt_U)" transform="matrix(1 0 0 1 0 0)" id="aQQl2zHVK8QPrTPT-nRCg"><path d="M168.55 466.849a1.497 1.497 0 0 1-1.501-1.505l.62-168.025L5.371 340.813a1.501 1.501 0 0 1-1.32-2.625l131.754-104.277L.609 134.138a1.5 1.5 0 0 1 1.229-2.668l163.674 37.994-6.287-167.908a1.5 1.5 0 0 1 2.853-.702l72.344 151.654L361.777 42.902a1.5 1.5 0 0 1 2.328 1.793l-73.462 151.116 165.098 31.232a1.5 1.5 0 0 1 .05 2.937l-163.95 36.784 78.519 148.552a1.5 1.5 0 0 1-2.266 1.871L237.114 311.94l-67.187 154.009a1.5 1.5 0 0 1-1.374.9zm.627-172.987a1.504 1.504 0 0 1 1.5 1.506l-.601 162.73 65.07-149.156a1.503 1.503 0 0 1 2.315-.57l126.854 101.931-76.045-143.871a1.5 1.5 0 0 1 .998-2.165l158.784-35.625-159.896-30.248a1.5 1.5 0 0 1-1.071-2.129L358.233 49.91 234.891 156.062a1.5 1.5 0 0 1-2.333-.491L162.494 8.695l6.091 162.618a1.497 1.497 0 0 1-1.838 1.517L8.229 136.034l130.937 96.629a1.5 1.5 0 0 1 .04 2.383L11.604 336.037l157.185-42.124a1.51 1.51 0 0 1 .388-.051z" fill="#FFBBA0" id="yOh7BkWpor_fKOvX5jidQ" /></g></g><g transform="translate(478.125 271.875) rotate(0.0 1108.125 850.3125) scale(2.259664942541041 2.2570243974300612)" id="Y7fC2nvxb_tRkEjuFN-Ud"><g clip-path="url(#clipPath_L6hiB35r)" transform="matrix(1 0 0 1 0 0)" id="KTlEUE7pWs5q9n7AS1vDx"><rect fill="#FFFFFF" height="750.481" rx="55.262" width="977.787" x="1.5" y="1.5" id="OFzUQEL02lJdPuMQhI1dp" /><path d="M924.025 753.481H56.762C25.463 753.481 0 728.018 0 696.72V90.173a1.5 1.5 0 0 1 3 0V696.72c0 29.645 24.117 53.762 53.762 53.762h867.263c29.644 0 53.762-24.117 53.762-53.762V90.173a1.5 1.5 0 0 1 3 0V696.72c0 31.299-25.463 56.762-56.762 56.762z" fill="#003029" id="fj45JaJn7V9ZzLM9t4eEM" /><path d="M924.025 1.5H56.762C26.242 1.5 1.5 26.242 1.5 56.762v33.411h977.787V56.762c0-30.52-24.742-55.262-55.262-55.262z" fill="#50B9AD" id="xQLdV1VHY_PStyQyiWQ" /><path d="M980.787 91.673H0V56.762C0 25.463 25.463 0 56.762 0h867.264c31.298 0 56.761 25.463 56.761 56.762zM3 88.673h974.787V56.762C977.787 27.117 953.67 3 924.025 3H56.762C27.117 3 3 27.117 3 56.762z" fill="#50B9AD" id="jQBI7kpTkfp-1Q7Oi8buH" /><path d="M96.149 74.098c-.64 0-1.28-.244-1.768-.732L50.616 29.599a2.5 2.5 0 1 1 3.536-3.535L97.917 69.83a2.5 2.5 0 0 1-1.768 4.267z" fill="#FFFFFF" id="H-HvYwnbULk9_v_DMZLO0" /><path d="M52.383 74.098a2.5 2.5 0 0 1-1.768-4.267l43.766-43.767a2.5 2.5 0 1 1 3.536 3.535L54.152 73.365a2.493 2.493 0 0 1-1.768.732z" fill="#FFFFFF" id="Yrhkp2VgWZjFWXv0ovqP2" /><g fill="#003029" id="Ruvl5M3yeUlwhno6xPWTt"><path d="M327.266 136.572a1.5 1.5 0 0 1-1.5-1.5v-43a1.5 1.5 0 0 1 3 0v43a1.5 1.5 0 0 1-1.5 1.5zm0 491.922a1.5 1.5 0 0 1-1.5-1.5v-81.987a1.5 1.5 0 0 1 3 0v81.987a1.5 1.5 0 0 1-1.5 1.5zm0-163.975a1.5 1.5 0 0 1-1.5-1.5v-81.987a1.5 1.5 0 0 1 3 0v81.987a1.5 1.5 0 0 1-1.5 1.5zm0-163.974a1.5 1.5 0 0 1-1.5-1.5v-81.987a1.5 1.5 0 0 1 3 0v81.987a1.5 1.5 0 0 1-1.5 1.5zm0 452.936a1.5 1.5 0 0 1-1.5-1.5v-43a1.5 1.5 0 0 1 3 0v43a1.5 1.5 0 0 1-1.5 1.5zm325-616.909a1.5 1.5 0 0 1-1.5-1.5v-43a1.5 1.5 0 0 1 3 0v43a1.5 1.5 0 0 1-1.5 1.5zm0 491.922a1.5 1.5 0 0 1-1.5-1.5v-81.987a1.5 1.5 0 0 1 3 0v81.987a1.5 1.5 0 0 1-1.5 1.5zm0-163.975a1.5 1.5 0 0 1-1.5-1.5v-81.987a1.5 1.5 0 0 1 3 0v81.987a1.5 1.5 0 0 1-1.5 1.5zm0-163.974a1.5 1.5 0 0 1-1.5-1.5v-81.987a1.5 1.5 0 0 1 3 0v81.987a1.5 1.5 0 0 1-1.5 1.5zm0 452.936a1.5 1.5 0 0 1-1.5-1.5v-43a1.5 1.5 0 0 1 3 0v43a1.5 1.5 0 0 1-1.5 1.5z" fill="#003029" id="AiGF_H-WkzIRm0YivTrh" /></g></g></g><g transform="translate(1066.875 472.5) rotate(0.0 577.5 749.0625) scale(1.875 1.875)" id="pU-MhRmty9YNvfVZPacQ5"><g clip-path="url(#clipPath_o8eApaqf)" transform="matrix(1 0 0 1 0 0)" id="gIanaHaGP44AEV2Wapr"><path fill="#FFFFFF" clip-path="url(#clipPath_WTnS3pie)" d="M0 0h616v799H0z" id="PfA_JCAACsax6UDstKZea" /></g></g><g transform="translate(1066.875 290.625) rotate(0.0 577.5 93.75) scale(1.875 1.875)" id="MJn4nkYFJKetk342WkfF9"><g clip-path="url(#clipPath_YL9w5IJn)" transform="matrix(1 0 0 1 0 0)" id="Ew6oVHcW0HFjuST8NW-N"><path fill="#50B9AD" clip-path="url(#clipPath_ObtXfLJx)" d="M0 0h616v100H0z" id="QOXKyJQwFH-3jIih6yMEn" /></g></g><g transform="translate(37.5 106.875) rotate(0.0 1122.1875 940.3125) scale(7.421875000000001 7.415713722397476)" id="VWmlsmwBqcOrE8-e6-DLl"><g clip-path="url(#clipPath_2PrnxQXr)" transform="matrix(1 0 0 1 0 0)" id="WOnksNxOxe7ejq-u8iLV1"><g id="SFIBGQxm7BkHame4dG5qU"><path d="M69.2 249.5c.8.4 1 .4.5.2-.3-.1-.3-.2 0-.1.3 0 .6.1.8.2.5.2 1.1.3 1.5.6.4.1.8.3 1.2.5.8 0 1.5 0 2.3.1 4.2.2 8.1-.2 12.1.1.6-.1 1.2-.1 1.7-.1 2.4 0 4.9.2 7.3.1.8-.2 1.7-.2 2.7-.2h4.9c-14.9-2.5-27.4-3.2-35-1.4z" fill="#50B9AD" id="Rwi0Rd0BEgtN6CIYRVFzv" /><path d="M106.8 76.2c-2.6 4.8 14 24.1 36.2 32.9-24.9 38-92.5-16-104.4-1.9 5.7-18.8 37.6-12.5 44.2-35.6 3.1-10.7 28.6-3.8 24 4.6z" fill="#E4634F" id="PlS6UuB5IXrGlfUfARupE" /><path d="M71.6 115.8c9.1-4.8 19.7-9.8 30-13.2 11.5-3.8 27.5-7.4 39.8-8.8 13.2-1.5 31.7-.4 39.2 1l-17.4 43.7-61.9 12.5s-42.1-28.6-29.7-35.2z" fill="#FFBBA0" id="N6fN0Z60vcO5JSRkGCnS" /><path d="M144.5 250.7c.6-.1 1.1-.2 1.7-.2 3 0 5.9.1 8.9.1.6 0 1.2.1 1.8.2 1 0 1.9-.1 2.9-.1.4 0 .7 0 1.1.1 5.1 0 10.2-.1 15.4-.1.6 0 1.2.1 1.8.2h.1c5.1-.2 10.1 0 15.2-.2.5 0 1.1 0 1.6.1 1.8-.1 3.6 0 5.3 0h2.6l.1-1.1s-60.5-23.8-61.4-8.7l-.6 9.6c.6 0 1.2 0 1.8-.1.7.1 1.2.1 1.7.2z" fill="#FFA78E" id="GiogJ5Ais4PACxJngbpOz" /><path d="M53.1 186.3c6.3-3.3 34.3-20.5 34.3-20.5 16.5-19.2-2.5-56.4-16.2-49.8-12.3 7-36.3 20-54.7 32.4-11.6 7.8-18.5 21.4-13.6 35 6.9 19.2 29.3 13.8 50.2 2.9z" fill="#FFBBA0" id="Cw61JdQzpkuBaGEk2oHWo" /><path d="M66.6 223c13 7.8 26.1 16 26.1 16 19.8 6.8 22.8-11.3 26.4-29.6l-33.5-21.8-19 35.4z" fill="#FFA78E" id="Uw4nf_UxxB9ugAGSLzu62" /><path d="M95.8 194.4c7.7-.5 18.9-.8 25.9.8s5.9 9.9-2.4 10.8c-8.3 1-15.9 1.2-16.9 1.2-5.8.2-15.5-12.2-6.6-12.8z" fill="#FFA78E" id="eAP0XGfC6ShzeA2SXPXuw" /><path d="M92.4 215c-.5 0-1 0-1.4-.1-.3 0-.4-.3-.4-.6s.3-.4.6-.4c2.2.4 4.6-.3 6.9-1.9 2.3-1.6 3.7-3.7 3.9-4.9 0-.2.2-.4.5-.4s8.2-.2 16.9-1.2c.3 0 .5.2.5.4 0 .3-.2.5-.4.5-7.7.9-14.9 1.2-16.6 1.2-.5 1.6-2.1 3.6-4.2 5.1-2.2 1.6-4.3 2.3-6.3 2.3z" fill="#003029" id="nHBb6TqlmUWgrJ38Ff" /><path d="M111.2 216.4c11.1 7.4 15 4.7 16.7 2.3 3.5-5.1-3.5-11.2-6.9-13.3-5.5-3.3-9.2-1.5-10.3.5-1.6 3-.8 7.1 6.4 11.8l-5.9-1.3z" fill="#FFA78E" id="mCr2Bw3VzjX2aEMxrWcY" /><path d="m117 218.1-6-1.2c-.3-.1-.4-.3-.4-.6.1-.3.3-.4.6-.4l3.6.8c-3.4-2.6-6.9-6.6-4.6-11 .6-1.1 1.7-1.9 3.1-2.3 1.6-.4 4.2-.5 7.9 1.6.4.3.9.6 1.4.9.2.2.3.5.1.7-.2.2-.5.3-.7.1-.5-.3-.9-.6-1.3-.9-3.3-2-5.7-1.9-7.1-1.5-1.1.3-2.1 1-2.5 1.8-1.8 3.5.3 7.3 6.2 11.1.2.1.3.4.2.6-.1.2-.3.3-.5.3z" fill="#003029" id="w20BIpsferoQ16su1N0" /><path d="M105.5 224.5c11.1 7.4 15 4.7 16.7 2.3 3.5-5.1-3.5-11.2-6.9-13.3-5.5-3.3-9.2-1.5-10.3.5-1.6 3-.8 7.1 6.4 11.8l-5.9-1.3z" fill="#FFA78E" id="Of_f74CSNeldt2BEER5js" /><path d="M111.4 226.2c-.1 0-.2 0-.3-.1-3.6-2.3-9.3-7.1-6.5-12.4.6-1.1 1.7-1.9 3.1-2.3 1.6-.4 4.2-.5 7.9 1.6 1.6 1 3.4 2.4 4.7 3.9 1.9 2 3 4 3.3 5.8 0 .3-.1.5-.4.6-.3 0-.5-.1-.6-.4-.6-3.7-4.9-7.4-7.6-9-3.3-2-5.7-1.9-7.1-1.5-1.1.3-2.1 1-2.5 1.8-1.8 3.5.3 7.3 6.2 11.1.2.1.3.4.1.7 0 .1-.2.2-.3.2z" fill="#003029" id="jhCnb67Cq2-WD6bZqBbV2" /><path d="M98.9 231.9c11.1 7.4 15 4.7 16.7 2.3 3.5-5.1-3.5-11.2-6.9-13.3-5.5-3.3-9.2-1.5-10.3.5-1.6 3-.8 7.1 6.4 11.8l-5.9-1.3z" fill="#FFA78E" id="VOvQ-rhJkMcscxzdcTXS8" /><path d="M104.8 233.7c-.1 0-.2 0-.3-.1-3.6-2.3-9.3-7.1-6.5-12.4.6-1.1 1.7-1.9 3.1-2.3 1.6-.4 4.2-.5 7.9 1.6 2.4 1.4 8.5 6.2 8.1 11.2 0 .3-.3.5-.5.4-.3 0-.5-.3-.4-.5.3-4-4.5-8.4-7.6-10.3-3.3-2-5.7-1.9-7.1-1.5-1.1.3-2.1 1-2.5 1.8-1.8 3.5.3 7.3 6.2 11.1.2.1.3.4.1.7-.2.2-.4.3-.5.3z" fill="#003029" id="GM0FKIm5IXZc7MkB0hNm" /><path d="M92.8 239c11.1 7.4 15 4.8 16.7 2.3 3.5-5.1-3.5-11.2-6.9-13.3-5.5-3.3-9.2-1.5-10.3.5-1.6 3-.8 7.1 6.4 11.8l-5.9-1.3z" fill="#FFA78E" id="azSbfTfZfprbnCzbSxR6_" /><path d="M98.6 240.7c-.1 0-.2 0-.3-.1-3.6-2.3-9.3-7.1-6.5-12.4.6-1.1 1.7-1.9 3.1-2.3 1.6-.4 4.2-.5 7.9 1.6 3.3 2 8.2 6.5 8.1 10.8 0 .3-.2.5-.5.5s-.5-.2-.5-.5c.1-3.9-4.6-8.2-7.6-10-3.3-2-5.7-1.9-7.1-1.5-1.1.3-2.1 1-2.5 1.8-1.8 3.5.3 7.3 6.2 11.1.2.1.3.4.1.7 0 .2-.2.3-.4.3z" fill="#003029" id="bltmQstSUbQteD2j5t7jx" /><path d="M88.4 189.6s-26.8-17.5-36.2-23.7c-23.4-15.3-46.8-5.7-49.6 1.4-3.7 9.3.2 23.1 12.6 31.4 7.6 5 18.5 11.7 21.2 13.2 3.3 1.9 12.7 28 28 10.2l24-32.5z" fill="#FFBBA0" id="BEuU1PhqVAQ2tY66qO5kD" /><path d="M70.3 178.2c-.1 0-.2 0-.3-.1-3.8-2.5-8.5-5.5-12.6-8.2-3.3-2.2-6.2-4-8-5.2-.2-.1-.3-.4-.1-.7s.4-.3.7-.1c1.8 1.2 4.7 3 8 5.2 4.1 2.7 8.8 5.7 12.6 8.2.2.1.3.4.1.7-.1.2-.3.2-.4.2z" fill="#003029" id="gMeBVRYm5tWDWVBJOe-NF" /><path d="M95.8 194.4c-2.3 4.4-17.9 31.1-19.5 33.7-2.5 4.4-13.9-2.9-11.9-6.5 3.2-5.8 18.1-30.5 20.4-34.4 2.3-3.8 12.9 3.5 11 7.2z" fill="#FFBBA0" id="G4lHHRneLicifyMZ3oH-" /><path d="M64.4 224.1c-.2 0-.3-.1-.4-.2-.7-1.2 0-2.4 0-2.5 2.9-5.3 15.4-26.1 19.5-33l.9-1.5c1.1-1.8 3.7-1.8 6.8 0 3.4 1.9 6.3 5.3 5 7.7-.1.2-.4.3-.7.2-.2-.1-.3-.4-.2-.7.7-1.4-1-4.3-4.6-6.4-2-1.1-4.6-1.9-5.5-.3l-.9 1.5c-4.1 6.8-16.6 27.7-19.5 32.9 0 0-.4.8 0 1.5.1.2 0 .5-.2.7 0 .1-.1.1-.2.1z" fill="#003029" id="AtyZkTdcu6FFgXoLUhSK" /><path d="M90.7 204.1c-.1 0-.2 0-.3-.1l-11.2-7c-.2-.1-.3-.4-.2-.7.1-.2.4-.3.7-.2l11.2 7.1c.2.1.3.4.2.7-.1.1-.3.2-.4.2zm-8.6 15.1c-.1 0-.2 0-.2-.1l-11.6-7c-.2-.1-.3-.4-.2-.7.1-.2.4-.3.7-.2l11.6 7c.2.1.3.4.2.7-.2.2-.4.3-.5.3z" fill="#003029" id="H6UtL82jyIpHFPRc2IyvO" /><path d="M167.9 164.8c-26-13.5-59.3-14.9-73.8 24.9-6.3 17.4-13.1 40.3-19 61.2h.6c4.2.2 8.1-.2 12.1.1.6-.1 1.2-.1 1.7-.1 2.4 0 4.9.2 7.3.1.8-.2 1.7-.2 2.7-.2 4.9 0 9.8.2 14.7 0 2.1-.1 4.2-.2 6.3-.1 1 0 1.9 0 2.9.2.5.1 1 .1 1.5.2 1.9-.4 3.7-.5 5.3-.2 3.1 0 6.2 0 9.3-.1 7.5-21.1 14-39.5 14-39.5s40.4-33 14.4-46.5z" fill="#FFA78E" id="u67XUeQozj1_YvqH6lfZq" /><path d="M195.9 176.8c-5.4-8.8-13-17-13-17l-76.3 4.9c-12.1 16.9-31.8 58.7-41.1 83.1.7.2 1.3.5 1.9 1h.1c.4.1.8.3 1.2.4 1.3.6 1.6.7 1 .4-.3-.1-.3-.2 0-.1.3 0 .6.1.8.2.5.2 1.1.3 1.5.6.4.1.8.3 1.2.5.8 0 1.5 0 2.3.1 4.2.2 8.1-.2 12.1.1.6-.1 1.2-.1 1.7-.1 2.4 0 4.9.2 7.3.1.8-.2 1.7-.2 2.7-.2 4.9 0 9.8.2 14.7 0 2.1-.1 4.2-.2 6.3-.1 1 0 1.9 0 2.9.2.5.1 1 .1 1.5.2 1.9-.4 3.7-.5 5.3-.2 4.3 0 8.5-.1 12.8-.2.5 0 1.1 0 1.6.1.6-.1 1.1-.2 1.7-.2 3 0 5.9.1 8.9.1.6 0 1.2.1 1.8.2 1 0 1.9-.1 2.9-.1.4 0 .7 0 1.1.1 5.1 0 10.2-.1 15.4-.1.6 0 1.2.1 1.8.2h.1c5.1-.2 10.1 0 15.2-.2.5 0 1.1 0 1.6.1 1.8-.1 3.6 0 5.3 0h2.9c.5 0 3.1.1 2.7.2 1-.1 2-.2 3 0-2.4-26.4-6.8-64.4-12.9-74.3z" fill="#50B9AD" id="FPgFpoXDqc_AcSWNRKIx" /><path d="M188.9 250.8c-.8-20.1-2.4-38.2-4.5-49.7 0-.3-.3-.4-.6-.4s-.4.3-.4.6c2.1 11.5 3.7 29.5 4.5 49.6.4-.1.7-.1 1-.1z" fill="#003029" id="yy33RQFyvowxYmewz6qgR" /><path d="M78.8 112.5c1.3 7 9.5 44.7 10 49 .5 4.3-10.2 13 1.3 28 40.9 12.6 88.7 6.2 113.3-8.1 12.5-18.2 4.4-29.8-3.7-38.2 0 0-.5-19.7-16-38.7l-104.9 8z" fill="#FFBBA0" id="VF1jmGl8Xd9Nu6_P8oGYt" /><path d="M87 167.6h-.2c-.2-.1-.3-.4-.2-.6.1-.2.2-.5.3-.7.9-1.9 1.5-3.3 1.4-4.6-.9-5.5-1.6-9.1-2.4-12.9-.4-2-.8-4-1.3-6.4-.1-.3.1-.5.4-.6.3-.1.5.1.6.4.5 2.4.9 4.5 1.3 6.4.8 3.8 1.5 7.4 2.4 12.9.2 1.5-.5 3.2-1.4 5.1-.1.2-.2.4-.3.7-.2.2-.4.3-.6.3z" fill="#003029" id="N4iqL-y3uTBOALY7MKQkO" /><path d="M109.2 194.1c31.3 9.7 62.9 12.6 94.9 2.2 3.1-1.1 4-13.7-.4-14.9l-94.5 12.7zM239.4 64l-18.5 39.1-40.4-8.2c-25.2 1.1-40.1 39.9-25.8 45.4 14.6 4.3 25 6.6 50.4 11.8 17.6 3.6 44.3 2 55.5-23.4 3.2-7.4 3.2-8.5 6.1-15.6 2-4.9 21-14.6 10.2-35.9-4.7-1.8-37.5-13.2-37.5-13.2z" fill="#FFBBA0" id="rN9Wp3F5mMkZ0shrpFQk6" /><path d="M239.4 64c-2.9-1 1.2-14.6 5.5-13.1 2.2.8 34.5 11.6 37 12.6 3.1 1.1-1.8 14.9-5.1 13.7-2.6-1.1-35.5-12.6-37.4-13.2z" fill="#FFBBA0" id="j5AwymIaYgbCxfD5YYeaK" /><path d="M213.1 153.7c-2.7-.2-5.4-.6-8.1-1.2-24.8-5.1-35.5-7.5-50.4-11.8-.3-.1-.4-.3-.3-.6.1-.3.3-.4.6-.3 14.9 4.4 25.6 6.7 50.4 11.8 2.6.5 5.3.9 7.9 1.2.3 0 .5.3.4.5-.1.2-.3.4-.5.4zm63.8-76.2h-.2c-2.7-1-35.7-12.5-37.5-13.1-.3-.1-.4-.4-.3-.6.1-.3.4-.4.6-.3 1.8.6 34.8 12.2 37.5 13.1.3.1.4.4.3.6 0 .2-.2.3-.4.3zm-59.7 34.1h-.2c-.2-.1-.3-.4-.2-.6l6-12.7c.1-.2.4-.3.6-.2.2.1.3.4.2.6l-6 12.7c-.1.1-.3.2-.4.2z" fill="#003029" id="PO4JEhI8gGbw2YRy9xQ1I" /><path d="M248.9 67.8h-.2c-.3-.1-.4-.4-.3-.6l4.8-13.5c.1-.3.4-.4.6-.3.3.1.4.4.3.6l-4.8 13.5c0 .1-.2.3-.4.3zm16.9 5.8h-.2c-.3-.1-.4-.4-.3-.6l4.8-13.7c.1-.3.4-.4.6-.3.3.1.4.4.3.6l-4.8 13.7c0 .2-.2.3-.4.3z" fill="#003029" id="fqQGxGEx4g_fvXQQEhBj4" /><path d="M114.9 95.2c9.2 2.2 31.1-2.2 35.3-5.4 5.2-4.1 22-.5 19 3.7-16.1 20.1-58.5 21.7-73.8 11.3-3.5-2.6 9.1-12.1 19.5-9.6z" fill="#FFBBA0" id="LJ9LBhTwdXbm2Uy3DbvSS" /><path d="M165.6 97.8h-.2L150 90.3c-.2-.1-.3-.4-.2-.6.1-.2.4-.3.6-.2l15.4 7.5c.2.1.3.4.2.6-.1.1-.3.2-.4.2zm-17.8 9.8c-.2 0-.3-.1-.4-.2l-8.1-13.7c-.1-.2-.1-.5.2-.7.2-.1.5-.1.7.2l8.1 13.7c.1.2.1.5-.2.7h-.3zm-21.5 3.9c-.3 0-.5-.2-.5-.5l.3-15.4c0-.3.2-.5.5-.5s.5.2.5.5l-.3 15.4c0 .3-.2.5-.5.5zm-22.4-2.3c-.1 0-.2 0-.3-.1-.2-.2-.2-.5-.1-.7l10.9-13.5c.2-.2.5-.2.7-.1.2.2.2.5.1.7L104.3 109c-.1.1-.2.2-.4.2z" fill="#003029" id="RHX734RekehYxh95rqCWH" /><path d="M122.5 111.6c-11.2 0-21.4-2.2-27.4-6.3-.2-.1-.3-.4-.1-.7.1-.2.4-.3.7-.1 7.5 5.1 21.7 7.3 36.3 5.6 16.3-1.8 29.7-8 36.9-16.9.2-.2.5-.2.7-.1.2.2.2.5.1.7-10.1 12.4-29.8 17.8-47.2 17.8z" fill="#003029" id="w0M3Fv9oHeKNhd11Hb608" /><path d="M256.9 59.1s-5.8-3-6.8-5.3c-1.9-4.5 1.6-9.7 11-8.6 14.4 1.6 33.4 10.9 33.4 10.9l-7.8 8.3c-14.4-.2-23.5-2.3-29.8-5.3z" fill="#FFA78E" id="wvbMYcAapNGXNlwr74Iv2" /><path d="M256.9 59.1c-17.5-.7-19.1-7.9-18.3-11.1 2.4-9.8 15-6.2 16.7-5.8 9.7 2.2 8.6 14.1-4.5 11.1l6.1 5.8z" fill="#FFA78E" id="n0ywvMFwj17atumSgmMIz" /><path d="M254.7 54.3c-1.3 0-2.6-.2-4.1-.5-.3-.1-.4-.3-.4-.6s.3-.4.6-.4c4.5 1 9.4.4 10.3-3.3.6-2.5-1.3-5.8-6-6.9-.3-.1-.4-.3-.4-.6.1-.3.3-.4.6-.4 5.3 1.2 7.4 5.1 6.7 8-.4 1.7-1.6 3.1-3.5 3.8-1.1.7-2.4.9-3.8.9z" fill="#003029" id="YL7LiOjEmKJRN-TN0dvNM" /><path d="M282.5 60.5c1.5 4.3 4.8 6.3 8.1 6.7 8.8 1 10.5-8.7 10.7-10.7.8-8-9.1-11.2-11.4 0l-7.4 4z" fill="#FFA78E" id="E0LEmwQEjGft5q1Pu0jw" /><path d="M276.1 61.1c1.4 4.7 4.7 6.9 8 7.3 9 1.2 10.7-10.4 11-12.3 1.5-8.9-10.4-12-11.9.2l-7.1 4.8z" fill="#FFA78E" id="kv6MqRuoLc9MSfQl1G7y8" /><path d="M289.4 67.9c-.2 0-.3-.1-.4-.2-.1-.2-.1-.5.2-.7 1.9-1.2 4.4-4 5.5-10.8V56c.4-2.2-.1-5.1-2.5-6.6-.2-.1-.3-.4-.2-.7.1-.2.4-.3.7-.2 2.3 1.5 3.5 4.4 2.9 7.6v.2c-.9 5.7-2.9 9.6-5.9 11.4-.2.2-.2.2-.3.2z" fill="#003029" id="SO4SEmT4Zo0N1GwO-Fwz" /><path d="M266.4 60.8c1.4 5.2 4.6 7.5 7.9 7.9 10 1.1 11-11.9 11.2-13.6 1.3-9.9-10.2-13-12 .4l-7.1 5.3z" fill="#FFA78E" id="FEG9WH-k5HjyP8kQaiZkG" /><path d="M279.5 68.2c-.2 0-.3-.1-.4-.2-.1-.2-.1-.5.2-.7 3.1-1.8 5-5.8 5.7-11.9v-.3c.4-2.7-.3-4.5-1-5.6-.1-.2-.1-.5.2-.7.2-.1.5-.1.7.2 1 1.7 1.4 3.8 1.1 6.2v.3c-.7 6.5-2.8 10.7-6.1 12.7h-.4z" fill="#003029" id="MVKCh183qK6p1YkdCrNwS" /><path d="M256.9 59.1c1.4 5.2 4.6 7.5 7.9 7.9 10 1.1 11-11.9 11.2-13.6 1.3-9.9-10.2-13-12 .4l-7.1 5.3z" fill="#FFA78E" id="FfiU9kJ-tDROT-q9DuRhv" /><path d="M268.1 67.3c-.2 0-.4-.1-.5-.4-.1-.3.1-.5.3-.6 5.1-1.3 6.9-7.6 7.5-12.7v-.3c.6-4.7-1.8-7.6-4.4-8-3.8-.5-6 3.9-6.6 8.5 0 .3-.3.5-.5.4-.3 0-.5-.3-.4-.5.4-3.2 1.4-5.7 2.9-7.4 1.4-1.5 3-2.2 4.8-1.9 3 .4 5.9 3.7 5.2 9.1v.3c-.6 5.4-2.5 12.1-8.2 13.5h-.1zM73.3 250.8c.8 0 1.5 0 2.3.1.5 0 1.1 0 1.6.1-.1-.2-.2-.3-.4-.3-1.5-.1-3-.2-4.5-.2.4 0 .7.2 1 .3zm121.8-51.5c-.3 0-.5-.2-.5-.5v-13.3c0-.3.2-.5.5-.5s.5.2.5.5v13.3c0 .3-.2.5-.5.5zm-21.7 3.6c-.3 0-.5-.2-.5-.5l-.2-9.9c0-.3.2-.5.5-.5s.5.2.5.5l.2 9.9c0 .2-.3.5-.5.5zm-25.1-.3c-.3 0-.5-.2-.5-.5V196c0-.3.2-.5.5-.5s.5.2.5.5v6.2c-.1.2-.3.4-.5.4z" fill="#003029" id="VTZG5xEALoFkJSZuN80ry" /><path d="M136.8 196.8c-16.4 0-32.4-2.3-46.9-6.8-.1 0-.2-.1-.2-.2-1.3-1.7-2.4-3.4-3.2-5-.1-.2 0-.5.2-.6.2-.1.5 0 .6.2.8 1.6 1.8 3.2 3 4.8 19.1 5.9 40.7 7.9 62.4 5.9 19.6-1.8 38-6.9 50.4-14.1.2-.1.5-.1.7.2.1.2.1.5-.2.7-12.5 7.2-31 12.4-50.8 14.2-5.3.5-10.6.7-16 .7zM100.4 63.4c-.2 0-.3-.1-.4-.2-1.7-2.9-2.6-5.9-3-9.2 0-.3.2-.5.4-.5.3 0 .5.2.5.4.4 3 1.3 5.8 2.7 8.5l4.5-1.9c.2-.1.5 0 .6.3.1.2 0 .5-.3.6l-4.9 2.1c0-.1 0-.1-.1-.1zm44.4 89c-.1 0-.2 0-.2-.1-7.8-4.1-11.1-10.3-11.3-10.6-.1-.2 0-.5.2-.7.2-.1.5 0 .7.2 0 .1 3.4 6.2 10.9 10.2.2.1.3.4.2.7-.2.2-.4.3-.5.3z" fill="#003029" id="ZcjvyfCAAXAA7Dt7uCHAH" /><path d="M104.1 61.3c.1.7-5 1.6-9.6 9.9-2.6 4.8-1.1 40.3 11.4 64.8-11 2.1-20.3 2.4-28.2 1.3-.9-1.5-1.3-5.8-.7-9.6-2.5 1.7-4.1 4.2-5.4 8.5-2.2-.6-4.3-1.2-6.2-2 .2-1.9.9-4.5 1.6-5.9-1.6.8-3.5 3.9-4 4.9-6.8-3.1-12-7.3-16-11.8 2.6-5.5 9.3-11 11.2-12.3-2.5.6-8.6 1.3-14.3 8.1-2.4-3.4-4.1-6.9-5.2-10C44 88.3 77.4 92.1 82.8 67.8c2.4-10.8 2.1-13.1 7-20.2 7-10.1 20.1-14.1 31.8-9.3l-17.5 23z" fill="#E4634F" id="YgDA1lZLef6aVqkcAgTFR" /><path d="M96.3 107.2c-.2 0-.4-.2-.5-.4-1.9-9.4-2.9-19.3-2.8-27.1 0-.3.2-.5.5-.5s.5.2.5.5c-.1 7.7.9 17.6 2.8 26.9 0 .3-.2.5-.5.6z" fill="#003029" id="BVSP0jEjLw4YxPlZ2P8Nn" /><path d="M135.8 55.2c-4.2-13.9-15.1-21.1-28.5-16C92.8 44.6 89.5 58 94.6 71.3c-5.1-3.2-9.3 2.5-7.4 7.3 1.4 3.6 6.6 5.7 11.6 1.4 10.3 10.3 22.4 10 33.1 4.8 12.3-6.1 15.7-22.8 3.9-29.6z" fill="#FFA78E" id="fVzmdf96gpI5ULByapVfY" /><path d="M91.1 78.9c-.1 0-.1 0-.2-.1-.2-.1-.3-.4-.2-.6l2.2-4.5c.1-.2.4-.3.6-.2.2.1.3.4.2.6l-2.2 4.5c0 .2-.2.3-.4.3z" fill="#003029" id="zSdvrIdccZw_N4n4Enom" /><path d="M94.3 77.7h-.2l-4.4-2.2c-.2-.1-.3-.4-.2-.6.1-.2.4-.3.6-.2l4.4 2.2c.2.1.3.4.2.6-.1.1-.3.2-.4.2z" fill="#003029" id="xn06s2PyHC8OeQhe3WlSb" /><path d="M104.1 61.3c1 6-4.3 11.1-9.6 9.9-2.5-3.6-3.9-13.9-.2-21.8 5.1-11.1 19.7-14.8 27.4-11.2l-17.6 23.1z" fill="#E4634F" id="EUNJ5p5ovY_4xApM5_zE" /><path d="M118.6 37.3c8.6-4.1 17.9 1.7 19.4 9.2L127.6 51c-1.3-2.4-3.7-4.4-6.8-6.2 1.5 2.6 2.5 5.3 2.5 8.1l-5.7 2.5c-.6-1.6-1.5-3.4-3.3-4.5.7 1.4 1.4 3.9 1.1 5.5l-14.9 6.5c-2.5-4.5-4.8-11.6-1.2-16.5l19.3-9.1z" fill="#E4634F" id="RkEBouFQNVkvLOr4cfAw" /><path d="M128.5 57.5c-.3 0-.5-.2-.5-.5-.2-2.8 1.2-6 4.7-6.8.3-.1.5.1.6.4.1.3-.1.5-.4.6-2.9.6-4 3.4-3.9 5.8 0 .3-.2.5-.5.5z" fill="#003029" id="nNJyYkaCrztlOirx3r11h" /><path d="M132.9 55c.7 2.3.5 4.4-.6 4.7-1 .3-2.4-1.3-3.1-3.6-.3-.9-.4-1.8-.4-2.6.7-1 1.9-2 2.1-1.9 1.3 1.1 1.8 2.7 2 3.4zM113 66.4c-.1 0-.2 0-.3-.1-.2-.1-.3-.4-.1-.7 2.3-3.4 6.5-5.1 9.9-3.9.3.1.4.4.3.6-.1.3-.4.4-.6.3-3-1.1-6.7.4-8.7 3.5-.1.2-.3.3-.5.3z" fill="#003029" id="dSod_RcVYZyIOYMo03OGZ" /><path d="M120.1 62.4c-.2 0-.4-.1-.5-.3-.4-1.2-1.8-3.1-3.2-3.7-.2-.1-.4-.4-.3-.6.1-.2.4-.4.6-.3 1.8.7 3.2 2.9 3.7 4.2.1.2 0 .5-.3.6.1.1 0 .1 0 .1z" fill="#003029" id="leHD1yY4EUVVAYcQt9TKw" /><path d="M131.7 67.8c1.4 1.1 4.1 4.6 2.2 6.4-3 2.9-7.2-1-8.6-3.1 0 0 4.1 3.5 6.9 1.3 2.1-1.7-.5-4.6-.5-4.6zm-5.8.3c-3.5-1.6.1-5.4 2.9-3.2.9-5.4 5.8-1.9 3.2.4-1.9 1.4-4 2.4-6.1 2.8z" fill="#E4634F" id="n1gn65yXsmmafGhoubBZg" /><path d="M130.1 66.5c3.2 2.1 3.4 4.6 2.1 5.8-1.5 1.4-5.2 1.2-9.6-3.9 2.6.2 5.1-.3 7.5-1.9z" fill="#FFFFFF" id="uLoVcGLK6Z88VU55rQYNX" /><path d="M130.1 73.6h-.2c-1.4-.1-4.2-.8-7.6-4.8-.2-.2-.1-.5.1-.7.2-.2.5-.1.7.1 3.2 3.8 5.7 4.4 6.9 4.5.8 0 1.5-.2 2-.6.4-.4.6-1 .6-1.6-.1-1.2-1.1-2.4-2.6-3.4-.2-.1-.3-.4-.1-.7s.4-.3.7-.1c1.8 1.2 2.9 2.7 3.1 4.2.1.9-.2 1.8-.8 2.4-1 .4-1.8.7-2.8.7z" fill="#003029" id="IdMIBE4KO8Il0Xg37e9Uh" /><path d="M123.3 69h-.7c-.3 0-.5-.3-.4-.5 0-.3.3-.5.5-.4 3.3.3 7.5-1.8 9.1-3.1.2-.2.5-.1.7.1.2.2.1.5-.1.7-1.8 1.3-5.8 3.2-9.1 3.2zm-22.9-5.6c-.2 0-.3-.1-.4-.2-1.8-3.2-2.8-6.5-3.1-9.8 0-.3.2-.5.4-.5.3 0 .5.2.5.4.3 3 1.2 6.1 2.8 9l5.5-2.4c.2-.1.5 0 .6.3.1.2 0 .5-.3.6l-5.9 2.6h-.1z" fill="#003029" id="lNe4Eq16s9BgvR8ikg6p3" /><path d="M276.2 39.8c-1.4.7-3.1.4-4.1-.8-5.9-6.4-23.4-27.6-8.8-36.2 9.8-5.8 16.3 8.7 16.3 8.7S290.5.8 298 9.5c10.8 12.9-13.9 26.4-21.8 30.3z" fill="#E4634F" id="sJNe6mNbu8TS_SZRYZ3wQ" /></g></g></g><g transform="translate(485.625 1890.0) rotate(0.0 1095.9375 44.0625) scale(7.248263888888889 7.532051282051283)" id="j7d3-7Fm9GzeCDoSufdRU"><g clip-path="url(#clipPath_CmvBLHFF)" transform="matrix(1 0 0 1 0 0)" id="xtOR1EUOIaLT8r1546kmN"><path d="M300.9 2.9c-3 4.3-8.1 7.2-13.7 7.2H16.5C9.9 10 4.1 6.1 1.4.5 1.1.6.8.6.5.7c2.8 6 8.9 10.2 16 10.2h270.7c6.2 0 11.7-3.2 14.8-8.1-.3.1-.7.1-1.1.1z" fill="#003029" id="iOuw2knLm7rRDQs2heMlH" /></g></g><g transform="translate(1194.375 993.75) rotate(0.0 888.75 470.625) scale(1.4613512669155007 1.4602282687781865)" id="IxDKSHPeIrnNTIsJHaQZk"><g clip-path="url(#clipPath_sJTVz8Tu)" transform="matrix(1 0 0 1 0 0)" id="p4xbck3qtbCGXrbM6xtHs"><path d="M989.48 339.487c-13.266 0-24.016 10.75-23.994 24.016.055 33.622.15 93.941.15 123.77 0 68.908-9.843 97.497-41.377 97.497s-42.024-28.584-42.024-97.497c0-29.829.096-90.148.15-123.77.023-13.266-10.727-24.016-23.994-24.016h-48.11c-13.248 0-23.994 10.741-23.994 23.994v125.607c0 82.936 44.025 150.166 137.187 150.166s138.094-67.235 138.094-150.166V363.476c0-13.248-10.741-23.994-23.994-23.994h-48.11z" fill="#E4634F" id="lxyLwAlFCmcuzfsFODYIK" /><path d="M1037.011 274.078v-52.096l60.975 74.695a15.892 15.892 0 0 0 12.31 5.842h77.063c13.323 0 20.681-15.462 12.277-25.8l-101.508-124.877 79.253-114.494c7.247-10.469-.246-24.769-12.979-24.769h-28.401a15.894 15.894 0 0 0-13.139 6.95l-85.859 126.109V40.852c0-15.615-12.658-28.273-28.273-28.273h-41.647c-15.615 0-28.273 12.658-28.273 28.273v233.391c0 15.615 12.658 28.273 28.273 28.273h41.647c15.615 0 28.273-12.658 28.273-28.273v-.164h.008z" fill="#FFFFFF" id="YtZnxqpSZeAi1Uoni7COp" /><path d="M1187.359 305.059h-77.063a18.36 18.36 0 0 1-14.277-6.775l-56.468-69.174v44.969c0 .067-.003.135-.008.201-.021 16.973-13.835 30.775-30.813 30.775h-41.647c-16.99 0-30.812-13.822-30.812-30.812V40.852c0-16.99 13.822-30.813 30.812-30.813h41.647c16.99 0 30.813 13.823 30.813 30.813v96.542l81.22-119.295a18.421 18.421 0 0 1 15.239-8.061h28.4c6.941 0 13.01 3.671 16.231 9.819 3.222 6.149 2.787 13.228-1.163 18.935l-78.169 112.927 100.305 123.397c4.513 5.551 5.406 13.012 2.333 19.471-3.074 6.46-9.426 10.472-16.58 10.472zm-150.349-85.617a2.54 2.54 0 0 1 1.969.934l60.976 74.695a13.299 13.299 0 0 0 10.342 4.908h77.063c5.253 0 9.735-2.831 11.992-7.574s1.626-10.008-1.687-14.083l-101.508-124.878a2.54 2.54 0 0 1-.118-3.048l79.254-114.494c2.855-4.126 3.17-9.241.842-13.686-2.329-4.444-6.715-7.098-11.732-7.098h-28.4a13.343 13.343 0 0 0-11.04 5.84l-85.859 126.109a2.54 2.54 0 0 1-4.64-1.43V40.852c0-14.189-11.544-25.733-25.733-25.733h-41.647c-14.188 0-25.732 11.544-25.732 25.733v233.391c0 14.188 11.544 25.732 25.732 25.732h41.647c14.189 0 25.733-11.544 25.733-25.732v-.164c0-.067.003-.135.008-.201v-51.895a2.541 2.541 0 0 1 2.538-2.541zm.001 54.637h.01z" fill="#003029" id="DfHXTyLjsqkkV4RJl5Hc" /><path d="M912.651 22.257v204.652L834.233 27.395a28.128 28.128 0 0 0-26.177-17.836h-61.693c-15.537 0-28.132 12.599-28.125 28.137l.12 255.154c.002 7.011 5.687 12.689 12.697 12.689h21.453c7.013 0 12.697-5.683 12.697-12.697V89.451l77.862 198.247a28.123 28.123 0 0 0 26.178 17.843h61.724c15.526 0 28.113-12.578 28.125-28.104l.204-255.174c.005-7.016-5.681-12.706-12.697-12.706h-21.254c-7.013 0-12.697 5.683-12.697 12.697v.003z" fill="#FFBBA0" id="mVckLBGh2SULwTIT6CluG" /><path d="M535.19 35.406 444.975 283.3c-3.37 9.263 3.515 19.051 13.408 19.051h70.757c6.42.001 12.05-4.273 13.751-10.441l12.127-43.958 79.651-.182 12.383 44.194c1.72 6.141 7.336 10.389 13.736 10.388h70.486c9.893 0 16.782-9.791 13.404-19.059L654.291 35.387c-5.006-13.73-18.101-22.871-32.763-22.872h-53.567c-14.67.001-27.77 9.151-32.771 22.891zm32.958 164.934 26.408-95.726 26.785 95.604z" fill="#FFFFFF" id="NzJbqZj05Aj7bjZE2lso9" /><path d="M660.784 304.891c-7.507 0-14.159-5.034-16.179-12.243l-11.861-42.335-75.791.174-11.614 42.099c-1.998 7.245-8.658 12.306-16.197 12.306h-70.759a16.83 16.83 0 0 1-13.777-7.162c-3.172-4.529-3.907-10.104-2.018-15.297l90.215-247.895v-.001c5.347-14.689 19.476-24.561 35.158-24.562h53.567c15.672.001 29.797 9.864 35.149 24.542l90.387 247.905c1.893 5.193 1.16 10.771-2.012 15.303a16.828 16.828 0 0 1-13.779 7.166h-70.489zm-26.115-59.662c1.139 0 2.139.758 2.445 1.854l12.383 44.194c1.408 5.025 6.05 8.534 11.29 8.533h70.486c3.889 0 7.395-1.822 9.617-4.999 2.208-3.154 2.718-7.036 1.4-10.649L651.904 36.257c-4.623-12.681-16.83-21.201-30.376-21.202h-53.567c-13.555.001-25.766 8.528-30.385 21.22l-90.215 247.894c-1.314 3.613-.803 7.494 1.405 10.646 2.224 3.175 5.729 4.996 9.616 4.996h70.759c5.261 0 9.907-3.526 11.301-8.577l12.127-43.958a2.54 2.54 0 0 1 2.442-1.864l79.651-.183zm-66.521-42.349a2.54 2.54 0 0 1-2.449-3.216l26.408-95.726a2.539 2.539 0 0 1 2.443-1.864h.005c1.139 0 2.139.758 2.445 1.854l26.785 95.604a2.541 2.541 0 0 1-2.44 3.226l-53.193.121-.004.001zm26.426-88.784-23.089 83.695 46.508-.105z" fill="#003029" id="sDSBVZF6RC9Wxc2VRuAOH" /><path d="M665.623 639.254c83.09 0 150.45-67.107 150.45-149.886s-67.36-149.886-150.45-149.886-150.45 67.107-150.45 149.886 67.359 149.886 150.45 149.886zm0-199.351c27.418 0 49.647 22.146 49.647 49.465s-22.229 49.465-49.647 49.465-49.647-22.146-49.647-49.465c-.001-27.319 22.228-49.465 49.647-49.465zM383.299 132.358l-55.378.124V35.363c0-14.252-11.597-25.806-25.903-25.806h-47.101c-15.713 0-28.45 12.69-28.45 28.344v241.834c0 14.252 11.597 25.806 25.903 25.806h49.652c14.306 0 25.903-11.554 25.903-25.806v-98.637l55.378-.124v98.761c0 14.252 11.597 25.806 25.903 25.806h49.652c14.306 0 25.903-11.554 25.903-25.806V35.363c0-14.252-11.597-25.806-25.903-25.806h-49.652c-14.306 0-25.903 11.554-25.903 25.806v96.995z" fill="#50B9AD" id="qx6bK3wuQNSvd1iWRU7M" /><path d="M116.95 305.428h43.168c16.046 0 29.059-12.949 29.078-28.934l.253-217.086h61.708c8.922 0 16.154-7.205 16.154-16.093v-18.03c0-8.888-7.232-16.093-16.154-16.093H27.412c-8.922 0-16.154 7.205-16.154 16.093v18.03c0 8.888 7.232 16.093 16.154 16.093h60.204l.253 217.086c.019 15.985 13.032 28.934 29.078 28.934z" fill="#E4634F" id="RNuKOfiYKmDQlirbDarL" /><path d="m535.649 350.07-62.805 129.289-66.254-129.527a12.886 12.886 0 0 0-11.474-7.017h-66.364c-9.538 0-15.77 9.993-11.568 18.551l82.774 168.661v81.959c0 13.335 10.817 24.147 24.16 24.147h52.306c13.346 0 24.16-10.812 24.16-24.147v-81.959l82.774-168.661c4.198-8.558-2.034-18.551-11.568-18.551h-24.547a12.883 12.883 0 0 0-11.594 7.255z" fill="#FFFFFF" id="PsmcDJD8CK8P1lyEucf8b" /><path d="M476.423 638.673h-52.307c-14.722 0-26.699-11.972-26.699-26.688v-81.369l-82.515-168.132a15.321 15.321 0 0 1 .754-14.942 15.337 15.337 0 0 1 13.095-7.268h66.364a15.363 15.363 0 0 1 13.736 8.401l63.934 124.99 60.578-124.706c2.562-5.276 8.009-8.686 13.875-8.686h24.55a15.334 15.334 0 0 1 13.091 7.266 15.326 15.326 0 0 1 .758 14.944l-82.515 168.132v81.369c0 14.718-11.977 26.689-26.699 26.689zM328.751 345.355a10.286 10.286 0 0 0-8.783 4.874 10.273 10.273 0 0 0-.505 10.018l82.774 168.661c.171.349.26.731.26 1.119v81.959c0 11.914 9.698 21.607 21.619 21.607h52.307c11.921 0 21.619-9.693 21.619-21.607v-81.959c0-.388.089-.771.26-1.119l82.774-168.661a10.273 10.273 0 0 0-.508-10.019 10.285 10.285 0 0 0-8.78-4.873h-24.549c-3.936 0-7.588 2.286-9.306 5.824h-.001l-62.804 129.289a2.54 2.54 0 0 1-2.259 1.431h-.026a2.542 2.542 0 0 1-2.262-1.384l-66.254-129.526a10.304 10.304 0 0 0-9.213-5.634zm206.898 4.715h.01z" fill="#003029" id="xE0GbfXZYGBQtYwgdAHef" /><path d="M1141.509 341.25h39.769c10.59 0 19.174 8.58 19.174 19.164v134.851c0 10.584-8.584 19.164-19.174 19.164h-39.769c-10.59 0-19.174-8.58-19.174-19.164V360.414c0-10.584 8.585-19.164 19.174-19.164zm0 211.983h39.769c10.59 0 19.174 8.58 19.174 19.164v45.925c0 10.584-8.584 19.164-19.174 19.164h-39.769c-10.59 0-19.174-8.58-19.174-19.164v-45.925c0-10.584 8.585-19.164 19.174-19.164z" fill="#FFBBA0" id="rA_olLF3BSoQlAJ6esJDD" /><g fill="#003029" id="WlIr4RXvnNDe9kJsK36d"><path d="M251.157 61.948h-24.69a2.541 2.541 0 0 1 0-5.08h24.69c8.843 0 13.614-6.983 13.614-13.554V25.285c0-7.727-5.853-13.554-13.614-13.554a2.541 2.541 0 0 1 0-5.08c10.657 0 18.694 8.011 18.694 18.634v18.029c.001 9.033-6.551 18.634-18.694 18.634zm76.768 121.69a2.54 2.54 0 0 1-2.54-2.54l-.004-48.616a2.54 2.54 0 0 1 5.08 0l.004 48.616a2.54 2.54 0 0 1-2.54 2.54zm470.836 378.117a2.54 2.54 0 0 1-2.192-3.82c15.839-27.163 33.647-94.845-12.316-156.582a2.54 2.54 0 1 1 4.075-3.033c21.918 29.438 32.1 62.431 30.262 98.059-1.413 27.401-10.034 51.086-17.631 64.115a2.544 2.544 0 0 1-2.198 1.261z" fill="#003029" id="R0gdrnqt43z1g1iCXPZUA" /></g></g></g><g transform="translate(2281.875 560.625) rotate(0.0 125.625 178.125) scale(3.3943070209805324 3.350418508417192)" id="zErv2b6MN55LUhSFAXre-"><g clip-path="url(#clipPath_Y3rusWUc)" transform="matrix(1 0 0 1 0 0)" id="lv3AwpbYXqLczCIL5ra6f"><path d="M28.574 55.776 37.005 0l7.91 55.776 29.106 6.284-29.106 8.525-7.91 35.745-8.431-35.745L0 62.06z" fill="#50B9AD" id="szAOnkyjI-D3jGSaUbtl" /></g></g></g></g></svg>