<svg xmlns="http://www.w3.org/2000/svg" fill="none" viewBox="0 0 665 560" width="665" height="560"><defs><clipPath id="assetClipPath_YIsCHz05"><path d="m0 0 h 3000 v 2526 h -3000 v -2526 z" id="path_sBBFOdeH" fill="#ffffff" /></clipPath><clipPath id="clipPath_kcgkr--a"><path d="m0 0 h 456.961 v 466.849 h -456.961 v -466.849 z" id="path_VaPZNrs7" /></clipPath><clipPath id="clipPath_9Jzzam9F"><path d="m0 0 h 980.787 v 753.481 h -980.787 v -753.481 z" id="path_4nW-VkTM" /></clipPath><clipPath id="clipPath_elnDThXf"><path d="m0 0 h 464 v 496 h -464 v -496 z" id="path_r8gSB6sy" /></clipPath><clipPath id="clipPath_a8eY-ZaH"><path d="m0 0 h 512 v 57 h -512 v -57 z" id="path_28Pijzjj" /></clipPath><clipPath id="clipPath_D3ppVDRu"><path d="m0 0 h 1380.766 v 1261.787 h -1380.766 v -1261.787 z" id="path_Ll7KSmv8" /></clipPath><clipPath id="clipPath_CxtVniPu"><path d="m0 0 h 1185.277 v 494.128 h -1185.277 v -494.128 z" id="path_IIFXv9w5" /></clipPath><clipPath id="clipPath_V8SwO4J3"><path d="m0 0 h 74.021 v 106.33 h -74.021 v -106.33 z" id="path_goC-i8Dm" /></clipPath><clipPath id="clipPath_EORYLBGb"><path d="m0 0 h 77.021 v 109.33 h -77.021 v -109.33 z" id="path_Bg1xTXBx" /></clipPath><clipPath id="clipPath_c9wC6hNi"><rect width="464" height="496" rx="20" ry="20" stroke-linejoin="round" stroke="#E00000" stroke-width="0" /></clipPath><clipPath id="clipPath_QVQfg08Z"><rect width="512" height="57" rx="20" ry="20" stroke-linejoin="round" stroke="#007AD1" stroke-width="0" /></clipPath></defs><g transform="" data-asset-index="0"><g clip-path="url(#assetClipPath_YIsCHz05)" transform="scale(0.22166666666666668 0.22166666666666668)" data-asset-index="0"><defs /><g transform="translate(104.21052631578948 28.42105263157895) rotate(23.287763443018314 593.6842105263158 604.7368421052631) scale(2.5984020978871976 2.5907170931297405)" id="BJT2yx5HcZ1VDMIlBdb0j"><g clip-path="url(#clipPath_kcgkr--a)" transform="matrix(1 0 0 1 0 0)" id="pZ9TM7o42rdrycZaRhltT"><path d="M168.55 466.849a1.497 1.497 0 0 1-1.501-1.505l.62-168.025L5.371 340.813a1.501 1.501 0 0 1-1.32-2.625l131.754-104.277L.609 134.138a1.5 1.5 0 0 1 1.229-2.668l163.674 37.994-6.287-167.908a1.5 1.5 0 0 1 2.853-.702l72.344 151.654L361.777 42.902a1.5 1.5 0 0 1 2.328 1.793l-73.462 151.116 165.098 31.232a1.5 1.5 0 0 1 .05 2.937l-163.95 36.784 78.519 148.552a1.5 1.5 0 0 1-2.266 1.871L237.114 311.94l-67.187 154.009a1.5 1.5 0 0 1-1.374.9zm.627-172.987a1.504 1.504 0 0 1 1.5 1.506l-.601 162.73 65.07-149.156a1.503 1.503 0 0 1 2.315-.57l126.854 101.931-76.045-143.871a1.5 1.5 0 0 1 .998-2.165l158.784-35.625-159.896-30.248a1.5 1.5 0 0 1-1.071-2.129L358.233 49.91 234.891 156.062a1.5 1.5 0 0 1-2.333-.491L162.494 8.695l6.091 162.618a1.497 1.497 0 0 1-1.838 1.517L8.229 136.034l130.937 96.629a1.5 1.5 0 0 1 .04 2.383L11.604 336.037l157.185-42.124a1.51 1.51 0 0 1 .388-.051z" fill="#FFBBA0" id="eq9SNt1enm_mWdG_fm7o" /></g></g><g transform="translate(533.6842105263158 489.4736842105263) rotate(0.0 1185.7894736842106 912.6315789473686) scale(2.418036686220781 2.422440855037801)" id="qHGpmAYmbTi1c69kyE2aJ"><g clip-path="url(#clipPath_9Jzzam9F)" transform="matrix(1 0 0 1 0 0)" id="hO0Cz6p4bt0cvzDqr03g3"><rect fill="#FFFFFF" height="750.481" rx="55.262" width="977.787" x="1.5" y="1.5" id="NFTO6EeW4pq6gGRRGhAiB" /><path d="M924.025 753.481H56.762C25.463 753.481 0 728.018 0 696.72V90.173a1.5 1.5 0 0 1 3 0V696.72c0 29.645 24.117 53.762 53.762 53.762h867.263c29.644 0 53.762-24.117 53.762-53.762V90.173a1.5 1.5 0 0 1 3 0V696.72c0 31.299-25.463 56.762-56.762 56.762z" fill="#003029" id="RE2E2FExUrV4xGxdXbSAf" /><path d="M924.025 1.5H56.762C26.242 1.5 1.5 26.242 1.5 56.762v33.411h977.787V56.762c0-30.52-24.742-55.262-55.262-55.262z" fill="#FF806A" id="PUuDljiU3AHEjw49tN3Lh" /><path d="M980.787 91.673H0V56.762C0 25.463 25.463 0 56.762 0h867.264c31.298 0 56.761 25.463 56.761 56.762zM3 88.673h974.787V56.762C977.787 27.117 953.67 3 924.025 3H56.762C27.117 3 3 27.117 3 56.762z" fill="#FF806A" id="MZ-BMwOivIQTOZ7ZU5kx5" /><path d="M96.149 74.098c-.64 0-1.28-.244-1.768-.732L50.616 29.599a2.5 2.5 0 1 1 3.536-3.535L97.917 69.83a2.5 2.5 0 0 1-1.768 4.267z" fill="#FFFFFF" id="lTQk9KnetNAs72QaTyxsu" /><path d="M52.383 74.098a2.5 2.5 0 0 1-1.768-4.267l43.766-43.767a2.5 2.5 0 1 1 3.536 3.535L54.152 73.365a2.493 2.493 0 0 1-1.768.732z" fill="#FFFFFF" id="WGrYNaPxWo94HhKP6RaJh" /><g fill="#003029" id="b_ZNRFiuM3Hff5NJx2qh0"><path d="M327.266 136.572a1.5 1.5 0 0 1-1.5-1.5v-43a1.5 1.5 0 0 1 3 0v43a1.5 1.5 0 0 1-1.5 1.5zm0 491.922a1.5 1.5 0 0 1-1.5-1.5v-81.987a1.5 1.5 0 0 1 3 0v81.987a1.5 1.5 0 0 1-1.5 1.5zm0-163.975a1.5 1.5 0 0 1-1.5-1.5v-81.987a1.5 1.5 0 0 1 3 0v81.987a1.5 1.5 0 0 1-1.5 1.5zm0-163.974a1.5 1.5 0 0 1-1.5-1.5v-81.987a1.5 1.5 0 0 1 3 0v81.987a1.5 1.5 0 0 1-1.5 1.5zm0 452.936a1.5 1.5 0 0 1-1.5-1.5v-43a1.5 1.5 0 0 1 3 0v43a1.5 1.5 0 0 1-1.5 1.5zm325-616.909a1.5 1.5 0 0 1-1.5-1.5v-43a1.5 1.5 0 0 1 3 0v43a1.5 1.5 0 0 1-1.5 1.5zm0 491.922a1.5 1.5 0 0 1-1.5-1.5v-81.987a1.5 1.5 0 0 1 3 0v81.987a1.5 1.5 0 0 1-1.5 1.5zm0-163.975a1.5 1.5 0 0 1-1.5-1.5v-81.987a1.5 1.5 0 0 1 3 0v81.987a1.5 1.5 0 0 1-1.5 1.5zm0-163.974a1.5 1.5 0 0 1-1.5-1.5v-81.987a1.5 1.5 0 0 1 3 0v81.987a1.5 1.5 0 0 1-1.5 1.5zm0 452.936a1.5 1.5 0 0 1-1.5-1.5v-43a1.5 1.5 0 0 1 3 0v43a1.5 1.5 0 0 1-1.5 1.5z" fill="#003029" id="LDABYoALytQyfDXr3zxes" /></g></g></g><g transform="translate(969.4736842105264 710.5263157894736) rotate(0.0 732.6315789473686 783.1578947368421) scale(3.1578947368421058 3.1578947368421053)" id="bdZG3cJz1oRZnGyJHMiPv"><g clip-path="url(#clipPath_elnDThXf)" transform="matrix(1 0 0 1 0 0)" id="fs5oYEQekeywXQKjyPB4P"><rect width="464" height="496" fill="#FFFFFF" rx="20" ry="20" clip-path="url(#clipPath_c9wC6hNi)" id="OlG3TPXKd2xdgAAie9dZ4" /></g></g><g transform="translate(836.8421052631579 530.5263157894736) rotate(0.0 808.421052631579 90.0) scale(3.1578947368421053 3.1578947368421053)" id="PpoPUATW_GBReeLMniRKG"><g clip-path="url(#clipPath_a8eY-ZaH)" transform="matrix(1 0 0 1 0 0)" id="qEq8pxDw5xsGYJBk7rrx4"><rect width="512" height="57" fill="#FF806A" rx="20" ry="20" clip-path="url(#clipPath_QVQfg08Z)" id="rLFMqkNEJnVMvu_ZW__yx" /></g></g><g transform="translate(618.9473684210526 429.4736842105263) rotate(0.0 1124.2105263157896 1027.8947368421054) scale(1.6283867452063414 1.6292682312341233)" id="eATL94cwRHVzr35IXAUXO"><g clip-path="url(#clipPath_D3ppVDRu)" transform="matrix(1 0 0 1 0 0)" id="fTMnHiVSsrhU_Lhg9IdxL"><path d="M894.148 804.124s3.023-160.603-1.521-189.367c-4.191-26.53-371.554-123.473-371.554-123.473s-35.037 96.946-39.229 123.473c-4.544 28.764-1.521 189.367-1.521 189.367z" fill="#FF8E77" id="zfMdZU-ztLHosXICa1TEg" /><path d="M687.865 380.958c-39.635-.167-78.941 1.988-112.303 5.261-102.095 10.021-197.75 34.119-294.074 168.644l233.008 100.64H861.23l233.008-100.64c-84.17-123.27-191.976-158.623-294.074-168.644-33.36-3.274-72.666-5.094-112.301-5.261z" fill="#FFA78E" id="XYf30Z-AeS9ESxxgVpded" /><path d="M890.059 703.642s43.681 89.477 83.68 169.611c33.83-15.319 68.335-29.147 103.633-40.502 41.663-13.402 83.896-25.219 124.659-41.211 12.013-5.48 23.768-11.472 35.125-18.146l-143.38-218.528C997.452 420.339 901.798 396.241 799.703 386.22c0 0-45.714 105.439-112.071 105.439-71.991 0-112.071-105.439-112.071-105.439-102.095 10.021-197.75 34.119-294.073 168.646L95.673 838.072c1.474.759 2.948 1.516 4.423 2.29 19.832 10.41 40.132 19.977 60.155 30.018 38.533 19.323 76.995 38.922 116.491 56.223a1070.317 1070.317 0 0 0 82.822 29.608c41.711-80.643 125.641-252.569 125.641-252.569l157.796.352c-.013.066-.024.133-.036.199l44.667-.1 44.667.1c-.013-.066-.024-.133-.036-.199z" fill="#E4634F" id="sqb8Rc1hdQAxTPqumUBgC" /><path d="M439.585 702.001c-6.06 39.4 256.3 19.012 256.3 19.012s-184.952-97.813-256.3-19.012z" fill="#E4634F" id="tObrL-XGzBUWayBzqY9c" /><path d="M563.376 729.049c-55.606 0-110.357-3.777-123.285-17.711-2.655-2.862-3.772-6.235-3.23-9.755a2.737 2.737 0 0 1 .682-1.431c29.909-33.031 84.424-40.247 157.654-20.858 54.827 14.515 101.513 39.038 101.978 39.285a2.758 2.758 0 0 1-1.075 5.183c-4.959.386-69.393 5.289-132.723 5.289zm-121.137-25.865c-.04 1.565.573 2.982 1.894 4.405 20.393 21.979 172.641 16.222 241.495 11.414-37.547-17.985-182.782-81.253-243.39-15.819z" fill="#003029" id="isNPzcu0Nw-tx9Jtj08pc" /><path d="M439.587 704.757a2.754 2.754 0 0 1-1.707-4.92c10.764-8.48 30.135-11.021 60.968-7.988a2.756 2.756 0 1 1-.541 5.486c-29.321-2.879-47.441-.711-57.018 6.832a2.753 2.753 0 0 1-1.703.59z" fill="#003029" id="FNw3Ez7lbS1MbJE8UNrKB" /><path d="M439.589 704.757a2.756 2.756 0 0 1-2.739-3.092c1.663-13.528 3.304-30.323 4.752-45.141 1.749-17.897 3.26-33.353 4.381-38.924 5.362-26.632 47.507-123.315 49.3-127.418a2.757 2.757 0 0 1 5.07 2.163l-.019.043c-.435.999-43.701 100.243-48.945 126.301-1.068 5.298-2.565 20.627-4.3 38.373-1.452 14.849-3.098 31.679-4.768 45.277a2.757 2.757 0 0 1-2.731 2.418zm385.598 24.292c-63.329 0-127.763-4.903-132.723-5.289a2.757 2.757 0 0 1-1.075-5.183c.465-.246 47.15-24.77 101.978-39.285 73.23-19.389 127.745-12.173 157.654 20.858.364.4.601.898.682 1.431.542 3.52-.575 6.893-3.23 9.755-12.929 13.934-67.679 17.711-123.285 17.711zm121.137-25.865c-60.608-65.434-205.842-2.166-243.39 15.819 68.855 4.808 221.103 10.565 241.495-11.414 1.321-1.424 1.935-2.84 1.894-4.405z" fill="#003029" id="XLR9D_bnZyX7aLt7tMHIz" /><path d="M947.272 704.167c-9.577-7.543-27.697-9.711-57.018-6.832a2.756 2.756 0 1 1-.541-5.486c30.833-3.033 50.204-.492 60.968 7.988a2.754 2.754 0 0 1-1.707 4.92 2.747 2.747 0 0 1-1.703-.59z" fill="#003029" id="Rh6XM3Cki0rxUz3SDKgwQ" /><path d="M946.243 702.339c-1.67-13.598-3.317-30.428-4.768-45.277-1.735-17.746-3.232-33.075-4.3-38.373-5.244-26.057-48.51-125.301-48.945-126.301l-.019-.043a2.755 2.755 0 1 1 5.07-2.163c1.793 4.102 43.938 100.785 49.3 127.418 1.121 5.572 2.631 21.027 4.381 38.924 1.448 14.818 3.089 31.613 4.752 45.141a2.756 2.756 0 0 1-5.47.674z" fill="#003029" id="QAMGS_XTfrf3xe2t6Tfpz" /><g fill="#FFA78E" id="nisrd5atbjz-URiLvx8sI"><path d="M167.241 962.376c-63.756-8.949-106.896-12.195-106.896-12.195-83.537-30.277-45.322-97.814-8.241-167.695l139.854 15.635c39.909 55.471 12.159 140.454-24.717 164.255z" fill="#FFA78E" id="i63hoxzxO_zoHVdi080yd" /><path d="M168.923 795.547c-23.884-22.023-60.085-52.938-87.576-66.271s-45.701 16.817-20.949 42.091 49.201 46.17 52.519 48.971c18.64 15.735 83.583.637 56.006-24.79z" fill="#FFA78E" id="M1kfhqj5vkahCt03HvpLL" /><path d="M131.307 876.015a1.946 1.946 0 0 1-.954-.243c-9.171-5.044-16.134-14.58-19.608-26.851-2.955-10.439-3.012-21.62-.257-28.079-5.416-4.629-28.31-24.44-51.489-48.106a1.961 1.961 0 0 1 2.802-2.744c25.838 26.382 51.311 47.94 52.383 48.845a1.96 1.96 0 0 1 .44 2.465c-2.465 4.343-3.339 15.125-.105 26.549 3.186 11.253 9.481 19.948 17.726 24.483a1.96 1.96 0 0 1 .773 2.663 1.96 1.96 0 0 1-1.709 1.018zM1213.026 962.8c63.688-9.425 106.802-12.994 106.802-12.994 83.308-30.901 44.589-98.15 6.987-167.752l-139.734 16.68c-39.493 55.768-11.108 140.541 25.945 164.065z" fill="#FFA78E" id="YjnsFmO_rvJBDvOsJqiEH" /><path d="M1210.097 795.989c23.718-22.201 59.688-53.386 87.078-66.924 27.391-13.539 45.825 16.475 21.263 41.933s-48.855 46.537-52.152 49.362c-18.522 15.874-83.576 1.262-56.19-24.371z" fill="#FFA78E" id="rAiz8paUgZxz3UnLyg5Oo" /><path d="M1248.313 876.173c.323 0 .651-.081.952-.25 9.133-5.112 16.025-14.7 19.407-26.997 2.877-10.46 2.85-21.642.047-28.08 5.381-4.669 28.127-24.651 51.128-48.49a1.96 1.96 0 1 0-2.821-2.723c-25.64 26.575-50.951 48.322-52.016 49.235a1.961 1.961 0 0 0-.422 2.469c2.498 4.325 3.452 15.1.303 26.547-3.101 11.276-9.331 20.019-17.542 24.614a1.96 1.96 0 0 0 .964 3.674z" fill="#FFA78E" id="lUy8wOEZ7yAe5NiqvNOm" /></g><rect fill="#FFFFFF" height="644.645" rx="72.069" width="1229.616" x="73.209" y="599.632" id="vYARs7BIgazOb3vxDfXus" /><path d="M1230.757 1246.468H145.278c-40.947 0-74.26-33.313-74.26-74.26V671.7c0-40.947 33.313-74.26 74.26-74.26h1085.479c40.947 0 74.26 33.313 74.26 74.26v500.508c0 40.947-33.313 74.26-74.26 74.26zM145.278 601.823c-38.531 0-69.877 31.347-69.877 69.877v500.508c0 38.53 31.347 69.877 69.877 69.877h1085.479c38.531 0 69.877-31.347 69.877-69.877V671.7c0-38.53-31.347-69.877-69.877-69.877z" fill="#003029" id="ZrmB0S3UI-iqmsl6qU6pG" /><path d="M72.76 826.183c-56.161-5.279-62.14-24.307-61.193-36.87 1.952-25.919 41.236-27.788 58.176-25.379 26.85 3.818 34.345 19.689 32.553 28.854-2.744 14.036-16.297 25.634-52.194 21.834z" fill="#FFA78E" id="iBJDMEJSOK72r9AAq4ZF7" /><path d="M63.067 817.263c-4.734.027-9.253-.277-13.17-.691a1.961 1.961 0 0 1 .413-3.899c29.546 3.128 46.861-3.878 50.064-20.261.757-3.871-.512-8.6-3.395-12.653-3.6-5.061-11.294-11.578-27.511-13.884-6.704-.954-17.623-1.273-28.159.688a1.96 1.96 0 1 1-.717-3.855c11.002-2.048 22.416-1.712 29.429-.716 17.595 2.502 26.109 9.807 30.154 15.493 3.546 4.985 5.02 10.7 4.047 15.678-3.814 19.507-23.891 24-41.155 24.099z" fill="#003029" id="BWXrnyCIfczx_tiVoznsJ" /><path d="M69.981 867.78c-56.161-5.279-62.14-24.307-61.193-36.87 1.952-25.919 41.236-27.788 58.176-25.379 26.85 3.818 34.345 19.689 32.553 28.854-2.744 14.036-16.297 25.634-52.194 21.834z" fill="#FFA78E" id="b4PG9YivOWvZj2f9Pi_x" /><path d="M60.288 858.861c-4.734.027-9.253-.277-13.17-.691a1.961 1.961 0 0 1 .413-3.899c29.545 3.128 46.861-3.878 50.064-20.261.757-3.871-.512-8.6-3.395-12.653-3.6-5.061-11.294-11.578-27.511-13.884-13.278-1.889-37.303-.874-49.06 9.659a1.96 1.96 0 1 1-2.615-2.919c5.86-5.25 14.968-8.874 26.341-10.484 8.428-1.192 18.105-1.243 25.888-.137 17.595 2.502 26.109 9.807 30.154 15.493 3.546 4.985 5.02 10.7 4.047 15.678-3.812 19.507-23.891 23.999-41.155 24.099z" fill="#003029" id="RcynFfJRHxAXQH6HdgTS" /><path d="M71.93 909.949c-56.161-5.279-62.14-24.307-61.193-36.87 1.952-25.919 41.236-27.788 58.176-25.379 26.85 3.818 34.345 19.689 32.553 28.854-2.744 14.036-16.297 25.634-52.194 21.834z" fill="#FFA78E" id="YSkOtj_ACMmOQb96tufb_" /><path d="M62.237 901.029c-4.734.027-9.253-.277-13.17-.691a1.961 1.961 0 0 1 .413-3.899c29.546 3.128 46.861-3.878 50.064-20.261.757-3.871-.512-8.6-3.395-12.653-3.6-5.061-11.294-11.578-27.511-13.884-15.3-2.176-43.109-.385-52.598 13.683a1.96 1.96 0 1 1-3.251-2.193c11.812-17.511 44.718-17.033 56.401-15.372 17.595 2.502 26.109 9.807 30.154 15.493 3.546 4.985 5.02 10.7 4.047 15.678-3.812 19.507-23.89 23.999-41.153 24.099z" fill="#003029" id="ragoVAuPHA_ZZhRc8t1u7" /><path d="M73.462 949.294c-56.161-5.279-62.136-24.208-61.19-36.772 1.952-25.919 41.236-27.788 58.176-25.379 26.85 3.818 34.345 19.689 32.553 28.854-2.744 14.036-16.297 25.634-52.194 21.834z" fill="#FFA78E" id="udwRap1dD-ya6uMY4tPtj" /><path d="M63.771 940.473c-4.734.027-9.253-.277-13.17-.691a1.96 1.96 0 0 1 .413-3.899c29.546 3.128 46.861-3.878 50.064-20.261.757-3.871-.512-8.6-3.395-12.653-3.6-5.061-11.294-11.578-27.511-13.884-14.647-2.083-41.667-.502-51.82 12.608a1.96 1.96 0 0 1-3.1-2.402c11.248-14.525 39.336-16.383 55.472-14.09 17.595 2.502 26.109 9.807 30.154 15.493 3.546 4.985 5.02 10.7 4.047 15.678-3.814 19.508-23.891 24-41.155 24.1z" fill="#003029" id="y061MzeoTkYAR-jfhoUCY" /><path d="M1306.486 825.905c56.12-5.699 61.956-24.771 60.916-37.326-2.146-25.904-41.442-27.479-58.364-24.943-26.821 4.018-34.197 19.945-32.337 29.096 2.849 14.015 16.488 25.511 52.356 21.443z" fill="#FFA78E" id="XUsYs-z8rOAQiTQbGrHG" /><path d="M1316.113 816.912c4.734-.008 9.251-.346 13.165-.789a1.96 1.96 0 1 0-.442-3.896c-29.522 3.349-46.888-3.527-50.214-19.886-.786-3.865.448-8.604 3.3-12.678 3.562-5.088 11.207-11.662 27.407-14.089 6.697-1.004 17.613-1.405 28.163.477a1.96 1.96 0 1 0 .688-3.86c-11.017-1.966-22.428-1.545-29.434-.496-17.576 2.633-26.035 10.002-30.038 15.718-3.508 5.011-4.94 10.737-3.93 15.708 3.96 19.478 24.07 23.821 41.334 23.79z" fill="#003029" id="vfPxYxH_tGTxC4zN78TnX" /><path d="M1309.576 867.48c56.12-5.699 61.956-24.771 60.916-37.326-2.146-25.904-41.442-27.479-58.364-24.943-26.821 4.018-34.197 19.945-32.337 29.096 2.849 14.015 16.488 25.511 52.356 21.443z" fill="#FFA78E" id="PezzO_mfgzSStE7bCYDt8" /><path d="M1319.203 858.488c4.734-.008 9.251-.346 13.165-.789a1.96 1.96 0 1 0-.442-3.896c-29.521 3.349-46.888-3.527-50.214-19.886-.786-3.865.448-8.604 3.3-12.678 3.562-5.088 11.207-11.662 27.407-14.089 13.263-1.988 37.295-1.153 49.131 9.292a1.96 1.96 0 1 0 2.594-2.939c-5.899-5.206-15.034-8.762-26.418-10.287-8.437-1.129-18.114-1.108-25.888.056-17.576 2.633-26.035 10.002-30.038 15.718-3.508 5.011-4.94 10.737-3.93 15.708 3.958 19.478 24.07 23.82 41.334 23.79z" fill="#003029" id="oBNPmXyKJemNxZ02uPSYK" /><path d="M1307.942 909.662c56.12-5.699 61.956-24.771 60.916-37.326-2.146-25.904-41.442-27.479-58.364-24.943-26.821 4.018-34.197 19.945-32.337 29.096 2.849 14.015 16.488 25.511 52.356 21.443z" fill="#FFA78E" id="uq_rHE8RqOXXK9eyB5VFD" /><path d="M1317.569 900.669c4.734-.008 9.251-.346 13.165-.789a1.96 1.96 0 1 0-.442-3.896c-29.522 3.349-46.888-3.527-50.214-19.886-.786-3.865.448-8.604 3.3-12.678 3.562-5.088 11.207-11.662 27.407-14.089 15.284-2.291 43.105-.707 52.699 13.289a1.961 1.961 0 0 0 3.235-2.217c-11.942-17.422-44.844-16.698-56.514-14.95-17.576 2.633-26.035 10.002-30.038 15.718-3.508 5.011-4.94 10.737-3.93 15.708 3.958 19.478 24.069 23.82 41.333 23.79z" fill="#003029" id="vIYGgSJ27HIk_Dei-nI_W" /><path d="M1306.705 949.018c56.12-5.699 61.954-24.672 60.913-37.228-2.146-25.904-41.442-27.479-58.364-24.943-26.821 4.018-34.197 19.945-32.337 29.096 2.849 14.015 16.488 25.511 52.356 21.443z" fill="#FFA78E" id="s5GiBjpoQxmeflAWme6x" /><path d="M1316.33 940.124c4.734-.008 9.251-.346 13.165-.789a1.96 1.96 0 1 0-.442-3.896c-29.522 3.349-46.888-3.527-50.214-19.886-.786-3.865.448-8.604 3.3-12.678 3.562-5.088 11.207-11.662 27.407-14.089 14.631-2.193 41.662-.813 51.912 12.22a1.96 1.96 0 1 0 3.081-2.425c-11.357-14.44-39.458-16.088-55.576-13.675-17.576 2.633-26.035 10.002-30.038 15.718-3.508 5.011-4.94 10.737-3.93 15.708 3.96 19.479 24.07 23.821 41.334 23.792z" fill="#003029" id="Dywuhg-Tg_8o54DC7n6Ap" /><ellipse cx="538.599" cy="162.357" fill="#FFBBA0" rx="88.025" ry="88.052" id="wB-ppRll6mIJMa-fFuKPc" /><path d="M781.691 90.573c-30.094 182.194-124.49 201.637-258.213 121.543-34.406-71.961 8.732-150.643 66.796-178.471 45.788-21.944 150.782-38.543 191.417 56.926z" fill="#FFBBA0" id="yZFGPl9KL9SnZTahZhH7E" /><path d="M523.478 214.936a2.816 2.816 0 0 1-2.544-1.605c-16.187-33.854-16.659-72.248-1.328-108.109 13.954-32.64 39.266-59.655 69.446-74.118a2.818 2.818 0 0 1 2.433 5.083C532.94 64.246 492.664 141.143 526.014 210.9a2.82 2.82 0 0 1-2.54 4.035l.004.002z" fill="#003029" id="c72dW-gVXWUMtuYa8AkPj" /><path d="M803.935 162.471c-9.996-84.023-57.85-139.139-147.361-121.611-92.614 18.135-121.625 89.529-106.165 171.257-26.164-23.895-55.968 5.049-50.184 34.548 4.281 21.826 31.994 39.824 65.161 20.02 42.279 78.778 119.328 83.561 185.067 61.737 80.487-26.721 114.066-114.401 53.479-165.949l.002-.002z" fill="#FFA78E" id="PTvY9w5QkubpB5jL5fN81" /><path d="M523.475 252.99a2.819 2.819 0 0 1-2.252-4.51l17.467-23.303a2.817 2.817 0 0 1 4.509 3.383l-17.467 23.303a2.811 2.811 0 0 1-2.256 1.127z" fill="#003029" id="Ex1q44yi3P2j_atS37YkQ" /><path d="M550.411 212.118s-47.108-111.56 61.222-164.553C725.208-7.993 776.69 80.762 781.689 90.574c-19.052 5.138-66.054 1.152-86.378-9.428-35.168 72.354-123.744 124.106-144.9 130.973" fill="#FFBBA0" id="oToFBaRGVH7sZplnkjAcF" /><path d="M543.156 251.403c-.629 0-1.262-.21-1.787-.641l-23.033-18.934a2.82 2.82 0 0 1-.443-3.962 2.817 2.817 0 0 1 3.96-.443l.059.049 23.033 18.934a2.82 2.82 0 0 1-1.791 4.996z" fill="#003029" id="IbH0HBKe8D7qirBX7kD5g" /><path d="M720.12 224.135c-22.638-14.116 2.487-36.609 17.486-21.086 5.174-31.402 39.256-18.812 23.095 5.387 7.375 1.327 18.395 18.677 1.525 30.301-22.646 15.606-41.867-2.341-42.106-14.601v-.002z" fill="#E4634F" id="PfrTcs3ksRSHWxyMntU-g" /><path d="M709.192 227.748c-6.859 0-13.347-.964-19.007-3.003a2.82 2.82 0 1 1 1.908-5.303c19.809 7.131 50.916-.184 69.335-16.313a2.818 2.818 0 1 1 3.714 4.241c-14.594 12.78-36.711 20.377-55.951 20.377zm31.864-76.501a2.819 2.819 0 0 1-2.818-2.794c-.1-11.917 3.994-21.933 11.234-27.482 4.676-3.582 13.077-7.062 26.535-3.309a2.818 2.818 0 0 1-1.515 5.431c-9.013-2.512-16.278-1.721-21.594 2.355-5.822 4.461-9.111 12.829-9.026 22.957a2.817 2.817 0 0 1-2.793 2.843h-.025.002z" fill="#003029" id="vCAjjkpDW2RtCnpFC-S5I" /><path d="M766.98 139.941c4.176 13.398 2.705 25.772-3.284 27.64s-14.228-7.479-18.404-20.877c-1.67-5.355-2.436-10.549-2.373-14.973 4.084-5.964 11.228-11.925 12.466-10.993 7.202 5.427 10.231 14.824 11.594 19.201v.002zm-115.895 41.063a2.819 2.819 0 0 1-2.818-2.794c-.1-11.917 3.994-21.933 11.234-27.482 4.676-3.582 13.077-7.064 26.535-3.309a2.818 2.818 0 0 1-1.515 5.431c-9.011-2.511-16.276-1.721-21.594 2.355-5.822 4.461-9.111 12.829-9.026 22.957a2.817 2.817 0 0 1-2.793 2.843h-.025.002z" fill="#003029" id="E4eh9ebvQPmifOHjqoshq" /><path d="M677.009 169.697c4.176 13.398 2.705 25.772-3.284 27.64s-14.228-7.479-18.404-20.877c-1.67-5.355-2.436-10.549-2.373-14.973 4.084-5.964 11.228-11.925 12.466-10.993 7.202 5.427 10.231 14.824 11.594 19.201v.002z" fill="#003029" id="AkXp_oa_mjHmsOSvnh9y8" /></g></g><g transform="translate(795.7894736842105 1560.0) rotate(0.0 958.421052631579 401.0526315789473) scale(1.6172102430597723 1.623274259216022)" id="neyPRaoPVGf0tY8UTmqre"><g clip-path="url(#clipPath_CxtVniPu)" transform="matrix(1 0 0 1 0 0)" id="WP3_mjvtEFR5Atq1puC3"><path d="M666.841 330.421c21.317.777 41.206 6.537 52.685 10.546 5.738 2.004 12.006-.906 14.195-6.576l15.194-39.355c2.144-5.552-.36-11.814-5.777-14.28-13.311-6.057-40.506-15.578-79.965-15.578-76.19 0-98.742 36.08-98.742 67.146 0 44.284 50.554 51.9 89.684 58.654 17.24 2.979 23.211 7.042 23.211 13.632 0 7.921-8.042 13.67-34.21 12.715-21.317-.78-41.206-6.537-52.685-10.549-5.738-2.004-12.006.906-14.195 6.576l-15.194 39.355c-2.144 5.552.36 11.817 5.777 14.28 13.311 6.057 40.506 15.576 79.965 15.576 76.19 0 98.742-36.08 98.742-67.143 0-44.286-50.338-51.867-89.468-58.624-17.24-2.976-23.431-7.075-23.431-13.662 0-7.921 8.042-13.67 34.21-12.712h.003z" fill="#FFFFFF" id="F0GfoAwtj-dsMol-C-U" /><path d="M646.784 484.668c-40.191 0-67.898-9.877-80.837-15.765-6.399-2.909-9.417-10.356-6.869-16.954l15.194-39.354c2.61-6.766 10.016-10.198 16.853-7.806 12.433 4.345 31.559 9.682 52.068 10.433 15.552.563 25.585-1.206 29.801-5.271 1.498-1.444 2.227-3.191 2.227-5.341 0-4.076-2.6-8.298-21.464-11.558l-2.8-.481c-39.488-6.789-88.632-15.238-88.632-60.247 0-18.375 7.65-35.005 21.541-46.826 17.484-14.88 44.167-22.425 79.307-22.425 40.186 0 67.896 9.879 80.837 15.768 6.398 2.912 9.416 10.36 6.868 16.955l-15.193 39.354c-2.611 6.766-10.014 10.197-16.854 7.806-12.444-4.346-31.579-9.684-52.066-10.43-15.593-.561-25.596 1.209-29.805 5.268-1.498 1.444-2.227 3.191-2.227 5.341 0 3.879 2.576 8.288 21.684 11.588l2.807.483c39.389 6.774 88.408 15.206 88.408 60.215 0 18.373-7.65 35.002-21.541 46.823-17.485 14.88-44.168 22.425-79.307 22.425zm-60.085-76.423a9.105 9.105 0 0 0-8.499 5.865l-15.194 39.354c-1.745 4.521.313 9.618 4.685 11.606 12.629 5.746 39.697 15.386 79.094 15.386 34.111 0 59.875-7.207 76.578-21.42 16.579-14.109 20.059-31.507 20.059-43.617 0-41.46-47.081-49.559-84.911-56.065l-2.81-.484c-17.883-3.087-25.178-7.646-25.178-15.736 0-3.307 1.183-6.123 3.516-8.372 5.142-4.958 15.894-7.071 32.877-6.443l-.074 2.104.076-2.104c21.014.765 40.585 6.221 53.303 10.662a9.1 9.1 0 0 0 11.537-5.347l15.193-39.354c1.745-4.519-.313-9.616-4.685-11.606-12.631-5.747-39.702-15.389-79.093-15.389-34.111 0-59.876 7.207-76.578 21.421-16.579 14.108-20.059 31.508-20.059 43.619 0 41.46 47.204 49.576 85.134 56.097l2.804.483c17.727 3.063 24.958 7.613 24.958 15.706 0 3.307-1.183 6.123-3.515 8.372-5.144 4.957-15.9 7.066-32.878 6.446-21.035-.77-40.597-6.225-53.303-10.665a9.187 9.187 0 0 0-3.037-.519z" fill="#003029" id="OFjDOv0atrhIQJmcMwzT4" /><path d="M524.962 269.635c-9.423 0-17.059 7.636-17.043 17.059.039 23.882.107 66.727.107 87.915 0 48.946-6.992 69.253-29.39 69.253s-29.85-20.303-29.85-69.253c0-21.188.068-64.033.107-87.915.016-9.423-7.619-17.059-17.043-17.059h-34.173c-9.41 0-17.043 7.629-17.043 17.043v89.22c0 58.91 31.271 106.664 97.445 106.664s98.089-47.758 98.089-106.664v-89.223c0-9.41-7.629-17.043-17.043-17.043h-34.173l.011.004z" fill="#FFBBA0" id="NJc6_sWr_z_21MdssJROi" /><path d="M1067.591 223.008h31.305c11.636 0 21.073-9.39 21.087-20.983l.183-157.428h44.75c6.47 0 11.715-5.225 11.715-11.67V19.852c0-6.445-5.245-11.67-11.715-11.67h-162.257c-6.47 0-11.715 5.225-11.715 11.67v13.075c0 6.445 5.245 11.67 11.715 11.67h43.659l.183 157.428c.014 11.592 9.451 20.983 21.087 20.983h.002z" fill="#FF806A" id="eJBy1OdUY8ZYLWGAlMFwc" /><path d="M933.517 224.553c58.262 0 93.415-31.041 98.519-75.402.701-6.078-3.931-11.464-10.049-11.464h-51.47c-4.931 0-9.065 3.563-9.963 8.41-2.172 11.7-9.138 26.477-26.472 26.477-22.793 0-30.375-27.165-30.375-57.881 0-27.86 10.076-52.885 32.21-52.885 17.047 0 23.001 14.14 24.787 25.752.771 5.007 4.958 8.762 10.022 8.762h51.326c5.894 0 10.685-5.037 10.098-10.902-4.791-47.842-41.447-77.963-96.234-77.963-67.811 0-101.563 48.597-101.563 108.547s31.823 108.547 99.166 108.547h-.003z" fill="#E4634F" id="HB3MqlIUn5cFouy4Osar" /><path d="m720.789 25.147-66.617 183.739c-2.489 6.865 2.595 14.12 9.901 14.12h52.249a10.53 10.53 0 0 0 10.154-7.739l8.954-32.582 58.816-.135 9.143 32.757a10.529 10.529 0 0 0 10.142 7.7h52.048c7.306 0 12.393-7.258 9.898-14.126L808.736 25.133a25.74 25.74 0 0 0-24.194-16.952h-39.555a25.739 25.739 0 0 0-24.198 16.967h-.003l.002-.002zm24.336 122.249 19.501-70.953 19.78 70.861-39.279.09z" fill="#FFBBA0" id="mL1XhSQR2W3NbVTpZ4U-a" /><path d="M594.312 223.008h31.305c11.636 0 21.073-9.39 21.087-20.983l.183-157.428h44.75c6.47 0 11.715-5.225 11.715-11.67V19.852c0-6.445-5.245-11.67-11.715-11.67H529.38c-6.47 0-11.715 5.225-11.715 11.67v13.075c0 6.445 5.245 11.67 11.715 11.67h43.659l.183 157.428c.014 11.592 9.451 20.983 21.087 20.983h.002z" fill="#FF806A" id="VquQTDLzYxi1TZY62WQGy" /><path d="M506.6 19.483v145.672L450.782 23.14a20.022 20.022 0 0 0-18.633-12.696h-43.913c-11.059 0-20.024 8.968-20.019 20.028l.085 181.619c.001 4.99 4.048 9.032 9.038 9.032h15.27a9.037 9.037 0 0 0 9.038-9.038V67.312l55.422 141.113a20.018 20.018 0 0 0 18.634 12.701h43.935c11.051 0 20.011-8.953 20.019-20.005l.145-181.634a9.037 9.037 0 0 0-9.038-9.044h-15.129a9.037 9.037 0 0 0-9.038 9.038v.002z" fill="#FFFFFF" id="fQSjvm42P57NGfzai75l" /><path d="M519.639 223.23h-43.936c-9.161 0-17.244-5.51-20.593-14.036L403.753 78.43v133.655c0 6.145-4.999 11.144-11.144 11.144h-15.27c-6.144 0-11.143-4.996-11.144-11.138l-.086-181.618c-.002-5.912 2.298-11.47 6.478-15.651s9.736-6.483 15.647-6.483h43.914c9.157 0 17.24 5.508 20.592 14.031l51.753 131.674V19.48c0-6.144 4.999-11.143 11.143-11.143h15.129a11.07 11.07 0 0 1 7.883 3.267 11.073 11.073 0 0 1 3.261 7.885l-.146 181.634c-.01 12.189-9.935 22.107-22.125 22.107zM401.649 65.206c.852 0 1.638.519 1.959 1.336l55.423 141.113c2.711 6.903 9.255 11.364 16.673 11.364h43.936c9.87 0 17.906-8.03 17.914-17.9l.146-181.634c.002-1.853-.719-3.594-2.028-4.904s-3.052-2.032-4.904-2.032h-15.129a6.94 6.94 0 0 0-6.932 6.932v145.675a2.105 2.105 0 0 1-4.065.77L448.825 23.911c-2.714-6.902-9.259-11.361-16.674-11.361h-43.914a17.798 17.798 0 0 0-12.67 5.249 17.8 17.8 0 0 0-5.244 12.673l.086 181.619c0 3.82 3.11 6.928 6.933 6.928h15.27a6.94 6.94 0 0 0 6.933-6.933V67.311a2.105 2.105 0 0 1 2.107-2.105z" fill="#003029" id="JO3qmgDz88Iy2hIhN6gBx" /><path d="M275.608 8.709c-59.257 0-107.295 48.038-107.295 107.295s48.038 107.295 107.295 107.295 107.295-48.038 107.295-107.295S334.865 8.709 275.608 8.709zm0 142.704c-19.554 0-35.406-15.853-35.406-35.409s15.853-35.406 35.406-35.406 35.406 15.85 35.406 35.406-15.853 35.409-35.406 35.409z" fill="#E4634F" id="tI0lbMP_CULNjX9aLP0Q" /><path d="M106.622 224.331c58.262 0 93.415-31.041 98.519-75.402.701-6.078-3.931-11.464-10.049-11.464h-51.47c-4.931 0-9.065 3.563-9.963 8.41-2.172 11.7-9.138 26.477-26.472 26.477-22.793 0-30.375-27.165-30.375-57.881 0-27.86 10.076-52.885 32.21-52.885 17.047 0 23.001 14.14 24.787 25.752.771 5.007 4.958 8.762 10.022 8.762h51.326c5.894 0 10.685-5.037 10.098-10.902-4.791-47.84-41.448-77.961-96.234-77.961C41.21 7.237 7.458 55.834 7.458 115.784s31.823 108.547 99.166 108.547h-.003z" fill="#FFBBA0" id="gw5uZbCsCUVDGOYwLYI" /><g fill="#003029" id="pJqKoaBxo0p2zTIl0_iqB"><path d="M539.804 48.261a2.104 2.104 0 0 1-2.105-2.105V19.487c0-4.562-1.98-6.874-5.886-6.874a2.104 2.104 0 1 1 0-4.21c6.228 0 10.097 4.248 10.097 11.085v26.669a2.104 2.104 0 0 1-2.105 2.105zm478.95 0a2.105 2.105 0 0 1-1.775-.971c-3.094-4.833-12.05-17.01-28.341-25.68a2.106 2.106 0 0 1 1.979-3.717c17.169 9.138 26.636 22.015 29.909 27.127a2.105 2.105 0 0 1-1.772 3.24zM875.478 210.987c-.86 0-1.668-.531-1.979-1.387L833.386 99.16a2.104 2.104 0 1 1 3.957-1.437l40.113 110.44a2.104 2.104 0 0 1-1.979 2.824zm-140.046-26.195a2.107 2.107 0 0 1-2.032-2.663l9.694-35.291a2.114 2.114 0 0 1 2.588-1.473 2.107 2.107 0 0 1 1.473 2.588l-9.694 35.291a2.105 2.105 0 0 1-2.029 1.548zm-542.333 1.911a2.106 2.106 0 0 1-1.761-3.256c8.727-13.379 10.813-28.332 11.6-33.961l.12-.855c.315-2.193-.436-4.647-1.958-6.405-1.05-1.211-2.944-2.654-6.007-2.654h-24.631a2.104 2.104 0 1 1 0-4.21h24.631c3.63 0 6.893 1.459 9.188 4.108 2.335 2.693 3.436 6.342 2.944 9.761l-.118.839c-.821 5.884-3.002 21.513-12.242 35.68a2.106 2.106 0 0 1-1.766.955zm1.993-88.609h-24.631a2.104 2.104 0 1 1 0-4.21h24.631c3.063 0 4.957-1.443 6.007-2.654 1.522-1.758 2.273-4.212 1.958-6.404l-.12-.855c-.785-5.629-2.872-20.582-11.6-33.963a2.107 2.107 0 0 1 3.527-2.301c9.24 14.169 11.421 29.798 12.242 35.682l.118.839c.491 3.418-.609 7.066-2.944 9.76-2.296 2.649-5.559 4.108-9.188 4.108z" fill="#003029" id="E99cK7RmM2NkLEnEx8XG9" /></g></g></g><g transform="translate(852.6315789473684 922.1052631578948) rotate(0.0 99.4736842105263 140.52631578947364) scale(2.6877152216405156 2.6432110559479667)" id="Ypwj6qSXKMc8-_zrUlNTt"><g clip-path="url(#clipPath_V8SwO4J3)" transform="matrix(1 0 0 1 0 0)" id="znkLgzcGVQzKiUCIVsUI0"><path d="M28.574 55.776 37.005 0l7.91 55.776 29.106 6.284-29.106 8.525-7.91 35.745-8.431-35.745L0 62.06z" fill="#25968A" id="pXop30mSUBc_38PNX66JP" /></g></g><g transform="translate(2453.684210526316 798.9473684210526) rotate(0.0 134.21052631578937 191.05263157894734) scale(3.485037231814424 3.4949717658272634)" id="Ub9Lp0I9x8oKiadrhIvis"><g clip-path="url(#clipPath_EORYLBGb)" transform="matrix(1 0 0 1 0 0)" id="ad23zc_kPICObGyQIl"><path d="M38.504 109.33a1.5 1.5 0 0 1-1.46-1.156l-8.23-34.9-27.743-8.276a1.498 1.498 0 0 1 .107-2.902l27.568-6.062 8.275-54.757A1.5 1.5 0 0 1 38.504 0h.007a1.5 1.5 0 0 1 1.479 1.289l7.763 54.741 28.085 6.063a1.5 1.5 0 0 1 .106 2.906l-28.256 8.275-7.718 34.879a1.5 1.5 0 0 1-1.454 1.176l-.012.001zM7.484 63.78l23.02 6.867c.515.153.908.57 1.031 1.093l6.923 29.357L44.95 71.76a1.5 1.5 0 0 1 1.043-1.115l23.44-6.865-23.335-5.038a1.502 1.502 0 0 1-1.169-1.256L38.458 11.85l-6.899 45.651a1.5 1.5 0 0 1-1.161 1.241zm22.591-6.503h.01z" fill="#85ECDE" id="rIgCJeGMkulyL2KN-GCLC" /></g></g></g></g></svg>