<svg viewBox="297.22500000000036 519.6153846153848 3368.5500000000006 2771.282051282052" fill="none" xmlns="http://www.w3.org/2000/svg" xmlns:xlink="http://www.w3.org/1999/xlink" overflow="visible" width="3368.5500000000006px" height="2771.282051282052px"><g id="Master/Spot Illustration/Quality Time"><g id="Blobs" opacity="0.5" transform="matrix(-1 0 0 1 3105 0) scale(1 1)"><g id="Blobs/3"><path id="Path" fill-rule="evenodd" clip-rule="evenodd" d="M1057.02 649.441C1119.38 723.576 1131.99 841.107 1117.65 943.63C1103.14 1046.15 1061.69 1133.49 999.162 1197.68C936.637 1261.87 853.212 1302.91 772.896 1299.84C692.408 1296.58 615.029 1249.21 539.376 1185.02C463.724 1120.83 389.627 1039.82 383.409 952.49C377.363 864.974 439.198 771.311 515.023 697.176C590.675 623.042 680.145 568.435 781.187 556.501C882.229 544.567 994.499 575.306 1057.02 649.441Z" fill="#FCEBEC"/><path id="Path_2" fill-rule="evenodd" clip-rule="evenodd" d="M1883.82 908.251C1999.1 1021.12 2080.44 1238.83 2093.89 1476.61C2107.65 1713.94 2053.83 1971.8 1938.86 2132.4C1823.58 2293.01 1646.83 2356.36 1476.2 2348.33C1305.27 2339.85 1140.14 2259.55 992.45 2098.95C844.755 1938.34 714.184 1697.44 716.019 1459.21C717.854 1220.98 851.788 985.43 999.789 872.562C1147.48 759.247 1308.94 769.062 1464.28 777.984C1619.62 786.907 1768.84 795.383 1883.82 908.251Z" fill="#FFF5F3"/></g></g><ellipse id="Floor" opacity="0.5" cx="1982" cy="3206" rx="1602" ry="58" fill="#D5ECFF"/><g id="Sofa"><path id="Fill 50" fill-rule="evenodd" clip-rule="evenodd" d="M3346.97 2586H626.027C587.352 2586 556 2547.13 556 2499.18V1678.82C556 1630.87 587.352 1592 626.027 1592H3346.97C3385.65 1592 3417 1630.87 3417 1678.82V2499.18C3417 2547.13 3385.65 2586 3346.97 2586" fill="#EECCDC"/><path id="Fill 51" fill-rule="evenodd" clip-rule="evenodd" d="M730 2705H3193V2380H730V2705Z" fill="#FCEBEC"/><path id="Fill 52" fill-rule="evenodd" clip-rule="evenodd" d="M646.967 2940.54L585 3196L634.09 3191.99L784 2940L646.967 2940.54Z" fill="#DDB0C8"/><path id="Fill 53" fill-rule="evenodd" clip-rule="evenodd" d="M3322.03 2950.54L3384 3206L3334.91 3201.99L3185 2950L3322.03 2950.54Z" fill="#DDB0C8"/><path id="Fill 55" fill-rule="evenodd" clip-rule="evenodd" d="M682.717 1898.47C682.717 1898.47 654.841 2168.16 823.75 2422.93C992.658 2677.7 925.264 2225.17 827.383 2052.16C729.502 1879.15 684.371 1830.62 682.717 1898.47" fill="#1BC0D7"/><path id="Fill 56" fill-rule="evenodd" clip-rule="evenodd" d="M3229.42 2285.97C3227.79 2280.32 3221.35 2199 3225.39 2097.04C3229.42 1995.08 3107.19 2112.56 2937.95 2075.05C2842.4 2053.87 2695.3 2012.87 2721.57 2109.04C2749.02 2209.47 2680.4 2384.93 2728.84 2393.93C2777.28 2402.92 3033.23 2344.95 3145.45 2406.92C3257.68 2468.9 3252.84 2366.94 3229.42 2285.97" fill="#1BC0D7"/><path id="Fill 57" fill-rule="evenodd" clip-rule="evenodd" d="M428.455 2208.46L637.034 2919.39C642.798 2939.04 657.835 2952.14 674.695 2952.21L3293.1 2962C3310.32 2962.06 3325.66 2948.52 3331.25 2928.32L3536.79 2185.69C3545.51 2154.2 3527.36 2121.15 3500.54 2119.69L3306.11 2109.05C3290.2 2108.18 3275.38 2119.03 3268.31 2136.71L3099.79 2558.24C3093.02 2575.19 3079.1 2585.92 3063.86 2585.96L904.559 2591.83C888.953 2591.87 874.736 2580.71 868.091 2563.19L715.947 2162.22C709.129 2144.26 694.364 2133.02 678.359 2133.61L465.031 2141.57C437.648 2142.59 419.088 2176.53 428.455 2208.46" fill="#DDB0C8"/></g><g id="Master/Character/Sitting On Chair" transform="translate(-15 556) scale(1 1)"><g id="Master/Character/Sitting On Chair"><g id="Lower Body/Sitting On Chair" transform="translate(876 1607) scale(1 1)"><g id="Lower Body/Sitting On Chair/2"><g id="Group 68"><g id="Group 3"><path id="Fill 2" fill-rule="evenodd" clip-rule="evenodd" d="M805.172 988.968L875.774 1055.99L983.41 1047.26L974.771 1018.83L842.928 975.442L805.172 988.968Z" fill="#56ACF6"/><path id="Fill 34" fill-rule="evenodd" clip-rule="evenodd" d="M762.343 590.123C761.654 599.745 788.527 792.787 788.527 792.787L890.54 802.204L915.541 579.41L762.343 590.123Z" fill="#f6cbc3"/><path id="Fill 36" fill-rule="evenodd" clip-rule="evenodd" d="M774.102 898.766C774.337 895.485 785.37 787.453 785.37 787.453C785.37 787.453 782.417 782.625 783.31 770.159C784.203 757.692 792.267 746.397 845.086 754.796C897.907 763.195 900.718 769.99 900.342 775.24C899.966 780.489 893.169 792.534 892.557 801.064C891.946 809.595 890.62 892.599 890.62 892.599L774.102 898.766Z" fill="#E4F9FF"/><path id="Fill 38" fill-rule="evenodd" clip-rule="evenodd" d="M772.858 894.504L763.213 980.888L833.054 967.652L899.003 994.663L999.22 1031.22L1082.92 1022.52L1079.4 1000.99C1079.4 1000.99 1004.2 961.669 986.239 950.758C968.276 939.847 961.081 920.846 961.081 920.846L932.836 880.031C932.836 880.031 902.68 836.482 878.601 832.728C854.522 828.975 833.931 833.182 838.515 842.843C843.099 852.505 854.458 869.55 854.458 869.55L810.453 860.718L785.532 891.396L778.928 898.633L781.584 903.732" fill="#F4F0F1"/><path id="Fill 40" fill-rule="evenodd" clip-rule="evenodd" d="M779.604 907.106C779.604 907.106 778.697 914.835 803.296 922.62C827.895 930.405 854.306 942.572 858.085 929.378C861.865 916.185 855.723 902.989 855.723 902.989L878.281 919.485C878.281 919.485 888.677 937.592 876.789 955.165C864.902 972.738 835.089 973.438 835.089 973.438L822.451 961.904C822.451 961.904 782.947 939.588 774.49 924.101C766.032 908.614 779.604 907.106 779.604 907.106" fill="#F9C818"/><mask id="mask0_406_14105f24a6597-02e3-4eb2-8b81-3b640dfaaceb" style="mask-type:luminance" maskUnits="userSpaceOnUse" x="705" y="847" width="400" height="266" fill="#ffffff"><path id="Clip 43" fill-rule="evenodd" clip-rule="evenodd" d="M705.9 873.847L1087.42 847.169L1104.13 1086.03L722.603 1112.71L705.9 873.847Z" fill="#ffffff"/></mask><g mask="url(#mask0_406_14105f24a6597-02e3-4eb2-8b81-3b640dfaaceb)"><path id="Fill 42" fill-rule="evenodd" clip-rule="evenodd" d="M771.088 875.575C771.088 875.575 742.209 943.975 744.743 942.997C747.277 942.019 763.519 908.561 764.198 921.365C764.875 934.171 756.458 950.555 758.199 964.789C758.199 964.789 771.381 999.164 779.314 999.732C787.248 1000.3 825.067 990.433 825.067 990.433C825.067 990.433 842.312 968.05 878.054 991.465C913.796 1014.88 959.936 1038.73 959.936 1038.73C959.936 1038.73 954.319 1043.45 954.103 1047.83C953.887 1052.21 956.69 1058.18 956.69 1058.18L816.864 1038.01L741.591 987.055L732.275 988.039C732.275 988.039 723.637 993.364 722.86 1008.83C722.083 1024.29 722.787 1028.31 720.463 1033.09C718.138 1037.88 712.176 1047.36 730.339 1051.96C748.501 1056.57 884.863 1089.11 944.938 1094.08C1005.01 1099.04 1066.66 1081.99 1083.35 1065.68C1100.04 1049.37 1102.62 1036.35 1098.89 1023.87C1095.16 1011.38 1087.79 996.33 1070.55 999.187C1053.32 1002.05 1043.48 1004.91 1015.21 995.885C986.948 986.865 975.785 987.914 976.779 994.322C977.771 1000.73 998.587 1006.84 998.587 1006.84C998.587 1006.84 1026.52 1013.06 1026.33 1015.82C1026.13 1018.58 1025.16 1021.02 999.823 1019.07C974.485 1017.13 944.128 1011.59 904.297 987.353C864.465 963.118 852.651 953.622 826.492 956.554C800.333 959.487 776.888 971.504 770.283 953.01C763.678 934.517 781.721 909.999 781.584 903.732C781.445 897.465 772.858 894.504 772.858 894.504L771.155 869.284" fill="#15023F"/><path id="Fill 45" fill-rule="evenodd" clip-rule="evenodd" d="M774.683 859.881C774.683 859.881 773.729 861.138 771.153 869.285C768.578 877.432 767.686 902.542 776.438 901.721C785.191 900.898 792.04 883.639 799.803 873.872C807.567 864.104 817.361 861.365 825.726 865.948C834.092 870.532 866.407 868.534 866.407 868.534C866.407 868.534 857.749 853.826 829.045 853.549C829.045 853.549 808.756 846.827 796.905 865.266C785.053 883.703 777.837 902.024 776.967 886.516C776.218 873.162 780.422 864.984 779.529 860.271C778.635 855.556 774.683 859.881 774.683 859.881" fill="#451989"/><path id="Fill 47" fill-rule="evenodd" clip-rule="evenodd" d="M994.703 954.393C994.703 954.393 979.402 956.656 934.947 952.471C890.494 948.276 900.348 928.118 882.223 922.78C864.098 917.452 862.142 916.63 852.239 899.77C842.349 882.91 817.357 898.285 805.451 895.417C793.537 892.539 829.198 859.763 829.198 859.763C829.198 859.763 848.488 854.578 866.407 868.532C871.449 872.463 881.631 886.536 884.712 889.834C887.785 893.132 906.479 899.914 923.103 920.754C939.726 941.604 963.118 935.7 967.768 936.976C972.408 938.261 932.352 882.588 932.352 882.588L932.427 877.049C932.427 877.049 957.443 913.85 969.684 930.246C981.934 946.642 992.018 950.723 993.844 951.686C995.659 952.657 994.703 954.393 994.703 954.393" fill="#E263AB"/><path id="Fill 49" fill-rule="evenodd" clip-rule="evenodd" d="M756.444 909.433C756.444 909.433 727.812 974.65 729.417 989.608C731.022 1004.57 763.102 994.94 776.62 1023.65C790.138 1052.36 810.335 1064.94 895.875 1079.85C981.415 1094.76 1053.58 1062.69 1053.94 1057.69C1054.3 1052.7 1053.73 1043.03 1053.73 1043.03C1053.73 1043.03 930.546 1063.08 879.471 1028.46C828.396 993.847 826.643 983.261 807.464 988.164C788.286 993.067 777.018 986.821 762.392 969.038C762.392 969.038 760.937 960.147 766.352 937.105C771.767 914.062 767.02 881.18 756.444 909.433" fill="white"/><path id="Fill 51" fill-rule="evenodd" clip-rule="evenodd" d="M830.244 856.389C830.244 856.389 819.793 845.021 837.087 832.741C854.38 820.462 885.267 829.593 894.539 839.429C894.539 839.429 876.815 830.758 854.767 833.042C832.719 835.325 837.897 841.65 848.039 857.341L828.106 854.789" fill="#451989"/><path id="Fill 53" fill-rule="evenodd" clip-rule="evenodd" d="M859.723 869.114C862.091 872.885 860.071 878.413 855.214 881.464C850.356 884.515 844.498 883.931 842.131 880.161C839.763 876.391 841.783 870.862 846.641 867.811C851.499 864.761 857.356 865.344 859.723 869.114" fill="#1F003C"/><path id="Fill 55" fill-rule="evenodd" clip-rule="evenodd" d="M845.037 876.096C845.037 876.096 846.187 868.027 861.727 862.705C877.265 857.382 906.626 848.759 922.203 860.886C937.78 873.013 936.386 878.49 936.386 878.49C936.386 878.49 925.006 871.669 916.206 868.751C907.406 865.832 895.474 864.693 883.585 866.988C871.694 869.282 859.835 873.152 856.003 874.736C852.172 876.321 848.613 884.074 845.037 876.096" fill="#E8D9F3"/><path id="Fill 57" fill-rule="evenodd" clip-rule="evenodd" d="M880.564 886.48C882.932 890.251 880.913 895.779 876.055 898.83C871.197 901.881 865.339 901.297 862.973 897.527C860.605 893.757 862.624 888.228 867.482 885.177C872.341 882.127 878.197 882.71 880.564 886.48" fill="#1F003C"/><path id="Fill 59" fill-rule="evenodd" clip-rule="evenodd" d="M865.88 893.462C865.88 893.462 867.007 885.391 881.958 880.027C896.909 874.662 925.154 865.96 940.092 878.04C955.031 890.122 953.677 895.602 953.677 895.602C953.677 895.602 942.757 888.814 934.306 885.92C925.856 883.027 914.391 881.921 902.957 884.248C891.521 886.575 880.11 890.477 876.423 892.072C872.736 893.667 869.295 901.429 865.88 893.462" fill="#E8D9F3"/><path id="Fill 61" fill-rule="evenodd" clip-rule="evenodd" d="M903.59 902.278C905.958 906.048 903.938 911.576 899.08 914.627C894.222 917.677 888.365 917.094 885.999 913.324C883.631 909.554 885.649 904.024 890.507 900.974C895.366 897.924 901.222 898.506 903.59 902.278" fill="#1F003C"/><path id="Fill 63" fill-rule="evenodd" clip-rule="evenodd" d="M888.879 909.593C888.879 909.593 889.835 902.339 901.749 897.411C913.661 892.484 943.771 885.965 955.544 896.699C967.317 907.433 960.053 914.827 960.053 914.827C960.053 914.827 949.965 904.845 943.275 902.312C936.586 899.777 927.49 898.869 918.392 901.043C909.294 903.218 900.202 906.807 897.263 908.266C894.323 909.725 891.532 916.719 888.879 909.593" fill="#E8D9F3"/></g></g><g id="Group 67"><path id="Fill 65" fill-rule="evenodd" clip-rule="evenodd" d="M3.181 1.00195C3.181 1.00195 -2.9996 188.559 30.423 177.445C30.423 177.445 212.422 195.505 256.88 202.451C279.247 205.946 322.025 232.716 455.899 255.05C589.774 277.385 717.417 300.408 717.417 309.382C717.417 327.444 746.578 459.2 753.524 620.36C753.524 620.36 795.204 670.374 920.241 625.917C920.241 625.917 929.304 310.818 866.785 188.559C747.406 30.178 369.005 1.00195 369.005 1.00195H3.181Z" fill="#204EB2"/><g id="Group 2"><path id="Fill 4" fill-rule="evenodd" clip-rule="evenodd" d="M363.338 570.507C363.338 580.153 375.285 826.9 375.285 826.9L472.716 835.852L526.576 557L363.338 570.507Z" fill="#f6cbc3"/><g id="Group"><path id="Fill 1" fill-rule="evenodd" clip-rule="evenodd" d="M394.703 881.042L460.458 952.83L568.441 951.624L561.806 922.667L433.311 870.184L394.703 881.042Z" fill="#56ACF6"/><path id="Fill 3" fill-rule="evenodd" clip-rule="evenodd" d="M394.969 994.317L460.724 1066.11L568.707 1064.9L562.072 1035.94L433.577 983.459L394.969 994.317Z" fill="#56ACF6"/><path id="Fill 6" fill-rule="evenodd" clip-rule="evenodd" d="M366.143 917.293C366.143 914.004 369.432 805.46 369.432 805.46C369.432 805.46 366.143 800.855 366.143 788.356C366.143 775.856 373.379 764.016 426.664 768.62C479.95 773.226 483.239 779.804 483.239 785.066C483.239 790.329 477.319 802.828 477.319 811.38C477.319 819.933 481.923 902.82 481.923 902.82L366.143 917.293Z" fill="#E4F9FF"/><path id="Fill 8" fill-rule="evenodd" clip-rule="evenodd" d="M364.596 913.13L361.145 999.983L429.864 981.792L497.572 1004.03L600.145 1033.33L683.012 1018.68L677.959 997.456C677.959 997.456 600.145 963.603 581.45 954.002C562.754 944.401 554.22 925.963 554.22 925.963L523.132 887.27C523.132 887.27 489.943 845.984 465.658 843.961C441.372 841.937 421.134 847.604 426.396 856.913C431.658 866.222 444.205 882.412 444.205 882.412L399.683 876.745L377.016 909.126L370.945 916.817L373.958 921.712" fill="#F4F0F1"/><path id="Fill 10" fill-rule="evenodd" clip-rule="evenodd" d="M372.224 925.219C372.224 925.219 371.87 932.993 396.962 939.001C422.055 945.01 449.268 955.258 452.095 941.828C454.922 928.4 447.854 915.676 447.854 915.676L471.533 930.52C471.533 930.52 483.195 947.837 472.593 966.214C461.991 984.592 432.304 987.419 432.304 987.419L418.874 976.817C418.874 976.817 377.878 957.379 368.336 942.535C358.794 927.693 372.224 925.219 372.224 925.219" fill="#F9C818"/><path id="Fill 12" fill-rule="evenodd" clip-rule="evenodd" d="M361.479 894.376C361.479 894.376 337.559 964.664 340.017 963.508C342.475 962.352 356.286 927.817 357.875 940.541C359.466 953.265 352.242 970.209 354.995 984.282C354.995 984.282 370.597 1017.63 378.551 1017.63C386.505 1017.63 423.523 1005.08 423.523 1005.08C423.523 1005.08 439.125 981.528 476.449 1002.33C513.772 1023.13 561.497 1043.63 561.497 1043.63C561.497 1043.63 556.231 1048.73 556.329 1053.12C556.426 1057.5 559.648 1063.26 559.648 1063.26L418.739 1053.13L340.018 1007.68L330.796 1009.32C330.796 1009.32 322.562 1015.25 322.891 1030.73C323.22 1046.21 324.208 1050.17 322.232 1055.11C320.256 1060.05 314.986 1069.93 333.431 1073.22C351.875 1076.52 490.213 1099.24 550.489 1099.9C610.764 1100.56 671.04 1079.15 686.52 1061.7C702 1044.24 703.648 1031.06 699.037 1018.88C694.425 1006.69 685.992 992.205 669.006 996.286C652.02 1000.37 642.409 1003.92 613.573 996.944C584.737 989.966 573.676 991.81 575.124 998.13C576.573 1004.45 597.772 1009.06 597.772 1009.06C597.772 1009.06 626.082 1013.27 626.082 1016.04C626.082 1018.8 625.291 1021.3 599.878 1021.17C574.466 1021.04 543.791 1017.69 502.331 996.356C460.87 975.026 448.408 966.399 422.525 971.192C396.642 975.985 374.115 989.646 366.207 971.672C358.297 953.697 374.543 927.954 373.958 921.712C373.374 915.471 364.596 913.13 364.596 913.13L361.096 888.098" fill="#15023F"/><path id="Fill 14" fill-rule="evenodd" clip-rule="evenodd" d="M363.944 878.465C363.944 878.465 363.083 879.788 361.095 888.098C359.108 896.407 360.011 921.518 368.683 920.072C377.354 918.628 382.955 900.924 390 890.627C397.045 880.33 406.62 876.898 415.291 880.872C423.962 884.846 456.052 880.546 456.052 880.546C456.052 880.546 446.366 866.493 417.715 868.267C417.715 868.267 396.999 863.013 386.494 882.249C375.988 901.486 370.1 920.276 368.125 904.87C366.424 891.604 370.033 883.147 368.805 878.508C367.578 873.869 363.944 878.465 363.944 878.465" fill="#451989"/><path id="Fill 16" fill-rule="evenodd" clip-rule="evenodd" d="M590.153 957.023C590.153 957.023 575.052 960.374 530.413 959.374C485.773 958.364 494.163 937.553 475.703 933.523C457.243 929.503 455.233 928.824 444.153 912.713C433.083 896.603 409.253 913.723 397.173 911.713C385.083 909.693 418.313 874.454 418.313 874.454C418.313 874.454 437.183 867.904 456.052 880.544C461.363 884.103 472.523 897.414 475.833 900.483C479.133 903.553 498.262 908.983 516.333 928.584C534.403 948.193 557.313 940.633 562.043 941.574C566.762 942.523 522.833 889.853 522.833 889.853L522.512 884.324C522.512 884.324 550.092 919.244 563.473 934.723C576.863 950.204 587.213 953.553 589.103 954.383C590.983 955.223 590.153 957.023 590.153 957.023" fill="#E263AB"/><path id="Fill 18" fill-rule="evenodd" clip-rule="evenodd" d="M349.291 929.193C349.291 929.193 325.39 996.288 328.06 1011.09C330.729 1025.9 362.039 1014.01 377.572 1041.68C393.106 1069.34 414.15 1080.45 500.537 1089.21C586.923 1097.98 656.616 1060.84 656.616 1055.83C656.616 1050.82 655.364 1041.22 655.364 1041.22C655.364 1041.22 533.923 1070.02 480.505 1039.13C427.088 1008.25 424.584 997.82 405.805 1004.08C387.024 1010.34 375.34 1004.92 359.481 988.221C359.481 988.221 357.395 979.458 361.15 956.088C364.906 932.717 357.823 900.257 349.291 929.193" fill="white"/><path id="Fill 20" fill-rule="evenodd" clip-rule="evenodd" d="M419.114 871.015C419.114 871.015 407.878 860.421 424.25 846.938C440.622 833.455 472.082 840.357 482.034 849.506C482.034 849.506 463.735 842.122 441.906 845.975C420.077 849.828 425.695 855.766 436.93 870.694L416.867 869.57" fill="#451989"/><path id="Fill 22" fill-rule="evenodd" clip-rule="evenodd" d="M449.425 881.602C452.056 885.193 450.437 890.852 445.809 894.242C441.182 897.631 435.298 897.468 432.667 893.876C430.036 890.286 431.655 884.626 436.283 881.237C440.911 877.847 446.795 878.01 449.425 881.602" fill="#1F003C"/><path id="Fill 24" fill-rule="evenodd" clip-rule="evenodd" d="M435.277 889.615C435.277 889.615 435.847 881.484 450.966 875.065C466.087 868.647 494.756 857.949 511.16 868.932C527.562 879.916 526.564 885.478 526.564 885.478C526.564 885.478 514.725 879.487 505.739 877.205C496.754 874.923 484.772 874.637 473.076 877.776C461.38 880.914 449.826 885.621 446.117 887.475C442.409 889.329 439.414 897.317 435.277 889.615" fill="#E8D9F3"/><path id="Fill 26" fill-rule="evenodd" clip-rule="evenodd" d="M471.455 897.435C474.085 901.026 472.466 906.685 467.839 910.075C463.211 913.464 457.327 913.301 454.696 909.709C452.066 906.119 453.684 900.459 458.312 897.07C462.94 893.68 468.824 893.843 471.455 897.435" fill="#1F003C"/><path id="Fill 28" fill-rule="evenodd" clip-rule="evenodd" d="M457.305 905.448C457.305 905.448 457.854 897.317 472.383 890.899C486.912 884.48 514.464 873.782 530.227 884.765C545.991 895.749 545.031 901.311 545.031 901.311C545.031 901.311 533.654 895.32 525.019 893.038C516.383 890.756 504.869 890.47 493.629 893.609C482.389 896.747 471.286 901.454 467.723 903.308C464.159 905.162 461.281 913.15 457.305 905.448" fill="#E8D9F3"/><path id="Fill 30" fill-rule="evenodd" clip-rule="evenodd" d="M495.549 911.547C498.179 915.139 496.56 920.798 491.933 924.188C487.305 927.577 481.421 927.413 478.79 923.822C476.16 920.232 477.778 914.572 482.406 911.183C487.034 907.793 492.918 907.956 495.549 911.547" fill="#1F003C"/><path id="Fill 32" fill-rule="evenodd" clip-rule="evenodd" d="M481.398 919.894C481.398 919.894 481.834 912.591 493.364 906.826C504.894 901.06 534.462 892.407 546.972 902.273C559.481 912.138 552.763 920.032 552.763 920.032C552.763 920.032 541.988 910.797 535.135 908.748C528.282 906.698 519.144 906.441 510.224 909.26C501.305 912.079 492.494 916.306 489.666 917.972C486.837 919.638 484.553 926.813 481.398 919.894" fill="#E8D9F3"/></g></g><path id="Fill 65 Copy" fill-rule="evenodd" clip-rule="evenodd" d="M99.0983 255.048C232.973 277.383 360.616 300.406 360.616 309.38C360.616 327.442 349.777 459.198 356.723 620.358C356.723 620.358 398.403 670.372 523.44 625.915C523.44 625.915 572.503 310.816 509.984 188.557C390.605 30.176 12.2039 1 12.2039 1C12.2039 1 -34.7762 232.714 99.0983 255.048Z" fill="#204EB2"/></g></g><path id="Path 9" d="M403.875 92.6581C488.951 124.441 532.921 183.135 535.436 268.36L535.499 270.951L530.5 271.049C528.863 187.358 487.024 129.899 404.634 98.2918L402.125 97.3419L403.875 92.6581Z" fill="black"/></g></g><g id="Upper Body" transform="translate(333 655) scale(1 1)"><g id="Upper Body/Coffee and Phone"><path id="Neck" fill-rule="evenodd" clip-rule="evenodd" d="M724.954 220C724.954 220 721.263 301.153 673.924 329.8C630.973 355.791 721.969 506.61 819.858 497.614C873.442 492.688 886 346.158 886 346.158C886 346.158 842.734 337.797 858.716 271.819L724.954 220Z" fill="#f6cbc3"/><path id="Head" fill-rule="evenodd" clip-rule="evenodd" d="M803.337 302.516C739.877 294.841 694.078 253.116 687.665 183.898C669.216 186.835 664.865 138.765 670.003 123.323C675.146 107.859 691.933 116.901 691.933 116.901C691.933 116.901 693.327 113.235 694.303 109.226C722.025 -4.48555 799.67 0.0243587 799.67 0.0243587C942.344 7.45716 908.914 153.12 900.763 191.763C892.611 230.41 864.684 309.927 803.337 302.516Z" fill="#f6cbc3"/><g id="Group 31"><path id="Path" fill-rule="evenodd" clip-rule="evenodd" d="M376.227 576C376.227 576 206.738 844.505 269.287 901.819C331.836 959.134 507.933 762.377 507.933 762.377C507.933 762.377 498.858 718.445 461.074 666.513C423.29 614.58 376.227 576 376.227 576Z" fill="#f6cbc3"/><g id="Group 3"><path id="Fill 1" fill-rule="evenodd" clip-rule="evenodd" d="M1088.32 703.18L1005.85 693.58C1005.85 693.58 1026.95 977.46 1019.02 977.46C1014.76 977.46 915.693 1031.17 776.867 1031.17C670.216 1031.17 539.396 995.9 533.866 995.6C533.186 995.56 532.526 995.1 531.896 994.25C533.676 974.67 535.086 940.05 536.516 901.82C537.516 875 538.536 846.41 539.706 820C540.796 795.43 542.016 772.75 543.486 755.13C549.886 678.28 545.456 608.15 545.456 608.15L513.876 693.85L313.676 620.91C313.676 620.91 380.526 523.48 460.226 438.741C539.296 354.66 666.116 333.33 668.096 333.01C668.106 333 668.116 333 668.116 333C668.116 333 660.996 449 780.966 457.91C880.716 465.32 885.886 345.76 885.886 345.76C885.886 345.76 1002.49 376.2 1035.94 404.73C1069.39 433.26 1216.96 628.05 1216.96 632.97C1216.96 637.89 1088.32 703.18 1088.32 703.18Z" fill="#F9C818"/></g><path id="Fill 4" fill-rule="evenodd" clip-rule="evenodd" d="M539.707 820C538.537 846.41 537.517 875 536.517 901.819C536.287 883.649 537.007 857.52 539.707 820" fill="#F9C818"/><path id="Fill 6" fill-rule="evenodd" clip-rule="evenodd" d="M954.269 736.572L849.392 745.095C843.071 745.609 837.529 740.901 837.015 734.579L820.253 528.343C819.74 522.021 824.448 516.479 830.77 515.966L935.646 507.442C941.968 506.928 947.51 511.636 948.024 517.959L964.785 724.194C965.299 730.516 960.591 736.057 954.269 736.572" fill="#204EB2"/><path id="Fill 8" fill-rule="evenodd" clip-rule="evenodd" d="M964.96 730.856L859.705 739.411C853.488 739.917 848.038 735.286 847.532 729.068L831.35 529.967C830.845 523.751 835.476 518.3 841.693 517.795L946.948 509.241C953.165 508.735 958.615 513.366 959.121 519.584L975.303 718.683C975.808 724.901 971.177 730.351 964.96 730.856" fill="#1F9BEB"/><path id="Fill 10" fill-rule="evenodd" clip-rule="evenodd" d="M947.255 531.94C947.74 537.912 943.293 543.146 937.321 543.631C931.35 544.117 926.115 539.669 925.63 533.697C925.145 527.726 929.592 522.492 935.564 522.006C941.535 521.521 946.77 525.968 947.255 531.94" fill="#204EB2"/><g id="Group 14"><path id="Fill 12" fill-rule="evenodd" clip-rule="evenodd" d="M926.491 723.582C926.491 723.582 873.894 735.046 873.557 716.839C873.557 716.839 909.296 702.004 917.388 702.678C925.48 703.353 962.905 707.735 962.905 707.735L916.713 684.809L870.859 698.97C870.859 698.97 860.407 699.644 855.687 692.226C850.967 684.809 856.361 680.426 856.361 680.426L916.376 660.533C916.376 660.533 918.399 654.127 903.227 653.452C888.054 652.778 854.675 650.418 854.675 650.418C854.675 650.418 847.258 644.012 850.629 632.548C854.001 621.085 872.882 625.131 872.882 625.131C872.882 625.131 862.43 615.016 878.277 603.89C878.277 603.89 926.828 605.238 944.698 616.364C962.567 627.491 1084.89 702.596 1084.89 702.596L1180.09 652.587C1180.09 652.587 1360.84 873.839 1276 914.749C1191.16 955.658 926.491 723.582 926.491 723.582Z" fill="#f6cbc3"/></g><path id="Fill 15" fill-rule="evenodd" clip-rule="evenodd" d="M979.305 657.272L931.502 630.183L871.977 623.805L872.403 619.829L932.34 626.251C932.612 626.279 932.875 626.364 933.113 626.499L981.277 653.792L979.305 657.272Z" fill="black"/><path id="Fill 17" fill-rule="evenodd" clip-rule="evenodd" d="M1171.18 757.268L1056.93 685.473L1059.06 682.086L1173.31 753.881L1171.18 757.268Z" fill="black"/><path id="Fill 17_2" fill-rule="evenodd" clip-rule="evenodd" d="M454.788 675.157L340.173 746.375L338.062 742.977L452.676 671.759L454.788 675.157Z" fill="black"/><path id="Fill 19" fill-rule="evenodd" clip-rule="evenodd" d="M975.432 679.236C975.13 679.032 945.176 658.754 937.365 655.499C931.406 653.016 919.493 657.546 915.406 659.502L913.68 655.892C914.346 655.575 930.09 648.132 938.903 651.807C947.084 655.215 976.431 675.081 977.676 675.925L975.432 679.236Z" fill="black"/><path id="Fill 21" fill-rule="evenodd" clip-rule="evenodd" d="M965.141 600.124L994.655 645.264L966.588 627.613L965.141 600.124Z" fill="#f6cbc3"/><path id="Fill 23" fill-rule="evenodd" clip-rule="evenodd" d="M993.587 646.957L965.52 629.307L967.649 625.92L995.716 643.57L993.587 646.957Z" fill="black"/><path id="Fill 27" fill-rule="evenodd" clip-rule="evenodd" d="M601.7 757.014L566.555 756.325C529.55 755.599 500.139 725.011 500.865 688.006L503.062 576L662.887 579.136L660.507 700.469C659.883 732.323 633.554 757.639 601.7 757.014" fill="white"/></g><g id="Group"><path id="Fill 12" fill-rule="evenodd" clip-rule="evenodd" d="M499.562 614.711C499.562 614.711 485.139 623.983 480.503 629.649C475.867 635.315 479.988 636.346 469.686 647.163C459.384 657.981 440.84 685.281 473.291 727.005C505.744 768.729 516.561 765.122 529.954 757.911C543.346 750.699 544.892 745.549 570.132 742.973C595.372 740.398 619.582 715.672 619.067 709.491L618.552 703.31C618.552 703.31 641.731 694.553 640.187 684.766C638.641 674.979 631.945 676.009 631.945 676.009C631.945 676.009 636.581 671.373 632.975 663.131C629.369 654.89 612.371 656.435 592.796 659.011C573.223 661.586 522.742 671.888 519.651 669.828C516.561 667.768 517.591 664.677 529.438 663.131C541.286 661.586 589.191 661.071 589.191 647.678C589.191 634.285 574.768 631.71 546.952 632.225C519.136 632.74 513.985 631.194 507.289 633.771L500.592 636.346L499.562 614.711Z" fill="#f6cbc3"/><path id="Fill 14" fill-rule="evenodd" clip-rule="evenodd" d="M632.349 675.951C632.349 675.951 633.829 674.883 622.806 679.092C618.792 680.624 613.132 682.223 605.158 683.735C575.281 689.401 528.407 699.704 513.984 701.764C499.56 703.825 511.408 706.915 544.375 700.219C577.342 693.522 616.587 684.539 618.349 683.951C621.349 682.951 630.349 679.951 632.349 675.951" fill="black"/><path id="Fill 16" fill-rule="evenodd" clip-rule="evenodd" d="M607.736 706.401C607.736 706.401 583.352 714.952 571.352 717.952C558.611 721.137 549.014 725.46 546.439 721.339C543.863 717.218 540.772 716.188 540.772 716.188L536.652 720.824C536.652 720.824 537.352 725.952 535.106 726.49C531.099 727.451 523.258 729.066 523.258 729.066C523.258 729.066 523.352 731.952 547.352 726.952C553.307 725.712 564.352 723.952 571.352 721.952C577.791 720.112 601.04 714.128 604.131 711.552C607.221 708.976 607.736 706.401 607.736 706.401" fill="black"/><path id="Fill 18" fill-rule="evenodd" clip-rule="evenodd" d="M532.013 703.825C532.013 703.825 531.633 724.568 537.489 724.241C543.346 723.914 545.406 723.914 546.436 722.368C547.467 720.823 544.891 715.672 544.891 710.006C544.891 704.34 544.891 701.764 540.255 702.279C535.619 702.795 532.528 702.795 532.013 703.825" fill="#F9C818"/></g></g></g><g id="Expression" transform="translate(1055 738) scale(1 1)"><g id="Expression/Make Up Holding Laughter"><g id="Group 19"><path id="Fill 12" fill-rule="evenodd" clip-rule="evenodd" d="M60.907 148.95C60.907 148.95 58.4517 164.71 80.2133 170.654C101.975 176.596 112.274 175.16 113.228 164.956C113.228 164.956 111.248 153.38 106.128 152.18C101.008 150.979 95.1886 153.046 95.1886 153.046C95.1886 153.046 90.9633 145.481 85.4422 145.426C79.92 145.372 68.1822 150.211 60.907 148.95" fill="#CE4129"/><path id="Fill 10" fill-rule="evenodd" clip-rule="evenodd" d="M98.6818 162.979C82.8283 158.554 63.9074 152.977 58.27 149.093C54.1566 146.258 52.4494 146.586 52.4325 146.591C52.4335 146.591 54.5687 141.687 60.5387 145.798C66.3499 149.803 91.494 156.82 99.7574 159.127C114.212 163.16 115.647 162.587 117.465 161.864L118.946 165.578C117.185 166.282 115.566 166.635 112.083 166.146C109.232 165.745 105.132 164.779 98.6818 162.979Z" fill="black"/><path id="Fill 17" fill-rule="evenodd" clip-rule="evenodd" d="M86.4619 223.176C72.6079 223.176 58.2859 219.136 48.0139 215.404C34.8549 210.623 25.3079 205.297 25.2129 205.244L26.6809 202.627C27.0519 202.836 64.1469 223.389 93.7939 219.746L94.1609 222.723C91.6319 223.034 89.0539 223.176 86.4619 223.176" fill="black"/></g><g id="Group 124"><path id="Stroke 114" d="M123.94 52.5157L127.749 53.7377L127.377 54.931C127.077 55.9043 126.744 57.0179 126.384 58.2529C125.356 61.7838 124.327 65.5761 123.368 69.479C122.301 73.8176 121.387 78.025 120.672 81.9977L120.465 83.1741C118.727 93.2777 118.482 100.993 120.034 105.142L120.126 105.377C129.004 127.34 116.948 138.478 91.6439 130.679L90.873 130.437L92.0921 126.627C114.886 133.921 124.027 125.703 116.417 106.876C114.322 101.694 114.645 92.8994 116.735 81.289C117.466 77.2273 118.398 72.9394 119.483 68.524C120.349 65.0028 121.269 61.5728 122.196 58.3382L122.543 57.1345C122.752 56.4176 122.952 55.7406 123.143 55.1069L123.631 53.5025L123.94 52.5157Z" fill="black"/><path id="Stroke 122" d="M25.1855 205.534L27.1425 202.046L27.8567 202.435L28.5118 202.783C29.5036 203.305 30.6327 203.881 31.8877 204.498L32.4332 204.765C36.6543 206.821 41.3224 208.878 46.301 210.798C57.7489 215.212 69.0606 218.225 79.5848 219.202C84.3541 219.645 88.8741 219.656 93.1069 219.202L93.9496 219.105L94.4385 223.075C89.6635 223.663 84.5751 223.683 79.2149 223.185C68.2771 222.169 56.6257 219.066 44.8619 214.53C39.7712 212.567 35.0001 210.465 30.6815 208.361L29.0484 207.554C28.354 207.206 27.7021 206.873 27.0948 206.556L25.9633 205.958L25.1855 205.534Z" fill="black"/></g><g id="Group 16"><path id="Fill 5" fill-rule="evenodd" clip-rule="evenodd" d="M105.825 133.166C101.782 133.166 96.7384 132.375 90.4434 130.361L91.6614 126.551C103.385 130.302 112.045 129.996 116.046 125.687C119.449 122.02 119.428 115.313 115.987 106.801C113.652 101.026 114.229 90.0734 117.702 74.2454C120.243 62.6624 123.477 52.5414 123.51 52.4404L127.318 53.6624C123.811 64.5954 115.606 95.1874 119.695 105.302C124.893 118.16 122.174 124.964 118.977 128.408C116.697 130.866 112.718 133.166 105.825 133.166" fill="black"/></g><path id="Fill 12_2" fill-rule="evenodd" clip-rule="evenodd" d="M78.6366 79.1288C77.9116 79.1288 77.1856 78.8679 76.6096 78.3389C76.5716 78.3049 71.6246 73.9129 64.4836 74.1789C57.0946 74.4519 52.1896 78.0668 52.1406 78.1028C50.8186 79.0928 48.9396 78.8329 47.9446 77.5169C46.9476 76.1999 47.1966 74.3309 48.5086 73.3279C48.7646 73.1319 54.8866 68.5299 64.2616 68.1829C73.9106 67.8359 80.3946 73.6699 80.6656 73.9189C81.8866 75.0389 81.9686 76.9369 80.8476 78.1569C80.2566 78.8019 79.4476 79.1288 78.6366 79.1288" fill="black"/><path id="Fill 7" fill-rule="evenodd" clip-rule="evenodd" d="M27.6727 64.1793C27.6727 64.1793 39.1028 50.5029 49.4237 44.7334C55.7963 41.1716 95.1317 33.549 96.5704 41.6098C97.9716 49.4634 93.9254 49.7345 78.2425 52.2885C62.5593 54.8416 55.2116 55.4732 46.9705 59.3462C38.7282 63.2186 29.4179 68.4952 27.6727 64.1793" fill="black"/><path id="Fill 10_2" fill-rule="evenodd" clip-rule="evenodd" d="M179.399 73.8038C179.399 73.8038 180.847 65.5116 178.853 60.0966C176.857 54.6832 152.161 32.1514 144.915 34.1123C133.403 37.2283 137.551 42.7447 152.125 52.5458C163.845 60.4288 168.517 63.4635 172.938 69.0172C178.979 76.6053 178.526 75.0269 179.399 73.8038" fill="black"/><path id="Fill 14" fill-rule="evenodd" clip-rule="evenodd" d="M162.754 88.2724C162.029 88.2724 161.303 88.0114 160.727 87.4824C160.689 87.4484 155.742 83.0504 148.6 83.3224C141.231 83.5944 136.317 87.2014 136.27 87.2374C134.953 88.2444 133.07 87.9924 132.064 86.6764C131.058 85.3604 131.309 83.4774 132.625 82.4714C132.881 82.2754 139.004 77.6724 148.379 77.3264C158.024 76.9814 164.512 82.8134 164.783 83.0624C166.004 84.1824 166.086 86.0804 164.965 87.3004C164.374 87.9454 163.565 88.2724 162.754 88.2724" fill="black"/></g></g><g id="Hairstyle" transform="translate(564 411) scale(1 1)"><g id="Hairstyle/Wavy Bob"><g id="Group 35 Copy"><g id="Group 27"><path id="Fill 25" fill-rule="evenodd" clip-rule="evenodd" d="M540 328.831C478.432 371.844 513.233 399.907 513.864 476.098C514.07 500.906 499.298 528.625 492.221 565.191C492.221 565.191 485.101 606.718 513.864 632.713C513.864 632.713 485.359 611.718 448.142 629.726C410.925 647.734 385.079 625.509 353.865 632.713C322.65 639.916 316 615.792 316 615.792C316 615.792 337.106 586.322 337.106 538.3C337.106 490.278 332.187 494.843 361 458.826C389.813 422.809 349.03 414.715 392.251 376.297C435.47 337.879 461.883 145.791 623.957 246.637C623.957 246.637 717.59 261.898 700.781 372.349C683.973 482.8 721.654 507.895 731.155 548C740.656 588.106 737.374 632.713 737.374 632.713C737.374 632.713 711.475 644.376 687.531 636.441C663.587 628.506 654.882 622.242 626.574 632.713C598.266 643.184 603.538 562.792 613.081 536.416C613.081 536.416 646.241 513.933 663.587 451.172C680.934 388.411 681.743 284.537 617.541 268.659C617.541 268.659 590.395 293.624 540 328.831Z" fill="#878787"/></g></g></g></g><g id="Accessories" transform="translate(1008 771) scale(234 78)"><g id="Accessories/None" stroke="none" stroke-width="1" fill="none" fill-rule="evenodd" fill-opacity="0"/></g><g id="Facial Hair" transform="translate(1018 772) scale(212 211)"><g id="Facial Hair/None" stroke="none" stroke-width="1" fill="none" fill-rule="evenodd" fill-opacity="0"/></g></g></g><g id="Master/Character/Sitting On Chair" transform="matrix(-1 0 0 1 3979 556) scale(1 1)"><g id="Master/Character/Sitting On Chair"><g id="Lower Body/Sitting On Chair" transform="translate(876 1607) scale(1 1)"><g id="Lower Body/Sitting On Chair/4"><g id="Group 68"><g id="Group 3"><path id="Fill 2" fill-rule="evenodd" clip-rule="evenodd" d="M805.172 988.968L875.774 1055.99L983.41 1047.26L974.771 1018.83L842.928 975.443L805.172 988.968Z" fill="#56ACF6"/><path id="Fill 34" fill-rule="evenodd" clip-rule="evenodd" d="M762.343 590.123C761.654 599.746 788.527 792.787 788.527 792.787L890.54 802.204L915.541 579.41L762.343 590.123Z" fill="#f6cbc3"/><path id="Fill 36" fill-rule="evenodd" clip-rule="evenodd" d="M774.102 898.767C774.337 895.485 785.37 787.453 785.37 787.453C785.37 787.453 782.417 782.626 783.31 770.159C784.203 757.692 792.267 746.397 845.086 754.796C897.907 763.195 900.718 769.991 900.342 775.241C899.966 780.49 893.169 792.534 892.557 801.065C891.946 809.595 890.62 892.6 890.62 892.6L774.102 898.767Z" fill="#E4F9FF"/><path id="Fill 38" fill-rule="evenodd" clip-rule="evenodd" d="M772.858 894.504L763.213 980.888L833.054 967.652L899.003 994.664L999.22 1031.22L1082.92 1022.52L1079.4 1000.99C1079.4 1000.99 1004.2 961.669 986.239 950.758C968.276 939.847 961.081 920.846 961.081 920.846L932.836 880.031C932.836 880.031 902.68 836.482 878.601 832.728C854.522 828.975 833.931 833.182 838.515 842.843C843.099 852.505 854.458 869.55 854.458 869.55L810.453 860.718L785.532 891.396L778.928 898.634L781.584 903.732" fill="#F4F0F1"/><path id="Fill 40" fill-rule="evenodd" clip-rule="evenodd" d="M779.604 907.106C779.604 907.106 778.697 914.835 803.296 922.62C827.895 930.405 854.306 942.572 858.085 929.378C861.865 916.185 855.723 902.989 855.723 902.989L878.281 919.485C878.281 919.485 888.677 937.592 876.789 955.165C864.902 972.738 835.089 973.438 835.089 973.438L822.451 961.904C822.451 961.904 782.947 939.588 774.49 924.101C766.032 908.615 779.604 907.106 779.604 907.106" fill="#F9C818"/><mask id="mask0_406_1419382645f3b-c93e-4fac-b5b8-f2482bb25a80" style="mask-type:luminance" maskUnits="userSpaceOnUse" x="705" y="847" width="400" height="266" fill="#ffffff"><path id="Clip 43" fill-rule="evenodd" clip-rule="evenodd" d="M705.9 873.848L1087.42 847.169L1104.13 1086.03L722.603 1112.71L705.9 873.848Z" fill="#ffffff"/></mask><g mask="url(#mask0_406_1419382645f3b-c93e-4fac-b5b8-f2482bb25a80)"><path id="Fill 42" fill-rule="evenodd" clip-rule="evenodd" d="M771.088 875.576C771.088 875.576 742.209 943.976 744.743 942.998C747.277 942.019 763.519 908.561 764.198 921.365C764.875 934.171 756.458 950.555 758.199 964.789C758.199 964.789 771.381 999.164 779.314 999.732C787.248 1000.3 825.067 990.433 825.067 990.433C825.067 990.433 842.312 968.051 878.054 991.465C913.796 1014.88 959.936 1038.73 959.936 1038.73C959.936 1038.73 954.319 1043.45 954.103 1047.83C953.887 1052.21 956.69 1058.18 956.69 1058.18L816.864 1038.02L741.591 987.055L732.275 988.039C732.275 988.039 723.637 993.365 722.86 1008.83C722.083 1024.29 722.787 1028.31 720.463 1033.09C718.138 1037.88 712.176 1047.36 730.339 1051.96C748.501 1056.57 884.863 1089.11 944.938 1094.08C1005.01 1099.04 1066.66 1081.99 1083.35 1065.68C1100.04 1049.37 1102.62 1036.35 1098.89 1023.87C1095.16 1011.38 1087.79 996.33 1070.55 999.187C1053.32 1002.05 1043.48 1004.91 1015.21 995.885C986.948 986.865 975.785 987.914 976.779 994.323C977.771 1000.73 998.587 1006.84 998.587 1006.84C998.587 1006.84 1026.52 1013.07 1026.33 1015.82C1026.13 1018.58 1025.16 1021.02 999.823 1019.07C974.485 1017.13 944.128 1011.59 904.297 987.354C864.465 963.118 852.651 953.622 826.492 956.554C800.333 959.487 776.888 971.505 770.283 953.01C763.678 934.517 781.721 910 781.584 903.732C781.445 897.465 772.858 894.504 772.858 894.504L771.155 869.285" fill="#15023F"/><path id="Fill 45" fill-rule="evenodd" clip-rule="evenodd" d="M774.683 859.881C774.683 859.881 773.729 861.138 771.153 869.285C768.578 877.432 767.686 902.542 776.438 901.721C785.191 900.898 792.04 883.639 799.803 873.872C807.567 864.105 817.361 861.365 825.726 865.948C834.092 870.532 866.407 868.534 866.407 868.534C866.407 868.534 857.749 853.826 829.045 853.549C829.045 853.549 808.756 846.828 796.905 865.266C785.053 883.703 777.837 902.024 776.967 886.516C776.218 873.163 780.422 864.984 779.529 860.271C778.635 855.556 774.683 859.881 774.683 859.881" fill="#451989"/><path id="Fill 47" fill-rule="evenodd" clip-rule="evenodd" d="M994.703 954.394C994.703 954.394 979.402 956.656 934.947 952.471C890.494 948.276 900.348 928.118 882.223 922.78C864.098 917.452 862.142 916.631 852.239 899.77C842.349 882.91 817.357 898.285 805.451 895.418C793.537 892.54 829.198 859.763 829.198 859.763C829.198 859.763 848.488 854.578 866.407 868.532C871.449 872.463 881.631 886.536 884.712 889.834C887.785 893.133 906.479 899.914 923.103 920.754C939.726 941.604 963.118 935.7 967.768 936.976C972.408 938.262 932.352 882.588 932.352 882.588L932.427 877.049C932.427 877.049 957.443 913.85 969.684 930.246C981.934 946.642 992.018 950.723 993.844 951.686C995.659 952.658 994.703 954.394 994.703 954.394" fill="#E263AB"/><path id="Fill 49" fill-rule="evenodd" clip-rule="evenodd" d="M756.444 909.433C756.444 909.433 727.812 974.65 729.417 989.608C731.022 1004.57 763.102 994.94 776.62 1023.65C790.138 1052.36 810.335 1064.94 895.875 1079.85C981.415 1094.76 1053.58 1062.69 1053.94 1057.69C1054.3 1052.7 1053.73 1043.03 1053.73 1043.03C1053.73 1043.03 930.546 1063.08 879.471 1028.46C828.396 993.847 826.643 983.261 807.464 988.164C788.286 993.067 777.018 986.822 762.392 969.039C762.392 969.039 760.937 960.147 766.352 937.106C771.767 914.063 767.02 881.181 756.444 909.433" fill="white"/><path id="Fill 51" fill-rule="evenodd" clip-rule="evenodd" d="M830.244 856.389C830.244 856.389 819.793 845.021 837.087 832.742C854.38 820.462 885.267 829.593 894.539 839.429C894.539 839.429 876.815 830.758 854.767 833.042C832.719 835.326 837.897 841.65 848.039 857.341L828.106 854.789" fill="#451989"/><path id="Fill 53" fill-rule="evenodd" clip-rule="evenodd" d="M859.723 869.114C862.091 872.885 860.071 878.414 855.214 881.464C850.356 884.515 844.498 883.931 842.131 880.161C839.763 876.391 841.783 870.862 846.641 867.812C851.499 864.761 857.356 865.344 859.723 869.114" fill="#1F003C"/><path id="Fill 55" fill-rule="evenodd" clip-rule="evenodd" d="M845.037 876.096C845.037 876.096 846.187 868.027 861.727 862.705C877.265 857.382 906.626 848.759 922.203 860.886C937.78 873.013 936.386 878.49 936.386 878.49C936.386 878.49 925.006 871.669 916.206 868.751C907.406 865.833 895.474 864.693 883.585 866.988C871.694 869.282 859.835 873.152 856.003 874.736C852.172 876.321 848.613 884.074 845.037 876.096" fill="#E8D9F3"/><path id="Fill 57" fill-rule="evenodd" clip-rule="evenodd" d="M880.564 886.48C882.932 890.251 880.913 895.779 876.055 898.83C871.197 901.881 865.339 901.297 862.973 897.527C860.605 893.757 862.624 888.228 867.482 885.177C872.341 882.127 878.197 882.71 880.564 886.48" fill="#1F003C"/><path id="Fill 59" fill-rule="evenodd" clip-rule="evenodd" d="M865.88 893.462C865.88 893.462 867.007 885.391 881.958 880.027C896.909 874.662 925.154 865.96 940.092 878.04C955.031 890.122 953.677 895.602 953.677 895.602C953.677 895.602 942.757 888.814 934.306 885.92C925.856 883.027 914.391 881.921 902.957 884.248C891.521 886.575 880.11 890.477 876.423 892.072C872.736 893.667 869.295 901.429 865.88 893.462" fill="#E8D9F3"/><path id="Fill 61" fill-rule="evenodd" clip-rule="evenodd" d="M903.59 902.278C905.958 906.048 903.938 911.576 899.08 914.627C894.222 917.678 888.365 917.094 885.999 913.324C883.631 909.554 885.649 904.024 890.507 900.974C895.366 897.924 901.222 898.507 903.59 902.278" fill="#1F003C"/><path id="Fill 63" fill-rule="evenodd" clip-rule="evenodd" d="M888.879 909.593C888.879 909.593 889.835 902.34 901.749 897.412C913.661 892.485 943.771 885.965 955.544 896.699C967.317 907.433 960.053 914.827 960.053 914.827C960.053 914.827 949.965 904.845 943.275 902.312C936.586 899.777 927.49 898.87 918.392 901.044C909.294 903.218 900.202 906.807 897.263 908.266C894.323 909.726 891.532 916.719 888.879 909.593" fill="#E8D9F3"/></g></g><g id="Group 67"><path id="Fill 65" fill-rule="evenodd" clip-rule="evenodd" d="M3.181 1.00195C3.181 1.00195 -2.9996 188.559 30.423 177.445C30.423 177.445 212.422 195.505 256.88 202.451C279.247 205.946 322.025 232.716 455.899 255.05C589.774 277.385 717.417 300.408 717.417 309.382C717.417 327.444 746.578 459.2 753.524 620.36C753.524 620.36 795.204 670.374 920.241 625.917C920.241 625.917 929.304 310.818 866.785 188.559C747.406 30.178 369.005 1.00195 369.005 1.00195H3.181Z" fill="#E93737"/><g id="Group 2"><path id="Fill 4" fill-rule="evenodd" clip-rule="evenodd" d="M363.338 570.507C363.338 580.153 375.285 826.9 375.285 826.9L472.716 835.852L526.576 557L363.338 570.507Z" fill="#f6cbc3"/><g id="Group"><path id="Fill 1" fill-rule="evenodd" clip-rule="evenodd" d="M394.703 881.042L460.458 952.83L568.441 951.624L561.806 922.667L433.311 870.184L394.703 881.042Z" fill="#56ACF6"/><path id="Fill 3" fill-rule="evenodd" clip-rule="evenodd" d="M394.969 994.317L460.724 1066.1L568.707 1064.9L562.072 1035.94L433.577 983.459L394.969 994.317Z" fill="#56ACF6"/><path id="Fill 6" fill-rule="evenodd" clip-rule="evenodd" d="M366.143 917.293C366.143 914.004 369.432 805.46 369.432 805.46C369.432 805.46 366.143 800.855 366.143 788.356C366.143 775.856 373.379 764.016 426.664 768.62C479.95 773.226 483.239 779.804 483.239 785.066C483.239 790.329 477.319 802.828 477.319 811.38C477.319 819.933 481.923 902.82 481.923 902.82L366.143 917.293Z" fill="#E4F9FF"/><path id="Fill 8" fill-rule="evenodd" clip-rule="evenodd" d="M364.596 913.129L361.145 999.982L429.864 981.791L497.572 1004.03L600.145 1033.33L683.012 1018.68L677.959 997.455C677.959 997.455 600.145 963.602 581.45 954.001C562.754 944.4 554.22 925.962 554.22 925.962L523.132 887.269C523.132 887.269 489.943 845.983 465.658 843.96C441.372 841.936 421.134 847.603 426.396 856.912C431.658 866.221 444.205 882.411 444.205 882.411L399.683 876.744L377.016 909.125L370.945 916.816L373.958 921.711" fill="#F4F0F1"/><path id="Fill 10" fill-rule="evenodd" clip-rule="evenodd" d="M372.224 925.218C372.224 925.218 371.87 932.992 396.962 939C422.055 945.009 449.268 955.257 452.095 941.827C454.922 928.399 447.854 915.675 447.854 915.675L471.533 930.519C471.533 930.519 483.195 947.836 472.593 966.213C461.991 984.591 432.304 987.418 432.304 987.418L418.874 976.816C418.874 976.816 377.878 957.378 368.336 942.534C358.794 927.692 372.224 925.218 372.224 925.218" fill="#F9C818"/><path id="Fill 12" fill-rule="evenodd" clip-rule="evenodd" d="M361.479 894.376C361.479 894.376 337.559 964.664 340.017 963.508C342.475 962.352 356.286 927.817 357.875 940.541C359.466 953.265 352.242 970.209 354.995 984.282C354.995 984.282 370.597 1017.63 378.551 1017.63C386.505 1017.63 423.523 1005.08 423.523 1005.08C423.523 1005.08 439.125 981.528 476.449 1002.33C513.772 1023.13 561.497 1043.63 561.497 1043.63C561.497 1043.63 556.231 1048.73 556.329 1053.12C556.426 1057.5 559.648 1063.26 559.648 1063.26L418.739 1053.13L340.018 1007.68L330.796 1009.32C330.796 1009.32 322.562 1015.25 322.891 1030.73C323.22 1046.21 324.208 1050.17 322.232 1055.11C320.256 1060.05 314.986 1069.93 333.431 1073.22C351.875 1076.52 490.213 1099.24 550.489 1099.9C610.764 1100.56 671.04 1079.15 686.52 1061.7C702 1044.24 703.648 1031.06 699.037 1018.88C694.425 1006.69 685.992 992.205 669.006 996.286C652.02 1000.37 642.409 1003.92 613.573 996.944C584.737 989.966 573.676 991.81 575.124 998.13C576.573 1004.45 597.772 1009.06 597.772 1009.06C597.772 1009.06 626.082 1013.27 626.082 1016.04C626.082 1018.8 625.291 1021.3 599.878 1021.17C574.466 1021.04 543.791 1017.69 502.331 996.356C460.87 975.026 448.408 966.399 422.525 971.192C396.642 975.985 374.115 989.646 366.207 971.672C358.297 953.697 374.543 927.954 373.958 921.712C373.374 915.471 364.596 913.13 364.596 913.13L361.096 888.098" fill="#15023F"/><path id="Fill 14" fill-rule="evenodd" clip-rule="evenodd" d="M363.944 878.465C363.944 878.465 363.083 879.788 361.095 888.098C359.108 896.407 360.011 921.518 368.683 920.072C377.354 918.628 382.955 900.924 390 890.627C397.045 880.33 406.62 876.898 415.291 880.872C423.962 884.846 456.052 880.546 456.052 880.546C456.052 880.546 446.366 866.493 417.715 868.267C417.715 868.267 396.999 863.013 386.494 882.249C375.988 901.486 370.1 920.276 368.125 904.87C366.424 891.604 370.033 883.147 368.805 878.508C367.578 873.869 363.944 878.465 363.944 878.465" fill="#451989"/><path id="Fill 16" fill-rule="evenodd" clip-rule="evenodd" d="M590.153 957.023C590.153 957.023 575.052 960.374 530.413 959.374C485.773 958.364 494.163 937.553 475.703 933.523C457.243 929.503 455.233 928.824 444.153 912.713C433.083 896.603 409.253 913.723 397.173 911.713C385.083 909.693 418.313 874.454 418.313 874.454C418.313 874.454 437.183 867.904 456.052 880.544C461.363 884.103 472.523 897.414 475.833 900.483C479.133 903.553 498.262 908.983 516.333 928.584C534.403 948.193 557.313 940.633 562.043 941.574C566.762 942.523 522.833 889.853 522.833 889.853L522.512 884.324C522.512 884.324 550.092 919.244 563.473 934.723C576.863 950.204 587.213 953.553 589.103 954.383C590.983 955.223 590.153 957.023 590.153 957.023" fill="#E263AB"/><path id="Fill 18" fill-rule="evenodd" clip-rule="evenodd" d="M349.291 929.193C349.291 929.193 325.39 996.288 328.06 1011.09C330.729 1025.9 362.039 1014.01 377.572 1041.68C393.106 1069.34 414.15 1080.45 500.537 1089.21C586.923 1097.98 656.616 1060.84 656.616 1055.83C656.616 1050.82 655.364 1041.22 655.364 1041.22C655.364 1041.22 533.923 1070.02 480.505 1039.13C427.088 1008.25 424.584 997.82 405.805 1004.08C387.024 1010.34 375.34 1004.92 359.481 988.221C359.481 988.221 357.395 979.458 361.15 956.088C364.906 932.717 357.823 900.257 349.291 929.193" fill="white"/><path id="Fill 20" fill-rule="evenodd" clip-rule="evenodd" d="M419.114 871.015C419.114 871.015 407.878 860.421 424.25 846.938C440.622 833.455 472.082 840.357 482.034 849.506C482.034 849.506 463.735 842.122 441.906 845.975C420.077 849.828 425.695 855.766 436.93 870.694L416.867 869.57" fill="#451989"/><path id="Fill 22" fill-rule="evenodd" clip-rule="evenodd" d="M449.425 881.602C452.056 885.193 450.437 890.852 445.809 894.242C441.182 897.631 435.298 897.468 432.667 893.876C430.036 890.286 431.655 884.626 436.283 881.237C440.911 877.847 446.795 878.01 449.425 881.602" fill="#1F003C"/><path id="Fill 24" fill-rule="evenodd" clip-rule="evenodd" d="M435.277 889.615C435.277 889.615 435.847 881.484 450.966 875.065C466.087 868.647 494.756 857.949 511.16 868.932C527.562 879.916 526.564 885.478 526.564 885.478C526.564 885.478 514.725 879.487 505.739 877.205C496.754 874.923 484.772 874.637 473.076 877.776C461.38 880.914 449.826 885.621 446.117 887.475C442.409 889.329 439.414 897.317 435.277 889.615" fill="#E8D9F3"/><path id="Fill 26" fill-rule="evenodd" clip-rule="evenodd" d="M471.455 897.435C474.085 901.026 472.466 906.685 467.839 910.075C463.211 913.464 457.327 913.301 454.696 909.709C452.066 906.119 453.684 900.459 458.312 897.07C462.94 893.68 468.824 893.843 471.455 897.435" fill="#1F003C"/><path id="Fill 28" fill-rule="evenodd" clip-rule="evenodd" d="M457.305 905.448C457.305 905.448 457.854 897.317 472.383 890.899C486.912 884.48 514.464 873.782 530.227 884.765C545.991 895.749 545.031 901.311 545.031 901.311C545.031 901.311 533.654 895.32 525.019 893.038C516.383 890.756 504.869 890.47 493.629 893.609C482.389 896.747 471.286 901.454 467.723 903.308C464.159 905.162 461.281 913.15 457.305 905.448" fill="#E8D9F3"/><path id="Fill 30" fill-rule="evenodd" clip-rule="evenodd" d="M495.549 911.547C498.179 915.139 496.56 920.798 491.933 924.188C487.305 927.577 481.421 927.413 478.79 923.822C476.16 920.232 477.778 914.572 482.406 911.183C487.034 907.793 492.918 907.956 495.549 911.547" fill="#1F003C"/><path id="Fill 32" fill-rule="evenodd" clip-rule="evenodd" d="M481.398 919.894C481.398 919.894 481.834 912.591 493.364 906.826C504.894 901.06 534.462 892.407 546.972 902.273C559.481 912.138 552.763 920.032 552.763 920.032C552.763 920.032 541.988 910.797 535.135 908.748C528.282 906.698 519.144 906.441 510.224 909.26C501.305 912.079 492.494 916.306 489.666 917.972C486.837 919.638 484.553 926.813 481.398 919.894" fill="#E8D9F3"/></g></g><path id="Fill 65 Copy" fill-rule="evenodd" clip-rule="evenodd" d="M99.0983 255.048C232.973 277.383 360.616 300.406 360.616 309.38C360.616 327.442 349.777 459.198 356.723 620.358C356.723 620.358 398.403 670.372 523.44 625.915C523.44 625.915 572.503 310.816 509.984 188.557C390.605 30.176 12.2039 1 12.2039 1C12.2039 1 -34.7762 232.714 99.0983 255.048Z" fill="#E93737"/></g></g><path id="Path 9" d="M403.875 92.6582C488.951 124.441 532.921 183.135 535.436 268.361L535.499 270.951L530.5 271.049C528.863 187.358 487.024 129.899 404.634 98.2919L402.125 97.342L403.875 92.6582Z" fill="black"/></g></g><g id="Upper Body" transform="translate(333 655) scale(1 1)"><g id="Upper Body/With Phone"><path id="Neck" fill-rule="evenodd" clip-rule="evenodd" d="M724.954 220C724.954 220 721.263 301.153 673.924 329.8C630.973 355.791 721.969 506.61 819.858 497.614C873.442 492.688 886 346.158 886 346.158C886 346.158 842.734 337.797 858.716 271.819L724.954 220Z" fill="#f6cbc3"/><path id="Head" fill-rule="evenodd" clip-rule="evenodd" d="M803.337 302.516C739.877 294.841 694.078 253.116 687.665 183.898C669.216 186.835 664.865 138.765 670.003 123.323C675.146 107.859 691.933 116.901 691.933 116.901C691.933 116.901 693.327 113.235 694.303 109.226C722.025 -4.48555 799.67 0.0243587 799.67 0.0243587C942.344 7.45716 908.914 153.12 900.763 191.763C892.611 230.41 864.684 309.927 803.337 302.516Z" fill="#f6cbc3"/><g id="Group 20"><path id="Fill 1" fill-rule="evenodd" clip-rule="evenodd" d="M571.502 659.244L535.484 996.363C535.484 996.363 791.926 1042.47 1013.79 970.431L1026.76 673.651L571.502 659.244Z" fill="black"/><g id="Group 3"><mask id="mask0_406_32676de198759-2610-41ae-8675-478e31c8fe9f" style="mask-type:luminance" maskUnits="userSpaceOnUse" x="427" y="326" width="705" height="617" fill="#ffffff"><path id="Clip 2" fill-rule="evenodd" clip-rule="evenodd" d="M427 326H1131.39V942.484H427V326Z" fill="#ffffff"/></mask><g mask="url(#mask0_406_32676de198759-2610-41ae-8675-478e31c8fe9f)"><path id="Fill 1_2" fill-rule="evenodd" clip-rule="evenodd" d="M537.224 897.212C537.224 897.212 414.024 820.392 428.124 695.802C442.224 571.212 494.746 401.12 584.985 366.166C675.224 331.212 678.059 326 678.059 326C678.059 326 714.224 373.212 777.224 376.212C840.224 379.212 881.224 344.212 881.224 344.212C881.224 344.212 1004.95 373.683 1040.59 429.447C1076.22 485.212 1167.22 734.212 1116.22 813.212C1065.22 892.212 966.594 915.231 966.594 915.231C966.594 915.231 665.224 987.212 537.224 897.212" fill="black"/></g></g><path id="Fill 4" fill-rule="evenodd" clip-rule="evenodd" d="M714.223 667.996L713.314 587.996C713.314 587.996 710.587 570.996 736.951 569.996C763.314 568.996 834.223 567.996 834.223 567.996C834.223 567.996 851.496 563.996 852.405 588.996C853.314 613.996 854.223 699.996 854.223 699.996L745.132 730.996L704.223 728.996L714.223 667.996Z" fill="#204EB2"/><path id="Fill 6" fill-rule="evenodd" clip-rule="evenodd" d="M704.809 728.525L745.077 730.493L853.721 699.62C853.653 693.343 852.775 612.874 851.908 589.015C851.59 580.297 849.251 574.21 844.955 570.921C840.103 567.205 834.396 568.469 834.338 568.484L834.232 568.497C833.523 568.506 763.027 569.508 736.972 570.497C727.395 570.86 720.631 573.364 716.868 577.938C713.026 582.609 713.801 587.866 713.809 587.919L714.726 668.035L714.719 668.078L704.809 728.525ZM745.192 731.5L745.11 731.496L703.641 729.468L713.725 667.959L712.816 588.003C712.785 587.844 711.96 582.346 716.082 577.32C720.032 572.504 727.047 569.872 736.934 569.497C762.705 568.519 831.913 567.53 834.167 567.498C834.826 567.356 840.543 566.282 845.563 570.127C850.108 573.606 852.579 579.949 852.907 588.978C853.806 613.699 854.716 699.131 854.725 699.992L854.729 700.374L854.362 700.477L745.192 731.5Z" fill="black"/><path id="Fill 8" fill-rule="evenodd" clip-rule="evenodd" d="M713.283 590.988L713.223 577.212C713.223 577.212 713.223 566.212 728.223 565.212C743.223 564.212 832.223 562.212 832.223 562.212C832.223 562.212 844.223 561.212 849.223 568.212C854.223 575.212 852.636 592.229 852.636 592.229C852.636 592.229 852.079 568.382 832.152 568.797C812.223 569.212 734.698 570.814 734.698 570.814C734.698 570.814 714.343 568.763 713.283 590.988" fill="#56ACF6"/><path id="Fill 10" fill-rule="evenodd" clip-rule="evenodd" d="M832.661 568.292C846.248 568.292 850.829 579.569 852.367 586.641C852.401 581.096 851.882 572.794 848.817 568.503C844.037 561.812 832.381 562.698 832.265 562.71C831.345 562.731 743.074 564.723 728.257 565.711C722.286 566.108 717.881 568.235 715.517 571.86C713.744 574.579 713.723 577.186 713.723 577.212L713.755 584.521C714.832 580.577 716.762 577.392 719.526 575.01C725.919 569.498 734.39 570.281 734.748 570.317C734.688 570.314 812.213 568.712 832.141 568.297C832.315 568.293 832.49 568.292 832.661 568.292M853.134 592.276L852.136 592.241C852.134 592.183 851.965 586.287 849.398 580.535C845.996 572.91 840.206 569.118 832.162 569.297C812.234 569.712 734.708 571.314 734.708 571.314C734.566 571.303 726.232 570.544 720.171 575.773C716.253 579.155 714.103 584.282 713.783 591.012L712.783 590.99L712.723 577.214C712.723 577.098 712.9 565.732 728.19 564.713C743.03 563.724 831.322 561.732 832.212 561.712C832.684 561.672 844.523 560.772 849.63 567.921C854.681 574.991 853.199 591.573 853.134 592.276" fill="black"/><path id="Fill 12" fill-rule="evenodd" clip-rule="evenodd" d="M714.437 635.972C714.437 635.972 700.014 645.244 695.378 650.91C690.742 656.576 694.863 657.607 684.561 668.424C674.259 679.242 655.715 706.542 688.166 748.266C720.619 789.99 731.436 786.383 744.829 779.172C758.221 771.96 759.767 766.81 785.007 764.234C810.247 761.659 834.457 736.933 833.942 730.752L833.427 724.571C833.427 724.571 856.606 715.814 855.062 706.027C853.516 696.24 846.82 697.27 846.82 697.27C846.82 697.27 851.456 692.634 847.85 684.392C844.244 676.151 827.246 677.696 807.671 680.272C788.098 682.847 737.617 693.149 734.526 691.089C731.436 689.029 732.466 685.938 744.313 684.392C756.161 682.847 804.066 682.332 804.066 668.939C804.066 655.546 789.643 652.971 761.827 653.486C734.011 654.001 728.86 652.455 722.164 655.032L715.467 657.607L714.437 635.972Z" fill="#f6cbc3"/><path id="Fill 14" fill-rule="evenodd" clip-rule="evenodd" d="M847.224 697.212C847.224 697.212 848.704 696.144 837.681 700.353C833.667 701.885 828.007 703.484 820.033 704.996C790.156 710.662 743.282 720.965 728.859 723.025C714.435 725.086 726.283 728.176 759.25 721.48C792.217 714.783 831.462 705.8 833.224 705.212C836.224 704.212 845.224 701.212 847.224 697.212" fill="black"/><path id="Fill 16" fill-rule="evenodd" clip-rule="evenodd" d="M822.607 727.661C822.607 727.661 798.223 736.212 786.223 739.212C773.482 742.397 763.885 746.72 761.31 742.599C758.734 738.478 755.643 737.448 755.643 737.448L751.523 742.084C751.523 742.084 752.223 747.212 749.977 747.75C745.97 748.711 738.129 750.326 738.129 750.326C738.129 750.326 738.223 753.212 762.223 748.212C768.178 746.972 779.223 745.212 786.223 743.212C792.662 741.372 815.911 735.388 819.002 732.812C822.092 730.236 822.607 727.661 822.607 727.661" fill="black"/><path id="Fill 18" fill-rule="evenodd" clip-rule="evenodd" d="M746.888 725.086C746.888 725.086 746.508 745.829 752.364 745.502C758.221 745.175 760.281 745.175 761.311 743.629C762.342 742.084 759.766 736.933 759.766 731.267C759.766 725.601 759.766 723.025 755.13 723.54C750.494 724.056 747.403 724.056 746.888 725.086" fill="#F9C818"/></g></g></g><g id="Expression" transform="translate(1055 738) scale(1 1)"><g id="Expression/Wink"><g id="Group 16"><path id="Fill 1" fill-rule="evenodd" clip-rule="evenodd" d="M65.1191 151.577C65.1191 151.577 81.2691 176.577 103.212 162.117L65.1191 151.577Z" fill="black"/><path id="Fill 5" fill-rule="evenodd" clip-rule="evenodd" d="M152.748 87.3186C152.748 90.6316 150.062 93.3186 146.748 93.3186C143.434 93.3186 140.748 90.6316 140.748 87.3186C140.748 84.0056 143.434 81.3186 146.748 81.3186C150.062 81.3186 152.748 84.0056 152.748 87.3186" fill="black"/><g id="Group 9"><path id="Fill 7" fill-rule="evenodd" clip-rule="evenodd" d="M25 52.4905C25 52.4905 40.26 43.2805 51.897 41.1855C59.082 39.8925 98.756 45.4915 97.492 53.5815C96.26 61.4635 92.346 60.4025 76.686 57.7115C61.026 55.0195 53.873 53.2245 44.82 54.2035C35.766 55.1815 25.245 57.1395 25 52.4905" fill="black"/></g><path id="Fill 10" fill-rule="evenodd" clip-rule="evenodd" d="M188.067 67.7464C188.067 67.7464 185.452 59.7454 181.149 55.9004C176.846 52.0574 144.462 43.7574 138.985 48.8904C130.283 57.0464 136.536 59.9694 154.005 61.7814C168.054 63.2394 173.604 63.7254 180.115 66.5534C189.011 70.4174 187.87 69.2364 188.067 67.7464" fill="black"/></g><g id="Group 124"><path id="Stroke 114" d="M123.94 52.5156L127.749 53.7376L127.377 54.9309C127.077 55.9042 126.744 57.0178 126.384 58.2528C125.356 61.7837 124.327 65.576 123.368 69.4789C122.301 73.8175 121.387 78.0249 120.672 81.9976L120.465 83.1739C118.727 93.2775 118.482 100.993 120.034 105.142L120.126 105.377C129.004 127.34 116.948 138.478 91.6439 130.679L90.873 130.436L92.0921 126.627C114.886 133.921 124.027 125.703 116.417 106.876C114.322 101.694 114.645 92.8992 116.735 81.2889C117.466 77.2272 118.398 72.9393 119.483 68.5239C120.349 65.0027 121.269 61.5727 122.196 58.338L122.543 57.1344C122.752 56.4175 122.952 55.7405 123.143 55.1067L123.631 53.5023L123.94 52.5156Z" fill="black"/><path id="Stroke 122" d="M25.1855 205.534L27.1425 202.045L27.8567 202.435L28.5118 202.783C29.5036 203.305 30.6327 203.881 31.8877 204.498L32.4332 204.765C36.6543 206.821 41.3224 208.878 46.301 210.798C57.7489 215.212 69.0606 218.225 79.5848 219.202C84.3541 219.645 88.8741 219.656 93.1069 219.202L93.9496 219.105L94.4385 223.075C89.6635 223.663 84.5751 223.683 79.2149 223.185C68.2771 222.169 56.6257 219.066 44.8619 214.53C39.7712 212.567 35.0001 210.465 30.6815 208.361L29.0484 207.554C28.354 207.206 27.7021 206.873 27.0948 206.556L25.9633 205.958L25.1855 205.534Z" fill="black"/></g><path id="Fill 12" fill-rule="evenodd" clip-rule="evenodd" d="M78.6366 79.1288C77.9116 79.1288 77.1856 78.8679 76.6096 78.3389C76.5716 78.3049 71.6246 73.9129 64.4836 74.1789C57.0946 74.4519 52.1896 78.0668 52.1406 78.1028C50.8186 79.0928 48.9396 78.8329 47.9446 77.5169C46.9476 76.1999 47.1966 74.3309 48.5086 73.3279C48.7646 73.1319 54.8866 68.5299 64.2616 68.1829C73.9106 67.8359 80.3946 73.6699 80.6656 73.9189C81.8866 75.0389 81.9686 76.9369 80.8476 78.1569C80.2566 78.8019 79.4476 79.1288 78.6366 79.1288" fill="black"/></g></g><g id="Hairstyle" transform="translate(564 411) scale(1 1)"><g id="Hairstyle/Curly Bun"><g id="Group 11"><g id="Group 3"><mask id="mask0_406_1399581201d2b-cc92-4a51-9e08-a31e0e4a3cbc" style="mask-type:luminance" maskUnits="userSpaceOnUse" x="483" y="49" width="216" height="153" fill="#ffffff"><path id="Clip 2" fill-rule="evenodd" clip-rule="evenodd" d="M483.328 49H698.919V201.584H483.328V49Z" fill="#ffffff"/></mask><g mask="url(#mask0_406_1399581201d2b-cc92-4a51-9e08-a31e0e4a3cbc)"><path id="Fill 1" fill-rule="evenodd" clip-rule="evenodd" d="M660.964 199.644C660.964 199.644 656.9 190.215 679.049 189.185C701.199 188.155 709.956 142.826 678.019 122.736C646.082 102.647 680.595 81.5284 631.659 56.2884C582.724 31.0474 558.514 79.4674 558.514 79.4674C558.514 79.4674 507.004 59.3784 488.975 100.587C470.946 141.795 501.852 158.279 501.852 158.279C501.852 158.279 481.248 172.187 497.732 189.185C514.215 206.184 558.697 187.293 566.075 196.481C573.452 205.669 660.964 199.644 660.964 199.644" fill="#9b5120"/></g></g><path id="Fill 4" fill-rule="evenodd" clip-rule="evenodd" d="M512.848 209.085C512.848 209.085 528.438 180.366 565.525 177.683C602.613 175 619.251 188.172 623.552 209.085C627.853 229.998 512.848 209.085 512.848 209.085" fill="white"/><g id="Group 8"><mask id="mask1_406_1399581201d2b-cc92-4a51-9e08-a31e0e4a3cbc" style="mask-type:luminance" maskUnits="userSpaceOnUse" x="434" y="197" width="251" height="222" fill="#ffffff"><path id="Clip 7" fill-rule="evenodd" clip-rule="evenodd" d="M434 197.303H684.515V418.595H434V197.303Z" fill="#ffffff"/></mask><g mask="url(#mask1_406_1399581201d2b-cc92-4a51-9e08-a31e0e4a3cbc)"><path id="Fill 6" fill-rule="evenodd" clip-rule="evenodd" d="M456.323 396.258C456.323 396.258 454.778 389.562 464.565 380.29C474.352 371.018 470.746 328.264 493.926 320.537C517.106 312.811 555.739 273.148 573.767 273.148C591.796 273.148 622.703 289.631 635.065 288.601C647.428 287.571 663.911 312.296 664.941 325.173C665.971 338.051 682.856 361.09 672.353 418.595C672.353 418.595 684.515 399.349 684.515 376.684C684.515 354.019 681.425 348.868 682.97 316.417C684.515 283.965 680.91 250.483 657.215 235.03C633.52 219.576 618.582 191.246 582.009 198.457C545.437 205.669 517.106 196.912 495.471 220.092C479.558 237.142 455.808 248.938 450.657 283.965C445.858 316.597 419.362 331.686 445.054 366.805C445.054 366.805 456.323 384.926 456.323 396.258Z" fill="#9b5120"/></g></g><path id="Fill 9" fill-rule="evenodd" clip-rule="evenodd" d="M515.502 206.745C515.502 206.745 522.323 178.486 567.323 175.486C612.323 172.486 621.086 191.87 623.205 207.678C623.205 207.678 604.716 195.311 581.02 200.399C557.323 205.486 530.681 202.004 515.502 206.745" fill="#56ACF6"/></g></g></g><g id="Accessories" transform="translate(1008 771) scale(234 78)"><g id="Accessories/None" stroke="none" stroke-width="1" fill="none" fill-rule="evenodd" fill-opacity="0"/></g><g id="Facial Hair" transform="translate(1018 772) scale(212 211)"><g id="Facial Hair/None" stroke="none" stroke-width="1" fill="none" fill-rule="evenodd" fill-opacity="0"/></g></g></g><path id="Heart 1" fill-rule="evenodd" clip-rule="evenodd" d="M1371.29 1006.02C1371.29 1006.02 1310.68 989.292 1300.83 1032.26C1290.98 1075.23 1408.38 1135.39 1408.38 1135.39C1408.38 1135.39 1476.8 1040.65 1450.4 996.057C1423.99 951.461 1371.29 1006.02 1371.29 1006.02Z" fill="#E93737"/><path id="Heart 2" fill-rule="evenodd" clip-rule="evenodd" d="M1388.74 1200.81C1388.74 1200.81 1366.47 1167.26 1343.67 1183.87C1320.87 1200.48 1352.36 1278.87 1352.36 1278.87C1352.36 1278.87 1425.21 1261.87 1431.17 1229.24C1437.13 1196.6 1388.74 1200.81 1388.74 1200.81Z" fill="#E93737"/></g></svg>