<svg viewBox="346.7625000000003 569.102564102564 3319.0125 2721.794871794873" fill="none" xmlns="http://www.w3.org/2000/svg" xmlns:xlink="http://www.w3.org/1999/xlink" overflow="visible" width="3319.0125px" height="2721.794871794873px"><g id="Master/Spot Illustration/Mailing List"><ellipse id="Floor" opacity="0.5" cx="1982" cy="3206" rx="1602" ry="58" fill="#D5ECFF"/><g id="Opened Mail"><path id="Rectangle" fill-rule="evenodd" clip-rule="evenodd" d="M1801.39 1149.17L3015.34 1910.64L1828.09 2469.03L614.141 1883.92L1801.39 1149.17Z" fill="#DDB0C8"/><g id="Paper"><rect id="Rectangle_2" x="838" y="1594" width="1956" height="1504" fill="#E6D3FF"/><path id="Rectangle Copy 38" d="M838 1594H2794V2998C2794 3053.23 2749.23 3098 2694 3098H838V1594Z" fill="#FCEBEC"/><g id="Writing"><rect id="Rectangle Copy 11" x="1006.66" y="1767.83" width="1623.71" height="23.9784" fill="#DDB0C8"/><rect id="Rectangle Copy 42" x="1006.66" y="2299.71" width="1623.71" height="23.9784" fill="#DDB0C8"/><rect id="Rectangle Copy 39" x="1006.66" y="1900.8" width="1623.71" height="23.9784" fill="#DDB0C8"/><rect id="Rectangle Copy 43" x="1006.66" y="2432.68" width="1623.71" height="23.9784" fill="#DDB0C8"/><rect id="Rectangle Copy 40" x="1006.66" y="2033.77" width="1623.71" height="23.9784" fill="#DDB0C8"/><rect id="Rectangle Copy 44" x="1006.66" y="2565.66" width="1623.71" height="23.9784" fill="#DDB0C8"/><rect id="Rectangle Copy 41" x="1006.66" y="2166.74" width="1623.71" height="23.9784" fill="#DDB0C8"/><rect id="Rectangle Copy 45" x="1006.66" y="2698.62" width="1623.71" height="23.9784" fill="#DDB0C8"/><rect id="Rectangle Copy 46" x="1868.3" y="2892.63" width="762.07" height="23.9784" fill="#DDB0C8"/></g></g><path id="Combined Shape" fill-rule="evenodd" clip-rule="evenodd" d="M614.944 1884H614V3196H3018V1884H2971.94L3015.34 1911.21L1828.09 2469.35L614.142 1884.5L614.944 1884Z" fill="#EECCDC"/><path id="Path 5" fill-rule="evenodd" clip-rule="evenodd" d="M614 3196L1827 2469.35L614 1884V3196Z" fill="#EECCDC"/></g><g id="Master/Character/Standing" transform="translate(1671 556) scale(1 1)"><g id="Master/Character/Standing"><g id="Lower Body/Standing" transform="translate(503 1151) scale(1 1)"><g id="Lower Body/Standing/Yoga Pose"><path id="Rectangle (Stroke)" fill-rule="evenodd" clip-rule="evenodd" d="M422 0L424 193H874V0H422ZM423.01 1L424.99 192H873V1H423.01Z" fill="#979797"/><g id="Group 109"><path id="Fill 96" fill-rule="evenodd" clip-rule="evenodd" d="M851.705 832.457C851.705 832.457 806.525 844.92 751.998 848.036C697.47 851.152 689.68 868.289 705.26 975.786C720.839 1083.28 719.281 1257.77 750.44 1229.73C781.598 1201.69 766.019 1050.57 837.684 971.112C909.348 891.658 900.001 921.259 900.001 921.259L851.705 832.457Z" fill="#f6cbc3"/><path id="Fill 98" fill-rule="evenodd" clip-rule="evenodd" d="M551.039 1350.77C551.039 1350.77 561.898 1396.18 531.295 1411.97C500.692 1427.77 446.397 1465.28 369.395 1492.92C292.394 1520.56 275.612 1547.22 331.882 1554.13C388.152 1561.04 449.358 1555.11 502.667 1540.31C555.975 1525.5 649.758 1570.91 706.028 1524.51C762.298 1478.11 683.323 1404.07 686.284 1386.3C689.246 1368.54 551.039 1350.77 551.039 1350.77" fill="#f6cbc3"/><g id="Group 102"><mask id="mask0_406_14651319788ac-01ef-43fa-b163-aa829a1ffa05" style="mask-type:luminance" maskUnits="userSpaceOnUse" x="422" y="99" width="961" height="1290" fill="#ffffff"><path id="Clip 101" fill-rule="evenodd" clip-rule="evenodd" d="M422.799 99.5342H1382.91V1388.69H422.799V99.5342Z" fill="#ffffff"/></mask><g mask="url(#mask0_406_14651319788ac-01ef-43fa-b163-aa829a1ffa05)"><path id="Fill 100" fill-rule="evenodd" clip-rule="evenodd" d="M422.819 123.78C422.819 123.78 421.02 407.85 451.197 743.569C481.374 1079.29 519.095 1347.11 519.095 1347.11C519.095 1347.11 654.891 1415.01 752.966 1377.29C752.966 1377.29 663.414 343.901 727.54 355.217C791.666 366.534 1096.02 486.231 1087.83 494.42C974.773 607.473 832.181 815.239 832.181 815.239L877.446 1022.71C877.446 1022.71 1382.91 524.786 1382.91 426.711C1382.91 328.635 873.409 99.5342 873.409 99.5342C873.409 99.5342 694.789 167.746 422.819 123.78" fill="#FC7750"/></g></g><path id="Stroke 103" d="M1211.86 423.16L1212.83 427.041C1189.31 432.919 1164.72 444.156 1140.04 459.191C1126.85 467.231 1114.47 475.847 1103.27 484.462L1101.72 485.656C1098.93 487.823 1096.38 489.869 1094.07 491.764L1092.84 492.783C1091.92 493.55 1091.1 494.242 1090.39 494.851L1089.15 495.917L1086.5 492.922L1087.28 492.247L1088.1 491.54C1088.54 491.172 1089 490.777 1089.5 490.357L1090.28 489.707C1093.34 487.167 1096.87 484.337 1100.83 481.292C1112.14 472.593 1124.64 463.895 1137.96 455.776C1162.54 440.796 1187.08 429.524 1210.68 423.459L1211.86 423.16Z" fill="black"/><path id="Stroke 105" d="M890.706 106.019L891.347 109.967L890.864 110.057L890.307 110.171C890.108 110.213 889.895 110.259 889.67 110.31L889.322 110.39C887.6 110.79 885.576 111.336 883.269 112.051C876.645 114.102 869.096 117.089 860.762 121.187C837.166 132.789 812.142 150.784 786.766 176.533L785.849 177.467L782.99 174.669C808.998 148.095 834.711 129.538 858.997 117.597C867.521 113.406 875.264 110.343 882.086 108.23C884.485 107.487 886.602 106.915 888.417 106.494L889.182 106.321C889.572 106.235 889.903 106.167 890.174 106.115L890.706 106.019Z" fill="black"/><path id="Stroke 107" d="M712.465 256.723C712.465 283.567 715.645 307.66 720.941 328.636L721.449 330.612C723.067 336.798 724.773 342.297 726.482 347.08L726.752 347.829C727.442 349.729 728.081 351.372 728.653 352.752L729.085 353.771L729.354 354.375L725.726 356.06L725.517 355.595L725.199 354.858L724.959 354.284C724.364 352.85 723.703 351.151 722.992 349.194C720.968 343.619 718.948 337.078 717.063 329.615C711.784 308.708 708.581 284.779 708.468 258.176L708.465 256.723H712.465Z" fill="black"/></g></g></g><g id="Upper Body" transform="translate(376 277) scale(1 1)"><g id="Upper Body/With Tablet"><path id="Fill 1" fill-rule="evenodd" clip-rule="evenodd" d="M571.998 659L536 996.203C536 996.203 886.321 1080.45 1014.04 970.265L1027 673.411L571.998 659Z" fill="#D60000"/><path id="Neck" fill-rule="evenodd" clip-rule="evenodd" d="M724.954 220C724.954 220 721.263 301.153 673.924 329.8C630.973 355.791 721.969 506.61 819.858 497.614C873.442 492.688 886 346.158 886 346.158C886 346.158 842.734 337.797 858.716 271.819L724.954 220Z" fill="#f6cbc3"/><path id="Head" fill-rule="evenodd" clip-rule="evenodd" d="M803.337 302.516C739.877 294.841 694.078 253.116 687.665 183.898C669.216 186.835 664.865 138.765 670.003 123.323C675.146 107.859 691.933 116.901 691.933 116.901C691.933 116.901 693.327 113.235 694.303 109.226C722.025 -4.48555 799.67 0.0243587 799.67 0.0243587C942.344 7.45716 908.914 153.12 900.763 191.763C892.611 230.41 864.684 309.927 803.337 302.516Z" fill="#f6cbc3"/><g id="Group 32"><path id="Fill 1_2" fill-rule="evenodd" clip-rule="evenodd" d="M1014.32 767.127C993.27 758.554 966.142 731.422 933.689 686.486C909.623 653.163 891.426 621.916 891.246 621.605L894.705 619.597C895.423 620.834 967.127 743.586 1015.83 763.422L1014.32 767.127Z" fill="#864A56"/><g id="Group 5"><mask id="mask0_406_32696172da7ec-15ef-4111-972f-3851589ebe13" style="mask-type:luminance" maskUnits="userSpaceOnUse" x="446" y="325" width="604" height="618" fill="#ffffff"><path id="Clip 4" fill-rule="evenodd" clip-rule="evenodd" d="M446 325.601H1049.92V942.318H446V325.601Z" fill="#ffffff"/></mask><g mask="url(#mask0_406_32696172da7ec-15ef-4111-972f-3851589ebe13)"><path id="Fill 3" fill-rule="evenodd" clip-rule="evenodd" d="M677.976 325.601C677.976 325.601 500.268 342.427 463.622 527.014C426.976 711.601 422.587 929.328 704.976 940.601C987.366 951.873 1011.38 904.363 1011.18 893.982C1010.98 883.601 1015.98 712.601 1038.98 582.601C1061.98 452.601 1063.98 382.601 887.976 339.601C887.976 339.601 809.976 443.601 677.976 325.601" fill="#D60000"/></g></g><path id="Fill 6" fill-rule="evenodd" clip-rule="evenodd" d="M812.977 401.601L833.977 305.601C833.977 305.601 832.977 289.601 857.977 290.601C882.977 291.601 1059.98 288.601 1059.98 288.601C1059.98 288.601 1073.98 286.601 1077.98 299.601C1081.98 312.601 1029.98 530.601 1029.98 530.601C1029.98 530.601 1030.98 545.601 1013.98 545.601C996.977 545.601 787.977 553.601 787.977 553.601L812.977 401.601" fill="#204EB2"/><g id="Group 10"><mask id="mask1_406_32696172da7ec-15ef-4111-972f-3851589ebe13" style="mask-type:luminance" maskUnits="userSpaceOnUse" x="787" y="288" width="292" height="267" fill="#ffffff"><path id="Clip 9" fill-rule="evenodd" clip-rule="evenodd" d="M787.383 288H1078.68V554.124H787.383V288Z" fill="#ffffff"/></mask><g mask="url(#mask1_406_32696172da7ec-15ef-4111-972f-3851589ebe13)"><path id="Fill 8" fill-rule="evenodd" clip-rule="evenodd" d="M813.467 401.694L788.569 553.077C801.109 552.598 997.615 545.1 1013.98 545.1C1019.2 545.1 1023.21 543.657 1025.87 540.809C1029.82 536.604 1029.48 530.692 1029.48 530.633L1029.47 530.558L1029.49 530.484C1030.01 528.305 1081.41 312.469 1077.5 299.748C1073.67 287.316 1060.6 289.016 1060.05 289.095C1058.21 289.131 882.682 292.091 857.956 291.1C848.798 290.733 842.151 292.597 838.187 296.638C834.233 300.67 834.472 305.521 834.475 305.57L834.479 305.639L834.464 305.707L813.467 401.694ZM787.383 554.124L812.488 401.494L833.473 305.558C833.447 304.881 833.42 300.083 837.456 295.955C841.624 291.692 848.553 289.734 857.995 290.1C882.697 291.09 1058.2 288.13 1059.97 288.1C1060.05 288.084 1074.38 286.2 1078.45 299.453C1082.44 312.402 1032.84 520.762 1030.48 530.645C1030.52 531.418 1030.64 537.176 1026.61 541.485C1023.75 544.548 1019.49 546.1 1013.98 546.1C997.18 546.1 790.085 554.02 787.995 554.1L787.383 554.124Z" fill="black"/></g></g><path id="Fill 11" fill-rule="evenodd" clip-rule="evenodd" d="M819.977 408.601L840.977 312.601C840.977 312.601 839.977 296.601 864.977 297.601C889.977 298.601 1066.98 295.601 1066.98 295.601C1066.98 295.601 1080.98 293.601 1084.98 306.601C1088.98 319.601 1036.98 537.601 1036.98 537.601C1036.98 537.601 1037.98 552.601 1020.98 552.601C1003.98 552.601 794.977 560.601 794.977 560.601L819.977 408.601" fill="#56ACF6"/><path id="Fill 13" fill-rule="evenodd" clip-rule="evenodd" d="M711.178 559.129C711.178 559.129 769.334 492.851 785.196 464.445C801.057 436.04 801.057 419.47 799.735 406.451C798.413 393.432 798.413 378.046 808.987 375.679C819.561 373.312 820.883 379.23 822.204 393.432C823.527 407.635 822.204 421.837 845.996 413.553C869.787 405.268 927.945 385.148 934.553 401.717C941.161 418.287 926.622 420.653 926.622 420.653C926.622 420.653 937.197 421.837 939.84 430.122C942.484 438.407 939.84 444.325 931.909 447.875C923.979 451.426 920.014 452.609 920.014 452.609C920.014 452.609 935.874 450.242 939.84 462.078C943.805 473.913 937.197 479.831 930.588 482.198C930.588 482.198 939.088 483.566 941.161 492.851C942.484 498.769 934.553 502.318 925.301 505.869C912.793 510.67 875.074 511.787 843.353 531.907C811.63 552.028 734.969 683.402 696.639 723.643C658.308 763.884 619.977 659.732 619.977 659.732C619.977 659.732 667.56 599.37 711.178 559.129" fill="#f6cbc3"/><path id="Fill 15" fill-rule="evenodd" clip-rule="evenodd" d="M860.924 439.855L860.145 436.959L926.232 419.205L927.011 422.101L860.924 439.855Z" fill="black"/><path id="Fill 17" fill-rule="evenodd" clip-rule="evenodd" d="M860.924 470.628L860.145 467.732L926.232 449.978L927.011 452.874L860.924 470.628Z" fill="black"/><path id="Fill 19" fill-rule="evenodd" clip-rule="evenodd" d="M868.855 501.4L868.078 498.504L934.165 480.751L934.942 483.647L868.855 501.4Z" fill="black"/><g id="Group 23"><mask id="mask2_406_32696172da7ec-15ef-4111-972f-3851589ebe13" style="mask-type:luminance" maskUnits="userSpaceOnUse" x="986" y="372" width="129" height="396" fill="#ffffff"><path id="Clip 22" fill-rule="evenodd" clip-rule="evenodd" d="M986.301 372.626H1114.97V767.601H986.301V372.626Z" fill="#ffffff"/></mask><g mask="url(#mask2_406_32696172da7ec-15ef-4111-972f-3851589ebe13)"><path id="Fill 21" fill-rule="evenodd" clip-rule="evenodd" d="M1019.77 711.174C1019.77 711.174 1029.02 663.832 1032.99 604.654C1036.95 545.478 1035.63 519.44 1030.34 514.705C1025.06 509.971 988.047 511.154 988.047 492.218C988.047 473.28 1014.48 479.198 1014.48 479.198C1014.48 479.198 986.726 474.464 989.37 460.262C992.013 446.059 1007.87 448.426 1007.87 448.426C1007.87 448.426 982.76 443.692 986.726 428.306C990.691 412.92 1014.48 418.837 1014.48 418.837C1014.48 418.837 992.013 415.287 1001.26 399.901C1010.52 384.515 1026.38 393.983 1044.88 398.717C1063.39 403.451 1064.71 404.635 1066.03 397.533C1067.35 390.432 1064.71 371.495 1079.25 372.679C1093.79 373.862 1096.43 378.597 1096.43 404.635C1096.43 430.673 1100.4 454.344 1104.36 478.015C1108.33 501.686 1109.65 528.907 1107 572.699C1104.36 616.49 1141.37 745.497 1075.28 764.435C1009.2 783.371 1019.77 711.174 1019.77 711.174" fill="#f6cbc3"/></g></g><path id="Fill 24" fill-rule="evenodd" clip-rule="evenodd" d="M1047.72 487.321L1008.85 478.972L1009.48 476.039L1048.35 484.387L1047.72 487.321Z" fill="black"/><path id="Fill 26" fill-rule="evenodd" clip-rule="evenodd" d="M1046.79 458.242L1007.91 449.892L1008.55 446.959L1047.42 455.308L1046.79 458.242Z" fill="black"/><path id="Fill 28" fill-rule="evenodd" clip-rule="evenodd" d="M1048.49 426.963L1009.62 418.614L1010.25 415.681L1049.12 424.029L1048.49 426.963Z" fill="black"/><path id="Fill 30" fill-rule="evenodd" clip-rule="evenodd" d="M1084.27 407.876L1065.11 403.733L1065.74 400.802L1084.91 404.944L1084.27 407.876Z" fill="black"/></g></g></g><g id="Expression" transform="translate(1098 360) scale(1 1)"><g id="Expression/Holding Laughter"><g id="Group 16"><path id="Fill 1" fill-rule="evenodd" clip-rule="evenodd" d="M66.7148 148.384C66.7148 148.384 78.2783 175.809 102.399 165.379L66.7148 148.384Z" fill="black"/><g id="Group 9"><path id="Fill 7" fill-rule="evenodd" clip-rule="evenodd" d="M27.6727 64.1793C27.6727 64.1793 39.1028 50.5029 49.4237 44.7334C55.7963 41.1716 95.1317 33.549 96.5704 41.6098C97.9716 49.4634 93.9254 49.7345 78.2425 52.2885C62.5593 54.8416 55.2116 55.4732 46.9705 59.3462C38.7282 63.2186 29.4179 68.4952 27.6727 64.1793" fill="black"/></g><path id="Fill 10" fill-rule="evenodd" clip-rule="evenodd" d="M179.399 73.8038C179.399 73.8038 180.847 65.5116 178.853 60.0966C176.857 54.6832 152.161 32.1514 144.915 34.1123C133.403 37.2283 137.551 42.7447 152.125 52.5458C163.845 60.4288 168.517 63.4635 172.938 69.0172C178.979 76.6053 178.526 75.0269 179.399 73.8038" fill="black"/></g><g id="Group 124"><path id="Stroke 114" d="M123.94 52.5157L127.749 53.7377L127.377 54.931C127.077 55.9043 126.744 57.0179 126.384 58.2529C125.356 61.7838 124.327 65.5761 123.368 69.479C122.301 73.8176 121.387 78.025 120.672 81.9977L120.465 83.1741C118.727 93.2777 118.482 100.993 120.034 105.142L120.126 105.377C129.004 127.34 116.948 138.478 91.6439 130.679L90.873 130.437L92.0921 126.627C114.886 133.921 124.027 125.703 116.417 106.876C114.322 101.694 114.645 92.8994 116.735 81.289C117.466 77.2273 118.398 72.9394 119.483 68.524C120.349 65.0028 121.269 61.5728 122.196 58.3382L122.543 57.1345C122.752 56.4176 122.952 55.7406 123.143 55.1069L123.631 53.5025L123.94 52.5157Z" fill="black"/><path id="Stroke 122" d="M25.1855 205.534L27.1425 202.046L27.8567 202.435L28.5118 202.783C29.5036 203.305 30.6327 203.881 31.8877 204.498L32.4332 204.765C36.6543 206.821 41.3224 208.878 46.301 210.798C57.7489 215.212 69.0606 218.225 79.5848 219.202C84.3541 219.645 88.8741 219.656 93.1069 219.202L93.9496 219.105L94.4385 223.075C89.6635 223.663 84.5751 223.683 79.2149 223.185C68.2771 222.169 56.6257 219.066 44.8619 214.53C39.7712 212.567 35.0001 210.465 30.6815 208.361L29.0484 207.554C28.354 207.206 27.7021 206.873 27.0948 206.556L25.9633 205.958L25.1855 205.534Z" fill="black"/></g><path id="Fill 12" fill-rule="evenodd" clip-rule="evenodd" d="M78.6366 79.1289C77.9116 79.1289 77.1856 78.8679 76.6096 78.3389C76.5716 78.3049 71.6246 73.9129 64.4836 74.1789C57.0946 74.4519 52.1896 78.0669 52.1406 78.1029C50.8186 79.0929 48.9396 78.8329 47.9446 77.5169C46.9476 76.1999 47.1966 74.3309 48.5086 73.3279C48.7646 73.1319 54.8866 68.5299 64.2616 68.1829C73.9106 67.8359 80.3946 73.6699 80.6656 73.9189C81.8866 75.0389 81.9686 76.9369 80.8476 78.1569C80.2566 78.8019 79.4476 79.1289 78.6366 79.1289" fill="black"/><path id="Fill 14" fill-rule="evenodd" clip-rule="evenodd" d="M162.754 88.2724C162.029 88.2724 161.303 88.0114 160.727 87.4824C160.689 87.4484 155.742 83.0504 148.6 83.3224C141.231 83.5944 136.317 87.2014 136.27 87.2374C134.953 88.2444 133.07 87.9924 132.064 86.6764C131.058 85.3604 131.309 83.4774 132.625 82.4714C132.881 82.2754 139.004 77.6724 148.379 77.3264C158.024 76.9814 164.512 82.8134 164.783 83.0624C166.004 84.1824 166.086 86.0804 164.965 87.3004C164.374 87.9454 163.565 88.2724 162.754 88.2724" fill="black"/></g></g><g id="Hairstyle" transform="translate(607 33) scale(1 1)"><g id="Hairstyle/Pompadour"><g id="Hairstyle"><mask id="mask0_406_14027d5bc96ea-c518-483d-8855-909e6c912f29" style="mask-type:luminance" maskUnits="userSpaceOnUse" x="440" y="176" width="259" height="219" fill="#ffffff"><path id="Clip 126" fill-rule="evenodd" clip-rule="evenodd" d="M440.893 176.106H698.492V394.732H440.893V176.106Z" fill="#ffffff"/></mask><g mask="url(#mask0_406_14027d5bc96ea-c518-483d-8855-909e6c912f29)"><path id="Fill 125" fill-rule="evenodd" clip-rule="evenodd" d="M446.921 357.42C446.921 357.42 427.965 264.187 457.278 261.395L486.592 258.603C486.592 258.603 464.378 201.157 515.948 183.967C567.518 166.776 616.275 177.679 639.717 217.667C663.158 257.654 687.225 249.708 696.582 289.473C705.938 329.237 677.869 394.732 677.869 394.732C677.869 394.732 673.937 311.94 664.543 302.546C655.149 293.151 616.428 327.531 567.148 316.971C517.867 306.411 487.174 263.998 478.262 323.411C469.35 382.823 461.015 364.881 461.015 364.881C461.015 364.881 457.961 356.654 446.698 359.47L446.921 357.42Z" fill="#711515"/></g></g></g></g><g id="Accessories" transform="translate(1051 393) scale(1 1)"><g id="Accessories/Glasses"><g id="Group 136"><path id="Stroke 128" fill-rule="evenodd" clip-rule="evenodd" d="M68.0361 34.6775C68.0361 13.583 85.138 -3.51849 106.233 -3.51849C127.328 -3.51849 144.429 13.5829 144.429 34.6775C144.429 55.7728 127.328 72.8735 106.233 72.8735C85.1377 72.8735 68.0361 55.7726 68.0361 34.6775ZM135.429 34.6775C135.429 18.5534 122.357 5.48151 106.233 5.48151C90.1085 5.48151 77.0361 18.5537 77.0361 34.6775C77.0361 50.802 90.1082 63.8735 106.233 63.8735C122.358 63.8735 135.429 50.8022 135.429 34.6775Z" fill="black"/><path id="Stroke 130" fill-rule="evenodd" clip-rule="evenodd" d="M161.957 43.7849C161.957 22.6898 179.058 5.58893 200.154 5.58893C221.249 5.58893 238.35 22.6896 238.35 43.7849C238.35 64.8802 221.249 81.9809 200.154 81.9809C179.058 81.9809 161.957 64.8801 161.957 43.7849ZM229.35 43.7849C229.35 27.6602 216.278 14.5889 200.154 14.5889C184.029 14.5889 170.957 27.6604 170.957 43.7849C170.957 59.9094 184.029 72.9809 200.154 72.9809C216.278 72.9809 229.35 59.9096 229.35 43.7849Z" fill="black"/><path id="Stroke 132" d="M17.3582 7.30992C18.2541 5.07026 20.7475 3.94707 23.0032 4.72688L23.2076 4.80303L73.2076 24.803C75.5151 25.726 76.6375 28.3449 75.7145 30.6524C74.8186 32.8921 72.3252 34.0153 70.0695 33.2355L69.8651 33.1593L19.8651 13.1593C17.5576 12.2363 16.4352 9.61745 17.3582 7.30992Z" fill="black"/><path id="Stroke 134" d="M135.843 36.5655C136.11 34.166 138.218 32.4182 140.602 32.5723L140.814 32.5908L167.034 35.5088C169.504 35.7837 171.283 38.0089 171.008 40.4789C170.741 42.8784 168.634 44.6262 166.249 44.4722L166.038 44.4536L139.818 41.5356C137.348 41.2607 135.569 39.0355 135.843 36.5655Z" fill="black"/></g></g></g><g id="Facial Hair" transform="translate(1061 394) scale(212 211)"><g id="Facial Hair/None" stroke="none" stroke-width="1" fill="none" fill-rule="evenodd" fill-opacity="0"/></g></g></g></g></svg>