<svg viewBox="346.7625000000003 371.1538461538462 3319.0125 2919.7435897435903" fill="none" xmlns="http://www.w3.org/2000/svg" xmlns:xlink="http://www.w3.org/1999/xlink" overflow="visible" width="3319.0125px" height="2919.7435897435903px"><g id="Master/Spot Illustration/Imagination"><g id="Blobs" opacity="0.5" transform="matrix(-1 0 0 1 2733 630) scale(1 1)"><g id="Blobs/3"><path id="Path" fill-rule="evenodd" clip-rule="evenodd" d="M1057.02 649.441C1119.38 723.576 1131.99 841.107 1117.65 943.63C1103.14 1046.15 1061.69 1133.49 999.162 1197.68C936.637 1261.87 853.212 1302.91 772.896 1299.84C692.408 1296.58 615.029 1249.21 539.376 1185.02C463.724 1120.83 389.627 1039.82 383.409 952.49C377.363 864.974 439.198 771.311 515.023 697.176C590.675 623.042 680.145 568.435 781.187 556.501C882.229 544.567 994.499 575.306 1057.02 649.441Z" fill="#FCEBEC"/><path id="Path_2" fill-rule="evenodd" clip-rule="evenodd" d="M1883.82 908.251C1999.1 1021.12 2080.44 1238.83 2093.89 1476.61C2107.65 1713.94 2053.83 1971.8 1938.86 2132.4C1823.58 2293.01 1646.83 2356.36 1476.2 2348.33C1305.27 2339.85 1140.14 2259.55 992.45 2098.95C844.755 1938.34 714.184 1697.44 716.019 1459.21C717.854 1220.98 851.788 985.43 999.789 872.562C1147.48 759.247 1308.94 769.062 1464.28 777.984C1619.62 786.907 1768.84 795.383 1883.82 908.251Z" fill="#FFF5F3"/></g></g><ellipse id="Floor" opacity="0.5" cx="1982" cy="3206" rx="1602" ry="58" fill="#D5ECFF"/><g id="Paper Plane"><path id="Triangle" fill-rule="evenodd" clip-rule="evenodd" d="M350.986 1670.76L3301.76 1584.97L3018.43 2948.37L350.986 1670.76Z" fill="#DDB0C8"/><path id="Triangle_2" fill-rule="evenodd" clip-rule="evenodd" d="M350.986 1670.76L3575.86 1407.87L3325.88 1978.86L3661.16 2846.57L350.986 1670.76Z" fill="#EECCDC"/><path id="Path 4" fill-rule="evenodd" clip-rule="evenodd" d="M351.684 1670.39L3326.12 1978.49L3661.36 2846.12L351.684 1670.39Z" fill="#FAEFF4"/></g><g id="Master/Character/Sitting On Floor" transform="matrix(-0.992546 -0.121869 -0.121869 0.992546 3641.33 -382.32) scale(1 1)"><g id="Master/Character/Sitting On Floor"><g id="Upper Body" transform="translate(911 1329) scale(1 1)"><g id="Upper Body/Coffee and Phone"><path id="Neck" fill-rule="evenodd" clip-rule="evenodd" d="M724.954 220C724.954 220 721.263 301.153 673.924 329.8C630.973 355.791 721.969 506.61 819.858 497.614C873.442 492.688 886 346.158 886 346.158C886 346.158 842.734 337.797 858.716 271.819L724.954 220Z" fill="#c26e5e"/><path id="Head" fill-rule="evenodd" clip-rule="evenodd" d="M803.337 302.516C739.877 294.841 694.078 253.116 687.665 183.898C669.216 186.835 664.865 138.765 670.003 123.323C675.146 107.859 691.933 116.901 691.933 116.901C691.933 116.901 693.327 113.235 694.303 109.226C722.025 -4.48555 799.67 0.0243587 799.67 0.0243587C942.344 7.45716 908.914 153.12 900.763 191.763C892.611 230.41 864.684 309.927 803.337 302.516Z" fill="#c26e5e"/><g id="Group 31"><path id="Path" fill-rule="evenodd" clip-rule="evenodd" d="M376.227 576C376.227 576 206.738 844.505 269.287 901.819C331.836 959.134 507.933 762.377 507.933 762.377C507.933 762.377 498.858 718.445 461.074 666.513C423.29 614.58 376.227 576 376.227 576Z" fill="#c26e5e"/><g id="Group 3"><path id="Fill 1" fill-rule="evenodd" clip-rule="evenodd" d="M1088.32 703.18L1005.85 693.58C1005.85 693.58 1026.95 977.46 1019.02 977.46C1014.76 977.46 915.693 1031.17 776.867 1031.17C670.216 1031.17 539.396 995.9 533.866 995.6C533.186 995.56 532.526 995.1 531.896 994.25C533.676 974.67 535.086 940.05 536.516 901.82C537.516 875 538.536 846.41 539.706 820C540.796 795.43 542.016 772.75 543.486 755.13C549.886 678.28 545.456 608.15 545.456 608.15L513.876 693.85L313.676 620.91C313.676 620.91 380.526 523.48 460.226 438.741C539.296 354.66 666.116 333.33 668.096 333.01C668.106 333 668.116 333 668.116 333C668.116 333 660.996 449 780.966 457.91C880.716 465.32 885.886 345.76 885.886 345.76C885.886 345.76 1002.49 376.2 1035.94 404.73C1069.39 433.26 1216.96 628.05 1216.96 632.97C1216.96 637.89 1088.32 703.18 1088.32 703.18Z" fill="#F9C818"/></g><path id="Fill 4" fill-rule="evenodd" clip-rule="evenodd" d="M539.707 820C538.537 846.41 537.517 875 536.517 901.819C536.287 883.649 537.007 857.52 539.707 820" fill="#F9C818"/><path id="Fill 6" fill-rule="evenodd" clip-rule="evenodd" d="M954.269 736.572L849.392 745.095C843.071 745.609 837.529 740.901 837.015 734.579L820.253 528.343C819.74 522.021 824.448 516.479 830.77 515.966L935.646 507.442C941.968 506.928 947.51 511.636 948.024 517.959L964.785 724.194C965.299 730.516 960.591 736.057 954.269 736.572" fill="#204EB2"/><path id="Fill 8" fill-rule="evenodd" clip-rule="evenodd" d="M964.96 730.856L859.705 739.411C853.488 739.917 848.038 735.286 847.532 729.068L831.35 529.967C830.845 523.751 835.476 518.3 841.693 517.795L946.948 509.241C953.165 508.735 958.615 513.366 959.121 519.584L975.303 718.683C975.808 724.901 971.177 730.351 964.96 730.856" fill="#1F9BEB"/><path id="Fill 10" fill-rule="evenodd" clip-rule="evenodd" d="M947.255 531.94C947.74 537.912 943.293 543.146 937.321 543.631C931.35 544.117 926.115 539.669 925.63 533.697C925.145 527.726 929.592 522.492 935.564 522.006C941.535 521.521 946.77 525.968 947.255 531.94" fill="#204EB2"/><g id="Group 14"><path id="Fill 12" fill-rule="evenodd" clip-rule="evenodd" d="M926.491 723.582C926.491 723.582 873.894 735.046 873.557 716.839C873.557 716.839 909.296 702.004 917.388 702.678C925.48 703.353 962.905 707.735 962.905 707.735L916.713 684.809L870.859 698.97C870.859 698.97 860.407 699.644 855.687 692.226C850.967 684.809 856.361 680.426 856.361 680.426L916.376 660.533C916.376 660.533 918.399 654.127 903.227 653.452C888.054 652.778 854.675 650.418 854.675 650.418C854.675 650.418 847.258 644.012 850.629 632.548C854.001 621.085 872.882 625.131 872.882 625.131C872.882 625.131 862.43 615.016 878.277 603.89C878.277 603.89 926.828 605.238 944.698 616.364C962.567 627.491 1084.89 702.596 1084.89 702.596L1180.09 652.587C1180.09 652.587 1360.84 873.839 1276 914.749C1191.16 955.658 926.491 723.582 926.491 723.582Z" fill="#c26e5e"/></g><path id="Fill 15" fill-rule="evenodd" clip-rule="evenodd" d="M979.305 657.272L931.502 630.183L871.977 623.805L872.403 619.829L932.34 626.251C932.612 626.279 932.875 626.364 933.113 626.499L981.277 653.792L979.305 657.272Z" fill="black"/><path id="Fill 17" fill-rule="evenodd" clip-rule="evenodd" d="M1171.18 757.268L1056.93 685.473L1059.06 682.086L1173.31 753.881L1171.18 757.268Z" fill="black"/><path id="Fill 17_2" fill-rule="evenodd" clip-rule="evenodd" d="M454.788 675.157L340.173 746.375L338.062 742.977L452.676 671.759L454.788 675.157Z" fill="black"/><path id="Fill 19" fill-rule="evenodd" clip-rule="evenodd" d="M975.432 679.236C975.13 679.032 945.176 658.754 937.365 655.499C931.406 653.016 919.493 657.546 915.406 659.502L913.68 655.892C914.346 655.575 930.09 648.132 938.903 651.807C947.084 655.215 976.431 675.081 977.676 675.925L975.432 679.236Z" fill="black"/><path id="Fill 21" fill-rule="evenodd" clip-rule="evenodd" d="M965.141 600.124L994.655 645.264L966.588 627.613L965.141 600.124Z" fill="#c26e5e"/><path id="Fill 23" fill-rule="evenodd" clip-rule="evenodd" d="M993.587 646.957L965.52 629.307L967.649 625.92L995.716 643.57L993.587 646.957Z" fill="black"/><path id="Fill 27" fill-rule="evenodd" clip-rule="evenodd" d="M601.7 757.014L566.555 756.325C529.55 755.599 500.139 725.011 500.865 688.006L503.062 576L662.887 579.136L660.507 700.469C659.883 732.323 633.554 757.639 601.7 757.014" fill="white"/></g><g id="Group"><path id="Fill 12" fill-rule="evenodd" clip-rule="evenodd" d="M499.562 614.711C499.562 614.711 485.139 623.983 480.503 629.649C475.867 635.315 479.988 636.346 469.686 647.163C459.384 657.981 440.84 685.281 473.291 727.005C505.744 768.729 516.561 765.122 529.954 757.911C543.346 750.699 544.892 745.549 570.132 742.973C595.372 740.398 619.582 715.672 619.067 709.491L618.552 703.31C618.552 703.31 641.731 694.553 640.187 684.766C638.641 674.979 631.945 676.009 631.945 676.009C631.945 676.009 636.581 671.373 632.975 663.131C629.369 654.89 612.371 656.435 592.796 659.011C573.223 661.586 522.742 671.888 519.651 669.828C516.561 667.768 517.591 664.677 529.438 663.131C541.286 661.586 589.191 661.071 589.191 647.678C589.191 634.285 574.768 631.71 546.952 632.225C519.136 632.74 513.985 631.194 507.289 633.771L500.592 636.346L499.562 614.711Z" fill="#c26e5e"/><path id="Fill 14" fill-rule="evenodd" clip-rule="evenodd" d="M632.349 675.951C632.349 675.951 633.829 674.883 622.806 679.092C618.792 680.624 613.132 682.223 605.158 683.735C575.281 689.401 528.407 699.704 513.984 701.764C499.56 703.825 511.408 706.915 544.375 700.219C577.342 693.522 616.587 684.539 618.349 683.951C621.349 682.951 630.349 679.951 632.349 675.951" fill="black"/><path id="Fill 16" fill-rule="evenodd" clip-rule="evenodd" d="M607.736 706.401C607.736 706.401 583.352 714.952 571.352 717.952C558.611 721.137 549.014 725.46 546.439 721.339C543.863 717.218 540.772 716.188 540.772 716.188L536.652 720.824C536.652 720.824 537.352 725.952 535.106 726.49C531.099 727.451 523.258 729.066 523.258 729.066C523.258 729.066 523.352 731.952 547.352 726.952C553.307 725.712 564.352 723.952 571.352 721.952C577.791 720.112 601.04 714.128 604.131 711.552C607.221 708.976 607.736 706.401 607.736 706.401" fill="black"/><path id="Fill 18" fill-rule="evenodd" clip-rule="evenodd" d="M532.013 703.825C532.013 703.825 531.633 724.568 537.489 724.241C543.346 723.914 545.406 723.914 546.436 722.368C547.467 720.823 544.891 715.672 544.891 710.006C544.891 704.34 544.891 701.764 540.255 702.279C535.619 702.795 532.528 702.795 532.013 703.825" fill="#F9C818"/></g></g></g><g id="Lower Body/Sitting on Floor" transform="matrix(-1 0 0 1 2330 1832) scale(1 1)"><g id="Lower Body/Sitting on Floor/Legs Crossed 3"><g id="Group 46"><path id="Fill 1" fill-rule="evenodd" clip-rule="evenodd" d="M652.882 663.558C652.882 663.558 610.128 682.102 604.977 674.89C599.826 667.679 644.125 712.494 644.125 712.494L676.062 694.464L652.882 663.558Z" fill="#c26e5e"/><path id="Stroke 3 (Stroke)" fill-rule="evenodd" clip-rule="evenodd" d="M654.872 663.558L679.787 696.778L645.364 716.211L644.559 715.396L645.625 714.341C644.559 715.396 644.559 715.396 644.559 715.396L644.063 714.895C643.74 714.569 643.267 714.091 642.667 713.486C641.466 712.275 639.757 710.554 637.721 708.51C633.65 704.423 628.277 699.05 623.066 693.903C617.851 688.752 612.81 683.84 609.4 680.67C608.93 680.233 608.496 679.834 608.1 679.475C606.962 679.14 605.941 678.567 605.257 677.609M609.545 676.738C608.72 676.002 608.048 675.431 607.577 675.08C607.383 674.936 607.159 674.779 606.94 674.667C606.847 674.619 606.638 674.517 606.372 674.473C606.158 674.438 605.291 674.366 604.788 675.189C604.587 675.518 604.558 675.838 604.561 676.024C604.563 676.215 604.599 676.37 604.626 676.465C604.679 676.654 604.758 676.813 604.811 676.914C604.926 677.129 605.084 677.368 605.257 677.609M609.545 676.738C609.738 676.774 609.949 676.805 610.179 676.83C611.653 676.993 613.598 676.88 615.909 676.527C620.516 675.821 626.249 674.211 631.892 672.351C637.52 670.497 642.995 668.416 647.067 666.796C649.102 665.987 650.784 665.294 651.957 664.804C652.543 664.559 653.001 664.365 653.313 664.232C653.468 664.166 653.587 664.115 653.667 664.08L653.756 664.042L653.785 664.029C653.785 664.029 653.785 664.029 654.382 665.405L653.785 664.029L654.872 663.558M653.888 667.247C653.662 667.342 653.403 667.451 653.114 667.572C651.928 668.068 650.229 668.767 648.176 669.584C644.071 671.216 638.536 673.321 632.831 675.201C627.141 677.076 621.22 678.749 616.362 679.492C615.165 679.675 614.012 679.806 612.928 679.866C616.265 683.018 620.664 687.314 625.174 691.768C630.393 696.923 635.773 702.303 639.847 706.393C641.884 708.438 643.595 710.162 644.797 711.374C645.228 711.808 645.594 712.178 645.886 712.472L675.337 695.845L653.888 667.247ZM607.462 675.508C607.462 675.508 607.462 675.508 607.462 675.508C607.458 675.5 607.457 675.5 607.462 675.508Z" fill="black"/><path id="Fill 5" fill-rule="evenodd" clip-rule="evenodd" d="M310.336 686.223C310.336 686.223 247.493 722.795 297.458 779.972C347.423 837.149 524.105 798.001 524.105 798.001L528.741 775.336C528.741 775.336 351.029 689.314 310.336 686.223" fill="#F0ECEC"/><path id="Fill 7" fill-rule="evenodd" clip-rule="evenodd" d="M310.336 686.223C310.336 686.223 285.611 691.373 277.884 719.704C270.158 748.036 287.189 781.029 312.155 792.09C312.155 792.09 280.291 721.375 336.264 692.209L310.336 686.223Z" fill="#E0D3CC"/><path id="Fill 9" fill-rule="evenodd" clip-rule="evenodd" d="M330.523 800.127C330.523 800.127 353.089 754.218 363.391 755.248C373.693 756.278 485.214 762.067 496.418 759.945L533.376 774.821L526.841 798.405C526.841 798.405 389.344 830.584 330.523 800.127" fill="#E7DADA"/><path id="Fill 11" fill-rule="evenodd" clip-rule="evenodd" d="M360.818 713.524C360.818 713.524 352.576 773.276 364.423 773.276C376.271 773.276 379.362 706.312 381.422 729.492C383.483 752.671 385.028 782.033 392.755 773.276C400.481 764.519 384.513 699.616 391.209 717.644C397.905 735.673 402.026 769.67 412.844 769.155C423.661 768.64 408.723 734.128 414.389 733.097C420.055 732.067 431.387 777.912 441.174 772.246C450.962 766.58 432.933 728.977 443.235 742.884C453.537 756.793 456.628 773.276 465.9 771.215C475.172 769.155 464.869 751.127 459.203 742.37C453.537 733.613 366.484 700.13 363.908 704.252C361.333 708.373 360.818 713.524 360.818 713.524" fill="#F9F9F9"/><g id="Group 15"><path id="Fill 13" fill-rule="evenodd" clip-rule="evenodd" d="M493.714 772.246C493.714 772.246 285.611 711.978 188.771 635.227C91.9312 558.476 35.7842 483.786 90.3852 399.824C144.986 315.861 273.248 379.734 335.061 407.035C396.874 434.336 599.57 472.945 696.28 472.7C792.991 472.454 922.798 465.242 990.277 445.153C1057.76 425.064 1165.41 394.673 1198.38 476.575C1231.35 558.476 1192.71 638.834 1136.05 666.134C1079.39 693.434 904.769 752.157 815.141 746.491L725.512 740.824C725.512 740.824 686.879 698.071 697.181 635.743L643.095 674.891C643.095 674.891 612.189 674.376 600.856 670.255C589.524 666.134 526.681 817.06 493.714 772.246" fill="#E93737"/></g><path id="Fill 16" fill-rule="evenodd" clip-rule="evenodd" d="M548.83 779.458C548.83 779.458 639.489 812.939 661.123 826.848C682.758 840.756 727.572 852.603 749.207 837.665C770.841 822.727 757.964 748.552 757.964 748.552C757.964 748.552 685.333 732.067 677.092 720.735C668.85 709.403 602.916 671.801 602.916 671.801L548.83 779.458Z" fill="#c26e5e"/><path id="Fill 18" fill-rule="evenodd" clip-rule="evenodd" d="M750.197 754.419C750.197 754.419 754.874 742.369 769.297 744.944C783.72 747.521 918.163 732.582 956.796 721.765C995.428 710.947 1077.33 787.698 1041.79 841.784C1006.25 895.871 957.826 870.115 914.042 866.51C870.258 862.904 785.265 875.267 766.206 869.085C747.147 862.904 728.088 851.571 727.573 838.179C727.058 824.786 750.197 754.419 750.197 754.419" fill="#F0ECEC"/><path id="Fill 20" fill-rule="evenodd" clip-rule="evenodd" d="M946.766 728.819C946.766 728.819 1003.67 756.793 1013.97 795.425C1024.27 834.058 1019.49 864.984 1019.49 864.984C1019.49 864.984 1073.49 839.54 1042.7 779.107C1011.91 718.674 963.523 713.708 946.766 722.63C930.009 731.552 946.766 728.819 946.766 728.819" fill="#E0D3CC"/><path id="Fill 22" fill-rule="evenodd" clip-rule="evenodd" d="M940.464 727.512C940.464 727.512 917.131 764.519 914.041 791.304C914.041 791.304 916.101 796.455 890.346 795.941C864.59 795.425 744.517 769.076 744.517 769.076C744.517 769.076 718.688 830.95 728.024 846.927C737.359 862.905 914.041 832.513 914.041 832.513C914.041 832.513 921.252 828.392 925.888 831.998C930.524 835.604 954.46 868.63 987.306 875.296C987.306 875.296 936.19 847.966 932.069 811.908C927.948 775.851 940.464 727.512 940.464 727.512" fill="#EEDFD9"/><path id="Fill 24" fill-rule="evenodd" clip-rule="evenodd" d="M770.842 765.035C770.842 765.035 772.387 800.061 765.691 819.636C758.994 839.21 753.433 856.283 764.97 854.185C776.508 852.088 788.871 774.306 782.175 767.61C775.478 760.914 771.357 758.853 770.842 765.035" fill="white"/><path id="Fill 26" fill-rule="evenodd" clip-rule="evenodd" d="M789.9 769.155C789.9 769.155 791.445 804.182 784.749 823.757C778.052 843.331 772.491 860.403 784.028 858.305C795.566 856.209 807.929 778.427 801.232 771.731C794.536 765.035 790.415 762.974 789.9 769.155" fill="white"/><path id="Fill 28" fill-rule="evenodd" clip-rule="evenodd" d="M857.379 770.385C857.379 770.385 858.924 802.423 852.228 820.326C845.531 838.23 839.97 853.846 851.507 851.927C863.045 850.008 875.408 778.865 868.711 772.74C862.015 766.615 857.894 764.731 857.379 770.385" fill="white"/><path id="Fill 30" fill-rule="evenodd" clip-rule="evenodd" d="M883.135 774.281C883.135 774.281 884.68 804.185 877.984 820.896C871.287 837.608 865.726 852.183 877.263 850.393C888.801 848.602 901.164 782.197 894.467 776.48C887.771 770.762 883.65 769.004 883.135 774.281" fill="white"/><path id="Fill 32" fill-rule="evenodd" clip-rule="evenodd" d="M901.643 772.124C901.643 772.124 907.419 801.505 903.164 818.998C898.909 836.491 895.474 851.709 906.64 848.298C917.806 844.887 920.613 777.398 913.173 772.69C905.732 767.982 901.403 766.826 901.643 772.124" fill="white"/><path id="Fill 34" fill-rule="evenodd" clip-rule="evenodd" d="M813.854 771.405C813.854 771.405 811.809 806.407 803.146 825.194C794.482 843.98 787.204 860.394 798.896 859.488C810.587 858.582 830.84 782.472 824.864 775.127C818.887 767.78 814.999 765.309 813.854 771.405" fill="white"/><path id="Fill 36" fill-rule="evenodd" clip-rule="evenodd" d="M823.955 770.756C823.955 770.756 830.916 805.119 827.338 825.495C823.759 845.871 820.914 863.601 831.987 859.738C843.059 855.876 843.204 777.118 835.55 771.542C827.895 765.966 823.505 764.569 823.955 770.756" fill="white"/><path id="Fill 38" fill-rule="evenodd" clip-rule="evenodd" d="M746.711 766.726C746.711 766.726 779.083 773.791 772.387 812.939C765.69 852.087 725.013 841.055 725.013 841.055C725.013 841.055 715.37 776.66 746.711 766.726" fill="white"/><path id="Stroke 40" d="M291.065 424.357L575.396 648.638L636.95 674.564L702.127 633.966L925.942 492.37L928.081 495.75L704.254 637.354L637.307 679.054L573.345 652.114L288.588 427.497L291.065 424.357Z" fill="black"/><path id="Fill 42" fill-rule="evenodd" clip-rule="evenodd" d="M709.028 612.563C709.028 612.563 662.669 625.44 649.791 647.59C636.913 669.74 641.034 707.857 679.152 723.826C717.27 739.794 732.723 753.187 722.936 727.947C713.149 702.707 695.12 656.346 709.028 612.563" fill="#F0ECEC"/><path id="Fill 44" fill-rule="evenodd" clip-rule="evenodd" d="M574.07 641.923C574.07 641.923 569.434 693.434 541.103 733.612C512.773 773.791 487.532 777.911 496.804 787.698C506.076 797.485 520.499 802.121 529.771 814.485C539.043 826.847 538.528 826.331 560.162 800.576C581.797 774.82 629.187 717.644 630.217 666.649C630.217 666.649 578.191 624.925 574.07 641.923" fill="#F0ECEC"/></g></g></g><g id="Expression" transform="translate(1633 1412) scale(1 1)"><g id="Expression/Happy"><g id="Group 124"><path id="Stroke 114" d="M123.94 52.5157L127.749 53.7377L127.377 54.9309C127.077 55.9043 126.744 57.0179 126.384 58.2529C125.356 61.7838 124.327 65.5761 123.368 69.4789C122.301 73.8176 121.387 78.025 120.672 81.9977L120.465 83.174C118.727 93.2776 118.482 100.993 120.034 105.142L120.126 105.377C129.004 127.34 116.948 138.478 91.6439 130.679L90.873 130.437L92.0921 126.627C114.886 133.921 124.027 125.703 116.417 106.876C114.322 101.694 114.645 92.8993 116.735 81.289C117.466 77.2272 118.398 72.9394 119.483 68.524C120.349 65.0028 121.269 61.5728 122.196 58.3381L122.543 57.1345C122.752 56.4176 122.952 55.7406 123.143 55.1068L123.631 53.5024L123.94 52.5157Z" fill="black"/><path id="Stroke 122" d="M25.1855 205.534L27.1425 202.046L27.8567 202.435L28.5118 202.783C29.5036 203.305 30.6327 203.881 31.8877 204.498L32.4332 204.765C36.6543 206.821 41.3224 208.878 46.301 210.798C57.7489 215.212 69.0606 218.225 79.5848 219.202C84.3541 219.645 88.8741 219.656 93.1069 219.202L93.9496 219.105L94.4385 223.075C89.6635 223.663 84.5751 223.683 79.2149 223.185C68.2771 222.169 56.6257 219.066 44.8619 214.53C39.7712 212.567 35.0001 210.465 30.6815 208.361L29.0484 207.554C28.354 207.206 27.7021 206.873 27.0948 206.556L25.9633 205.958L25.1855 205.534Z" fill="black"/></g><g id="Group 16"><path id="Fill 3" fill-rule="evenodd" clip-rule="evenodd" d="M94.7153 165.02C76.4873 160.136 64.9813 148.104 64.443 147.532C63.3072 146.327 63.3646 144.428 64.5708 143.291C65.7746 142.156 67.674 142.212 68.8105 143.418C69.0384 143.657 82.5828 157.683 102.678 160.536C104.307 160.767 105.459 162.287 105.227 163.928C104.995 165.568 103.475 166.71 101.835 166.476C99.3642 166.127 96.9862 165.628 94.7153 165.02" fill="black"/><path id="Fill 5" fill-rule="evenodd" clip-rule="evenodd" d="M105.825 133.166C101.782 133.166 96.7384 132.375 90.4434 130.361L91.6614 126.551C103.385 130.302 112.045 129.996 116.046 125.687C119.449 122.02 119.428 115.313 115.987 106.801C113.652 101.026 114.229 90.0734 117.702 74.2454C120.243 62.6624 123.477 52.5414 123.51 52.4404L127.318 53.6624C123.811 64.5954 115.606 95.1874 119.695 105.302C124.893 118.16 122.174 124.964 118.977 128.408C116.697 130.866 112.718 133.166 105.825 133.166" fill="black"/><g id="Group 9"><path id="Fill 7" fill-rule="evenodd" clip-rule="evenodd" d="M89.1393 50.3876C88.5383 50.3876 87.9263 50.2876 87.3273 50.0786C81.4913 48.0426 64.6343 42.6306 56.8223 42.0526C49.4663 41.5076 38.2433 45.1416 34.5393 46.5886C31.7103 47.6926 28.5213 46.2976 27.4153 43.4706C26.3083 40.6426 27.7013 37.4546 30.5283 36.3456C31.1643 36.0966 46.2603 30.2396 57.6343 31.0826C68.4893 31.8866 90.0393 39.3746 90.9513 39.6936C93.8193 40.6946 95.3323 43.8306 94.3323 46.6986C93.5403 48.9666 91.4133 50.3876 89.1393 50.3876" fill="black"/></g><path id="Fill 10" fill-rule="evenodd" clip-rule="evenodd" d="M181.678 69.1645C180.576 69.1645 179.464 68.8265 178.507 68.1245C175.448 65.8845 166.003 59.8175 159.138 58.6695C151.813 57.4455 134.961 58.8295 129.085 59.4645C126.138 59.7795 123.489 57.6525 123.17 54.7055C122.85 51.7575 124.981 49.1085 127.928 48.7895C128.85 48.6895 150.629 46.3615 160.908 48.0795C171.716 49.8855 184.329 59.0775 184.861 59.4685C187.25 61.2235 187.765 64.5835 186.01 66.9735C184.958 68.4055 183.329 69.1645 181.678 69.1645" fill="black"/><path id="Fill 12" fill-rule="evenodd" clip-rule="evenodd" d="M78.6366 79.1289C77.9116 79.1289 77.1856 78.8679 76.6096 78.3389C76.5716 78.3049 71.6246 73.9129 64.4836 74.1789C57.0946 74.4519 52.1896 78.0669 52.1406 78.1029C50.8186 79.0929 48.9396 78.8329 47.9446 77.5169C46.9476 76.1999 47.1966 74.3309 48.5086 73.3279C48.7646 73.1319 54.8866 68.5299 64.2616 68.1829C73.9106 67.8359 80.3946 73.6699 80.6656 73.9189C81.8866 75.0389 81.9686 76.9369 80.8476 78.1569C80.2566 78.8019 79.4476 79.1289 78.6366 79.1289" fill="black"/><path id="Fill 14" fill-rule="evenodd" clip-rule="evenodd" d="M162.754 88.2724C162.029 88.2724 161.303 88.0114 160.727 87.4824C160.689 87.4484 155.742 83.0504 148.6 83.3224C141.231 83.5944 136.317 87.2014 136.27 87.2374C134.953 88.2444 133.07 87.9924 132.064 86.6764C131.058 85.3604 131.309 83.4774 132.625 82.4714C132.881 82.2754 139.004 77.6724 148.379 77.3264C158.024 76.9814 164.512 82.8134 164.783 83.0624C166.004 84.1824 166.086 86.0804 164.965 87.3004C164.374 87.9454 163.565 88.2724 162.754 88.2724" fill="black"/></g></g></g><g id="Hairstyle" transform="translate(1142 1085) scale(1 1)"><g id="Hairstyle/Curly Bun"><g id="Group 11"><g id="Group 3"><mask id="mask0_406_1399581201d2b-cc92-4a51-9e08-a31e0e4a3cbc" style="mask-type:luminance" maskUnits="userSpaceOnUse" x="483" y="49" width="216" height="153" fill="#ffffff"><path id="Clip 2" fill-rule="evenodd" clip-rule="evenodd" d="M483.328 49H698.919V201.584H483.328V49Z" fill="#ffffff"/></mask><g mask="url(#mask0_406_1399581201d2b-cc92-4a51-9e08-a31e0e4a3cbc)"><path id="Fill 1" fill-rule="evenodd" clip-rule="evenodd" d="M660.964 199.644C660.964 199.644 656.9 190.215 679.049 189.185C701.199 188.155 709.956 142.826 678.019 122.736C646.082 102.647 680.595 81.5284 631.659 56.2884C582.724 31.0474 558.514 79.4674 558.514 79.4674C558.514 79.4674 507.004 59.3784 488.975 100.587C470.946 141.795 501.852 158.279 501.852 158.279C501.852 158.279 481.248 172.187 497.732 189.185C514.215 206.184 558.697 187.293 566.075 196.481C573.452 205.669 660.964 199.644 660.964 199.644" fill="#ffc943"/></g></g><path id="Fill 4" fill-rule="evenodd" clip-rule="evenodd" d="M512.848 209.085C512.848 209.085 528.438 180.366 565.525 177.683C602.613 175 619.251 188.172 623.552 209.085C627.853 229.998 512.848 209.085 512.848 209.085" fill="white"/><g id="Group 8"><mask id="mask1_406_1399581201d2b-cc92-4a51-9e08-a31e0e4a3cbc" style="mask-type:luminance" maskUnits="userSpaceOnUse" x="434" y="197" width="251" height="222" fill="#ffffff"><path id="Clip 7" fill-rule="evenodd" clip-rule="evenodd" d="M434 197.303H684.515V418.595H434V197.303Z" fill="#ffffff"/></mask><g mask="url(#mask1_406_1399581201d2b-cc92-4a51-9e08-a31e0e4a3cbc)"><path id="Fill 6" fill-rule="evenodd" clip-rule="evenodd" d="M456.323 396.258C456.323 396.258 454.778 389.562 464.565 380.29C474.352 371.018 470.746 328.264 493.926 320.537C517.106 312.811 555.739 273.148 573.767 273.148C591.796 273.148 622.703 289.631 635.065 288.601C647.428 287.571 663.911 312.296 664.941 325.173C665.971 338.051 682.856 361.09 672.353 418.595C672.353 418.595 684.515 399.349 684.515 376.684C684.515 354.019 681.425 348.868 682.97 316.417C684.515 283.965 680.91 250.483 657.215 235.03C633.52 219.576 618.582 191.246 582.009 198.457C545.437 205.669 517.106 196.912 495.471 220.092C479.558 237.142 455.808 248.938 450.657 283.965C445.858 316.597 419.362 331.686 445.054 366.805C445.054 366.805 456.323 384.926 456.323 396.258Z" fill="#ffc943"/></g></g><path id="Fill 9" fill-rule="evenodd" clip-rule="evenodd" d="M515.502 206.745C515.502 206.745 522.323 178.486 567.323 175.486C612.323 172.486 621.086 191.87 623.205 207.678C623.205 207.678 604.716 195.311 581.02 200.399C557.323 205.486 530.681 202.004 515.502 206.745" fill="#56ACF6"/></g></g></g><g id="Accessories" transform="translate(1586 1445) scale(234 78)"><g id="Accessories/None" stroke="none" stroke-width="1" fill="none" fill-rule="evenodd" fill-opacity="0"/></g><g id="Facial Hair" transform="translate(1596 1446) scale(212 211)"><g id="Facial Hair/None" stroke="none" stroke-width="1" fill="none" fill-rule="evenodd" fill-opacity="0"/></g></g></g></g></svg>