<svg xmlns="http://www.w3.org/2000/svg" fill="none" viewBox="0 0 640 415" width="640" height="415"><defs><clipPath id="assetClipPath_7yj5uMw9"><path d="m0 187.5 h 1600 v 1037.5 h -1600 v -1037.5 z" id="path_PxhbHUSI" fill="#ffffff" /></clipPath><clipPath id="clipPath_5iD92Xf5">
            <path d="m0 0 h 456.961 v 466.849 h -456.961 v -466.849 z" id="path_k2TuHpp_" />
        </clipPath><clipPath id="clipPath_wdFAG20q">
            <path d="m0 0 h 2115.127 v 234.347 h -2115.127 v -234.347 z" id="path_bMqsG5fp" />
        </clipPath><clipPath id="clipPath_bUDcL9zK">
            <path d="m0 0 h 1006.627 v 840.871 h -1006.627 v -840.871 z" id="path_u0A_SVAA" />
        </clipPath><clipPath id="clipPath_XKuiE4Wn">
            <path d="m0 0 h 74.021 v 106.33 h -74.021 v -106.33 z" id="path_g1EPxTYn" />
        </clipPath><clipPath id="clipPath_HUbBBhFB">
            <path d="m0 0 h 74.021 v 106.33 h -74.021 v -106.33 z" id="path_GedXyh-3" />
        </clipPath><clipPath id="clipPath_6krWo2MN">
            <path d="m0 0 h 154.394 v 192.068 h -154.394 v -192.068 z" id="path_V86_z3QU" />
        </clipPath></defs><g transform="translate(0 -75)" data-asset-index="0"><g clip-path="url(#assetClipPath_7yj5uMw9)" transform="scale(0.4 0.4)" data-asset-index="0"><defs>
        
        
        
        
        
        
    </defs><g transform="translate(457 204)" data-asset-index="0" id="XmCfmS17U3r3g2ehcX2BC">
        <g clip-path="url(#clipPath_5iD92Xf5)" transform="scale(1.021969052063524 1.021969052063524)" data-asset-index="0" id="lVMK5i5-vIwcCGwzNi1Go">
            <path d="m168.55 466.849c-.102 0-.206-.01-.31-.032-.696-.146-1.194-.762-1.191-1.473l.62-168.025-162.298 43.494c-.688.184-1.409-.14-1.729-.775-.319-.636-.148-1.408.409-1.85l131.754-104.277-135.196-99.773c-.573-.422-.769-1.189-.472-1.835.298-.646 1.01-.994 1.701-.833l163.674 37.994-6.287-167.908c-.027-.711.45-1.343 1.141-1.513.69-.17 1.406.168 1.712.811l72.344 151.654 127.355-109.606c.539-.464 1.331-.485 1.894-.051.564.434.745 1.204.434 1.844l-73.462 151.116 165.098 31.232c.699.132 1.209.737 1.221 1.448s-.477 1.333-1.171 1.489l-163.95 36.784 78.519 148.552c.333.629.177 1.405-.371 1.858-.549.453-1.34.458-1.895.013l-130.98-105.247-67.187 154.009c-.242.555-.788.9-1.374.9zm.627-172.987c.328 0 .65.107.915.312.37.285.586.727.585 1.194l-.601 162.73 65.07-149.156c.187-.428.563-.745 1.017-.857.453-.112.934-.006 1.298.287l126.854 101.931-76.045-143.871c-.218-.413-.232-.904-.036-1.329.196-.424.578-.733 1.034-.836l158.784-35.625-159.896-30.248c-.459-.087-.852-.383-1.062-.8-.21-.418-.213-.909-.009-1.329l71.148-146.355-123.342 106.152c-.354.305-.83.427-1.288.331-.457-.096-.844-.4-1.045-.822l-70.064-146.876 6.091 162.618c.017.467-.184.915-.544 1.213-.361.298-.838.41-1.294.304l-158.518-36.796 130.937 96.629c.376.277.601.714.609 1.182.008.467-.202.911-.569 1.201l-127.602 100.991 157.185-42.124c.128-.034.258-.051.388-.051z" fill="#5FB3ED" id="cL1QQd6Rl1ynBiNz_ogEK" />
        </g>
    </g><g transform="translate(63 1028)" data-asset-index="1" id="hHNGO8BFWlLRFXCfVkYV">
        <g clip-path="url(#clipPath_wdFAG20q)" transform="scale(0.6983032224542546 0.6983032224542546)" data-asset-index="1" id="h-AEwX9gDrEpI3ruTjhI4">
            <circle cx="1876.663" cy="47.874" fill="#24968B" r="8.744" id="sZdyoxlu4s6594DURWU42" />
            <path d="m1879.047 48.384c4.17-15.572 24.376-39.041 52.914-48.357 20.946-1.388 37.234 50.832 7.418 60.681-18.244 3.742-44.733 1.95-60.332-12.324z" fill="#24968B" id="XQIwdYUQfPHB0VZS_H1gu" />
            <path d="m1908.526 47.993c-.75 0-1.398-.562-1.487-1.325-.098-.823.491-1.568 1.314-1.665 9.691-1.139 34.582-7.418 46.759-12.279.765-.306 1.642.067 1.949.837s-.068 1.642-.838 1.949c-12.362 4.935-37.66 11.313-47.521 12.472-.059.008-.117.011-.176.011z" fill="#25242E" id="O9-4vYzBWT48YEknPcy-q" />
            <path d="m1919.081 36.916c-.706 0-1.336-.502-1.472-1.222-.154-.814.381-1.599 1.195-1.752 3.097-.586 11.466-3.264 15.462-5.097.757-.347 1.646-.015 1.989.738.346.753.016 1.644-.737 1.989-4.242 1.946-12.838 4.69-16.157 5.318-.094.017-.188.026-.28.026z" fill="#25242E" id="bDygs7HS46nXGyYCHNOl-" />
            <path d="m1882.83 55.573c-.386 0-.771-.147-1.063-.442-.584-.587-.582-1.537.006-2.121 2.832-2.816 2.844-7.412.027-10.244-.584-.587-.582-1.537.006-2.121.586-.584 1.537-.582 2.121.006 1.93 1.94 2.988 4.515 2.98 7.251-.007 2.736-1.079 5.306-3.02 7.235-.292.291-.674.436-1.057.436z" fill="#25242E" id="zyHePfqOxSrW5a7S5Zw5S" />
            <path d="m2011.781 195.53h-1908.435l140-146.184h1628.435z" fill="#24968B" id="kCKyi87FBauZG_too9NAu" />
            <path d="m1881.088 60.564c-.395 0-.789-.155-1.083-.462l-8.864-9.256h-10.045c-.828 0-1.5-.671-1.5-1.5s.672-1.5 1.5-1.5h10.686c.409 0 .801.167 1.083.462l9.307 9.718c.573.599.553 1.548-.046 2.121-.291.279-.665.417-1.038.417z" fill="#25242E" id="ZNdH25g5tAK6W3jL_JIzF" />
            <circle cx="2011.781" cy="195.53" fill="#24968B" r="8.744" id="AM6fzc4egucj2ztW09Mju" />
            <path d="m2007.336 204.562c-.259 0-.521-.067-.761-.208-1.731-1.02-3.114-2.517-3.999-4.329-1.604-3.284-1.327-7.208.721-10.238.464-.686 1.396-.867 2.083-.403s.867 1.396.403 2.083c-1.449 2.145-1.646 4.919-.512 7.242.626 1.282 1.604 2.34 2.827 3.061.713.42.951 1.34.531 2.054-.28.473-.78.738-1.293.738z" fill="#25242E" id="O9VNqn6f573e2lwotCU79" />
            <path d="m2013.873 196.782c25.521-19.212 57.778-24.153 87.796-23.765 20.274 5.443 18.847 60.125-12.551 59.831-18.478-2.344-56.337-13.1-75.245-36.066z" fill="#24968B" id="jwEqeqNPksGyqoAPFwky" />
            <g fill="#25242E" id="uxMiDhc3wEnBOJErZyy6b">
                <path d="m2089.116 234.347c-.271 0-.545-.073-.792-.227-9.466-5.892-17.038-21.078-11.295-40.496 4.095-13.841 13.543-22.32 24.667-22.107.828.015 1.487.699 1.473 1.527-.016.819-.684 1.472-1.499 1.472-.01 0-.02 0-.028 0-.118-.002-.236-.003-.353-.003-11.403 0-18.517 10.272-21.383 19.962-3.832 12.956-1.627 29.859 10.004 37.098.703.438.918 1.363.48 2.066-.284.457-.773.708-1.274.708z" fill="#25242E" id="l29RGB6YxksnHO9gi6_yY" />
                <path d="m2031.818 213.798c-.268 0-.537-.071-.781-.22-6.979-4.267-13.144-9.596-18.318-15.839-.262-.315-.383-.724-.336-1.13.048-.407.259-.777.586-1.023 5.217-3.945 11.138-7.59 18.102-11.143.736-.376 1.642-.084 2.018.654.377.738.084 1.641-.654 2.018-6.242 3.186-11.618 6.439-16.382 9.917 4.747 5.47 10.308 10.17 16.55 13.987.707.432.93 1.355.497 2.062-.284.462-.777.717-1.282.717z" fill="#25242E" id="GDVLP8NccWl0f07pCmWrr" />
                <path d="m2040.533 191.585c-.555 0-1.089-.31-1.349-.842-.363-.744-.055-1.643.689-2.006 6.856-3.349 18.636-5.331 26.238-5.495h.033c.813 0 1.481.65 1.499 1.468.018.828-.64 1.514-1.468 1.532-6.237.135-18.113 1.835-24.986 5.191-.211.102-.435.152-.656.152z" fill="#25242E" id="F0o01-XURBkI2cUHq25Ii" />
                <path d="m2074.28 213.687c-6.131 0-15.019-.758-18.662-1.522-.812-.17-1.33-.965-1.16-1.776.171-.811.971-1.328 1.775-1.16 3.999.839 15.166 1.697 20.684 1.396.819-.067 1.534.589 1.58 1.416.045.827-.589 1.534-1.416 1.58-.832.045-1.779.066-2.801.066z" fill="#25242E" id="i9S41myxX8uU8-3HfMyc" />
            </g>
            <circle cx="103.346" cy="195.53" fill="#24968B" r="8.744" id="EEEPmo2TgMLjz0vARLgLh" />
            <path d="m107.792 204.562c-.514 0-1.015-.264-1.294-.739-.42-.714-.183-1.633.531-2.054 1.223-.72 2.2-1.778 2.827-3.061 1.134-2.323.938-5.098-.511-7.242-.464-.687-.284-1.619.403-2.083.686-.464 1.619-.285 2.083.403 2.048 3.031 2.325 6.954.721 10.238-.885 1.813-2.268 3.31-4 4.329-.24.142-.502.209-.76.209z" fill="#25242E" id="PVaLRgtBmJUFF_cMYTOoL" />
            <path d="m101.254 196.782c-25.521-19.212-57.778-24.153-87.796-23.765-20.274 5.443-18.847 60.125 12.551 59.831 18.477-2.344 56.337-13.1 75.245-36.066z" fill="#24968B" id="izu7Dl2OEm-Yb1M1caeWz" />
            <path d="m26.011 234.347c-.501 0-.991-.25-1.275-.708-.438-.703-.223-1.628.481-2.066 11.63-7.239 13.836-24.142 10.003-37.099-2.895-9.789-10.098-20.143-21.734-19.959-.01 0-.019 0-.028 0-.815 0-1.484-.653-1.499-1.472-.016-.829.644-1.512 1.472-1.527 11.163-.208 20.573 8.266 24.667 22.107 5.744 19.418-1.829 34.604-11.295 40.496-.247.155-.521.228-.792.228z" fill="#25242E" id="ES5FcfHWGSeMxFURWNeK3" />
            <path d="m83.309 213.798c-.505 0-.999-.255-1.281-.718-.432-.707-.209-1.63.498-2.062 6.243-3.817 11.804-8.518 16.55-13.987-4.765-3.479-10.14-6.732-16.382-9.917-.738-.376-1.031-1.28-.654-2.018.376-.738 1.28-1.032 2.018-.654 6.963 3.553 12.885 7.198 18.103 11.143.327.247.538.617.585 1.023.047.407-.074.815-.335 1.13-5.175 6.242-11.338 11.571-18.319 15.839-.246.15-.516.221-.783.221z" fill="#25242E" id="mrKVUV4HwZTEofyvDdBP_" />
            <path d="m74.594 191.585c-.221 0-.445-.049-.657-.153-6.873-3.356-18.749-5.056-24.987-5.191-.829-.018-1.485-.704-1.467-1.532.018-.817.686-1.468 1.499-1.468h.033c7.603.164 19.382 2.146 26.239 5.495.745.363 1.053 1.262.689 2.006-.26.533-.793.843-1.349.843z" fill="#25242E" id="Ey_YeOBkCiYOfGVmbKPhv" />
            <path d="m40.847 213.687c-1.023 0-1.969-.021-2.801-.067-.827-.045-1.461-.752-1.416-1.58s.767-1.475 1.58-1.416c5.519.299 16.685-.558 20.684-1.396.815-.166 1.606.349 1.776 1.16s-.35 1.606-1.16 1.776c-3.644.765-12.532 1.523-18.663 1.523z" fill="#25242E" id="ysBeYvoPgxval_E5RMArh" />
            <circle cx="238.942" cy="47.874" fill="#24968B" r="8.744" id="pHUkwF6-Qi2c5xvURcpZ2" />
            <path d="m236.558 48.384c-4.17-15.572-24.376-39.041-52.914-48.357-20.946-1.388-37.234 50.832-7.418 60.681 18.245 3.742 44.733 1.95 60.332-12.324z" fill="#24968B" id="OOh24ql9Cdin0L_LFMK3j" />
            <path d="m207.079 47.993c-.059 0-.118-.003-.177-.01-9.86-1.159-35.158-7.538-47.521-12.472-.77-.307-1.144-1.18-.837-1.949s1.179-1.144 1.949-.837c12.176 4.86 37.067 11.14 46.759 12.279.823.097 1.411.842 1.314 1.665-.089.763-.737 1.324-1.487 1.324z" fill="#25242E" id="Sfgs8vIH5dnQAAIZrwEAk" />
            <path d="m196.524 36.916c-.092 0-.186-.009-.28-.027-3.319-.627-11.915-3.372-16.156-5.318-.753-.345-1.083-1.236-.738-1.989s1.236-1.084 1.989-.738c3.997 1.833 12.366 4.511 15.463 5.097.814.154 1.349.938 1.195 1.752-.137.721-.766 1.223-1.473 1.223z" fill="#25242E" id="nMuaOwulCMzcqLHUBX39" />
            <path d="m232.776 55.573c-.382 0-.765-.146-1.058-.437-1.94-1.93-3.013-4.499-3.02-7.235s1.051-5.312 2.981-7.251c.584-.588 1.534-.59 2.121-.006s.59 1.534.006 2.121c-1.365 1.372-2.113 3.193-2.108 5.128s.764 3.752 2.135 5.116c.587.584.59 1.534.006 2.121-.293.296-.678.443-1.063.443z" fill="#25242E" id="AwqfVdXuQwweyWGnvGGDP" />
            <path d="m229.811 64.98c-.373 0-.747-.138-1.038-.417-.598-.573-.619-1.522-.046-2.121l13.536-14.134c.283-.295.674-.462 1.083-.462h.002l14.122.017c.828.001 1.499.673 1.498 1.502-.001.828-.672 1.498-1.5 1.498 0 0-.001 0-.002 0l-13.48-.016-13.092 13.67c-.295.308-.689.463-1.083.463z" fill="#25242E" id="PPPSASEQFSXEhi-UOSc9F" />
        </g>
    </g><g transform="translate(310 306)" data-asset-index="2" id="eBLoBcA7lE_lseYcyHkTP">
        <g clip-path="url(#clipPath_bUDcL9zK)" transform="scale(1.0003705444022464 1.0003705444022464)" data-asset-index="2" id="P5skwcDU_5-LJko45ALST">
            <path d="m509.948 469.22c49.111 76.701 63.255 179.06-55.965 235.401-99.436 46.991-260.649 171.212-343.724 97.763-48.34-42.739-39.757-120.894 35.485-171.442 70.058-47.066 224.824-103.491 224.824-103.491s90.269-134.932 139.38-58.231z" fill="#FFA78E" id="YB8eOUabJu0xtj3wwJqbA" />
            <path d="m496.399 469.22c-49.111 76.701-63.255 179.06 55.965 235.401 99.436 46.991 285.974 135.268 317.499 121.479 84.624-37.014 82.212-133.707-9.26-195.158-70.058-47.067-224.824-103.492-224.824-103.492s-90.269-134.931-139.38-58.23z" fill="#FFA78E" id="E-qJ__cJXENpxiH_Aqc8D" />
            <path d="m509.948 469.22c49.111 76.701 63.255 179.06-55.965 235.401-23.386 11.052-63.673 33.955-92.074 49.975-21.974-73.013-81.643-147.868-121.355-173.865 51.205-24.302 130.014-53.281 130.014-53.281s90.269-134.931 139.38-58.23z" fill="#FF806A" id="VqeTIfEzhlcTXceXkrusT" />
            <path d="m496.399 469.22c-49.111 76.701-63.255 179.06 55.965 235.401 30.06 14.206 68.081 32.185 107.372 49.976 42.899-102.519 103.607-149.474 125.313-164.919-70.565-33.533-149.27-62.228-149.27-62.228s-90.269-134.931-139.38-58.23z" fill="#FF806A" id="rDB96pUi8GPxrBDodNg" />
            <circle cx="718.27" cy="116.047" fill="#FFBBA0" r="39.404" id="Jhebp5rGNl6rtZMC7BLHk" />
            <circle cx="670.305" cy="153.065" fill="#FFBBA0" r="27.386" id="GV7dg5-fJ9gQLLKiMVr8" />
            <circle cx="604.206" cy="182.258" fill="#FFBBA0" r="50.401" id="G01SYs_2mhePIgvVvsvaj" />
            <path d="m711.11 79.304c-19.904-.661-26.535 21.177-43.904 21.181-45.447.008-21.447-105.886-106.213-100.269-42.555 2.82-62.405 42.894-62.405 76.734 0 0 3.262 104.169 58.802 123.995 59.989 21.415 187.816-85.708 153.72-121.641z" fill="#FFBBA0" id="kdzbXcL6pz_iPdul6EaeO" />
            <path d="m564.082 181.158c19.752 5.714 31.592-7.294 30.849-19.106-1.004-15.966-20.259-26.839-30.504-11.005z" fill="#FFA78E" id="TTMVFarp2KD0fIWZ8CGYE" />
            <path d="m583.432 168.498c-.327 0-.656-.106-.932-.325l-12.14-9.637c-.649-.515-.757-1.458-.242-2.107s1.458-.757 2.107-.242l12.14 9.637c.649.515.757 1.458.242 2.107-.295.373-.733.567-1.175.567z" fill="#630000" id="cZ8JJ5JKBeRQDUNyUMJO" />
            <path d="m573.068 169.154c-.333 0-.667-.11-.946-.337-.643-.523-.74-1.468-.216-2.11l9.654-11.859c.523-.643 1.468-.739 2.11-.216.643.523.74 1.468.216 2.11l-9.654 11.859c-.296.364-.728.553-1.164.553z" fill="#630000" id="Lpzt2AbhQz7rxJV8hUCQh" />
            <path d="m441.918 151.047.344 30.112c-19.752 5.714-31.592-7.294-30.849-19.106 1.005-15.967 20.26-26.84 30.505-11.006" fill="#FFA78E" id="d5RT9m7Q9qWsKrqJ_xp5o" />
            <path d="m422.913 168.498c-.442 0-.88-.194-1.176-.567-.515-.649-.407-1.592.242-2.107l12.14-9.637c.649-.515 1.593-.407 2.107.242.515.649.407 1.592-.242 2.107l-12.14 9.637c-.276.218-.605.325-.931.325z" fill="#630000" id="cDFc37g86xx-Fb643cPAI" />
            <path d="m433.276 169.154c-.436 0-.868-.189-1.164-.553l-9.654-11.859c-.523-.642-.426-1.587.216-2.11.641-.523 1.586-.427 2.11.216l9.654 11.859c.523.642.426 1.587-.216 2.11-.278.226-.613.337-.946.337z" fill="#630000" id="U8pswbyB72iXQI98fizRn" />
            <path d="m441.255 159.733c-17.635 43.206 16.738 78.219 61.919 78.219s79.55-35.013 61.919-78.219c8.009-38.752-9.826-82.784-61.423-82.784s-70.424 44.033-62.415 82.784z" fill="#FFA78E" id="Zxnb-MwGmF_ZiXV1vSKz9" />
            <path d="m514.29 188.342c11.852-13.041-7.041-20.126-10.773-7.41-6.353-15.014-21.608-2.057-10.22 7.41-4.048 5.278-.684 15.61 10.22 15.61 10.324 0 14.978-8.252 10.773-15.61z" fill="#E4634F" id="QfLmGvM3hI5BdAU_b3KzO" />
            <path d="m504.528 190.765c-.34 0-.684-.002-1.033-.007-4.006-.055-13.386-.185-22.578-7.007-.665-.494-.804-1.434-.311-2.099.494-.666 1.434-.803 2.099-.311 8.414 6.246 16.8 6.361 20.831 6.417 9.804.154 15.858-1.726 21.633-6.642.63-.537 1.578-.461 2.114.17.537.631.461 1.578-.17 2.114-6.181 5.262-12.579 7.365-22.585 7.365z" fill="#630000" id="PyrxWUXoiO67mbJzIUo2D" />
            <path d="m534.847 169.144c-5.633 0-11.058-1.787-15.773-5.359-.66-.5-.79-1.441-.29-2.102.501-.661 1.441-.79 2.102-.29 8.356 6.331 19.294 6.306 29.259-.068.699-.447 1.625-.243 2.072.456.446.698.242 1.625-.456 2.072-5.516 3.528-11.318 5.291-16.914 5.291z" fill="#630000" id="iCLPlzcnqIIL9lXBxocS6" />
            <path d="m471.086 169.144c-5.597 0-11.397-1.763-16.914-5.291-.698-.446-.902-1.374-.456-2.072s1.373-.902 2.072-.456c9.966 6.374 20.904 6.399 29.259.068.661-.5 1.601-.371 2.102.29.5.66.37 1.601-.29 2.102-4.714 3.572-10.14 5.359-15.773 5.359z" fill="#630000" id="Oxs4877XhAjKKPkjDzHeU" />
            <path d="m440.174 131.858c3.879-29.326 24.168-54.908 63.496-54.908s59.041 25.582 62.646 54.908c-74.259-25.713-103.365-2.961-126.142 0z" fill="#FFBBA0" id="EgqvR89LguyzC2EKII0Wz" />
            <path d="m560.505 133.498s-2.747 28.681 1.532 28.681 5.617-25.362 5.617-25.362z" fill="#FFBBA0" id="zQX1yAIqVHr-koHBlLdxk" />
            <path d="m566.314 133.357c-.747 0-1.394-.557-1.487-1.317-1.871-15.222-7.918-28.21-17.487-37.562-10.883-10.635-25.576-16.028-43.67-16.028-3.402 0-6.739.198-9.92.588-.821.099-1.57-.484-1.671-1.306s.484-1.571 1.306-1.671c3.302-.405 6.762-.61 10.286-.61 18.64 0 34.466 5.838 45.768 16.884 10.061 9.833 16.412 23.437 18.367 39.341.101.822-.483 1.571-1.306 1.672-.063.006-.125.009-.186.009z" fill="#630000" id="ewj2r2H4mQrLqKG88Z7Zh" />
            <path d="m564.427 118.047c-39.527-24.022-80.435-22.802-122.508 0-4.752 2.823-6.867 25.261-2 23 42.074-22.802 86.981-24.022 126.508 0 4.866 3.047 3.373-20.201-2-23z" fill="#FF806A" id="rwGI_482D29RiNyoQAom" />
            <path d="m454.299 143.284c-44.691 19.26-73.763-37.376-52.299-67.433 18.415-25.789 48.507-23.778 73.266 7.777 21.643-1.753 23.426 2.321 18.471 17.183-4.959 14.881-13.707 31.384-39.438 42.473z" fill="#FFBBA0" id="gboklUwobxwQxFTyrKkZC" />
            <path d="m445.786 133.498s2.747 28.681-1.532 28.681-5.617-25.362-5.617-25.362z" fill="#FFBBA0" id="DFmT3DALdwciB9jfjFO8u" />
            <path d="m438.037 148.734c-.54 0-1.067-.016-1.582-.047-.827-.051-1.456-.762-1.405-1.589s.779-1.46 1.589-1.405c4.349.265 11.273-.787 16.971-3.74.737-.382 1.642-.094 2.022.641.381.735.094 1.641-.641 2.022-4.891 2.534-11.5 4.118-16.954 4.118z" fill="#630000" id="kPR1MYKJ3ijv2WZQyJ7f" />
            <path d="m865.014 684.67c-66.742-23.102-156.191-49.309-391.085-38.085l-143.218 53.83s253.26 119.12 408.445 137.298c242.235 28.373 181.413-143.498 125.858-153.043z" fill="#FFA78E" id="mrTvsVqwa3ymGuqAY65b_" />
            <path d="m595.844 643.904c-31.26.004-83.36.838-121.915 2.681-26.722-28.538-43.678-34.622-86.634-24.788-26.619 6.095-65.961 13.244-121.125 26.283-15.003 3.546-26.998 8.481-36.026 13.16-7.446 3.859-5.213 15.043 3.147 15.713l25.351 2.032 72.068 21.431c.01.005 101.318 47.026 206.651 84.33z" fill="#FFD7BC" id="B1E6slawBLgyKu58ybc8n" />
            <path d="m466.955 700.949h155.548v8h-155.548z" fill="#FFB298" transform="matrix(.4434 -.8963 .8963 .4434 -328.6577 880.6746)" id="QdBBNAc3YpeRcx407RQyf" />
            <path d="m451.176 696.427h149.4v8h-149.4z" fill="#FFB298" transform="matrix(.4434 -.8963 .8963 .4434 -335.0976 861.2592)" id="u93211S99hB6VCuln4ogK" />
            <path d="m537.362 786.245c-.167 0-.335-.028-.501-.086-102.325-36.239-202.448-82.355-206.686-84.338l-71.81-21.354-25.194-2.019c-4.486-.359-7.96-3.438-8.849-7.844-.892-4.419 1.122-8.618 5.131-10.695 11.042-5.723 23.279-10.193 36.371-13.288 34.463-8.146 62.828-14.01 85.62-18.721 13.7-2.832 25.532-5.278 35.515-7.564 41.916-9.595 60.058-4.52 87.589 24.719 38.362-1.813 89.675-2.645 121.294-2.649.501 0 .969.25 1.248.667s.33.945.138 1.408l-58.48 140.839c-.239.574-.796.925-1.386.925zm-118.216-167.383c-8.921 0-19.108 1.556-31.515 4.396-10.015 2.292-21.861 4.742-35.578 7.577-22.773 4.708-51.115 10.566-85.537 18.703-12.853 3.038-24.858 7.422-35.681 13.032-3.389 1.756-4.042 5.104-3.571 7.438.469 2.323 2.36 5.144 6.147 5.447l25.351 2.032c.104.008.208.027.308.057l72.068 21.431c.07.021.139.047.205.078 1.004.466 101.135 46.86 205.179 83.801l57.074-137.45c-31.923.042-82.102.886-119.595 2.678-.437.013-.866-.152-1.167-.473-19.015-20.306-32.913-28.747-53.688-28.747z" fill="#630000" id="jQR4LJwtfMR1KCyeACtmu" />
            <path d="m134.649 687.833c36.982-20.724 170.77-75.107 380.387-76.388l143.218 53.83s-173.195 102.482-378.153 157.117c-71.367 19.024-127.363 18.809-166.865-17.499-43.4-39.889-9.977-94.933 21.413-117.06z" fill="#FFA78E" id="Fwqba_z8sLmdFX6o2Ocey" />
            <path d="m758.82 626.1c-9.028-4.679-21.022-9.613-36.026-13.16-55.164-13.039-94.505-20.188-121.125-26.282-42.956-9.835-60.008-3.75-86.73 24.788-52.578 1.467-113.074 4.345-153.933 11.119l71.032 149.763c121.677-48.154 197.627-90.803 226.215-107.052l72.068-21.431 25.351-2.032c8.361-.67 10.594-11.854 3.148-15.713z" fill="#FFD7BC" id="TMRN8qk4T5itM7iR-2bH" />
            <path d="m424.339 610.607h8v157.45h-8z" fill="#FFB298" transform="matrix(.9023 -.4311 .4311 .9023 -255.3448 252.034)" id="DDHsmMVVb2rTbn5SWxrqK" />
            <path d="m443.191 609.158h8v151.303h-8z" fill="#FFB298" transform="matrix(.9025 -.4306 .4306 .9025 -251.3192 259.336)" id="jKqcUXAK2mCtZG2oWH36" />
            <path d="m432.039 773.828c-.563 0-1.101-.319-1.356-.858l-71.032-149.763c-.202-.425-.192-.92.026-1.338.218-.417.619-.708 1.084-.785 33.261-5.514 83.484-9.152 153.512-11.121 27.573-29.302 45.727-34.385 87.73-24.768 9.98 2.285 21.808 4.729 35.503 7.561 22.794 4.712 51.163 10.576 85.632 18.724 13.092 3.095 25.329 7.565 36.371 13.288 4.009 2.078 6.023 6.276 5.131 10.695-.889 4.406-4.362 7.485-8.849 7.844l-25.193 2.019-71.753 21.337c-25.282 14.371-101.702 57.766-226.255 107.058-.18.073-.367.107-.551.107zm-68.823-150.104 69.576 146.692c123.833-49.099 199.722-92.235 224.72-106.445.099-.056.204-.101.313-.134l72.068-21.431c.101-.03.204-.049.308-.057l25.351-2.032c3.787-.304 5.679-3.124 6.147-5.447.471-2.334-.182-5.682-3.571-7.439-10.823-5.609-22.828-9.994-35.681-13.032-34.428-8.138-62.773-13.998-85.548-18.706-13.712-2.834-25.554-5.282-35.566-7.574-41.363-9.472-58.105-4.691-85.3 24.351-.273.292-.653.463-1.053.474-68.847 1.923-118.533 5.451-151.764 10.78z" fill="#630000" id="QMDGVpufEhCeCmNBgCc7b" />
            <path d="m503.516 265.248c-21.57-.091-42.961 1.082-61.117 2.864-55.562 5.455-107.619 18.572-160.04 91.799l126.807 54.782h188.699l126.807-54.782c-45.807-67.1-104.477-86.344-160.04-91.799-18.155-1.782-39.546-2.773-61.116-2.864z" fill="#FFA78E" id="SOqgeWRstwW77XbJGE6lw" />
            <path d="m614.951 392.514c-2.281-14.441-28.184-121.441-28.184-121.441-8.646-1.552-17.199-2.528-25.772-3.303 6.892 76.489-19.237 81.212-57.018 81.212-38.731 0 113.447 59.189 110.974 43.532z" fill="#630000" id="FPx6jrOUf6TP5ppG6xug" />
            <path d="m200.15 717.585c17.24-25.401 196.03-288.828 196.03-288.828 27.154-73.644-81.213-103.158-113.82-68.845-27.786 42.195-221.151 337.194-221.151 337.194s5.256 44.541 47.448 53.928c53.834 11.978 74.253-8.048 91.493-33.449z" fill="#FFA78E" id="nM3Ic7dRMvfh9KazFnt4D" />
            <path d="m147.041 669.681s-6.109-23.381-41.276-39.672c-18.013-8.345-50.259-14.601-78.835-2.485-32.337 13.71-23.759 45.023 7.254 38.823 7.473-1.494 37.683-6.488 37.745 14.454 15.689 37.843 21.427 32.539 21.427 32.539z" fill="#FFA78E" id="T1hRLnfaR6p1mXxcrTdC1" />
            <path d="m170.349 759.043c22.979-31.289 38.412-54.817 38.412-54.817l-103.508-62.781s-30.488 57.126-42.046 74.907 89.942 66.11 107.142 42.691z" fill="#FFA78E" id="b-Jw0MXYlrQStFmwInsP4" />
            <path d="m61.209 697.106s-5.221 9.45-11.908 8.832c-6.075-.561-10.415-3.297-9.904-18.047.816-23.568-28.085-32.229-37.277-2.101-9.188 30.118 13.05 54.68 36.511 57.957 34.723 4.851 46.96-11.825 55.43-26.043 10.953-18.382-8.502-31.096-32.852-20.598z" fill="#FFA78E" id="UBu6ruX4QqsnQPDLNN9i7" />
            <path d="m128.075 728.728s-45.438 65.373-58.321 79.155c-27.646 29.574-43.164.734-31.996-19.876 10.551-19.472 49.903-73.692 49.903-73.692 15.213-19.198 57.699-12.916 40.414 14.413z" fill="#FFA78E" id="btOlnQUN7bNzeZVZrnD7I" />
            <path d="m34.156 805.467c-.786 0-1.447-.612-1.496-1.408-.349-5.671.993-11.626 3.778-16.766 10.477-19.335 49.614-73.314 50.008-73.857.486-.67 1.423-.821 2.095-.333.671.486.82 1.424.333 2.095-.393.542-39.414 54.362-49.798 73.525-2.521 4.653-3.736 10.034-3.421 15.152.051.827-.578 1.539-1.405 1.589-.032.002-.063.003-.094.003z" fill="#630000" id="NvGUmLB476HhzKnu-OR1N" />
            <path d="m113.874 724.471s-40.463 56.808-48.39 70.045c-19.622 32.766 11.365 50.869 35.046 17.489 10.583-14.917 50.47-71.687 50.47-71.687 9.827-13.633-29.073-25.802-37.126-15.847z" fill="#FFA78E" id="RPCZmvrqEF4wEaj1YtQQ9" />
            <path d="m60.147 821.316c-.636 0-1.227-.408-1.429-1.046-2.325-7.322-.379-16.742 5.479-26.523 6.725-11.23 36.797-53.728 45.854-66.486.479-.675 1.417-.834 2.091-.355.676.479.834 1.416.355 2.091-9.041 12.735-39.058 55.154-45.726 66.291-5.41 9.034-7.254 17.583-5.194 24.074.25.79-.186 1.633-.976 1.884-.151.047-.304.07-.454.07z" fill="#630000" id="qofvTxlcZNVL_AmnXpjCn" />
            <path d="m141.056 735.235s-31.898 42.242-43.194 64.053c-11.296 21.812 9.169 40.13 34.289 10.404 6.804-8.051 26.657-34.83 45.664-60.778z" fill="#FFA78E" id="M1_fW78YTFzvTiS-439cF" />
            <path d="m107.075 690.55c-.005 0-.01 0-.015 0-.828 0-1.499-.673-1.499-1.501s.672-1.499 1.5-1.499h.001.001c.242 0 20.245-.058 31.927-5.622.748-.354 1.643-.038 2 .709.356.748.039 1.643-.709 2-12.246 5.832-32.157 5.913-33.206 5.913z" fill="#630000" id="XzhebSJxN6cOQ9I5i6J2q" />
            <path d="m107.381 826.732c-3.108 0-5.78-.864-7.908-2.289-7.14-4.778-8.35-15.406-2.943-25.845 10.4-17.682 23.286-36.97 39.431-59.038.488-.668 1.428-.814 2.096-.325s.814 1.428.325 2.096c-16.086 21.986-28.917 41.192-39.227 58.717-4.642 8.966-3.84 18.002 1.987 21.901 8.81 5.895 21.594-3.44 29.864-13.227 5.679-6.72 21.021-27.141 45.6-60.696l59.468-86.044c.47-.68 1.405-.853 2.087-.381.681.471.852 1.405.381 2.087l-59.492 86.078c-24.644 33.645-40.029 54.121-45.753 60.894-9.99 11.821-19.023 16.072-25.916 16.072z" fill="#630000" id="GYp8nz2r4K2cKcVshO0kb" />
            <path d="m806.883 717.585c-17.24-25.401-196.03-288.828-196.03-288.828-27.154-73.644 81.213-103.158 113.82-68.845 27.786 42.196 221.151 337.195 221.151 337.195s-5.256 44.541-47.448 53.928c-53.834 11.977-74.253-8.049-91.493-33.45z" fill="#FFA78E" id="MlcTseI3RIGNFDMCauiWL" />
            <path d="m859.586 669.76s6.109-23.381 41.276-39.672c18.013-8.345 50.259-14.601 78.835-2.485 32.337 13.71 23.759 45.023-7.254 38.823-7.474-1.494-37.313-6.662-37.375 14.28-15.689 37.843-21.797 32.714-21.797 32.714z" fill="#FFA78E" id="H_yrwJy_D2HFMhAnTiFh3" />
            <path d="m836.278 759.122c-22.979-31.289-38.412-54.817-38.412-54.817l103.508-62.781s30.488 57.126 42.046 74.907-89.942 66.11-107.142 42.691z" fill="#FFA78E" id="LfaQ5syg0FmydBpymmnIz" />
            <path d="m945.824 697.106s5.294 8.166 11.502 8.911c6.058.727 10.415-3.297 9.904-18.047-.816-23.568 28.085-32.229 37.277-2.101 9.188 30.118-13.05 54.68-36.511 57.957-34.723 4.851-46.96-11.825-55.43-26.043-10.953-18.382 8.907-31.175 33.258-20.677z" fill="#FFA78E" id="E4yhgn00sD1o6ut8AGu3l" />
            <path d="m878.552 728.807s45.438 65.373 58.321 79.155c27.646 29.574 43.164.734 31.996-19.876-10.551-19.472-49.903-73.692-49.903-73.692-15.213-19.198-57.699-12.916-40.414 14.413z" fill="#FFA78E" id="r6jaiJjGIg2UKeG1m4HDX" />
            <path d="m972.471 805.545c-.031 0-.062-.001-.094-.003-.827-.051-1.456-.762-1.405-1.589.315-5.118-.9-10.499-3.421-15.152-10.385-19.164-49.405-72.983-49.798-73.525-.487-.67-.338-1.608.333-2.095.671-.488 1.608-.338 2.095.333.394.543 39.53 54.522 50.008 73.857 2.785 5.141 4.126 11.095 3.777 16.766-.048.796-.709 1.408-1.495 1.408z" fill="#630000" id="XFReSUv9lDFk1Js6wLtbm" />
            <path d="m892.753 724.55s40.463 56.808 48.39 70.045c19.622 32.766-11.365 50.869-35.046 17.489-10.583-14.917-50.47-71.687-50.47-71.687-9.828-13.633 29.073-25.802 37.126-15.847z" fill="#FFA78E" id="uwGWw8oKCTUY6P8OB9eqF" />
            <path d="m946.48 821.394c-.15 0-.303-.023-.455-.071-.79-.251-1.226-1.094-.976-1.884 2.061-6.49.217-15.04-5.193-24.074-6.68-11.154-36.688-53.56-45.727-66.291-.479-.675-.321-1.612.355-2.091.675-.48 1.612-.321 2.091.355 9.054 12.753 39.119 55.238 45.854 66.486 5.858 9.782 7.804 19.202 5.479 26.523-.202.64-.793 1.047-1.428 1.047z" fill="#630000" id="jzkLo_JOSHVNWR2D9Vjxk" />
            <path d="m865.571 735.314s31.898 42.242 43.194 64.053c11.296 21.812-9.169 40.13-34.289 10.404-6.804-8.051-26.657-34.83-45.664-60.778z" fill="#FFA78E" id="I3E-cVwlTzY_jGUtjlBFy" />
            <path d="m899.551 690.629c-1.039 0-20.957-.081-33.205-5.913-.748-.356-1.065-1.251-.709-2 .357-.748 1.25-1.066 2-.709 11.682 5.563 31.685 5.622 31.927 5.622h.001c.828 0 1.5.671 1.5 1.499s-.67 1.5-1.499 1.501c-.004 0-.009 0-.015 0z" fill="#630000" id="yiDEc7AcBmJDHMcIutpPj" />
            <path d="m899.245 826.811c-6.892 0-15.925-4.25-25.915-16.072-7.283-8.618-80.491-108.967-100.139-140.126-.441-.701-.232-1.627.469-2.069.701-.44 1.627-.232 2.069.469 19.607 31.095 92.63 131.197 99.892 139.79 8.271 9.787 21.054 19.121 29.864 13.227 5.827-3.899 6.628-12.935 1.948-21.972-11.108-21.448-38.895-58.257-39.174-58.627-.5-.661-.369-1.601.292-2.101.659-.499 1.601-.37 2.101.292.281.371 28.22 37.383 39.445 59.057 5.407 10.44 4.196 21.068-2.943 25.846-2.128 1.422-4.802 2.286-7.909 2.286z" fill="#630000" id="UMeQtZvprH8czqylPK3B" />
            <path d="m980.135 668.728c-2.533 0-5.207-.276-7.986-.832-.812-.162-1.339-.952-1.177-1.765.162-.812.952-1.342 1.765-1.177 7.097 1.418 13.357.884 18.105-1.547.736-.376 1.641-.086 2.019.652.377.738.085 1.642-.652 2.019-3.439 1.761-7.53 2.65-12.074 2.65z" fill="#630000" id="tXxLCbBjHZMDwFnYM0GEH" />
            <path d="m709.538 339.97c-84.205 31.48-213.589 15.139-267.139-71.858-55.562 5.455-107.619 18.572-160.04 91.8l-160.373 244.482 143.347 92.332 6.638-31.451c46.213-15.783 31.19-49.544 41.72-66.271 10.531-16.727 79.535-158.108 79.535-158.108l219.892.49s74.701 145.47 83.347 158.892c8.396 13.034-6.026 58.638 43.761 67.309l3.794 35.015 147.087-88.96-138.861-211.749s-34.359-54.188-42.708-61.923z" fill="#E4634F" id="GzhNmvxiFkicklltvtD3" />
            <path d="m368.398 440.003c-3.298 21.447 139.483 10.349 139.483 10.349s-100.654-53.243-139.483-10.349z" fill="#E4634F" id="yqbvvHP8mt-7qBCSpE4N" />
            <path d="m435.767 454.726c-30.262 0-60.058-2.056-67.094-9.641-1.445-1.558-2.053-3.394-1.758-5.31.044-.29.173-.561.371-.779 16.277-17.98 45.945-21.908 85.798-11.354 29.838 7.901 55.245 21.25 55.498 21.384.59.312.903.977.768 1.63s-.687 1.139-1.353 1.191c-2.699.21-37.765 2.879-72.23 2.879zm-65.925-14.079c-.022.852.312 1.623 1.031 2.398 11.098 11.964 93.954 8.83 131.426 6.213-20.434-9.79-99.473-44.229-132.457-8.611z" fill="#630000" id="ATS1wp6ROHIl244SOufC9" />
            <path d="m615.779 495.592s1.645-87.422-.828-103.079c-2.281-14.441-202.206-67.211-202.206-67.211s-19.068 52.771-21.349 67.211c-2.473 15.657-.828 103.079-.828 103.079z" fill="#FFA78E" id="e1Tk_fctxEIZyjKNeN6n5" />
            <path d="m615.779 494.426h-225.211l-20 33.024h265.211z" fill="#FF806A" id="zKhD59Fg5q_fyYnNyiaz" />
            <path d="m640.879 452.685c-2.045-25.07-4.562-53.87-5.96-62.211-.951-5.671-4.917-17.438-9.382-29.631-66.841 1.032-141.141-36.792-141.141-36.792l-84.312 1.251s-23.814 54.548-26.734 69.054c-1.099 5.462-2.974 29.537-4.952 45.647 28.68-22.596 175.744 45.354 272.481 12.682z" fill="#E4634F" id="n9TwOBA5HgQGBme9dpyAN" />
            <g fill="#630000" id="Mj6yhieHj8VbKvSODjBKo">
                <path d="m607.692 461.527c-.747 0-1.393-.557-1.487-1.316-.101-.822.483-1.571 1.306-1.672 11.853-1.46 22.918-3.907 32.888-7.274.785-.266 1.636.156 1.901.941s-.157 1.636-.941 1.901c-10.162 3.432-21.427 5.924-33.482 7.409-.062.008-.124.011-.185.011z" fill="#630000" id="nTFOvUmIMml8ygdVEgS-y" />
                <path d="m368.399 441.503c-.444 0-.883-.196-1.179-.572-.513-.651-.401-1.594.25-2.106 5.858-4.616 16.4-5.999 33.18-4.348.824.081 1.427.815 1.346 1.64-.081.824-.814 1.422-1.64 1.346-15.957-1.567-25.818-.387-31.03 3.719-.275.216-.602.321-.927.321z" fill="#630000" id="Q10RmFCkIpgycezChPrIl" />
                <path d="m368.4 441.503c-.061 0-.123-.003-.185-.011-.822-.101-1.407-.85-1.306-1.672.905-7.364 1.798-16.506 2.586-24.572.952-9.742 1.774-18.155 2.384-21.188 2.918-14.497 25.854-67.125 26.83-69.358.331-.759 1.214-1.107 1.975-.774.759.331 1.106 1.215.774 1.975-.237.544-23.783 54.566-26.637 68.75-.581 2.884-1.396 11.228-2.34 20.888-.79 8.083-1.686 17.244-2.595 24.646-.093.759-.74 1.316-1.486 1.316z" fill="#630000" id="hJMkXMrPpKHb3hF86St1X" />
                <path d="m640.877 454.185c-.773 0-1.43-.594-1.494-1.378-2.768-33.932-4.824-55.4-5.944-62.084-.137-.817.415-1.59 1.231-1.728.815-.135 1.59.415 1.728 1.231 1.433 8.549 4.041 38.618 5.976 62.336.067.826-.547 1.55-1.373 1.617-.042.005-.083.006-.124.006z" fill="#630000" id="hk2fkKXXXnLr9ML9_e-rO" />
                <path d="m400.503 528.951c-.128 0-.259-.017-.389-.051-.8-.214-1.275-1.037-1.062-1.837l4.416-16.512 4.416-16.512c.214-.8 1.036-1.276 1.837-1.062.8.214 1.275 1.037 1.062 1.837l-4.416 16.512-4.416 16.512c-.179.67-.785 1.113-1.448 1.113z" fill="#630000" id="r8Db1GyeAwrdPjvIDiUIy" />
                <path d="m440.677 492.977c.801.143 1.333.907 1.191 1.708l-2.944 16.512-2.944 16.512c-.12.67-.675 1.152-1.322 1.208-.126.011-.255.006-.386-.017-.133-.024-.258-.065-.375-.121-.584-.278-.935-.92-.816-1.587l2.944-16.512 2.944-16.512c.144-.8.908-1.334 1.708-1.191z" fill="#630000" id="A7dlWKRmymb8Bnq1ekCX" />
                <path d="m471.633 492.977c.801.072 1.391.778 1.32 1.578l-1.472 16.512-1.472 16.512c-.06.669-.564 1.191-1.195 1.302-.124.022-.252.029-.383.018-.132-.012-.259-.042-.377-.086-.599-.222-1.002-.824-.943-1.492l1.472-16.512 1.472-16.512c.071-.8.777-1.391 1.578-1.32z" fill="#630000" id="c79p3vNIIOdHRBwQm4Z8z" />
                <path d="m502.589 492.977c.802 0 1.449.649 1.449 1.449v16.512 16.512c-.001.669-.454 1.231-1.069 1.397-.121.033-.248.052-.38.052s-.259-.019-.38-.052c-.615-.167-1.068-.729-1.069-1.397v-16.512-16.512c0-.8.648-1.449 1.449-1.449z" fill="#630000" id="qO-Zq9HycnmwpXWClzwnt" />
                <path d="m533.545 492.977c.802-.071 1.507.52 1.578 1.32l1.472 16.512 1.472 16.512c.059.668-.343 1.27-.943 1.492-.119.044-.245.075-.377.086-.131.012-.26.005-.383-.018-.631-.111-1.135-.633-1.195-1.302l-1.472-16.512-1.472-16.512c-.071-.799.519-1.506 1.32-1.578z" fill="#630000" id="eFskmMqLxY2Lj3wFM9i6H" />
                <path d="m564.501 492.977c.802-.142 1.565.39 1.708 1.191l2.944 16.512 2.944 16.512c.119.667-.233 1.31-.816 1.587-.116.056-.242.097-.374.121-.13.023-.26.028-.386.017-.647-.055-1.202-.538-1.322-1.208l-2.944-16.512-2.944-16.512c-.143-.8.389-1.565 1.19-1.708z" fill="#630000" id="lq_9Cokfh-0_HFHatWhJ6" />
                <path d="m604.674 528.951c-.663 0-1.269-.442-1.448-1.113l-4.416-16.512-4.416-16.512c-.214-.8.261-1.623 1.062-1.837.803-.214 1.623.261 1.837 1.062l4.416 16.512 4.416 16.512c.214.8-.261 1.623-1.062 1.837-.13.034-.26.051-.389.051z" fill="#630000" id="eMMY6jB-0G7dyv7aZHSti" />
                <path d="m635.779 528.95h-265.211c-.829 0-1.5-.671-1.5-1.5s.671-1.5 1.5-1.5h265.211c.829 0 1.5.671 1.5 1.5s-.671 1.5-1.5 1.5z" fill="#630000" id="PAAvg5wrmIZ6AjDirg0dk" />
                <path d="m532.913 633.882c-.423 0-.845-.179-1.141-.526l-17.877-20.937c-.406-.476-.475-1.153-.172-1.7.302-.547.917-.848 1.532-.758l15.574 2.303c.82.121 1.386.884 1.265 1.703-.122.82-.886 1.381-1.703 1.265l-11.616-1.717 15.278 17.894c.538.63.463 1.577-.167 2.115-.282.24-.628.358-.973.358z" fill="#630000" id="UWHbP7nuq7N3pegma0SBH" />
                <path d="m271.971 666.776c-.637 0-1.228-.409-1.43-1.049l-6.746-21.372c-.249-.79.189-1.633.979-1.882.793-.248 1.633.189 1.882.979l6.746 21.372c.249.79-.189 1.633-.979 1.882-.15.047-.302.07-.452.07z" fill="#630000" id="V81oMf3tgXbuWAz7s5g6P" />
                <path d="m757.737 669.087h-17.51c-.829 0-1.5-.671-1.5-1.5s.671-1.5 1.5-1.5h17.51c.829 0 1.5.671 1.5 1.5s-.671 1.5-1.5 1.5z" fill="#630000" id="YO43eghciNYsbd0lphiz3" />
                <path d="m26.509 668.646c-4.038 0-7.728-.699-10.908-2.086-.759-.331-1.106-1.215-.775-1.975s1.213-1.106 1.975-.775c4.611 2.011 10.521 2.378 17.091 1.066.813-.167 1.603.364 1.765 1.177.163.812-.364 1.603-1.177 1.765-2.767.552-5.438.828-7.971.828z" fill="#630000" id="GCzGy7wNPkkQYwkfrAPyR" />
            </g>
        </g>
    </g><g transform="translate(1101 215)" data-asset-index="3" id="Hc8-zz0fcsoom7vsXm06v">
        <g clip-path="url(#clipPath_XKuiE4Wn)" transform="scale(0.9997162967266046 0.9997162967266046)" data-asset-index="3" id="LjMGH5bBJpAEEwDlxOeSr">
            <path d="m28.574 55.776 8.431-55.776 7.91 55.776 29.106 6.284-29.106 8.525-7.91 35.745-8.431-35.745-28.574-8.525z" fill="#F05467" id="OtBo-X9arz6sOEMImN4a" />
        </g>
    </g><g transform="translate(324 736)" data-asset-index="4" id="npcq-rnNCpBDDGVoWkKtL">
        <g clip-path="url(#clipPath_HUbBBhFB)" transform="scale(0.9186582186136366 0.9186582186136366)" data-asset-index="4" id="lJsJ2mMcPuRnavuwshBAn">
            <path d="m28.574 55.776 8.431-55.776 7.91 55.776 29.106 6.284-29.106 8.525-7.91 35.745-8.431-35.745-28.574-8.525z" fill="#F0E760" id="PnF1vum3hrYnUwiA64oUF" />
        </g>
    </g><g transform="translate(1166 671)" data-asset-index="5" id="QJQxzspllO6n_2OZPqRw1">
        <g clip-path="url(#clipPath_6krWo2MN)" transform="scale(1.0168788942575488 1.0168788942575488)" data-asset-index="5" id="s_Yl8YvcInFAUslNO8t22">
            <path d="m71.896 192.068-13.541-85.302-58.355 10.883 47.746-34.982-44.709-41.094 56.208 27.673 63.097-69.246-26.997 84.847 59.049 35.928-68.208-10.235zm-11.062-88.815 11.208 70.604 11.695-66.717 56.377 8.46-48.343-29.416 23.556-74.031-55.383 60.781-39.525-19.46 32.045 29.454-40.068 29.357z" fill="#BBDDFA" id="HYST4YsuCfg2Jlu4Stdwp" />
        </g>
    </g></g></g></svg>