<svg viewBox="99.07499999999982 272.1794871794873 3517.1625 3117.692307692307" fill="none" xmlns="http://www.w3.org/2000/svg" xmlns:xlink="http://www.w3.org/1999/xlink" overflow="visible" width="3517.1625px" height="3117.692307692307px"><g id="Master/Spot Illustration/Long Distance Relationship"><g id="Blobs" transform="translate(380 630) scale(1 1)"><g id="Blobs/3"><path id="Path" fill-rule="evenodd" clip-rule="evenodd" d="M1057.02 649.441C1119.38 723.576 1131.99 841.107 1117.65 943.63C1103.14 1046.15 1061.69 1133.49 999.162 1197.68C936.637 1261.87 853.212 1302.91 772.896 1299.84C692.408 1296.58 615.029 1249.21 539.376 1185.02C463.724 1120.83 389.627 1039.82 383.409 952.49C377.363 864.974 439.198 771.311 515.023 697.176C590.675 623.042 680.145 568.435 781.187 556.501C882.229 544.567 994.499 575.306 1057.02 649.441Z" fill="#FCEBEC"/><path id="Path_2" fill-rule="evenodd" clip-rule="evenodd" d="M1883.82 908.251C1999.1 1021.12 2080.44 1238.83 2093.89 1476.61C2107.65 1713.94 2053.83 1971.8 1938.86 2132.4C1823.58 2293.01 1646.83 2356.36 1476.2 2348.33C1305.27 2339.85 1140.14 2259.55 992.45 2098.95C844.755 1938.34 714.184 1697.44 716.019 1459.21C717.854 1220.98 851.788 985.43 999.789 872.562C1147.48 759.247 1308.94 769.062 1464.28 777.984C1619.62 786.907 1768.84 795.383 1883.82 908.251Z" fill="#FFF5F3"/></g></g><g id="Master/Character/Standing" transform="rotate(-21 -228.219 954.432) translate(-228.219 954.432) scale(1 1)"><g id="Master/Character/Standing"><g id="Lower Body/Standing" transform="translate(503 1151) scale(1 1)"><g id="Lower Body/Standing/Dancing"><g id="Group 104"><path id="Stroke 1 (Stroke)" fill-rule="evenodd" clip-rule="evenodd" d="M650.912 523.75C650.912 523.751 650.912 523.751 649.413 523.774C647.913 523.797 647.913 523.796 647.913 523.795L647.911 523.684C647.91 523.61 647.909 523.5 647.907 523.354C647.904 523.063 647.9 522.631 647.895 522.063C647.887 520.928 647.88 519.253 647.884 517.089C647.891 512.761 647.942 506.476 648.115 498.641C648.462 482.971 649.3 461.099 651.264 436.285C655.19 386.692 663.626 325.204 681.706 277.996L684.507 279.069C666.587 325.86 658.176 386.993 654.255 436.521C652.296 461.267 651.46 483.081 651.114 498.707C650.941 506.52 650.891 512.784 650.884 517.094C650.88 519.249 650.887 520.915 650.895 522.042C650.899 522.605 650.904 523.033 650.907 523.32C650.909 523.464 650.91 523.572 650.911 523.644L650.912 523.75Z" fill="#031D1C"/><path id="Fill 3" fill-rule="evenodd" clip-rule="evenodd" d="M149.605 1112C149.605 1112 135.605 1156 126.605 1185C117.605 1214 131.605 1283 175.605 1279C219.605 1275 233.605 1230 233.605 1230C233.605 1230 247.605 1169 249.605 1161C251.605 1153 149.605 1112 149.605 1112" fill="#ecafa3"/><path id="Fill 5" fill-rule="evenodd" clip-rule="evenodd" d="M1072.61 1109.06C1072.61 1109.06 1114.25 1192.54 1125.7 1203.98C1137.15 1215.41 1199.62 1193.68 1216.28 1150.23C1232.94 1106.77 1219.4 1089.62 1219.4 1089.62C1219.4 1089.62 1151.73 998.124 1140.28 986.689C1128.82 975.252 1072.61 1109.06 1072.61 1109.06" fill="#ecafa3"/><path id="Fill 7" fill-rule="evenodd" clip-rule="evenodd" d="M425 0C425 0 357.606 583.996 324.606 658.996C291.606 733.996 175.606 947.996 163.606 1071C163.606 1071 142.606 1115 147.606 1140C152.606 1165 195.606 1234 234.606 1212C273.606 1190 274.606 1179 274.606 1179C274.606 1179 605.606 815.996 620.606 708.996C635.606 601.996 651.606 497.996 651.606 497.996C651.606 497.996 640.606 717.996 707.606 801.996C808.095 927.98 1050.61 1126 1099.61 1115C1148.61 1104 1170.61 1064 1170.61 1006C1170.61 1006 1003.61 755.996 952.606 682.996C901.606 609.996 887.606 589.996 898.606 443.996C909.606 297.996 874 0 874 0H425Z" fill="#165C5D"/><path id="Fill 9" fill-rule="evenodd" clip-rule="evenodd" d="M1231.61 1477.92C1231.61 1477.92 1220.15 1433.19 1207.95 1429.57C1195.76 1425.95 1164.8 1416.72 1164.8 1416.72C1164.8 1416.72 1120.8 1418.71 1118.89 1419.88C1116.99 1421.06 1094.81 1442.15 1094.81 1442.15C1094.81 1442.15 1073.99 1456.09 1076.34 1481.99C1078.69 1507.88 1171.49 1490.41 1171.49 1490.41L1231.61 1477.92Z" fill="#F3CDD5"/><path id="Fill 11" fill-rule="evenodd" clip-rule="evenodd" d="M1306.61 1270C1306.61 1270 1299.52 1443.85 1297.35 1453.09C1295.17 1462.32 1297.61 1493 1291.61 1514C1284.46 1538.99 1237.61 1548 1214.61 1537C1193.55 1526.92 1144.97 1500.07 1113.19 1515C1081.41 1529.94 1080.6 1532.02 1078.33 1529.21C1076.07 1526.41 1070.82 1479.69 1074.17 1472.36C1077.52 1465.02 1091.11 1437.68 1155.39 1448.91C1219.67 1460.15 1280.78 1465.95 1278.65 1438.88C1276.53 1411.8 1282.5 1389.17 1288.57 1378.58" fill="#FEE1E6"/><path id="Fill 13" fill-rule="evenodd" clip-rule="evenodd" d="M1223.75 1319.93C1223.75 1319.93 1216.73 1239.39 1215.58 1219.87C1214.43 1200.34 1210.62 1142.02 1192.61 1154.99C1167.61 1172.99 1120.99 1188.74 1124.98 1199.43C1128.96 1210.11 1137.38 1214.37 1139.73 1251.31C1142.08 1288.24 1106.54 1438.28 1106.54 1438.28C1106.54 1438.28 1166.99 1408.66 1207.67 1447.05L1223.75 1319.93Z" fill="#CD382F"/><path id="Fill 15" fill-rule="evenodd" clip-rule="evenodd" d="M1222.6 1076C1222.6 1076 1258.74 1109.71 1268.6 1152C1278.47 1194.28 1310.77 1269.49 1305.6 1279C1300.44 1288.5 1276.43 1418.63 1276.24 1438.73C1276.06 1458.82 1283.94 1468.15 1223.46 1465.61L1191.59 1424.32C1191.59 1424.32 1230.35 1342.48 1224.02 1283.82C1217.68 1225.15 1181.94 1152.39 1196.6 1137C1211.27 1121.6 1227.76 1077.53 1222.6 1076" fill="#F87786"/><path id="Fill 17" fill-rule="evenodd" clip-rule="evenodd" d="M1118.61 1189C1118.61 1189 1132.39 1358.41 1108.12 1400.78C1083.86 1443.15 1078.78 1464.69 1078.78 1464.69C1078.78 1464.69 1116.27 1435.18 1127.22 1412.1C1138.18 1389.01 1146.15 1355.15 1137.46 1292.68C1128.78 1230.21 1132.1 1182.75 1118.61 1189" fill="#F87786"/><path id="Fill 19" fill-rule="evenodd" clip-rule="evenodd" d="M1249.83 1378.77C1249.83 1378.77 1251.04 1392.37 1247.14 1390.55C1243.24 1388.73 1180.59 1363.63 1180.59 1363.63C1180.59 1363.63 1122.09 1370.58 1114.27 1384.44C1114.27 1384.44 1114.27 1371.8 1117.33 1366.32C1122.91 1356.31 1155.18 1352.61 1155.18 1352.61L1141.44 1347.55L1140.09 1332.61L1181.6 1346.19L1218.58 1345.56L1214.69 1357.96L1213.95 1358.4C1213.95 1358.4 1242.25 1371.18 1249.83 1378.77" fill="#FEE1E6"/><path id="Fill 21" fill-rule="evenodd" clip-rule="evenodd" d="M1249.83 1378.77C1249.83 1378.77 1253.22 1389.31 1249.09 1391.46C1244.96 1393.6 1155.18 1352.61 1155.18 1352.61C1155.18 1352.61 1247.04 1393.32 1248.75 1389.25C1250.46 1385.17 1249.83 1378.77 1249.83 1378.77" fill="#9A3E1F"/><path id="Stroke 23" d="M1181.71 1345.7C1184.38 1346.31 1187.32 1347.17 1190.5 1348.23C1193.17 1349.12 1195.96 1350.14 1198.84 1351.28C1202.55 1352.74 1206.22 1354.3 1209.68 1355.86L1211.18 1356.55C1211.65 1356.76 1212.11 1356.98 1212.54 1357.18L1214.16 1357.95L1213.73 1358.85L1212.53 1358.28L1211.22 1357.67C1210.61 1357.39 1209.96 1357.09 1209.27 1356.78C1205.82 1355.22 1202.17 1353.66 1198.48 1352.21C1195.61 1351.08 1192.83 1350.06 1190.18 1349.18C1187.3 1348.21 1184.6 1347.42 1182.15 1346.83L1181.49 1346.67L1181.71 1345.7Z" fill="#9A3E1F"/><path id="Fill 25" fill-rule="evenodd" clip-rule="evenodd" d="M1239.77 1400.48C1239.77 1400.48 1241.21 1409.61 1237.34 1408.32C1233.47 1407.03 1171.43 1389.07 1171.43 1389.07C1171.43 1389.07 1114.05 1392.66 1106.62 1401.81C1106.62 1401.81 1106.39 1393.34 1109.29 1389.72C1114.6 1383.11 1146.26 1381.22 1146.26 1381.22L1126.22 1376.17L1129.02 1366.82L1172.11 1377.4L1208.35 1376.61L1205.18 1385.94L1204.12 1386.17C1204.12 1386.17 1232.18 1395.25 1239.77 1400.48" fill="#FEE1E6"/><path id="Fill 27" fill-rule="evenodd" clip-rule="evenodd" d="M1239.77 1400.48C1239.77 1400.48 1243.3 1407.6 1239.27 1408.96C1235.25 1410.33 1146.26 1381.22 1146.26 1381.22C1146.26 1381.22 1237.29 1410.17 1238.9 1407.48C1240.5 1404.78 1239.77 1400.48 1239.77 1400.48" fill="#9A3E1F"/><path id="Stroke 29" d="M1172.19 1376.91C1174.85 1377.37 1177.79 1378 1180.96 1378.78C1183.47 1379.4 1186.09 1380.09 1188.79 1380.86C1192.53 1381.92 1196.23 1383.05 1199.74 1384.19L1201.73 1384.84L1204.29 1385.7L1203.96 1386.64L1202.75 1386.23L1200.94 1385.63C1200.46 1385.47 1199.96 1385.31 1199.43 1385.14C1195.94 1384.01 1192.24 1382.88 1188.52 1381.82C1185.83 1381.06 1183.22 1380.37 1180.73 1379.75C1177.85 1379.05 1175.18 1378.47 1172.74 1378.02L1172.02 1377.89L1172.19 1376.91Z" fill="#9A3E1F"/><path id="Fill 31" fill-rule="evenodd" clip-rule="evenodd" d="M1251.76 1345.48C1251.76 1345.48 1252.97 1359.07 1249.07 1357.25C1245.17 1355.44 1182.52 1330.33 1182.52 1330.33C1182.52 1330.33 1126.85 1339.5 1119.03 1353.37C1119.03 1353.37 1118.77 1340.63 1122.08 1335.25C1125.4 1329.88 1157.11 1319.31 1157.11 1319.31L1136.86 1312.33L1139.96 1298.29L1183.53 1312.89L1221.75 1314.14L1220.93 1327.27L1215.87 1325.11C1215.87 1325.11 1244.18 1337.88 1251.76 1345.48" fill="#FEE1E6"/><path id="Fill 33" fill-rule="evenodd" clip-rule="evenodd" d="M1251.76 1345.48C1251.76 1345.48 1255.15 1356.02 1251.02 1358.16C1246.89 1360.31 1157.11 1319.31 1157.11 1319.31C1157.11 1319.31 1248.97 1360.02 1250.68 1355.95C1252.39 1351.88 1251.76 1345.48 1251.76 1345.48" fill="#9A3E1F"/><path id="Stroke 35" d="M1183.64 1312.4C1186.31 1313.02 1189.25 1313.87 1192.43 1314.93C1195.1 1315.82 1197.89 1316.85 1200.77 1317.98C1204.48 1319.44 1208.15 1321.01 1211.61 1322.57L1213.11 1323.25C1213.42 1323.4 1213.73 1323.54 1214.03 1323.68L1216.09 1324.66L1215.66 1325.56L1214.46 1324.99L1213.15 1324.37C1212.54 1324.09 1211.89 1323.79 1211.2 1323.48C1207.75 1321.92 1204.1 1320.37 1200.41 1318.91C1197.54 1317.79 1194.76 1316.77 1192.11 1315.88C1189.23 1314.92 1186.53 1314.13 1184.08 1313.53L1183.42 1313.38L1183.64 1312.4Z" fill="#9A3E1F"/><path id="Fill 37" fill-rule="evenodd" clip-rule="evenodd" d="M1253.35 1308.26C1253.35 1308.26 1256.88 1325.01 1252.71 1323.38C1248.55 1321.75 1182.37 1300.65 1182.37 1300.65C1182.37 1300.65 1125.78 1318.85 1120.44 1337.41C1120.44 1337.41 1118.27 1321.65 1120.35 1314.32C1124.15 1300.92 1155.39 1291.05 1155.39 1291.05L1134.19 1285.65L1134.85 1267.64L1180.38 1278.74L1220.48 1268.65L1222.68 1288.68L1214.42 1288.7C1214.42 1288.7 1244.57 1300.02 1253.35 1308.26" fill="#FEE1E6"/><path id="Fill 39" fill-rule="evenodd" clip-rule="evenodd" d="M1253.35 1308.26C1253.35 1308.26 1258.51 1320.85 1254.8 1324.2C1251.08 1327.55 1155.39 1291.05 1155.39 1291.05C1155.39 1291.05 1253.09 1326.85 1254.08 1321.49C1255.07 1316.14 1253.35 1308.26 1253.35 1308.26" fill="#9A3E1F"/><path id="Stroke 41" d="M1180.44 1278.25C1183.42 1278.61 1186.79 1279.27 1190.46 1280.19C1193.64 1280.99 1197 1281.97 1200.46 1283.09C1203.5 1284.08 1206.49 1285.12 1209.31 1286.18L1210.52 1286.63C1211.15 1286.87 1211.75 1287.1 1212.31 1287.32L1213.74 1287.89L1214.61 1288.24L1214.23 1289.17L1213.14 1288.73L1211.95 1288.25C1211.39 1288.04 1210.79 1287.81 1210.16 1287.57C1207 1286.36 1203.61 1285.16 1200.15 1284.04C1196.71 1282.93 1193.37 1281.95 1190.21 1281.16C1186.84 1280.31 1183.73 1279.69 1180.95 1279.32L1180.32 1279.24L1180.44 1278.25Z" fill="#9A3E1F"/><path id="Fill 43" fill-rule="evenodd" clip-rule="evenodd" d="M1249.55 1266.44C1249.55 1266.44 1253.08 1283.18 1248.91 1281.55C1244.75 1279.92 1178.57 1258.83 1178.57 1258.83C1178.57 1258.83 1129.41 1270.32 1124.06 1288.88C1124.06 1288.88 1121.62 1273.03 1123.97 1265.79C1126.33 1258.55 1151.59 1249.23 1151.59 1249.23L1130.39 1243.82L1131.05 1225.81L1176.58 1236.91L1216.68 1226.82L1218.88 1246.86L1210.62 1246.88C1210.62 1246.88 1240.77 1258.2 1249.55 1266.44" fill="#FEE1E6"/><path id="Fill 45" fill-rule="evenodd" clip-rule="evenodd" d="M1249.55 1266.43C1249.55 1266.43 1254.71 1279.02 1251 1282.37C1247.28 1285.72 1151.59 1249.22 1151.59 1249.22C1151.59 1249.22 1249.29 1285.02 1250.28 1279.67C1251.27 1274.31 1249.55 1266.43 1249.55 1266.43" fill="#9A3E1F"/><path id="Stroke 47" d="M1176.64 1236.42C1179.63 1236.78 1182.99 1237.44 1186.66 1238.36C1189.84 1239.16 1193.2 1240.14 1196.66 1241.26C1200.14 1242.39 1203.54 1243.6 1206.72 1244.8L1208.52 1245.5L1209.94 1246.06L1210.81 1246.41L1210.43 1247.34L1209.35 1246.9L1208.15 1246.43C1207.73 1246.26 1207.29 1246.09 1206.83 1245.92L1206.36 1245.74C1203.2 1244.54 1199.82 1243.34 1196.35 1242.21C1192.91 1241.1 1189.57 1240.13 1186.41 1239.33C1183.04 1238.49 1179.94 1237.86 1177.16 1237.49L1176.52 1237.41L1176.64 1236.42Z" fill="#9A3E1F"/><g id="Group 51"><mask id="mask0_406_14508b4ee4519-5d63-42c7-a836-c69e284637ea" style="mask-type:luminance" maskUnits="userSpaceOnUse" x="1241" y="1198" width="152" height="263" fill="#ffffff"><path id="Clip 50" fill-rule="evenodd" clip-rule="evenodd" d="M1241.2 1198.62H1392.76V1460.21H1241.2V1198.62Z" fill="#ffffff"/></mask><g mask="url(#mask0_406_14508b4ee4519-5d63-42c7-a836-c69e284637ea)"><path id="Fill 49" fill-rule="evenodd" clip-rule="evenodd" d="M1244.39 1198.62C1244.39 1198.62 1238.15 1207.22 1243.13 1217.82C1243.13 1217.82 1256.62 1211.57 1265.12 1238.91C1273.63 1266.26 1259.14 1383.05 1284.21 1426.96C1309.29 1470.87 1388.51 1458.65 1388.51 1458.65C1388.51 1458.65 1399.28 1455.67 1386.52 1447.79C1386.52 1447.79 1333.06 1459.86 1304.76 1432.12C1281.92 1409.73 1285.84 1334.13 1280.78 1289.7C1276.12 1248.77 1279.79 1201.43 1244.39 1198.62" fill="#FEE1E6"/></g></g><path id="Fill 52" fill-rule="evenodd" clip-rule="evenodd" d="M149.606 1112C149.606 1112 133.086 1140.32 169.846 1184.66C206.606 1229 256.606 1224 282.606 1174C282.606 1174 185.606 1173 163.606 1071C163.606 1071 151.606 1101 149.606 1112" fill="#46AFAC"/><path id="Fill 54" fill-rule="evenodd" clip-rule="evenodd" d="M1041.15 1099.72C1041.15 1099.72 1101.51 1139.96 1142.06 1094.98C1182.61 1050 1172.61 1009 1170.61 1001C1168.61 992.995 1145.51 966.902 1145.51 966.902C1145.51 966.902 1125.7 1074.44 1041.15 1099.72" fill="#46AFAC"/><path id="Fill 56" fill-rule="evenodd" clip-rule="evenodd" d="M156.141 1345.94C156.141 1345.94 155.844 1265.1 155.224 1245.55C154.605 1226 145.605 1201 167.605 1198C189.605 1195 246.605 1206 243.605 1217C240.605 1228 232.605 1233 233.605 1270C234.605 1307 283.577 1453.2 283.577 1453.2C283.577 1453.2 220.686 1429.17 183.645 1471.08L156.141 1345.94Z" fill="#CD382F"/><path id="Fill 58" fill-rule="evenodd" clip-rule="evenodd" d="M133.606 1163C133.606 1163 114.606 1165 108.606 1208C102.606 1251 93.6056 1409 99.6056 1418C105.606 1427 112.606 1449 114.606 1469C116.606 1489 109.606 1499 169.606 1491L197.606 1447C197.606 1447 153.606 1370 154.606 1311C155.606 1252 156.606 1223 140.606 1209C124.606 1195 128.606 1179 133.606 1163" fill="#F87786"/><path id="Fill 60" fill-rule="evenodd" clip-rule="evenodd" d="M250.606 1218C250.606 1218 250.606 1376 278.606 1416C306.606 1456 313.606 1477 313.606 1477C313.606 1477 273.606 1451 260.606 1429C247.606 1407 225.606 1375 228.606 1312C231.606 1249 236.606 1213 250.606 1218" fill="#F87786"/><path id="Fill 62" fill-rule="evenodd" clip-rule="evenodd" d="M135.492 1406.9C135.492 1406.9 135.511 1420.54 139.232 1418.38C142.953 1416.22 203.077 1385.55 203.077 1385.55C203.077 1385.55 261.966 1387.18 271.003 1400.28C271.003 1400.28 269.863 1387.69 266.324 1382.51C259.852 1373.04 227.382 1372.28 227.382 1372.28L240.606 1366V1351L200.493 1368.27L163.606 1371L168.606 1383L169.383 1383.36C169.383 1383.36 142.347 1398.65 135.492 1406.9" fill="#FEE1E6"/><path id="Fill 64" fill-rule="evenodd" clip-rule="evenodd" d="M135.491 1406.9C135.491 1406.9 133.062 1417.7 137.37 1419.46C141.679 1421.23 227.381 1372.28 227.381 1372.28C227.381 1372.28 139.58 1421.13 137.511 1417.23C135.442 1413.33 135.491 1406.9 135.491 1406.9" fill="#9A3E1F"/><path id="Stroke 66" d="M200.336 1367.8L200.648 1368.75C198.226 1369.54 195.57 1370.57 192.718 1371.81C190.307 1372.85 187.785 1374.03 185.183 1375.32C181.444 1377.17 177.728 1379.16 174.205 1381.15L173.176 1381.73C172.676 1382.01 172.198 1382.29 171.743 1382.55L170.159 1383.48L169.641 1383.79L169.123 1382.94L169.869 1382.49L171.241 1381.69C172.003 1381.25 172.829 1380.77 173.714 1380.27C177.251 1378.28 180.983 1376.29 184.739 1374.42C187.355 1373.13 189.893 1371.94 192.321 1370.89C194.937 1369.76 197.393 1368.79 199.661 1368.02L200.336 1367.8Z" fill="#9A3E1F"/><path id="Fill 68" fill-rule="evenodd" clip-rule="evenodd" d="M147.474 1427.6C147.474 1427.6 146.864 1436.83 150.599 1435.2C154.335 1433.56 214.498 1410.06 214.498 1410.06C214.498 1410.06 271.965 1408.45 280.193 1416.89C280.193 1416.89 279.658 1408.43 276.438 1405.09C270.551 1398.99 238.858 1399.97 238.858 1399.97L258.352 1393.13L254.726 1384.07L212.769 1398.5L176.606 1401L180.606 1410L181.675 1410.13C181.675 1410.13 154.552 1421.71 147.474 1427.6" fill="#FEE1E6"/><path id="Fill 70" fill-rule="evenodd" clip-rule="evenodd" d="M147.473 1427.6C147.473 1427.6 144.602 1435.02 148.731 1436.01C152.859 1437.01 238.857 1399.97 238.857 1399.97C238.857 1399.97 150.813 1437.04 148.971 1434.5C147.129 1431.95 147.473 1427.6 147.473 1427.6" fill="#9A3E1F"/><path id="Stroke 72" d="M212.639 1398.02L212.899 1398.98C210.415 1399.65 207.677 1400.5 204.727 1401.51C202.586 1402.24 200.355 1403.05 198.056 1403.92C194.751 1405.17 191.443 1406.5 188.249 1407.84L186.662 1408.51C185.926 1408.82 185.228 1409.12 184.572 1409.4L182.904 1410.13L181.881 1410.59L181.469 1409.68L182.764 1409.1L184.173 1408.49C184.832 1408.2 185.533 1407.9 186.271 1407.58C189.961 1406.02 193.833 1404.45 197.703 1402.98C200.011 1402.11 202.251 1401.3 204.403 1400.56C207.103 1399.64 209.628 1398.85 211.949 1398.2L212.639 1398.02Z" fill="#9A3E1F"/><path id="Fill 74" fill-rule="evenodd" clip-rule="evenodd" d="M130.559 1373.92C130.559 1373.92 130.578 1387.56 134.299 1385.4C138.02 1383.24 198.144 1352.57 198.144 1352.57C198.144 1352.57 254.416 1356.67 263.454 1369.77C263.454 1369.77 262.563 1357.05 258.774 1352C254.985 1346.95 222.449 1339.3 222.449 1339.3L241.984 1330.51L237.628 1316.81L195.56 1335.29L157.607 1340L159.607 1353L164.45 1350.38C164.45 1350.38 137.414 1365.66 130.559 1373.92" fill="#FEE1E6"/><path id="Fill 76" fill-rule="evenodd" clip-rule="evenodd" d="M130.557 1373.92C130.557 1373.92 128.128 1384.72 132.436 1386.48C136.745 1388.25 222.447 1339.3 222.447 1339.3C222.447 1339.3 134.646 1388.15 132.577 1384.25C130.508 1380.35 130.557 1373.92 130.557 1373.92" fill="#9A3E1F"/><path id="Stroke 78" d="M195.403 1334.81L195.714 1335.76C193.293 1336.56 190.637 1337.59 187.784 1338.82C185.373 1339.87 182.851 1341.05 180.25 1342.34C176.511 1344.19 172.794 1346.18 169.271 1348.16L168.243 1348.75C167.742 1349.03 167.264 1349.31 166.809 1349.57L164.707 1350.81L164.189 1349.95L165.172 1349.37L166.307 1348.7C167.069 1348.26 167.896 1347.79 168.78 1347.29C172.318 1345.3 176.049 1343.3 179.806 1341.44C182.422 1340.14 184.959 1338.96 187.387 1337.91C190.004 1336.77 192.46 1335.81 194.728 1335.04L195.403 1334.81Z" fill="#9A3E1F"/><path id="Fill 80" fill-rule="evenodd" clip-rule="evenodd" d="M125.605 1337C125.605 1337 123.605 1354 127.605 1352C131.605 1350 195.605 1323 195.605 1323C195.605 1323 253.605 1336 260.605 1354C260.605 1354 261.339 1338.1 258.605 1331C253.605 1318 221.605 1311 221.605 1311L242.225 1303.69L239.943 1285.82L195.605 1301L154.755 1294.57L154.374 1314.72L162.605 1314C162.605 1314 133.605 1328 125.605 1337" fill="#FEE1E6"/><path id="Fill 82" fill-rule="evenodd" clip-rule="evenodd" d="M125.606 1337C125.606 1337 121.606 1350 125.606 1353C129.606 1356 221.606 1311 221.606 1311C221.606 1311 127.545 1355.48 126.075 1350.24C124.606 1345 125.606 1337 125.606 1337" fill="#9A3E1F"/><path id="Stroke 84" d="M195.501 1300.51L195.711 1301.48C192.967 1302.07 189.907 1302.96 186.585 1304.1C183.732 1305.08 180.733 1306.24 177.637 1307.54C174.031 1309.05 170.482 1310.66 167.144 1312.28L166.17 1312.76C165.697 1312.99 165.245 1313.21 164.816 1313.43L163.325 1314.19L162.839 1314.44L162.373 1313.55L163.536 1312.95L164.807 1312.32C165.402 1312.02 166.037 1311.71 166.708 1311.38C170.061 1309.76 173.626 1308.13 177.251 1306.61C180.365 1305.31 183.385 1304.14 186.259 1303.16C189.358 1302.09 192.237 1301.24 194.853 1300.65L195.501 1300.51Z" fill="#9A3E1F"/><path id="Fill 86" fill-rule="evenodd" clip-rule="evenodd" d="M125.605 1295C125.605 1295 123.605 1312 127.605 1310C131.605 1308 195.605 1281 195.605 1281C195.605 1281 245.605 1288 252.605 1306C252.605 1306 253.605 1290 250.605 1283C247.605 1276 221.605 1269 221.605 1269L242.225 1261.69L239.943 1243.82L195.605 1259L154.755 1252.57L154.374 1272.72L162.605 1272C162.605 1272 133.605 1286 125.605 1295" fill="#FEE1E6"/><path id="Fill 88" fill-rule="evenodd" clip-rule="evenodd" d="M125.606 1295C125.606 1295 121.606 1308 125.606 1311C129.606 1314 221.606 1269 221.606 1269C221.606 1269 127.545 1313.48 126.075 1308.24C124.606 1303 125.606 1295 125.606 1295" fill="#9A3E1F"/><path id="Stroke 90" d="M195.501 1258.51L195.711 1259.48C192.967 1260.07 189.907 1260.96 186.585 1262.1C183.732 1263.08 180.733 1264.24 177.637 1265.54C174.031 1267.05 170.482 1268.66 167.144 1270.28L166.17 1270.76C165.697 1270.99 165.245 1271.21 164.816 1271.43L163.325 1272.19L162.839 1272.44L162.373 1271.55L163.536 1270.95L164.807 1270.32C165.402 1270.02 166.037 1269.71 166.708 1269.38C170.061 1267.76 173.626 1266.13 177.251 1264.61C180.365 1263.31 183.385 1262.14 186.259 1261.16C189.358 1260.09 192.237 1259.24 194.853 1258.65L195.501 1258.51Z" fill="#9A3E1F"/><path id="Fill 92" fill-rule="evenodd" clip-rule="evenodd" d="M193.606 1555C193.606 1555 298.378 1554.98 317.492 1549.99C317.492 1549.99 332.606 1548 305.606 1532C278.606 1516 225.606 1518 223.606 1519C221.606 1520 186.606 1546 193.606 1555" fill="#F0B6AF"/><path id="Fill 94" fill-rule="evenodd" clip-rule="evenodd" d="M162.605 1504C162.605 1504 169.97 1458.4 181.788 1453.7C193.605 1449 223.605 1437 223.605 1437C223.605 1437 267.605 1435 269.605 1436C271.605 1437 295.605 1456 295.605 1456C295.605 1456 317.605 1468 317.605 1494C317.605 1520 223.605 1511 223.605 1511L162.605 1504Z" fill="#F3CDD5"/><g id="Group 98"><mask id="mask1_406_14508b4ee4519-5d63-42c7-a836-c69e284637ea" style="mask-type:luminance" maskUnits="userSpaceOnUse" x="96" y="1417" width="229" height="140" fill="#ffffff"><path id="Clip 97" fill-rule="evenodd" clip-rule="evenodd" d="M96.6465 1418H324.355V1556.59H96.6465V1418Z" fill="#ffffff"/></mask><g mask="url(#mask1_406_14508b4ee4519-5d63-42c7-a836-c69e284637ea)"><path id="Fill 96" fill-rule="evenodd" clip-rule="evenodd" d="M99.6051 1418C99.6051 1418 94.6051 1484 97.6051 1493C100.605 1502 108.605 1505 108.605 1531C108.605 1557 170.605 1559 193.605 1555C216.605 1551 253.605 1526 286.605 1538C319.605 1550 320.605 1552 322.605 1549C324.605 1546 325.605 1499 321.605 1492C317.605 1485 301.605 1459 238.605 1476C175.605 1493 115.262 1504.3 114.934 1477.15C114.605 1450 106.605 1428 99.6051 1418" fill="#FEE1E6"/></g></g><g id="Group 101"><mask id="mask2_406_14508b4ee4519-5d63-42c7-a836-c69e284637ea" style="mask-type:luminance" maskUnits="userSpaceOnUse" x="0" y="1226" width="129" height="274" fill="#ffffff"><path id="Clip 100" fill-rule="evenodd" clip-rule="evenodd" d="M0 1227H128.84V1499.15H0V1227Z" fill="#ffffff"/></mask><g mask="url(#mask2_406_14508b4ee4519-5d63-42c7-a836-c69e284637ea)"><path id="Fill 99" fill-rule="evenodd" clip-rule="evenodd" d="M124.606 1227C124.606 1227 131.606 1235 127.606 1246C127.606 1246 113.606 1241 107.606 1269C101.606 1297 126.606 1412 105.606 1458C84.6055 1504 4.60554 1499 4.60554 1499C4.60554 1499 -6.39446 1497 5.60554 1488C5.60554 1488 58.6055 1494 85.6055 1465C112.606 1436 100.606 1362 96.6055 1321C92.6055 1280 89.6055 1233 124.606 1227" fill="#FEE1E6"/></g></g></g></g></g><g id="Upper Body" transform="translate(376 277) scale(1 1)"><g id="Upper Body/Relaxed"><g id="Hand1"><path id="Fill 1" fill-rule="evenodd" clip-rule="evenodd" d="M219.607 1021.89C219.607 1021.89 213.4 1045.32 148.768 1042.86C114.66 1041.57 62.5171 1066.1 59.7308 1049.74C56.9445 1033.38 122.86 1009.15 122.86 1009.15C122.86 1009.15 82.6864 1006.49 49.0326 1014.52C15.3775 1022.55 -13.4136 1027.59 -13.4136 1027.59C-13.4136 1027.59 -29.6149 1023.79 -20.1077 1013.25C-10.601 1002.72 -4.60801 1002.43 -4.60801 1002.43C-4.60801 1002.43 -13.9051 996.464 -6.26478 988.769C1.37608 981.073 4.37283 980.929 4.37283 980.929C4.37283 980.929 -1.88363 975.732 4.80125 968.999C11.4872 962.265 19.4777 961.881 19.4777 961.881C19.4777 961.881 16.218 956.54 28.029 952.31C39.84 948.079 102.934 927.647 131.033 929.048C159.133 930.45 220.016 946.175 220.016 946.175C220.016 946.175 234.627 1013.93 219.607 1021.89" fill="#ecafa3"/><path id="Path 2" d="M-5 1000.98L-4.21302 1003.88L1.48797 1002.34C36.3589 992.96 62.3903 986.929 79.5602 984.247L80.6556 984.078L80.2072 981.112L78.5422 981.37C60.489 984.234 33.0348 990.667 -3.84445 1000.67L-5 1000.98Z" fill="#995B5D"/><path id="Path 2 Copy" d="M3.91016 978.678L4.66355 981.603L10.1212 980.045C43.5039 970.571 68.4244 964.479 84.8615 961.769L85.9102 961.599L85.4808 958.603L83.8869 958.863C66.6042 961.756 40.3217 968.255 5.01639 978.361L3.91016 978.678Z" fill="#995B5D"/><path id="Path 2 Copy 2" d="M19.9102 959.678L20.5809 962.603L25.4395 961.045C55.1583 951.571 77.3436 945.479 91.9766 942.769L92.9102 942.599L92.528 939.603L91.109 939.863C75.7231 942.756 52.3253 949.255 20.895 959.361L19.9102 959.678Z" fill="#995B5D"/></g><path id="Neck" fill-rule="evenodd" clip-rule="evenodd" d="M724.954 220C724.954 220 721.263 301.153 673.924 329.8C630.973 355.791 721.969 506.61 819.858 497.614C873.442 492.688 886 346.158 886 346.158C886 346.158 842.734 337.797 858.716 271.819L724.954 220Z" fill="#ecafa3"/><path id="Head" fill-rule="evenodd" clip-rule="evenodd" d="M803.337 302.516C739.877 294.841 694.078 253.116 687.665 183.898C669.216 186.835 664.865 138.765 670.003 123.323C675.146 107.859 691.933 116.901 691.933 116.901C691.933 116.901 693.327 113.235 694.303 109.226C722.025 -4.48555 799.67 0.0243587 799.67 0.0243587C942.344 7.45716 908.914 153.12 900.763 191.763C892.611 230.41 864.684 309.927 803.337 302.516Z" fill="#ecafa3"/><g id="Group 63"><path id="Fill 3" fill-rule="evenodd" clip-rule="evenodd" d="M1509.38 983.669C1509.05 983.683 1508.73 983.696 1508.41 983.696C1508.73 983.942 1509.03 984.216 1509.31 984.489C1510.05 985.173 1510.74 985.939 1511.35 986.773L1531.23 1013.55C1536.78 1021.03 1535.22 1031.58 1527.74 1037.13C1521 1042.14 1511.75 1041.34 1505.94 1035.64C1509.46 1042.81 1507.49 1051.68 1500.86 1056.62C1494.74 1061.16 1486.52 1060.93 1480.71 1056.56C1483.4 1063.46 1481.28 1071.57 1475.05 1076.19C1468.31 1081.21 1459.05 1080.4 1453.24 1074.7C1456.77 1081.86 1454.8 1090.75 1448.17 1095.68C1440.7 1101.23 1430.15 1099.66 1424.61 1092.19L1404.73 1065.41C1403.4 1063.63 1402.5 1061.68 1401.97 1059.67L1363 993.338C1364.63 992.121 1366.3 990.698 1367.98 989.03C1382.22 974.943 1429.49 932.465 1443.3 915L1449.67 922.276C1449.66 922.194 1449.65 922.112 1449.65 922.03C1449.65 922.03 1484.98 943.501 1510.57 944.062C1536.17 944.623 1575.6 930.919 1577.9 945.676C1580.49 962.388 1533.51 982.835 1509.38 983.669" fill="#ecafa3"/><path id="Fill 5" fill-rule="evenodd" clip-rule="evenodd" d="M135.992 927.185C135.992 927.185 368.677 545.401 452.679 455.018C536.682 364.636 525.219 344.712 671.309 331.812C671.309 331.812 666.408 412.485 761.044 428.435C855.679 444.385 873.196 349.717 863.374 328.998C863.374 328.998 995.242 368.624 1049.34 412.486C1103.43 456.347 1451.45 922.185 1451.45 922.185L1370.99 1007.54C1370.99 1007.54 1002.55 580.622 996.704 611.325C991.042 641.047 1061.49 949.938 1051.05 973.794C1050.7 974.582 1050.27 975.059 1049.74 975.205C1040.22 977.837 929.167 1034.97 776.256 1034.97C623.345 1034.97 520.372 1007.54 520.372 1007.13C520.372 1007.13 591.687 631.801 571.232 615.715C550.776 599.629 309.525 969.118 224.732 998.565L135.992 927.185Z" fill="#56ACF6"/><path id="Fill 7" fill-rule="evenodd" clip-rule="evenodd" d="M450.932 518.679L450.016 509.404L498.438 504.622L499.354 513.897L450.932 518.679Z" fill="#204EB2"/><path id="Fill 9" fill-rule="evenodd" clip-rule="evenodd" d="M727.834 666.352L726.918 657.077L775.339 652.295L776.255 661.57L727.834 666.352Z" fill="#204EB2"/><path id="Fill 11" fill-rule="evenodd" clip-rule="evenodd" d="M643.67 582.952L635.434 534.997L644.62 533.419L652.857 581.375L643.67 582.952Z" fill="#204EB2"/><path id="Fill 13" fill-rule="evenodd" clip-rule="evenodd" d="M488.439 629.568L480.223 625.167L503.201 582.277L511.417 586.678L488.439 629.568Z" fill="#204EB2"/><path id="Fill 15" fill-rule="evenodd" clip-rule="evenodd" d="M911.447 861.937L910.531 852.662L958.953 847.88L959.869 857.155L911.447 861.937Z" fill="#204EB2"/><path id="Fill 17" fill-rule="evenodd" clip-rule="evenodd" d="M918.548 559.936L885.871 523.884L892.777 517.624L925.454 553.676L918.548 559.936Z" fill="#204EB2"/><path id="Fill 19" fill-rule="evenodd" clip-rule="evenodd" d="M1298.93 833.141L1298.02 823.866L1346.44 819.084L1347.35 828.359L1298.93 833.141Z" fill="#204EB2"/><path id="Fill 21" fill-rule="evenodd" clip-rule="evenodd" d="M667.963 841.182L667.047 831.907L715.468 827.125L716.384 836.4L667.963 841.182Z" fill="#204EB2"/><path id="Fill 23" fill-rule="evenodd" clip-rule="evenodd" d="M315.492 767.211L313.273 758.158L360.532 746.576L362.751 755.628L315.492 767.211Z" fill="#204EB2"/><path id="Fill 25" fill-rule="evenodd" clip-rule="evenodd" d="M254.256 905.425L229.652 863.446L237.694 858.734L262.297 900.712L254.256 905.425Z" fill="#204EB2"/><path id="Fill 27" fill-rule="evenodd" clip-rule="evenodd" d="M1075.9 600.093L1074.98 590.818L1123.4 586.036L1124.32 595.311L1075.9 600.093Z" fill="#204EB2"/><path id="Fill 29" fill-rule="evenodd" clip-rule="evenodd" d="M658.814 438.368L657.898 429.093L706.32 424.311L707.236 433.586L658.814 438.368Z" fill="#204EB2"/><path id="Fill 31" fill-rule="evenodd" clip-rule="evenodd" d="M1329.23 928.125L1319.91 927.923L1320.97 879.277L1330.29 879.479L1329.23 928.125Z" fill="#204EB2"/><path id="Fill 33" fill-rule="evenodd" clip-rule="evenodd" d="M1172.82 734.009L1148.03 692.144L1156.05 687.394L1180.84 729.259L1172.82 734.009Z" fill="#204EB2"/><path id="Fill 35" fill-rule="evenodd" clip-rule="evenodd" d="M1399.41 934.711L1374.61 892.846L1382.63 888.096L1407.43 929.961L1399.41 934.711Z" fill="#204EB2"/><path id="Fill 37" fill-rule="evenodd" clip-rule="evenodd" d="M813.093 785.156L788.297 743.291L796.316 738.541L821.113 780.406L813.093 785.156Z" fill="#204EB2"/><path id="Fill 39" fill-rule="evenodd" clip-rule="evenodd" d="M615.323 969.284L590.527 927.419L598.546 922.669L623.343 964.534L615.323 969.284Z" fill="#204EB2"/><path id="Fill 41" fill-rule="evenodd" clip-rule="evenodd" d="M576.112 478.276L551.316 436.411L559.335 431.661L584.132 473.526L576.112 478.276Z" fill="#204EB2"/><path id="Fill 43" fill-rule="evenodd" clip-rule="evenodd" d="M414.148 682.863L389.352 640.998L397.371 636.248L422.168 678.113L414.148 682.863Z" fill="#204EB2"/><path id="Fill 45" fill-rule="evenodd" clip-rule="evenodd" d="M600.892 737.555L594.52 730.753L630.03 697.488L636.402 704.29L600.892 737.555Z" fill="#204EB2"/><path id="Fill 47" fill-rule="evenodd" clip-rule="evenodd" d="M889.017 689.818L882.645 683.016L918.155 649.751L924.527 656.553L889.017 689.818Z" fill="#204EB2"/><path id="Fill 49" fill-rule="evenodd" clip-rule="evenodd" d="M771.38 950.666L765.008 943.864L800.518 910.599L806.89 917.401L771.38 950.666Z" fill="#204EB2"/><path id="Fill 51" fill-rule="evenodd" clip-rule="evenodd" d="M1221.47 804.046L1215.1 797.244L1250.61 763.979L1256.98 770.781L1221.47 804.046Z" fill="#204EB2"/><path id="Fill 53" fill-rule="evenodd" clip-rule="evenodd" d="M769.677 539.788L763.305 532.986L798.815 499.721L805.187 506.523L769.677 539.788Z" fill="#204EB2"/><path id="Fill 55" fill-rule="evenodd" clip-rule="evenodd" d="M1020.29 526.149L1013.92 519.347L1049.43 486.082L1055.8 492.884L1020.29 526.149Z" fill="#204EB2"/><path id="Fill 57" fill-rule="evenodd" clip-rule="evenodd" d="M1495.49 997.235L1495.44 997.835C1495.23 997.635 1495.01 997.435 1494.78 997.255C1495.01 997.255 1495.25 997.245 1495.49 997.235" fill="#ecafa3"/></g></g></g><g id="Expression" transform="translate(1098 360) scale(1 1)"><g id="Expression/Happy"><g id="Group 124"><path id="Stroke 114" d="M123.94 52.5157L127.749 53.7377L127.377 54.9309C127.077 55.9043 126.744 57.0179 126.384 58.2529C125.356 61.7838 124.327 65.5761 123.368 69.4789C122.301 73.8176 121.387 78.025 120.672 81.9977L120.465 83.174C118.727 93.2776 118.482 100.993 120.034 105.142L120.126 105.377C129.004 127.34 116.948 138.478 91.6439 130.679L90.873 130.437L92.0921 126.627C114.886 133.921 124.027 125.703 116.417 106.876C114.322 101.694 114.645 92.8993 116.735 81.289C117.466 77.2272 118.398 72.9394 119.483 68.524C120.349 65.0028 121.269 61.5728 122.196 58.3381L122.543 57.1345C122.752 56.4176 122.952 55.7406 123.143 55.1068L123.631 53.5024L123.94 52.5157Z" fill="black"/><path id="Stroke 122" d="M25.1855 205.534L27.1425 202.046L27.8567 202.435L28.5118 202.783C29.5036 203.305 30.6327 203.881 31.8877 204.498L32.4332 204.765C36.6543 206.821 41.3224 208.878 46.301 210.798C57.7489 215.212 69.0606 218.225 79.5848 219.202C84.3541 219.645 88.8741 219.656 93.1069 219.202L93.9496 219.105L94.4385 223.075C89.6635 223.663 84.5751 223.683 79.2149 223.185C68.2771 222.169 56.6257 219.066 44.8619 214.53C39.7712 212.567 35.0001 210.465 30.6815 208.361L29.0484 207.554C28.354 207.206 27.7021 206.873 27.0948 206.556L25.9633 205.958L25.1855 205.534Z" fill="black"/></g><g id="Group 16"><path id="Fill 3" fill-rule="evenodd" clip-rule="evenodd" d="M94.7153 165.02C76.4873 160.136 64.9813 148.104 64.443 147.532C63.3072 146.327 63.3646 144.428 64.5708 143.291C65.7746 142.156 67.674 142.212 68.8105 143.418C69.0384 143.657 82.5828 157.683 102.678 160.536C104.307 160.767 105.459 162.287 105.227 163.928C104.995 165.568 103.475 166.71 101.835 166.476C99.3642 166.127 96.9862 165.628 94.7153 165.02" fill="black"/><path id="Fill 5" fill-rule="evenodd" clip-rule="evenodd" d="M105.825 133.166C101.782 133.166 96.7384 132.375 90.4434 130.361L91.6614 126.551C103.385 130.302 112.045 129.996 116.046 125.687C119.449 122.02 119.428 115.313 115.987 106.801C113.652 101.026 114.229 90.0734 117.702 74.2454C120.243 62.6624 123.477 52.5414 123.51 52.4404L127.318 53.6624C123.811 64.5954 115.606 95.1874 119.695 105.302C124.893 118.16 122.174 124.964 118.977 128.408C116.697 130.866 112.718 133.166 105.825 133.166" fill="black"/><g id="Group 9"><path id="Fill 7" fill-rule="evenodd" clip-rule="evenodd" d="M89.1393 50.3876C88.5383 50.3876 87.9263 50.2876 87.3273 50.0786C81.4913 48.0426 64.6343 42.6306 56.8223 42.0526C49.4663 41.5076 38.2433 45.1416 34.5393 46.5886C31.7103 47.6926 28.5213 46.2976 27.4153 43.4706C26.3083 40.6426 27.7013 37.4546 30.5283 36.3456C31.1643 36.0966 46.2603 30.2396 57.6343 31.0826C68.4893 31.8866 90.0393 39.3746 90.9513 39.6936C93.8193 40.6946 95.3323 43.8306 94.3323 46.6986C93.5403 48.9666 91.4133 50.3876 89.1393 50.3876" fill="black"/></g><path id="Fill 10" fill-rule="evenodd" clip-rule="evenodd" d="M181.678 69.1645C180.576 69.1645 179.464 68.8265 178.507 68.1245C175.448 65.8845 166.003 59.8175 159.138 58.6695C151.813 57.4455 134.961 58.8295 129.085 59.4645C126.138 59.7795 123.489 57.6525 123.17 54.7055C122.85 51.7575 124.981 49.1085 127.928 48.7895C128.85 48.6895 150.629 46.3615 160.908 48.0795C171.716 49.8855 184.329 59.0775 184.861 59.4685C187.25 61.2235 187.765 64.5835 186.01 66.9735C184.958 68.4055 183.329 69.1645 181.678 69.1645" fill="black"/><path id="Fill 12" fill-rule="evenodd" clip-rule="evenodd" d="M78.6366 79.1289C77.9116 79.1289 77.1856 78.8679 76.6096 78.3389C76.5716 78.3049 71.6246 73.9129 64.4836 74.1789C57.0946 74.4519 52.1896 78.0669 52.1406 78.1029C50.8186 79.0929 48.9396 78.8329 47.9446 77.5169C46.9476 76.1999 47.1966 74.3309 48.5086 73.3279C48.7646 73.1319 54.8866 68.5299 64.2616 68.1829C73.9106 67.8359 80.3946 73.6699 80.6656 73.9189C81.8866 75.0389 81.9686 76.9369 80.8476 78.1569C80.2566 78.8019 79.4476 79.1289 78.6366 79.1289" fill="black"/><path id="Fill 14" fill-rule="evenodd" clip-rule="evenodd" d="M162.754 88.2724C162.029 88.2724 161.303 88.0114 160.727 87.4824C160.689 87.4484 155.742 83.0504 148.6 83.3224C141.231 83.5944 136.317 87.2014 136.27 87.2374C134.953 88.2444 133.07 87.9924 132.064 86.6764C131.058 85.3604 131.309 83.4774 132.625 82.4714C132.881 82.2754 139.004 77.6724 148.379 77.3264C158.024 76.9814 164.512 82.8134 164.783 83.0624C166.004 84.1824 166.086 86.0804 164.965 87.3004C164.374 87.9454 163.565 88.2724 162.754 88.2724" fill="black"/></g></g></g><g id="Hairstyle" transform="translate(607 33) scale(1 1)"><g id="Hairstyle/Wavy Long Hair"><g id="Group 3"><mask id="mask0_406_14051228e0565-54a9-456e-8fdc-d6644b6bfaf6" style="mask-type:luminance" maskUnits="userSpaceOnUse" x="252" y="216" width="517" height="473" fill="#ffffff"><path id="Clip 2" fill-rule="evenodd" clip-rule="evenodd" d="M252 216H768.176V688.256H252V216Z" fill="#ffffff"/></mask><g mask="url(#mask0_406_14051228e0565-54a9-456e-8fdc-d6644b6bfaf6)"><path id="Fill 1" fill-rule="evenodd" clip-rule="evenodd" d="M644.91 682.62C618.53 690.87 639.57 618.88 629.16 601.96C618.75 585.04 609.29 546.61 624.26 528.39C639.22 510.17 668.26 461.8 672.36 421.55C676.45 381.31 668.91 362.64 668.91 362.64C668.91 362.64 639.56 373.31 613.76 349.3C598.11 334.73 567.33 323.89 544.18 303.28C543.99 312.2 541.28 326.05 527.11 330.56C505.62 337.4 506.93 366.52 461.83 361.73C461.83 361.73 439.32 349.87 437.58 378.2C435.85 406.54 444.29 426.32 456.92 427.64C456.92 427.64 472.74 432.6 468.8 454.1C464.86 475.59 493.19 490.33 488.44 517.87C483.69 545.41 470.4 553.96 479.89 578.65C489.39 603.34 492.6 632.2 481.03 656.99C469.47 681.78 406.37 642.01 381.64 661.37C356.91 680.72 354.76 668.89 323.58 651.69C292.4 634.49 258.96 658.11 259.2 625.47C259.55 578.72 239.71 547.39 264.44 525.89C289.17 504.39 285.87 483.23 296.83 457.85C312.45 421.67 342.43 419.2 347.81 391.25C353.18 363.29 365.77 330.76 399.96 309.07C438.34 284.74 460.13 216.23 508.51 235.58C510.58 236.41 512.54 237.28 514.39 238.18C515.14 227.92 521.18 212.99 550.9 216.53C595.3 221.82 674.61 229.22 687.29 270.46C699.98 311.69 696.81 344.47 713.73 384.65C730.64 424.83 701.04 440.69 714.78 467.12C728.53 493.55 754.96 522.1 752.85 549.59C750.73 577.08 736.99 611.98 760.25 640.53C783.51 669.07 750.73 690.22 724.3 688.11C697.87 685.99 671.29 674.38 644.91 682.62Z" fill="#0f0f0f"/></g></g></g></g><g id="Accessories" transform="translate(1051 393) scale(1 1)"><g id="Accessories/Glasses"><g id="Group 136"><path id="Stroke 128" fill-rule="evenodd" clip-rule="evenodd" d="M68.0361 34.6775C68.0361 13.583 85.138 -3.51849 106.233 -3.51849C127.328 -3.51849 144.429 13.5829 144.429 34.6775C144.429 55.7728 127.328 72.8735 106.233 72.8735C85.1377 72.8735 68.0361 55.7726 68.0361 34.6775ZM135.429 34.6775C135.429 18.5534 122.357 5.48151 106.233 5.48151C90.1085 5.48151 77.0361 18.5537 77.0361 34.6775C77.0361 50.802 90.1082 63.8735 106.233 63.8735C122.358 63.8735 135.429 50.8022 135.429 34.6775Z" fill="black"/><path id="Stroke 130" fill-rule="evenodd" clip-rule="evenodd" d="M161.957 43.7849C161.957 22.6898 179.058 5.58893 200.154 5.58893C221.249 5.58893 238.35 22.6896 238.35 43.7849C238.35 64.8802 221.249 81.9809 200.154 81.9809C179.058 81.9809 161.957 64.8801 161.957 43.7849ZM229.35 43.7849C229.35 27.6602 216.278 14.5889 200.154 14.5889C184.029 14.5889 170.957 27.6604 170.957 43.7849C170.957 59.9094 184.029 72.9809 200.154 72.9809C216.278 72.9809 229.35 59.9096 229.35 43.7849Z" fill="black"/><path id="Stroke 132" d="M17.3582 7.30992C18.2541 5.07026 20.7475 3.94707 23.0032 4.72688L23.2076 4.80303L73.2076 24.803C75.5151 25.726 76.6375 28.3449 75.7145 30.6524C74.8186 32.8921 72.3252 34.0153 70.0695 33.2355L69.8651 33.1593L19.8651 13.1593C17.5576 12.2363 16.4352 9.61745 17.3582 7.30992Z" fill="black"/><path id="Stroke 134" d="M135.843 36.5655C136.11 34.166 138.218 32.4182 140.602 32.5723L140.814 32.5908L167.034 35.5088C169.504 35.7837 171.283 38.0089 171.008 40.4789C170.741 42.8784 168.634 44.6262 166.249 44.4722L166.038 44.4536L139.818 41.5356C137.348 41.2607 135.569 39.0355 135.843 36.5655Z" fill="black"/></g></g></g><g id="Facial Hair" transform="translate(1061 394) scale(212 211)"><g id="Facial Hair/None" stroke="none" stroke-width="1" fill="none" fill-rule="evenodd" fill-opacity="0"/></g></g></g><ellipse id="Floor" opacity="0.5" cx="1982" cy="3206" rx="1602" ry="58" fill="#D5ECFF"/><g id="Phone Message"><rect id="Phone" x="1120" y="323" width="1601" height="2840" rx="35" fill="#DDB0C8"/><rect id="Screen" x="1184" y="387" width="1468" height="2388" rx="18" fill="#FCEBEC"/><ellipse id="Button" cx="1920.5" cy="2968.5" rx="100.5" ry="101.5" fill="#FCEBEC"/><g id="Group 8"><g id="Text 1"><rect id="Rectangle" x="1295" y="815" width="883.881" height="429" rx="46" fill="#EECCDC"/><rect id="Rectangle_2" x="1385.27" y="923.934" width="699.583" height="42.7955" rx="4" fill="#DDB0C8"/><rect id="Rectangle Copy 24" x="1385.27" y="1013.42" width="699.583" height="42.7955" rx="4" fill="#DDB0C8"/><rect id="Rectangle Copy 25" x="1385.27" y="1102.9" width="699.583" height="42.7955" rx="4" fill="#DDB0C8"/></g><g id="Text 2"><rect id="Rectangle_3" x="1672" y="1367" width="883.881" height="429" rx="46" fill="white"/><rect id="Rectangle_4" x="1762.27" y="1475.93" width="699.583" height="42.7955" rx="4" fill="#DDB0C8"/><rect id="Rectangle Copy 24_2" x="1762.27" y="1565.42" width="699.583" height="42.7955" rx="4" fill="#DDB0C8"/><rect id="Rectangle Copy 25_2" x="1762.27" y="1654.9" width="699.583" height="42.7955" rx="4" fill="#DDB0C8"/></g><g id="Text 3"><rect id="Rectangle_5" x="1274" y="1919" width="883.881" height="429" rx="46" fill="#EECCDC"/><rect id="Rectangle_6" x="1364.27" y="2027.93" width="699.583" height="42.7955" rx="4" fill="#DDB0C8"/><rect id="Rectangle Copy 24_3" x="1364.27" y="2117.42" width="699.583" height="42.7955" rx="4" fill="#DDB0C8"/><rect id="Rectangle Copy 25_3" x="1364.27" y="2206.9" width="699.583" height="42.7955" rx="4" fill="#DDB0C8"/></g></g><g id="Group 10"><rect id="Rectangle_7" x="1275" y="2537.07" width="1002.22" height="147.839" rx="8" fill="white"/><rect id="Rectangle Copy 32" x="2335.91" y="2537.07" width="221" height="147.839" rx="8" fill="#DDB0C8"/></g></g><g id="Master/Character/Standing" transform="translate(1545 522) scale(1 1)"><g id="Master/Character/Standing"><g id="Lower Body/Standing" transform="translate(503 1151) scale(1 1)"><g id="Lower Body/Standing/Pijamas Barefoot"><g id="Group 10 Copy"><g id="Group 3"><mask id="mask0_406_14607b0bf95c6-6ff4-4576-a478-ae09caf2fcc6" style="mask-type:luminance" maskUnits="userSpaceOnUse" x="806" y="1333" width="397" height="224" fill="#ffffff"><path id="Clip 2" fill-rule="evenodd" clip-rule="evenodd" d="M1203 1333.3H806.231V1556.14H1203V1333.3Z" fill="#ffffff"/></mask><g mask="url(#mask0_406_14607b0bf95c6-6ff4-4576-a478-ae09caf2fcc6)"><path id="Fill 1" fill-rule="evenodd" clip-rule="evenodd" d="M851.964 1342.03C851.964 1342.03 860.385 1405.78 837.528 1445.48C814.672 1485.18 783.395 1538.11 831.514 1539.31C879.632 1540.52 961.434 1532.1 1070.9 1548.94C1180.37 1565.78 1218.87 1551.34 1197.22 1523.67C1175.56 1496.01 1004.35 1464.59 996.767 1401.11C989.479 1340.07 1004.37 1333.3 1004.37 1333.3L851.964 1342.03Z" fill="#7d4439"/></g></g><path id="Fill 4" fill-rule="evenodd" clip-rule="evenodd" d="M209.468 1312.58C209.468 1312.58 217.889 1376.34 195.032 1416.04C172.176 1455.74 140.899 1508.67 189.018 1509.87C237.136 1511.07 318.938 1502.65 428.408 1519.49C537.877 1536.33 576.372 1521.9 554.719 1494.23C533.065 1466.56 336.982 1424.46 358.636 1364.31L380.289 1304.16L209.468 1312.58Z" fill="#7d4439"/><path id="Fill 6" fill-rule="evenodd" clip-rule="evenodd" d="M1030.05 935.18C1033.98 1104.4 1035.95 1346.42 1035.95 1346.42L847.31 1353.71C847.31 1353.71 807.95 1364.57 783.52 890.894C780.352 829.474 657.642 375.35 661.577 429.237C666.131 491.585 374.389 1322.27 374.389 1322.27L205.608 1321.1L432.999 0H869.999C869.999 0 1026.11 765.962 1030.05 935.18Z" fill="#56ACF6"/><path id="Stroke 8" d="M689.525 279.803L656.696 428.157L666.46 430.318L699.289 281.964L689.525 279.803Z" fill="#204EB2"/></g></g></g><g id="Upper Body" transform="translate(376 277) scale(1 1)"><g id="Upper Body/Shrugg"><path id="Neck" fill-rule="evenodd" clip-rule="evenodd" d="M724.954 220C724.954 220 721.263 301.153 673.924 329.8C630.973 355.791 721.969 506.61 819.858 497.614C873.442 492.688 886 346.158 886 346.158C886 346.158 842.734 337.797 858.716 271.819L724.954 220Z" fill="#7d4439"/><path id="Head" fill-rule="evenodd" clip-rule="evenodd" d="M803.337 302.516C739.877 294.841 694.078 253.116 687.665 183.898C669.216 186.835 664.865 138.765 670.003 123.323C675.146 107.859 691.933 116.901 691.933 116.901C691.933 116.901 693.327 113.235 694.303 109.226C722.025 -4.48555 799.67 0.0243587 799.67 0.0243587C942.344 7.45716 908.914 153.12 900.763 191.763C892.611 230.41 864.684 309.927 803.337 302.516Z" fill="#7d4439"/><g id="Group 63"><path id="Fill 1" fill-rule="evenodd" clip-rule="evenodd" d="M1305.75 339.834C1305.75 339.834 1297.8 316.943 1352.75 282.834C1381.75 264.834 1411.26 215.343 1422.72 227.346C1434.18 239.349 1393.08 296.298 1393.08 296.298C1393.08 296.298 1427.87 276.034 1451.28 250.561C1474.7 225.087 1495.74 204.805 1495.74 204.805C1495.74 204.805 1511.3 198.898 1509.31 212.948C1507.32 226.997 1502.51 230.586 1502.51 230.586C1502.51 230.586 1513.56 230.335 1511.53 240.987C1509.5 251.64 1507.09 253.435 1507.09 253.435C1507.09 253.435 1515.18 254.245 1513.41 263.565C1511.63 272.887 1505.22 277.673 1505.22 277.673C1505.22 277.673 1510.91 280.278 1503.48 290.39C1496.06 300.502 1455.18 352.723 1431.1 367.274C1407.02 381.825 1347.75 402.834 1347.75 402.834C1347.75 402.834 1297.75 354.834 1305.75 339.834" fill="#7d4439"/><path id="Fill 3" fill-rule="evenodd" clip-rule="evenodd" d="M1436.36 327.205L1435.14 324.464C1435.32 324.385 1453.16 316.279 1474.67 293.797C1489.55 278.234 1497.18 274.917 1500.96 274.875C1502.76 274.88 1503.6 275.557 1503.81 275.773L1501.69 277.894C1501.77 277.976 1501.82 278.004 1501.82 278.004C1501.77 277.976 1496.55 275.255 1476.83 295.871C1454.88 318.82 1437.11 326.873 1436.36 327.205" fill="black"/><path id="Fill 5" fill-rule="evenodd" clip-rule="evenodd" d="M1431.02 312.62L1429.48 310.048C1429.53 310.017 1434.65 306.948 1448.51 299.031C1457.95 293.634 1471.43 279.55 1481.27 269.266C1485.8 264.525 1489.72 260.432 1492.26 258.205C1500.7 250.823 1507.22 251.807 1507.5 251.854L1507.02 254.815C1506.96 254.812 1501.52 254.096 1494.24 260.463C1491.8 262.601 1487.92 266.65 1483.44 271.339C1473.47 281.756 1459.82 296.022 1450 301.637C1436.18 309.532 1431.07 312.59 1431.02 312.62" fill="black"/><path id="Fill 7" fill-rule="evenodd" clip-rule="evenodd" d="M1427 300.631L1425.5 298.035C1425.69 297.926 1444.55 286.963 1458.28 275.194C1471.07 264.226 1483.09 248.11 1489.54 239.453L1491.05 237.433C1497.32 229.074 1501.76 228.833 1502.25 228.833L1502.3 231.832C1502.27 231.834 1498.77 232.145 1493.45 239.234L1491.95 241.246C1485.42 249.997 1473.28 266.286 1460.23 277.472C1446.28 289.424 1427.19 300.521 1427 300.631" fill="black"/><path id="Fill 9" fill-rule="evenodd" clip-rule="evenodd" d="M1361.06 312.599L1359.45 310.068C1359.91 309.775 1370.83 302.875 1379.07 301.845C1386.44 300.923 1392.14 295.328 1392.19 295.272L1394.31 297.394C1394.05 297.654 1387.85 303.77 1379.44 304.822C1371.87 305.768 1361.16 312.531 1361.06 312.599" fill="black"/><path id="Fill 11" fill-rule="evenodd" clip-rule="evenodd" d="M1347.75 402.834C1347.75 402.834 1336.75 410.834 1317.75 449.834C1298.75 488.834 1229.75 655.834 1229.75 655.834L1180.56 482.224C1180.56 482.224 1277.16 347.867 1319.46 310.351C1361.75 272.834 1347.75 402.834 1347.75 402.834" fill="#7d4439"/><g id="Group 15"><path id="Fill 13" fill-rule="evenodd" clip-rule="evenodd" d="M234.45 313.151C234.45 313.151 246.958 292.395 200.227 247.677C175.567 224.08 156.904 169.562 143.216 178.942C129.528 188.322 157.984 252.527 157.984 252.527C157.984 252.527 128.126 225.519 110.476 195.761C92.8257 166.005 76.4167 141.814 76.4167 141.814C76.4167 141.814 62.4127 132.825 61.4607 146.982C60.5087 161.139 64.4727 165.643 64.4727 165.643C64.4727 165.643 53.7177 163.118 53.5057 173.961C53.2947 184.802 55.2757 187.055 55.2757 187.055C55.2757 187.055 47.1907 186.177 47.0047 195.665C46.8197 205.151 52.1047 211.158 52.1047 211.158C52.1047 211.158 46.0007 212.532 51.1787 223.96C56.3577 235.386 85.5807 294.921 106.138 314.129C126.696 333.337 180.351 366.126 180.351 366.126C180.351 366.126 239.182 329.48 234.45 313.151" fill="#7d4439"/></g><path id="Fill 16" fill-rule="evenodd" clip-rule="evenodd" d="M109.258 273.836C108.596 273.357 92.864 261.809 76.122 234.822C61.083 210.58 55.421 212.157 55.364 212.184C55.365 212.183 55.417 212.165 55.512 212.103L53.875 209.589C54.13 209.424 55.1 208.91 56.845 209.298C60.536 210.119 67.318 214.94 78.672 233.24C95.104 259.729 110.859 271.291 111.016 271.404L109.258 273.836Z" fill="black"/><path id="Fill 18" fill-rule="evenodd" clip-rule="evenodd" d="M117.492 260.667C117.449 260.627 113.085 256.581 101.195 246.004C92.7421 238.483 82.3311 221.707 74.7301 209.458C71.3081 203.943 68.3531 199.182 66.4031 196.584C60.6081 188.867 55.1321 188.424 55.0781 188.422L55.2061 185.424C55.4831 185.437 62.0701 185.817 68.8021 194.783C70.8321 197.486 73.8201 202.301 77.2791 207.876C84.7841 219.969 95.0611 236.531 103.189 243.762C115.11 254.367 119.49 258.429 119.533 258.468L117.492 260.667Z" fill="black"/><path id="Fill 20" fill-rule="evenodd" clip-rule="evenodd" d="M123.901 249.767C123.737 249.62 107.349 234.821 96.1718 220.248C85.7118 206.61 77.1898 188.163 72.6108 178.253L71.5568 175.975C67.8168 167.942 64.4588 166.916 64.4258 166.908L65.0918 163.983C65.5678 164.083 69.8668 165.237 74.2758 174.709L75.3348 176.995C79.8638 186.799 88.2948 205.048 98.5528 218.422C109.563 232.779 125.745 247.391 125.908 247.537L123.901 249.767Z" fill="black"/><path id="Fill 22" fill-rule="evenodd" clip-rule="evenodd" d="M185.956 275.089C185.865 275 176.786 266.172 169.576 263.685C161.56 260.92 156.756 253.655 156.555 253.348L159.067 251.708C159.111 251.775 163.533 258.427 170.554 260.849C178.404 263.558 187.664 272.563 188.054 272.944L185.956 275.089Z" fill="black"/><path id="Fill 24" fill-rule="evenodd" clip-rule="evenodd" d="M180.352 366.126C180.352 366.126 189.464 376.225 200.005 418.307C210.546 460.388 243.591 638.034 243.591 638.034L327.558 478.316C327.558 478.316 260.767 326.913 227.126 281.475C193.486 236.036 180.352 366.126 180.352 366.126" fill="#7d4439"/><g id="Group 28"><mask id="mask0_406_3261422146873-bf72-47a1-8abd-25b4210d31ef" style="mask-type:luminance" maskUnits="userSpaceOnUse" x="205" y="322" width="1050" height="691" fill="#ffffff"><path id="Clip 27" fill-rule="evenodd" clip-rule="evenodd" d="M205.598 322.055H1254.75V1012.16H205.598V322.055Z" fill="#ffffff"/></mask><g mask="url(#mask0_406_3261422146873-bf72-47a1-8abd-25b4210d31ef)"><path id="Fill 26" fill-rule="evenodd" clip-rule="evenodd" d="M674.753 326.834C674.753 326.834 548.254 356.095 495.003 446.465C441.753 536.834 402.753 549.834 402.753 549.834C402.753 549.834 361.753 444.834 339.753 448.834C317.753 452.834 200.753 635.834 205.753 652.834C210.753 669.834 306.422 906.352 409.588 862.593C512.753 818.834 539.753 742.834 545.753 759.834C551.753 776.834 522.753 990.834 547.753 996.834C572.753 1002.83 714.967 1014.21 844.753 1011.83C953.753 1009.83 1019.75 1014.83 1024.75 968.834C1029.75 922.834 1012.75 762.834 1012.75 762.834C1012.75 762.834 1067.75 830.834 1115.75 808.834C1163.75 786.834 1254.75 713.834 1254.75 713.834L1184.75 468.834L1116.75 533.834C1116.75 533.834 1040.75 406.834 995.753 382.834C950.753 358.834 863.243 322.055 863.243 322.055C863.243 322.055 812.753 365.834 790.753 396.834C768.753 427.834 762.753 443.834 762.753 443.834C762.753 443.834 713.753 349.834 674.753 326.834" fill="#F9C818"/></g></g><g id="Pattern 1"><path id="Fill 29" fill-rule="evenodd" clip-rule="evenodd" d="M581.754 612.834L644.754 692.834C644.754 692.834 653.754 657.834 635.754 629.834C617.754 601.834 581.754 612.834 581.754 612.834" fill="#FFE89D"/><path id="Fill 31" fill-rule="evenodd" clip-rule="evenodd" d="M890.754 387.834L953.754 467.834C953.754 467.834 962.754 432.834 944.754 404.834C926.754 376.834 890.754 387.834 890.754 387.834" fill="#FFE89D"/><path id="Fill 33" fill-rule="evenodd" clip-rule="evenodd" d="M605.754 893.834L668.754 973.834C668.754 973.834 677.754 938.834 659.754 910.834C641.754 882.834 605.754 893.834 605.754 893.834" fill="#FFE89D"/><path id="Fill 35" fill-rule="evenodd" clip-rule="evenodd" d="M884.754 737.834L947.754 817.834C947.754 817.834 956.754 782.834 938.754 754.834C920.754 726.834 884.754 737.834 884.754 737.834" fill="#FFE89D"/><path id="Fill 37" fill-rule="evenodd" clip-rule="evenodd" d="M770.667 905.632L838.574 829.753C838.574 829.753 802.545 826.938 778.078 849.506C753.61 872.074 770.667 905.632 770.667 905.632" fill="#FFE89D"/><path id="Fill 39" fill-rule="evenodd" clip-rule="evenodd" d="M733.667 702.632L801.574 626.753C801.574 626.753 765.545 623.938 741.078 646.506C716.61 669.074 733.667 702.632 733.667 702.632" fill="#FFE89D"/><path id="Fill 41" fill-rule="evenodd" clip-rule="evenodd" d="M877.924 563.079L853.766 662C853.766 662 886.873 647.512 897.825 616.078C908.777 584.645 877.924 563.079 877.924 563.079" fill="#FFE89D"/><path id="Fill 43" fill-rule="evenodd" clip-rule="evenodd" d="M1019.92 493.079L995.766 592C995.766 592 1028.87 577.512 1039.82 546.078C1050.78 514.645 1019.92 493.079 1019.92 493.079" fill="#FFE89D"/><path id="Fill 45" fill-rule="evenodd" clip-rule="evenodd" d="M586.949 808.488L686.698 788.014C686.698 788.014 659.441 764.286 626.344 767.831C593.247 771.376 586.949 808.488 586.949 808.488" fill="#FFE89D"/><path id="Fill 47" fill-rule="evenodd" clip-rule="evenodd" d="M509.519 680.905L409.547 661.55C409.547 661.55 425.616 693.919 457.542 703.342C489.467 712.763 509.519 680.905 509.519 680.905" fill="#FFE89D"/><path id="Fill 49" fill-rule="evenodd" clip-rule="evenodd" d="M294.785 581.219L243.168 668.995C243.168 668.995 279.045 664.654 298.583 637.704C318.122 610.755 294.785 581.219 294.785 581.219" fill="#FFE89D"/><path id="Fill 51" fill-rule="evenodd" clip-rule="evenodd" d="M315.902 775.493L401.41 830.788C401.41 830.788 398.593 794.759 372.497 774.095C346.402 753.431 315.902 775.493 315.902 775.493" fill="#FFE89D"/><path id="Fill 53" fill-rule="evenodd" clip-rule="evenodd" d="M588.73 481.956L662.362 411.618C662.362 411.618 626.663 405.995 600.506 426.582C574.349 447.168 588.73 481.956 588.73 481.956" fill="#FFE89D"/><path id="Fill 55" fill-rule="evenodd" clip-rule="evenodd" d="M449.348 564.968L544.748 529.362C544.748 529.362 514.159 510.118 482.004 518.724C449.849 527.328 449.348 564.968 449.348 564.968" fill="#FFE89D"/><path id="Fill 57" fill-rule="evenodd" clip-rule="evenodd" d="M761.348 528.968L856.748 493.362C856.748 493.362 826.159 474.118 794.004 482.724C761.849 491.328 761.348 528.968 761.348 528.968" fill="#FFE89D"/><path id="Fill 59" fill-rule="evenodd" clip-rule="evenodd" d="M1028.35 706.968L1123.75 671.362C1123.75 671.362 1093.16 652.118 1061 660.724C1028.85 669.328 1028.35 706.968 1028.35 706.968" fill="#FFE89D"/><path id="Fill 61" fill-rule="evenodd" clip-rule="evenodd" d="M867.348 976.968L962.748 941.362C962.748 941.362 932.159 922.118 900.004 930.724C867.849 939.328 867.348 976.968 867.348 976.968" fill="#FFE89D"/></g></g></g></g><g id="Expression" transform="translate(1098 360) scale(1 1)"><g id="Expression/Make Up Wink"><g id="Group 19"><path id="Fill 3" fill-rule="evenodd" clip-rule="evenodd" d="M149.223 80.8772C149.223 84.1902 146.537 86.8772 143.223 86.8772C139.909 86.8772 137.223 84.1902 137.223 80.8772C137.223 77.5642 139.909 74.8772 143.223 74.8772C146.537 74.8772 149.223 77.5642 149.223 80.8772" fill="black"/><path id="Fill 12" fill-rule="evenodd" clip-rule="evenodd" d="M59.7599 152.441C59.7599 152.441 59.5219 168.39 81.8989 171.247C104.276 174.103 114.275 171.247 113.799 161.01C113.799 161.01 110.228 149.822 104.99 149.346C99.7529 148.87 94.2779 151.726 94.2779 151.726C94.2779 151.726 89.0409 144.823 83.5659 145.537C78.0899 146.252 67.1399 152.678 59.7599 152.441" fill="#CE4129"/><path id="Fill 10" fill-rule="evenodd" clip-rule="evenodd" d="M99.1191 161.076C82.8041 158.901 63.2911 156.011 57.1681 152.95C52.7001 150.715 51.0551 151.277 51.0391 151.284C51.0401 151.284 52.4721 146.131 58.9561 149.371C65.2681 152.528 91.1441 155.978 99.6481 157.112C114.523 159.094 115.865 158.327 117.564 157.358L119.548 160.83C117.902 161.772 116.348 162.347 112.83 162.347C109.951 162.347 105.757 161.961 99.1191 161.076Z" fill="black"/><g id="Group 16"><mask id="mask0_406_13895c4ee92bc-a26d-4963-9cf0-206496399c79" style="mask-type:luminance" maskUnits="userSpaceOnUse" x="130" y="43" width="52" height="18" fill="#ffffff"><path id="Clip 15" fill-rule="evenodd" clip-rule="evenodd" d="M130.529 43.6357H181.523V60.8241H130.529V43.6357Z" fill="#ffffff"/></mask><g mask="url(#mask0_406_13895c4ee92bc-a26d-4963-9cf0-206496399c79)"><path id="Fill 14" fill-rule="evenodd" clip-rule="evenodd" d="M130.573 53.5461C130.573 53.5461 131.201 47.2721 138.856 44.5111C146.511 41.7501 173.241 46.2681 175.249 47.7741C177.256 49.2791 180.896 52.9191 181.523 60.8241C181.523 60.8241 178.628 54.8021 173.358 53.7981C168.087 52.7941 151.656 57.3111 141.24 57.1861C130.824 57.0601 130.322 55.8051 130.573 53.5461" fill="black"/></g></g><path id="Fill 17" fill-rule="evenodd" clip-rule="evenodd" d="M86.4619 223.176C72.6079 223.176 58.2859 219.136 48.0139 215.404C34.8549 210.623 25.3079 205.297 25.2129 205.244L26.6809 202.627C27.0519 202.836 64.1469 223.389 93.7939 219.746L94.1609 222.723C91.6319 223.034 89.0539 223.176 86.4619 223.176" fill="black"/></g><g id="Group 124"><path id="Stroke 114" d="M123.94 52.5157L127.749 53.7377L127.377 54.931C127.077 55.9043 126.744 57.0179 126.384 58.2529C125.356 61.7838 124.327 65.5761 123.368 69.479C122.301 73.8176 121.387 78.025 120.672 81.9977L120.465 83.1741C118.727 93.2777 118.482 100.993 120.034 105.142L120.126 105.377C129.004 127.34 116.948 138.478 91.6439 130.679L90.873 130.437L92.0921 126.627C114.886 133.921 124.027 125.703 116.417 106.876C114.322 101.694 114.645 92.8994 116.735 81.289C117.466 77.2273 118.398 72.9394 119.483 68.524C120.349 65.0028 121.269 61.5728 122.196 58.3382L122.543 57.1345C122.752 56.4176 122.952 55.7406 123.143 55.1069L123.631 53.5025L123.94 52.5157Z" fill="black"/><path id="Stroke 122" d="M25.1855 205.534L27.1425 202.045L27.8567 202.435L28.5118 202.783C29.5036 203.305 30.6327 203.881 31.8877 204.498L32.4332 204.765C36.6543 206.821 41.3224 208.878 46.301 210.798C57.7489 215.212 69.0606 218.225 79.5848 219.202C84.3541 219.645 88.8741 219.656 93.1069 219.202L93.9496 219.105L94.4385 223.075C89.6635 223.663 84.5751 223.683 79.2149 223.185C68.2771 222.169 56.6257 219.066 44.8619 214.53C39.7712 212.567 35.0001 210.465 30.6815 208.361L29.0484 207.554C28.354 207.206 27.7021 206.873 27.0948 206.556L25.9633 205.958L25.1855 205.534Z" fill="black"/></g><g id="Group 16_2"><path id="Fill 5" fill-rule="evenodd" clip-rule="evenodd" d="M105.825 133.166C101.782 133.166 96.7384 132.375 90.4434 130.361L91.6614 126.551C103.385 130.302 112.045 129.996 116.046 125.687C119.449 122.02 119.428 115.313 115.987 106.801C113.652 101.026 114.229 90.0734 117.702 74.2454C120.243 62.6624 123.477 52.5414 123.51 52.4404L127.318 53.6624C123.811 64.5954 115.606 95.1874 119.695 105.302C124.893 118.16 122.174 124.964 118.977 128.408C116.697 130.866 112.718 133.166 105.825 133.166" fill="black"/></g><path id="Fill 7" fill-rule="evenodd" clip-rule="evenodd" d="M25 55.4906C25 55.4906 40.26 46.2806 51.897 44.1856C59.082 42.8926 98.756 48.4916 97.492 56.5816C96.26 64.4636 92.346 63.4026 76.686 60.7116C61.026 58.0196 53.873 56.2246 44.82 57.2036C35.766 58.1816 25.245 60.1396 25 55.4906" fill="black"/><path id="Fill 12_2" fill-rule="evenodd" clip-rule="evenodd" d="M78.6366 79.1288C77.9116 79.1288 77.1856 78.8679 76.6096 78.3389C76.5716 78.3049 71.6246 73.9129 64.4836 74.1789C57.0946 74.4519 52.1896 78.0668 52.1406 78.1028C50.8186 79.0928 48.9396 78.8329 47.9446 77.5169C46.9476 76.1999 47.1966 74.3309 48.5086 73.3279C48.7646 73.1319 54.8866 68.5299 64.2616 68.1829C73.9106 67.8359 80.3946 73.6699 80.6656 73.9189C81.8866 75.0389 81.9686 76.9369 80.8476 78.1569C80.2566 78.8019 79.4476 79.1288 78.6366 79.1288" fill="black"/></g></g><g id="Hairstyle" transform="translate(607 33) scale(1 1)"><g id="Hairstyle/Wavy Bob"><g id="Group 35 Copy"><g id="Group 27"><path id="Fill 25" fill-rule="evenodd" clip-rule="evenodd" d="M540 328.831C478.432 371.844 513.233 399.907 513.864 476.098C514.07 500.906 499.298 528.625 492.221 565.191C492.221 565.191 485.101 606.718 513.864 632.713C513.864 632.713 485.359 611.718 448.142 629.726C410.925 647.734 385.079 625.509 353.865 632.713C322.65 639.916 316 615.792 316 615.792C316 615.792 337.106 586.322 337.106 538.3C337.106 490.278 332.187 494.843 361 458.826C389.813 422.809 349.03 414.715 392.251 376.297C435.47 337.879 461.883 145.791 623.957 246.637C623.957 246.637 717.59 261.898 700.781 372.349C683.973 482.8 721.654 507.895 731.155 548C740.656 588.106 737.374 632.713 737.374 632.713C737.374 632.713 711.475 644.376 687.531 636.441C663.587 628.506 654.882 622.242 626.574 632.713C598.266 643.184 603.538 562.792 613.081 536.416C613.081 536.416 646.241 513.933 663.587 451.172C680.934 388.411 681.743 284.537 617.541 268.659C617.541 268.659 590.395 293.624 540 328.831Z" fill="#ffc943"/></g></g></g></g><g id="Accessories" transform="translate(1051 393) scale(234 78)"><g id="Accessories/None" stroke="none" stroke-width="1" fill="none" fill-rule="evenodd" fill-opacity="0"/></g><g id="Facial Hair" transform="translate(1061 394) scale(212 211)"><g id="Facial Hair/None" stroke="none" stroke-width="1" fill="none" fill-rule="evenodd" fill-opacity="0"/></g></g></g><path id="Heart 1" fill-rule="evenodd" clip-rule="evenodd" d="M2965.22 580.021C2965.22 580.021 2904.61 563.292 2894.76 606.259C2884.91 649.227 3002.31 709.394 3002.31 709.394C3002.31 709.394 3070.73 614.653 3044.33 570.057C3017.92 525.461 2965.22 580.021 2965.22 580.021Z" fill="#E93737"/><path id="Heart 2" fill-rule="evenodd" clip-rule="evenodd" d="M2982.67 774.808C2982.67 774.808 2960.4 741.257 2937.6 757.87C2914.8 774.483 2946.29 852.874 2946.29 852.874C2946.29 852.874 3019.14 835.872 3025.1 803.238C3031.06 770.605 2982.67 774.808 2982.67 774.808Z" fill="#E93737"/><g id="Bubble Character"><path id="Fill 82" fill-rule="evenodd" clip-rule="evenodd" d="M1518 590C1518 651.304 1468.3 701 1407 701C1345.7 701 1296 651.304 1296 590C1296 528.696 1345.7 479 1407 479C1468.3 479 1518 528.696 1518 590" fill="#DDB0C8"/><mask id="mask0_406_26498a842e19b-377f-41c8-950e-20164e17e062" style="mask-type:luminance" maskUnits="userSpaceOnUse" x="1296" y="479" width="222" height="222" fill="#ffffff"><path id="Fill 82_2" fill-rule="evenodd" clip-rule="evenodd" d="M1518 590C1518 651.304 1468.3 701 1407 701C1345.7 701 1296 651.304 1296 590C1296 528.696 1345.7 479 1407 479C1468.3 479 1518 528.696 1518 590" fill="#ffffff"/></mask><g mask="url(#mask0_406_26498a842e19b-377f-41c8-950e-20164e17e062)"/></g><circle id="Oval" cx="1407" cy="590" r="112" fill="#EECCDC"/><path id="Combined Shape" fill-rule="evenodd" clip-rule="evenodd" d="M1324.25 665.477C1331.13 626.007 1365.56 596 1407 596C1448.44 596 1482.87 626.007 1489.75 665.477C1469.27 687.919 1439.78 702 1407 702C1374.22 702 1344.73 687.919 1324.25 665.477Z" fill="white"/><circle id="Oval Copy" cx="1407" cy="557" r="50" fill="white"/><path id="Phone_2" fill-rule="evenodd" clip-rule="evenodd" d="M2256 533L2234.27 557.624C2234.27 557.624 2223.93 581.285 2262.29 617.582C2300.65 653.879 2322.57 646.353 2322.57 646.353L2342 623.435L2312.52 596.946L2299.43 609.723L2269.12 578.819L2284.19 561.48L2256 533Z" fill="#DDB0C8"/><g id="Video Call"><rect id="Rectangle_8" x="2409" y="540" width="109" height="100" rx="13" fill="#DDB0C8"/><path id="Rectangle_9" fill-rule="evenodd" clip-rule="evenodd" d="M2524 576.571L2554 558V623L2524 604.429V576.571Z" fill="#DDB0C8"/></g></g></svg>