<svg viewBox="49.53749999999991 470.1282051282051 3962.999999999999 2820.7692307692314" fill="none" xmlns="http://www.w3.org/2000/svg" xmlns:xlink="http://www.w3.org/1999/xlink" overflow="visible" width="3962.999999999999px" height="2820.7692307692314px"><g id="Master/Spot Illustration/Brainstorming"><ellipse id="Floor" opacity="0.5" cx="1982" cy="3206" rx="1602" ry="58" fill="#D5ECFF"/><g id="Computer Screen"><g id="Stats and Graphs"><g id="Graph 4"><path id="Rectangle Copy 13" fill-rule="evenodd" clip-rule="evenodd" d="M2888.53 1043.29C2968.61 1043.29 3033.53 1108.21 3033.53 1188.29V1347.53C3033.53 1427.61 2968.61 1492.53 2888.53 1492.53L1915.87 1492.53C1835.79 1492.53 1770.87 1427.61 1770.87 1347.53V1188.29C1770.87 1108.21 1835.79 1043.29 1915.87 1043.29L2888.53 1043.29Z" fill="#EECCDC"/><path id="Rectangle Copy 15" fill-rule="evenodd" clip-rule="evenodd" d="M2864.14 1025.47C2944.22 1025.47 3009.14 1090.39 3009.14 1170.47V1329.71C3009.14 1409.79 2944.22 1474.71 2864.14 1474.71L1891.47 1474.71C1811.39 1474.71 1746.47 1409.79 1746.47 1329.71V1170.47C1746.47 1090.39 1811.39 1025.47 1891.47 1025.47L2864.14 1025.47Z" fill="#FCEBEC"/><g id="Group"><path id="Rectangle" d="M1861.39 1093.46H2889.35C2903.59 1093.46 2915.14 1105.01 2915.14 1119.26V1119.26C2915.14 1133.5 2903.59 1145.05 2889.35 1145.05H1861.39V1093.46Z" fill="#EECCDC"/><path id="Rectangle Copy" d="M1861.39 1224.3H2330.08C2344.33 1224.3 2355.88 1235.85 2355.88 1250.1V1250.1C2355.88 1264.34 2344.33 1275.89 2330.08 1275.89H1861.39V1224.3Z" fill="#EECCDC"/><path id="Rectangle Copy 2" d="M1861.39 1354.4H2584.44C2598.68 1354.4 2610.23 1365.94 2610.23 1380.19V1380.19C2610.23 1394.44 2598.68 1405.98 2584.44 1405.98H1861.39V1354.4Z" fill="#EECCDC"/></g></g><g id="Graph 3"><path id="Rectangle Copy 14" fill-rule="evenodd" clip-rule="evenodd" d="M2888 520.546C2968.08 520.546 3033 585.465 3033 665.546V825.184C3033 905.265 2968.08 970.184 2888 970.184H2628.6C2548.52 970.184 2483.6 905.265 2483.6 825.184V665.546C2483.6 585.465 2548.52 520.546 2628.6 520.546L2888 520.546Z" fill="#EECCDC"/><path id="Rectangle Copy 16" fill-rule="evenodd" clip-rule="evenodd" d="M2866.4 502.712C2946.48 502.712 3011.4 567.631 3011.4 647.712V807.349C3011.4 887.43 2946.48 952.349 2866.4 952.349H2607C2526.92 952.349 2462 887.43 2462 807.349V647.712C2462 567.631 2526.92 502.712 2607 502.712L2866.4 502.712Z" fill="#FCEBEC"/><path id="Combined Shape Copy 4" fill-rule="evenodd" clip-rule="evenodd" d="M2918.15 665.499C2883.58 565.09 2774.37 511.646 2674.22 546.128C2574.07 580.611 2520.92 689.963 2555.49 790.373C2590.07 890.783 2699.28 944.227 2799.42 909.744C2899.57 875.261 2952.73 765.909 2918.15 665.499ZM2835.06 694.111C2816.3 639.625 2757.11 610.6 2702.85 629.281C2648.6 647.962 2619.83 707.275 2638.59 761.761C2657.35 816.247 2716.54 845.273 2770.79 826.592C2825.05 807.911 2853.82 748.597 2835.06 694.111Z" fill="#56ACF6"/><path id="Combined Shape Copy 5" fill-rule="evenodd" clip-rule="evenodd" d="M2632.71 722.687C2634.41 691.731 2649.92 662.771 2675.11 644.287L2623.16 573.255C2576.57 607.337 2547.86 660.775 2544.68 717.89L2632.71 722.687Z" fill="#E93737"/><path id="Combined Shape Copy 6" fill-rule="evenodd" clip-rule="evenodd" d="M2845.43 886.715C2871.5 868.905 2892.34 845.19 2906.73 818.105L2828.92 776.871C2821.09 791.657 2809.73 804.592 2795.49 814.277L2845.43 886.715Z" fill="#1BC0D7"/></g><g id="Graph 2"><path id="Rectangle Copy 14_2" fill-rule="evenodd" clip-rule="evenodd" d="M2172.68 501.307C2252.76 501.307 2317.68 566.226 2317.68 646.307V805.388C2317.68 885.469 2252.76 950.388 2172.68 950.388H1913.2C1833.12 950.388 1768.2 885.47 1768.2 805.388V646.307C1768.2 566.226 1833.12 501.307 1913.2 501.307L2172.68 501.307Z" fill="#EECCDC"/><path id="Rectangle Copy 16_2" fill-rule="evenodd" clip-rule="evenodd" d="M2150.97 483.374C2231.05 483.374 2295.97 548.293 2295.97 628.374V787.455C2295.97 867.536 2231.05 932.455 2150.97 932.455H1891.49C1811.41 932.455 1746.49 867.536 1746.49 787.455V628.374C1746.49 548.293 1811.41 483.374 1891.49 483.374H2150.97Z" fill="#FCEBEC"/><path id="Combined Shape Copy 4_2" fill-rule="evenodd" clip-rule="evenodd" d="M2021.61 899.951C2127.86 899.951 2214 814.14 2214 708.288C2214 602.435 2127.86 516.625 2021.61 516.625C1915.35 516.625 1829.21 602.435 1829.21 708.288C1829.21 814.14 1915.35 899.951 2021.61 899.951ZM2021.61 812.121C2079.26 812.121 2126.01 765.633 2126.01 708.288C2126.01 650.943 2079.26 604.455 2021.61 604.455C1963.95 604.455 1917.21 650.943 1917.21 708.288C1917.21 765.633 1963.95 812.121 2021.61 812.121Z" fill="#56ACF6"/><path id="Combined Shape Copy 5_2" fill-rule="evenodd" clip-rule="evenodd" d="M2060.53 611.702C2089.26 623.383 2111.61 647.462 2120.89 677.279L2205.01 651.297C2187.95 596.182 2146.74 551.664 2093.75 530.075L2060.53 611.702Z" fill="#E93737"/><path id="Combined Shape Copy 6_2" fill-rule="evenodd" clip-rule="evenodd" d="M1880.89 839.426L1945.25 779.313C1933.81 767.111 1925.27 752.16 1920.75 735.561L1835.95 759.176C1844.31 789.606 1859.95 817.021 1880.89 839.426Z" fill="#1BC0D7"/></g><g id="Graph 1"><g id="Group 27"><path id="Rectangle Copy 14_3" fill-rule="evenodd" clip-rule="evenodd" d="M1457.36 500.95C1537.44 500.95 1602.36 565.869 1602.36 645.95L1602.36 1312.66C1602.36 1392.74 1537.44 1457.66 1457.36 1457.66H1096.68C1016.6 1457.66 951.682 1392.74 951.682 1312.66L951.682 645.95C951.682 565.869 1016.6 500.95 1096.68 500.95L1457.36 500.95Z" fill="#EECCDC"/><path id="Rectangle Copy 16_3" fill-rule="evenodd" clip-rule="evenodd" d="M1435.67 483C1515.75 483 1580.67 547.919 1580.67 628L1580.67 1294.72C1580.67 1374.8 1515.75 1439.72 1435.67 1439.72H1075C994.92 1439.72 930.002 1374.8 930.002 1294.72L930.002 628C930.002 547.919 994.92 483 1075 483L1435.67 483Z" fill="#FCEBEC"/></g><rect id="Rectangle_2" x="1009.79" y="686.633" width="498.414" height="417.589" rx="36" fill="white"/><path id="Path 8" d="M1208.73 948.604L1209.61 950.547C1214.67 961.709 1218.17 967.979 1222.68 973.264C1228.27 979.821 1234.69 983.512 1243.31 984.587C1251.43 985.602 1262.62 978.141 1276.19 961.75L1277.3 960.392C1287.95 947.293 1298.86 930.537 1314.06 904.835L1317.23 899.46C1321.55 892.084 1330.07 877.511 1332.71 873.055L1334.71 869.687C1340.26 860.381 1344.8 853.049 1349.07 846.598L1349.44 846.031C1362.5 826.367 1372.54 815.491 1383.18 812.391C1395.72 808.737 1405.96 811.787 1412.01 821.017C1415.79 826.783 1417.35 833.4 1418.39 843.855L1418.82 848.65L1419.09 851.838C1419.26 853.773 1419.42 855.356 1419.59 856.681L1419.65 857.218L1419.99 856.755L1420.25 856.402L1420.75 855.687C1424.55 850.2 1429.14 841.87 1434.42 830.793L1435.44 828.625C1446.59 804.895 1460.53 769.753 1477.2 723.285C1479.06 718.087 1484.79 715.385 1489.99 717.25C1495.19 719.115 1497.89 724.841 1496.02 730.039L1493.95 735.799C1477.65 780.94 1463.95 815.2 1452.82 838.662L1452.47 839.4C1446.63 851.655 1441.45 861.013 1436.84 867.575L1436.53 868.008C1430.47 876.521 1424.88 881.241 1417.69 881.241C1409.34 881.241 1404.03 875.89 1401.54 868.05L1401.37 867.505C1400.19 863.608 1399.7 859.849 1399.03 852.008L1398.6 846.98L1398.5 845.954C1397.76 838.566 1396.76 834.24 1395.28 831.981C1394.85 831.329 1394.59 831.122 1394.21 831.008C1393.25 830.722 1391.49 830.8 1388.77 831.593C1384.44 832.856 1376.46 841.497 1366.1 857.095L1365.05 858.691C1360.93 864.981 1356.43 872.275 1350.88 881.622L1345.73 890.363C1340.96 898.499 1334.21 910.048 1332.36 913.189L1329.63 917.795C1314.24 943.68 1303.05 960.661 1291.59 974.502C1274.05 995.703 1257.78 1006.55 1240.83 1004.43C1227.06 1002.71 1216.17 996.462 1207.46 986.238C1201.32 979.038 1197.06 971.374 1191.13 958.221L1188.14 951.511C1182.65 939.208 1179.47 933.322 1175.29 928.502C1170.55 923.019 1165.34 920.458 1157.98 920.458C1146.74 920.458 1131.05 932.723 1112.3 958.384C1092.29 985.762 1069.56 1027.24 1044.22 1082.72C1041.93 1087.74 1036 1089.95 1030.97 1087.66C1025.95 1085.37 1023.74 1079.43 1026.03 1074.41C1079.11 958.172 1121.29 900.458 1157.98 900.458C1171.37 900.458 1182 905.687 1190.42 915.414L1190.99 916.082C1196.44 922.553 1200.18 929.464 1206.06 942.608L1208.73 948.604Z" fill="#56ACF6"/><path id="Path 10" d="M1478.13 850.693C1481.06 846.012 1487.23 844.593 1491.91 847.524C1496.6 850.456 1498.01 856.626 1495.08 861.307C1449.84 933.564 1415.05 965.616 1386.27 954.445C1380.76 952.308 1375.02 948.883 1368.05 943.863L1366.7 942.884C1364.73 941.441 1362.64 939.86 1360.19 937.965L1349.92 929.95L1348.06 928.514C1332.17 916.309 1322 910.249 1312.18 908.015C1298.35 904.868 1286.84 910.925 1275.13 931.452L1274.78 932.079C1257.1 963.52 1234.79 980.393 1208.38 984.825C1188.62 988.141 1170.08 984.853 1144.21 976.062L1130.82 971.399C1112.18 964.965 1082.23 982.604 1042.58 1026.89C1038.89 1031.01 1032.57 1031.35 1028.45 1027.67C1024.34 1023.99 1023.99 1017.66 1027.68 1013.55C1072.32 963.688 1108.34 942.478 1137.34 952.494L1149.77 956.828C1173.22 964.857 1189.2 967.763 1205.07 965.101C1225.04 961.749 1242.17 948.913 1256.9 923.064L1257.35 922.277C1273.25 893.996 1293.36 883.224 1316.62 888.513C1330.1 891.58 1342.07 898.695 1360.15 912.579L1364.17 915.705C1366.64 917.634 1370.27 920.47 1371.3 921.271L1373.45 922.931C1375.67 924.636 1377.56 926.051 1379.33 927.339L1379.74 927.634C1385.45 931.749 1389.9 934.399 1393.51 935.8C1400.08 938.353 1410.13 934.423 1423.75 921.875C1439.09 907.735 1457.3 883.969 1478.13 850.693Z" fill="#E93737"/><rect id="Rectangle_3" x="1061.41" y="543.996" width="395.165" height="89.1482" rx="44.5741" fill="#EECCDC"/><rect id="Rectangle Copy 20" x="1009.79" y="1191.49" width="498.414" height="20.6449" rx="10.3224" fill="#EECCDC"/><rect id="Rectangle Copy 22" x="1009.79" y="1308.79" width="498.414" height="20.6449" rx="10.3224" fill="#EECCDC"/></g></g></g><g id="Chair 2"><path id="Fill 52" fill-rule="evenodd" clip-rule="evenodd" d="M1829.52 2393.73C1817.78 2461.24 1704.79 3189.13 1704.79 3189.13C1704.79 3189.13 1707.33 3207.51 1725.72 3210.21C1744.1 3212.91 1753.83 3196.15 1753.83 3196.15L1913.2 2411.42L1829.52 2393.73Z" fill="#DDB0C8"/><path id="Fill 53" fill-rule="evenodd" clip-rule="evenodd" d="M2200.36 2410.97C2212.77 2478.36 2359.25 3200.25 2359.25 3200.25C2359.25 3200.25 2368.01 3216.61 2386.19 3212.77C2404.37 3208.93 2407.69 3189.83 2407.69 3189.83L2284.98 2398.54L2200.36 2410.97Z" fill="#DDB0C8"/><path id="Fill 54" fill-rule="evenodd" clip-rule="evenodd" d="M2386.11 2408.77C2398.51 2476.16 2544.99 3198.05 2544.99 3198.05C2544.99 3198.05 2553.75 3214.41 2571.93 3210.57C2590.11 3206.73 2593.43 3187.63 2593.43 3187.63L2470.72 2396.34L2386.11 2408.77Z" fill="#DDB0C8"/><path id="Fill 55" fill-rule="evenodd" clip-rule="evenodd" d="M2484.84 2424.55H1806.93C1781.25 2424.55 1760.44 2403.74 1760.44 2378.06C1760.44 2352.38 1781.25 2331.56 1806.93 2331.56H2484.84C2510.52 2331.56 2531.33 2352.38 2531.33 2378.06C2531.33 2403.74 2510.52 2424.55 2484.84 2424.55" fill="#EECCDC"/></g><g id="Master/Character/Sitting On Chair" transform="matrix(-1 0 0 1 3383 506) scale(1 1)"><g id="Master/Character/Sitting On Chair"><g id="Lower Body/Sitting On Chair" transform="translate(876 1607) scale(1 1)"><g id="Lower Body/Sitting On Chair/1"><g id="Group 68"><g id="Group 3"><path id="Fill 2" fill-rule="evenodd" clip-rule="evenodd" d="M805.172 988.968L875.774 1055.99L983.41 1047.26L974.771 1018.83L842.928 975.442L805.172 988.968Z" fill="#56ACF6"/><path id="Fill 34" fill-rule="evenodd" clip-rule="evenodd" d="M762.343 590.123C761.654 599.745 788.527 792.787 788.527 792.787L890.54 802.204L915.541 579.41L762.343 590.123Z" fill="#c26e5e"/><path id="Fill 36" fill-rule="evenodd" clip-rule="evenodd" d="M774.102 898.766C774.337 895.485 785.37 787.453 785.37 787.453C785.37 787.453 782.417 782.625 783.31 770.159C784.203 757.692 792.267 746.397 845.086 754.796C897.907 763.195 900.718 769.99 900.342 775.24C899.966 780.489 893.169 792.534 892.557 801.064C891.946 809.595 890.62 892.599 890.62 892.599L774.102 898.766Z" fill="#E4F9FF"/><path id="Fill 38" fill-rule="evenodd" clip-rule="evenodd" d="M772.858 894.504L763.213 980.888L833.054 967.652L899.003 994.663L999.22 1031.22L1082.92 1022.52L1079.4 1000.99C1079.4 1000.99 1004.2 961.669 986.239 950.758C968.276 939.847 961.081 920.846 961.081 920.846L932.836 880.031C932.836 880.031 902.68 836.482 878.601 832.728C854.522 828.975 833.931 833.182 838.515 842.843C843.099 852.505 854.458 869.55 854.458 869.55L810.453 860.718L785.532 891.396L778.928 898.633L781.584 903.732" fill="#F4F0F1"/><path id="Fill 40" fill-rule="evenodd" clip-rule="evenodd" d="M779.604 907.106C779.604 907.106 778.697 914.835 803.296 922.62C827.895 930.405 854.306 942.571 858.085 929.378C861.865 916.185 855.723 902.989 855.723 902.989L878.281 919.485C878.281 919.485 888.677 937.592 876.789 955.165C864.902 972.738 835.089 973.438 835.089 973.438L822.451 961.904C822.451 961.904 782.947 939.588 774.49 924.101C766.032 908.614 779.604 907.106 779.604 907.106" fill="#F9C818"/><mask id="mask0_406_14062e5adfc93-d024-4c52-b1d2-56c6f001f6dd" style="mask-type:luminance" maskUnits="userSpaceOnUse" x="705" y="847" width="400" height="266" fill="#ffffff"><path id="Clip 43" fill-rule="evenodd" clip-rule="evenodd" d="M705.9 873.847L1087.42 847.169L1104.13 1086.03L722.603 1112.71L705.9 873.847Z" fill="#ffffff"/></mask><g mask="url(#mask0_406_14062e5adfc93-d024-4c52-b1d2-56c6f001f6dd)"><path id="Fill 42" fill-rule="evenodd" clip-rule="evenodd" d="M771.088 875.575C771.088 875.575 742.209 943.975 744.743 942.997C747.277 942.019 763.519 908.561 764.198 921.364C764.875 934.17 756.458 950.554 758.199 964.789C758.199 964.789 771.381 999.164 779.314 999.732C787.248 1000.3 825.067 990.433 825.067 990.433C825.067 990.433 842.312 968.05 878.054 991.465C913.796 1014.88 959.936 1038.73 959.936 1038.73C959.936 1038.73 954.319 1043.45 954.103 1047.83C953.887 1052.21 956.69 1058.18 956.69 1058.18L816.864 1038.01L741.591 987.054L732.275 988.039C732.275 988.039 723.637 993.364 722.86 1008.83C722.083 1024.29 722.787 1028.31 720.463 1033.09C718.138 1037.88 712.176 1047.36 730.339 1051.96C748.501 1056.57 884.863 1089.11 944.938 1094.08C1005.01 1099.04 1066.66 1081.99 1083.35 1065.68C1100.04 1049.37 1102.62 1036.35 1098.89 1023.87C1095.16 1011.38 1087.79 996.33 1070.55 999.187C1053.32 1002.05 1043.48 1004.91 1015.21 995.885C986.948 986.865 975.785 987.914 976.779 994.322C977.771 1000.73 998.587 1006.84 998.587 1006.84C998.587 1006.84 1026.52 1013.06 1026.33 1015.82C1026.13 1018.58 1025.16 1021.02 999.823 1019.07C974.485 1017.13 944.128 1011.59 904.297 987.353C864.465 963.118 852.651 953.622 826.492 956.554C800.333 959.487 776.888 971.504 770.283 953.01C763.678 934.517 781.721 909.999 781.584 903.732C781.445 897.465 772.858 894.504 772.858 894.504L771.155 869.284" fill="#15023F"/><path id="Fill 45" fill-rule="evenodd" clip-rule="evenodd" d="M774.683 859.881C774.683 859.881 773.729 861.138 771.153 869.285C768.578 877.432 767.686 902.542 776.438 901.72C785.191 900.898 792.04 883.639 799.803 873.872C807.567 864.104 817.361 861.364 825.726 865.948C834.092 870.532 866.407 868.534 866.407 868.534C866.407 868.534 857.749 853.826 829.045 853.548C829.045 853.548 808.756 846.827 796.905 865.266C785.053 883.703 777.837 902.024 776.967 886.515C776.218 873.162 780.422 864.984 779.529 860.271C778.635 855.556 774.683 859.881 774.683 859.881" fill="#451989"/><path id="Fill 47" fill-rule="evenodd" clip-rule="evenodd" d="M994.703 954.393C994.703 954.393 979.402 956.656 934.947 952.471C890.494 948.276 900.348 928.118 882.223 922.779C864.098 917.452 862.142 916.63 852.239 899.77C842.349 882.91 817.357 898.285 805.451 895.417C793.537 892.539 829.198 859.763 829.198 859.763C829.198 859.763 848.488 854.578 866.407 868.532C871.449 872.462 881.631 886.536 884.712 889.834C887.785 893.132 906.479 899.914 923.103 920.754C939.726 941.604 963.118 935.7 967.768 936.976C972.408 938.261 932.352 882.588 932.352 882.588L932.427 877.049C932.427 877.049 957.443 913.85 969.684 930.246C981.934 946.642 992.018 950.723 993.844 951.686C995.659 952.657 994.703 954.393 994.703 954.393" fill="#E263AB"/><path id="Fill 49" fill-rule="evenodd" clip-rule="evenodd" d="M756.444 909.433C756.444 909.433 727.812 974.65 729.417 989.608C731.022 1004.57 763.102 994.94 776.62 1023.65C790.138 1052.36 810.335 1064.94 895.875 1079.85C981.415 1094.76 1053.58 1062.69 1053.94 1057.69C1054.3 1052.7 1053.73 1043.03 1053.73 1043.03C1053.73 1043.03 930.546 1063.08 879.471 1028.46C828.396 993.847 826.643 983.261 807.464 988.164C788.286 993.067 777.018 986.822 762.392 969.038C762.392 969.038 760.937 960.147 766.352 937.105C771.767 914.063 767.02 881.181 756.444 909.433" fill="white"/><path id="Fill 51" fill-rule="evenodd" clip-rule="evenodd" d="M830.244 856.389C830.244 856.389 819.793 845.021 837.087 832.741C854.38 820.462 885.267 829.593 894.539 839.429C894.539 839.429 876.815 830.758 854.767 833.042C832.719 835.325 837.897 841.65 848.039 857.341L828.106 854.789" fill="#451989"/><path id="Fill 53" fill-rule="evenodd" clip-rule="evenodd" d="M859.723 869.114C862.091 872.885 860.071 878.413 855.214 881.464C850.356 884.515 844.498 883.931 842.131 880.161C839.763 876.391 841.783 870.862 846.641 867.811C851.499 864.761 857.356 865.344 859.723 869.114" fill="#1F003C"/><path id="Fill 55" fill-rule="evenodd" clip-rule="evenodd" d="M845.037 876.096C845.037 876.096 846.187 868.027 861.727 862.705C877.265 857.382 906.626 848.759 922.203 860.886C937.78 873.013 936.386 878.489 936.386 878.489C936.386 878.489 925.006 871.669 916.206 868.75C907.406 865.832 895.474 864.693 883.585 866.988C871.694 869.282 859.835 873.151 856.003 874.736C852.172 876.321 848.613 884.074 845.037 876.096" fill="#E8D9F3"/><path id="Fill 57" fill-rule="evenodd" clip-rule="evenodd" d="M880.564 886.48C882.932 890.251 880.913 895.779 876.055 898.83C871.197 901.881 865.339 901.297 862.973 897.527C860.605 893.757 862.624 888.228 867.482 885.177C872.341 882.127 878.197 882.71 880.564 886.48" fill="#1F003C"/><path id="Fill 59" fill-rule="evenodd" clip-rule="evenodd" d="M865.88 893.462C865.88 893.462 867.007 885.391 881.958 880.027C896.909 874.662 925.154 865.96 940.092 878.04C955.031 890.122 953.677 895.601 953.677 895.601C953.677 895.601 942.757 888.814 934.306 885.92C925.856 883.027 914.391 881.921 902.957 884.248C891.521 886.575 880.11 890.477 876.423 892.072C872.736 893.667 869.295 901.429 865.88 893.462" fill="#E8D9F3"/><path id="Fill 61" fill-rule="evenodd" clip-rule="evenodd" d="M903.59 902.277C905.958 906.047 903.938 911.576 899.08 914.627C894.222 917.677 888.365 917.094 885.999 913.323C883.631 909.553 885.649 904.024 890.507 900.974C895.366 897.923 901.222 898.506 903.59 902.277" fill="#1F003C"/><path id="Fill 63" fill-rule="evenodd" clip-rule="evenodd" d="M888.879 909.593C888.879 909.593 889.835 902.339 901.749 897.411C913.661 892.485 943.771 885.965 955.544 896.699C967.317 907.433 960.053 914.827 960.053 914.827C960.053 914.827 949.965 904.845 943.275 902.312C936.586 899.777 927.49 898.869 918.392 901.043C909.294 903.218 900.202 906.807 897.263 908.266C894.323 909.725 891.532 916.719 888.879 909.593" fill="#E8D9F3"/></g></g><g id="Group 67"><path id="Fill 65" fill-rule="evenodd" clip-rule="evenodd" d="M3.181 1.002C3.181 1.002 -2.9996 188.559 30.423 177.445C30.423 177.445 212.422 195.505 256.88 202.451C279.247 205.946 322.025 232.716 455.899 255.05C589.774 277.385 717.417 300.408 717.417 309.382C717.417 327.444 746.578 459.2 753.524 620.36C753.524 620.36 795.204 670.374 920.241 625.917C920.241 625.917 929.304 310.818 866.785 188.559C747.406 30.178 369.005 1.002 369.005 1.002H3.181Z" fill="#FC7750"/><g id="Group 2"><path id="Fill 4" fill-rule="evenodd" clip-rule="evenodd" d="M363.338 570.507C363.338 580.153 375.285 826.9 375.285 826.9L472.716 835.852L526.576 557L363.338 570.507Z" fill="#c26e5e"/><g id="Group"><path id="Fill 1" fill-rule="evenodd" clip-rule="evenodd" d="M394.703 881.042L460.458 952.83L568.441 951.624L561.806 922.667L433.311 870.184L394.703 881.042Z" fill="#56ACF6"/><path id="Fill 3" fill-rule="evenodd" clip-rule="evenodd" d="M394.969 994.317L460.724 1066.11L568.707 1064.9L562.072 1035.94L433.577 983.459L394.969 994.317Z" fill="#56ACF6"/><path id="Fill 6" fill-rule="evenodd" clip-rule="evenodd" d="M366.143 917.293C366.143 914.004 369.432 805.46 369.432 805.46C369.432 805.46 366.143 800.855 366.143 788.356C366.143 775.856 373.379 764.016 426.664 768.62C479.95 773.226 483.239 779.804 483.239 785.066C483.239 790.329 477.319 802.828 477.319 811.38C477.319 819.933 481.923 902.82 481.923 902.82L366.143 917.293Z" fill="#E4F9FF"/><path id="Fill 8" fill-rule="evenodd" clip-rule="evenodd" d="M364.596 913.13L361.145 999.983L429.864 981.792L497.572 1004.03L600.145 1033.33L683.012 1018.68L677.959 997.456C677.959 997.456 600.145 963.603 581.45 954.002C562.754 944.401 554.22 925.963 554.22 925.963L523.132 887.27C523.132 887.27 489.943 845.984 465.658 843.961C441.372 841.937 421.134 847.604 426.396 856.913C431.658 866.222 444.205 882.412 444.205 882.412L399.683 876.745L377.016 909.126L370.945 916.817L373.958 921.712" fill="#F4F0F1"/><path id="Fill 10" fill-rule="evenodd" clip-rule="evenodd" d="M372.224 925.219C372.224 925.219 371.87 932.993 396.962 939.001C422.055 945.01 449.268 955.258 452.095 941.828C454.922 928.4 447.854 915.676 447.854 915.676L471.533 930.52C471.533 930.52 483.195 947.837 472.593 966.214C461.991 984.592 432.304 987.419 432.304 987.419L418.874 976.817C418.874 976.817 377.878 957.379 368.336 942.535C358.794 927.693 372.224 925.219 372.224 925.219" fill="#F9C818"/><path id="Fill 12" fill-rule="evenodd" clip-rule="evenodd" d="M361.479 894.376C361.479 894.376 337.559 964.664 340.017 963.508C342.475 962.352 356.286 927.817 357.875 940.541C359.466 953.265 352.242 970.209 354.995 984.282C354.995 984.282 370.597 1017.63 378.551 1017.63C386.505 1017.63 423.523 1005.08 423.523 1005.08C423.523 1005.08 439.125 981.528 476.449 1002.33C513.772 1023.13 561.497 1043.63 561.497 1043.63C561.497 1043.63 556.231 1048.73 556.329 1053.12C556.426 1057.5 559.648 1063.26 559.648 1063.26L418.739 1053.13L340.018 1007.68L330.796 1009.32C330.796 1009.32 322.562 1015.25 322.891 1030.73C323.22 1046.21 324.208 1050.17 322.232 1055.11C320.256 1060.05 314.986 1069.93 333.431 1073.22C351.875 1076.52 490.213 1099.24 550.489 1099.9C610.764 1100.56 671.04 1079.15 686.52 1061.7C702 1044.24 703.648 1031.06 699.037 1018.88C694.425 1006.69 685.992 992.205 669.006 996.286C652.02 1000.37 642.409 1003.92 613.573 996.944C584.737 989.966 573.676 991.81 575.124 998.13C576.573 1004.45 597.772 1009.06 597.772 1009.06C597.772 1009.06 626.082 1013.27 626.082 1016.04C626.082 1018.8 625.291 1021.3 599.878 1021.17C574.466 1021.04 543.791 1017.69 502.331 996.356C460.87 975.026 448.408 966.399 422.525 971.192C396.642 975.985 374.115 989.646 366.207 971.672C358.297 953.697 374.543 927.954 373.958 921.712C373.374 915.471 364.596 913.13 364.596 913.13L361.096 888.098" fill="#15023F"/><path id="Fill 14" fill-rule="evenodd" clip-rule="evenodd" d="M363.944 878.465C363.944 878.465 363.083 879.788 361.095 888.098C359.108 896.407 360.011 921.518 368.683 920.072C377.354 918.628 382.955 900.924 390 890.627C397.045 880.33 406.62 876.898 415.291 880.872C423.962 884.846 456.052 880.546 456.052 880.546C456.052 880.546 446.366 866.493 417.715 868.267C417.715 868.267 396.999 863.013 386.494 882.249C375.988 901.486 370.1 920.276 368.125 904.87C366.424 891.604 370.033 883.147 368.805 878.508C367.578 873.869 363.944 878.465 363.944 878.465" fill="#451989"/><path id="Fill 16" fill-rule="evenodd" clip-rule="evenodd" d="M590.153 957.023C590.153 957.023 575.052 960.374 530.413 959.374C485.773 958.364 494.163 937.553 475.703 933.523C457.243 929.503 455.233 928.824 444.153 912.713C433.083 896.603 409.253 913.723 397.173 911.713C385.083 909.693 418.313 874.454 418.313 874.454C418.313 874.454 437.183 867.904 456.052 880.544C461.363 884.103 472.523 897.414 475.833 900.483C479.133 903.553 498.262 908.983 516.333 928.584C534.403 948.193 557.313 940.633 562.043 941.574C566.762 942.523 522.833 889.853 522.833 889.853L522.512 884.324C522.512 884.324 550.092 919.244 563.473 934.723C576.863 950.204 587.213 953.553 589.103 954.383C590.983 955.223 590.153 957.023 590.153 957.023" fill="#E263AB"/><path id="Fill 18" fill-rule="evenodd" clip-rule="evenodd" d="M349.291 929.193C349.291 929.193 325.39 996.288 328.06 1011.09C330.729 1025.9 362.039 1014.01 377.572 1041.68C393.106 1069.34 414.15 1080.45 500.537 1089.21C586.923 1097.98 656.616 1060.84 656.616 1055.83C656.616 1050.82 655.364 1041.22 655.364 1041.22C655.364 1041.22 533.923 1070.02 480.505 1039.13C427.088 1008.25 424.584 997.82 405.805 1004.08C387.024 1010.34 375.34 1004.92 359.481 988.221C359.481 988.221 357.395 979.458 361.15 956.088C364.906 932.717 357.823 900.257 349.291 929.193" fill="white"/><path id="Fill 20" fill-rule="evenodd" clip-rule="evenodd" d="M419.114 871.016C419.114 871.016 407.878 860.422 424.25 846.939C440.622 833.456 472.082 840.358 482.034 849.507C482.034 849.507 463.735 842.123 441.906 845.976C420.077 849.829 425.695 855.767 436.93 870.695L416.867 869.571" fill="#451989"/><path id="Fill 22" fill-rule="evenodd" clip-rule="evenodd" d="M449.425 881.602C452.056 885.193 450.437 890.852 445.809 894.242C441.182 897.631 435.298 897.468 432.667 893.876C430.036 890.286 431.655 884.626 436.283 881.237C440.911 877.847 446.795 878.01 449.425 881.602" fill="#1F003C"/><path id="Fill 24" fill-rule="evenodd" clip-rule="evenodd" d="M435.277 889.615C435.277 889.615 435.847 881.484 450.966 875.065C466.087 868.647 494.756 857.949 511.16 868.932C527.562 879.916 526.564 885.478 526.564 885.478C526.564 885.478 514.725 879.487 505.739 877.205C496.754 874.923 484.772 874.637 473.076 877.776C461.38 880.914 449.826 885.621 446.117 887.475C442.409 889.329 439.414 897.317 435.277 889.615" fill="#E8D9F3"/><path id="Fill 26" fill-rule="evenodd" clip-rule="evenodd" d="M471.455 897.435C474.085 901.026 472.466 906.685 467.839 910.075C463.211 913.464 457.327 913.301 454.696 909.709C452.066 906.119 453.684 900.459 458.312 897.07C462.94 893.68 468.824 893.843 471.455 897.435" fill="#1F003C"/><path id="Fill 28" fill-rule="evenodd" clip-rule="evenodd" d="M457.305 905.448C457.305 905.448 457.854 897.317 472.383 890.899C486.912 884.48 514.464 873.782 530.227 884.765C545.991 895.749 545.031 901.311 545.031 901.311C545.031 901.311 533.654 895.32 525.019 893.038C516.383 890.756 504.869 890.47 493.629 893.609C482.389 896.747 471.286 901.454 467.723 903.308C464.159 905.162 461.281 913.15 457.305 905.448" fill="#E8D9F3"/><path id="Fill 30" fill-rule="evenodd" clip-rule="evenodd" d="M495.549 911.547C498.179 915.139 496.56 920.798 491.933 924.188C487.305 927.577 481.421 927.413 478.79 923.822C476.16 920.232 477.778 914.572 482.406 911.183C487.034 907.793 492.918 907.956 495.549 911.547" fill="#1F003C"/><path id="Fill 32" fill-rule="evenodd" clip-rule="evenodd" d="M481.398 919.894C481.398 919.894 481.834 912.591 493.364 906.826C504.894 901.06 534.462 892.407 546.972 902.273C559.481 912.138 552.763 920.032 552.763 920.032C552.763 920.032 541.988 910.797 535.135 908.748C528.282 906.698 519.144 906.441 510.224 909.26C501.305 912.079 492.494 916.306 489.666 917.972C486.837 919.638 484.553 926.813 481.398 919.894" fill="#E8D9F3"/></g></g><path id="Fill 65 Copy" fill-rule="evenodd" clip-rule="evenodd" d="M99.0983 255.048C232.973 277.383 360.616 300.406 360.616 309.38C360.616 327.442 349.777 459.198 356.723 620.358C356.723 620.358 398.403 670.372 523.44 625.915C523.44 625.915 572.503 310.816 509.984 188.557C390.605 30.176 12.2039 1 12.2039 1C12.2039 1 -34.7762 232.714 99.0983 255.048Z" fill="#FC7750"/></g></g><path id="Path 9" d="M403.875 92.6581C488.951 124.441 532.921 183.135 535.436 268.36L535.499 270.951L530.5 271.049C528.863 187.358 487.024 129.899 404.634 98.2918L402.125 97.3419L403.875 92.6581Z" fill="black"/></g></g><g id="Upper Body" transform="translate(333 655) scale(1 1)"><g id="Upper Body/With Tablet"><path id="Fill 1" fill-rule="evenodd" clip-rule="evenodd" d="M571.998 659L536 996.203C536 996.203 886.321 1080.45 1014.04 970.265L1027 673.411L571.998 659Z" fill="#D60000"/><path id="Neck" fill-rule="evenodd" clip-rule="evenodd" d="M724.954 220C724.954 220 721.263 301.153 673.924 329.8C630.973 355.791 721.969 506.61 819.858 497.614C873.442 492.688 886 346.158 886 346.158C886 346.158 842.734 337.797 858.716 271.819L724.954 220Z" fill="#c26e5e"/><path id="Head" fill-rule="evenodd" clip-rule="evenodd" d="M803.337 302.516C739.877 294.841 694.078 253.116 687.665 183.898C669.216 186.835 664.865 138.765 670.003 123.323C675.146 107.859 691.933 116.901 691.933 116.901C691.933 116.901 693.327 113.235 694.303 109.226C722.025 -4.48555 799.67 0.0243587 799.67 0.0243587C942.344 7.45716 908.914 153.12 900.763 191.763C892.611 230.41 864.684 309.927 803.337 302.516Z" fill="#c26e5e"/><g id="Group 32"><path id="Fill 1_2" fill-rule="evenodd" clip-rule="evenodd" d="M1014.32 767.127C993.27 758.554 966.142 731.422 933.689 686.486C909.623 653.163 891.426 621.916 891.246 621.605L894.705 619.597C895.423 620.834 967.127 743.586 1015.83 763.422L1014.32 767.127Z" fill="#864A56"/><g id="Group 5"><mask id="mask0_406_32696172da7ec-15ef-4111-972f-3851589ebe13" style="mask-type:luminance" maskUnits="userSpaceOnUse" x="446" y="325" width="604" height="618" fill="#ffffff"><path id="Clip 4" fill-rule="evenodd" clip-rule="evenodd" d="M446 325.601H1049.92V942.318H446V325.601Z" fill="#ffffff"/></mask><g mask="url(#mask0_406_32696172da7ec-15ef-4111-972f-3851589ebe13)"><path id="Fill 3" fill-rule="evenodd" clip-rule="evenodd" d="M677.976 325.601C677.976 325.601 500.268 342.427 463.622 527.014C426.976 711.601 422.587 929.328 704.976 940.601C987.366 951.873 1011.38 904.363 1011.18 893.982C1010.98 883.601 1015.98 712.601 1038.98 582.601C1061.98 452.601 1063.98 382.601 887.976 339.601C887.976 339.601 809.976 443.601 677.976 325.601" fill="#D60000"/></g></g><path id="Fill 6" fill-rule="evenodd" clip-rule="evenodd" d="M812.977 401.601L833.977 305.601C833.977 305.601 832.977 289.601 857.977 290.601C882.977 291.601 1059.98 288.601 1059.98 288.601C1059.98 288.601 1073.98 286.601 1077.98 299.601C1081.98 312.601 1029.98 530.601 1029.98 530.601C1029.98 530.601 1030.98 545.601 1013.98 545.601C996.977 545.601 787.977 553.601 787.977 553.601L812.977 401.601" fill="#204EB2"/><g id="Group 10"><mask id="mask1_406_32696172da7ec-15ef-4111-972f-3851589ebe13" style="mask-type:luminance" maskUnits="userSpaceOnUse" x="787" y="288" width="292" height="267" fill="#ffffff"><path id="Clip 9" fill-rule="evenodd" clip-rule="evenodd" d="M787.383 288H1078.68V554.124H787.383V288Z" fill="#ffffff"/></mask><g mask="url(#mask1_406_32696172da7ec-15ef-4111-972f-3851589ebe13)"><path id="Fill 8" fill-rule="evenodd" clip-rule="evenodd" d="M813.467 401.694L788.569 553.077C801.109 552.598 997.615 545.1 1013.98 545.1C1019.2 545.1 1023.21 543.657 1025.87 540.809C1029.82 536.604 1029.48 530.692 1029.48 530.633L1029.47 530.558L1029.49 530.484C1030.01 528.305 1081.41 312.469 1077.5 299.748C1073.67 287.316 1060.6 289.016 1060.05 289.095C1058.21 289.131 882.682 292.091 857.956 291.1C848.798 290.733 842.151 292.597 838.187 296.638C834.233 300.67 834.472 305.521 834.475 305.57L834.479 305.639L834.464 305.707L813.467 401.694ZM787.383 554.124L812.488 401.494L833.473 305.558C833.447 304.881 833.42 300.083 837.456 295.955C841.624 291.692 848.553 289.734 857.995 290.1C882.697 291.09 1058.2 288.13 1059.97 288.1C1060.05 288.084 1074.38 286.2 1078.45 299.453C1082.44 312.402 1032.84 520.762 1030.48 530.645C1030.52 531.418 1030.64 537.176 1026.61 541.485C1023.75 544.548 1019.49 546.1 1013.98 546.1C997.18 546.1 790.085 554.02 787.995 554.1L787.383 554.124Z" fill="black"/></g></g><path id="Fill 11" fill-rule="evenodd" clip-rule="evenodd" d="M819.977 408.601L840.977 312.601C840.977 312.601 839.977 296.601 864.977 297.601C889.977 298.601 1066.98 295.601 1066.98 295.601C1066.98 295.601 1080.98 293.601 1084.98 306.601C1088.98 319.601 1036.98 537.601 1036.98 537.601C1036.98 537.601 1037.98 552.601 1020.98 552.601C1003.98 552.601 794.977 560.601 794.977 560.601L819.977 408.601" fill="#56ACF6"/><path id="Fill 13" fill-rule="evenodd" clip-rule="evenodd" d="M711.178 559.129C711.178 559.129 769.334 492.851 785.196 464.445C801.057 436.04 801.057 419.47 799.735 406.451C798.413 393.432 798.413 378.046 808.987 375.679C819.561 373.312 820.883 379.23 822.204 393.432C823.527 407.635 822.204 421.837 845.996 413.553C869.787 405.268 927.945 385.148 934.553 401.717C941.161 418.287 926.622 420.653 926.622 420.653C926.622 420.653 937.197 421.837 939.84 430.122C942.484 438.407 939.84 444.325 931.909 447.875C923.979 451.426 920.014 452.609 920.014 452.609C920.014 452.609 935.874 450.242 939.84 462.078C943.805 473.913 937.197 479.831 930.588 482.198C930.588 482.198 939.088 483.566 941.161 492.851C942.484 498.769 934.553 502.318 925.301 505.869C912.793 510.67 875.074 511.787 843.353 531.907C811.63 552.028 734.969 683.402 696.639 723.643C658.308 763.884 619.977 659.732 619.977 659.732C619.977 659.732 667.56 599.37 711.178 559.129" fill="#c26e5e"/><path id="Fill 15" fill-rule="evenodd" clip-rule="evenodd" d="M860.924 439.855L860.145 436.959L926.232 419.205L927.011 422.101L860.924 439.855Z" fill="black"/><path id="Fill 17" fill-rule="evenodd" clip-rule="evenodd" d="M860.924 470.628L860.145 467.732L926.232 449.978L927.011 452.874L860.924 470.628Z" fill="black"/><path id="Fill 19" fill-rule="evenodd" clip-rule="evenodd" d="M868.855 501.4L868.078 498.504L934.165 480.751L934.942 483.647L868.855 501.4Z" fill="black"/><g id="Group 23"><mask id="mask2_406_32696172da7ec-15ef-4111-972f-3851589ebe13" style="mask-type:luminance" maskUnits="userSpaceOnUse" x="986" y="372" width="129" height="396" fill="#ffffff"><path id="Clip 22" fill-rule="evenodd" clip-rule="evenodd" d="M986.301 372.626H1114.97V767.601H986.301V372.626Z" fill="#ffffff"/></mask><g mask="url(#mask2_406_32696172da7ec-15ef-4111-972f-3851589ebe13)"><path id="Fill 21" fill-rule="evenodd" clip-rule="evenodd" d="M1019.77 711.174C1019.77 711.174 1029.02 663.832 1032.99 604.654C1036.95 545.478 1035.63 519.44 1030.34 514.705C1025.06 509.971 988.047 511.154 988.047 492.218C988.047 473.28 1014.48 479.198 1014.48 479.198C1014.48 479.198 986.726 474.464 989.37 460.262C992.013 446.059 1007.87 448.426 1007.87 448.426C1007.87 448.426 982.76 443.692 986.726 428.306C990.691 412.92 1014.48 418.837 1014.48 418.837C1014.48 418.837 992.013 415.287 1001.26 399.901C1010.52 384.515 1026.38 393.983 1044.88 398.717C1063.39 403.451 1064.71 404.635 1066.03 397.533C1067.35 390.432 1064.71 371.495 1079.25 372.679C1093.79 373.862 1096.43 378.597 1096.43 404.635C1096.43 430.673 1100.4 454.344 1104.36 478.015C1108.33 501.686 1109.65 528.907 1107 572.699C1104.36 616.49 1141.37 745.497 1075.28 764.435C1009.2 783.371 1019.77 711.174 1019.77 711.174" fill="#c26e5e"/></g></g><path id="Fill 24" fill-rule="evenodd" clip-rule="evenodd" d="M1047.72 487.321L1008.85 478.972L1009.48 476.039L1048.35 484.387L1047.72 487.321Z" fill="black"/><path id="Fill 26" fill-rule="evenodd" clip-rule="evenodd" d="M1046.79 458.242L1007.91 449.892L1008.55 446.959L1047.42 455.308L1046.79 458.242Z" fill="black"/><path id="Fill 28" fill-rule="evenodd" clip-rule="evenodd" d="M1048.49 426.963L1009.62 418.614L1010.25 415.681L1049.12 424.029L1048.49 426.963Z" fill="black"/><path id="Fill 30" fill-rule="evenodd" clip-rule="evenodd" d="M1084.27 407.876L1065.11 403.733L1065.74 400.802L1084.91 404.944L1084.27 407.876Z" fill="black"/></g></g></g><g id="Expression" transform="translate(1055 738) scale(1 1)"><g id="Expression/Wink"><g id="Group 16"><path id="Fill 1" fill-rule="evenodd" clip-rule="evenodd" d="M65.1191 151.577C65.1191 151.577 81.2691 176.577 103.212 162.117L65.1191 151.577Z" fill="black"/><path id="Fill 5" fill-rule="evenodd" clip-rule="evenodd" d="M152.748 87.3186C152.748 90.6316 150.062 93.3186 146.748 93.3186C143.434 93.3186 140.748 90.6316 140.748 87.3186C140.748 84.0056 143.434 81.3186 146.748 81.3186C150.062 81.3186 152.748 84.0056 152.748 87.3186" fill="black"/><g id="Group 9"><path id="Fill 7" fill-rule="evenodd" clip-rule="evenodd" d="M25 52.4905C25 52.4905 40.26 43.2805 51.897 41.1855C59.082 39.8925 98.756 45.4915 97.492 53.5815C96.26 61.4635 92.346 60.4025 76.686 57.7115C61.026 55.0195 53.873 53.2245 44.82 54.2035C35.766 55.1815 25.245 57.1395 25 52.4905" fill="black"/></g><path id="Fill 10" fill-rule="evenodd" clip-rule="evenodd" d="M188.067 67.7464C188.067 67.7464 185.452 59.7454 181.149 55.9004C176.846 52.0574 144.462 43.7574 138.985 48.8904C130.283 57.0464 136.536 59.9694 154.005 61.7814C168.054 63.2394 173.604 63.7254 180.115 66.5534C189.011 70.4174 187.87 69.2364 188.067 67.7464" fill="black"/></g><g id="Group 124"><path id="Stroke 114" d="M123.94 52.5156L127.749 53.7376L127.377 54.9309C127.077 55.9042 126.744 57.0178 126.384 58.2528C125.356 61.7837 124.327 65.576 123.368 69.4789C122.301 73.8175 121.387 78.0249 120.672 81.9976L120.465 83.1739C118.727 93.2775 118.482 100.993 120.034 105.142L120.126 105.377C129.004 127.34 116.948 138.478 91.6439 130.679L90.873 130.436L92.0921 126.627C114.886 133.921 124.027 125.703 116.417 106.876C114.322 101.694 114.645 92.8992 116.735 81.2889C117.466 77.2272 118.398 72.9393 119.483 68.5239C120.349 65.0027 121.269 61.5727 122.196 58.338L122.543 57.1344C122.752 56.4175 122.952 55.7405 123.143 55.1067L123.631 53.5023L123.94 52.5156Z" fill="black"/><path id="Stroke 122" d="M25.1855 205.534L27.1425 202.045L27.8567 202.435L28.5118 202.783C29.5036 203.305 30.6327 203.881 31.8877 204.498L32.4332 204.765C36.6543 206.821 41.3224 208.878 46.301 210.798C57.7489 215.212 69.0606 218.225 79.5848 219.202C84.3541 219.645 88.8741 219.656 93.1069 219.202L93.9496 219.105L94.4385 223.075C89.6635 223.663 84.5751 223.683 79.2149 223.185C68.2771 222.169 56.6257 219.066 44.8619 214.53C39.7712 212.567 35.0001 210.465 30.6815 208.361L29.0484 207.554C28.354 207.206 27.7021 206.873 27.0948 206.556L25.9633 205.958L25.1855 205.534Z" fill="black"/></g><path id="Fill 12" fill-rule="evenodd" clip-rule="evenodd" d="M78.6366 79.1288C77.9116 79.1288 77.1856 78.8679 76.6096 78.3389C76.5716 78.3049 71.6246 73.9129 64.4836 74.1789C57.0946 74.4519 52.1896 78.0668 52.1406 78.1028C50.8186 79.0928 48.9396 78.8329 47.9446 77.5169C46.9476 76.1999 47.1966 74.3309 48.5086 73.3279C48.7646 73.1319 54.8866 68.5299 64.2616 68.1829C73.9106 67.8359 80.3946 73.6699 80.6656 73.9189C81.8866 75.0389 81.9686 76.9369 80.8476 78.1569C80.2566 78.8019 79.4476 79.1288 78.6366 79.1288" fill="black"/></g></g><g id="Hairstyle" transform="translate(564 411) scale(1 1)"><g id="Hairstyle/Wavy Long Hair"><g id="Group 3"><mask id="mask0_406_14051228e0565-54a9-456e-8fdc-d6644b6bfaf6" style="mask-type:luminance" maskUnits="userSpaceOnUse" x="252" y="216" width="517" height="473" fill="#ffffff"><path id="Clip 2" fill-rule="evenodd" clip-rule="evenodd" d="M252 216H768.176V688.256H252V216Z" fill="#ffffff"/></mask><g mask="url(#mask0_406_14051228e0565-54a9-456e-8fdc-d6644b6bfaf6)"><path id="Fill 1" fill-rule="evenodd" clip-rule="evenodd" d="M644.91 682.62C618.53 690.87 639.57 618.88 629.16 601.96C618.75 585.04 609.29 546.61 624.26 528.39C639.22 510.17 668.26 461.8 672.36 421.55C676.45 381.31 668.91 362.64 668.91 362.64C668.91 362.64 639.56 373.31 613.76 349.3C598.11 334.73 567.33 323.89 544.18 303.28C543.99 312.2 541.28 326.05 527.11 330.56C505.62 337.4 506.93 366.52 461.83 361.73C461.83 361.73 439.32 349.87 437.58 378.2C435.85 406.54 444.29 426.32 456.92 427.64C456.92 427.64 472.74 432.6 468.8 454.1C464.86 475.59 493.19 490.33 488.44 517.87C483.69 545.41 470.4 553.96 479.89 578.65C489.39 603.34 492.6 632.2 481.03 656.99C469.47 681.78 406.37 642.01 381.64 661.37C356.91 680.72 354.76 668.89 323.58 651.69C292.4 634.49 258.96 658.11 259.2 625.47C259.55 578.72 239.71 547.39 264.44 525.89C289.17 504.39 285.87 483.23 296.83 457.85C312.45 421.67 342.43 419.2 347.81 391.25C353.18 363.29 365.77 330.76 399.96 309.07C438.34 284.74 460.13 216.23 508.51 235.58C510.58 236.41 512.54 237.28 514.39 238.18C515.14 227.92 521.18 212.99 550.9 216.53C595.3 221.82 674.61 229.22 687.29 270.46C699.98 311.69 696.81 344.47 713.73 384.65C730.64 424.83 701.04 440.69 714.78 467.12C728.53 493.55 754.96 522.1 752.85 549.59C750.73 577.08 736.99 611.98 760.25 640.53C783.51 669.07 750.73 690.22 724.3 688.11C697.87 685.99 671.29 674.38 644.91 682.62Z" fill="#9b5120"/></g></g></g></g><g id="Accessories" transform="translate(1008 771) scale(234 78)"><g id="Accessories/None" stroke="none" stroke-width="1" fill="none" fill-rule="evenodd" fill-opacity="0"/></g><g id="Facial Hair" transform="translate(1018 772) scale(212 211)"><g id="Facial Hair/None" stroke="none" stroke-width="1" fill="none" fill-rule="evenodd" fill-opacity="0"/></g></g></g><g id="Chair 3"><path id="Fill 52_2" fill-rule="evenodd" clip-rule="evenodd" d="M2741.52 2393.73C2729.78 2461.24 2616.79 3189.13 2616.79 3189.13C2616.79 3189.13 2619.33 3207.51 2637.72 3210.21C2656.1 3212.91 2665.83 3196.15 2665.83 3196.15L2825.2 2411.42L2741.52 2393.73Z" fill="#DDB0C8"/><path id="Fill 53_2" fill-rule="evenodd" clip-rule="evenodd" d="M3112.36 2410.97C3124.77 2478.36 3271.25 3200.25 3271.25 3200.25C3271.25 3200.25 3280.01 3216.61 3298.19 3212.77C3316.37 3208.93 3319.69 3189.83 3319.69 3189.83L3196.98 2398.54L3112.36 2410.97Z" fill="#DDB0C8"/><path id="Fill 54_2" fill-rule="evenodd" clip-rule="evenodd" d="M3298.11 2408.77C3310.51 2476.16 3456.99 3198.05 3456.99 3198.05C3456.99 3198.05 3465.75 3214.41 3483.93 3210.57C3502.11 3206.73 3505.43 3187.63 3505.43 3187.63L3382.72 2396.34L3298.11 2408.77Z" fill="#DDB0C8"/><path id="Fill 55_2" fill-rule="evenodd" clip-rule="evenodd" d="M3396.84 2424.55H2718.93C2693.25 2424.55 2672.44 2403.74 2672.44 2378.06C2672.44 2352.38 2693.25 2331.56 2718.93 2331.56H3396.84C3422.52 2331.56 3443.33 2352.38 3443.33 2378.06C3443.33 2403.74 3422.52 2424.55 3396.84 2424.55" fill="#EECCDC"/></g><g id="Master/Character/Sitting On Chair" transform="matrix(-1 0 0 1 4295 506) scale(1 1)"><g id="Master/Character/Sitting On Chair"><g id="Lower Body/Sitting On Chair" transform="translate(876 1607) scale(1 1)"><g id="Lower Body/Sitting On Chair/4"><g id="Group 68"><g id="Group 3"><path id="Fill 2" fill-rule="evenodd" clip-rule="evenodd" d="M805.172 988.968L875.774 1055.99L983.41 1047.26L974.771 1018.83L842.928 975.443L805.172 988.968Z" fill="#56ACF6"/><path id="Fill 34" fill-rule="evenodd" clip-rule="evenodd" d="M762.343 590.123C761.654 599.746 788.527 792.787 788.527 792.787L890.54 802.204L915.541 579.41L762.343 590.123Z" fill="#7d4439"/><path id="Fill 36" fill-rule="evenodd" clip-rule="evenodd" d="M774.102 898.767C774.337 895.485 785.37 787.453 785.37 787.453C785.37 787.453 782.417 782.626 783.31 770.159C784.203 757.692 792.267 746.397 845.086 754.796C897.907 763.195 900.718 769.991 900.342 775.241C899.966 780.49 893.169 792.534 892.557 801.065C891.946 809.595 890.62 892.6 890.62 892.6L774.102 898.767Z" fill="#E4F9FF"/><path id="Fill 38" fill-rule="evenodd" clip-rule="evenodd" d="M772.858 894.504L763.213 980.888L833.054 967.652L899.003 994.664L999.22 1031.22L1082.92 1022.52L1079.4 1000.99C1079.4 1000.99 1004.2 961.669 986.239 950.758C968.276 939.847 961.081 920.846 961.081 920.846L932.836 880.031C932.836 880.031 902.68 836.482 878.601 832.728C854.522 828.975 833.931 833.182 838.515 842.843C843.099 852.505 854.458 869.55 854.458 869.55L810.453 860.718L785.532 891.396L778.928 898.634L781.584 903.732" fill="#F4F0F1"/><path id="Fill 40" fill-rule="evenodd" clip-rule="evenodd" d="M779.604 907.106C779.604 907.106 778.697 914.835 803.296 922.62C827.895 930.405 854.306 942.572 858.085 929.378C861.865 916.185 855.723 902.989 855.723 902.989L878.281 919.485C878.281 919.485 888.677 937.592 876.789 955.165C864.902 972.738 835.089 973.438 835.089 973.438L822.451 961.904C822.451 961.904 782.947 939.588 774.49 924.101C766.032 908.615 779.604 907.106 779.604 907.106" fill="#F9C818"/><mask id="mask0_406_1419382645f3b-c93e-4fac-b5b8-f2482bb25a80" style="mask-type:luminance" maskUnits="userSpaceOnUse" x="705" y="847" width="400" height="266" fill="#ffffff"><path id="Clip 43" fill-rule="evenodd" clip-rule="evenodd" d="M705.9 873.848L1087.42 847.169L1104.13 1086.03L722.603 1112.71L705.9 873.848Z" fill="#ffffff"/></mask><g mask="url(#mask0_406_1419382645f3b-c93e-4fac-b5b8-f2482bb25a80)"><path id="Fill 42" fill-rule="evenodd" clip-rule="evenodd" d="M771.088 875.576C771.088 875.576 742.209 943.976 744.743 942.998C747.277 942.019 763.519 908.561 764.198 921.365C764.875 934.171 756.458 950.555 758.199 964.789C758.199 964.789 771.381 999.164 779.314 999.732C787.248 1000.3 825.067 990.433 825.067 990.433C825.067 990.433 842.312 968.051 878.054 991.465C913.796 1014.88 959.936 1038.73 959.936 1038.73C959.936 1038.73 954.319 1043.45 954.103 1047.83C953.887 1052.21 956.69 1058.18 956.69 1058.18L816.864 1038.02L741.591 987.055L732.275 988.039C732.275 988.039 723.637 993.365 722.86 1008.83C722.083 1024.29 722.787 1028.31 720.463 1033.09C718.138 1037.88 712.176 1047.36 730.339 1051.96C748.501 1056.57 884.863 1089.11 944.938 1094.08C1005.01 1099.04 1066.66 1081.99 1083.35 1065.68C1100.04 1049.37 1102.62 1036.35 1098.89 1023.87C1095.16 1011.38 1087.79 996.33 1070.55 999.187C1053.32 1002.05 1043.48 1004.91 1015.21 995.885C986.948 986.865 975.785 987.914 976.779 994.323C977.771 1000.73 998.587 1006.84 998.587 1006.84C998.587 1006.84 1026.52 1013.07 1026.33 1015.82C1026.13 1018.58 1025.16 1021.02 999.823 1019.07C974.485 1017.13 944.128 1011.59 904.297 987.354C864.465 963.118 852.651 953.622 826.492 956.554C800.333 959.487 776.888 971.505 770.283 953.01C763.678 934.517 781.721 910 781.584 903.732C781.445 897.465 772.858 894.504 772.858 894.504L771.155 869.285" fill="#15023F"/><path id="Fill 45" fill-rule="evenodd" clip-rule="evenodd" d="M774.683 859.881C774.683 859.881 773.729 861.138 771.153 869.285C768.578 877.432 767.686 902.542 776.438 901.721C785.191 900.898 792.04 883.639 799.803 873.872C807.567 864.105 817.361 861.365 825.726 865.948C834.092 870.532 866.407 868.534 866.407 868.534C866.407 868.534 857.749 853.826 829.045 853.549C829.045 853.549 808.756 846.828 796.905 865.266C785.053 883.703 777.837 902.024 776.967 886.516C776.218 873.163 780.422 864.984 779.529 860.271C778.635 855.556 774.683 859.881 774.683 859.881" fill="#451989"/><path id="Fill 47" fill-rule="evenodd" clip-rule="evenodd" d="M994.703 954.394C994.703 954.394 979.402 956.656 934.947 952.471C890.494 948.276 900.348 928.118 882.223 922.78C864.098 917.452 862.142 916.631 852.239 899.77C842.349 882.91 817.357 898.285 805.451 895.418C793.537 892.54 829.198 859.763 829.198 859.763C829.198 859.763 848.488 854.578 866.407 868.532C871.449 872.463 881.631 886.536 884.712 889.834C887.785 893.133 906.479 899.914 923.103 920.754C939.726 941.604 963.118 935.7 967.768 936.976C972.408 938.262 932.352 882.588 932.352 882.588L932.427 877.049C932.427 877.049 957.443 913.85 969.684 930.246C981.934 946.642 992.018 950.723 993.844 951.686C995.659 952.658 994.703 954.394 994.703 954.394" fill="#E263AB"/><path id="Fill 49" fill-rule="evenodd" clip-rule="evenodd" d="M756.444 909.433C756.444 909.433 727.812 974.65 729.417 989.608C731.022 1004.57 763.102 994.94 776.62 1023.65C790.138 1052.36 810.335 1064.94 895.875 1079.85C981.415 1094.76 1053.58 1062.69 1053.94 1057.69C1054.3 1052.7 1053.73 1043.03 1053.73 1043.03C1053.73 1043.03 930.546 1063.08 879.471 1028.46C828.396 993.847 826.643 983.261 807.464 988.164C788.286 993.067 777.018 986.822 762.392 969.039C762.392 969.039 760.937 960.147 766.352 937.106C771.767 914.063 767.02 881.181 756.444 909.433" fill="white"/><path id="Fill 51" fill-rule="evenodd" clip-rule="evenodd" d="M830.244 856.389C830.244 856.389 819.793 845.021 837.087 832.742C854.38 820.462 885.267 829.593 894.539 839.429C894.539 839.429 876.815 830.758 854.767 833.042C832.719 835.326 837.897 841.65 848.039 857.341L828.106 854.789" fill="#451989"/><path id="Fill 53" fill-rule="evenodd" clip-rule="evenodd" d="M859.723 869.114C862.091 872.885 860.071 878.414 855.214 881.464C850.356 884.515 844.498 883.931 842.131 880.161C839.763 876.391 841.783 870.862 846.641 867.812C851.499 864.761 857.356 865.344 859.723 869.114" fill="#1F003C"/><path id="Fill 55" fill-rule="evenodd" clip-rule="evenodd" d="M845.037 876.096C845.037 876.096 846.187 868.027 861.727 862.705C877.265 857.382 906.626 848.759 922.203 860.886C937.78 873.013 936.386 878.49 936.386 878.49C936.386 878.49 925.006 871.669 916.206 868.751C907.406 865.833 895.474 864.693 883.585 866.988C871.694 869.282 859.835 873.152 856.003 874.736C852.172 876.321 848.613 884.074 845.037 876.096" fill="#E8D9F3"/><path id="Fill 57" fill-rule="evenodd" clip-rule="evenodd" d="M880.564 886.48C882.932 890.251 880.913 895.779 876.055 898.83C871.197 901.881 865.339 901.297 862.973 897.527C860.605 893.757 862.624 888.228 867.482 885.177C872.341 882.127 878.197 882.71 880.564 886.48" fill="#1F003C"/><path id="Fill 59" fill-rule="evenodd" clip-rule="evenodd" d="M865.88 893.462C865.88 893.462 867.007 885.391 881.958 880.027C896.909 874.662 925.154 865.96 940.092 878.04C955.031 890.122 953.677 895.602 953.677 895.602C953.677 895.602 942.757 888.814 934.306 885.92C925.856 883.027 914.391 881.921 902.957 884.248C891.521 886.575 880.11 890.477 876.423 892.072C872.736 893.667 869.295 901.429 865.88 893.462" fill="#E8D9F3"/><path id="Fill 61" fill-rule="evenodd" clip-rule="evenodd" d="M903.59 902.278C905.958 906.048 903.938 911.576 899.08 914.627C894.222 917.678 888.365 917.094 885.999 913.324C883.631 909.554 885.649 904.024 890.507 900.974C895.366 897.924 901.222 898.507 903.59 902.278" fill="#1F003C"/><path id="Fill 63" fill-rule="evenodd" clip-rule="evenodd" d="M888.879 909.593C888.879 909.593 889.835 902.34 901.749 897.412C913.661 892.485 943.771 885.965 955.544 896.699C967.317 907.433 960.053 914.827 960.053 914.827C960.053 914.827 949.965 904.845 943.275 902.312C936.586 899.777 927.49 898.87 918.392 901.044C909.294 903.218 900.202 906.807 897.263 908.266C894.323 909.726 891.532 916.719 888.879 909.593" fill="#E8D9F3"/></g></g><g id="Group 67"><path id="Fill 65" fill-rule="evenodd" clip-rule="evenodd" d="M3.181 1.00195C3.181 1.00195 -2.9996 188.559 30.423 177.445C30.423 177.445 212.422 195.505 256.88 202.451C279.247 205.946 322.025 232.716 455.899 255.05C589.774 277.385 717.417 300.408 717.417 309.382C717.417 327.444 746.578 459.2 753.524 620.36C753.524 620.36 795.204 670.374 920.241 625.917C920.241 625.917 929.304 310.818 866.785 188.559C747.406 30.178 369.005 1.00195 369.005 1.00195H3.181Z" fill="#E93737"/><g id="Group 2"><path id="Fill 4" fill-rule="evenodd" clip-rule="evenodd" d="M363.338 570.507C363.338 580.153 375.285 826.9 375.285 826.9L472.716 835.852L526.576 557L363.338 570.507Z" fill="#7d4439"/><g id="Group"><path id="Fill 1" fill-rule="evenodd" clip-rule="evenodd" d="M394.703 881.042L460.458 952.83L568.441 951.624L561.806 922.667L433.311 870.184L394.703 881.042Z" fill="#56ACF6"/><path id="Fill 3" fill-rule="evenodd" clip-rule="evenodd" d="M394.969 994.317L460.724 1066.1L568.707 1064.9L562.072 1035.94L433.577 983.459L394.969 994.317Z" fill="#56ACF6"/><path id="Fill 6" fill-rule="evenodd" clip-rule="evenodd" d="M366.143 917.293C366.143 914.004 369.432 805.46 369.432 805.46C369.432 805.46 366.143 800.855 366.143 788.356C366.143 775.856 373.379 764.016 426.664 768.62C479.95 773.226 483.239 779.804 483.239 785.066C483.239 790.329 477.319 802.828 477.319 811.38C477.319 819.933 481.923 902.82 481.923 902.82L366.143 917.293Z" fill="#E4F9FF"/><path id="Fill 8" fill-rule="evenodd" clip-rule="evenodd" d="M364.596 913.129L361.145 999.982L429.864 981.791L497.572 1004.03L600.145 1033.33L683.012 1018.68L677.959 997.455C677.959 997.455 600.145 963.602 581.45 954.001C562.754 944.4 554.22 925.962 554.22 925.962L523.132 887.269C523.132 887.269 489.943 845.983 465.658 843.96C441.372 841.936 421.134 847.603 426.396 856.912C431.658 866.221 444.205 882.411 444.205 882.411L399.683 876.744L377.016 909.125L370.945 916.816L373.958 921.711" fill="#F4F0F1"/><path id="Fill 10" fill-rule="evenodd" clip-rule="evenodd" d="M372.224 925.218C372.224 925.218 371.87 932.992 396.962 939C422.055 945.009 449.268 955.257 452.095 941.827C454.922 928.399 447.854 915.675 447.854 915.675L471.533 930.519C471.533 930.519 483.195 947.836 472.593 966.213C461.991 984.591 432.304 987.418 432.304 987.418L418.874 976.816C418.874 976.816 377.878 957.378 368.336 942.534C358.794 927.692 372.224 925.218 372.224 925.218" fill="#F9C818"/><path id="Fill 12" fill-rule="evenodd" clip-rule="evenodd" d="M361.479 894.376C361.479 894.376 337.559 964.664 340.017 963.508C342.475 962.352 356.286 927.817 357.875 940.541C359.466 953.265 352.242 970.209 354.995 984.282C354.995 984.282 370.597 1017.63 378.551 1017.63C386.505 1017.63 423.523 1005.08 423.523 1005.08C423.523 1005.08 439.125 981.528 476.449 1002.33C513.772 1023.13 561.497 1043.63 561.497 1043.63C561.497 1043.63 556.231 1048.73 556.329 1053.12C556.426 1057.5 559.648 1063.26 559.648 1063.26L418.739 1053.13L340.018 1007.68L330.796 1009.32C330.796 1009.32 322.562 1015.25 322.891 1030.73C323.22 1046.21 324.208 1050.17 322.232 1055.11C320.256 1060.05 314.986 1069.93 333.431 1073.22C351.875 1076.52 490.213 1099.24 550.489 1099.9C610.764 1100.56 671.04 1079.15 686.52 1061.7C702 1044.24 703.648 1031.06 699.037 1018.88C694.425 1006.69 685.992 992.205 669.006 996.286C652.02 1000.37 642.409 1003.92 613.573 996.944C584.737 989.966 573.676 991.81 575.124 998.13C576.573 1004.45 597.772 1009.06 597.772 1009.06C597.772 1009.06 626.082 1013.27 626.082 1016.04C626.082 1018.8 625.291 1021.3 599.878 1021.17C574.466 1021.04 543.791 1017.69 502.331 996.356C460.87 975.026 448.408 966.399 422.525 971.192C396.642 975.985 374.115 989.646 366.207 971.672C358.297 953.697 374.543 927.954 373.958 921.712C373.374 915.471 364.596 913.13 364.596 913.13L361.096 888.098" fill="#15023F"/><path id="Fill 14" fill-rule="evenodd" clip-rule="evenodd" d="M363.944 878.465C363.944 878.465 363.083 879.788 361.095 888.098C359.108 896.407 360.011 921.518 368.683 920.072C377.354 918.628 382.955 900.924 390 890.627C397.045 880.33 406.62 876.898 415.291 880.872C423.962 884.846 456.052 880.546 456.052 880.546C456.052 880.546 446.366 866.493 417.715 868.267C417.715 868.267 396.999 863.013 386.494 882.249C375.988 901.486 370.1 920.276 368.125 904.87C366.424 891.604 370.033 883.147 368.805 878.508C367.578 873.869 363.944 878.465 363.944 878.465" fill="#451989"/><path id="Fill 16" fill-rule="evenodd" clip-rule="evenodd" d="M590.153 957.023C590.153 957.023 575.052 960.374 530.413 959.374C485.773 958.364 494.163 937.553 475.703 933.523C457.243 929.503 455.233 928.824 444.153 912.713C433.083 896.603 409.253 913.723 397.173 911.713C385.083 909.693 418.313 874.454 418.313 874.454C418.313 874.454 437.183 867.904 456.052 880.544C461.363 884.103 472.523 897.414 475.833 900.483C479.133 903.553 498.262 908.983 516.333 928.584C534.403 948.193 557.313 940.633 562.043 941.574C566.762 942.523 522.833 889.853 522.833 889.853L522.512 884.324C522.512 884.324 550.092 919.244 563.473 934.723C576.863 950.204 587.213 953.553 589.103 954.383C590.983 955.223 590.153 957.023 590.153 957.023" fill="#E263AB"/><path id="Fill 18" fill-rule="evenodd" clip-rule="evenodd" d="M349.291 929.193C349.291 929.193 325.39 996.288 328.06 1011.09C330.729 1025.9 362.039 1014.01 377.572 1041.68C393.106 1069.34 414.15 1080.45 500.537 1089.21C586.923 1097.98 656.616 1060.84 656.616 1055.83C656.616 1050.82 655.364 1041.22 655.364 1041.22C655.364 1041.22 533.923 1070.02 480.505 1039.13C427.088 1008.25 424.584 997.82 405.805 1004.08C387.024 1010.34 375.34 1004.92 359.481 988.221C359.481 988.221 357.395 979.458 361.15 956.088C364.906 932.717 357.823 900.257 349.291 929.193" fill="white"/><path id="Fill 20" fill-rule="evenodd" clip-rule="evenodd" d="M419.114 871.015C419.114 871.015 407.878 860.421 424.25 846.938C440.622 833.455 472.082 840.357 482.034 849.506C482.034 849.506 463.735 842.122 441.906 845.975C420.077 849.828 425.695 855.766 436.93 870.694L416.867 869.57" fill="#451989"/><path id="Fill 22" fill-rule="evenodd" clip-rule="evenodd" d="M449.425 881.602C452.056 885.193 450.437 890.852 445.809 894.242C441.182 897.631 435.298 897.468 432.667 893.876C430.036 890.286 431.655 884.626 436.283 881.237C440.911 877.847 446.795 878.01 449.425 881.602" fill="#1F003C"/><path id="Fill 24" fill-rule="evenodd" clip-rule="evenodd" d="M435.277 889.615C435.277 889.615 435.847 881.484 450.966 875.065C466.087 868.647 494.756 857.949 511.16 868.932C527.562 879.916 526.564 885.478 526.564 885.478C526.564 885.478 514.725 879.487 505.739 877.205C496.754 874.923 484.772 874.637 473.076 877.776C461.38 880.914 449.826 885.621 446.117 887.475C442.409 889.329 439.414 897.317 435.277 889.615" fill="#E8D9F3"/><path id="Fill 26" fill-rule="evenodd" clip-rule="evenodd" d="M471.455 897.435C474.085 901.026 472.466 906.685 467.839 910.075C463.211 913.464 457.327 913.301 454.696 909.709C452.066 906.119 453.684 900.459 458.312 897.07C462.94 893.68 468.824 893.843 471.455 897.435" fill="#1F003C"/><path id="Fill 28" fill-rule="evenodd" clip-rule="evenodd" d="M457.305 905.448C457.305 905.448 457.854 897.317 472.383 890.899C486.912 884.48 514.464 873.782 530.227 884.765C545.991 895.749 545.031 901.311 545.031 901.311C545.031 901.311 533.654 895.32 525.019 893.038C516.383 890.756 504.869 890.47 493.629 893.609C482.389 896.747 471.286 901.454 467.723 903.308C464.159 905.162 461.281 913.15 457.305 905.448" fill="#E8D9F3"/><path id="Fill 30" fill-rule="evenodd" clip-rule="evenodd" d="M495.549 911.547C498.179 915.139 496.56 920.798 491.933 924.188C487.305 927.577 481.421 927.413 478.79 923.822C476.16 920.232 477.778 914.572 482.406 911.183C487.034 907.793 492.918 907.956 495.549 911.547" fill="#1F003C"/><path id="Fill 32" fill-rule="evenodd" clip-rule="evenodd" d="M481.398 919.894C481.398 919.894 481.834 912.591 493.364 906.826C504.894 901.06 534.462 892.407 546.972 902.273C559.481 912.138 552.763 920.032 552.763 920.032C552.763 920.032 541.988 910.797 535.135 908.748C528.282 906.698 519.144 906.441 510.224 909.26C501.305 912.079 492.494 916.306 489.666 917.972C486.837 919.638 484.553 926.813 481.398 919.894" fill="#E8D9F3"/></g></g><path id="Fill 65 Copy" fill-rule="evenodd" clip-rule="evenodd" d="M99.0983 255.048C232.973 277.383 360.616 300.406 360.616 309.38C360.616 327.442 349.777 459.198 356.723 620.358C356.723 620.358 398.403 670.372 523.44 625.915C523.44 625.915 572.503 310.816 509.984 188.557C390.605 30.176 12.2039 1 12.2039 1C12.2039 1 -34.7762 232.714 99.0983 255.048Z" fill="#E93737"/></g></g><path id="Path 9" d="M403.875 92.6582C488.951 124.441 532.921 183.135 535.436 268.361L535.499 270.951L530.5 271.049C528.863 187.358 487.024 129.899 404.634 98.2919L402.125 97.342L403.875 92.6582Z" fill="black"/></g></g><g id="Upper Body" transform="translate(333 655) scale(1 1)"><g id="Upper Body/With Laptop"><path id="Neck" fill-rule="evenodd" clip-rule="evenodd" d="M724.954 220C724.954 220 721.263 301.153 673.924 329.8C630.973 355.791 721.969 506.61 819.858 497.614C873.442 492.688 886 346.158 886 346.158C886 346.158 842.734 337.797 858.716 271.819L724.954 220Z" fill="#7d4439"/><path id="Head" fill-rule="evenodd" clip-rule="evenodd" d="M803.337 302.516C739.877 294.841 694.078 253.116 687.665 183.898C669.216 186.835 664.865 138.765 670.003 123.323C675.146 107.859 691.933 116.901 691.933 116.901C691.933 116.901 693.327 113.235 694.303 109.226C722.025 -4.48555 799.67 0.0243587 799.67 0.0243587C942.344 7.45716 908.914 153.12 900.763 191.763C892.611 230.41 864.684 309.927 803.337 302.516Z" fill="#7d4439"/><g id="Group 25"><g id="Group 19"><path id="Path" fill-rule="evenodd" clip-rule="evenodd" d="M355.167 622.26C355.167 622.26 272.104 769.102 318.966 841.798C365.828 914.494 432.305 818.432 459.628 711.139C486.95 603.847 543.449 539.781 543.449 539.781L355.167 622.26Z" fill="#7d4439"/><path id="Fill 4" fill-rule="evenodd" clip-rule="evenodd" d="M546.853 361.719C629.753 336.083 655.299 334.639 655.299 334.639L742.806 353.497C742.806 353.497 790.767 416.531 794.877 472.713C794.877 472.713 796.247 398.717 827.765 348.016C827.765 348.016 966.477 346.741 1018.77 401.343C1101.37 487.586 1099.81 638.913 1099.81 638.913L963.52 652.929L1018.77 576C1018.77 576 1022.26 889.417 1014.04 970.265C909.998 1085.03 535.998 996.203 535.998 996.203C535.998 996.203 544.113 736.864 545.483 665.926C546.853 594.987 520.618 604.569 484.451 692.503C454.884 764.394 360.883 615.342 360.883 615.342C360.883 615.342 418.579 401.385 546.853 361.719Z" fill="#1BC0D7"/><path id="Fill 6" fill-rule="evenodd" clip-rule="evenodd" d="M970.042 752.324C970.042 752.324 1037.34 728.192 1105.77 742.442C1105.77 742.442 1104.88 720.104 1105.59 690.608C1106.16 666.383 1119.43 628.891 1071.56 632.929C1015.84 637.628 991.959 638.12 967.734 649.079C967.734 649.079 961.967 729.253 970.042 752.324" fill="#FCEBEC"/><path id="Fill 10" fill-rule="evenodd" clip-rule="evenodd" d="M329.938 662.404L359.283 570.059C359.283 570.059 467.903 547.37 510.938 641.254L478.683 724.849C478.683 724.849 418.369 635.909 329.938 662.404" fill="#237978"/><g id="Group 14"><mask id="mask0_406_32652b925195f-0bb5-4973-8b20-43c3bd039d74" style="mask-type:luminance" maskUnits="userSpaceOnUse" x="604" y="321" width="142" height="92" fill="#ffffff"><path id="Clip 13" fill-rule="evenodd" clip-rule="evenodd" d="M604.551 321H745.312V412.701H604.551V321Z" fill="#ffffff"/></mask><g mask="url(#mask0_406_32652b925195f-0bb5-4973-8b20-43c3bd039d74)"><path id="Fill 12" fill-rule="evenodd" clip-rule="evenodd" d="M656.699 321.099C656.699 321.099 601.292 339.853 604.702 344.967C608.111 350.081 706.477 415.503 713.851 412.607C721.225 409.71 748.878 357.302 744.928 352.035C740.977 346.768 661.435 319.133 656.699 321.099" fill="#237978"/></g></g><path id="Fill 15" fill-rule="evenodd" clip-rule="evenodd" d="M916.609 343.895C916.609 343.895 964.299 377.765 959.565 381.685C954.831 385.605 841.824 420.035 835.591 415.143C829.36 410.251 817.917 352.111 823.212 348.2C828.509 344.289 912.636 340.652 916.609 343.895" fill="#237978"/><path id="Fill 8" fill-rule="evenodd" clip-rule="evenodd" d="M395.846 718.513C423.148 758.491 406.954 759.221 418.844 781.21C430.733 803.199 441.92 849.091 455.568 847.941C469.216 846.791 469.931 839.206 464.614 825.02C459.299 810.834 443.721 765.412 449.558 763.253C455.396 761.095 474.247 850.882 495.875 849.438C517.503 847.993 499.354 801.975 489.57 781.388C479.786 760.802 476.461 745.55 482.643 746.876C488.824 748.204 512.649 848.691 530.244 845.667C547.84 842.645 538.897 807.343 529.146 786.496C519.396 765.649 504.843 732.801 504.843 732.801C504.843 732.801 529.559 764.843 540.77 803.085C551.981 841.327 558.876 843.276 565.176 839.589C571.475 835.902 563.123 790.875 563.123 790.875C563.123 790.875 584.217 756.359 557.683 725.599C531.149 694.84 516.318 662.421 479.74 645.023C443.164 627.624 420.439 642.107 420.439 642.107C420.439 642.107 368.544 678.535 395.846 718.513Z" fill="#7d4439"/><path id="Fill 17" fill-rule="evenodd" clip-rule="evenodd" d="M928.985 530.492H838.163C834.466 530.492 831.469 527.496 831.469 523.8V515.931C831.469 512.236 834.466 509.239 838.163 509.239H928.985C932.681 509.239 935.677 512.236 935.677 515.931V523.8C935.677 527.496 932.681 530.492 928.985 530.492" fill="#237978"/></g><g id="Group 24"><path id="Fill 20" fill-rule="evenodd" clip-rule="evenodd" d="M848.288 867.428L665.573 816.781C665.573 816.781 654.214 804.79 687.66 801.635C721.105 798.48 1070.56 789.143 1070.56 789.143L848.288 867.428Z" fill="#204EB2"/><path id="Fill 22" fill-rule="evenodd" clip-rule="evenodd" d="M1366.31 866.879H853.827C844.334 866.879 836.637 859.184 836.637 849.69L883.161 512.203C883.161 502.71 890.856 495.014 900.349 495.014H1412.83C1422.33 495.014 1430.02 502.71 1430.02 512.203L1383.5 849.69C1383.5 859.184 1375.81 866.879 1366.31 866.879" fill="#3267C8"/></g><g id="Group 2"><path id="Fill 12" fill-rule="evenodd" clip-rule="evenodd" d="M1245.01 866.879C1245.01 866.879 1242.12 872.72 1238.17 878.88C1234.21 885.04 1231.96 881.44 1224.85 894.58C1217.75 907.721 1197.52 933.793 1147.81 915.824C1098.1 897.853 1098.18 886.451 1100.9 871.485C1103.62 856.52 1108.04 853.458 1102.69 828.657C1097.34 803.857 1113.38 773.191 1119.42 771.771L1125.45 770.35C1125.45 770.35 1126.62 745.6 1136.4 744.044C1146.19 742.49 1147.28 749.176 1147.28 749.176C1147.28 749.176 1150.26 743.335 1159.21 744.217C1168.16 745.1 1171.94 761.744 1175.54 781.157C1179.14 800.567 1184.94 851.761 1187.86 854.064C1190.77 856.367 1193.39 854.432 1191.2 842.687C1189.01 830.941 1174.7 785.222 1187.44 781.083C1200.17 776.944 1207.08 789.866 1215.18 816.48C1223.29 843.093 1226.35 847.514 1225.97 854.679L1228.42 866.879L1245.01 866.879Z" fill="#7d4439"/><path id="Fill 14" fill-rule="evenodd" clip-rule="evenodd" d="M1147.21 748.773C1147.21 748.773 1147.77 747.035 1147.17 758.819C1146.95 763.11 1147.18 768.987 1148.21 777.038C1152.05 807.204 1156.74 854.968 1159.24 869.321C1161.73 883.676 1155.13 873.363 1151.31 839.94C1147.49 806.517 1143.91 766.417 1143.93 764.56C1143.95 761.397 1144.02 751.911 1147.21 748.773" fill="black"/><path id="Fill 16" fill-rule="evenodd" clip-rule="evenodd" d="M1126.11 819.767C1127.02 832.868 1129.01 854.575 1129.19 856.877C1129.52 860.985 1130.41 868.941 1130.41 868.941C1130.41 868.941 1127.63 869.744 1124.97 845.373C1124.31 839.327 1122.57 828.278 1122.31 821.003C1122.07 814.31 1120.58 790.35 1122.07 786.614C1123.57 782.88 1125.86 781.594 1125.86 781.594C1125.86 781.594 1125.26 807.427 1126.11 819.767Z" fill="black"/></g></g></g></g><g id="Expression" transform="translate(1055 738) scale(1 1)"><g id="Expression/Smile"><g id="Group 124"><path id="Stroke 114" d="M123.94 52.5156L127.749 53.7376L127.377 54.9309C127.077 55.9042 126.744 57.0178 126.384 58.2528C125.356 61.7837 124.327 65.576 123.368 69.4789C122.301 73.8175 121.387 78.0249 120.672 81.9976L120.465 83.1739C118.727 93.2775 118.482 100.993 120.034 105.142L120.126 105.377C129.004 127.34 116.948 138.478 91.6439 130.679L90.873 130.436L92.0921 126.627C114.886 133.921 124.027 125.703 116.417 106.876C114.322 101.694 114.645 92.8992 116.735 81.2889C117.466 77.2272 118.398 72.9393 119.483 68.5239C120.349 65.0027 121.269 61.5727 122.196 58.338L122.543 57.1344C122.752 56.4175 122.952 55.7405 123.143 55.1067L123.631 53.5023L123.94 52.5156Z" fill="black"/><path id="Stroke 122" d="M25.1855 205.534L27.1425 202.045L27.8567 202.435L28.5118 202.783C29.5036 203.305 30.6327 203.881 31.8877 204.498L32.4332 204.765C36.6543 206.821 41.3224 208.878 46.301 210.798C57.7489 215.212 69.0606 218.225 79.5848 219.202C84.3541 219.645 88.8741 219.656 93.1069 219.202L93.9496 219.105L94.4385 223.075C89.6635 223.663 84.5751 223.683 79.2149 223.185C68.2771 222.169 56.6257 219.066 44.8619 214.53C39.7712 212.567 35.0001 210.465 30.6815 208.361L29.0484 207.554C28.354 207.206 27.7021 206.873 27.0948 206.556L25.9633 205.958L25.1855 205.534Z" fill="black"/></g><g id="Group 16"><path id="Fill 3" fill-rule="evenodd" clip-rule="evenodd" d="M98.0372 161.995C79.1662 161.995 64.9382 153.351 64.2702 152.938C62.8612 152.068 62.4252 150.219 63.2962 148.809C64.1652 147.401 66.0142 146.963 67.4242 147.834C67.7062 148.006 84.4192 158.048 104.568 155.603C106.201 155.405 107.707 156.575 107.908 158.22C108.108 159.864 106.936 161.36 105.291 161.559C102.814 161.861 100.388 161.995 98.0372 161.995" fill="black"/><path id="Fill 5" fill-rule="evenodd" clip-rule="evenodd" d="M105.825 133.166C101.782 133.166 96.7384 132.375 90.4434 130.361L91.6614 126.551C103.385 130.302 112.045 129.996 116.046 125.687C119.449 122.02 119.428 115.313 115.987 106.801C113.652 101.026 114.229 90.0734 117.702 74.2454C120.243 62.6624 123.477 52.5414 123.51 52.4404L127.318 53.6624C123.811 64.5954 115.606 95.1874 119.695 105.302C124.893 118.16 122.174 124.964 118.977 128.408C116.697 130.866 112.718 133.166 105.825 133.166" fill="black"/><g id="Group 9"><mask id="mask0_406_13922a2851756-14dd-40a1-997e-7dc3add1d5eb" style="mask-type:luminance" maskUnits="userSpaceOnUse" x="27" y="31" width="68" height="20" fill="#ffffff"><path id="Clip 8" fill-rule="evenodd" clip-rule="evenodd" d="M27.0352 31H94.6405V50.3876H27.0352V31Z" fill="#ffffff"/></mask><g mask="url(#mask0_406_13922a2851756-14dd-40a1-997e-7dc3add1d5eb)"><path id="Fill 7" fill-rule="evenodd" clip-rule="evenodd" d="M89.1393 50.3877C88.5383 50.3877 87.9263 50.2877 87.3273 50.0787C81.4913 48.0427 64.6343 42.6307 56.8223 42.0527C49.4663 41.5077 38.2433 45.1417 34.5393 46.5887C31.7103 47.6927 28.5213 46.2977 27.4153 43.4707C26.3083 40.6427 27.7013 37.4547 30.5283 36.3457C31.1643 36.0967 46.2603 30.2397 57.6343 31.0827C68.4893 31.8867 90.0393 39.3747 90.9513 39.6937C93.8193 40.6947 95.3323 43.8307 94.3323 46.6987C93.5403 48.9667 91.4133 50.3877 89.1393 50.3877" fill="black"/></g></g><path id="Fill 10" fill-rule="evenodd" clip-rule="evenodd" d="M181.678 69.1645C180.576 69.1645 179.464 68.8265 178.507 68.1245C175.448 65.8845 166.003 59.8175 159.138 58.6695C151.813 57.4455 134.961 58.8295 129.085 59.4645C126.138 59.7795 123.489 57.6525 123.17 54.7055C122.85 51.7575 124.981 49.1085 127.928 48.7895C128.85 48.6895 150.629 46.3615 160.908 48.0795C171.716 49.8855 184.329 59.0775 184.861 59.4685C187.25 61.2235 187.765 64.5835 186.01 66.9735C184.958 68.4055 183.329 69.1645 181.678 69.1645" fill="black"/></g><g id="Group 19"><path id="Fill 10_2" fill-rule="evenodd" clip-rule="evenodd" d="M75.5217 74.6586C75.5217 77.9056 72.8887 80.5386 69.6417 80.5386C66.3947 80.5386 63.7617 77.9056 63.7617 74.6586C63.7617 71.4106 66.3947 68.7786 69.6417 68.7786C72.8887 68.7786 75.5217 71.4106 75.5217 74.6586" fill="black"/><path id="Fill 12" fill-rule="evenodd" clip-rule="evenodd" d="M150.762 81.3383C150.762 84.5863 148.129 87.2183 144.882 87.2183C141.635 87.2183 139.002 84.5863 139.002 81.3383C139.002 78.0913 141.635 75.4583 144.882 75.4583C148.129 75.4583 150.762 78.0913 150.762 81.3383" fill="black"/></g></g></g><g id="Hairstyle" transform="translate(564 411) scale(1 1)"><g id="Hairstyle/Senior 1"><g id="Group 3"><mask id="mask0_406_140313abd514d-2207-4100-bf00-67f80dfa048b" style="mask-type:luminance" maskUnits="userSpaceOnUse" x="443" y="202" width="268" height="210" fill="#ffffff"><path id="Clip 2" fill-rule="evenodd" clip-rule="evenodd" d="M443 202H710.057V411.266H443V202Z" fill="#ffffff"/></mask><g mask="url(#mask0_406_140313abd514d-2207-4100-bf00-67f80dfa048b)"><path id="Fill 1" fill-rule="evenodd" clip-rule="evenodd" d="M462.041 373.117C462.041 373.117 426.041 328.117 453.041 266.117C480.041 204.117 542.041 195.117 579.041 208.117C579.041 208.117 708.041 171.117 710.041 279.117C711.674 367.306 584.041 297.117 584.041 297.117C584.041 297.117 584.041 349.117 533.041 343.117C482.041 337.117 482.041 415.117 473.041 411.117C464.041 407.117 462.041 373.117 462.041 373.117" fill="#878787"/></g></g></g></g><g id="Accessories" transform="translate(1008 771) scale(234 78)"><g id="Accessories/None" stroke="none" stroke-width="1" fill="none" fill-rule="evenodd" fill-opacity="0"/></g><g id="Facial Hair" transform="translate(1018 772) scale(1 1)"><g id="Facial Hair/Beard"><path id="Fill 137" fill-rule="evenodd" clip-rule="evenodd" d="M140.313 147.74L123.313 145.74C123.313 145.74 95.3128 169.74 83.3128 149.74C68.7878 125.532 96.3128 117.74 113.313 114.74C130.313 111.74 139.313 107.74 139.313 107.74C145.313 113.74 142.272 111.953 152.603 120.526C163.609 129.658 170.296 157.399 158.549 161.99C146.802 166.581 140.313 147.74 140.313 147.74ZM210.313 93.74C193.313 153.74 181.313 117.74 161.313 103.74C150.291 96.025 97.3128 83.74 82.3128 106.74C67.3128 129.74 64.3128 128.74 42.3128 108.74C20.3128 88.74 14.9288 69.919 14.3128 45.74C13.1468 0 7.14883 1.98 6.35883 0C6.07883 4.13 -1.62717 82.511 0.312831 107.74C2.31283 133.74 41.3128 214.74 115.313 210.74C189.313 206.74 207.313 139.74 211.313 93.74" fill="#878787"/></g></g></g></g><g id="Master/Character/Standing" transform="translate(-272 556) scale(1 1)"><g id="Master/Character/Standing"><g id="Lower Body/Standing" transform="translate(503 1151) scale(1 1)"><g id="Lower Body/Standing/Chill Stance"><g id="Group 22"><path id="Fill 1" fill-rule="evenodd" clip-rule="evenodd" d="M628.687 1312.03L618.945 1385.71L679.225 1397.89L706.016 1323.6L628.687 1312.03Z" fill="#c26e5e"/><path id="Fill 2" fill-rule="evenodd" clip-rule="evenodd" d="M987.322 1117.8L1029.26 1117.53L952.007 1232.88L916.691 1192.69L987.322 1117.8Z" fill="#c26e5e"/><g id="Group 21"><g id="Group 5"><path id="Fill 3" fill-rule="evenodd" clip-rule="evenodd" d="M871.23 1227.41C867.25 1227.41 855.44 1214.05 838.25 1191.31L814.61 1327.24C662.65 1350.21 599.05 1306.04 599.05 1306.04L643.72 902.288C575.32 795.628 513.471 688.01 487.07 649.368C406.855 531.961 424.001 0 424.001 0C535.411 3.04 874 0 874 0C874 0 900.22 553.328 900.22 602.248C900.22 651.178 873.04 859.568 873.04 859.568C873.04 859.568 1008.94 1087.88 999.88 1109.63C990.82 1131.37 894.78 1227.41 871.23 1227.41Z" fill="#204EB2"/></g><path id="Stroke 6" d="M676.092 202.6L676.268 202.608C677.921 202.724 679.167 204.158 679.05 205.811L678.848 208.934C678.779 210.056 678.705 211.302 678.627 212.668L678.426 216.305C678.175 220.991 677.927 226.193 677.692 231.866C675.162 292.981 675.76 359.442 681.675 421.897C688.51 494.061 701.806 551.598 722.713 588.978L747.383 633.148L775.551 683.693C793.311 715.591 811.878 748.988 830.555 782.617L873.975 860.867C874.778 862.316 874.254 864.142 872.805 864.945C871.409 865.718 869.665 865.261 868.82 863.933L827.503 789.481C808.682 755.589 789.944 721.881 772.002 689.654L744.974 641.146C735.165 623.557 725.972 607.095 717.476 591.907C696.067 553.63 682.608 495.388 675.702 422.462C669.757 359.695 669.157 292.981 671.697 231.618L671.84 228.256C672.081 222.748 672.333 217.721 672.586 213.22L672.86 208.563L673.065 205.389C673.177 203.796 674.515 202.581 676.092 202.6Z" fill="black"/><path id="Stroke 8" d="M710.641 990.215C711.994 989.37 713.76 989.734 714.673 991.017L714.775 991.169L839.212 1190.27C840.09 1191.67 839.663 1193.53 838.258 1194.4C836.905 1195.25 835.138 1194.88 834.225 1193.6L834.124 1193.45L709.687 994.349C708.809 992.944 709.236 991.093 710.641 990.215Z" fill="black"/><path id="Fill 10" fill-rule="evenodd" clip-rule="evenodd" d="M684.471 1383.98C684.471 1383.98 692.417 1382.39 692.417 1389.34C692.417 1396.29 684.471 1439.55 692.149 1473.92C699.826 1508.29 744.431 1552.89 635.479 1554.36C526.528 1555.82 551.755 1513.41 564.551 1496.95C577.347 1480.5 604.634 1441.43 610.849 1417.3C617.065 1393.17 613.543 1373.01 620.489 1369.72C620.489 1369.72 651.932 1383.25 684.471 1383.98Z" fill="#237978"/><path id="Fill 12" fill-rule="evenodd" clip-rule="evenodd" d="M556.282 1538.17C575.423 1554.07 607.866 1560.23 660.098 1554.07C712.33 1547.9 713.304 1527.79 705.193 1508.65C705.193 1508.65 613.697 1519.65 564.551 1496.96C564.551 1496.96 537.141 1522.27 556.282 1538.17Z" fill="#F9C818"/><path id="Fill 14" fill-rule="evenodd" clip-rule="evenodd" d="M941.273 1221.1C941.273 1221.1 935.007 1224.05 941.641 1232.89C948.275 1241.73 955.627 1262.74 967.899 1307.06C980.171 1351.37 983.579 1370.46 986.988 1427.73C990.397 1485 984.942 1564.76 1030.62 1540.9C1076.3 1517.04 1093.34 1439.32 1085.16 1392.28C1076.98 1345.24 1059.25 1296.83 1074.25 1237.52C1089.25 1178.21 1100.16 1140.71 1066.07 1129.12C1031.98 1117.53 1000.28 1107.4 1000.11 1119.62C1000.11 1119.62 1001.71 1193.46 941.273 1221.1Z" fill="#237978"/><path id="Fill 16" fill-rule="evenodd" clip-rule="evenodd" d="M1085.9 1448.26C1085.9 1448.26 1073 1549.37 1011.69 1546.68C1011.69 1546.68 989.097 1553.68 988.021 1468.16C988.021 1468.16 991.248 1508.5 1085.9 1448.26Z" fill="#F9C818"/><g id="Group 20"><mask id="mask0_406_14492bcaf8299-89e7-47f8-83b2-f8c5af6b677c" style="mask-type:luminance" maskUnits="userSpaceOnUse" x="1036" y="1119" width="54" height="109" fill="#ffffff"><path id="Clip 19" fill-rule="evenodd" clip-rule="evenodd" d="M1036.47 1119.71H1089.52V1227.18H1036.47V1119.71Z" fill="#ffffff"/></mask><g mask="url(#mask0_406_14492bcaf8299-89e7-47f8-83b2-f8c5af6b677c)"><path id="Fill 18" fill-rule="evenodd" clip-rule="evenodd" d="M1038.08 1119.71C1038.08 1119.71 1024.3 1190.74 1077.27 1227.18C1077.27 1227.18 1095.64 1168.08 1087.38 1148.49C1079.11 1128.89 1066.86 1127.97 1038.08 1119.71" fill="#F9C818"/></g></g></g></g></g></g><g id="Upper Body" transform="translate(376 277) scale(1 1)"><g id="Upper Body/Relaxed"><g id="Hand1"><path id="Fill 1" fill-rule="evenodd" clip-rule="evenodd" d="M219.607 1021.89C219.607 1021.89 213.4 1045.32 148.768 1042.86C114.66 1041.57 62.5171 1066.1 59.7308 1049.74C56.9445 1033.38 122.86 1009.15 122.86 1009.15C122.86 1009.15 82.6864 1006.49 49.0326 1014.52C15.3775 1022.55 -13.4136 1027.59 -13.4136 1027.59C-13.4136 1027.59 -29.6149 1023.79 -20.1077 1013.25C-10.601 1002.72 -4.60801 1002.43 -4.60801 1002.43C-4.60801 1002.43 -13.9051 996.464 -6.26478 988.769C1.37608 981.073 4.37283 980.929 4.37283 980.929C4.37283 980.929 -1.88363 975.732 4.80125 968.999C11.4872 962.265 19.4777 961.881 19.4777 961.881C19.4777 961.881 16.218 956.54 28.029 952.31C39.84 948.079 102.934 927.647 131.033 929.048C159.133 930.45 220.016 946.175 220.016 946.175C220.016 946.175 234.627 1013.93 219.607 1021.89" fill="#c26e5e"/><path id="Path 2" d="M-5 1000.98L-4.21302 1003.88L1.48797 1002.34C36.3589 992.96 62.3903 986.929 79.5602 984.247L80.6556 984.078L80.2072 981.112L78.5422 981.37C60.489 984.234 33.0348 990.667 -3.84445 1000.67L-5 1000.98Z" fill="#995B5D"/><path id="Path 2 Copy" d="M3.91016 978.678L4.66355 981.603L10.1212 980.045C43.5039 970.571 68.4244 964.479 84.8615 961.769L85.9102 961.599L85.4808 958.603L83.8869 958.863C66.6042 961.756 40.3217 968.255 5.01639 978.361L3.91016 978.678Z" fill="#995B5D"/><path id="Path 2 Copy 2" d="M19.9102 959.678L20.5809 962.603L25.4395 961.045C55.1583 951.571 77.3436 945.479 91.9766 942.769L92.9102 942.599L92.528 939.603L91.109 939.863C75.7231 942.756 52.3253 949.255 20.895 959.361L19.9102 959.678Z" fill="#995B5D"/></g><path id="Neck" fill-rule="evenodd" clip-rule="evenodd" d="M724.954 220C724.954 220 721.263 301.153 673.924 329.8C630.973 355.791 721.969 506.61 819.858 497.614C873.442 492.688 886 346.158 886 346.158C886 346.158 842.734 337.797 858.716 271.819L724.954 220Z" fill="#c26e5e"/><path id="Head" fill-rule="evenodd" clip-rule="evenodd" d="M803.337 302.516C739.877 294.841 694.078 253.116 687.665 183.898C669.216 186.835 664.865 138.765 670.003 123.323C675.146 107.859 691.933 116.901 691.933 116.901C691.933 116.901 693.327 113.235 694.303 109.226C722.025 -4.48555 799.67 0.0243587 799.67 0.0243587C942.344 7.45716 908.914 153.12 900.763 191.763C892.611 230.41 864.684 309.927 803.337 302.516Z" fill="#c26e5e"/><g id="Group 63"><path id="Fill 3" fill-rule="evenodd" clip-rule="evenodd" d="M1509.38 983.669C1509.05 983.683 1508.73 983.696 1508.41 983.696C1508.73 983.942 1509.03 984.216 1509.31 984.489C1510.05 985.173 1510.74 985.939 1511.35 986.773L1531.23 1013.55C1536.78 1021.03 1535.22 1031.58 1527.74 1037.13C1521 1042.14 1511.75 1041.34 1505.94 1035.64C1509.46 1042.81 1507.49 1051.68 1500.86 1056.62C1494.74 1061.16 1486.52 1060.93 1480.71 1056.56C1483.4 1063.46 1481.28 1071.57 1475.05 1076.19C1468.31 1081.21 1459.05 1080.4 1453.24 1074.7C1456.77 1081.86 1454.8 1090.75 1448.17 1095.68C1440.7 1101.23 1430.15 1099.66 1424.61 1092.19L1404.73 1065.41C1403.4 1063.63 1402.5 1061.68 1401.97 1059.67L1363 993.338C1364.63 992.121 1366.3 990.698 1367.98 989.03C1382.22 974.943 1429.49 932.465 1443.3 915L1449.67 922.276C1449.66 922.194 1449.65 922.112 1449.65 922.03C1449.65 922.03 1484.98 943.501 1510.57 944.062C1536.17 944.623 1575.6 930.919 1577.9 945.676C1580.49 962.388 1533.51 982.835 1509.38 983.669" fill="#c26e5e"/><path id="Fill 5" fill-rule="evenodd" clip-rule="evenodd" d="M135.992 927.185C135.992 927.185 368.677 545.401 452.679 455.018C536.682 364.636 525.219 344.712 671.309 331.812C671.309 331.812 666.408 412.485 761.044 428.435C855.679 444.385 873.196 349.717 863.374 328.998C863.374 328.998 995.242 368.624 1049.34 412.486C1103.43 456.347 1451.45 922.185 1451.45 922.185L1370.99 1007.54C1370.99 1007.54 1002.55 580.622 996.704 611.325C991.042 641.047 1061.49 949.938 1051.05 973.794C1050.7 974.582 1050.27 975.059 1049.74 975.205C1040.22 977.837 929.167 1034.97 776.256 1034.97C623.345 1034.97 520.372 1007.54 520.372 1007.13C520.372 1007.13 591.687 631.801 571.232 615.715C550.776 599.629 309.525 969.118 224.732 998.565L135.992 927.185Z" fill="#56ACF6"/><path id="Fill 7" fill-rule="evenodd" clip-rule="evenodd" d="M450.932 518.679L450.016 509.404L498.438 504.622L499.354 513.897L450.932 518.679Z" fill="#204EB2"/><path id="Fill 9" fill-rule="evenodd" clip-rule="evenodd" d="M727.834 666.352L726.918 657.077L775.339 652.295L776.255 661.57L727.834 666.352Z" fill="#204EB2"/><path id="Fill 11" fill-rule="evenodd" clip-rule="evenodd" d="M643.67 582.952L635.434 534.997L644.62 533.419L652.857 581.375L643.67 582.952Z" fill="#204EB2"/><path id="Fill 13" fill-rule="evenodd" clip-rule="evenodd" d="M488.439 629.568L480.223 625.167L503.201 582.277L511.417 586.678L488.439 629.568Z" fill="#204EB2"/><path id="Fill 15" fill-rule="evenodd" clip-rule="evenodd" d="M911.447 861.937L910.531 852.662L958.953 847.88L959.869 857.155L911.447 861.937Z" fill="#204EB2"/><path id="Fill 17" fill-rule="evenodd" clip-rule="evenodd" d="M918.548 559.936L885.871 523.884L892.777 517.624L925.454 553.676L918.548 559.936Z" fill="#204EB2"/><path id="Fill 19" fill-rule="evenodd" clip-rule="evenodd" d="M1298.93 833.141L1298.02 823.866L1346.44 819.084L1347.35 828.359L1298.93 833.141Z" fill="#204EB2"/><path id="Fill 21" fill-rule="evenodd" clip-rule="evenodd" d="M667.963 841.182L667.047 831.907L715.468 827.125L716.384 836.4L667.963 841.182Z" fill="#204EB2"/><path id="Fill 23" fill-rule="evenodd" clip-rule="evenodd" d="M315.492 767.211L313.273 758.158L360.532 746.576L362.751 755.628L315.492 767.211Z" fill="#204EB2"/><path id="Fill 25" fill-rule="evenodd" clip-rule="evenodd" d="M254.256 905.425L229.652 863.446L237.694 858.734L262.297 900.712L254.256 905.425Z" fill="#204EB2"/><path id="Fill 27" fill-rule="evenodd" clip-rule="evenodd" d="M1075.9 600.093L1074.98 590.818L1123.4 586.036L1124.32 595.311L1075.9 600.093Z" fill="#204EB2"/><path id="Fill 29" fill-rule="evenodd" clip-rule="evenodd" d="M658.814 438.368L657.898 429.093L706.32 424.311L707.236 433.586L658.814 438.368Z" fill="#204EB2"/><path id="Fill 31" fill-rule="evenodd" clip-rule="evenodd" d="M1329.23 928.125L1319.91 927.923L1320.97 879.277L1330.29 879.479L1329.23 928.125Z" fill="#204EB2"/><path id="Fill 33" fill-rule="evenodd" clip-rule="evenodd" d="M1172.82 734.009L1148.03 692.144L1156.05 687.394L1180.84 729.259L1172.82 734.009Z" fill="#204EB2"/><path id="Fill 35" fill-rule="evenodd" clip-rule="evenodd" d="M1399.41 934.711L1374.61 892.846L1382.63 888.096L1407.43 929.961L1399.41 934.711Z" fill="#204EB2"/><path id="Fill 37" fill-rule="evenodd" clip-rule="evenodd" d="M813.093 785.156L788.297 743.291L796.316 738.541L821.113 780.406L813.093 785.156Z" fill="#204EB2"/><path id="Fill 39" fill-rule="evenodd" clip-rule="evenodd" d="M615.323 969.284L590.527 927.419L598.546 922.669L623.343 964.534L615.323 969.284Z" fill="#204EB2"/><path id="Fill 41" fill-rule="evenodd" clip-rule="evenodd" d="M576.112 478.276L551.316 436.411L559.335 431.661L584.132 473.526L576.112 478.276Z" fill="#204EB2"/><path id="Fill 43" fill-rule="evenodd" clip-rule="evenodd" d="M414.148 682.863L389.352 640.998L397.371 636.248L422.168 678.113L414.148 682.863Z" fill="#204EB2"/><path id="Fill 45" fill-rule="evenodd" clip-rule="evenodd" d="M600.892 737.555L594.52 730.753L630.03 697.488L636.402 704.29L600.892 737.555Z" fill="#204EB2"/><path id="Fill 47" fill-rule="evenodd" clip-rule="evenodd" d="M889.017 689.818L882.645 683.016L918.155 649.751L924.527 656.553L889.017 689.818Z" fill="#204EB2"/><path id="Fill 49" fill-rule="evenodd" clip-rule="evenodd" d="M771.38 950.666L765.008 943.864L800.518 910.599L806.89 917.401L771.38 950.666Z" fill="#204EB2"/><path id="Fill 51" fill-rule="evenodd" clip-rule="evenodd" d="M1221.47 804.046L1215.1 797.244L1250.61 763.979L1256.98 770.781L1221.47 804.046Z" fill="#204EB2"/><path id="Fill 53" fill-rule="evenodd" clip-rule="evenodd" d="M769.677 539.788L763.305 532.986L798.815 499.721L805.187 506.523L769.677 539.788Z" fill="#204EB2"/><path id="Fill 55" fill-rule="evenodd" clip-rule="evenodd" d="M1020.29 526.149L1013.92 519.347L1049.43 486.082L1055.8 492.884L1020.29 526.149Z" fill="#204EB2"/><path id="Fill 57" fill-rule="evenodd" clip-rule="evenodd" d="M1495.49 997.235L1495.44 997.835C1495.23 997.635 1495.01 997.435 1494.78 997.255C1495.01 997.255 1495.25 997.245 1495.49 997.235" fill="#c26e5e"/></g></g></g><g id="Expression" transform="translate(1098 360) scale(1 1)"><g id="Expression/Smile"><g id="Group 124"><path id="Stroke 114" d="M123.94 52.5156L127.749 53.7376L127.377 54.9309C127.077 55.9042 126.744 57.0178 126.384 58.2528C125.356 61.7837 124.327 65.576 123.368 69.4789C122.301 73.8175 121.387 78.0249 120.672 81.9976L120.465 83.1739C118.727 93.2775 118.482 100.993 120.034 105.142L120.126 105.377C129.004 127.34 116.948 138.478 91.6439 130.679L90.873 130.436L92.0921 126.627C114.886 133.921 124.027 125.703 116.417 106.876C114.322 101.694 114.645 92.8992 116.735 81.2889C117.466 77.2272 118.398 72.9393 119.483 68.5239C120.349 65.0027 121.269 61.5727 122.196 58.338L122.543 57.1344C122.752 56.4175 122.952 55.7405 123.143 55.1067L123.631 53.5023L123.94 52.5156Z" fill="black"/><path id="Stroke 122" d="M25.1855 205.534L27.1425 202.045L27.8567 202.435L28.5118 202.783C29.5036 203.305 30.6327 203.881 31.8877 204.498L32.4332 204.765C36.6543 206.821 41.3224 208.878 46.301 210.798C57.7489 215.212 69.0606 218.225 79.5848 219.202C84.3541 219.645 88.8741 219.656 93.1069 219.202L93.9496 219.105L94.4385 223.075C89.6635 223.663 84.5751 223.683 79.2149 223.185C68.2771 222.169 56.6257 219.066 44.8619 214.53C39.7712 212.567 35.0001 210.465 30.6815 208.361L29.0484 207.554C28.354 207.206 27.7021 206.873 27.0948 206.556L25.9633 205.958L25.1855 205.534Z" fill="black"/></g><g id="Group 16"><path id="Fill 3" fill-rule="evenodd" clip-rule="evenodd" d="M98.0372 161.995C79.1662 161.995 64.9382 153.351 64.2702 152.938C62.8612 152.068 62.4252 150.219 63.2962 148.809C64.1652 147.401 66.0142 146.963 67.4242 147.834C67.7062 148.006 84.4192 158.048 104.568 155.603C106.201 155.405 107.707 156.575 107.908 158.22C108.108 159.864 106.936 161.36 105.291 161.559C102.814 161.861 100.388 161.995 98.0372 161.995" fill="black"/><path id="Fill 5" fill-rule="evenodd" clip-rule="evenodd" d="M105.825 133.166C101.782 133.166 96.7384 132.375 90.4434 130.361L91.6614 126.551C103.385 130.302 112.045 129.996 116.046 125.687C119.449 122.02 119.428 115.313 115.987 106.801C113.652 101.026 114.229 90.0734 117.702 74.2454C120.243 62.6624 123.477 52.5414 123.51 52.4404L127.318 53.6624C123.811 64.5954 115.606 95.1874 119.695 105.302C124.893 118.16 122.174 124.964 118.977 128.408C116.697 130.866 112.718 133.166 105.825 133.166" fill="black"/><g id="Group 9"><mask id="mask0_406_13922a2851756-14dd-40a1-997e-7dc3add1d5eb" style="mask-type:luminance" maskUnits="userSpaceOnUse" x="27" y="31" width="68" height="20" fill="#ffffff"><path id="Clip 8" fill-rule="evenodd" clip-rule="evenodd" d="M27.0352 31H94.6405V50.3876H27.0352V31Z" fill="#ffffff"/></mask><g mask="url(#mask0_406_13922a2851756-14dd-40a1-997e-7dc3add1d5eb)"><path id="Fill 7" fill-rule="evenodd" clip-rule="evenodd" d="M89.1393 50.3877C88.5383 50.3877 87.9263 50.2877 87.3273 50.0787C81.4913 48.0427 64.6343 42.6307 56.8223 42.0527C49.4663 41.5077 38.2433 45.1417 34.5393 46.5887C31.7103 47.6927 28.5213 46.2977 27.4153 43.4707C26.3083 40.6427 27.7013 37.4547 30.5283 36.3457C31.1643 36.0967 46.2603 30.2397 57.6343 31.0827C68.4893 31.8867 90.0393 39.3747 90.9513 39.6937C93.8193 40.6947 95.3323 43.8307 94.3323 46.6987C93.5403 48.9667 91.4133 50.3877 89.1393 50.3877" fill="black"/></g></g><path id="Fill 10" fill-rule="evenodd" clip-rule="evenodd" d="M181.678 69.1645C180.576 69.1645 179.464 68.8265 178.507 68.1245C175.448 65.8845 166.003 59.8175 159.138 58.6695C151.813 57.4455 134.961 58.8295 129.085 59.4645C126.138 59.7795 123.489 57.6525 123.17 54.7055C122.85 51.7575 124.981 49.1085 127.928 48.7895C128.85 48.6895 150.629 46.3615 160.908 48.0795C171.716 49.8855 184.329 59.0775 184.861 59.4685C187.25 61.2235 187.765 64.5835 186.01 66.9735C184.958 68.4055 183.329 69.1645 181.678 69.1645" fill="black"/></g><g id="Group 19"><path id="Fill 10_2" fill-rule="evenodd" clip-rule="evenodd" d="M75.5217 74.6586C75.5217 77.9056 72.8887 80.5386 69.6417 80.5386C66.3947 80.5386 63.7617 77.9056 63.7617 74.6586C63.7617 71.4106 66.3947 68.7786 69.6417 68.7786C72.8887 68.7786 75.5217 71.4106 75.5217 74.6586" fill="black"/><path id="Fill 12" fill-rule="evenodd" clip-rule="evenodd" d="M150.762 81.3383C150.762 84.5863 148.129 87.2183 144.882 87.2183C141.635 87.2183 139.002 84.5863 139.002 81.3383C139.002 78.0913 141.635 75.4583 144.882 75.4583C148.129 75.4583 150.762 78.0913 150.762 81.3383" fill="black"/></g></g></g><g id="Hairstyle" transform="translate(607 33) scale(1 1)"><g id="Hairstyle/Double Bun"><g id="Group 13"><path id="Fill 1" fill-rule="evenodd" clip-rule="evenodd" d="M598.478 279.481C598.478 279.481 513.347 281.373 488.754 347.585C464.161 413.798 486.115 435.966 467.16 476.684C448.206 517.401 413.105 520.911 413.105 520.911C413.105 520.911 460.842 491.426 461.544 455.624C462.246 419.82 459.864 365.377 460.353 363.464C460.842 361.552 441.911 356.451 438.389 369.883C438.389 369.883 427.24 290.021 470.141 243.883C531.135 178.285 686.026 206.528 680.552 325.585C676.631 410.863 683.831 440.974 683.831 440.974C683.831 440.974 677.781 406.521 674.848 373.767C671.915 341.013 664.621 298.46 611.043 280.473C611.043 280.473 589.229 260.573 582.723 259.042C576.217 257.511 600.838 271.217 598.478 279.481" fill="black"/><path id="Stroke 3" fill-rule="evenodd" clip-rule="evenodd" d="M598.478 279.481C598.478 279.481 513.347 281.373 488.754 347.585C464.161 413.798 486.115 435.966 467.16 476.684C448.206 517.401 413.105 520.911 413.105 520.911C413.105 520.911 460.842 491.426 461.544 455.624C462.246 419.82 459.864 365.377 460.353 363.464C460.842 361.552 441.911 356.451 438.389 369.883C438.389 369.883 427.24 290.021 470.141 243.883C531.135 178.285 686.026 206.528 680.552 325.585C676.631 410.863 683.831 440.974 683.831 440.974C683.831 440.974 677.781 406.521 674.848 373.767C671.915 341.013 664.621 298.46 611.043 280.473C611.043 280.473 589.229 260.573 582.723 259.042C576.217 257.511 600.838 271.217 598.478 279.481Z" fill="#878787"/><path id="Stroke 7" fill-rule="evenodd" clip-rule="evenodd" d="M513.244 266.06C513.244 266.06 475.717 288.576 447.197 252.55C418.677 216.525 462.208 182 499.734 182C537.261 182 550.771 204.516 547.768 228.534C544.766 252.55 529.756 260.056 513.244 266.06Z" fill="#878787"/><path id="Stroke 11" fill-rule="evenodd" clip-rule="evenodd" d="M662.635 188.118C662.635 188.118 704.854 195.014 707.122 238.467C709.388 281.919 655.697 279.963 626.113 256.876C596.529 233.788 598.514 209.286 614.359 193.862C630.203 178.439 646.249 182.277 662.635 188.118Z" fill="#878787"/></g></g></g><g id="Accessories" transform="translate(1051 393) scale(234 78)"><g id="Accessories/None" stroke="none" stroke-width="1" fill="none" fill-rule="evenodd" fill-opacity="0"/></g><g id="Facial Hair" transform="translate(1061 394) scale(212 211)"><g id="Facial Hair/None" stroke="none" stroke-width="1" fill="none" fill-rule="evenodd" fill-opacity="0"/></g></g></g></g></svg>