<svg xmlns="http://www.w3.org/2000/svg" fill="none" viewBox="0 0 560 459" width="560" height="459"><defs><clipPath id="assetClipPath_Y0QvPxBJ"><path d="m0 133.92857142857142 h 1500 v 1229.4642857142856 h -1500 v -1229.4642857142856 z" id="path_1_H1yCZR" fill="#ffffff" /></clipPath><clipPath id="clipPath_KY7Sd8lv"><path d="m0 0 h 1063.5 v 1119.168 h -1063.5 v -1119.168 z" id="path_QTRhjC8w" /></clipPath><clipPath id="clipPath_GvC84sew"><path d="m0 0 h 157.36 v 417.16 h -157.36 v -417.16 z" id="path_112yVkxG" /></clipPath><clipPath id="clipPath_R-8u5q_x"><path d="m0 0 h 138.816 v 169.319 h -138.816 v -169.319 z" id="path_Goa0DKjd" /></clipPath><clipPath id="clipPath_j4RD5eBu"><path d="m0 0 h 45.288 v 45.288 h -45.288 v -45.288 z" id="path_Pv-MZyf3" /></clipPath><clipPath id="clipPath_T3MQJGto"><path d="m0 0 h 128.833 v 198.637 h -128.833 v -198.637 z" id="path_QeS2aXzq" /></clipPath><clipPath id="clipPath_yaUsuGIg"><path d="m0 0 h 128.833 v 198.637 h -128.833 v -198.637 z" id="path_XiVSkON0" /></clipPath><clipPath id="clipPath_vBGrzsd0"><path d="m0 0 h 77.439 v 26.908 h -77.439 v -26.908 z" id="path_rw9IG1Ww" /></clipPath><clipPath id="clipPath_IqWHCJZK"><path d="m0 0 h 43.552 v 29.324 h -43.552 v -29.324 z" id="path_7eYH3zn2" /></clipPath></defs><g transform="translate(0 -50)" data-asset-index="0"><g clip-path="url(#assetClipPath_Y0QvPxBJ)" transform="scale(0.37333333333333335 0.37333333333333335)" data-asset-index="0"><defs /><g transform="translate(1236.0 170.0) rotate(0.0 -562.0 591.5) scale(-1.0568876351669017 1.0570352261680107)" id="UpFoGjtZozUc4Yyb5s_YT"><g clip-path="url(#clipPath_KY7Sd8lv)" transform="matrix(1 0 0 1 0 0)" id="MjhIeLnKwN3r92yJNkz5D"><path d="m727.219 253.64 108.753 46.496-72.383 50.015z" fill="#FFBBA0" id="Bz8HKYWTOtRpRKnjrNzD" /><path d="M236.988 538.038c-48.738-7.125-81.728-9.797-81.728-9.797-63.778-23.529-34.246-75.031-5.572-128.332l106.928 12.573c30.29 42.613 8.688 107.508-19.628 125.556z" fill="#FF8B74" id="XVDN7uPqLZJ9BabW-rbOK" /><path d="M239.004 410.412c-18.176-16.953-45.737-40.763-66.711-51.084s-35.037 12.666-16.211 32.11 37.44 35.538 39.966 37.695c14.192 12.12 63.943.853 42.956-18.721z" fill="#FF8B74" id="tSHYic7mxscbxU-azCkic" /><path d="M209.874 471.81c-.247 0-.498-.061-.729-.19-6.994-3.899-12.28-11.225-14.884-20.628-2.215-7.999-2.21-16.554-.074-21.483-4.123-3.565-21.552-18.822-39.182-37.029a1.5 1.5 0 0 1 2.155-2.087c19.652 20.297 39.046 36.901 39.862 37.598a1.5 1.5 0 0 1 .326 1.888c-1.905 3.312-2.621 11.557-.196 20.311 2.388 8.623 7.166 15.303 13.454 18.808a1.5 1.5 0 0 1-.732 2.812z" fill="#003029" id="bw-a6E0cqxeXBPNVkcG" /><path d="M155.261 434.052c-42.943-4.284-47.434-18.868-46.655-28.475 1.607-19.821 31.669-21.079 44.619-19.162 20.525 3.038 26.19 15.213 24.779 22.217-2.161 10.726-12.58 19.54-40.027 16.476z" fill="#FF8B74" id="rt--tNlsUAuBa0PemP2v" /><path d="M147.884 427.185c-3.622 0-7.078-.252-10.073-.586a1.5 1.5 0 0 1 .333-2.981c22.591 2.522 35.868-2.762 38.39-15.282.596-2.958-.354-6.582-2.542-9.695-2.732-3.888-8.59-8.907-20.987-10.742-5.125-.759-13.477-1.051-21.546.403a1.5 1.5 0 1 1-.532-2.952c8.426-1.519 17.157-1.212 22.518-.419 13.45 1.991 19.932 7.617 23.002 11.985 2.691 3.829 3.794 8.208 3.028 12.012-3.003 14.907-18.383 18.257-31.591 18.257z" fill="#003029" id="Sfos4nwA8Q_YhcHo81WY" /><path d="M152.953 465.864c-42.943-4.284-47.434-18.868-46.655-28.475 1.607-19.821 31.669-21.079 44.619-19.162 20.525 3.038 26.19 15.213 24.779 22.217-2.161 10.726-12.58 19.54-40.027 16.476z" fill="#FF8B74" id="z95bRuPR3HmfuwFf9vfR" /><path d="M145.576 458.998c-3.622 0-7.078-.252-10.073-.586a1.5 1.5 0 0 1 .333-2.981c22.59 2.522 35.868-2.762 38.39-15.282.596-2.958-.354-6.582-2.542-9.695-2.732-3.888-8.59-8.907-20.987-10.742-10.15-1.503-28.535-.832-37.576 7.175a1.5 1.5 0 1 1-1.988-2.245c4.506-3.991 11.49-6.724 20.198-7.906 6.453-.875 13.857-.872 19.806.008 13.45 1.991 19.932 7.617 23.002 11.985 2.691 3.829 3.794 8.208 3.028 12.012-3.002 14.907-18.383 18.256-31.591 18.257z" fill="#003029" id="soVW0GmbLUIUFcujN4ug_" /><path d="M154.26 498.134c-42.943-4.284-47.434-18.868-46.655-28.475 1.607-19.821 31.669-21.079 44.619-19.162 20.525 3.038 26.19 15.213 24.779 22.217-2.161 10.726-12.58 19.54-40.027 16.476z" fill="#FF8B74" id="w5Ok8cXJS0Cq0xndjLSkr" /><path d="M146.883 491.267c-3.622 0-7.078-.252-10.073-.586a1.5 1.5 0 0 1 .333-2.981c22.591 2.522 35.868-2.762 38.39-15.282.596-2.958-.354-6.582-2.542-9.695-2.732-3.888-8.59-8.907-20.987-10.742-11.696-1.732-32.979-.483-40.3 10.238a1.5 1.5 0 0 1-2.478-1.692c9.113-13.345 34.286-12.836 43.217-11.514 13.45 1.991 19.932 7.617 23.002 11.985 2.691 3.829 3.794 8.208 3.028 12.012-3.002 14.907-18.382 18.256-31.59 18.257z" fill="#003029" id="tONlGzCDUCofwtgwA7Nj9" /><path d="M155.26 528.242c-42.943-4.284-47.432-18.792-46.653-28.4 1.607-19.821 31.669-21.079 44.619-19.162 20.525 3.038 26.19 15.213 24.779 22.217-2.161 10.726-12.58 19.54-40.027 16.476z" fill="#FF8B74" id="X1_B4dyKN9ul9PRstEj5l" /><path d="M147.884 521.451c-3.622 0-7.078-.252-10.073-.586a1.5 1.5 0 0 1 .333-2.981c22.591 2.522 35.868-2.762 38.39-15.282.596-2.958-.354-6.582-2.542-9.695-2.732-3.888-8.59-8.907-20.987-10.742-11.197-1.658-31.875-.566-39.7 9.419a1.5 1.5 0 1 1-2.361-1.851c8.669-11.063 30.166-12.362 42.501-10.537 13.45 1.991 19.932 7.617 23.002 11.985 2.691 3.829 3.794 8.208 3.028 12.012-3.003 14.908-18.383 18.257-31.591 18.258z" fill="#003029" id="TIFMbFQOxtyxG3KGecxz" /><path d="M566.881 305.755c-12.744 46.378-20.212 74.767-44.871 151.513-14.298 44.5-38.568 110.764-124.466 101.108-42.374-4.763-90.155 62.724-123.389-15.181l19.463-126.361 90.519 10.644S395.951 395 407.6 362.76c21.725-60.125 37.963-99.829 83.046-137.819z" fill="#FFBBA0" id="eqx2npXfR9f-wKpu7n8lB" /><path d="M539.868 406.241a1.5 1.5 0 0 1-1.335-.814c-8.085-15.723-28.152-30.473-55.055-40.467-25.64-9.525-52.74-12.991-72.494-9.272a1.5 1.5 0 0 1-.555-2.949c20.266-3.816 47.965-.298 74.094 9.408 27.597 10.252 48.256 25.527 56.679 41.908a1.5 1.5 0 0 1-1.334 2.186z" fill="#003029" id="JIVZAVKZ4lQBYzbgK4loj" /><path d="M786.135 322.906c94.801 39.246 149.88 127.7 73.425 234.366-63.768 88.964-107.877 149.161-138.084 188.613 75.502 24.254 118.535 67.938 199.777 126.341-2.825 42.167-22.752 104.975-75.689 113.982-49.481-20.587-109.972-46.113-161.332-68.838-130.646-57.804-210.139-125.617-142.647-236.681 24.785-40.786 167.963-233.535 167.963-233.535s-3.249-157.299 76.587-124.248z" fill="#FF8B74" id="O-D1FETfAPZprEWnrKUNz" /><path d="M681.039 335.581c76.119 48.17 131.266 134.274 46.87 235.588-70.39 84.501-185.596 198.945-223.906 240.294-41.001 44.254-91.4 104.501-214.798 185.441-100.108 3.02-105.168-84.845-105.168-84.845L579.21 447.154c.001 0 25.709-159.743 101.829-111.573z" fill="#FF8B74" id="Ya07qRrqv-PcfllwQLKSX" /><path d="M789.457 324.519c-38.567-15.748-57.61 10.107-67.397 43.184-12.313-12.02-26.27-22.786-41.022-32.121-76.119-48.171-101.828 111.573-101.828 111.573L287.448 790.4c81.115 12.842 150.052 148.418 212.258 167.734l266.389-349.182-54.158 149.39s84.286-110.845 147.623-201.071c75.758-107.918 26.009-193.506-70.103-232.752z" fill="#ABFFFF" id="TFz2sLPAvcwlNQbirPA6t" /><path d="M499.706 959.635c-.148 0-.298-.022-.445-.068-28.052-8.711-57.234-40.498-88.129-74.152-39.033-42.518-79.395-86.484-123.919-93.533a1.499 1.499 0 0 1-.908-2.453l242.121-284.845a1.5 1.5 0 1 1 2.285 1.943l-240.42 282.846c44.507 8.453 84.424 51.936 123.052 94.013 30.242 32.942 58.826 64.08 85.813 72.997l265.748-348.341a1.5 1.5 0 0 1 2.602 1.421L716.731 749.52c16.297-21.578 63.189-83.923 107.667-145.493a1.5 1.5 0 0 1 2.431 1.756c-54.731 75.763-113.115 152.696-113.698 153.465a1.5 1.5 0 0 1-2.605-1.419l50.82-140.181-260.447 341.396a1.5 1.5 0 0 1-1.193.591z" fill="#003029" id="LQiidvkAaf8bNStltjS6" /><path d="M825.614 604.906c-19.981-89.445-164.538-111.904-295.192-100.355l25.469-29.963c150.53-29.897 297.214 6.317 292.429 98.605z" fill="#FFBBA0" id="LXVVIueFsmqNweoovUfiN" /><path d="m719.02 248.689 53.699 69.653c103.674 30.432 176.44 126.349 75.601 254.852-19.981-89.445-161.776-110.155-292.429-98.605-18.051-15.644-11.234-34.151-1.754-48.245-19.787-20.77-45.957-48.846-50.134-56.329-6.849-12.272-18.662-71.149-17.025-141.922 30.181-26.637 94.522-58.68 138.479-74.01z" fill="#FFBBA0" id="W9uZ5ZPkQuXysHrpyYIEA" /><path d="M848.319 574.694a1.5 1.5 0 0 1-1.462-1.173c-19.89-89.039-163.277-108.714-290.833-97.438a1.499 1.499 0 1 1-.264-2.988c71.465-6.318 138.319-2.242 188.246 11.477 28.63 7.867 52.012 18.862 69.497 32.679 19.225 15.193 31.432 33.905 36.282 55.616a1.5 1.5 0 0 1-1.466 1.827zm-291.33-473.452c27.018 14.702 49.784 14.62 67.787-2.024 0 0-16.468-4.231-13.404-17.146s30.638-32.475 8.17-60.106c-21.6-26.563-50.962-11.377-62.936.383-11.106 3.447-36.21-36.701-91.674-16.77-47.73 17.152-54.751 54.765-51.127 76.492zm-138.37-2.024s5.604 11.145 5.604 22.578c0 11.489-11.1 16.13-18.59 21.65-6.328 4.663-9.611 14.691-4.774 24.148 3.745 7.323 13.88 11.513 24.639 7.438 13.862-5.251 24.223-1.539 33.8 6.493-3.925-26.015-14.505-22.904-18.701-29.653-4.123-6.632 2.881-9.323-3.608-20.691-3.372-5.908-8.07-21.385-8.07-21.385" fill="#003029" id="uhBOnYI7Wfxs9sHth22Xj" /><path d="M428.967 119.144c-7.964-12.427-13.218-25.034-15.162-37.072-2.644-24.467 5.91-47.236 34.63-62.741 44.205-23.866 80.268-4.335 101.542 34.482 2.678-18.668 24.716-16.852 32.31-2.772 5.619 10.417.31 27.186-20.02 30.264 9.252 46.674-20.807 74.695-55.212 87.957-42.123 16.235-85.57-8.444-78.088-50.118z" fill="#FF8B74" id="G0XSArRWyFNU5aEo3bYEV" /><path d="M494.239 109.191c2.769-13.928-15.112-12.365-14.552-.891-14.07-9.427-21.6 8.388-6.322 10.926-2.171 3.346.547 13.941 11.203 11.626 14.306-3.107 14.342-17.105 9.671-21.661z" fill="#FE3919" id="EeYtfKYTrOt448bNpCY_s" /><path d="M471.185 120.571a1.5 1.5 0 0 1-.145-2.993c12.968-1.276 27.138-10.685 31.587-20.974a1.5 1.5 0 0 1 2.753 1.191c-4.835 11.184-20.108 21.398-34.046 22.769a1.5 1.5 0 0 1-.149.007zm102.73-58.727a1.5 1.5 0 0 1-.356-.043L558.5 58.13a1.5 1.5 0 0 1 .71-2.914l15.058 3.671a1.5 1.5 0 0 1-.353 2.957z" fill="#003029" id="BoCP7IWW0oroInPNTDxr" /><path d="M564.777 66.777a1.5 1.5 0 0 1-1.454-1.873l3.804-14.812a1.5 1.5 0 0 1 2.906.746l-3.804 14.812a1.5 1.5 0 0 1-1.452 1.127zm-131.394 29.71a1.5 1.5 0 0 1-1.328-2.195c3.447-6.593 7.857-8.585 10.95-9.095 4.79-.791 10.168 1.268 14.756 5.646a1.5 1.5 0 1 1-2.071 2.17c-3.9-3.722-8.344-5.491-12.197-4.856-3.519.58-6.472 3.112-8.78 7.525a1.5 1.5 0 0 1-1.33.805z" fill="#003029" id="zTnQqbcJClkd8ePCYul2g" /><path d="M443.989 98.899c3.678 6.499 9.016 10.435 11.922 8.79s2.281-8.247-1.397-14.746c-1.47-2.598-3.206-4.787-4.946-6.373-3.803-.587-8.718.016-8.807.836-.516 4.772 2.027 9.37 3.228 11.493zm37.373-28.404a1.5 1.5 0 0 1-1.328-2.195c3.447-6.593 7.857-8.585 10.95-9.095 4.787-.79 10.168 1.268 14.756 5.646a1.5 1.5 0 1 1-2.071 2.17c-3.9-3.722-8.346-5.491-12.197-4.857-3.519.581-6.473 3.112-8.78 7.525-.267.513-.79.806-1.33.806z" fill="#003029" id="OUYdAX18gieUQVx2ivmt" /><path d="M491.968 72.907c3.678 6.499 9.016 10.435 11.922 8.79s2.281-8.247-1.397-14.746c-1.47-2.598-3.206-4.787-4.946-6.373-3.803-.587-8.718.016-8.807.836-.517 4.772 2.027 9.371 3.228 11.493z" fill="#003029" id="sy4xmtJoNNM3cnWdbrk6j" /><path d="M549.976 53.812c-30.518-.825-69.191-19.68-78.789-43.224-4.198 27.845-23.781 55.077-57.382 71.483-1.262-5.723-8.092-60.106 57.382-75.68 62.451-14.855 78.789 47.421 78.789 47.421s7.254 12.919 10.384 18.958c6.025 11.621 2.173 15.424 6.025 22.216 3.92 6.913 13.009 4.231 15.881 30.383-9.245-8.412-19.448-12.539-33.511-7.851-10.915 3.638-20.872-.957-24.319-8.426-4.452-9.645-.766-19.532 5.745-23.936 7.707-5.213 12.447-8.809 6.167-19.88-4.592-8.096-11.657-15.68-11.657-15.68" fill="#003029" id="l_0Of3k0R9w0rGCI3YHYv" /><path d="m549.977 55.312-.091-.003c-9.366-.557-19.551-2.486-30.271-5.732a1.5 1.5 0 0 1 .869-2.871c10.495 3.178 20.447 5.065 29.579 5.609a1.5 1.5 0 0 1-.086 2.997zm29.648 58.186a1.501 1.501 0 0 1-1.426-1.035c-2.349-7.191-5.53-9.635-8.335-11.791-1.803-1.386-3.507-2.695-4.784-4.947-1.884-3.322-2.09-6.028-2.308-8.892-.257-3.379-.548-7.209-3.744-13.374a1.5 1.5 0 0 1 2.663-1.381c3.477 6.708 3.807 11.043 4.072 14.527.208 2.738.373 4.901 1.926 7.639.978 1.724 2.379 2.801 4.003 4.048 2.995 2.301 6.722 5.165 9.359 13.238a1.501 1.501 0 0 1-1.426 1.968z" fill="#ABFFFF" id="wq3yRS1UngAVaxtUhAGdq" /><path d="m801.652 445.847-21.936 9.86-52.497-117.748 15.95-8.046c57.228 12.875 65.808 79.022 58.483 115.934z" fill="#FF8B74" id="gCL8dfae7ugSctgdeGlwv" /><path d="M715.87 454.235c35.714 16.395 63.846 1.473 63.846 1.473 26.944-12.886-22.578-119.971-52.497-117.748 0-.001-47.063 99.88-11.349 116.275z" fill="#FF8B74" id="JFF0kfbP4_6zTXuAz6JSu" /><path d="M727.219 337.959c-56.41-30.699-96.538-25.642-119.405-10.745-19.791 12.893-12.348 38.177 15.064 32.149 7.238-1.592 39.477-11.553 69.67 11.708 15.59 12.012 57.371-20.757 34.671-33.112z" fill="#FF8B74" id="Oeu2nOBrREcEZllkbGofJ" /><path d="M708.362 354.492s-70.504 12.482-96.89 22.494c-36.826 13.973-32.787 44.733.521 40.819 44.406-5.217 102.074-22.16 102.074-22.16 21.711-7.6 17.429-39.66-5.705-41.153z" fill="#FF8B74" id="nwiiIBjOONpGHGRo7_CfC" /><path d="M651.575 367.456a1.5 1.5 0 0 1-.332-2.963c27.488-6.262 56.567-11.427 56.858-11.478a1.5 1.5 0 0 1 .523 2.955c-.29.051-29.3 5.204-56.714 11.449a1.606 1.606 0 0 1-.335.037z" fill="#003029" id="oxDua5W9R9e5H66R0MNCq" /><path d="M711.274 378.777s-77.726 21.3-94.11 27.532c-36.113 13.737-29.447 46.454 2.81 40.548 48.021-8.792 99.908-25.946 99.908-25.946 23.546-5.131 5.847-45.835-8.608-42.134z" fill="#FF8B74" id="Ab0CtReZcZ2jkGwiv4ptA" /><path d="M597.006 421.846a1.5 1.5 0 0 1-1.211-2.384c4.37-6 11.575-11.033 20.836-14.556 16.264-6.187 91.07-26.707 94.247-27.577a1.5 1.5 0 0 1 .793 2.893c-.777.213-77.843 21.352-93.973 27.488-8.715 3.315-15.45 7.99-19.477 13.518a1.497 1.497 0 0 1-1.215.618z" fill="#003029" id="Yyd3wvSWWMbXbnJSAgDZ0" /><path d="M710.882 411.116c-25.004 10.506-53.058 29.827-68.632 47.26-15.573 17.433 2.795 37.152 26.579 24.236 23.784-12.915 44.285-26.525 47.041-28.378 15.485-10.416 21.469-54.235-4.988-43.118z" fill="#FF8B74" id="zTNUjI7XJ6yJvBjIW21yo" /><path d="M657.015 445.782a1.5 1.5 0 0 1-.964-2.65c15.908-13.324 36.188-25.81 54.249-33.399a1.5 1.5 0 1 1 1.162 2.766c-17.8 7.479-37.794 19.791-53.485 32.933-.28.235-.622.35-.962.35z" fill="#003029" id="wcyrgTxSmTwKz6FpOcEn" /><path d="m1060.721 950.57-80.831 140.242a50.837 50.837 0 0 1-44.045 25.451h-56.963a9 9 0 0 1 0-18h58.522a27.889 27.889 0 0 0 24.163-13.962l82.583-143.282c2.724-4.726 8.842-6.22 13.438-3.281a9.563 9.563 0 0 1 3.133 12.832z" fill="#ABFFFF" id="srTJms5KIwwnvZElgGHsG" /><path d="m979.287 910.731-58.034-38.506-45.835 79.803c-4.857-1.979-10.49-.097-13.14 4.516l-16.714 29.664 77.904 32.127.196.081-.001.005c-.027.11-7.763 31.449-13.25 49.484-23.552 4.7-38.871 9.806-34.531 30.359h61.234a28.355 28.355 0 0 0 14.963-4.281l.044-.028a28.547 28.547 0 0 0 1.552-1.04l.113-.08c.476-.346.941-.707 1.396-1.082.061-.05.123-.099.183-.15.422-.354.832-.722 1.233-1.101.083-.079.169-.155.251-.235.369-.357.726-.728 1.077-1.106.101-.109.205-.214.305-.324.324-.361.634-.735.941-1.114.11-.135.224-.265.332-.403.297-.381.578-.776.856-1.174.1-.142.206-.278.303-.422.357-.53.698-1.074 1.021-1.632l.025-.039 84.372-146.386c-21.603-14.349-44.455-23.743-66.796-26.936z" fill="#25968A" id="l03_fWwqSfi0ODEhMk8ks" /><path d="M942.317 1046.135c-1.497 0-3.014-.192-4.521-.591l-18.879-4.998a1.5 1.5 0 1 1 .768-2.9l18.879 4.998a14.485 14.485 0 0 0 16.506-7.149l12.327-22.855a11.996 11.996 0 0 0 .866-9.461 12 12 0 0 0-6.232-7.171l-86.609-42.347a1.5 1.5 0 0 1 1.318-2.695l86.605 42.345a14.97 14.97 0 0 1 7.773 8.947 14.974 14.974 0 0 1-1.081 11.807l-12.327 22.855a17.47 17.47 0 0 1-15.393 9.215zm52.777-77.026c-10.752 0-19.5-8.748-19.5-19.5s8.748-19.5 19.5-19.5 19.5 8.748 19.5 19.5c0 10.753-8.748 19.5-19.5 19.5zm0-36c-9.098 0-16.5 7.402-16.5 16.5s7.402 16.5 16.5 16.5 16.5-7.402 16.5-16.5-7.402-16.5-16.5-16.5zm-57.979 166.655a1.5 1.5 0 0 1-1.487-1.318c-2.585-21.146-20.817-28.955-25.243-29.042-.828-.016-1.486-.701-1.47-1.529s.684-1.496 1.529-1.47c6.706.132 25.521 10.071 28.162 31.677a1.5 1.5 0 0 1-1.491 1.682z" fill="#003029" id="N91AIFC6aJbFtaFhvCGm" /><path d="M935.845 1117.763h-56.963c-5.79 0-10.5-4.71-10.5-10.5s4.71-10.5 10.5-10.5a1.5 1.5 0 0 1 0 3c-4.135 0-7.5 3.365-7.5 7.5s3.365 7.5 7.5 7.5h56.963c17.585 0 33.964-9.465 42.745-24.7l80.831-140.242a8.052 8.052 0 0 0-2.642-10.82 7.996 7.996 0 0 0-6.257-1.04 7.992 7.992 0 0 0-5.073 3.807 1.501 1.501 0 0 1-2.6-1.498c1.524-2.644 3.996-4.499 6.961-5.223s6.013-.217 8.584 1.427a11.047 11.047 0 0 1 3.625 14.845l-80.831 140.242c-9.313 16.162-26.688 26.202-45.343 26.202z" fill="#003029" id="c-fh1kTsYEnf4dn71hSL" /><path d="M11.203 1117.668h66.105l171.105-13.601c5.342-.423 9.329-5.097 8.906-10.439-.423-5.342-5.097-9.329-10.439-8.906l-170.145 13.54H11.203a9.703 9.703 0 0 0-9.703 9.703c0 5.358 4.344 9.703 9.703 9.703z" fill="#ABFFFF" id="PQJjMJ31aciTxNgHPE_Y9" /><path d="m289.205 996.904-75.152-51.396.191-.21c3.882-4.281 3.054-11.012-1.751-14.223l-28.455-19.016-96.186 113.158-23.845 28.053s-8.72 3.631-17.507 6.951c-25.278 9.548-35.879 17.042-35.876 38.042h66.684l172.675-13.717c.536-20.873-1.116-40.668-8.019-57.881 15.402-9.296 31.188-19.287 47.241-29.761z" fill="#25968A" id="NWN6i7_A3jKTmF0damJJa" /><path d="m77.118 1099.762-.099-.003a1.5 1.5 0 0 1-1.399-1.595c1.236-18.903-3.816-36.48-12.571-43.739a1.5 1.5 0 1 1 1.915-2.309c9.607 7.966 14.965 26.118 13.65 46.245a1.5 1.5 0 0 1-1.496 1.401zm40.758-53.689a15.585 15.585 0 0 1-9.517-3.213l-21.42-16.454a1.5 1.5 0 0 1 1.827-2.379l21.42 16.454c5.192 3.988 12.704 3.313 17.102-1.536l85.653-94.445a1.5 1.5 0 1 1 2.223 2.016l-85.653 94.445c-3.059 3.372-7.336 5.112-11.635 5.112zm113.07-14.607a1.5 1.5 0 0 1-.43-2.937l9.054-2.713-8.076-11.856a1.5 1.5 0 0 1 2.479-1.689l9.229 13.55a1.5 1.5 0 0 1-.809 2.281l-11.017 3.301a1.517 1.517 0 0 1-.43.063zm-17.999 41.304c-10.752 0-19.5-8.748-19.5-19.5s8.748-19.5 19.5-19.5 19.5 8.748 19.5 19.5-8.748 19.5-19.5 19.5zm0-36c-9.098 0-16.5 7.402-16.5 16.5s7.402 16.5 16.5 16.5 16.5-7.402 16.5-16.5-7.402-16.5-16.5-16.5z" fill="#003029" id="E8_ipQ2s3CY0kSow-EkDP" /><path d="M77.307 1119.168H11.203c-6.177 0-11.203-5.025-11.203-11.203s5.025-11.203 11.203-11.203a1.5 1.5 0 0 1 0 3c-4.523 0-8.203 3.68-8.203 8.203s3.68 8.203 8.203 8.203h66.045l171.046-13.596c2.185-.173 4.171-1.186 5.593-2.853s2.11-3.788 1.937-5.972c-.358-4.509-4.321-7.888-8.825-7.529a1.5 1.5 0 1 1-.237-2.991c6.157-.484 11.565 4.124 12.053 10.282s-4.125 11.565-10.283 12.053l-171.104 13.601a1.654 1.654 0 0 1-.121.005z" fill="#003029" id="geu78l-n1FyBweoiPVLeB" /><path d="M607.117 160.973c11.34 24.333 5.55 68.858-45.532 88.992-40.788 16.076-66.064-6.255-64.577-29.868.621-9.707 10.769-16.409 16.64-11.677-4.148 16.013 10.405 38.354 42.958 25.523 38.939-15.347 38.425-50.871 31.965-65.156-3.241-7.034 14.759-16.034 18.546-7.814z" fill="#FFBBA0" id="BlW0Qokmb5j8y47hlrWq6" /><path d="M535.392 256.867c-9.93 0-18.828-2.591-25.903-7.741-9.467-6.89-14.692-17.777-13.978-29.123.436-6.815 4.964-11.771 9.259-13.659 3.574-1.572 7.153-1.241 9.82.908a1.5 1.5 0 0 1 .511 1.544c-1.975 7.625.729 16.315 6.73 21.625 7.874 6.967 20.029 7.722 34.226 2.126 15.249-6.01 25.622-15.57 30.831-28.414 5.233-12.904 3.93-26.74.318-34.729-.938-2.037-.599-4.379.962-6.586 2.883-4.078 9.222-7.031 14.126-6.577 2.892.266 5.088 1.722 6.185 4.1 6.59 14.142 6.732 32.091.379 48.014-5.311 13.311-17.727 31.578-46.722 43.005-9.332 3.679-18.402 5.507-26.744 5.507zm-26.199-48.504c-1.277 0-2.436.385-3.216.728-3.463 1.523-7.117 5.547-7.472 11.103-.649 10.315 4.117 20.225 12.749 26.507 12.173 8.859 30.317 9.54 49.781 1.869 27.998-11.035 39.944-28.564 45.035-41.326 6.052-15.17 5.935-32.23-.313-45.637l-.003-.006c-.647-1.405-1.905-2.203-3.737-2.371-3.82-.353-9.149 2.135-11.402 5.322-.942 1.332-1.172 2.546-.682 3.608 3.881 8.582 5.301 23.375-.267 37.102-5.452 13.443-16.694 23.843-32.511 30.077-20.646 8.137-32.24 1.819-37.314-2.671-6.662-5.895-9.694-15.055-7.888-23.594a5.493 5.493 0 0 0-2.76-.711z" fill="#003029" id="u11sIXXEiOclRCo2xTZgp" /><path d="m743.147 329.896 32.825-16.56 58.484 115.93-32.824 16.56z" fill="#FFBBA0" id="ziczGFtrDOvAcktqag-qk" /><path d="m736.282 287.917 65.066 12.648-25.354 12.79 58.483 115.934c67.645 42.981 81.424-41.153 111.318-57.385 75.962-41.248 78.827-145.656-10.807-173.384-81.969-25.357-142.851-42.766-192.917-53.234-32.202-6.733-71.147-5.84-116.615 8.797z" fill="#FFBBA0" id="MxlHdKChUO2k3W2HTiqIk" /><path d="M801.653 447.348a1.502 1.502 0 0 1-.677-2.84l31.486-15.884-57.132-113.255-31.487 15.884a1.5 1.5 0 1 1-1.351-2.679l32.826-16.559a1.498 1.498 0 0 1 2.015.664l58.483 115.934a1.5 1.5 0 0 1-.664 2.015l-32.826 16.559a1.487 1.487 0 0 1-.673.161zm-.303-145.283c-.095 0-.191-.009-.288-.028l-96.625-18.782a1.5 1.5 0 1 1 .573-2.945l96.625 18.782a1.5 1.5 0 0 1-.285 2.973z" fill="#003029" id="lPAZ18hZBorDwjhDjr5ZK" /><path d="m274.156 543.195-37.168-5.157 19.628-125.555 37.003 4.351z" fill="#FFBBA0" id="XcNlL1Y_5jEz62uWT0" /><g fill="#003029" id="s18giKRGebrZRI-ZpgsQt"><path d="M753.193 292.536a1.5 1.5 0 0 1-1.432-1.056c-5.182-16.724-6.66-45.36-3.855-74.734 2.999-31.403 10-55.664 19.209-66.561a1.5 1.5 0 1 1 2.291 1.937c-8.695 10.288-15.616 34.554-18.514 64.91-2.77 29.004-1.339 57.191 3.734 73.561a1.5 1.5 0 0 1-1.433 1.943zM274.158 544.695a1.5 1.5 0 0 1-1.484-1.729l19.463-126.361a1.5 1.5 0 0 1 2.965.457l-19.463 126.361a1.501 1.501 0 0 1-1.481 1.272zm267.693-129.834c-.4 0-.798-.159-1.094-.473-22.408-23.853-35.215-38.536-38.064-43.643-4.074-7.3-8.88-27.789-12.244-52.199a1.5 1.5 0 1 1 2.972-.41c3.771 27.371 8.69 45.41 11.892 51.146 2.692 4.823 15.704 19.71 37.631 43.051a1.5 1.5 0 0 1-1.093 2.528zm12.285 12.983a1.5 1.5 0 0 1-.102-2.997l20.94-1.444a1.5 1.5 0 0 1 .207 2.993l-20.94 1.444c-.035.003-.07.004-.105.004zm221.86-112.989a1.502 1.502 0 0 1-.677-2.84l94.063-47.45a1.5 1.5 0 1 1 1.351 2.679l-94.063 47.45a1.494 1.494 0 0 1-.674.161zm-81.212 467.388a1.5 1.5 0 0 1-1.19-2.412l31.044-40.542a1.5 1.5 0 0 1 2.382 1.824l-31.044 40.542a1.499 1.499 0 0 1-1.192.588zm-273.528-348.22c-.067 0-.135-.005-.204-.014l-37.116-5.045a1.502 1.502 0 0 1-.162-2.942l26.152-6.542a1.5 1.5 0 0 1 .728 2.91l-18.59 4.651 29.393 3.995a1.5 1.5 0 0 1-.201 2.987zm448.156 8.763c-10.994 0-23-4.124-35.947-12.375a1.5 1.5 0 0 1 1.612-2.53c24.432 15.569 45.227 15.786 61.807.643a1.5 1.5 0 1 1 2.023 2.215c-8.792 8.03-18.651 12.047-29.495 12.047zM76.734 1099.762H11.203a1.5 1.5 0 0 1 0-3h65.472l170.086-13.535a1.5 1.5 0 0 1 .238 2.99l-170.145 13.54c-.041.004-.08.005-.12.005zm860.67.001h-58.522a1.5 1.5 0 0 1 0-3h58.522c9.406 0 18.167-5.062 22.863-13.211l82.583-143.282a1.5 1.5 0 0 1 2.6 1.498l-82.583 143.282c-5.231 9.076-14.988 14.713-25.463 14.713z" fill="#003029" id="m6lma9lah8jC4kD3xZTTV" /></g></g></g><g transform="translate(1173.0 327.0) rotate(0.0 -79.0 209.0) scale(-1.004067107269954 1.0020136158787993)" id="ri2mBb8HGEk0IWa5yvhZX"><g clip-path="url(#clipPath_GvC84sew)" transform="matrix(1 0 0 1 0 0)" id="umW_aETvnmnsJHPQMhzsS"><path d="M59.653 7.948C20.342 15.083-3.007 67.8 7.502 125.694s50.895 99.042 90.206 91.907 62.66-59.852 52.151-117.746S98.964.813 59.653 7.948z" fill="#85ECDE" id="OS63DWNU6AuDcd4E61LOJ" /><path d="M58.366.858c-41.97 7.618-66.898 63.9-55.678 125.709s54.337 105.74 96.306 98.122 66.898-63.9 55.678-125.709S100.335-6.759 58.366.858zM98.79 203.493c-29.301.81-58.735-34.372-67.404-82.134s6.522-91.044 34.239-100.583c28.691 1.47 56.809 36.069 65.242 82.526s-5.733 88.732-32.077 100.191z" fill="#003029" id="ccoZJ7nxiXYyXC1ioI-6S" /><path d="M84.202 208.036c-13.608 0-27.476-7.219-39.696-20.827-14.091-15.691-24.343-38.062-28.868-62.992s-2.789-49.476 4.888-69.119c7.774-19.89 20.715-32.416 36.439-35.27a38.413 38.413 0 0 1 12.282-.214 1.5 1.5 0 0 1-.422 2.97 35.395 35.395 0 0 0-11.324.196c-14.661 2.661-26.799 14.526-34.18 33.41-7.478 19.132-9.157 43.101-4.73 67.491s14.424 46.24 28.148 61.523c13.546 15.085 29.079 21.928 43.741 19.267 5.242-.951 10.212-3.1 14.773-6.387a1.5 1.5 0 0 1 1.754 2.434c-4.926 3.55-10.306 5.873-15.991 6.905-2.258.41-4.533.613-6.814.613z" fill="#ABFFFF" id="XuBa_735x18yztijGyMOl" /><path d="M133.877 416.869c-9.722 1.765-19.033-4.686-20.798-14.407L79.294 216.33l35.205-6.39 33.785 186.132c1.765 9.721-4.686 19.033-14.407 20.797z" fill="#003029" id="mjbP2LSlPNFzhmi5CkLC" /><g fill="#ABFFFF" id="oskegsHUS24gEt71Dgc"><path d="M45.338 120.658a1.5 1.5 0 0 1-1.342-2.169l33.341-66.921a1.5 1.5 0 0 1 2.685 1.337l-33.341 66.921a1.497 1.497 0 0 1-1.343.832zm26.553-17.899a1.5 1.5 0 0 1-1.31-2.229l12.766-22.979a1.5 1.5 0 0 1 2.623 1.457l-12.766 22.979a1.502 1.502 0 0 1-1.313.772z" fill="#ABFFFF" id="O7dhv7L_LiX6cwQ-ZlZ" /></g></g></g><g transform="translate(1126.0 544.0) rotate(0.0 -75.0 91.5) scale(-1.080567081604426 1.080800146469091)" id="Uljc1gDCcZauR1NqG1Cl4"><g clip-path="url(#clipPath_R-8u5q_x)" transform="matrix(1 0 0 1 0 0)" id="S0tXNLikS3t3x_fryi7EM"><path d="M132.798 53.684C114.632 36.721 87.084 12.896 66.116 2.563S31.071 15.209 49.887 34.664s37.42 35.559 39.945 37.718c.775.663-9.375 21.989 13.804 41.185 14.702 12.176 48.992-41.366 29.162-59.883z" fill="#FF8B74" id="kJhDNe4lrUJ8jKGVF6KLN" /><path d="M103.634 115.067c-.247 0-.498-.061-.73-.19-6.991-3.903-12.273-11.232-14.872-20.636-2.211-8.001-2.201-16.555-.062-21.483-4.12-3.566-21.534-18.825-39.161-37.051a1.5 1.5 0 0 1 2.156-2.086c19.651 20.319 39.026 36.923 39.842 37.62a1.5 1.5 0 0 1 .325 1.889c-1.907 3.311-2.627 11.556-.208 20.312 2.383 8.625 7.157 15.307 13.443 18.815a1.501 1.501 0 0 1-.733 2.81z" fill="#003029" id="LpTwjfxMNQ4Jqh84PVz" /><path d="M49.042 77.278C6.101 72.97 1.619 58.383 2.403 48.776c1.618-19.82 31.681-21.061 44.63-19.137C67.557 32.689 73.215 44.866 71.8 51.87c-2.167 10.725-12.591 19.533-40.036 16.454z" fill="#FF8B74" id="F-c8wNcPyJ6bsEmp_qM8h" /><path d="M41.713 70.407c-3.637 0-7.11-.254-10.116-.592a1.5 1.5 0 1 1 .335-2.981c22.594 2.535 35.87-2.742 38.399-15.26.597-2.958-.351-6.582-2.536-9.696-2.73-3.889-8.585-8.912-20.981-10.754-5.125-.762-13.476-1.059-21.546.391a1.501 1.501 0 0 1-.531-2.953c8.428-1.514 17.158-1.203 22.518-.406 13.449 1.999 19.928 7.628 22.996 11.998 2.688 3.831 3.79 8.21 3.021 12.014-3.01 14.889-18.362 18.239-31.559 18.239z" fill="#003029" id="ZtO4RG1K7c959PvNYahCA" /><path d="M46.716 109.089C3.775 104.781-.707 90.194.077 80.587c1.618-19.82 31.681-21.061 44.63-19.137 20.524 3.05 26.182 15.227 24.767 22.231-2.167 10.725-12.591 19.533-40.036 16.454z" fill="#FF8B74" id="WuiqK-0DN0Fp9T-vTlPQQ" /><path d="M39.387 102.218c-3.637 0-7.11-.254-10.117-.592a1.5 1.5 0 1 1 .335-2.981c22.592 2.535 35.87-2.742 38.399-15.26.597-2.958-.351-6.582-2.536-9.697-2.73-3.889-8.586-8.912-20.981-10.754-10.15-1.508-28.534-.848-37.58 7.154a1.499 1.499 0 1 1-1.987-2.247c4.508-3.988 11.494-6.718 20.203-7.894 6.454-.872 13.858-.864 19.806.019 13.449 1.999 19.928 7.628 22.995 11.998 2.689 3.831 3.79 8.21 3.021 12.014-3.009 14.89-18.361 18.24-31.558 18.24z" fill="#003029" id="BgYCfv_h9v3fVlDy22o-v" /><path d="M48.005 141.359C5.064 137.051.582 122.465 1.366 112.857c1.618-19.82 31.681-21.061 44.63-19.137 20.524 3.05 26.182 15.227 24.767 22.231-2.167 10.725-12.591 19.533-40.036 16.454z" fill="#FF8B74" id="u-Nm6_SuVC0QHBmpyUBB-" /><path d="M40.676 134.488c-3.637 0-7.11-.254-10.117-.592a1.5 1.5 0 1 1 .335-2.981c22.593 2.534 35.87-2.742 38.399-15.26.597-2.958-.351-6.582-2.536-9.697-2.73-3.889-8.586-8.912-20.981-10.754-11.696-1.738-32.979-.501-40.306 10.215a1.5 1.5 0 0 1-2.477-1.693c9.121-13.34 34.294-12.817 43.223-11.49 13.449 1.999 19.928 7.628 22.995 11.998 2.689 3.831 3.79 8.21 3.021 12.014-3.007 14.889-18.359 18.239-31.556 18.24z" fill="#003029" id="ROvnvl4ExCLnuMGwBMC0E" /><path d="M33.957 169.319C6.64 163.344 1.683 151.206 2.35 143.041c1.618-19.82 31.681-21.061 44.63-19.137 20.524 3.05 26.182 15.227 24.767 22.231-2.167 10.725-12.591 19.533-40.036 16.454 0 0 2.528.821 3.147 1.919-.266 1.89-.667 3.322-.901 4.811z" fill="#FF8B74" id="DCyL9kfok7yngponY9sSV" /><path d="M41.66 164.672c-3.637 0-7.11-.254-10.117-.592a1.5 1.5 0 1 1 .335-2.981c22.593 2.535 35.87-2.742 38.399-15.26.597-2.958-.351-6.582-2.536-9.696-2.73-3.889-8.585-8.912-20.981-10.754-11.197-1.664-31.875-.584-39.705 9.397a1.5 1.5 0 1 1-2.36-1.852c8.676-11.058 30.175-12.345 42.507-10.513 13.449 1.999 19.928 7.628 22.996 11.998 2.688 3.831 3.79 8.21 3.021 12.014-3.01 14.889-18.361 18.239-31.559 18.239z" fill="#003029" id="rsfvvelAY_rdCGdqe0ZVN" /></g></g><g transform="translate(684.0 215.0) rotate(69.1872890994523 50.0 50.0) scale(2.2080904433845614 2.2080904433845614)" id="eaDrUt2YujAd6y9fxClza"><g clip-path="url(#clipPath_j4RD5eBu)" transform="matrix(1 0 0 1 0 0)" id="nYMxyvVGKlX_f-ATF_OM"><path d="M38.358 36.999 27.219 43.43c-6.628 3.827-15.103 1.556-18.929-5.072L1.859 27.219C-1.968 20.591.303 12.116 6.931 8.29L18.07 1.859C24.698-1.968 33.173.303 36.999 6.931L43.43 18.07c3.826 6.627 1.555 15.102-5.072 18.929z" fill="#FF8B74" id="HCOBt1JT-xChzsIFu1" /></g></g><g transform="translate(1195.0 144.0) rotate(27.78810649750194 65.0 100.5) scale(1.009058238184316 1.011896071728832)" id="CC35qUS7H5wAmzEb1jMEI"><g clip-path="url(#clipPath_T3MQJGto)" transform="matrix(1 0 0 1 0 0)" id="UGfM0pQ_5iMeezskU5H-H"><g fill="#FE3919" id="wXTOrDYvyjx_0W3Duu7gC"><path d="M79.416 146.811h-30V98.833h15c18.977 0 34.416-15.438 34.416-34.416S83.394 30 64.416 30 30 45.439 30 64.417H0C0 28.897 28.897 0 64.416 0s64.416 28.897 64.416 64.417c0 30.357-21.106 55.877-49.416 62.653z" fill="#FE3919" id="Vxi_HaLjNee6Nq5NsLe4m" /><circle cx="64.416" cy="182.356" r="16.281" fill="#FE3919" id="WzxoR24dTEGpCsWqqNop1" /></g></g></g><g transform="translate(1285.0 354.0) rotate(62.34556423120974 42.0 65.0) scale(0.6520068615960196 0.6544601458942695)" id="BmeyWZPlN6-KjMKM_aSy"><g clip-path="url(#clipPath_yaUsuGIg)" transform="matrix(1 0 0 1 0 0)" id="CyeI1cMc0fxHDexrqvvdD"><g fill="#FE3919" id="CQyv3xNOnQIB0vcFjwh2l"><path d="M79.416 146.811h-30V98.833h15c18.977 0 34.416-15.438 34.416-34.416S83.394 30 64.416 30 30 45.439 30 64.417H0C0 28.897 28.897 0 64.416 0s64.416 28.897 64.416 64.417c0 30.357-21.106 55.877-49.416 62.653z" fill="#FE3919" id="ZqzsY-E7zQy01VxHBj3Ji" /><circle cx="64.416" cy="182.356" r="16.281" fill="#FE3919" id="wJHqHQbDZfVYcuugwI" /></g></g></g><g transform="translate(695.0 244.0) rotate(27.013786095225605 40.5 13.5) scale(1.0459845814124666 1.0034190575293593)" id="uYAScv-kYLVg7KjVmpQ5B"><g clip-path="url(#clipPath_vBGrzsd0)" transform="matrix(1 0 0 1 0 0)" id="YIg2_i9CU-QBKHaXUIgsf"><g fill="#003029" id="gbhXfxkhmiSWpUuUUul"><path d="M1.501 18.233a1.5 1.5 0 0 1-1.449-1.895C2.561 7.14 10.832-1.466 23.065 1.368a1.499 1.499 0 1 1-.678 2.922C12.033 1.891 5.162 9.008 2.947 17.128a1.5 1.5 0 0 1-1.446 1.105z" fill="#003029" id="a8SxE4zV9anntnbpQv85" /><path d="M21.464 13.2c-.181 7.649-3.035 13.786-6.374 13.707s-5.899-6.344-5.717-13.994c.086-3.645.78-6.946 1.843-9.395.179-.412 8.141-1.402 8.403-.85 1.222 2.57 1.945 6.343 1.845 10.532zm33.25 4.211a1.5 1.5 0 0 1-1.448-1.895C55.775 6.317 64.045-2.294 76.278.545a1.499 1.499 0 1 1-.678 2.922C65.243 1.062 58.375 8.185 56.16 16.306a1.5 1.5 0 0 1-1.446 1.105z" fill="#003029" id="ZBX0A29IqD_tnS7fD_Lxz" /><path d="M74.677 12.378c-.181 7.649-3.035 13.786-6.374 13.707s-5.899-6.344-5.717-13.994c.086-3.645.78-6.946 1.843-9.395.179-.412 8.141-1.402 8.403-.85 1.222 2.569 1.945 6.343 1.845 10.532z" fill="#003029" id="ewWNb-JPIQEgVMIPhA_fG" /></g></g></g><g transform="translate(701.0 279.0) rotate(18.041902132233684 22.5 16.0) scale(1.0332476120499632 1.0912563088255354)" id="Bo4-hclLpr_F9s1XURfPq"><g clip-path="url(#clipPath_IqWHCJZK)" transform="matrix(1 0 0 1 0 0)" id="qnku1oKYG4Bq6XMTYaPKQ"><path d="M14.711 11.965C7.446-.236 24.82-4.742 28.128 6.26c10.109-13.588 23.161.684 9.611 8.184 3.165 2.427 4.145 13.322-6.672 14.703C16.546 31 11.832 17.821 14.711 11.965z" fill="#FE3919" id="qoUZkAfwJP9_GiUsV9Iy" /><path d="M30.459 16.141c-11.473 0-23.624-4.272-30.057-11.192a1.5 1.5 0 0 1 2.197-2.043c7.633 8.211 24.132 12.34 36.781 9.208a1.5 1.5 0 1 1 .722 2.912c-3.054.756-6.321 1.115-9.643 1.115z" fill="#003029" id="iOIfNmSbp3MBhzXk8w41N" /></g></g></g></g></svg>